<?xml version="1.0" encoding="utf-8" standalone="no"?>
<!DOCTYPE svg PUBLIC "-//W3C//DTD SVG 1.1//EN"
  "http://www.w3.org/Graphics/SVG/1.1/DTD/svg11.dtd">
<svg xmlns:xlink="http://www.w3.org/1999/xlink" width="453.99pt" height="322.517pt" viewBox="0 0 453.99 322.517" xmlns="http://www.w3.org/2000/svg" version="1.1">
 <metadata>
  <rdf:RDF xmlns:dc="http://purl.org/dc/elements/1.1/" xmlns:cc="http://creativecommons.org/ns#" xmlns:rdf="http://www.w3.org/1999/02/22-rdf-syntax-ns#">
   <cc:Work>
    <dc:type rdf:resource="http://purl.org/dc/dcmitype/StillImage"/>
    <dc:date>2023-05-23T19:54:04.883518</dc:date>
    <dc:format>image/svg+xml</dc:format>
    <dc:creator>
     <cc:Agent>
      <dc:title>Matplotlib v3.6.2, https://matplotlib.org/</dc:title>
     </cc:Agent>
    </dc:creator>
   </cc:Work>
  </rdf:RDF>
 </metadata>
 <defs>
  <style type="text/css">*{stroke-linejoin: round; stroke-linecap: butt}</style>
 </defs>
 <g id="figure_1">
  <g id="patch_1">
   <path d="M 0 322.517 
L 453.99 322.517 
L 453.99 0 
L 0 0 
z
" style="fill: #ffffff"/>
  </g>
  <g id="axes_1">
   <g id="patch_2">
    <path d="M 89.67 273.312 
L 446.79 273.312 
L 446.79 7.2 
L 89.67 7.2 
z
" style="fill: #ffffff"/>
   </g>
   <g id="matplotlib.axis_1">
    <g id="xtick_1">
     <g id="line2d_1">
      <defs>
       <path id="mc5df0dea73" d="M 0 0 
L 0 3.5 
" style="stroke: #000000; stroke-width: 0.8"/>
      </defs>
      <g>
       <use xlink:href="#mc5df0dea73" x="105.902727" y="273.312" style="stroke: #000000; stroke-width: 0.8"/>
      </g>
     </g>
     <g id="text_1">
      <!-- 0 -->
      <g transform="translate(100.812727 292.4695) scale(0.16 -0.16)">
       <defs>
        <path id="DejaVuSans-30" d="M 2034 4250 
Q 1547 4250 1301 3770 
Q 1056 3291 1056 2328 
Q 1056 1369 1301 889 
Q 1547 409 2034 409 
Q 2525 409 2770 889 
Q 3016 1369 3016 2328 
Q 3016 3291 2770 3770 
Q 2525 4250 2034 4250 
z
M 2034 4750 
Q 2819 4750 3233 4129 
Q 3647 3509 3647 2328 
Q 3647 1150 3233 529 
Q 2819 -91 2034 -91 
Q 1250 -91 836 529 
Q 422 1150 422 2328 
Q 422 3509 836 4129 
Q 1250 4750 2034 4750 
z
" transform="scale(0.015625)"/>
       </defs>
       <use xlink:href="#DejaVuSans-30"/>
      </g>
     </g>
    </g>
    <g id="xtick_2">
     <g id="line2d_2">
      <g>
       <use xlink:href="#mc5df0dea73" x="160.102151" y="273.312" style="stroke: #000000; stroke-width: 0.8"/>
      </g>
     </g>
     <g id="text_2">
      <!-- 100 -->
      <g transform="translate(144.832151 292.4695) scale(0.16 -0.16)">
       <defs>
        <path id="DejaVuSans-31" d="M 794 531 
L 1825 531 
L 1825 4091 
L 703 3866 
L 703 4441 
L 1819 4666 
L 2450 4666 
L 2450 531 
L 3481 531 
L 3481 0 
L 794 0 
L 794 531 
z
" transform="scale(0.015625)"/>
       </defs>
       <use xlink:href="#DejaVuSans-31"/>
       <use xlink:href="#DejaVuSans-30" x="63.623047"/>
       <use xlink:href="#DejaVuSans-30" x="127.246094"/>
      </g>
     </g>
    </g>
    <g id="xtick_3">
     <g id="line2d_3">
      <g>
       <use xlink:href="#mc5df0dea73" x="214.301574" y="273.312" style="stroke: #000000; stroke-width: 0.8"/>
      </g>
     </g>
     <g id="text_3">
      <!-- 200 -->
      <g transform="translate(199.031574 292.4695) scale(0.16 -0.16)">
       <defs>
        <path id="DejaVuSans-32" d="M 1228 531 
L 3431 531 
L 3431 0 
L 469 0 
L 469 531 
Q 828 903 1448 1529 
Q 2069 2156 2228 2338 
Q 2531 2678 2651 2914 
Q 2772 3150 2772 3378 
Q 2772 3750 2511 3984 
Q 2250 4219 1831 4219 
Q 1534 4219 1204 4116 
Q 875 4013 500 3803 
L 500 4441 
Q 881 4594 1212 4672 
Q 1544 4750 1819 4750 
Q 2544 4750 2975 4387 
Q 3406 4025 3406 3419 
Q 3406 3131 3298 2873 
Q 3191 2616 2906 2266 
Q 2828 2175 2409 1742 
Q 1991 1309 1228 531 
z
" transform="scale(0.015625)"/>
       </defs>
       <use xlink:href="#DejaVuSans-32"/>
       <use xlink:href="#DejaVuSans-30" x="63.623047"/>
       <use xlink:href="#DejaVuSans-30" x="127.246094"/>
      </g>
     </g>
    </g>
    <g id="xtick_4">
     <g id="line2d_4">
      <g>
       <use xlink:href="#mc5df0dea73" x="268.500997" y="273.312" style="stroke: #000000; stroke-width: 0.8"/>
      </g>
     </g>
     <g id="text_4">
      <!-- 300 -->
      <g transform="translate(253.230997 292.4695) scale(0.16 -0.16)">
       <defs>
        <path id="DejaVuSans-33" d="M 2597 2516 
Q 3050 2419 3304 2112 
Q 3559 1806 3559 1356 
Q 3559 666 3084 287 
Q 2609 -91 1734 -91 
Q 1441 -91 1130 -33 
Q 819 25 488 141 
L 488 750 
Q 750 597 1062 519 
Q 1375 441 1716 441 
Q 2309 441 2620 675 
Q 2931 909 2931 1356 
Q 2931 1769 2642 2001 
Q 2353 2234 1838 2234 
L 1294 2234 
L 1294 2753 
L 1863 2753 
Q 2328 2753 2575 2939 
Q 2822 3125 2822 3475 
Q 2822 3834 2567 4026 
Q 2313 4219 1838 4219 
Q 1578 4219 1281 4162 
Q 984 4106 628 3988 
L 628 4550 
Q 988 4650 1302 4700 
Q 1616 4750 1894 4750 
Q 2613 4750 3031 4423 
Q 3450 4097 3450 3541 
Q 3450 3153 3228 2886 
Q 3006 2619 2597 2516 
z
" transform="scale(0.015625)"/>
       </defs>
       <use xlink:href="#DejaVuSans-33"/>
       <use xlink:href="#DejaVuSans-30" x="63.623047"/>
       <use xlink:href="#DejaVuSans-30" x="127.246094"/>
      </g>
     </g>
    </g>
    <g id="xtick_5">
     <g id="line2d_5">
      <g>
       <use xlink:href="#mc5df0dea73" x="322.70042" y="273.312" style="stroke: #000000; stroke-width: 0.8"/>
      </g>
     </g>
     <g id="text_5">
      <!-- 400 -->
      <g transform="translate(307.43042 292.4695) scale(0.16 -0.16)">
       <defs>
        <path id="DejaVuSans-34" d="M 2419 4116 
L 825 1625 
L 2419 1625 
L 2419 4116 
z
M 2253 4666 
L 3047 4666 
L 3047 1625 
L 3713 1625 
L 3713 1100 
L 3047 1100 
L 3047 0 
L 2419 0 
L 2419 1100 
L 313 1100 
L 313 1709 
L 2253 4666 
z
" transform="scale(0.015625)"/>
       </defs>
       <use xlink:href="#DejaVuSans-34"/>
       <use xlink:href="#DejaVuSans-30" x="63.623047"/>
       <use xlink:href="#DejaVuSans-30" x="127.246094"/>
      </g>
     </g>
    </g>
    <g id="xtick_6">
     <g id="line2d_6">
      <g>
       <use xlink:href="#mc5df0dea73" x="376.899844" y="273.312" style="stroke: #000000; stroke-width: 0.8"/>
      </g>
     </g>
     <g id="text_6">
      <!-- 500 -->
      <g transform="translate(361.629844 292.4695) scale(0.16 -0.16)">
       <defs>
        <path id="DejaVuSans-35" d="M 691 4666 
L 3169 4666 
L 3169 4134 
L 1269 4134 
L 1269 2991 
Q 1406 3038 1543 3061 
Q 1681 3084 1819 3084 
Q 2600 3084 3056 2656 
Q 3513 2228 3513 1497 
Q 3513 744 3044 326 
Q 2575 -91 1722 -91 
Q 1428 -91 1123 -41 
Q 819 9 494 109 
L 494 744 
Q 775 591 1075 516 
Q 1375 441 1709 441 
Q 2250 441 2565 725 
Q 2881 1009 2881 1497 
Q 2881 1984 2565 2268 
Q 2250 2553 1709 2553 
Q 1456 2553 1204 2497 
Q 953 2441 691 2322 
L 691 4666 
z
" transform="scale(0.015625)"/>
       </defs>
       <use xlink:href="#DejaVuSans-35"/>
       <use xlink:href="#DejaVuSans-30" x="63.623047"/>
       <use xlink:href="#DejaVuSans-30" x="127.246094"/>
      </g>
     </g>
    </g>
    <g id="xtick_7">
     <g id="line2d_7">
      <g>
       <use xlink:href="#mc5df0dea73" x="431.099267" y="273.312" style="stroke: #000000; stroke-width: 0.8"/>
      </g>
     </g>
     <g id="text_7">
      <!-- 600 -->
      <g transform="translate(415.829267 292.4695) scale(0.16 -0.16)">
       <defs>
        <path id="DejaVuSans-36" d="M 2113 2584 
Q 1688 2584 1439 2293 
Q 1191 2003 1191 1497 
Q 1191 994 1439 701 
Q 1688 409 2113 409 
Q 2538 409 2786 701 
Q 3034 994 3034 1497 
Q 3034 2003 2786 2293 
Q 2538 2584 2113 2584 
z
M 3366 4563 
L 3366 3988 
Q 3128 4100 2886 4159 
Q 2644 4219 2406 4219 
Q 1781 4219 1451 3797 
Q 1122 3375 1075 2522 
Q 1259 2794 1537 2939 
Q 1816 3084 2150 3084 
Q 2853 3084 3261 2657 
Q 3669 2231 3669 1497 
Q 3669 778 3244 343 
Q 2819 -91 2113 -91 
Q 1303 -91 875 529 
Q 447 1150 447 2328 
Q 447 3434 972 4092 
Q 1497 4750 2381 4750 
Q 2619 4750 2861 4703 
Q 3103 4656 3366 4563 
z
" transform="scale(0.015625)"/>
       </defs>
       <use xlink:href="#DejaVuSans-36"/>
       <use xlink:href="#DejaVuSans-30" x="63.623047"/>
       <use xlink:href="#DejaVuSans-30" x="127.246094"/>
      </g>
     </g>
    </g>
    <g id="text_8">
     <!-- Radius ($\mu$m) -->
     <g transform="translate(219.51 311.957) scale(0.16 -0.16)">
      <defs>
       <path id="DejaVuSans-52" d="M 2841 2188 
Q 3044 2119 3236 1894 
Q 3428 1669 3622 1275 
L 4263 0 
L 3584 0 
L 2988 1197 
Q 2756 1666 2539 1819 
Q 2322 1972 1947 1972 
L 1259 1972 
L 1259 0 
L 628 0 
L 628 4666 
L 2053 4666 
Q 2853 4666 3247 4331 
Q 3641 3997 3641 3322 
Q 3641 2881 3436 2590 
Q 3231 2300 2841 2188 
z
M 1259 4147 
L 1259 2491 
L 2053 2491 
Q 2509 2491 2742 2702 
Q 2975 2913 2975 3322 
Q 2975 3731 2742 3939 
Q 2509 4147 2053 4147 
L 1259 4147 
z
" transform="scale(0.015625)"/>
       <path id="DejaVuSans-61" d="M 2194 1759 
Q 1497 1759 1228 1600 
Q 959 1441 959 1056 
Q 959 750 1161 570 
Q 1363 391 1709 391 
Q 2188 391 2477 730 
Q 2766 1069 2766 1631 
L 2766 1759 
L 2194 1759 
z
M 3341 1997 
L 3341 0 
L 2766 0 
L 2766 531 
Q 2569 213 2275 61 
Q 1981 -91 1556 -91 
Q 1019 -91 701 211 
Q 384 513 384 1019 
Q 384 1609 779 1909 
Q 1175 2209 1959 2209 
L 2766 2209 
L 2766 2266 
Q 2766 2663 2505 2880 
Q 2244 3097 1772 3097 
Q 1472 3097 1187 3025 
Q 903 2953 641 2809 
L 641 3341 
Q 956 3463 1253 3523 
Q 1550 3584 1831 3584 
Q 2591 3584 2966 3190 
Q 3341 2797 3341 1997 
z
" transform="scale(0.015625)"/>
       <path id="DejaVuSans-64" d="M 2906 2969 
L 2906 4863 
L 3481 4863 
L 3481 0 
L 2906 0 
L 2906 525 
Q 2725 213 2448 61 
Q 2172 -91 1784 -91 
Q 1150 -91 751 415 
Q 353 922 353 1747 
Q 353 2572 751 3078 
Q 1150 3584 1784 3584 
Q 2172 3584 2448 3432 
Q 2725 3281 2906 2969 
z
M 947 1747 
Q 947 1113 1208 752 
Q 1469 391 1925 391 
Q 2381 391 2643 752 
Q 2906 1113 2906 1747 
Q 2906 2381 2643 2742 
Q 2381 3103 1925 3103 
Q 1469 3103 1208 2742 
Q 947 2381 947 1747 
z
" transform="scale(0.015625)"/>
       <path id="DejaVuSans-69" d="M 603 3500 
L 1178 3500 
L 1178 0 
L 603 0 
L 603 3500 
z
M 603 4863 
L 1178 4863 
L 1178 4134 
L 603 4134 
L 603 4863 
z
" transform="scale(0.015625)"/>
       <path id="DejaVuSans-75" d="M 544 1381 
L 544 3500 
L 1119 3500 
L 1119 1403 
Q 1119 906 1312 657 
Q 1506 409 1894 409 
Q 2359 409 2629 706 
Q 2900 1003 2900 1516 
L 2900 3500 
L 3475 3500 
L 3475 0 
L 2900 0 
L 2900 538 
Q 2691 219 2414 64 
Q 2138 -91 1772 -91 
Q 1169 -91 856 284 
Q 544 659 544 1381 
z
M 1991 3584 
L 1991 3584 
z
" transform="scale(0.015625)"/>
       <path id="DejaVuSans-73" d="M 2834 3397 
L 2834 2853 
Q 2591 2978 2328 3040 
Q 2066 3103 1784 3103 
Q 1356 3103 1142 2972 
Q 928 2841 928 2578 
Q 928 2378 1081 2264 
Q 1234 2150 1697 2047 
L 1894 2003 
Q 2506 1872 2764 1633 
Q 3022 1394 3022 966 
Q 3022 478 2636 193 
Q 2250 -91 1575 -91 
Q 1294 -91 989 -36 
Q 684 19 347 128 
L 347 722 
Q 666 556 975 473 
Q 1284 391 1588 391 
Q 1994 391 2212 530 
Q 2431 669 2431 922 
Q 2431 1156 2273 1281 
Q 2116 1406 1581 1522 
L 1381 1569 
Q 847 1681 609 1914 
Q 372 2147 372 2553 
Q 372 3047 722 3315 
Q 1072 3584 1716 3584 
Q 2034 3584 2315 3537 
Q 2597 3491 2834 3397 
z
" transform="scale(0.015625)"/>
       <path id="DejaVuSans-20" transform="scale(0.015625)"/>
       <path id="DejaVuSans-28" d="M 1984 4856 
Q 1566 4138 1362 3434 
Q 1159 2731 1159 2009 
Q 1159 1288 1364 580 
Q 1569 -128 1984 -844 
L 1484 -844 
Q 1016 -109 783 600 
Q 550 1309 550 2009 
Q 550 2706 781 3412 
Q 1013 4119 1484 4856 
L 1984 4856 
z
" transform="scale(0.015625)"/>
       <path id="DejaVuSans-Oblique-3bc" d="M -84 -1331 
L 856 3500 
L 1434 3500 
L 1009 1322 
Q 997 1256 987 1175 
Q 978 1094 978 1013 
Q 978 722 1161 565 
Q 1344 409 1684 409 
Q 2147 409 2431 671 
Q 2716 934 2816 1459 
L 3213 3500 
L 3788 3500 
L 3266 809 
Q 3253 750 3248 706 
Q 3244 663 3244 628 
Q 3244 531 3283 486 
Q 3322 441 3406 441 
Q 3438 441 3492 456 
Q 3547 472 3647 513 
L 3559 50 
Q 3422 -19 3297 -55 
Q 3172 -91 3053 -91 
Q 2847 -91 2730 40 
Q 2613 172 2613 403 
Q 2438 153 2195 31 
Q 1953 -91 1625 -91 
Q 1334 -91 1117 43 
Q 900 178 831 397 
L 494 -1331 
L -84 -1331 
z
" transform="scale(0.015625)"/>
       <path id="DejaVuSans-6d" d="M 3328 2828 
Q 3544 3216 3844 3400 
Q 4144 3584 4550 3584 
Q 5097 3584 5394 3201 
Q 5691 2819 5691 2113 
L 5691 0 
L 5113 0 
L 5113 2094 
Q 5113 2597 4934 2840 
Q 4756 3084 4391 3084 
Q 3944 3084 3684 2787 
Q 3425 2491 3425 1978 
L 3425 0 
L 2847 0 
L 2847 2094 
Q 2847 2600 2669 2842 
Q 2491 3084 2119 3084 
Q 1678 3084 1418 2786 
Q 1159 2488 1159 1978 
L 1159 0 
L 581 0 
L 581 3500 
L 1159 3500 
L 1159 2956 
Q 1356 3278 1631 3431 
Q 1906 3584 2284 3584 
Q 2666 3584 2933 3390 
Q 3200 3197 3328 2828 
z
" transform="scale(0.015625)"/>
       <path id="DejaVuSans-29" d="M 513 4856 
L 1013 4856 
Q 1481 4119 1714 3412 
Q 1947 2706 1947 2009 
Q 1947 1309 1714 600 
Q 1481 -109 1013 -844 
L 513 -844 
Q 928 -128 1133 580 
Q 1338 1288 1338 2009 
Q 1338 2731 1133 3434 
Q 928 4138 513 4856 
z
" transform="scale(0.015625)"/>
      </defs>
      <use xlink:href="#DejaVuSans-52" transform="translate(0 0.015625)"/>
      <use xlink:href="#DejaVuSans-61" transform="translate(69.482422 0.015625)"/>
      <use xlink:href="#DejaVuSans-64" transform="translate(130.761719 0.015625)"/>
      <use xlink:href="#DejaVuSans-69" transform="translate(194.238281 0.015625)"/>
      <use xlink:href="#DejaVuSans-75" transform="translate(222.021484 0.015625)"/>
      <use xlink:href="#DejaVuSans-73" transform="translate(285.400391 0.015625)"/>
      <use xlink:href="#DejaVuSans-20" transform="translate(337.5 0.015625)"/>
      <use xlink:href="#DejaVuSans-28" transform="translate(369.287109 0.015625)"/>
      <use xlink:href="#DejaVuSans-Oblique-3bc" transform="translate(408.300781 0.015625)"/>
      <use xlink:href="#DejaVuSans-6d" transform="translate(471.923828 0.015625)"/>
      <use xlink:href="#DejaVuSans-29" transform="translate(569.335938 0.015625)"/>
     </g>
    </g>
   </g>
   <g id="matplotlib.axis_2">
    <g id="ytick_1">
     <g id="line2d_8">
      <defs>
       <path id="m2c4d663793" d="M 0 0 
L -3.5 0 
" style="stroke: #000000; stroke-width: 0.8"/>
      </defs>
      <g>
       <use xlink:href="#m2c4d663793" x="89.67" y="260.233766" style="stroke: #000000; stroke-width: 0.8"/>
      </g>
     </g>
     <g id="text_9">
      <!-- 0.0000 -->
      <g transform="translate(26.685 266.312516) scale(0.16 -0.16)">
       <defs>
        <path id="DejaVuSans-2e" d="M 684 794 
L 1344 794 
L 1344 0 
L 684 0 
L 684 794 
z
" transform="scale(0.015625)"/>
       </defs>
       <use xlink:href="#DejaVuSans-30"/>
       <use xlink:href="#DejaVuSans-2e" x="63.623047"/>
       <use xlink:href="#DejaVuSans-30" x="95.410156"/>
       <use xlink:href="#DejaVuSans-30" x="159.033203"/>
       <use xlink:href="#DejaVuSans-30" x="222.65625"/>
       <use xlink:href="#DejaVuSans-30" x="286.279297"/>
      </g>
     </g>
    </g>
    <g id="ytick_2">
     <g id="line2d_9">
      <g>
       <use xlink:href="#m2c4d663793" x="89.67" y="219.601139" style="stroke: #000000; stroke-width: 0.8"/>
      </g>
     </g>
     <g id="text_10">
      <!-- 0.0025 -->
      <g transform="translate(26.685 225.679889) scale(0.16 -0.16)">
       <use xlink:href="#DejaVuSans-30"/>
       <use xlink:href="#DejaVuSans-2e" x="63.623047"/>
       <use xlink:href="#DejaVuSans-30" x="95.410156"/>
       <use xlink:href="#DejaVuSans-30" x="159.033203"/>
       <use xlink:href="#DejaVuSans-32" x="222.65625"/>
       <use xlink:href="#DejaVuSans-35" x="286.279297"/>
      </g>
     </g>
    </g>
    <g id="ytick_3">
     <g id="line2d_10">
      <g>
       <use xlink:href="#m2c4d663793" x="89.67" y="178.968512" style="stroke: #000000; stroke-width: 0.8"/>
      </g>
     </g>
     <g id="text_11">
      <!-- 0.0050 -->
      <g transform="translate(26.685 185.047262) scale(0.16 -0.16)">
       <use xlink:href="#DejaVuSans-30"/>
       <use xlink:href="#DejaVuSans-2e" x="63.623047"/>
       <use xlink:href="#DejaVuSans-30" x="95.410156"/>
       <use xlink:href="#DejaVuSans-30" x="159.033203"/>
       <use xlink:href="#DejaVuSans-35" x="222.65625"/>
       <use xlink:href="#DejaVuSans-30" x="286.279297"/>
      </g>
     </g>
    </g>
    <g id="ytick_4">
     <g id="line2d_11">
      <g>
       <use xlink:href="#m2c4d663793" x="89.67" y="138.335885" style="stroke: #000000; stroke-width: 0.8"/>
      </g>
     </g>
     <g id="text_12">
      <!-- 0.0075 -->
      <g transform="translate(26.685 144.414635) scale(0.16 -0.16)">
       <defs>
        <path id="DejaVuSans-37" d="M 525 4666 
L 3525 4666 
L 3525 4397 
L 1831 0 
L 1172 0 
L 2766 4134 
L 525 4134 
L 525 4666 
z
" transform="scale(0.015625)"/>
       </defs>
       <use xlink:href="#DejaVuSans-30"/>
       <use xlink:href="#DejaVuSans-2e" x="63.623047"/>
       <use xlink:href="#DejaVuSans-30" x="95.410156"/>
       <use xlink:href="#DejaVuSans-30" x="159.033203"/>
       <use xlink:href="#DejaVuSans-37" x="222.65625"/>
       <use xlink:href="#DejaVuSans-35" x="286.279297"/>
      </g>
     </g>
    </g>
    <g id="ytick_5">
     <g id="line2d_12">
      <g>
       <use xlink:href="#m2c4d663793" x="89.67" y="97.703257" style="stroke: #000000; stroke-width: 0.8"/>
      </g>
     </g>
     <g id="text_13">
      <!-- 0.0100 -->
      <g transform="translate(26.685 103.782007) scale(0.16 -0.16)">
       <use xlink:href="#DejaVuSans-30"/>
       <use xlink:href="#DejaVuSans-2e" x="63.623047"/>
       <use xlink:href="#DejaVuSans-30" x="95.410156"/>
       <use xlink:href="#DejaVuSans-31" x="159.033203"/>
       <use xlink:href="#DejaVuSans-30" x="222.65625"/>
       <use xlink:href="#DejaVuSans-30" x="286.279297"/>
      </g>
     </g>
    </g>
    <g id="ytick_6">
     <g id="line2d_13">
      <g>
       <use xlink:href="#m2c4d663793" x="89.67" y="57.07063" style="stroke: #000000; stroke-width: 0.8"/>
      </g>
     </g>
     <g id="text_14">
      <!-- 0.0125 -->
      <g transform="translate(26.685 63.14938) scale(0.16 -0.16)">
       <use xlink:href="#DejaVuSans-30"/>
       <use xlink:href="#DejaVuSans-2e" x="63.623047"/>
       <use xlink:href="#DejaVuSans-30" x="95.410156"/>
       <use xlink:href="#DejaVuSans-31" x="159.033203"/>
       <use xlink:href="#DejaVuSans-32" x="222.65625"/>
       <use xlink:href="#DejaVuSans-35" x="286.279297"/>
      </g>
     </g>
    </g>
    <g id="ytick_7">
     <g id="line2d_14">
      <g>
       <use xlink:href="#m2c4d663793" x="89.67" y="16.438003" style="stroke: #000000; stroke-width: 0.8"/>
      </g>
     </g>
     <g id="text_15">
      <!-- 0.0150 -->
      <g transform="translate(26.685 22.516753) scale(0.16 -0.16)">
       <use xlink:href="#DejaVuSans-30"/>
       <use xlink:href="#DejaVuSans-2e" x="63.623047"/>
       <use xlink:href="#DejaVuSans-30" x="95.410156"/>
       <use xlink:href="#DejaVuSans-31" x="159.033203"/>
       <use xlink:href="#DejaVuSans-35" x="222.65625"/>
       <use xlink:href="#DejaVuSans-30" x="286.279297"/>
      </g>
     </g>
    </g>
    <g id="text_16">
     <!-- Densitiy -->
     <g transform="translate(19.3575 172.89225) rotate(-90) scale(0.16 -0.16)">
      <defs>
       <path id="DejaVuSans-44" d="M 1259 4147 
L 1259 519 
L 2022 519 
Q 2988 519 3436 956 
Q 3884 1394 3884 2338 
Q 3884 3275 3436 3711 
Q 2988 4147 2022 4147 
L 1259 4147 
z
M 628 4666 
L 1925 4666 
Q 3281 4666 3915 4102 
Q 4550 3538 4550 2338 
Q 4550 1131 3912 565 
Q 3275 0 1925 0 
L 628 0 
L 628 4666 
z
" transform="scale(0.015625)"/>
       <path id="DejaVuSans-65" d="M 3597 1894 
L 3597 1613 
L 953 1613 
Q 991 1019 1311 708 
Q 1631 397 2203 397 
Q 2534 397 2845 478 
Q 3156 559 3463 722 
L 3463 178 
Q 3153 47 2828 -22 
Q 2503 -91 2169 -91 
Q 1331 -91 842 396 
Q 353 884 353 1716 
Q 353 2575 817 3079 
Q 1281 3584 2069 3584 
Q 2775 3584 3186 3129 
Q 3597 2675 3597 1894 
z
M 3022 2063 
Q 3016 2534 2758 2815 
Q 2500 3097 2075 3097 
Q 1594 3097 1305 2825 
Q 1016 2553 972 2059 
L 3022 2063 
z
" transform="scale(0.015625)"/>
       <path id="DejaVuSans-6e" d="M 3513 2113 
L 3513 0 
L 2938 0 
L 2938 2094 
Q 2938 2591 2744 2837 
Q 2550 3084 2163 3084 
Q 1697 3084 1428 2787 
Q 1159 2491 1159 1978 
L 1159 0 
L 581 0 
L 581 3500 
L 1159 3500 
L 1159 2956 
Q 1366 3272 1645 3428 
Q 1925 3584 2291 3584 
Q 2894 3584 3203 3211 
Q 3513 2838 3513 2113 
z
" transform="scale(0.015625)"/>
       <path id="DejaVuSans-74" d="M 1172 4494 
L 1172 3500 
L 2356 3500 
L 2356 3053 
L 1172 3053 
L 1172 1153 
Q 1172 725 1289 603 
Q 1406 481 1766 481 
L 2356 481 
L 2356 0 
L 1766 0 
Q 1100 0 847 248 
Q 594 497 594 1153 
L 594 3053 
L 172 3053 
L 172 3500 
L 594 3500 
L 594 4494 
L 1172 4494 
z
" transform="scale(0.015625)"/>
       <path id="DejaVuSans-79" d="M 2059 -325 
Q 1816 -950 1584 -1140 
Q 1353 -1331 966 -1331 
L 506 -1331 
L 506 -850 
L 844 -850 
Q 1081 -850 1212 -737 
Q 1344 -625 1503 -206 
L 1606 56 
L 191 3500 
L 800 3500 
L 1894 763 
L 2988 3500 
L 3597 3500 
L 2059 -325 
z
" transform="scale(0.015625)"/>
      </defs>
      <use xlink:href="#DejaVuSans-44"/>
      <use xlink:href="#DejaVuSans-65" x="77.001953"/>
      <use xlink:href="#DejaVuSans-6e" x="138.525391"/>
      <use xlink:href="#DejaVuSans-73" x="201.904297"/>
      <use xlink:href="#DejaVuSans-69" x="254.003906"/>
      <use xlink:href="#DejaVuSans-74" x="281.787109"/>
      <use xlink:href="#DejaVuSans-69" x="320.996094"/>
      <use xlink:href="#DejaVuSans-79" x="348.779297"/>
     </g>
    </g>
   </g>
   <g id="line2d_15">
    <path d="M 105.902727 260.233766 
L 118.910589 260.156202 
L 120.536572 259.953709 
L 121.62056 259.649444 
L 122.704548 259.097185 
L 123.788537 258.153624 
L 124.872525 256.633954 
L 125.956514 254.321313 
L 127.040502 250.984405 
L 128.124491 246.400676 
L 129.208479 240.381204 
L 130.292468 232.79333 
L 131.376456 223.577793 
L 132.460445 212.758376 
L 134.086427 193.780846 
L 135.71241 172.141618 
L 139.50637 117.082656 
L 141.674347 87.093129 
L 143.300329 67.165547 
L 144.926312 50.27153 
L 146.010301 40.944946 
L 147.094289 33.271821 
L 148.178277 27.290431 
L 149.262266 22.998035 
L 149.80426 21.474412 
L 150.346254 20.356099 
L 150.888249 19.633624 
L 151.430243 19.296 
L 151.972237 19.330907 
L 152.514231 19.724869 
L 153.056226 20.463423 
L 153.59822 21.531284 
L 154.682208 24.590623 
L 155.766197 28.769925 
L 156.850185 33.932178 
L 158.476168 43.218704 
L 160.102151 53.958509 
L 162.270127 69.819883 
L 167.148076 107.964369 
L 170.400041 132.601181 
L 173.110012 151.551466 
L 175.277989 165.395847 
L 177.445966 177.9715 
L 179.613943 189.258814 
L 181.78192 199.286786 
L 183.949897 208.117917 
L 186.117874 215.836041 
L 188.285851 222.536862 
L 190.453828 228.320862 
L 192.621805 233.288193 
L 194.789781 237.535176 
L 196.957758 241.152042 
L 199.125735 244.221646 
L 201.293712 246.818861 
L 203.461689 249.010486 
L 205.629666 250.855489 
L 207.797643 252.405458 
L 209.96562 253.705194 
L 212.675591 255.036329 
L 215.385562 256.100092 
L 218.637528 257.096438 
L 221.889493 257.85451 
L 225.683453 258.511778 
L 230.019407 259.044166 
L 235.439349 259.48443 
L 242.485274 259.822293 
L 252.24117 260.05348 
L 268.500997 260.187363 
L 309.692559 260.232063 
L 430.557273 260.233766 
L 430.557273 260.233766 
" clip-path="url(#p144cc82124)" style="fill: none; stroke: #1f77b4; stroke-width: 3; stroke-linecap: square"/>
   </g>
   <g id="line2d_16">
    <path d="M 105.902727 260.233766 
L 108.612698 260.233766 
L 111.32267 260.233766 
L 114.032641 260.233766 
L 116.742612 257.436539 
L 119.452583 244.357223 
L 122.162554 240.284222 
L 124.872525 246.710825 
L 127.582497 244.49055 
L 130.292468 250.14465 
L 133.002439 244.655653 
L 135.71241 231.84608 
L 138.422381 215.784755 
L 141.132352 196.820951 
L 143.842324 168.527727 
L 146.552295 151.478897 
L 149.262266 124.371409 
L 151.972237 114.564244 
L 154.682208 102.776902 
L 157.392179 63.760104 
L 160.102151 44.351683 
L 162.812122 35.858749 
L 165.522093 23.921502 
L 168.232064 27.260709 
L 170.942035 47.053868 
L 173.652006 61.046287 
L 176.361978 68.646268 
L 179.071949 88.800801 
L 181.78192 123.489005 
L 184.491891 155.653354 
L 187.201862 179.176063 
L 189.911833 198.038393 
L 192.621805 216.179339 
L 195.331776 232.635137 
L 198.041747 243.693203 
L 200.751718 248.985854 
L 203.461689 251.090723 
L 206.17166 253.738359 
L 208.881632 256.952364 
L 211.591603 259.657442 
L 214.301574 261.078654 
L 217.011545 261.216 
L 219.721516 260.626959 
L 222.431487 260.219203 
L 225.141458 260.005498 
L 227.85143 259.985842 
L 230.561401 260.160237 
L 233.271372 260.233766 
L 235.981343 260.233766 
L 238.691314 260.233766 
L 241.401285 260.233766 
L 244.111257 260.233766 
L 246.821228 260.233766 
L 249.531199 260.233766 
L 252.24117 260.233766 
L 254.951141 260.233766 
L 257.661112 260.233766 
L 260.371084 260.233766 
L 263.081055 260.233766 
L 265.791026 260.233766 
L 268.500997 260.233766 
L 271.210968 260.233766 
L 273.920939 260.233766 
L 276.630911 260.233766 
L 279.340882 260.233766 
L 282.050853 260.233766 
L 284.760824 260.233766 
L 287.470795 260.233766 
L 290.180766 260.233766 
L 292.890738 260.233766 
L 295.600709 260.233766 
L 298.31068 260.233766 
L 301.020651 260.233766 
L 303.730622 260.233766 
L 306.440593 260.233766 
L 309.150565 260.233766 
L 311.860536 260.233766 
L 314.570507 260.233766 
L 317.280478 260.233766 
L 319.990449 260.233766 
L 322.70042 260.233766 
L 325.410392 260.233766 
L 328.120363 260.233766 
L 330.830334 260.233766 
L 333.540305 260.233766 
L 336.250276 260.233766 
L 338.960247 260.233766 
L 341.670219 260.233766 
L 344.38019 260.233766 
L 347.090161 260.233766 
L 349.800132 260.233766 
L 352.510103 260.233766 
L 355.220074 260.233766 
L 357.930046 260.233766 
L 360.640017 260.233766 
L 363.349988 260.233766 
L 366.059959 260.233766 
L 368.76993 260.233766 
L 371.479901 260.233766 
L 374.189873 260.233766 
L 376.899844 260.233766 
L 379.609815 260.233766 
L 382.319786 260.233766 
L 385.029757 260.233766 
L 387.739728 260.233766 
L 390.449699 260.233766 
L 393.159671 260.233766 
L 395.869642 260.233766 
L 398.579613 260.233766 
L 401.289584 260.233766 
L 403.999555 260.233766 
L 406.709526 260.233766 
L 409.419498 260.233766 
L 412.129469 260.233766 
L 414.83944 260.233766 
L 417.549411 260.233766 
L 420.259382 260.233766 
L 422.969353 260.233766 
L 425.679325 260.233766 
L 428.389296 260.233766 
" clip-path="url(#p144cc82124)" style="fill: none; stroke: #ff7f0e; stroke-width: 2; stroke-linecap: square"/>
    <defs>
     <path id="m535e448866" d="M 0 3 
C 0.795609 3 1.55874 2.683901 2.12132 2.12132 
C 2.683901 1.55874 3 0.795609 3 0 
C 3 -0.795609 2.683901 -1.55874 2.12132 -2.12132 
C 1.55874 -2.683901 0.795609 -3 0 -3 
C -0.795609 -3 -1.55874 -2.683901 -2.12132 -2.12132 
C -2.683901 -1.55874 -3 -0.795609 -3 0 
C -3 0.795609 -2.683901 1.55874 -2.12132 2.12132 
C -1.55874 2.683901 -0.795609 3 0 3 
z
" style="stroke: #ff7f0e"/>
    </defs>
    <g clip-path="url(#p144cc82124)">
     <use xlink:href="#m535e448866" x="105.902727" y="260.233766" style="fill: #ff7f0e; stroke: #ff7f0e"/>
     <use xlink:href="#m535e448866" x="108.612698" y="260.233766" style="fill: #ff7f0e; stroke: #ff7f0e"/>
     <use xlink:href="#m535e448866" x="111.32267" y="260.233766" style="fill: #ff7f0e; stroke: #ff7f0e"/>
     <use xlink:href="#m535e448866" x="114.032641" y="260.233766" style="fill: #ff7f0e; stroke: #ff7f0e"/>
     <use xlink:href="#m535e448866" x="116.742612" y="257.436539" style="fill: #ff7f0e; stroke: #ff7f0e"/>
     <use xlink:href="#m535e448866" x="119.452583" y="244.357223" style="fill: #ff7f0e; stroke: #ff7f0e"/>
     <use xlink:href="#m535e448866" x="122.162554" y="240.284222" style="fill: #ff7f0e; stroke: #ff7f0e"/>
     <use xlink:href="#m535e448866" x="124.872525" y="246.710825" style="fill: #ff7f0e; stroke: #ff7f0e"/>
     <use xlink:href="#m535e448866" x="127.582497" y="244.49055" style="fill: #ff7f0e; stroke: #ff7f0e"/>
     <use xlink:href="#m535e448866" x="130.292468" y="250.14465" style="fill: #ff7f0e; stroke: #ff7f0e"/>
     <use xlink:href="#m535e448866" x="133.002439" y="244.655653" style="fill: #ff7f0e; stroke: #ff7f0e"/>
     <use xlink:href="#m535e448866" x="135.71241" y="231.84608" style="fill: #ff7f0e; stroke: #ff7f0e"/>
     <use xlink:href="#m535e448866" x="138.422381" y="215.784755" style="fill: #ff7f0e; stroke: #ff7f0e"/>
     <use xlink:href="#m535e448866" x="141.132352" y="196.820951" style="fill: #ff7f0e; stroke: #ff7f0e"/>
     <use xlink:href="#m535e448866" x="143.842324" y="168.527727" style="fill: #ff7f0e; stroke: #ff7f0e"/>
     <use xlink:href="#m535e448866" x="146.552295" y="151.478897" style="fill: #ff7f0e; stroke: #ff7f0e"/>
     <use xlink:href="#m535e448866" x="149.262266" y="124.371409" style="fill: #ff7f0e; stroke: #ff7f0e"/>
     <use xlink:href="#m535e448866" x="151.972237" y="114.564244" style="fill: #ff7f0e; stroke: #ff7f0e"/>
     <use xlink:href="#m535e448866" x="154.682208" y="102.776902" style="fill: #ff7f0e; stroke: #ff7f0e"/>
     <use xlink:href="#m535e448866" x="157.392179" y="63.760104" style="fill: #ff7f0e; stroke: #ff7f0e"/>
     <use xlink:href="#m535e448866" x="160.102151" y="44.351683" style="fill: #ff7f0e; stroke: #ff7f0e"/>
     <use xlink:href="#m535e448866" x="162.812122" y="35.858749" style="fill: #ff7f0e; stroke: #ff7f0e"/>
     <use xlink:href="#m535e448866" x="165.522093" y="23.921502" style="fill: #ff7f0e; stroke: #ff7f0e"/>
     <use xlink:href="#m535e448866" x="168.232064" y="27.260709" style="fill: #ff7f0e; stroke: #ff7f0e"/>
     <use xlink:href="#m535e448866" x="170.942035" y="47.053868" style="fill: #ff7f0e; stroke: #ff7f0e"/>
     <use xlink:href="#m535e448866" x="173.652006" y="61.046287" style="fill: #ff7f0e; stroke: #ff7f0e"/>
     <use xlink:href="#m535e448866" x="176.361978" y="68.646268" style="fill: #ff7f0e; stroke: #ff7f0e"/>
     <use xlink:href="#m535e448866" x="179.071949" y="88.800801" style="fill: #ff7f0e; stroke: #ff7f0e"/>
     <use xlink:href="#m535e448866" x="181.78192" y="123.489005" style="fill: #ff7f0e; stroke: #ff7f0e"/>
     <use xlink:href="#m535e448866" x="184.491891" y="155.653354" style="fill: #ff7f0e; stroke: #ff7f0e"/>
     <use xlink:href="#m535e448866" x="187.201862" y="179.176063" style="fill: #ff7f0e; stroke: #ff7f0e"/>
     <use xlink:href="#m535e448866" x="189.911833" y="198.038393" style="fill: #ff7f0e; stroke: #ff7f0e"/>
     <use xlink:href="#m535e448866" x="192.621805" y="216.179339" style="fill: #ff7f0e; stroke: #ff7f0e"/>
     <use xlink:href="#m535e448866" x="195.331776" y="232.635137" style="fill: #ff7f0e; stroke: #ff7f0e"/>
     <use xlink:href="#m535e448866" x="198.041747" y="243.693203" style="fill: #ff7f0e; stroke: #ff7f0e"/>
     <use xlink:href="#m535e448866" x="200.751718" y="248.985854" style="fill: #ff7f0e; stroke: #ff7f0e"/>
     <use xlink:href="#m535e448866" x="203.461689" y="251.090723" style="fill: #ff7f0e; stroke: #ff7f0e"/>
     <use xlink:href="#m535e448866" x="206.17166" y="253.738359" style="fill: #ff7f0e; stroke: #ff7f0e"/>
     <use xlink:href="#m535e448866" x="208.881632" y="256.952364" style="fill: #ff7f0e; stroke: #ff7f0e"/>
     <use xlink:href="#m535e448866" x="211.591603" y="259.657442" style="fill: #ff7f0e; stroke: #ff7f0e"/>
     <use xlink:href="#m535e448866" x="214.301574" y="261.078654" style="fill: #ff7f0e; stroke: #ff7f0e"/>
     <use xlink:href="#m535e448866" x="217.011545" y="261.216" style="fill: #ff7f0e; stroke: #ff7f0e"/>
     <use xlink:href="#m535e448866" x="219.721516" y="260.626959" style="fill: #ff7f0e; stroke: #ff7f0e"/>
     <use xlink:href="#m535e448866" x="222.431487" y="260.219203" style="fill: #ff7f0e; stroke: #ff7f0e"/>
     <use xlink:href="#m535e448866" x="225.141458" y="260.005498" style="fill: #ff7f0e; stroke: #ff7f0e"/>
     <use xlink:href="#m535e448866" x="227.85143" y="259.985842" style="fill: #ff7f0e; stroke: #ff7f0e"/>
     <use xlink:href="#m535e448866" x="230.561401" y="260.160237" style="fill: #ff7f0e; stroke: #ff7f0e"/>
     <use xlink:href="#m535e448866" x="233.271372" y="260.233766" style="fill: #ff7f0e; stroke: #ff7f0e"/>
     <use xlink:href="#m535e448866" x="235.981343" y="260.233766" style="fill: #ff7f0e; stroke: #ff7f0e"/>
     <use xlink:href="#m535e448866" x="238.691314" y="260.233766" style="fill: #ff7f0e; stroke: #ff7f0e"/>
     <use xlink:href="#m535e448866" x="241.401285" y="260.233766" style="fill: #ff7f0e; stroke: #ff7f0e"/>
     <use xlink:href="#m535e448866" x="244.111257" y="260.233766" style="fill: #ff7f0e; stroke: #ff7f0e"/>
     <use xlink:href="#m535e448866" x="246.821228" y="260.233766" style="fill: #ff7f0e; stroke: #ff7f0e"/>
     <use xlink:href="#m535e448866" x="249.531199" y="260.233766" style="fill: #ff7f0e; stroke: #ff7f0e"/>
     <use xlink:href="#m535e448866" x="252.24117" y="260.233766" style="fill: #ff7f0e; stroke: #ff7f0e"/>
     <use xlink:href="#m535e448866" x="254.951141" y="260.233766" style="fill: #ff7f0e; stroke: #ff7f0e"/>
     <use xlink:href="#m535e448866" x="257.661112" y="260.233766" style="fill: #ff7f0e; stroke: #ff7f0e"/>
     <use xlink:href="#m535e448866" x="260.371084" y="260.233766" style="fill: #ff7f0e; stroke: #ff7f0e"/>
     <use xlink:href="#m535e448866" x="263.081055" y="260.233766" style="fill: #ff7f0e; stroke: #ff7f0e"/>
     <use xlink:href="#m535e448866" x="265.791026" y="260.233766" style="fill: #ff7f0e; stroke: #ff7f0e"/>
     <use xlink:href="#m535e448866" x="268.500997" y="260.233766" style="fill: #ff7f0e; stroke: #ff7f0e"/>
     <use xlink:href="#m535e448866" x="271.210968" y="260.233766" style="fill: #ff7f0e; stroke: #ff7f0e"/>
     <use xlink:href="#m535e448866" x="273.920939" y="260.233766" style="fill: #ff7f0e; stroke: #ff7f0e"/>
     <use xlink:href="#m535e448866" x="276.630911" y="260.233766" style="fill: #ff7f0e; stroke: #ff7f0e"/>
     <use xlink:href="#m535e448866" x="279.340882" y="260.233766" style="fill: #ff7f0e; stroke: #ff7f0e"/>
     <use xlink:href="#m535e448866" x="282.050853" y="260.233766" style="fill: #ff7f0e; stroke: #ff7f0e"/>
     <use xlink:href="#m535e448866" x="284.760824" y="260.233766" style="fill: #ff7f0e; stroke: #ff7f0e"/>
     <use xlink:href="#m535e448866" x="287.470795" y="260.233766" style="fill: #ff7f0e; stroke: #ff7f0e"/>
     <use xlink:href="#m535e448866" x="290.180766" y="260.233766" style="fill: #ff7f0e; stroke: #ff7f0e"/>
     <use xlink:href="#m535e448866" x="292.890738" y="260.233766" style="fill: #ff7f0e; stroke: #ff7f0e"/>
     <use xlink:href="#m535e448866" x="295.600709" y="260.233766" style="fill: #ff7f0e; stroke: #ff7f0e"/>
     <use xlink:href="#m535e448866" x="298.31068" y="260.233766" style="fill: #ff7f0e; stroke: #ff7f0e"/>
     <use xlink:href="#m535e448866" x="301.020651" y="260.233766" style="fill: #ff7f0e; stroke: #ff7f0e"/>
     <use xlink:href="#m535e448866" x="303.730622" y="260.233766" style="fill: #ff7f0e; stroke: #ff7f0e"/>
     <use xlink:href="#m535e448866" x="306.440593" y="260.233766" style="fill: #ff7f0e; stroke: #ff7f0e"/>
     <use xlink:href="#m535e448866" x="309.150565" y="260.233766" style="fill: #ff7f0e; stroke: #ff7f0e"/>
     <use xlink:href="#m535e448866" x="311.860536" y="260.233766" style="fill: #ff7f0e; stroke: #ff7f0e"/>
     <use xlink:href="#m535e448866" x="314.570507" y="260.233766" style="fill: #ff7f0e; stroke: #ff7f0e"/>
     <use xlink:href="#m535e448866" x="317.280478" y="260.233766" style="fill: #ff7f0e; stroke: #ff7f0e"/>
     <use xlink:href="#m535e448866" x="319.990449" y="260.233766" style="fill: #ff7f0e; stroke: #ff7f0e"/>
     <use xlink:href="#m535e448866" x="322.70042" y="260.233766" style="fill: #ff7f0e; stroke: #ff7f0e"/>
     <use xlink:href="#m535e448866" x="325.410392" y="260.233766" style="fill: #ff7f0e; stroke: #ff7f0e"/>
     <use xlink:href="#m535e448866" x="328.120363" y="260.233766" style="fill: #ff7f0e; stroke: #ff7f0e"/>
     <use xlink:href="#m535e448866" x="330.830334" y="260.233766" style="fill: #ff7f0e; stroke: #ff7f0e"/>
     <use xlink:href="#m535e448866" x="333.540305" y="260.233766" style="fill: #ff7f0e; stroke: #ff7f0e"/>
     <use xlink:href="#m535e448866" x="336.250276" y="260.233766" style="fill: #ff7f0e; stroke: #ff7f0e"/>
     <use xlink:href="#m535e448866" x="338.960247" y="260.233766" style="fill: #ff7f0e; stroke: #ff7f0e"/>
     <use xlink:href="#m535e448866" x="341.670219" y="260.233766" style="fill: #ff7f0e; stroke: #ff7f0e"/>
     <use xlink:href="#m535e448866" x="344.38019" y="260.233766" style="fill: #ff7f0e; stroke: #ff7f0e"/>
     <use xlink:href="#m535e448866" x="347.090161" y="260.233766" style="fill: #ff7f0e; stroke: #ff7f0e"/>
     <use xlink:href="#m535e448866" x="349.800132" y="260.233766" style="fill: #ff7f0e; stroke: #ff7f0e"/>
     <use xlink:href="#m535e448866" x="352.510103" y="260.233766" style="fill: #ff7f0e; stroke: #ff7f0e"/>
     <use xlink:href="#m535e448866" x="355.220074" y="260.233766" style="fill: #ff7f0e; stroke: #ff7f0e"/>
     <use xlink:href="#m535e448866" x="357.930046" y="260.233766" style="fill: #ff7f0e; stroke: #ff7f0e"/>
     <use xlink:href="#m535e448866" x="360.640017" y="260.233766" style="fill: #ff7f0e; stroke: #ff7f0e"/>
     <use xlink:href="#m535e448866" x="363.349988" y="260.233766" style="fill: #ff7f0e; stroke: #ff7f0e"/>
     <use xlink:href="#m535e448866" x="366.059959" y="260.233766" style="fill: #ff7f0e; stroke: #ff7f0e"/>
     <use xlink:href="#m535e448866" x="368.76993" y="260.233766" style="fill: #ff7f0e; stroke: #ff7f0e"/>
     <use xlink:href="#m535e448866" x="371.479901" y="260.233766" style="fill: #ff7f0e; stroke: #ff7f0e"/>
     <use xlink:href="#m535e448866" x="374.189873" y="260.233766" style="fill: #ff7f0e; stroke: #ff7f0e"/>
     <use xlink:href="#m535e448866" x="376.899844" y="260.233766" style="fill: #ff7f0e; stroke: #ff7f0e"/>
     <use xlink:href="#m535e448866" x="379.609815" y="260.233766" style="fill: #ff7f0e; stroke: #ff7f0e"/>
     <use xlink:href="#m535e448866" x="382.319786" y="260.233766" style="fill: #ff7f0e; stroke: #ff7f0e"/>
     <use xlink:href="#m535e448866" x="385.029757" y="260.233766" style="fill: #ff7f0e; stroke: #ff7f0e"/>
     <use xlink:href="#m535e448866" x="387.739728" y="260.233766" style="fill: #ff7f0e; stroke: #ff7f0e"/>
     <use xlink:href="#m535e448866" x="390.449699" y="260.233766" style="fill: #ff7f0e; stroke: #ff7f0e"/>
     <use xlink:href="#m535e448866" x="393.159671" y="260.233766" style="fill: #ff7f0e; stroke: #ff7f0e"/>
     <use xlink:href="#m535e448866" x="395.869642" y="260.233766" style="fill: #ff7f0e; stroke: #ff7f0e"/>
     <use xlink:href="#m535e448866" x="398.579613" y="260.233766" style="fill: #ff7f0e; stroke: #ff7f0e"/>
     <use xlink:href="#m535e448866" x="401.289584" y="260.233766" style="fill: #ff7f0e; stroke: #ff7f0e"/>
     <use xlink:href="#m535e448866" x="403.999555" y="260.233766" style="fill: #ff7f0e; stroke: #ff7f0e"/>
     <use xlink:href="#m535e448866" x="406.709526" y="260.233766" style="fill: #ff7f0e; stroke: #ff7f0e"/>
     <use xlink:href="#m535e448866" x="409.419498" y="260.233766" style="fill: #ff7f0e; stroke: #ff7f0e"/>
     <use xlink:href="#m535e448866" x="412.129469" y="260.233766" style="fill: #ff7f0e; stroke: #ff7f0e"/>
     <use xlink:href="#m535e448866" x="414.83944" y="260.233766" style="fill: #ff7f0e; stroke: #ff7f0e"/>
     <use xlink:href="#m535e448866" x="417.549411" y="260.233766" style="fill: #ff7f0e; stroke: #ff7f0e"/>
     <use xlink:href="#m535e448866" x="420.259382" y="260.233766" style="fill: #ff7f0e; stroke: #ff7f0e"/>
     <use xlink:href="#m535e448866" x="422.969353" y="260.233766" style="fill: #ff7f0e; stroke: #ff7f0e"/>
     <use xlink:href="#m535e448866" x="425.679325" y="260.233766" style="fill: #ff7f0e; stroke: #ff7f0e"/>
     <use xlink:href="#m535e448866" x="428.389296" y="260.233766" style="fill: #ff7f0e; stroke: #ff7f0e"/>
    </g>
   </g>
   <g id="patch_3">
    <path d="M 89.67 273.312 
L 89.67 7.2 
" style="fill: none; stroke: #000000; stroke-width: 0.8; stroke-linejoin: miter; stroke-linecap: square"/>
   </g>
   <g id="patch_4">
    <path d="M 446.79 273.312 
L 446.79 7.2 
" style="fill: none; stroke: #000000; stroke-width: 0.8; stroke-linejoin: miter; stroke-linecap: square"/>
   </g>
   <g id="patch_5">
    <path d="M 89.67 273.312 
L 446.79 273.312 
" style="fill: none; stroke: #000000; stroke-width: 0.8; stroke-linejoin: miter; stroke-linecap: square"/>
   </g>
   <g id="patch_6">
    <path d="M 89.67 7.2 
L 446.79 7.2 
" style="fill: none; stroke: #000000; stroke-width: 0.8; stroke-linejoin: miter; stroke-linecap: square"/>
   </g>
  </g>
 </g>
 <defs>
  <clipPath id="p144cc82124">
   <rect x="89.67" y="7.2" width="357.12" height="266.112"/>
  </clipPath>
 </defs>
</svg>
