<?xml version="1.0" encoding="utf-8" standalone="no"?>
<!DOCTYPE svg PUBLIC "-//W3C//DTD SVG 1.1//EN"
  "http://www.w3.org/Graphics/SVG/1.1/DTD/svg11.dtd">
<svg xmlns:xlink="http://www.w3.org/1999/xlink" width="460.8pt" height="345.6pt" viewBox="0 0 460.8 345.6" xmlns="http://www.w3.org/2000/svg" version="1.1">
 <metadata>
  <rdf:RDF xmlns:dc="http://purl.org/dc/elements/1.1/" xmlns:cc="http://creativecommons.org/ns#" xmlns:rdf="http://www.w3.org/1999/02/22-rdf-syntax-ns#">
   <cc:Work>
    <dc:type rdf:resource="http://purl.org/dc/dcmitype/StillImage"/>
    <dc:date>2023-02-20T22:34:35.759307</dc:date>
    <dc:format>image/svg+xml</dc:format>
    <dc:creator>
     <cc:Agent>
      <dc:title>Matplotlib v3.6.2, https://matplotlib.org/</dc:title>
     </cc:Agent>
    </dc:creator>
   </cc:Work>
  </rdf:RDF>
 </metadata>
 <defs>
  <style type="text/css">*{stroke-linejoin: round; stroke-linecap: butt}</style>
 </defs>
 <g id="figure_1">
  <g id="patch_1">
   <path d="M 0 345.6 
L 460.8 345.6 
L 460.8 0 
L 0 0 
z
" style="fill: #ffffff"/>
  </g>
  <g id="axes_1">
   <g id="patch_2">
    <path d="M 88.04 286.36 
L 441.679538 286.36 
L 441.679538 34.08 
L 88.04 34.08 
z
" style="fill: #ffffff"/>
   </g>
   <g id="matplotlib.axis_1">
    <g id="xtick_1">
     <g id="line2d_1">
      <defs>
       <path id="m1c2a743478" d="M 0 0 
L 0 3.5 
" style="stroke: #000000; stroke-width: 0.8"/>
      </defs>
      <g>
       <use xlink:href="#m1c2a743478" x="104.114524" y="286.36" style="stroke: #000000; stroke-width: 0.8"/>
      </g>
     </g>
     <g id="text_1">
      <!-- 0 -->
      <g transform="translate(99.024524 305.5175) scale(0.16 -0.16)">
       <defs>
        <path id="DejaVuSans-30" d="M 2034 4250 
Q 1547 4250 1301 3770 
Q 1056 3291 1056 2328 
Q 1056 1369 1301 889 
Q 1547 409 2034 409 
Q 2525 409 2770 889 
Q 3016 1369 3016 2328 
Q 3016 3291 2770 3770 
Q 2525 4250 2034 4250 
z
M 2034 4750 
Q 2819 4750 3233 4129 
Q 3647 3509 3647 2328 
Q 3647 1150 3233 529 
Q 2819 -91 2034 -91 
Q 1250 -91 836 529 
Q 422 1150 422 2328 
Q 422 3509 836 4129 
Q 1250 4750 2034 4750 
z
" transform="scale(0.015625)"/>
       </defs>
       <use xlink:href="#DejaVuSans-30"/>
      </g>
     </g>
    </g>
    <g id="xtick_2">
     <g id="line2d_2">
      <g>
       <use xlink:href="#m1c2a743478" x="158.146539" y="286.36" style="stroke: #000000; stroke-width: 0.8"/>
      </g>
     </g>
     <g id="text_2">
      <!-- 100 -->
      <g transform="translate(142.876539 305.5175) scale(0.16 -0.16)">
       <defs>
        <path id="DejaVuSans-31" d="M 794 531 
L 1825 531 
L 1825 4091 
L 703 3866 
L 703 4441 
L 1819 4666 
L 2450 4666 
L 2450 531 
L 3481 531 
L 3481 0 
L 794 0 
L 794 531 
z
" transform="scale(0.015625)"/>
       </defs>
       <use xlink:href="#DejaVuSans-31"/>
       <use xlink:href="#DejaVuSans-30" x="63.623047"/>
       <use xlink:href="#DejaVuSans-30" x="127.246094"/>
      </g>
     </g>
    </g>
    <g id="xtick_3">
     <g id="line2d_3">
      <g>
       <use xlink:href="#m1c2a743478" x="212.178554" y="286.36" style="stroke: #000000; stroke-width: 0.8"/>
      </g>
     </g>
     <g id="text_3">
      <!-- 200 -->
      <g transform="translate(196.908554 305.5175) scale(0.16 -0.16)">
       <defs>
        <path id="DejaVuSans-32" d="M 1228 531 
L 3431 531 
L 3431 0 
L 469 0 
L 469 531 
Q 828 903 1448 1529 
Q 2069 2156 2228 2338 
Q 2531 2678 2651 2914 
Q 2772 3150 2772 3378 
Q 2772 3750 2511 3984 
Q 2250 4219 1831 4219 
Q 1534 4219 1204 4116 
Q 875 4013 500 3803 
L 500 4441 
Q 881 4594 1212 4672 
Q 1544 4750 1819 4750 
Q 2544 4750 2975 4387 
Q 3406 4025 3406 3419 
Q 3406 3131 3298 2873 
Q 3191 2616 2906 2266 
Q 2828 2175 2409 1742 
Q 1991 1309 1228 531 
z
" transform="scale(0.015625)"/>
       </defs>
       <use xlink:href="#DejaVuSans-32"/>
       <use xlink:href="#DejaVuSans-30" x="63.623047"/>
       <use xlink:href="#DejaVuSans-30" x="127.246094"/>
      </g>
     </g>
    </g>
    <g id="xtick_4">
     <g id="line2d_4">
      <g>
       <use xlink:href="#m1c2a743478" x="266.210569" y="286.36" style="stroke: #000000; stroke-width: 0.8"/>
      </g>
     </g>
     <g id="text_4">
      <!-- 300 -->
      <g transform="translate(250.940569 305.5175) scale(0.16 -0.16)">
       <defs>
        <path id="DejaVuSans-33" d="M 2597 2516 
Q 3050 2419 3304 2112 
Q 3559 1806 3559 1356 
Q 3559 666 3084 287 
Q 2609 -91 1734 -91 
Q 1441 -91 1130 -33 
Q 819 25 488 141 
L 488 750 
Q 750 597 1062 519 
Q 1375 441 1716 441 
Q 2309 441 2620 675 
Q 2931 909 2931 1356 
Q 2931 1769 2642 2001 
Q 2353 2234 1838 2234 
L 1294 2234 
L 1294 2753 
L 1863 2753 
Q 2328 2753 2575 2939 
Q 2822 3125 2822 3475 
Q 2822 3834 2567 4026 
Q 2313 4219 1838 4219 
Q 1578 4219 1281 4162 
Q 984 4106 628 3988 
L 628 4550 
Q 988 4650 1302 4700 
Q 1616 4750 1894 4750 
Q 2613 4750 3031 4423 
Q 3450 4097 3450 3541 
Q 3450 3153 3228 2886 
Q 3006 2619 2597 2516 
z
" transform="scale(0.015625)"/>
       </defs>
       <use xlink:href="#DejaVuSans-33"/>
       <use xlink:href="#DejaVuSans-30" x="63.623047"/>
       <use xlink:href="#DejaVuSans-30" x="127.246094"/>
      </g>
     </g>
    </g>
    <g id="xtick_5">
     <g id="line2d_5">
      <g>
       <use xlink:href="#m1c2a743478" x="320.242584" y="286.36" style="stroke: #000000; stroke-width: 0.8"/>
      </g>
     </g>
     <g id="text_5">
      <!-- 400 -->
      <g transform="translate(304.972584 305.5175) scale(0.16 -0.16)">
       <defs>
        <path id="DejaVuSans-34" d="M 2419 4116 
L 825 1625 
L 2419 1625 
L 2419 4116 
z
M 2253 4666 
L 3047 4666 
L 3047 1625 
L 3713 1625 
L 3713 1100 
L 3047 1100 
L 3047 0 
L 2419 0 
L 2419 1100 
L 313 1100 
L 313 1709 
L 2253 4666 
z
" transform="scale(0.015625)"/>
       </defs>
       <use xlink:href="#DejaVuSans-34"/>
       <use xlink:href="#DejaVuSans-30" x="63.623047"/>
       <use xlink:href="#DejaVuSans-30" x="127.246094"/>
      </g>
     </g>
    </g>
    <g id="xtick_6">
     <g id="line2d_6">
      <g>
       <use xlink:href="#m1c2a743478" x="374.274599" y="286.36" style="stroke: #000000; stroke-width: 0.8"/>
      </g>
     </g>
     <g id="text_6">
      <!-- 500 -->
      <g transform="translate(359.004599 305.5175) scale(0.16 -0.16)">
       <defs>
        <path id="DejaVuSans-35" d="M 691 4666 
L 3169 4666 
L 3169 4134 
L 1269 4134 
L 1269 2991 
Q 1406 3038 1543 3061 
Q 1681 3084 1819 3084 
Q 2600 3084 3056 2656 
Q 3513 2228 3513 1497 
Q 3513 744 3044 326 
Q 2575 -91 1722 -91 
Q 1428 -91 1123 -41 
Q 819 9 494 109 
L 494 744 
Q 775 591 1075 516 
Q 1375 441 1709 441 
Q 2250 441 2565 725 
Q 2881 1009 2881 1497 
Q 2881 1984 2565 2268 
Q 2250 2553 1709 2553 
Q 1456 2553 1204 2497 
Q 953 2441 691 2322 
L 691 4666 
z
" transform="scale(0.015625)"/>
       </defs>
       <use xlink:href="#DejaVuSans-35"/>
       <use xlink:href="#DejaVuSans-30" x="63.623047"/>
       <use xlink:href="#DejaVuSans-30" x="127.246094"/>
      </g>
     </g>
    </g>
    <g id="xtick_7">
     <g id="line2d_7">
      <g>
       <use xlink:href="#m1c2a743478" x="428.306614" y="286.36" style="stroke: #000000; stroke-width: 0.8"/>
      </g>
     </g>
     <g id="text_7">
      <!-- 600 -->
      <g transform="translate(413.036614 305.5175) scale(0.16 -0.16)">
       <defs>
        <path id="DejaVuSans-36" d="M 2113 2584 
Q 1688 2584 1439 2293 
Q 1191 2003 1191 1497 
Q 1191 994 1439 701 
Q 1688 409 2113 409 
Q 2538 409 2786 701 
Q 3034 994 3034 1497 
Q 3034 2003 2786 2293 
Q 2538 2584 2113 2584 
z
M 3366 4563 
L 3366 3988 
Q 3128 4100 2886 4159 
Q 2644 4219 2406 4219 
Q 1781 4219 1451 3797 
Q 1122 3375 1075 2522 
Q 1259 2794 1537 2939 
Q 1816 3084 2150 3084 
Q 2853 3084 3261 2657 
Q 3669 2231 3669 1497 
Q 3669 778 3244 343 
Q 2819 -91 2113 -91 
Q 1303 -91 875 529 
Q 447 1150 447 2328 
Q 447 3434 972 4092 
Q 1497 4750 2381 4750 
Q 2619 4750 2861 4703 
Q 3103 4656 3366 4563 
z
" transform="scale(0.015625)"/>
       </defs>
       <use xlink:href="#DejaVuSans-36"/>
       <use xlink:href="#DejaVuSans-30" x="63.623047"/>
       <use xlink:href="#DejaVuSans-30" x="127.246094"/>
      </g>
     </g>
    </g>
    <g id="text_8">
     <!-- Distance from Center $(\mu m)$ -->
     <g transform="translate(170.779769 323.485) scale(0.14 -0.14)">
      <defs>
       <path id="DejaVuSans-44" d="M 1259 4147 
L 1259 519 
L 2022 519 
Q 2988 519 3436 956 
Q 3884 1394 3884 2338 
Q 3884 3275 3436 3711 
Q 2988 4147 2022 4147 
L 1259 4147 
z
M 628 4666 
L 1925 4666 
Q 3281 4666 3915 4102 
Q 4550 3538 4550 2338 
Q 4550 1131 3912 565 
Q 3275 0 1925 0 
L 628 0 
L 628 4666 
z
" transform="scale(0.015625)"/>
       <path id="DejaVuSans-69" d="M 603 3500 
L 1178 3500 
L 1178 0 
L 603 0 
L 603 3500 
z
M 603 4863 
L 1178 4863 
L 1178 4134 
L 603 4134 
L 603 4863 
z
" transform="scale(0.015625)"/>
       <path id="DejaVuSans-73" d="M 2834 3397 
L 2834 2853 
Q 2591 2978 2328 3040 
Q 2066 3103 1784 3103 
Q 1356 3103 1142 2972 
Q 928 2841 928 2578 
Q 928 2378 1081 2264 
Q 1234 2150 1697 2047 
L 1894 2003 
Q 2506 1872 2764 1633 
Q 3022 1394 3022 966 
Q 3022 478 2636 193 
Q 2250 -91 1575 -91 
Q 1294 -91 989 -36 
Q 684 19 347 128 
L 347 722 
Q 666 556 975 473 
Q 1284 391 1588 391 
Q 1994 391 2212 530 
Q 2431 669 2431 922 
Q 2431 1156 2273 1281 
Q 2116 1406 1581 1522 
L 1381 1569 
Q 847 1681 609 1914 
Q 372 2147 372 2553 
Q 372 3047 722 3315 
Q 1072 3584 1716 3584 
Q 2034 3584 2315 3537 
Q 2597 3491 2834 3397 
z
" transform="scale(0.015625)"/>
       <path id="DejaVuSans-74" d="M 1172 4494 
L 1172 3500 
L 2356 3500 
L 2356 3053 
L 1172 3053 
L 1172 1153 
Q 1172 725 1289 603 
Q 1406 481 1766 481 
L 2356 481 
L 2356 0 
L 1766 0 
Q 1100 0 847 248 
Q 594 497 594 1153 
L 594 3053 
L 172 3053 
L 172 3500 
L 594 3500 
L 594 4494 
L 1172 4494 
z
" transform="scale(0.015625)"/>
       <path id="DejaVuSans-61" d="M 2194 1759 
Q 1497 1759 1228 1600 
Q 959 1441 959 1056 
Q 959 750 1161 570 
Q 1363 391 1709 391 
Q 2188 391 2477 730 
Q 2766 1069 2766 1631 
L 2766 1759 
L 2194 1759 
z
M 3341 1997 
L 3341 0 
L 2766 0 
L 2766 531 
Q 2569 213 2275 61 
Q 1981 -91 1556 -91 
Q 1019 -91 701 211 
Q 384 513 384 1019 
Q 384 1609 779 1909 
Q 1175 2209 1959 2209 
L 2766 2209 
L 2766 2266 
Q 2766 2663 2505 2880 
Q 2244 3097 1772 3097 
Q 1472 3097 1187 3025 
Q 903 2953 641 2809 
L 641 3341 
Q 956 3463 1253 3523 
Q 1550 3584 1831 3584 
Q 2591 3584 2966 3190 
Q 3341 2797 3341 1997 
z
" transform="scale(0.015625)"/>
       <path id="DejaVuSans-6e" d="M 3513 2113 
L 3513 0 
L 2938 0 
L 2938 2094 
Q 2938 2591 2744 2837 
Q 2550 3084 2163 3084 
Q 1697 3084 1428 2787 
Q 1159 2491 1159 1978 
L 1159 0 
L 581 0 
L 581 3500 
L 1159 3500 
L 1159 2956 
Q 1366 3272 1645 3428 
Q 1925 3584 2291 3584 
Q 2894 3584 3203 3211 
Q 3513 2838 3513 2113 
z
" transform="scale(0.015625)"/>
       <path id="DejaVuSans-63" d="M 3122 3366 
L 3122 2828 
Q 2878 2963 2633 3030 
Q 2388 3097 2138 3097 
Q 1578 3097 1268 2742 
Q 959 2388 959 1747 
Q 959 1106 1268 751 
Q 1578 397 2138 397 
Q 2388 397 2633 464 
Q 2878 531 3122 666 
L 3122 134 
Q 2881 22 2623 -34 
Q 2366 -91 2075 -91 
Q 1284 -91 818 406 
Q 353 903 353 1747 
Q 353 2603 823 3093 
Q 1294 3584 2113 3584 
Q 2378 3584 2631 3529 
Q 2884 3475 3122 3366 
z
" transform="scale(0.015625)"/>
       <path id="DejaVuSans-65" d="M 3597 1894 
L 3597 1613 
L 953 1613 
Q 991 1019 1311 708 
Q 1631 397 2203 397 
Q 2534 397 2845 478 
Q 3156 559 3463 722 
L 3463 178 
Q 3153 47 2828 -22 
Q 2503 -91 2169 -91 
Q 1331 -91 842 396 
Q 353 884 353 1716 
Q 353 2575 817 3079 
Q 1281 3584 2069 3584 
Q 2775 3584 3186 3129 
Q 3597 2675 3597 1894 
z
M 3022 2063 
Q 3016 2534 2758 2815 
Q 2500 3097 2075 3097 
Q 1594 3097 1305 2825 
Q 1016 2553 972 2059 
L 3022 2063 
z
" transform="scale(0.015625)"/>
       <path id="DejaVuSans-20" transform="scale(0.015625)"/>
       <path id="DejaVuSans-66" d="M 2375 4863 
L 2375 4384 
L 1825 4384 
Q 1516 4384 1395 4259 
Q 1275 4134 1275 3809 
L 1275 3500 
L 2222 3500 
L 2222 3053 
L 1275 3053 
L 1275 0 
L 697 0 
L 697 3053 
L 147 3053 
L 147 3500 
L 697 3500 
L 697 3744 
Q 697 4328 969 4595 
Q 1241 4863 1831 4863 
L 2375 4863 
z
" transform="scale(0.015625)"/>
       <path id="DejaVuSans-72" d="M 2631 2963 
Q 2534 3019 2420 3045 
Q 2306 3072 2169 3072 
Q 1681 3072 1420 2755 
Q 1159 2438 1159 1844 
L 1159 0 
L 581 0 
L 581 3500 
L 1159 3500 
L 1159 2956 
Q 1341 3275 1631 3429 
Q 1922 3584 2338 3584 
Q 2397 3584 2469 3576 
Q 2541 3569 2628 3553 
L 2631 2963 
z
" transform="scale(0.015625)"/>
       <path id="DejaVuSans-6f" d="M 1959 3097 
Q 1497 3097 1228 2736 
Q 959 2375 959 1747 
Q 959 1119 1226 758 
Q 1494 397 1959 397 
Q 2419 397 2687 759 
Q 2956 1122 2956 1747 
Q 2956 2369 2687 2733 
Q 2419 3097 1959 3097 
z
M 1959 3584 
Q 2709 3584 3137 3096 
Q 3566 2609 3566 1747 
Q 3566 888 3137 398 
Q 2709 -91 1959 -91 
Q 1206 -91 779 398 
Q 353 888 353 1747 
Q 353 2609 779 3096 
Q 1206 3584 1959 3584 
z
" transform="scale(0.015625)"/>
       <path id="DejaVuSans-6d" d="M 3328 2828 
Q 3544 3216 3844 3400 
Q 4144 3584 4550 3584 
Q 5097 3584 5394 3201 
Q 5691 2819 5691 2113 
L 5691 0 
L 5113 0 
L 5113 2094 
Q 5113 2597 4934 2840 
Q 4756 3084 4391 3084 
Q 3944 3084 3684 2787 
Q 3425 2491 3425 1978 
L 3425 0 
L 2847 0 
L 2847 2094 
Q 2847 2600 2669 2842 
Q 2491 3084 2119 3084 
Q 1678 3084 1418 2786 
Q 1159 2488 1159 1978 
L 1159 0 
L 581 0 
L 581 3500 
L 1159 3500 
L 1159 2956 
Q 1356 3278 1631 3431 
Q 1906 3584 2284 3584 
Q 2666 3584 2933 3390 
Q 3200 3197 3328 2828 
z
" transform="scale(0.015625)"/>
       <path id="DejaVuSans-43" d="M 4122 4306 
L 4122 3641 
Q 3803 3938 3442 4084 
Q 3081 4231 2675 4231 
Q 1875 4231 1450 3742 
Q 1025 3253 1025 2328 
Q 1025 1406 1450 917 
Q 1875 428 2675 428 
Q 3081 428 3442 575 
Q 3803 722 4122 1019 
L 4122 359 
Q 3791 134 3420 21 
Q 3050 -91 2638 -91 
Q 1578 -91 968 557 
Q 359 1206 359 2328 
Q 359 3453 968 4101 
Q 1578 4750 2638 4750 
Q 3056 4750 3426 4639 
Q 3797 4528 4122 4306 
z
" transform="scale(0.015625)"/>
       <path id="DejaVuSans-28" d="M 1984 4856 
Q 1566 4138 1362 3434 
Q 1159 2731 1159 2009 
Q 1159 1288 1364 580 
Q 1569 -128 1984 -844 
L 1484 -844 
Q 1016 -109 783 600 
Q 550 1309 550 2009 
Q 550 2706 781 3412 
Q 1013 4119 1484 4856 
L 1984 4856 
z
" transform="scale(0.015625)"/>
       <path id="DejaVuSans-Oblique-3bc" d="M -84 -1331 
L 856 3500 
L 1434 3500 
L 1009 1322 
Q 997 1256 987 1175 
Q 978 1094 978 1013 
Q 978 722 1161 565 
Q 1344 409 1684 409 
Q 2147 409 2431 671 
Q 2716 934 2816 1459 
L 3213 3500 
L 3788 3500 
L 3266 809 
Q 3253 750 3248 706 
Q 3244 663 3244 628 
Q 3244 531 3283 486 
Q 3322 441 3406 441 
Q 3438 441 3492 456 
Q 3547 472 3647 513 
L 3559 50 
Q 3422 -19 3297 -55 
Q 3172 -91 3053 -91 
Q 2847 -91 2730 40 
Q 2613 172 2613 403 
Q 2438 153 2195 31 
Q 1953 -91 1625 -91 
Q 1334 -91 1117 43 
Q 900 178 831 397 
L 494 -1331 
L -84 -1331 
z
" transform="scale(0.015625)"/>
       <path id="DejaVuSans-Oblique-6d" d="M 5747 2113 
L 5338 0 
L 4763 0 
L 5166 2094 
Q 5191 2228 5203 2325 
Q 5216 2422 5216 2491 
Q 5216 2772 5059 2928 
Q 4903 3084 4622 3084 
Q 4203 3084 3875 2770 
Q 3547 2456 3450 1953 
L 3066 0 
L 2491 0 
L 2900 2094 
Q 2925 2209 2937 2307 
Q 2950 2406 2950 2484 
Q 2950 2769 2794 2926 
Q 2638 3084 2363 3084 
Q 1938 3084 1609 2770 
Q 1281 2456 1184 1953 
L 800 0 
L 225 0 
L 909 3500 
L 1484 3500 
L 1375 2956 
Q 1609 3263 1923 3423 
Q 2238 3584 2597 3584 
Q 2978 3584 3223 3384 
Q 3469 3184 3519 2828 
Q 3781 3197 4126 3390 
Q 4472 3584 4856 3584 
Q 5306 3584 5551 3325 
Q 5797 3066 5797 2591 
Q 5797 2488 5784 2364 
Q 5772 2241 5747 2113 
z
" transform="scale(0.015625)"/>
       <path id="DejaVuSans-29" d="M 513 4856 
L 1013 4856 
Q 1481 4119 1714 3412 
Q 1947 2706 1947 2009 
Q 1947 1309 1714 600 
Q 1481 -109 1013 -844 
L 513 -844 
Q 928 -128 1133 580 
Q 1338 1288 1338 2009 
Q 1338 2731 1133 3434 
Q 928 4138 513 4856 
z
" transform="scale(0.015625)"/>
      </defs>
      <use xlink:href="#DejaVuSans-44" transform="translate(0 0.015625)"/>
      <use xlink:href="#DejaVuSans-69" transform="translate(77.001953 0.015625)"/>
      <use xlink:href="#DejaVuSans-73" transform="translate(104.785156 0.015625)"/>
      <use xlink:href="#DejaVuSans-74" transform="translate(156.884766 0.015625)"/>
      <use xlink:href="#DejaVuSans-61" transform="translate(196.09375 0.015625)"/>
      <use xlink:href="#DejaVuSans-6e" transform="translate(257.373047 0.015625)"/>
      <use xlink:href="#DejaVuSans-63" transform="translate(320.751953 0.015625)"/>
      <use xlink:href="#DejaVuSans-65" transform="translate(375.732422 0.015625)"/>
      <use xlink:href="#DejaVuSans-20" transform="translate(437.255859 0.015625)"/>
      <use xlink:href="#DejaVuSans-66" transform="translate(469.042969 0.015625)"/>
      <use xlink:href="#DejaVuSans-72" transform="translate(504.248047 0.015625)"/>
      <use xlink:href="#DejaVuSans-6f" transform="translate(545.361328 0.015625)"/>
      <use xlink:href="#DejaVuSans-6d" transform="translate(606.542969 0.015625)"/>
      <use xlink:href="#DejaVuSans-20" transform="translate(703.955078 0.015625)"/>
      <use xlink:href="#DejaVuSans-43" transform="translate(735.742188 0.015625)"/>
      <use xlink:href="#DejaVuSans-65" transform="translate(805.566406 0.015625)"/>
      <use xlink:href="#DejaVuSans-6e" transform="translate(867.089844 0.015625)"/>
      <use xlink:href="#DejaVuSans-74" transform="translate(930.46875 0.015625)"/>
      <use xlink:href="#DejaVuSans-65" transform="translate(969.677734 0.015625)"/>
      <use xlink:href="#DejaVuSans-72" transform="translate(1031.201172 0.015625)"/>
      <use xlink:href="#DejaVuSans-20" transform="translate(1072.314453 0.015625)"/>
      <use xlink:href="#DejaVuSans-28" transform="translate(1104.101562 0.015625)"/>
      <use xlink:href="#DejaVuSans-Oblique-3bc" transform="translate(1143.115234 0.015625)"/>
      <use xlink:href="#DejaVuSans-Oblique-6d" transform="translate(1206.738281 0.015625)"/>
      <use xlink:href="#DejaVuSans-29" transform="translate(1304.150391 0.015625)"/>
     </g>
    </g>
   </g>
   <g id="matplotlib.axis_2">
    <g id="ytick_1">
     <g id="line2d_8">
      <path d="M 88.04 284.625819 
L 441.679538 284.625819 
" clip-path="url(#pee14eedd5c)" style="fill: none; stroke: #f2f2f2; stroke-width: 0.8; stroke-linecap: square"/>
     </g>
     <g id="line2d_9">
      <defs>
       <path id="mfbfdbaa8d8" d="M 0 0 
L -3.5 0 
" style="stroke: #000000; stroke-width: 0.8"/>
      </defs>
      <g>
       <use xlink:href="#mfbfdbaa8d8" x="88.04" y="284.625819" style="stroke: #000000; stroke-width: 0.8"/>
      </g>
     </g>
     <g id="text_9">
      <!-- 0.050 -->
      <g transform="translate(35.235 290.704569) scale(0.16 -0.16)">
       <defs>
        <path id="DejaVuSans-2e" d="M 684 794 
L 1344 794 
L 1344 0 
L 684 0 
L 684 794 
z
" transform="scale(0.015625)"/>
       </defs>
       <use xlink:href="#DejaVuSans-30"/>
       <use xlink:href="#DejaVuSans-2e" x="63.623047"/>
       <use xlink:href="#DejaVuSans-30" x="95.410156"/>
       <use xlink:href="#DejaVuSans-35" x="159.033203"/>
       <use xlink:href="#DejaVuSans-30" x="222.65625"/>
      </g>
     </g>
    </g>
    <g id="ytick_2">
     <g id="line2d_10">
      <path d="M 88.04 248.255566 
L 441.679538 248.255566 
" clip-path="url(#pee14eedd5c)" style="fill: none; stroke: #f2f2f2; stroke-width: 0.8; stroke-linecap: square"/>
     </g>
     <g id="line2d_11">
      <g>
       <use xlink:href="#mfbfdbaa8d8" x="88.04" y="248.255566" style="stroke: #000000; stroke-width: 0.8"/>
      </g>
     </g>
     <g id="text_10">
      <!-- 0.075 -->
      <g transform="translate(35.235 254.334316) scale(0.16 -0.16)">
       <defs>
        <path id="DejaVuSans-37" d="M 525 4666 
L 3525 4666 
L 3525 4397 
L 1831 0 
L 1172 0 
L 2766 4134 
L 525 4134 
L 525 4666 
z
" transform="scale(0.015625)"/>
       </defs>
       <use xlink:href="#DejaVuSans-30"/>
       <use xlink:href="#DejaVuSans-2e" x="63.623047"/>
       <use xlink:href="#DejaVuSans-30" x="95.410156"/>
       <use xlink:href="#DejaVuSans-37" x="159.033203"/>
       <use xlink:href="#DejaVuSans-35" x="222.65625"/>
      </g>
     </g>
    </g>
    <g id="ytick_3">
     <g id="line2d_12">
      <path d="M 88.04 211.885313 
L 441.679538 211.885313 
" clip-path="url(#pee14eedd5c)" style="fill: none; stroke: #f2f2f2; stroke-width: 0.8; stroke-linecap: square"/>
     </g>
     <g id="line2d_13">
      <g>
       <use xlink:href="#mfbfdbaa8d8" x="88.04" y="211.885313" style="stroke: #000000; stroke-width: 0.8"/>
      </g>
     </g>
     <g id="text_11">
      <!-- 0.100 -->
      <g transform="translate(35.235 217.964063) scale(0.16 -0.16)">
       <use xlink:href="#DejaVuSans-30"/>
       <use xlink:href="#DejaVuSans-2e" x="63.623047"/>
       <use xlink:href="#DejaVuSans-31" x="95.410156"/>
       <use xlink:href="#DejaVuSans-30" x="159.033203"/>
       <use xlink:href="#DejaVuSans-30" x="222.65625"/>
      </g>
     </g>
    </g>
    <g id="ytick_4">
     <g id="line2d_14">
      <path d="M 88.04 175.515061 
L 441.679538 175.515061 
" clip-path="url(#pee14eedd5c)" style="fill: none; stroke: #f2f2f2; stroke-width: 0.8; stroke-linecap: square"/>
     </g>
     <g id="line2d_15">
      <g>
       <use xlink:href="#mfbfdbaa8d8" x="88.04" y="175.515061" style="stroke: #000000; stroke-width: 0.8"/>
      </g>
     </g>
     <g id="text_12">
      <!-- 0.125 -->
      <g transform="translate(35.235 181.593811) scale(0.16 -0.16)">
       <use xlink:href="#DejaVuSans-30"/>
       <use xlink:href="#DejaVuSans-2e" x="63.623047"/>
       <use xlink:href="#DejaVuSans-31" x="95.410156"/>
       <use xlink:href="#DejaVuSans-32" x="159.033203"/>
       <use xlink:href="#DejaVuSans-35" x="222.65625"/>
      </g>
     </g>
    </g>
    <g id="ytick_5">
     <g id="line2d_16">
      <path d="M 88.04 139.144808 
L 441.679538 139.144808 
" clip-path="url(#pee14eedd5c)" style="fill: none; stroke: #f2f2f2; stroke-width: 0.8; stroke-linecap: square"/>
     </g>
     <g id="line2d_17">
      <g>
       <use xlink:href="#mfbfdbaa8d8" x="88.04" y="139.144808" style="stroke: #000000; stroke-width: 0.8"/>
      </g>
     </g>
     <g id="text_13">
      <!-- 0.150 -->
      <g transform="translate(35.235 145.223558) scale(0.16 -0.16)">
       <use xlink:href="#DejaVuSans-30"/>
       <use xlink:href="#DejaVuSans-2e" x="63.623047"/>
       <use xlink:href="#DejaVuSans-31" x="95.410156"/>
       <use xlink:href="#DejaVuSans-35" x="159.033203"/>
       <use xlink:href="#DejaVuSans-30" x="222.65625"/>
      </g>
     </g>
    </g>
    <g id="ytick_6">
     <g id="line2d_18">
      <path d="M 88.04 102.774555 
L 441.679538 102.774555 
" clip-path="url(#pee14eedd5c)" style="fill: none; stroke: #f2f2f2; stroke-width: 0.8; stroke-linecap: square"/>
     </g>
     <g id="line2d_19">
      <g>
       <use xlink:href="#mfbfdbaa8d8" x="88.04" y="102.774555" style="stroke: #000000; stroke-width: 0.8"/>
      </g>
     </g>
     <g id="text_14">
      <!-- 0.175 -->
      <g transform="translate(35.235 108.853305) scale(0.16 -0.16)">
       <use xlink:href="#DejaVuSans-30"/>
       <use xlink:href="#DejaVuSans-2e" x="63.623047"/>
       <use xlink:href="#DejaVuSans-31" x="95.410156"/>
       <use xlink:href="#DejaVuSans-37" x="159.033203"/>
       <use xlink:href="#DejaVuSans-35" x="222.65625"/>
      </g>
     </g>
    </g>
    <g id="ytick_7">
     <g id="line2d_20">
      <path d="M 88.04 66.404302 
L 441.679538 66.404302 
" clip-path="url(#pee14eedd5c)" style="fill: none; stroke: #f2f2f2; stroke-width: 0.8; stroke-linecap: square"/>
     </g>
     <g id="line2d_21">
      <g>
       <use xlink:href="#mfbfdbaa8d8" x="88.04" y="66.404302" style="stroke: #000000; stroke-width: 0.8"/>
      </g>
     </g>
     <g id="text_15">
      <!-- 0.200 -->
      <g transform="translate(35.235 72.483052) scale(0.16 -0.16)">
       <use xlink:href="#DejaVuSans-30"/>
       <use xlink:href="#DejaVuSans-2e" x="63.623047"/>
       <use xlink:href="#DejaVuSans-32" x="95.410156"/>
       <use xlink:href="#DejaVuSans-30" x="159.033203"/>
       <use xlink:href="#DejaVuSans-30" x="222.65625"/>
      </g>
     </g>
    </g>
    <g id="text_16">
     <!-- Concentration (mM) -->
     <g transform="translate(28.323438 230.284531) rotate(-90) scale(0.14 -0.14)">
      <defs>
       <path id="DejaVuSans-4d" d="M 628 4666 
L 1569 4666 
L 2759 1491 
L 3956 4666 
L 4897 4666 
L 4897 0 
L 4281 0 
L 4281 4097 
L 3078 897 
L 2444 897 
L 1241 4097 
L 1241 0 
L 628 0 
L 628 4666 
z
" transform="scale(0.015625)"/>
      </defs>
      <use xlink:href="#DejaVuSans-43"/>
      <use xlink:href="#DejaVuSans-6f" x="69.824219"/>
      <use xlink:href="#DejaVuSans-6e" x="131.005859"/>
      <use xlink:href="#DejaVuSans-63" x="194.384766"/>
      <use xlink:href="#DejaVuSans-65" x="249.365234"/>
      <use xlink:href="#DejaVuSans-6e" x="310.888672"/>
      <use xlink:href="#DejaVuSans-74" x="374.267578"/>
      <use xlink:href="#DejaVuSans-72" x="413.476562"/>
      <use xlink:href="#DejaVuSans-61" x="454.589844"/>
      <use xlink:href="#DejaVuSans-74" x="515.869141"/>
      <use xlink:href="#DejaVuSans-69" x="555.078125"/>
      <use xlink:href="#DejaVuSans-6f" x="582.861328"/>
      <use xlink:href="#DejaVuSans-6e" x="644.042969"/>
      <use xlink:href="#DejaVuSans-20" x="707.421875"/>
      <use xlink:href="#DejaVuSans-28" x="739.208984"/>
      <use xlink:href="#DejaVuSans-6d" x="778.222656"/>
      <use xlink:href="#DejaVuSans-4d" x="875.634766"/>
      <use xlink:href="#DejaVuSans-29" x="961.914062"/>
     </g>
    </g>
   </g>
   <g id="line2d_22">
    <path d="M 104.114524 224.108306 
L 107.896765 224.70176 
L 111.679007 226.498299 
L 115.461248 229.538147 
L 119.243489 233.885271 
L 123.02573 239.629656 
L 126.807971 246.890556 
L 130.590212 255.820988 
L 134.372453 266.614144 
" clip-path="url(#pee14eedd5c)" style="fill: none; stroke: #1f77b4; stroke-opacity: 0.9; stroke-width: 3; stroke-linecap: square"/>
   </g>
   <g id="line2d_23">
    <path d="M 104.114524 124.99941 
L 107.896765 125.287256 
L 111.679007 126.159237 
L 115.461248 127.636327 
L 119.243489 129.751784 
L 123.02573 132.552199 
L 126.807971 136.098944 
L 130.590212 140.470091 
L 134.372453 145.762897 
L 138.154694 152.09698 
L 141.936935 159.618371 
L 145.719176 168.504681 
L 149.501417 178.971738 
L 153.283658 191.282194 
L 157.065899 205.756826 
L 160.84814 222.789689 
L 164.630381 242.8692 
L 168.412622 266.614144 
" clip-path="url(#pee14eedd5c)" style="fill: none; stroke: #ff7f0e; stroke-opacity: 0.9; stroke-width: 3; stroke-linecap: square"/>
   </g>
   <g id="line2d_24">
    <path d="M 104.114524 65.960672 
L 107.896765 66.036427 
L 111.679007 66.266615 
L 115.461248 66.658523 
L 119.243489 67.223806 
L 123.02573 67.97896 
L 126.807971 68.945978 
L 130.590212 70.153199 
L 134.372453 71.636371 
L 138.154694 73.439964 
L 141.936935 75.618784 
L 145.719176 78.239929 
L 149.501417 81.38518 
L 153.283658 85.153917 
L 157.065899 89.6667 
L 160.84814 95.069692 
L 164.630381 101.540185 
L 168.412622 109.293554 
L 172.194863 118.592155 
L 175.977104 129.756841 
L 179.759345 143.182164 
L 183.541586 159.35682 
L 187.323827 178.891794 
L 191.106069 202.560237 
L 194.88831 231.3565 
L 198.670551 266.614144 
" clip-path="url(#pee14eedd5c)" style="fill: none; stroke: #2ca02c; stroke-opacity: 0.9; stroke-width: 3; stroke-linecap: square"/>
   </g>
   <g id="line2d_25">
    <path d="M 104.114524 47.035765 
L 107.896765 47.050707 
L 111.679007 47.096584 
L 115.461248 47.175892 
L 119.243489 47.292279 
L 123.02573 47.450261 
L 126.807971 47.654792 
L 130.590212 47.910678 
L 134.372453 48.221831 
L 138.154694 48.590433 
L 141.936935 49.016196 
L 145.719176 49.496034 
L 149.501417 50.024546 
L 153.283658 50.595675 
L 157.065899 51.205612 
L 160.84814 51.856586 
L 164.630381 52.56087 
L 168.412622 53.344379 
L 172.194863 54.249609 
L 175.977104 55.338124 
L 179.759345 56.693068 
L 183.541586 58.422249 
L 187.323827 60.66227 
L 191.106069 63.5841 
L 194.88831 67.400485 
L 198.670551 72.375668 
L 202.452792 78.838115 
L 206.235033 87.197295 
L 210.017274 97.966154 
L 213.799515 111.791905 
L 217.581756 129.499422 
L 221.363997 152.154431 
L 225.146238 181.159171 
L 228.928479 218.404713 
L 232.71072 266.614144 
" clip-path="url(#pee14eedd5c)" style="fill: none; stroke: #d62728; stroke-opacity: 0.9; stroke-width: 3; stroke-linecap: square"/>
   </g>
   <g id="line2d_26">
    <path d="M 104.114524 61.628493 
L 107.896765 61.573084 
L 111.679007 61.407368 
L 115.461248 61.13261 
L 119.243489 60.750809 
L 123.02573 60.264746 
L 126.807971 59.678056 
L 130.590212 58.99531 
L 134.372453 58.222131 
L 138.154694 57.365331 
L 141.936935 56.433075 
L 145.719176 55.43509 
L 149.501417 54.38292 
L 153.283658 53.290237 
L 157.065899 52.173232 
L 160.84814 51.051097 
L 164.630381 49.946619 
L 168.412622 48.886911 
L 172.194863 47.904269 
L 175.977104 47.037114 
L 179.759345 46.330841 
L 183.541586 45.838089 
L 187.323827 45.617199 
L 191.106069 45.726074 
L 194.88831 46.206143 
L 198.670551 47.051109 
L 202.452792 48.171255 
L 206.235033 49.402666 
L 210.017274 50.597822 
L 213.799515 51.724779 
L 217.581756 52.889428 
L 221.363997 54.304809 
L 225.146238 56.263576 
L 228.928479 59.1326 
L 232.71072 63.365899 
L 236.492961 69.530385 
L 240.275202 78.343144 
L 244.057443 90.723442 
L 247.839684 107.867422 
L 251.621925 131.360842 
L 255.404166 163.358908 
L 259.186407 206.892013 
L 262.968648 266.614144 
" clip-path="url(#pee14eedd5c)" style="fill: none; stroke: #9467bd; stroke-opacity: 0.9; stroke-width: 3; stroke-linecap: square"/>
   </g>
   <g id="line2d_27">
    <path d="M 104.114524 118.852187 
L 107.896765 118.781764 
L 111.679007 118.570367 
L 115.461248 118.217688 
L 119.243489 117.723259 
L 123.02573 117.086472 
L 126.807971 116.3066 
L 130.590212 115.382821 
L 134.372453 114.31426 
L 138.154694 113.100026 
L 141.936935 111.739277 
L 145.719176 110.231279 
L 149.501417 108.575497 
L 153.283658 106.771688 
L 157.065899 104.820019 
L 160.84814 102.721212 
L 164.630381 100.476697 
L 168.412622 98.088805 
L 172.194863 95.560974 
L 175.977104 92.897991 
L 179.759345 90.106246 
L 183.541586 87.19402 
L 187.323827 84.171778 
L 191.106069 81.052484 
L 194.88831 77.851925 
L 198.670551 74.589053 
L 202.452792 71.286368 
L 206.235033 67.97037 
L 210.017274 64.672171 
L 213.799515 61.428382 
L 217.581756 58.282461 
L 221.363997 55.286784 
L 225.146238 52.505781 
L 228.928479 50.020538 
L 232.71072 47.935267 
L 236.492961 46.385721 
L 240.275202 45.547273 
L 244.057443 45.626352 
L 247.839684 46.747106 
L 251.621925 48.575772 
L 255.404166 50.335827 
L 259.186407 51.703511 
L 262.968648 53.018589 
L 266.750889 54.94132 
L 270.53313 58.295977 
L 274.315372 64.091699 
L 278.097613 73.611557 
L 281.879854 88.544045 
L 285.662095 111.179586 
L 289.444336 144.734478 
L 293.226577 193.940225 
L 297.008818 266.614144 
" clip-path="url(#pee14eedd5c)" style="fill: none; stroke: #8c564b; stroke-opacity: 0.9; stroke-width: 3; stroke-linecap: square"/>
   </g>
   <g id="line2d_28">
    <path d="M 104.114524 180.163691 
L 107.896765 180.114708 
L 111.679007 179.967572 
L 115.461248 179.721824 
L 119.243489 179.37675 
L 123.02573 178.93138 
L 126.807971 178.384484 
L 130.590212 177.734564 
L 134.372453 176.979852 
L 138.154694 176.1183 
L 141.936935 175.147572 
L 145.719176 174.065041 
L 149.501417 172.867774 
L 153.283658 171.55253 
L 157.065899 170.115745 
L 160.84814 168.553527 
L 164.630381 166.861655 
L 168.412622 165.035565 
L 172.194863 163.070357 
L 175.977104 160.960801 
L 179.759345 158.701343 
L 183.541586 156.286133 
L 187.323827 153.709064 
L 191.106069 150.963822 
L 194.88831 148.043977 
L 198.670551 144.943092 
L 202.452792 141.654886 
L 206.235033 138.173453 
L 210.017274 134.493544 
L 213.799515 130.610945 
L 217.581756 126.522953 
L 221.363997 122.228977 
L 225.146238 117.731273 
L 228.928479 113.035817 
L 232.71072 108.153297 
L 236.492961 103.1002 
L 240.275202 97.8999 
L 244.057443 92.583657 
L 247.839684 87.191361 
L 251.621925 81.771917 
L 255.404166 76.383225 
L 259.186407 71.09196 
L 262.968648 65.973738 
L 266.750889 61.114786 
L 270.53313 56.616774 
L 274.315372 52.606859 
L 278.097613 49.255201 
L 281.879854 46.802209 
L 285.662095 45.598005 
L 289.444336 46.15714 
L 293.226577 48.593256 
L 297.008818 50.846466 
L 300.791059 52.143918 
L 304.5733 53.47735 
L 308.355541 56.313177 
L 312.137782 62.408237 
L 315.920023 74.025156 
L 319.702264 94.269301 
L 323.484505 127.626714 
L 327.266746 180.988438 
L 331.048987 266.614144 
" clip-path="url(#pee14eedd5c)" style="fill: none; stroke: #e377c2; stroke-opacity: 0.9; stroke-width: 3; stroke-linecap: square"/>
   </g>
   <g id="line2d_29">
    <path d="M 104.114524 221.753254 
L 107.896765 221.721725 
L 111.679007 221.627022 
L 115.461248 221.46886 
L 119.243489 221.246797 
L 123.02573 220.960228 
L 126.807971 220.608388 
L 130.590212 220.190343 
L 134.372453 219.704988 
L 138.154694 219.151039 
L 141.936935 218.52703 
L 145.719176 217.831302 
L 149.501417 217.061996 
L 153.283658 216.217044 
L 157.065899 215.294159 
L 160.84814 214.290821 
L 164.630381 213.204266 
L 168.412622 212.03147 
L 172.194863 210.769134 
L 175.977104 209.41367 
L 179.759345 207.961174 
L 183.541586 206.407413 
L 187.323827 204.7478 
L 191.106069 202.977369 
L 194.88831 201.090747 
L 198.670551 199.082131 
L 202.452792 196.945253 
L 206.235033 194.673351 
L 210.017274 192.259135 
L 213.799515 189.694755 
L 217.581756 186.971767 
L 221.363997 184.081108 
L 225.146238 181.013062 
L 228.928479 177.757258 
L 232.71072 174.302665 
L 236.492961 170.637622 
L 240.275202 166.749908 
L 244.057443 162.62687 
L 247.839684 158.255641 
L 251.621925 153.623477 
L 255.404166 148.718276 
L 259.186407 143.529332 
L 262.968648 138.048406 
L 266.750889 132.271206 
L 270.53313 126.199356 
L 274.315372 119.842903 
L 278.097613 113.223347 
L 281.879854 106.376992 
L 285.662095 99.358171 
L 289.444336 92.241596 
L 293.226577 85.122835 
L 297.008818 78.116195 
L 300.791059 71.350384 
L 304.5733 64.964659 
L 308.355541 59.111036 
L 312.137782 53.970155 
L 315.920023 49.788321 
L 319.702264 46.941737 
L 323.484505 46.033268 
L 327.266746 48.029496 
L 331.048987 51.132953 
L 334.831228 52.391282 
L 338.613469 53.398562 
L 342.39571 56.555649 
L 346.177951 64.746091 
L 349.960192 81.881294 
L 353.742433 113.727297 
L 357.524675 169.475737 
L 361.306916 266.614144 
" clip-path="url(#pee14eedd5c)" style="fill: none; stroke: #7f7f7f; stroke-opacity: 0.9; stroke-width: 3; stroke-linecap: square"/>
   </g>
   <g id="line2d_30">
    <path d="M 104.114524 254.678248 
L 107.896765 254.659489 
L 111.679007 254.603151 
L 115.461248 254.509085 
L 119.243489 254.377059 
L 123.02573 254.206755 
L 126.807971 253.997773 
L 130.590212 253.749622 
L 134.372453 253.461722 
L 138.154694 253.1334 
L 141.936935 252.763886 
L 145.719176 252.352309 
L 149.501417 251.897691 
L 153.283658 251.398947 
L 157.065899 250.854872 
L 160.84814 250.264141 
L 164.630381 249.625298 
L 168.412622 248.93675 
L 172.194863 248.196757 
L 175.977104 247.403425 
L 179.759345 246.554692 
L 183.541586 245.648319 
L 187.323827 244.681879 
L 191.106069 243.652739 
L 194.88831 242.558049 
L 198.670551 241.394723 
L 202.452792 240.159426 
L 206.235033 238.848546 
L 210.017274 237.458182 
L 213.799515 235.984115 
L 217.581756 234.421786 
L 221.363997 232.766264 
L 225.146238 231.012222 
L 228.928479 229.153897 
L 232.71072 227.18506 
L 236.492961 225.098971 
L 240.275202 222.888338 
L 244.057443 220.54527 
L 247.839684 218.061223 
L 251.621925 215.426943 
L 255.404166 212.632405 
L 259.186407 209.666744 
L 262.968648 206.518181 
L 266.750889 203.173949 
L 270.53313 199.620207 
L 274.315372 195.841957 
L 278.097613 191.822968 
L 281.879854 187.545707 
L 285.662095 182.991295 
L 289.444336 178.139529 
L 293.226577 172.968982 
L 297.008818 167.457283 
L 300.791059 161.581666 
L 304.5733 155.319947 
L 308.355541 148.65218 
L 312.137782 141.563292 
L 315.920023 134.047105 
L 319.702264 126.112146 
L 323.484505 117.789522 
L 327.266746 109.142533 
L 331.048987 100.276482 
L 334.831228 91.345047 
L 338.613469 82.547861 
L 342.39571 74.115521 
L 346.177951 66.287111 
L 349.960192 59.300048 
L 353.742433 53.421676 
L 357.524675 49.046561 
L 361.306916 46.871192 
L 365.089157 48.157292 
L 368.871398 52.206622 
L 372.653639 53.035197 
L 376.43588 53.650184 
L 380.218121 57.933221 
L 384.000362 70.805923 
L 387.782603 99.607916 
L 391.564844 156.52395 
L 395.347085 266.614144 
" clip-path="url(#pee14eedd5c)" style="fill: none; stroke: #bcbd22; stroke-opacity: 0.9; stroke-width: 3; stroke-linecap: square"/>
   </g>
   <g id="line2d_31">
    <path d="M 104.114524 274.892727 
L 107.896765 274.880681 
L 111.679007 274.844507 
L 115.461248 274.784123 
L 119.243489 274.6994 
L 123.02573 274.590164 
L 126.807971 274.456193 
L 130.590212 274.297217 
L 134.372453 274.112918 
L 138.154694 273.902929 
L 141.936935 273.666831 
L 145.719176 273.40415 
L 149.501417 273.114359 
L 153.283658 272.796875 
L 157.065899 272.451053 
L 160.84814 272.076186 
L 164.630381 271.6715 
L 168.412622 271.236155 
L 172.194863 270.769232 
L 175.977104 270.269737 
L 179.759345 269.736592 
L 183.541586 269.168626 
L 187.323827 268.564576 
L 191.106069 267.923071 
L 194.88831 267.242632 
L 198.670551 266.521655 
L 202.452792 265.758408 
L 206.235033 264.951015 
L 210.017274 264.097447 
L 213.799515 263.195508 
L 217.581756 262.242818 
L 221.363997 261.236803 
L 225.146238 260.17467 
L 228.928479 259.053395 
L 232.71072 257.869702 
L 236.492961 256.620035 
L 240.275202 255.300542 
L 244.057443 253.907044 
L 247.839684 252.435007 
L 251.621925 250.879515 
L 255.404166 249.235231 
L 259.186407 247.496364 
L 262.968648 245.656627 
L 266.750889 243.709195 
L 270.53313 241.646652 
L 274.315372 239.460943 
L 278.097613 237.143311 
L 281.879854 234.684233 
L 285.662095 232.073347 
L 289.444336 229.299374 
L 293.226577 226.350029 
L 297.008818 223.21192 
L 300.791059 219.870445 
L 304.5733 216.309668 
L 308.355541 212.512192 
L 312.137782 208.45901 
L 315.920023 204.129361 
L 319.702264 199.500563 
L 323.484505 194.547856 
L 327.266746 189.244269 
L 331.048987 183.56054 
L 334.831228 177.46517 
L 338.613469 170.924746 
L 342.39571 163.904789 
L 346.177951 156.371532 
L 349.960192 148.295308 
L 353.742433 139.656521 
L 357.524675 130.455511 
L 361.306916 120.727666 
L 365.089157 110.564292 
L 368.871398 100.136262 
L 372.653639 89.709621 
L 376.43588 79.633675 
L 380.218121 70.289601 
L 384.000362 62.029364 
L 387.782603 55.184506 
L 391.564844 50.21908 
L 395.347085 48.050878 
L 399.129326 50.555347 
L 402.911567 53.897117 
L 406.693808 53.530979 
L 410.476049 54.70522 
L 414.25829 63.406514 
L 418.040531 88.453492 
L 421.822772 145.01125 
L 425.605013 266.614144 
" clip-path="url(#pee14eedd5c)" style="fill: none; stroke: #17becf; stroke-opacity: 0.9; stroke-width: 3; stroke-linecap: square"/>
   </g>
   <g id="patch_3">
    <path d="M 88.04 286.36 
L 88.04 34.08 
" style="fill: none; stroke: #000000; stroke-width: 0.8; stroke-linejoin: miter; stroke-linecap: square"/>
   </g>
   <g id="patch_4">
    <path d="M 441.679538 286.36 
L 441.679538 34.08 
" style="fill: none; stroke: #000000; stroke-width: 0.8; stroke-linejoin: miter; stroke-linecap: square"/>
   </g>
   <g id="patch_5">
    <path d="M 88.04 286.36 
L 441.679538 286.36 
" style="fill: none; stroke: #000000; stroke-width: 0.8; stroke-linejoin: miter; stroke-linecap: square"/>
   </g>
   <g id="patch_6">
    <path d="M 88.04 34.08 
L 441.679538 34.08 
" style="fill: none; stroke: #000000; stroke-width: 0.8; stroke-linejoin: miter; stroke-linecap: square"/>
   </g>
   <g id="text_17">
    <!-- ALA -->
    <g transform="translate(251.225081 28.08) scale(0.14 -0.14)">
     <defs>
      <path id="DejaVuSans-41" d="M 2188 4044 
L 1331 1722 
L 3047 1722 
L 2188 4044 
z
M 1831 4666 
L 2547 4666 
L 4325 0 
L 3669 0 
L 3244 1197 
L 1141 1197 
L 716 0 
L 50 0 
L 1831 4666 
z
" transform="scale(0.015625)"/>
      <path id="DejaVuSans-4c" d="M 628 4666 
L 1259 4666 
L 1259 531 
L 3531 531 
L 3531 0 
L 628 0 
L 628 4666 
z
" transform="scale(0.015625)"/>
     </defs>
     <use xlink:href="#DejaVuSans-41"/>
     <use xlink:href="#DejaVuSans-4c" x="68.408203"/>
     <use xlink:href="#DejaVuSans-41" x="126.371094"/>
    </g>
   </g>
  </g>
 </g>
 <defs>
  <clipPath id="pee14eedd5c">
   <rect x="88.04" y="34.08" width="353.639538" height="252.28"/>
  </clipPath>
 </defs>
</svg>
