<?xml version="1.0" encoding="utf-8" standalone="no"?>
<!DOCTYPE svg PUBLIC "-//W3C//DTD SVG 1.1//EN"
  "http://www.w3.org/Graphics/SVG/1.1/DTD/svg11.dtd">
<svg xmlns:xlink="http://www.w3.org/1999/xlink" width="460.8pt" height="345.6pt" viewBox="0 0 460.8 345.6" xmlns="http://www.w3.org/2000/svg" version="1.1">
 <metadata>
  <rdf:RDF xmlns:dc="http://purl.org/dc/elements/1.1/" xmlns:cc="http://creativecommons.org/ns#" xmlns:rdf="http://www.w3.org/1999/02/22-rdf-syntax-ns#">
   <cc:Work>
    <dc:type rdf:resource="http://purl.org/dc/dcmitype/StillImage"/>
    <dc:date>2023-02-20T22:34:36.075412</dc:date>
    <dc:format>image/svg+xml</dc:format>
    <dc:creator>
     <cc:Agent>
      <dc:title>Matplotlib v3.6.2, https://matplotlib.org/</dc:title>
     </cc:Agent>
    </dc:creator>
   </cc:Work>
  </rdf:RDF>
 </metadata>
 <defs>
  <style type="text/css">*{stroke-linejoin: round; stroke-linecap: butt}</style>
 </defs>
 <g id="figure_1">
  <g id="patch_1">
   <path d="M 0 345.6 
L 460.8 345.6 
L 460.8 0 
L 0 0 
z
" style="fill: #ffffff"/>
  </g>
  <g id="axes_1">
   <g id="patch_2">
    <path d="M 77.78 286.36 
L 441.679538 286.36 
L 441.679538 34.08 
L 77.78 34.08 
z
" style="fill: #ffffff"/>
   </g>
   <g id="matplotlib.axis_1">
    <g id="xtick_1">
     <g id="line2d_1">
      <defs>
       <path id="m212954dd82" d="M 0 0 
L 0 3.5 
" style="stroke: #000000; stroke-width: 0.8"/>
      </defs>
      <g>
       <use xlink:href="#m212954dd82" x="94.320888" y="286.36" style="stroke: #000000; stroke-width: 0.8"/>
      </g>
     </g>
     <g id="text_1">
      <!-- 0 -->
      <g transform="translate(89.230888 305.5175) scale(0.16 -0.16)">
       <defs>
        <path id="DejaVuSans-30" d="M 2034 4250 
Q 1547 4250 1301 3770 
Q 1056 3291 1056 2328 
Q 1056 1369 1301 889 
Q 1547 409 2034 409 
Q 2525 409 2770 889 
Q 3016 1369 3016 2328 
Q 3016 3291 2770 3770 
Q 2525 4250 2034 4250 
z
M 2034 4750 
Q 2819 4750 3233 4129 
Q 3647 3509 3647 2328 
Q 3647 1150 3233 529 
Q 2819 -91 2034 -91 
Q 1250 -91 836 529 
Q 422 1150 422 2328 
Q 422 3509 836 4129 
Q 1250 4750 2034 4750 
z
" transform="scale(0.015625)"/>
       </defs>
       <use xlink:href="#DejaVuSans-30"/>
      </g>
     </g>
    </g>
    <g id="xtick_2">
     <g id="line2d_2">
      <g>
       <use xlink:href="#m212954dd82" x="149.920512" y="286.36" style="stroke: #000000; stroke-width: 0.8"/>
      </g>
     </g>
     <g id="text_2">
      <!-- 100 -->
      <g transform="translate(134.650512 305.5175) scale(0.16 -0.16)">
       <defs>
        <path id="DejaVuSans-31" d="M 794 531 
L 1825 531 
L 1825 4091 
L 703 3866 
L 703 4441 
L 1819 4666 
L 2450 4666 
L 2450 531 
L 3481 531 
L 3481 0 
L 794 0 
L 794 531 
z
" transform="scale(0.015625)"/>
       </defs>
       <use xlink:href="#DejaVuSans-31"/>
       <use xlink:href="#DejaVuSans-30" x="63.623047"/>
       <use xlink:href="#DejaVuSans-30" x="127.246094"/>
      </g>
     </g>
    </g>
    <g id="xtick_3">
     <g id="line2d_3">
      <g>
       <use xlink:href="#m212954dd82" x="205.520136" y="286.36" style="stroke: #000000; stroke-width: 0.8"/>
      </g>
     </g>
     <g id="text_3">
      <!-- 200 -->
      <g transform="translate(190.250136 305.5175) scale(0.16 -0.16)">
       <defs>
        <path id="DejaVuSans-32" d="M 1228 531 
L 3431 531 
L 3431 0 
L 469 0 
L 469 531 
Q 828 903 1448 1529 
Q 2069 2156 2228 2338 
Q 2531 2678 2651 2914 
Q 2772 3150 2772 3378 
Q 2772 3750 2511 3984 
Q 2250 4219 1831 4219 
Q 1534 4219 1204 4116 
Q 875 4013 500 3803 
L 500 4441 
Q 881 4594 1212 4672 
Q 1544 4750 1819 4750 
Q 2544 4750 2975 4387 
Q 3406 4025 3406 3419 
Q 3406 3131 3298 2873 
Q 3191 2616 2906 2266 
Q 2828 2175 2409 1742 
Q 1991 1309 1228 531 
z
" transform="scale(0.015625)"/>
       </defs>
       <use xlink:href="#DejaVuSans-32"/>
       <use xlink:href="#DejaVuSans-30" x="63.623047"/>
       <use xlink:href="#DejaVuSans-30" x="127.246094"/>
      </g>
     </g>
    </g>
    <g id="xtick_4">
     <g id="line2d_4">
      <g>
       <use xlink:href="#m212954dd82" x="261.11976" y="286.36" style="stroke: #000000; stroke-width: 0.8"/>
      </g>
     </g>
     <g id="text_4">
      <!-- 300 -->
      <g transform="translate(245.84976 305.5175) scale(0.16 -0.16)">
       <defs>
        <path id="DejaVuSans-33" d="M 2597 2516 
Q 3050 2419 3304 2112 
Q 3559 1806 3559 1356 
Q 3559 666 3084 287 
Q 2609 -91 1734 -91 
Q 1441 -91 1130 -33 
Q 819 25 488 141 
L 488 750 
Q 750 597 1062 519 
Q 1375 441 1716 441 
Q 2309 441 2620 675 
Q 2931 909 2931 1356 
Q 2931 1769 2642 2001 
Q 2353 2234 1838 2234 
L 1294 2234 
L 1294 2753 
L 1863 2753 
Q 2328 2753 2575 2939 
Q 2822 3125 2822 3475 
Q 2822 3834 2567 4026 
Q 2313 4219 1838 4219 
Q 1578 4219 1281 4162 
Q 984 4106 628 3988 
L 628 4550 
Q 988 4650 1302 4700 
Q 1616 4750 1894 4750 
Q 2613 4750 3031 4423 
Q 3450 4097 3450 3541 
Q 3450 3153 3228 2886 
Q 3006 2619 2597 2516 
z
" transform="scale(0.015625)"/>
       </defs>
       <use xlink:href="#DejaVuSans-33"/>
       <use xlink:href="#DejaVuSans-30" x="63.623047"/>
       <use xlink:href="#DejaVuSans-30" x="127.246094"/>
      </g>
     </g>
    </g>
    <g id="xtick_5">
     <g id="line2d_5">
      <g>
       <use xlink:href="#m212954dd82" x="316.719383" y="286.36" style="stroke: #000000; stroke-width: 0.8"/>
      </g>
     </g>
     <g id="text_5">
      <!-- 400 -->
      <g transform="translate(301.449383 305.5175) scale(0.16 -0.16)">
       <defs>
        <path id="DejaVuSans-34" d="M 2419 4116 
L 825 1625 
L 2419 1625 
L 2419 4116 
z
M 2253 4666 
L 3047 4666 
L 3047 1625 
L 3713 1625 
L 3713 1100 
L 3047 1100 
L 3047 0 
L 2419 0 
L 2419 1100 
L 313 1100 
L 313 1709 
L 2253 4666 
z
" transform="scale(0.015625)"/>
       </defs>
       <use xlink:href="#DejaVuSans-34"/>
       <use xlink:href="#DejaVuSans-30" x="63.623047"/>
       <use xlink:href="#DejaVuSans-30" x="127.246094"/>
      </g>
     </g>
    </g>
    <g id="xtick_6">
     <g id="line2d_6">
      <g>
       <use xlink:href="#m212954dd82" x="372.319007" y="286.36" style="stroke: #000000; stroke-width: 0.8"/>
      </g>
     </g>
     <g id="text_6">
      <!-- 500 -->
      <g transform="translate(357.049007 305.5175) scale(0.16 -0.16)">
       <defs>
        <path id="DejaVuSans-35" d="M 691 4666 
L 3169 4666 
L 3169 4134 
L 1269 4134 
L 1269 2991 
Q 1406 3038 1543 3061 
Q 1681 3084 1819 3084 
Q 2600 3084 3056 2656 
Q 3513 2228 3513 1497 
Q 3513 744 3044 326 
Q 2575 -91 1722 -91 
Q 1428 -91 1123 -41 
Q 819 9 494 109 
L 494 744 
Q 775 591 1075 516 
Q 1375 441 1709 441 
Q 2250 441 2565 725 
Q 2881 1009 2881 1497 
Q 2881 1984 2565 2268 
Q 2250 2553 1709 2553 
Q 1456 2553 1204 2497 
Q 953 2441 691 2322 
L 691 4666 
z
" transform="scale(0.015625)"/>
       </defs>
       <use xlink:href="#DejaVuSans-35"/>
       <use xlink:href="#DejaVuSans-30" x="63.623047"/>
       <use xlink:href="#DejaVuSans-30" x="127.246094"/>
      </g>
     </g>
    </g>
    <g id="xtick_7">
     <g id="line2d_7">
      <g>
       <use xlink:href="#m212954dd82" x="427.918631" y="286.36" style="stroke: #000000; stroke-width: 0.8"/>
      </g>
     </g>
     <g id="text_7">
      <!-- 600 -->
      <g transform="translate(412.648631 305.5175) scale(0.16 -0.16)">
       <defs>
        <path id="DejaVuSans-36" d="M 2113 2584 
Q 1688 2584 1439 2293 
Q 1191 2003 1191 1497 
Q 1191 994 1439 701 
Q 1688 409 2113 409 
Q 2538 409 2786 701 
Q 3034 994 3034 1497 
Q 3034 2003 2786 2293 
Q 2538 2584 2113 2584 
z
M 3366 4563 
L 3366 3988 
Q 3128 4100 2886 4159 
Q 2644 4219 2406 4219 
Q 1781 4219 1451 3797 
Q 1122 3375 1075 2522 
Q 1259 2794 1537 2939 
Q 1816 3084 2150 3084 
Q 2853 3084 3261 2657 
Q 3669 2231 3669 1497 
Q 3669 778 3244 343 
Q 2819 -91 2113 -91 
Q 1303 -91 875 529 
Q 447 1150 447 2328 
Q 447 3434 972 4092 
Q 1497 4750 2381 4750 
Q 2619 4750 2861 4703 
Q 3103 4656 3366 4563 
z
" transform="scale(0.015625)"/>
       </defs>
       <use xlink:href="#DejaVuSans-36"/>
       <use xlink:href="#DejaVuSans-30" x="63.623047"/>
       <use xlink:href="#DejaVuSans-30" x="127.246094"/>
      </g>
     </g>
    </g>
    <g id="text_8">
     <!-- Distance from Center $(\mu m)$ -->
     <g transform="translate(165.649769 323.485) scale(0.14 -0.14)">
      <defs>
       <path id="DejaVuSans-44" d="M 1259 4147 
L 1259 519 
L 2022 519 
Q 2988 519 3436 956 
Q 3884 1394 3884 2338 
Q 3884 3275 3436 3711 
Q 2988 4147 2022 4147 
L 1259 4147 
z
M 628 4666 
L 1925 4666 
Q 3281 4666 3915 4102 
Q 4550 3538 4550 2338 
Q 4550 1131 3912 565 
Q 3275 0 1925 0 
L 628 0 
L 628 4666 
z
" transform="scale(0.015625)"/>
       <path id="DejaVuSans-69" d="M 603 3500 
L 1178 3500 
L 1178 0 
L 603 0 
L 603 3500 
z
M 603 4863 
L 1178 4863 
L 1178 4134 
L 603 4134 
L 603 4863 
z
" transform="scale(0.015625)"/>
       <path id="DejaVuSans-73" d="M 2834 3397 
L 2834 2853 
Q 2591 2978 2328 3040 
Q 2066 3103 1784 3103 
Q 1356 3103 1142 2972 
Q 928 2841 928 2578 
Q 928 2378 1081 2264 
Q 1234 2150 1697 2047 
L 1894 2003 
Q 2506 1872 2764 1633 
Q 3022 1394 3022 966 
Q 3022 478 2636 193 
Q 2250 -91 1575 -91 
Q 1294 -91 989 -36 
Q 684 19 347 128 
L 347 722 
Q 666 556 975 473 
Q 1284 391 1588 391 
Q 1994 391 2212 530 
Q 2431 669 2431 922 
Q 2431 1156 2273 1281 
Q 2116 1406 1581 1522 
L 1381 1569 
Q 847 1681 609 1914 
Q 372 2147 372 2553 
Q 372 3047 722 3315 
Q 1072 3584 1716 3584 
Q 2034 3584 2315 3537 
Q 2597 3491 2834 3397 
z
" transform="scale(0.015625)"/>
       <path id="DejaVuSans-74" d="M 1172 4494 
L 1172 3500 
L 2356 3500 
L 2356 3053 
L 1172 3053 
L 1172 1153 
Q 1172 725 1289 603 
Q 1406 481 1766 481 
L 2356 481 
L 2356 0 
L 1766 0 
Q 1100 0 847 248 
Q 594 497 594 1153 
L 594 3053 
L 172 3053 
L 172 3500 
L 594 3500 
L 594 4494 
L 1172 4494 
z
" transform="scale(0.015625)"/>
       <path id="DejaVuSans-61" d="M 2194 1759 
Q 1497 1759 1228 1600 
Q 959 1441 959 1056 
Q 959 750 1161 570 
Q 1363 391 1709 391 
Q 2188 391 2477 730 
Q 2766 1069 2766 1631 
L 2766 1759 
L 2194 1759 
z
M 3341 1997 
L 3341 0 
L 2766 0 
L 2766 531 
Q 2569 213 2275 61 
Q 1981 -91 1556 -91 
Q 1019 -91 701 211 
Q 384 513 384 1019 
Q 384 1609 779 1909 
Q 1175 2209 1959 2209 
L 2766 2209 
L 2766 2266 
Q 2766 2663 2505 2880 
Q 2244 3097 1772 3097 
Q 1472 3097 1187 3025 
Q 903 2953 641 2809 
L 641 3341 
Q 956 3463 1253 3523 
Q 1550 3584 1831 3584 
Q 2591 3584 2966 3190 
Q 3341 2797 3341 1997 
z
" transform="scale(0.015625)"/>
       <path id="DejaVuSans-6e" d="M 3513 2113 
L 3513 0 
L 2938 0 
L 2938 2094 
Q 2938 2591 2744 2837 
Q 2550 3084 2163 3084 
Q 1697 3084 1428 2787 
Q 1159 2491 1159 1978 
L 1159 0 
L 581 0 
L 581 3500 
L 1159 3500 
L 1159 2956 
Q 1366 3272 1645 3428 
Q 1925 3584 2291 3584 
Q 2894 3584 3203 3211 
Q 3513 2838 3513 2113 
z
" transform="scale(0.015625)"/>
       <path id="DejaVuSans-63" d="M 3122 3366 
L 3122 2828 
Q 2878 2963 2633 3030 
Q 2388 3097 2138 3097 
Q 1578 3097 1268 2742 
Q 959 2388 959 1747 
Q 959 1106 1268 751 
Q 1578 397 2138 397 
Q 2388 397 2633 464 
Q 2878 531 3122 666 
L 3122 134 
Q 2881 22 2623 -34 
Q 2366 -91 2075 -91 
Q 1284 -91 818 406 
Q 353 903 353 1747 
Q 353 2603 823 3093 
Q 1294 3584 2113 3584 
Q 2378 3584 2631 3529 
Q 2884 3475 3122 3366 
z
" transform="scale(0.015625)"/>
       <path id="DejaVuSans-65" d="M 3597 1894 
L 3597 1613 
L 953 1613 
Q 991 1019 1311 708 
Q 1631 397 2203 397 
Q 2534 397 2845 478 
Q 3156 559 3463 722 
L 3463 178 
Q 3153 47 2828 -22 
Q 2503 -91 2169 -91 
Q 1331 -91 842 396 
Q 353 884 353 1716 
Q 353 2575 817 3079 
Q 1281 3584 2069 3584 
Q 2775 3584 3186 3129 
Q 3597 2675 3597 1894 
z
M 3022 2063 
Q 3016 2534 2758 2815 
Q 2500 3097 2075 3097 
Q 1594 3097 1305 2825 
Q 1016 2553 972 2059 
L 3022 2063 
z
" transform="scale(0.015625)"/>
       <path id="DejaVuSans-20" transform="scale(0.015625)"/>
       <path id="DejaVuSans-66" d="M 2375 4863 
L 2375 4384 
L 1825 4384 
Q 1516 4384 1395 4259 
Q 1275 4134 1275 3809 
L 1275 3500 
L 2222 3500 
L 2222 3053 
L 1275 3053 
L 1275 0 
L 697 0 
L 697 3053 
L 147 3053 
L 147 3500 
L 697 3500 
L 697 3744 
Q 697 4328 969 4595 
Q 1241 4863 1831 4863 
L 2375 4863 
z
" transform="scale(0.015625)"/>
       <path id="DejaVuSans-72" d="M 2631 2963 
Q 2534 3019 2420 3045 
Q 2306 3072 2169 3072 
Q 1681 3072 1420 2755 
Q 1159 2438 1159 1844 
L 1159 0 
L 581 0 
L 581 3500 
L 1159 3500 
L 1159 2956 
Q 1341 3275 1631 3429 
Q 1922 3584 2338 3584 
Q 2397 3584 2469 3576 
Q 2541 3569 2628 3553 
L 2631 2963 
z
" transform="scale(0.015625)"/>
       <path id="DejaVuSans-6f" d="M 1959 3097 
Q 1497 3097 1228 2736 
Q 959 2375 959 1747 
Q 959 1119 1226 758 
Q 1494 397 1959 397 
Q 2419 397 2687 759 
Q 2956 1122 2956 1747 
Q 2956 2369 2687 2733 
Q 2419 3097 1959 3097 
z
M 1959 3584 
Q 2709 3584 3137 3096 
Q 3566 2609 3566 1747 
Q 3566 888 3137 398 
Q 2709 -91 1959 -91 
Q 1206 -91 779 398 
Q 353 888 353 1747 
Q 353 2609 779 3096 
Q 1206 3584 1959 3584 
z
" transform="scale(0.015625)"/>
       <path id="DejaVuSans-6d" d="M 3328 2828 
Q 3544 3216 3844 3400 
Q 4144 3584 4550 3584 
Q 5097 3584 5394 3201 
Q 5691 2819 5691 2113 
L 5691 0 
L 5113 0 
L 5113 2094 
Q 5113 2597 4934 2840 
Q 4756 3084 4391 3084 
Q 3944 3084 3684 2787 
Q 3425 2491 3425 1978 
L 3425 0 
L 2847 0 
L 2847 2094 
Q 2847 2600 2669 2842 
Q 2491 3084 2119 3084 
Q 1678 3084 1418 2786 
Q 1159 2488 1159 1978 
L 1159 0 
L 581 0 
L 581 3500 
L 1159 3500 
L 1159 2956 
Q 1356 3278 1631 3431 
Q 1906 3584 2284 3584 
Q 2666 3584 2933 3390 
Q 3200 3197 3328 2828 
z
" transform="scale(0.015625)"/>
       <path id="DejaVuSans-43" d="M 4122 4306 
L 4122 3641 
Q 3803 3938 3442 4084 
Q 3081 4231 2675 4231 
Q 1875 4231 1450 3742 
Q 1025 3253 1025 2328 
Q 1025 1406 1450 917 
Q 1875 428 2675 428 
Q 3081 428 3442 575 
Q 3803 722 4122 1019 
L 4122 359 
Q 3791 134 3420 21 
Q 3050 -91 2638 -91 
Q 1578 -91 968 557 
Q 359 1206 359 2328 
Q 359 3453 968 4101 
Q 1578 4750 2638 4750 
Q 3056 4750 3426 4639 
Q 3797 4528 4122 4306 
z
" transform="scale(0.015625)"/>
       <path id="DejaVuSans-28" d="M 1984 4856 
Q 1566 4138 1362 3434 
Q 1159 2731 1159 2009 
Q 1159 1288 1364 580 
Q 1569 -128 1984 -844 
L 1484 -844 
Q 1016 -109 783 600 
Q 550 1309 550 2009 
Q 550 2706 781 3412 
Q 1013 4119 1484 4856 
L 1984 4856 
z
" transform="scale(0.015625)"/>
       <path id="DejaVuSans-Oblique-3bc" d="M -84 -1331 
L 856 3500 
L 1434 3500 
L 1009 1322 
Q 997 1256 987 1175 
Q 978 1094 978 1013 
Q 978 722 1161 565 
Q 1344 409 1684 409 
Q 2147 409 2431 671 
Q 2716 934 2816 1459 
L 3213 3500 
L 3788 3500 
L 3266 809 
Q 3253 750 3248 706 
Q 3244 663 3244 628 
Q 3244 531 3283 486 
Q 3322 441 3406 441 
Q 3438 441 3492 456 
Q 3547 472 3647 513 
L 3559 50 
Q 3422 -19 3297 -55 
Q 3172 -91 3053 -91 
Q 2847 -91 2730 40 
Q 2613 172 2613 403 
Q 2438 153 2195 31 
Q 1953 -91 1625 -91 
Q 1334 -91 1117 43 
Q 900 178 831 397 
L 494 -1331 
L -84 -1331 
z
" transform="scale(0.015625)"/>
       <path id="DejaVuSans-Oblique-6d" d="M 5747 2113 
L 5338 0 
L 4763 0 
L 5166 2094 
Q 5191 2228 5203 2325 
Q 5216 2422 5216 2491 
Q 5216 2772 5059 2928 
Q 4903 3084 4622 3084 
Q 4203 3084 3875 2770 
Q 3547 2456 3450 1953 
L 3066 0 
L 2491 0 
L 2900 2094 
Q 2925 2209 2937 2307 
Q 2950 2406 2950 2484 
Q 2950 2769 2794 2926 
Q 2638 3084 2363 3084 
Q 1938 3084 1609 2770 
Q 1281 2456 1184 1953 
L 800 0 
L 225 0 
L 909 3500 
L 1484 3500 
L 1375 2956 
Q 1609 3263 1923 3423 
Q 2238 3584 2597 3584 
Q 2978 3584 3223 3384 
Q 3469 3184 3519 2828 
Q 3781 3197 4126 3390 
Q 4472 3584 4856 3584 
Q 5306 3584 5551 3325 
Q 5797 3066 5797 2591 
Q 5797 2488 5784 2364 
Q 5772 2241 5747 2113 
z
" transform="scale(0.015625)"/>
       <path id="DejaVuSans-29" d="M 513 4856 
L 1013 4856 
Q 1481 4119 1714 3412 
Q 1947 2706 1947 2009 
Q 1947 1309 1714 600 
Q 1481 -109 1013 -844 
L 513 -844 
Q 928 -128 1133 580 
Q 1338 1288 1338 2009 
Q 1338 2731 1133 3434 
Q 928 4138 513 4856 
z
" transform="scale(0.015625)"/>
      </defs>
      <use xlink:href="#DejaVuSans-44" transform="translate(0 0.015625)"/>
      <use xlink:href="#DejaVuSans-69" transform="translate(77.001953 0.015625)"/>
      <use xlink:href="#DejaVuSans-73" transform="translate(104.785156 0.015625)"/>
      <use xlink:href="#DejaVuSans-74" transform="translate(156.884766 0.015625)"/>
      <use xlink:href="#DejaVuSans-61" transform="translate(196.09375 0.015625)"/>
      <use xlink:href="#DejaVuSans-6e" transform="translate(257.373047 0.015625)"/>
      <use xlink:href="#DejaVuSans-63" transform="translate(320.751953 0.015625)"/>
      <use xlink:href="#DejaVuSans-65" transform="translate(375.732422 0.015625)"/>
      <use xlink:href="#DejaVuSans-20" transform="translate(437.255859 0.015625)"/>
      <use xlink:href="#DejaVuSans-66" transform="translate(469.042969 0.015625)"/>
      <use xlink:href="#DejaVuSans-72" transform="translate(504.248047 0.015625)"/>
      <use xlink:href="#DejaVuSans-6f" transform="translate(545.361328 0.015625)"/>
      <use xlink:href="#DejaVuSans-6d" transform="translate(606.542969 0.015625)"/>
      <use xlink:href="#DejaVuSans-20" transform="translate(703.955078 0.015625)"/>
      <use xlink:href="#DejaVuSans-43" transform="translate(735.742188 0.015625)"/>
      <use xlink:href="#DejaVuSans-65" transform="translate(805.566406 0.015625)"/>
      <use xlink:href="#DejaVuSans-6e" transform="translate(867.089844 0.015625)"/>
      <use xlink:href="#DejaVuSans-74" transform="translate(930.46875 0.015625)"/>
      <use xlink:href="#DejaVuSans-65" transform="translate(969.677734 0.015625)"/>
      <use xlink:href="#DejaVuSans-72" transform="translate(1031.201172 0.015625)"/>
      <use xlink:href="#DejaVuSans-20" transform="translate(1072.314453 0.015625)"/>
      <use xlink:href="#DejaVuSans-28" transform="translate(1104.101562 0.015625)"/>
      <use xlink:href="#DejaVuSans-Oblique-3bc" transform="translate(1143.115234 0.015625)"/>
      <use xlink:href="#DejaVuSans-Oblique-6d" transform="translate(1206.738281 0.015625)"/>
      <use xlink:href="#DejaVuSans-29" transform="translate(1304.150391 0.015625)"/>
     </g>
    </g>
   </g>
   <g id="matplotlib.axis_2">
    <g id="ytick_1">
     <g id="line2d_8">
      <path d="M 77.78 242.767089 
L 441.679538 242.767089 
" clip-path="url(#p5c5ac3876a)" style="fill: none; stroke: #f2f2f2; stroke-width: 0.8; stroke-linecap: square"/>
     </g>
     <g id="line2d_9">
      <defs>
       <path id="m0ecd8ea492" d="M 0 0 
L -3.5 0 
" style="stroke: #000000; stroke-width: 0.8"/>
      </defs>
      <g>
       <use xlink:href="#m0ecd8ea492" x="77.78" y="242.767089" style="stroke: #000000; stroke-width: 0.8"/>
      </g>
     </g>
     <g id="text_9">
      <!-- 0.02 -->
      <g transform="translate(35.155 248.845839) scale(0.16 -0.16)">
       <defs>
        <path id="DejaVuSans-2e" d="M 684 794 
L 1344 794 
L 1344 0 
L 684 0 
L 684 794 
z
" transform="scale(0.015625)"/>
       </defs>
       <use xlink:href="#DejaVuSans-30"/>
       <use xlink:href="#DejaVuSans-2e" x="63.623047"/>
       <use xlink:href="#DejaVuSans-30" x="95.410156"/>
       <use xlink:href="#DejaVuSans-32" x="159.033203"/>
      </g>
     </g>
    </g>
    <g id="ytick_2">
     <g id="line2d_10">
      <path d="M 77.78 193.46891 
L 441.679538 193.46891 
" clip-path="url(#p5c5ac3876a)" style="fill: none; stroke: #f2f2f2; stroke-width: 0.8; stroke-linecap: square"/>
     </g>
     <g id="line2d_11">
      <g>
       <use xlink:href="#m0ecd8ea492" x="77.78" y="193.46891" style="stroke: #000000; stroke-width: 0.8"/>
      </g>
     </g>
     <g id="text_10">
      <!-- 0.03 -->
      <g transform="translate(35.155 199.54766) scale(0.16 -0.16)">
       <use xlink:href="#DejaVuSans-30"/>
       <use xlink:href="#DejaVuSans-2e" x="63.623047"/>
       <use xlink:href="#DejaVuSans-30" x="95.410156"/>
       <use xlink:href="#DejaVuSans-33" x="159.033203"/>
      </g>
     </g>
    </g>
    <g id="ytick_3">
     <g id="line2d_12">
      <path d="M 77.78 144.170731 
L 441.679538 144.170731 
" clip-path="url(#p5c5ac3876a)" style="fill: none; stroke: #f2f2f2; stroke-width: 0.8; stroke-linecap: square"/>
     </g>
     <g id="line2d_13">
      <g>
       <use xlink:href="#m0ecd8ea492" x="77.78" y="144.170731" style="stroke: #000000; stroke-width: 0.8"/>
      </g>
     </g>
     <g id="text_11">
      <!-- 0.04 -->
      <g transform="translate(35.155 150.249481) scale(0.16 -0.16)">
       <use xlink:href="#DejaVuSans-30"/>
       <use xlink:href="#DejaVuSans-2e" x="63.623047"/>
       <use xlink:href="#DejaVuSans-30" x="95.410156"/>
       <use xlink:href="#DejaVuSans-34" x="159.033203"/>
      </g>
     </g>
    </g>
    <g id="ytick_4">
     <g id="line2d_14">
      <path d="M 77.78 94.872552 
L 441.679538 94.872552 
" clip-path="url(#p5c5ac3876a)" style="fill: none; stroke: #f2f2f2; stroke-width: 0.8; stroke-linecap: square"/>
     </g>
     <g id="line2d_15">
      <g>
       <use xlink:href="#m0ecd8ea492" x="77.78" y="94.872552" style="stroke: #000000; stroke-width: 0.8"/>
      </g>
     </g>
     <g id="text_12">
      <!-- 0.05 -->
      <g transform="translate(35.155 100.951302) scale(0.16 -0.16)">
       <use xlink:href="#DejaVuSans-30"/>
       <use xlink:href="#DejaVuSans-2e" x="63.623047"/>
       <use xlink:href="#DejaVuSans-30" x="95.410156"/>
       <use xlink:href="#DejaVuSans-35" x="159.033203"/>
      </g>
     </g>
    </g>
    <g id="ytick_5">
     <g id="line2d_16">
      <path d="M 77.78 45.574373 
L 441.679538 45.574373 
" clip-path="url(#p5c5ac3876a)" style="fill: none; stroke: #f2f2f2; stroke-width: 0.8; stroke-linecap: square"/>
     </g>
     <g id="line2d_17">
      <g>
       <use xlink:href="#m0ecd8ea492" x="77.78" y="45.574373" style="stroke: #000000; stroke-width: 0.8"/>
      </g>
     </g>
     <g id="text_13">
      <!-- 0.06 -->
      <g transform="translate(35.155 51.653123) scale(0.16 -0.16)">
       <use xlink:href="#DejaVuSans-30"/>
       <use xlink:href="#DejaVuSans-2e" x="63.623047"/>
       <use xlink:href="#DejaVuSans-30" x="95.410156"/>
       <use xlink:href="#DejaVuSans-36" x="159.033203"/>
      </g>
     </g>
    </g>
    <g id="text_14">
     <!-- Concentration (mM) -->
     <g transform="translate(28.243438 230.284531) rotate(-90) scale(0.14 -0.14)">
      <defs>
       <path id="DejaVuSans-4d" d="M 628 4666 
L 1569 4666 
L 2759 1491 
L 3956 4666 
L 4897 4666 
L 4897 0 
L 4281 0 
L 4281 4097 
L 3078 897 
L 2444 897 
L 1241 4097 
L 1241 0 
L 628 0 
L 628 4666 
z
" transform="scale(0.015625)"/>
      </defs>
      <use xlink:href="#DejaVuSans-43"/>
      <use xlink:href="#DejaVuSans-6f" x="69.824219"/>
      <use xlink:href="#DejaVuSans-6e" x="131.005859"/>
      <use xlink:href="#DejaVuSans-63" x="194.384766"/>
      <use xlink:href="#DejaVuSans-65" x="249.365234"/>
      <use xlink:href="#DejaVuSans-6e" x="310.888672"/>
      <use xlink:href="#DejaVuSans-74" x="374.267578"/>
      <use xlink:href="#DejaVuSans-72" x="413.476562"/>
      <use xlink:href="#DejaVuSans-61" x="454.589844"/>
      <use xlink:href="#DejaVuSans-74" x="515.869141"/>
      <use xlink:href="#DejaVuSans-69" x="555.078125"/>
      <use xlink:href="#DejaVuSans-6f" x="582.861328"/>
      <use xlink:href="#DejaVuSans-6e" x="644.042969"/>
      <use xlink:href="#DejaVuSans-20" x="707.421875"/>
      <use xlink:href="#DejaVuSans-28" x="739.208984"/>
      <use xlink:href="#DejaVuSans-6d" x="778.222656"/>
      <use xlink:href="#DejaVuSans-4d" x="875.634766"/>
      <use xlink:href="#DejaVuSans-29" x="961.914062"/>
     </g>
    </g>
   </g>
   <g id="line2d_18">
    <path d="M 94.320888 171.020405 
L 98.212862 170.922351 
L 102.104835 170.621159 
L 105.996809 170.097551 
L 109.888783 169.315036 
L 113.780756 168.207321 
L 117.67273 166.64907 
L 121.564704 164.376331 
L 125.456677 160.685686 
" clip-path="url(#p5c5ac3876a)" style="fill: none; stroke: #1f77b4; stroke-opacity: 0.9; stroke-width: 3; stroke-linecap: square"/>
   </g>
   <g id="line2d_19">
    <path d="M 94.320888 186.415631 
L 98.212862 186.369157 
L 102.104835 186.228872 
L 105.996809 185.992679 
L 109.888783 185.657392 
L 113.780756 185.218792 
L 117.67273 184.671672 
L 121.564704 184.009846 
L 125.456677 183.22602 
L 129.348651 182.311382 
L 133.240625 181.25458 
L 137.132598 180.039381 
L 141.024572 178.639496 
L 144.916546 177.006828 
L 148.808519 175.043015 
L 152.700493 172.52105 
L 156.592467 168.805105 
L 160.48444 160.685686 
" clip-path="url(#p5c5ac3876a)" style="fill: none; stroke: #ff7f0e; stroke-opacity: 0.9; stroke-width: 3; stroke-linecap: square"/>
   </g>
   <g id="line2d_20">
    <path d="M 94.320888 195.378887 
L 98.212862 195.382154 
L 102.104835 195.390305 
L 105.996809 195.399329 
L 109.888783 195.403091 
L 113.780756 195.393421 
L 117.67273 195.360239 
L 121.564704 195.291699 
L 125.456677 195.174367 
L 129.348651 194.993426 
L 133.240625 194.732909 
L 137.132598 194.375983 
L 141.024572 193.905283 
L 144.916546 193.303334 
L 148.808519 192.553073 
L 152.700493 191.6385 
L 156.592467 190.545448 
L 160.48444 189.262408 
L 164.376414 187.781162 
L 168.268388 186.096572 
L 172.160361 184.20383 
L 176.052335 182.088547 
L 179.944309 179.696025 
L 183.836282 176.831138 
L 187.728256 172.741793 
L 191.62023 160.685686 
" clip-path="url(#p5c5ac3876a)" style="fill: none; stroke: #2ca02c; stroke-opacity: 0.9; stroke-width: 3; stroke-linecap: square"/>
   </g>
   <g id="line2d_21">
    <path d="M 94.320888 158.121873 
L 98.212862 158.262369 
L 102.104835 158.683448 
L 105.996809 159.383917 
L 109.888783 160.3614 
L 113.780756 161.611669 
L 117.67273 163.127685 
L 121.564704 164.89835 
L 125.456677 166.906978 
L 129.348651 169.129643 
L 133.240625 171.533666 
L 137.132598 174.076763 
L 141.024572 176.707401 
L 144.916546 179.366837 
L 148.808519 181.99275 
L 152.700493 184.523716 
L 156.592467 186.90329 
L 160.48444 189.082619 
L 164.376414 191.021129 
L 168.268388 192.685578 
L 172.160361 194.04821 
L 176.052335 195.084719 
L 179.944309 195.772631 
L 183.836282 196.090428 
L 187.728256 196.017656 
L 191.62023 195.536171 
L 195.512203 194.632678 
L 199.404177 193.302675 
L 203.296151 191.555636 
L 207.188124 189.420411 
L 211.080098 186.94692 
L 214.972072 184.190242 
L 218.864045 181.122243 
L 222.756019 177.170567 
L 226.647993 160.685686 
" clip-path="url(#p5c5ac3876a)" style="fill: none; stroke: #d62728; stroke-opacity: 0.9; stroke-width: 3; stroke-linecap: square"/>
   </g>
   <g id="line2d_22">
    <path d="M 94.320888 86.176075 
L 98.212862 86.252452 
L 102.104835 86.482676 
L 105.996809 86.86943 
L 109.888783 87.416887 
L 113.780756 88.130744 
L 117.67273 89.018258 
L 121.564704 90.088295 
L 125.456677 91.35138 
L 129.348651 92.819756 
L 133.240625 94.50744 
L 137.132598 96.430285 
L 141.024572 98.606026 
L 144.916546 101.054326 
L 148.808519 103.796787 
L 152.700493 106.856949 
L 156.592467 110.260219 
L 160.48444 114.033729 
L 164.376414 118.206033 
L 168.268388 122.806502 
L 172.160361 127.864089 
L 176.052335 133.404687 
L 179.944309 139.445353 
L 183.836282 145.981616 
L 187.728256 152.961062 
L 191.62023 160.237443 
L 195.512203 167.523964 
L 199.404177 174.417932 
L 203.296151 180.540924 
L 207.188124 185.6747 
L 211.080098 189.767632 
L 214.972072 192.859186 
L 218.864045 195.012362 
L 222.756019 196.281136 
L 226.647993 196.703584 
L 230.539966 196.308904 
L 234.43194 195.13229 
L 238.323914 193.235441 
L 242.215887 190.730459 
L 246.107861 187.79693 
L 249.999835 184.642454 
L 253.891808 181.107255 
L 257.783782 160.685686 
" clip-path="url(#p5c5ac3876a)" style="fill: none; stroke: #9467bd; stroke-opacity: 0.9; stroke-width: 3; stroke-linecap: square"/>
   </g>
   <g id="line2d_23">
    <path d="M 94.320888 54.043771 
L 98.212862 54.044371 
L 102.104835 54.046725 
L 105.996809 54.052199 
L 109.888783 54.062912 
L 113.780756 54.081763 
L 117.67273 54.112443 
L 121.564704 54.159476 
L 125.456677 54.228241 
L 129.348651 54.325025 
L 133.240625 54.457067 
L 137.132598 54.632622 
L 141.024572 54.861027 
L 144.916546 55.152785 
L 148.808519 55.519659 
L 152.700493 55.974788 
L 156.592467 56.532813 
L 160.48444 57.210032 
L 164.376414 58.024579 
L 168.268388 58.996635 
L 172.160361 60.148667 
L 176.052335 61.505707 
L 179.944309 63.095663 
L 183.836282 64.949668 
L 187.728256 67.102442 
L 191.62023 69.592654 
L 195.512203 72.463255 
L 199.404177 75.761724 
L 203.296151 79.540166 
L 207.188124 83.855209 
L 211.080098 88.767624 
L 214.972072 94.34166 
L 218.864045 100.644112 
L 222.756019 107.7432 
L 226.647993 115.707319 
L 230.539966 124.60319 
L 234.43194 134.489848 
L 238.323914 145.38638 
L 242.215887 157.098343 
L 246.107861 168.716878 
L 249.999835 178.741937 
L 253.891808 186.394328 
L 257.783782 191.777955 
L 261.675756 195.237717 
L 265.567729 197.053042 
L 269.459703 197.409868 
L 273.351677 196.457379 
L 277.24365 194.387232 
L 281.135624 191.523613 
L 285.027598 188.394453 
L 288.919571 185.536029 
L 292.811545 160.685686 
" clip-path="url(#p5c5ac3876a)" style="fill: none; stroke: #8c564b; stroke-opacity: 0.9; stroke-width: 3; stroke-linecap: square"/>
   </g>
   <g id="line2d_24">
    <path d="M 94.320888 75.684915 
L 98.212862 75.639736 
L 102.104835 75.504469 
L 105.996809 75.279784 
L 109.888783 74.966725 
L 113.780756 74.566716 
L 117.67273 74.081576 
L 121.564704 73.513535 
L 125.456677 72.865248 
L 129.348651 72.139823 
L 133.240625 71.34084 
L 137.132598 70.472384 
L 141.024572 69.539073 
L 144.916546 68.546097 
L 148.808519 67.499257 
L 152.700493 66.405007 
L 156.592467 65.270506 
L 160.48444 64.103672 
L 164.376414 62.913239 
L 168.268388 61.708821 
L 172.160361 60.500989 
L 176.052335 59.301347 
L 179.944309 58.122619 
L 183.836282 56.97875 
L 187.728256 55.885009 
L 191.62023 54.858114 
L 195.512203 53.91637 
L 199.404177 53.079822 
L 203.296151 52.370435 
L 207.188124 51.812307 
L 211.080098 51.431914 
L 214.972072 51.258413 
L 218.864045 51.324012 
L 222.756019 51.664438 
L 226.647993 52.319525 
L 230.539966 53.333981 
L 234.43194 54.758352 
L 238.323914 56.650238 
L 242.215887 59.075727 
L 246.107861 62.110964 
L 249.999835 65.84359 
L 253.891808 70.373599 
L 257.783782 75.812998 
L 261.675756 82.283641 
L 265.567729 89.913024 
L 269.459703 98.828564 
L 273.351677 109.151851 
L 277.24365 120.994926 
L 281.135624 134.460618 
L 285.027598 149.648486 
L 288.919571 165.849974 
L 292.811545 179.377844 
L 296.703519 188.660196 
L 300.595492 194.426904 
L 304.487466 197.485052 
L 308.37944 198.325909 
L 312.271413 197.308194 
L 316.163387 194.907662 
L 320.055361 191.988783 
L 323.947334 189.964803 
L 327.839308 160.685686 
" clip-path="url(#p5c5ac3876a)" style="fill: none; stroke: #e377c2; stroke-opacity: 0.9; stroke-width: 3; stroke-linecap: square"/>
   </g>
   <g id="line2d_25">
    <path d="M 94.320888 132.146798 
L 98.212862 132.081525 
L 102.104835 131.885775 
L 105.996809 131.559719 
L 109.888783 131.103629 
L 113.780756 130.51788 
L 117.67273 129.80297 
L 121.564704 128.959521 
L 125.456677 127.988302 
L 129.348651 126.890243 
L 133.240625 125.666457 
L 137.132598 124.318261 
L 141.024572 122.8472 
L 144.916546 121.25508 
L 148.808519 119.543993 
L 152.700493 117.716354 
L 156.592467 115.774936 
L 160.48444 113.72291 
L 164.376414 111.563887 
L 168.268388 109.301965 
L 172.160361 106.941773 
L 176.052335 104.488532 
L 179.944309 101.948102 
L 183.836282 99.327049 
L 187.728256 96.632706 
L 191.62023 93.873245 
L 195.512203 91.057749 
L 199.404177 88.19629 
L 203.296151 85.300023 
L 207.188124 82.381269 
L 211.080098 79.453624 
L 214.972072 76.532065 
L 218.864045 73.633071 
L 222.756019 70.774753 
L 226.647993 67.977001 
L 230.539966 65.261641 
L 234.43194 62.652618 
L 238.323914 60.17619 
L 242.215887 57.861159 
L 246.107861 55.739126 
L 249.999835 53.84479 
L 253.891808 52.216297 
L 257.783782 50.89566 
L 261.675756 49.929269 
L 265.567729 49.368552 
L 269.459703 49.270848 
L 273.351677 49.700618 
L 277.24365 50.731188 
L 281.135624 52.447266 
L 285.027598 54.948448 
L 288.919571 58.353709 
L 292.811545 62.806131 
L 296.703519 68.475933 
L 300.595492 75.558666 
L 304.487466 84.265715 
L 308.37944 94.807458 
L 312.271413 107.374736 
L 316.163387 122.127716 
L 320.055361 139.199729 
L 323.947334 158.719485 
L 327.839308 176.820291 
L 331.731282 188.582535 
L 335.623255 195.392065 
L 339.515229 198.66481 
L 343.407203 199.175767 
L 347.299176 197.593113 
L 351.19115 195.072443 
L 355.083124 193.901491 
L 358.975097 160.685686 
" clip-path="url(#p5c5ac3876a)" style="fill: none; stroke: #7f7f7f; stroke-opacity: 0.9; stroke-width: 3; stroke-linecap: square"/>
   </g>
   <g id="line2d_26">
    <path d="M 94.320888 215.941943 
L 98.212862 215.882679 
L 102.104835 215.704732 
L 105.996809 215.407724 
L 109.888783 214.991072 
L 113.780756 214.453999 
L 117.67273 213.795536 
L 121.564704 213.014535 
L 125.456677 212.109677 
L 129.348651 211.079491 
L 133.240625 209.922363 
L 137.132598 208.636563 
L 141.024572 207.220259 
L 144.916546 205.671544 
L 148.808519 203.988464 
L 152.700493 202.169044 
L 156.592467 200.211324 
L 160.48444 198.113393 
L 164.376414 195.873425 
L 168.268388 193.489725 
L 172.160361 190.960771 
L 176.052335 188.285262 
L 179.944309 185.462166 
L 183.836282 182.490777 
L 187.728256 179.370771 
L 191.62023 176.10226 
L 195.512203 172.685858 
L 199.404177 169.122744 
L 203.296151 165.414729 
L 207.188124 161.564322 
L 211.080098 157.574806 
L 214.972072 153.450311 
L 218.864045 149.195892 
L 222.756019 144.817609 
L 226.647993 140.322612 
L 230.539966 135.71923 
L 234.43194 131.017064 
L 238.323914 126.227087 
L 242.215887 121.361744 
L 246.107861 116.435071 
L 249.999835 111.462811 
L 253.891808 106.462545 
L 257.783782 101.453836 
L 261.675756 96.458381 
L 265.567729 91.500184 
L 269.459703 86.605744 
L 273.351677 81.804267 
L 277.24365 77.1279 
L 281.135624 72.611997 
L 285.027598 68.295422 
L 288.919571 64.220895 
L 292.811545 60.435387 
L 296.703519 56.990588 
L 300.595492 53.943458 
L 304.487466 51.356879 
L 308.37944 49.300472 
L 312.271413 47.851622 
L 316.163387 47.096847 
L 320.055361 47.133789 
L 323.947334 48.074372 
L 327.839308 50.050163 
L 331.731282 53.221341 
L 335.623255 57.789828 
L 339.515229 64.013084 
L 343.407203 72.207483 
L 347.299176 82.726438 
L 351.19115 95.911474 
L 355.083124 112.041293 
L 358.975097 131.315413 
L 362.867071 153.890817 
L 366.759045 176.651261 
L 370.651018 190.152797 
L 374.542992 197.356057 
L 378.434966 200.328559 
L 382.326939 200.188547 
L 386.218913 198.417497 
L 390.110887 198.330265 
L 394.00286 160.685686 
" clip-path="url(#p5c5ac3876a)" style="fill: none; stroke: #bcbd22; stroke-opacity: 0.9; stroke-width: 3; stroke-linecap: square"/>
   </g>
   <g id="line2d_27">
    <path d="M 94.320888 274.892727 
L 98.212862 274.863298 
L 102.104835 274.774804 
L 105.996809 274.62674 
L 109.888783 274.418321 
L 113.780756 274.148481 
L 117.67273 273.815865 
L 121.564704 273.418827 
L 125.456677 272.955421 
L 129.348651 272.423397 
L 133.240625 271.820194 
L 137.132598 271.142931 
L 141.024572 270.388405 
L 144.916546 269.553082 
L 148.808519 268.633093 
L 152.700493 267.624234 
L 156.592467 266.521961 
L 160.48444 265.321399 
L 164.376414 264.01734 
L 168.268388 262.604261 
L 172.160361 261.076333 
L 176.052335 259.427448 
L 179.944309 257.651241 
L 183.836282 255.741128 
L 187.728256 253.690345 
L 191.62023 251.492004 
L 195.512203 249.139147 
L 199.404177 246.624814 
L 203.296151 243.942124 
L 207.188124 241.084353 
L 211.080098 238.045031 
L 214.972072 234.818038 
L 218.864045 231.397711 
L 222.756019 227.778953 
L 226.647993 223.957345 
L 230.539966 219.929265 
L 234.43194 215.691999 
L 238.323914 211.24386 
L 242.215887 206.584304 
L 246.107861 201.714039 
L 249.999835 196.635135 
L 253.891808 191.351136 
L 257.783782 185.867155 
L 261.675756 180.189987 
L 265.567729 174.328201 
L 269.459703 168.292248 
L 273.351677 162.09456 
L 277.24365 155.749658 
L 281.135624 149.274268 
L 285.027598 142.687434 
L 288.919571 136.010659 
L 292.811545 129.268041 
L 296.703519 122.486443 
L 300.595492 115.695669 
L 304.487466 108.928674 
L 308.37944 102.221795 
L 312.271413 95.615023 
L 316.163387 89.152306 
L 320.055361 82.881905 
L 323.947334 76.856803 
L 327.839308 71.135177 
L 331.731282 65.78096 
L 335.623255 60.864493 
L 339.515229 56.463315 
L 343.407203 52.663115 
L 347.299176 49.558907 
L 351.19115 47.256523 
L 355.083124 45.874582 
L 358.975097 45.547273 
L 362.867071 46.428891 
L 366.759045 48.702608 
L 370.651018 52.598433 
L 374.542992 58.42409 
L 378.434966 66.596577 
L 382.326939 77.632511 
L 386.218913 92.060512 
L 390.110887 110.299943 
L 394.00286 132.613125 
L 397.894834 159.184837 
L 401.786808 182.301093 
L 405.678781 194.505024 
L 409.570755 200.406909 
L 413.462729 202.054891 
L 417.354702 201.269542 
L 421.246676 202.266953 
L 425.13865 160.685686 
" clip-path="url(#p5c5ac3876a)" style="fill: none; stroke: #17becf; stroke-opacity: 0.9; stroke-width: 3; stroke-linecap: square"/>
   </g>
   <g id="patch_3">
    <path d="M 77.78 286.36 
L 77.78 34.08 
" style="fill: none; stroke: #000000; stroke-width: 0.8; stroke-linejoin: miter; stroke-linecap: square"/>
   </g>
   <g id="patch_4">
    <path d="M 441.679538 286.36 
L 441.679538 34.08 
" style="fill: none; stroke: #000000; stroke-width: 0.8; stroke-linejoin: miter; stroke-linecap: square"/>
   </g>
   <g id="patch_5">
    <path d="M 77.78 286.36 
L 441.679538 286.36 
" style="fill: none; stroke: #000000; stroke-width: 0.8; stroke-linejoin: miter; stroke-linecap: square"/>
   </g>
   <g id="patch_6">
    <path d="M 77.78 34.08 
L 441.679538 34.08 
" style="fill: none; stroke: #000000; stroke-width: 0.8; stroke-linejoin: miter; stroke-linecap: square"/>
   </g>
   <g id="text_15">
    <!-- ASP -->
    <g transform="translate(246.276644 28.08) scale(0.14 -0.14)">
     <defs>
      <path id="DejaVuSans-41" d="M 2188 4044 
L 1331 1722 
L 3047 1722 
L 2188 4044 
z
M 1831 4666 
L 2547 4666 
L 4325 0 
L 3669 0 
L 3244 1197 
L 1141 1197 
L 716 0 
L 50 0 
L 1831 4666 
z
" transform="scale(0.015625)"/>
      <path id="DejaVuSans-53" d="M 3425 4513 
L 3425 3897 
Q 3066 4069 2747 4153 
Q 2428 4238 2131 4238 
Q 1616 4238 1336 4038 
Q 1056 3838 1056 3469 
Q 1056 3159 1242 3001 
Q 1428 2844 1947 2747 
L 2328 2669 
Q 3034 2534 3370 2195 
Q 3706 1856 3706 1288 
Q 3706 609 3251 259 
Q 2797 -91 1919 -91 
Q 1588 -91 1214 -16 
Q 841 59 441 206 
L 441 856 
Q 825 641 1194 531 
Q 1563 422 1919 422 
Q 2459 422 2753 634 
Q 3047 847 3047 1241 
Q 3047 1584 2836 1778 
Q 2625 1972 2144 2069 
L 1759 2144 
Q 1053 2284 737 2584 
Q 422 2884 422 3419 
Q 422 4038 858 4394 
Q 1294 4750 2059 4750 
Q 2388 4750 2728 4690 
Q 3069 4631 3425 4513 
z
" transform="scale(0.015625)"/>
      <path id="DejaVuSans-50" d="M 1259 4147 
L 1259 2394 
L 2053 2394 
Q 2494 2394 2734 2622 
Q 2975 2850 2975 3272 
Q 2975 3691 2734 3919 
Q 2494 4147 2053 4147 
L 1259 4147 
z
M 628 4666 
L 2053 4666 
Q 2838 4666 3239 4311 
Q 3641 3956 3641 3272 
Q 3641 2581 3239 2228 
Q 2838 1875 2053 1875 
L 1259 1875 
L 1259 0 
L 628 0 
L 628 4666 
z
" transform="scale(0.015625)"/>
     </defs>
     <use xlink:href="#DejaVuSans-41"/>
     <use xlink:href="#DejaVuSans-53" x="68.408203"/>
     <use xlink:href="#DejaVuSans-50" x="131.884766"/>
    </g>
   </g>
  </g>
 </g>
 <defs>
  <clipPath id="p5c5ac3876a">
   <rect x="77.78" y="34.08" width="363.899538" height="252.28"/>
  </clipPath>
 </defs>
</svg>
