<?xml version="1.0" encoding="utf-8" standalone="no"?>
<!DOCTYPE svg PUBLIC "-//W3C//DTD SVG 1.1//EN"
  "http://www.w3.org/Graphics/SVG/1.1/DTD/svg11.dtd">
<svg xmlns:xlink="http://www.w3.org/1999/xlink" width="460.8pt" height="345.6pt" viewBox="0 0 460.8 345.6" xmlns="http://www.w3.org/2000/svg" version="1.1">
 <metadata>
  <rdf:RDF xmlns:dc="http://purl.org/dc/elements/1.1/" xmlns:cc="http://creativecommons.org/ns#" xmlns:rdf="http://www.w3.org/1999/02/22-rdf-syntax-ns#">
   <cc:Work>
    <dc:type rdf:resource="http://purl.org/dc/dcmitype/StillImage"/>
    <dc:date>2023-03-17T16:26:50.102997</dc:date>
    <dc:format>image/svg+xml</dc:format>
    <dc:creator>
     <cc:Agent>
      <dc:title>Matplotlib v3.6.2, https://matplotlib.org/</dc:title>
     </cc:Agent>
    </dc:creator>
   </cc:Work>
  </rdf:RDF>
 </metadata>
 <defs>
  <style type="text/css">*{stroke-linejoin: round; stroke-linecap: butt}</style>
 </defs>
 <g id="figure_1">
  <g id="patch_1">
   <path d="M 0 345.6 
L 460.8 345.6 
L 460.8 0 
L 0 0 
z
" style="fill: #ffffff"/>
  </g>
  <g id="axes_1">
   <g id="patch_2">
    <path d="M 70.22 297.16 
L 450 297.16 
L 450 27.6 
L 70.22 27.6 
z
" style="fill: #ffffff"/>
   </g>
   <g id="matplotlib.axis_1">
    <g id="xtick_1">
     <g id="line2d_1">
      <defs>
       <path id="mdb1519a6f2" d="M 0 0 
L 0 3.5 
" style="stroke: #000000; stroke-width: 0.8"/>
      </defs>
      <g>
       <use xlink:href="#mdb1519a6f2" x="87.482727" y="297.16" style="stroke: #000000; stroke-width: 0.8"/>
      </g>
     </g>
     <g id="text_1">
      <!-- 0 -->
      <g transform="translate(84.301477 311.758438) scale(0.1 -0.1)">
       <defs>
        <path id="DejaVuSans-30" d="M 2034 4250 
Q 1547 4250 1301 3770 
Q 1056 3291 1056 2328 
Q 1056 1369 1301 889 
Q 1547 409 2034 409 
Q 2525 409 2770 889 
Q 3016 1369 3016 2328 
Q 3016 3291 2770 3770 
Q 2525 4250 2034 4250 
z
M 2034 4750 
Q 2819 4750 3233 4129 
Q 3647 3509 3647 2328 
Q 3647 1150 3233 529 
Q 2819 -91 2034 -91 
Q 1250 -91 836 529 
Q 422 1150 422 2328 
Q 422 3509 836 4129 
Q 1250 4750 2034 4750 
z
" transform="scale(0.015625)"/>
       </defs>
       <use xlink:href="#DejaVuSans-30"/>
      </g>
     </g>
    </g>
    <g id="xtick_2">
     <g id="line2d_2">
      <g>
       <use xlink:href="#mdb1519a6f2" x="145.508701" y="297.16" style="stroke: #000000; stroke-width: 0.8"/>
      </g>
     </g>
     <g id="text_2">
      <!-- 100 -->
      <g transform="translate(135.964951 311.758438) scale(0.1 -0.1)">
       <defs>
        <path id="DejaVuSans-31" d="M 794 531 
L 1825 531 
L 1825 4091 
L 703 3866 
L 703 4441 
L 1819 4666 
L 2450 4666 
L 2450 531 
L 3481 531 
L 3481 0 
L 794 0 
L 794 531 
z
" transform="scale(0.015625)"/>
       </defs>
       <use xlink:href="#DejaVuSans-31"/>
       <use xlink:href="#DejaVuSans-30" x="63.623047"/>
       <use xlink:href="#DejaVuSans-30" x="127.246094"/>
      </g>
     </g>
    </g>
    <g id="xtick_3">
     <g id="line2d_3">
      <g>
       <use xlink:href="#mdb1519a6f2" x="203.534675" y="297.16" style="stroke: #000000; stroke-width: 0.8"/>
      </g>
     </g>
     <g id="text_3">
      <!-- 200 -->
      <g transform="translate(193.990925 311.758438) scale(0.1 -0.1)">
       <defs>
        <path id="DejaVuSans-32" d="M 1228 531 
L 3431 531 
L 3431 0 
L 469 0 
L 469 531 
Q 828 903 1448 1529 
Q 2069 2156 2228 2338 
Q 2531 2678 2651 2914 
Q 2772 3150 2772 3378 
Q 2772 3750 2511 3984 
Q 2250 4219 1831 4219 
Q 1534 4219 1204 4116 
Q 875 4013 500 3803 
L 500 4441 
Q 881 4594 1212 4672 
Q 1544 4750 1819 4750 
Q 2544 4750 2975 4387 
Q 3406 4025 3406 3419 
Q 3406 3131 3298 2873 
Q 3191 2616 2906 2266 
Q 2828 2175 2409 1742 
Q 1991 1309 1228 531 
z
" transform="scale(0.015625)"/>
       </defs>
       <use xlink:href="#DejaVuSans-32"/>
       <use xlink:href="#DejaVuSans-30" x="63.623047"/>
       <use xlink:href="#DejaVuSans-30" x="127.246094"/>
      </g>
     </g>
    </g>
    <g id="xtick_4">
     <g id="line2d_4">
      <g>
       <use xlink:href="#mdb1519a6f2" x="261.560649" y="297.16" style="stroke: #000000; stroke-width: 0.8"/>
      </g>
     </g>
     <g id="text_4">
      <!-- 300 -->
      <g transform="translate(252.016899 311.758438) scale(0.1 -0.1)">
       <defs>
        <path id="DejaVuSans-33" d="M 2597 2516 
Q 3050 2419 3304 2112 
Q 3559 1806 3559 1356 
Q 3559 666 3084 287 
Q 2609 -91 1734 -91 
Q 1441 -91 1130 -33 
Q 819 25 488 141 
L 488 750 
Q 750 597 1062 519 
Q 1375 441 1716 441 
Q 2309 441 2620 675 
Q 2931 909 2931 1356 
Q 2931 1769 2642 2001 
Q 2353 2234 1838 2234 
L 1294 2234 
L 1294 2753 
L 1863 2753 
Q 2328 2753 2575 2939 
Q 2822 3125 2822 3475 
Q 2822 3834 2567 4026 
Q 2313 4219 1838 4219 
Q 1578 4219 1281 4162 
Q 984 4106 628 3988 
L 628 4550 
Q 988 4650 1302 4700 
Q 1616 4750 1894 4750 
Q 2613 4750 3031 4423 
Q 3450 4097 3450 3541 
Q 3450 3153 3228 2886 
Q 3006 2619 2597 2516 
z
" transform="scale(0.015625)"/>
       </defs>
       <use xlink:href="#DejaVuSans-33"/>
       <use xlink:href="#DejaVuSans-30" x="63.623047"/>
       <use xlink:href="#DejaVuSans-30" x="127.246094"/>
      </g>
     </g>
    </g>
    <g id="xtick_5">
     <g id="line2d_5">
      <g>
       <use xlink:href="#mdb1519a6f2" x="319.586623" y="297.16" style="stroke: #000000; stroke-width: 0.8"/>
      </g>
     </g>
     <g id="text_5">
      <!-- 400 -->
      <g transform="translate(310.042873 311.758438) scale(0.1 -0.1)">
       <defs>
        <path id="DejaVuSans-34" d="M 2419 4116 
L 825 1625 
L 2419 1625 
L 2419 4116 
z
M 2253 4666 
L 3047 4666 
L 3047 1625 
L 3713 1625 
L 3713 1100 
L 3047 1100 
L 3047 0 
L 2419 0 
L 2419 1100 
L 313 1100 
L 313 1709 
L 2253 4666 
z
" transform="scale(0.015625)"/>
       </defs>
       <use xlink:href="#DejaVuSans-34"/>
       <use xlink:href="#DejaVuSans-30" x="63.623047"/>
       <use xlink:href="#DejaVuSans-30" x="127.246094"/>
      </g>
     </g>
    </g>
    <g id="xtick_6">
     <g id="line2d_6">
      <g>
       <use xlink:href="#mdb1519a6f2" x="377.612597" y="297.16" style="stroke: #000000; stroke-width: 0.8"/>
      </g>
     </g>
     <g id="text_6">
      <!-- 500 -->
      <g transform="translate(368.068847 311.758438) scale(0.1 -0.1)">
       <defs>
        <path id="DejaVuSans-35" d="M 691 4666 
L 3169 4666 
L 3169 4134 
L 1269 4134 
L 1269 2991 
Q 1406 3038 1543 3061 
Q 1681 3084 1819 3084 
Q 2600 3084 3056 2656 
Q 3513 2228 3513 1497 
Q 3513 744 3044 326 
Q 2575 -91 1722 -91 
Q 1428 -91 1123 -41 
Q 819 9 494 109 
L 494 744 
Q 775 591 1075 516 
Q 1375 441 1709 441 
Q 2250 441 2565 725 
Q 2881 1009 2881 1497 
Q 2881 1984 2565 2268 
Q 2250 2553 1709 2553 
Q 1456 2553 1204 2497 
Q 953 2441 691 2322 
L 691 4666 
z
" transform="scale(0.015625)"/>
       </defs>
       <use xlink:href="#DejaVuSans-35"/>
       <use xlink:href="#DejaVuSans-30" x="63.623047"/>
       <use xlink:href="#DejaVuSans-30" x="127.246094"/>
      </g>
     </g>
    </g>
    <g id="xtick_7">
     <g id="line2d_7">
      <g>
       <use xlink:href="#mdb1519a6f2" x="435.638571" y="297.16" style="stroke: #000000; stroke-width: 0.8"/>
      </g>
     </g>
     <g id="text_7">
      <!-- 600 -->
      <g transform="translate(426.094821 311.758438) scale(0.1 -0.1)">
       <defs>
        <path id="DejaVuSans-36" d="M 2113 2584 
Q 1688 2584 1439 2293 
Q 1191 2003 1191 1497 
Q 1191 994 1439 701 
Q 1688 409 2113 409 
Q 2538 409 2786 701 
Q 3034 994 3034 1497 
Q 3034 2003 2786 2293 
Q 2538 2584 2113 2584 
z
M 3366 4563 
L 3366 3988 
Q 3128 4100 2886 4159 
Q 2644 4219 2406 4219 
Q 1781 4219 1451 3797 
Q 1122 3375 1075 2522 
Q 1259 2794 1537 2939 
Q 1816 3084 2150 3084 
Q 2853 3084 3261 2657 
Q 3669 2231 3669 1497 
Q 3669 778 3244 343 
Q 2819 -91 2113 -91 
Q 1303 -91 875 529 
Q 447 1150 447 2328 
Q 447 3434 972 4092 
Q 1497 4750 2381 4750 
Q 2619 4750 2861 4703 
Q 3103 4656 3366 4563 
z
" transform="scale(0.015625)"/>
       </defs>
       <use xlink:href="#DejaVuSans-36"/>
       <use xlink:href="#DejaVuSans-30" x="63.623047"/>
       <use xlink:href="#DejaVuSans-30" x="127.246094"/>
      </g>
     </g>
    </g>
    <g id="text_8">
     <!-- Distance from Center $(\mu m)$ -->
     <g transform="translate(166.03 328.478125) scale(0.14 -0.14)">
      <defs>
       <path id="DejaVuSans-44" d="M 1259 4147 
L 1259 519 
L 2022 519 
Q 2988 519 3436 956 
Q 3884 1394 3884 2338 
Q 3884 3275 3436 3711 
Q 2988 4147 2022 4147 
L 1259 4147 
z
M 628 4666 
L 1925 4666 
Q 3281 4666 3915 4102 
Q 4550 3538 4550 2338 
Q 4550 1131 3912 565 
Q 3275 0 1925 0 
L 628 0 
L 628 4666 
z
" transform="scale(0.015625)"/>
       <path id="DejaVuSans-69" d="M 603 3500 
L 1178 3500 
L 1178 0 
L 603 0 
L 603 3500 
z
M 603 4863 
L 1178 4863 
L 1178 4134 
L 603 4134 
L 603 4863 
z
" transform="scale(0.015625)"/>
       <path id="DejaVuSans-73" d="M 2834 3397 
L 2834 2853 
Q 2591 2978 2328 3040 
Q 2066 3103 1784 3103 
Q 1356 3103 1142 2972 
Q 928 2841 928 2578 
Q 928 2378 1081 2264 
Q 1234 2150 1697 2047 
L 1894 2003 
Q 2506 1872 2764 1633 
Q 3022 1394 3022 966 
Q 3022 478 2636 193 
Q 2250 -91 1575 -91 
Q 1294 -91 989 -36 
Q 684 19 347 128 
L 347 722 
Q 666 556 975 473 
Q 1284 391 1588 391 
Q 1994 391 2212 530 
Q 2431 669 2431 922 
Q 2431 1156 2273 1281 
Q 2116 1406 1581 1522 
L 1381 1569 
Q 847 1681 609 1914 
Q 372 2147 372 2553 
Q 372 3047 722 3315 
Q 1072 3584 1716 3584 
Q 2034 3584 2315 3537 
Q 2597 3491 2834 3397 
z
" transform="scale(0.015625)"/>
       <path id="DejaVuSans-74" d="M 1172 4494 
L 1172 3500 
L 2356 3500 
L 2356 3053 
L 1172 3053 
L 1172 1153 
Q 1172 725 1289 603 
Q 1406 481 1766 481 
L 2356 481 
L 2356 0 
L 1766 0 
Q 1100 0 847 248 
Q 594 497 594 1153 
L 594 3053 
L 172 3053 
L 172 3500 
L 594 3500 
L 594 4494 
L 1172 4494 
z
" transform="scale(0.015625)"/>
       <path id="DejaVuSans-61" d="M 2194 1759 
Q 1497 1759 1228 1600 
Q 959 1441 959 1056 
Q 959 750 1161 570 
Q 1363 391 1709 391 
Q 2188 391 2477 730 
Q 2766 1069 2766 1631 
L 2766 1759 
L 2194 1759 
z
M 3341 1997 
L 3341 0 
L 2766 0 
L 2766 531 
Q 2569 213 2275 61 
Q 1981 -91 1556 -91 
Q 1019 -91 701 211 
Q 384 513 384 1019 
Q 384 1609 779 1909 
Q 1175 2209 1959 2209 
L 2766 2209 
L 2766 2266 
Q 2766 2663 2505 2880 
Q 2244 3097 1772 3097 
Q 1472 3097 1187 3025 
Q 903 2953 641 2809 
L 641 3341 
Q 956 3463 1253 3523 
Q 1550 3584 1831 3584 
Q 2591 3584 2966 3190 
Q 3341 2797 3341 1997 
z
" transform="scale(0.015625)"/>
       <path id="DejaVuSans-6e" d="M 3513 2113 
L 3513 0 
L 2938 0 
L 2938 2094 
Q 2938 2591 2744 2837 
Q 2550 3084 2163 3084 
Q 1697 3084 1428 2787 
Q 1159 2491 1159 1978 
L 1159 0 
L 581 0 
L 581 3500 
L 1159 3500 
L 1159 2956 
Q 1366 3272 1645 3428 
Q 1925 3584 2291 3584 
Q 2894 3584 3203 3211 
Q 3513 2838 3513 2113 
z
" transform="scale(0.015625)"/>
       <path id="DejaVuSans-63" d="M 3122 3366 
L 3122 2828 
Q 2878 2963 2633 3030 
Q 2388 3097 2138 3097 
Q 1578 3097 1268 2742 
Q 959 2388 959 1747 
Q 959 1106 1268 751 
Q 1578 397 2138 397 
Q 2388 397 2633 464 
Q 2878 531 3122 666 
L 3122 134 
Q 2881 22 2623 -34 
Q 2366 -91 2075 -91 
Q 1284 -91 818 406 
Q 353 903 353 1747 
Q 353 2603 823 3093 
Q 1294 3584 2113 3584 
Q 2378 3584 2631 3529 
Q 2884 3475 3122 3366 
z
" transform="scale(0.015625)"/>
       <path id="DejaVuSans-65" d="M 3597 1894 
L 3597 1613 
L 953 1613 
Q 991 1019 1311 708 
Q 1631 397 2203 397 
Q 2534 397 2845 478 
Q 3156 559 3463 722 
L 3463 178 
Q 3153 47 2828 -22 
Q 2503 -91 2169 -91 
Q 1331 -91 842 396 
Q 353 884 353 1716 
Q 353 2575 817 3079 
Q 1281 3584 2069 3584 
Q 2775 3584 3186 3129 
Q 3597 2675 3597 1894 
z
M 3022 2063 
Q 3016 2534 2758 2815 
Q 2500 3097 2075 3097 
Q 1594 3097 1305 2825 
Q 1016 2553 972 2059 
L 3022 2063 
z
" transform="scale(0.015625)"/>
       <path id="DejaVuSans-20" transform="scale(0.015625)"/>
       <path id="DejaVuSans-66" d="M 2375 4863 
L 2375 4384 
L 1825 4384 
Q 1516 4384 1395 4259 
Q 1275 4134 1275 3809 
L 1275 3500 
L 2222 3500 
L 2222 3053 
L 1275 3053 
L 1275 0 
L 697 0 
L 697 3053 
L 147 3053 
L 147 3500 
L 697 3500 
L 697 3744 
Q 697 4328 969 4595 
Q 1241 4863 1831 4863 
L 2375 4863 
z
" transform="scale(0.015625)"/>
       <path id="DejaVuSans-72" d="M 2631 2963 
Q 2534 3019 2420 3045 
Q 2306 3072 2169 3072 
Q 1681 3072 1420 2755 
Q 1159 2438 1159 1844 
L 1159 0 
L 581 0 
L 581 3500 
L 1159 3500 
L 1159 2956 
Q 1341 3275 1631 3429 
Q 1922 3584 2338 3584 
Q 2397 3584 2469 3576 
Q 2541 3569 2628 3553 
L 2631 2963 
z
" transform="scale(0.015625)"/>
       <path id="DejaVuSans-6f" d="M 1959 3097 
Q 1497 3097 1228 2736 
Q 959 2375 959 1747 
Q 959 1119 1226 758 
Q 1494 397 1959 397 
Q 2419 397 2687 759 
Q 2956 1122 2956 1747 
Q 2956 2369 2687 2733 
Q 2419 3097 1959 3097 
z
M 1959 3584 
Q 2709 3584 3137 3096 
Q 3566 2609 3566 1747 
Q 3566 888 3137 398 
Q 2709 -91 1959 -91 
Q 1206 -91 779 398 
Q 353 888 353 1747 
Q 353 2609 779 3096 
Q 1206 3584 1959 3584 
z
" transform="scale(0.015625)"/>
       <path id="DejaVuSans-6d" d="M 3328 2828 
Q 3544 3216 3844 3400 
Q 4144 3584 4550 3584 
Q 5097 3584 5394 3201 
Q 5691 2819 5691 2113 
L 5691 0 
L 5113 0 
L 5113 2094 
Q 5113 2597 4934 2840 
Q 4756 3084 4391 3084 
Q 3944 3084 3684 2787 
Q 3425 2491 3425 1978 
L 3425 0 
L 2847 0 
L 2847 2094 
Q 2847 2600 2669 2842 
Q 2491 3084 2119 3084 
Q 1678 3084 1418 2786 
Q 1159 2488 1159 1978 
L 1159 0 
L 581 0 
L 581 3500 
L 1159 3500 
L 1159 2956 
Q 1356 3278 1631 3431 
Q 1906 3584 2284 3584 
Q 2666 3584 2933 3390 
Q 3200 3197 3328 2828 
z
" transform="scale(0.015625)"/>
       <path id="DejaVuSans-43" d="M 4122 4306 
L 4122 3641 
Q 3803 3938 3442 4084 
Q 3081 4231 2675 4231 
Q 1875 4231 1450 3742 
Q 1025 3253 1025 2328 
Q 1025 1406 1450 917 
Q 1875 428 2675 428 
Q 3081 428 3442 575 
Q 3803 722 4122 1019 
L 4122 359 
Q 3791 134 3420 21 
Q 3050 -91 2638 -91 
Q 1578 -91 968 557 
Q 359 1206 359 2328 
Q 359 3453 968 4101 
Q 1578 4750 2638 4750 
Q 3056 4750 3426 4639 
Q 3797 4528 4122 4306 
z
" transform="scale(0.015625)"/>
       <path id="DejaVuSans-28" d="M 1984 4856 
Q 1566 4138 1362 3434 
Q 1159 2731 1159 2009 
Q 1159 1288 1364 580 
Q 1569 -128 1984 -844 
L 1484 -844 
Q 1016 -109 783 600 
Q 550 1309 550 2009 
Q 550 2706 781 3412 
Q 1013 4119 1484 4856 
L 1984 4856 
z
" transform="scale(0.015625)"/>
       <path id="DejaVuSans-Oblique-3bc" d="M -84 -1331 
L 856 3500 
L 1434 3500 
L 1009 1322 
Q 997 1256 987 1175 
Q 978 1094 978 1013 
Q 978 722 1161 565 
Q 1344 409 1684 409 
Q 2147 409 2431 671 
Q 2716 934 2816 1459 
L 3213 3500 
L 3788 3500 
L 3266 809 
Q 3253 750 3248 706 
Q 3244 663 3244 628 
Q 3244 531 3283 486 
Q 3322 441 3406 441 
Q 3438 441 3492 456 
Q 3547 472 3647 513 
L 3559 50 
Q 3422 -19 3297 -55 
Q 3172 -91 3053 -91 
Q 2847 -91 2730 40 
Q 2613 172 2613 403 
Q 2438 153 2195 31 
Q 1953 -91 1625 -91 
Q 1334 -91 1117 43 
Q 900 178 831 397 
L 494 -1331 
L -84 -1331 
z
" transform="scale(0.015625)"/>
       <path id="DejaVuSans-Oblique-6d" d="M 5747 2113 
L 5338 0 
L 4763 0 
L 5166 2094 
Q 5191 2228 5203 2325 
Q 5216 2422 5216 2491 
Q 5216 2772 5059 2928 
Q 4903 3084 4622 3084 
Q 4203 3084 3875 2770 
Q 3547 2456 3450 1953 
L 3066 0 
L 2491 0 
L 2900 2094 
Q 2925 2209 2937 2307 
Q 2950 2406 2950 2484 
Q 2950 2769 2794 2926 
Q 2638 3084 2363 3084 
Q 1938 3084 1609 2770 
Q 1281 2456 1184 1953 
L 800 0 
L 225 0 
L 909 3500 
L 1484 3500 
L 1375 2956 
Q 1609 3263 1923 3423 
Q 2238 3584 2597 3584 
Q 2978 3584 3223 3384 
Q 3469 3184 3519 2828 
Q 3781 3197 4126 3390 
Q 4472 3584 4856 3584 
Q 5306 3584 5551 3325 
Q 5797 3066 5797 2591 
Q 5797 2488 5784 2364 
Q 5772 2241 5747 2113 
z
" transform="scale(0.015625)"/>
       <path id="DejaVuSans-29" d="M 513 4856 
L 1013 4856 
Q 1481 4119 1714 3412 
Q 1947 2706 1947 2009 
Q 1947 1309 1714 600 
Q 1481 -109 1013 -844 
L 513 -844 
Q 928 -128 1133 580 
Q 1338 1288 1338 2009 
Q 1338 2731 1133 3434 
Q 928 4138 513 4856 
z
" transform="scale(0.015625)"/>
      </defs>
      <use xlink:href="#DejaVuSans-44" transform="translate(0 0.015625)"/>
      <use xlink:href="#DejaVuSans-69" transform="translate(77.001953 0.015625)"/>
      <use xlink:href="#DejaVuSans-73" transform="translate(104.785156 0.015625)"/>
      <use xlink:href="#DejaVuSans-74" transform="translate(156.884766 0.015625)"/>
      <use xlink:href="#DejaVuSans-61" transform="translate(196.09375 0.015625)"/>
      <use xlink:href="#DejaVuSans-6e" transform="translate(257.373047 0.015625)"/>
      <use xlink:href="#DejaVuSans-63" transform="translate(320.751953 0.015625)"/>
      <use xlink:href="#DejaVuSans-65" transform="translate(375.732422 0.015625)"/>
      <use xlink:href="#DejaVuSans-20" transform="translate(437.255859 0.015625)"/>
      <use xlink:href="#DejaVuSans-66" transform="translate(469.042969 0.015625)"/>
      <use xlink:href="#DejaVuSans-72" transform="translate(504.248047 0.015625)"/>
      <use xlink:href="#DejaVuSans-6f" transform="translate(545.361328 0.015625)"/>
      <use xlink:href="#DejaVuSans-6d" transform="translate(606.542969 0.015625)"/>
      <use xlink:href="#DejaVuSans-20" transform="translate(703.955078 0.015625)"/>
      <use xlink:href="#DejaVuSans-43" transform="translate(735.742188 0.015625)"/>
      <use xlink:href="#DejaVuSans-65" transform="translate(805.566406 0.015625)"/>
      <use xlink:href="#DejaVuSans-6e" transform="translate(867.089844 0.015625)"/>
      <use xlink:href="#DejaVuSans-74" transform="translate(930.46875 0.015625)"/>
      <use xlink:href="#DejaVuSans-65" transform="translate(969.677734 0.015625)"/>
      <use xlink:href="#DejaVuSans-72" transform="translate(1031.201172 0.015625)"/>
      <use xlink:href="#DejaVuSans-20" transform="translate(1072.314453 0.015625)"/>
      <use xlink:href="#DejaVuSans-28" transform="translate(1104.101562 0.015625)"/>
      <use xlink:href="#DejaVuSans-Oblique-3bc" transform="translate(1143.115234 0.015625)"/>
      <use xlink:href="#DejaVuSans-Oblique-6d" transform="translate(1206.738281 0.015625)"/>
      <use xlink:href="#DejaVuSans-29" transform="translate(1304.150391 0.015625)"/>
     </g>
    </g>
   </g>
   <g id="matplotlib.axis_2">
    <g id="ytick_1">
     <g id="line2d_8">
      <path d="M 70.22 276.336012 
L 450 276.336012 
" clip-path="url(#p9f502af41e)" style="fill: none; stroke: #f2f2f2; stroke-width: 0.8; stroke-linecap: square"/>
     </g>
     <g id="line2d_9">
      <defs>
       <path id="ma7104135fb" d="M 0 0 
L -3.5 0 
" style="stroke: #000000; stroke-width: 0.8"/>
      </defs>
      <g>
       <use xlink:href="#ma7104135fb" x="70.22" y="276.336012" style="stroke: #000000; stroke-width: 0.8"/>
      </g>
     </g>
     <g id="text_9">
      <!-- 0.0125 -->
      <g transform="translate(28.229375 280.13523) scale(0.1 -0.1)">
       <defs>
        <path id="DejaVuSans-2e" d="M 684 794 
L 1344 794 
L 1344 0 
L 684 0 
L 684 794 
z
" transform="scale(0.015625)"/>
       </defs>
       <use xlink:href="#DejaVuSans-30"/>
       <use xlink:href="#DejaVuSans-2e" x="63.623047"/>
       <use xlink:href="#DejaVuSans-30" x="95.410156"/>
       <use xlink:href="#DejaVuSans-31" x="159.033203"/>
       <use xlink:href="#DejaVuSans-32" x="222.65625"/>
       <use xlink:href="#DejaVuSans-35" x="286.279297"/>
      </g>
     </g>
    </g>
    <g id="ytick_2">
     <g id="line2d_10">
      <path d="M 70.22 243.540199 
L 450 243.540199 
" clip-path="url(#p9f502af41e)" style="fill: none; stroke: #f2f2f2; stroke-width: 0.8; stroke-linecap: square"/>
     </g>
     <g id="line2d_11">
      <g>
       <use xlink:href="#ma7104135fb" x="70.22" y="243.540199" style="stroke: #000000; stroke-width: 0.8"/>
      </g>
     </g>
     <g id="text_10">
      <!-- 0.0150 -->
      <g transform="translate(28.229375 247.339417) scale(0.1 -0.1)">
       <use xlink:href="#DejaVuSans-30"/>
       <use xlink:href="#DejaVuSans-2e" x="63.623047"/>
       <use xlink:href="#DejaVuSans-30" x="95.410156"/>
       <use xlink:href="#DejaVuSans-31" x="159.033203"/>
       <use xlink:href="#DejaVuSans-35" x="222.65625"/>
       <use xlink:href="#DejaVuSans-30" x="286.279297"/>
      </g>
     </g>
    </g>
    <g id="ytick_3">
     <g id="line2d_12">
      <path d="M 70.22 210.744386 
L 450 210.744386 
" clip-path="url(#p9f502af41e)" style="fill: none; stroke: #f2f2f2; stroke-width: 0.8; stroke-linecap: square"/>
     </g>
     <g id="line2d_13">
      <g>
       <use xlink:href="#ma7104135fb" x="70.22" y="210.744386" style="stroke: #000000; stroke-width: 0.8"/>
      </g>
     </g>
     <g id="text_11">
      <!-- 0.0175 -->
      <g transform="translate(28.229375 214.543605) scale(0.1 -0.1)">
       <defs>
        <path id="DejaVuSans-37" d="M 525 4666 
L 3525 4666 
L 3525 4397 
L 1831 0 
L 1172 0 
L 2766 4134 
L 525 4134 
L 525 4666 
z
" transform="scale(0.015625)"/>
       </defs>
       <use xlink:href="#DejaVuSans-30"/>
       <use xlink:href="#DejaVuSans-2e" x="63.623047"/>
       <use xlink:href="#DejaVuSans-30" x="95.410156"/>
       <use xlink:href="#DejaVuSans-31" x="159.033203"/>
       <use xlink:href="#DejaVuSans-37" x="222.65625"/>
       <use xlink:href="#DejaVuSans-35" x="286.279297"/>
      </g>
     </g>
    </g>
    <g id="ytick_4">
     <g id="line2d_14">
      <path d="M 70.22 177.948573 
L 450 177.948573 
" clip-path="url(#p9f502af41e)" style="fill: none; stroke: #f2f2f2; stroke-width: 0.8; stroke-linecap: square"/>
     </g>
     <g id="line2d_15">
      <g>
       <use xlink:href="#ma7104135fb" x="70.22" y="177.948573" style="stroke: #000000; stroke-width: 0.8"/>
      </g>
     </g>
     <g id="text_12">
      <!-- 0.0200 -->
      <g transform="translate(28.229375 181.747792) scale(0.1 -0.1)">
       <use xlink:href="#DejaVuSans-30"/>
       <use xlink:href="#DejaVuSans-2e" x="63.623047"/>
       <use xlink:href="#DejaVuSans-30" x="95.410156"/>
       <use xlink:href="#DejaVuSans-32" x="159.033203"/>
       <use xlink:href="#DejaVuSans-30" x="222.65625"/>
       <use xlink:href="#DejaVuSans-30" x="286.279297"/>
      </g>
     </g>
    </g>
    <g id="ytick_5">
     <g id="line2d_16">
      <path d="M 70.22 145.15276 
L 450 145.15276 
" clip-path="url(#p9f502af41e)" style="fill: none; stroke: #f2f2f2; stroke-width: 0.8; stroke-linecap: square"/>
     </g>
     <g id="line2d_17">
      <g>
       <use xlink:href="#ma7104135fb" x="70.22" y="145.15276" style="stroke: #000000; stroke-width: 0.8"/>
      </g>
     </g>
     <g id="text_13">
      <!-- 0.0225 -->
      <g transform="translate(28.229375 148.951979) scale(0.1 -0.1)">
       <use xlink:href="#DejaVuSans-30"/>
       <use xlink:href="#DejaVuSans-2e" x="63.623047"/>
       <use xlink:href="#DejaVuSans-30" x="95.410156"/>
       <use xlink:href="#DejaVuSans-32" x="159.033203"/>
       <use xlink:href="#DejaVuSans-32" x="222.65625"/>
       <use xlink:href="#DejaVuSans-35" x="286.279297"/>
      </g>
     </g>
    </g>
    <g id="ytick_6">
     <g id="line2d_18">
      <path d="M 70.22 112.356948 
L 450 112.356948 
" clip-path="url(#p9f502af41e)" style="fill: none; stroke: #f2f2f2; stroke-width: 0.8; stroke-linecap: square"/>
     </g>
     <g id="line2d_19">
      <g>
       <use xlink:href="#ma7104135fb" x="70.22" y="112.356948" style="stroke: #000000; stroke-width: 0.8"/>
      </g>
     </g>
     <g id="text_14">
      <!-- 0.0250 -->
      <g transform="translate(28.229375 116.156166) scale(0.1 -0.1)">
       <use xlink:href="#DejaVuSans-30"/>
       <use xlink:href="#DejaVuSans-2e" x="63.623047"/>
       <use xlink:href="#DejaVuSans-30" x="95.410156"/>
       <use xlink:href="#DejaVuSans-32" x="159.033203"/>
       <use xlink:href="#DejaVuSans-35" x="222.65625"/>
       <use xlink:href="#DejaVuSans-30" x="286.279297"/>
      </g>
     </g>
    </g>
    <g id="ytick_7">
     <g id="line2d_20">
      <path d="M 70.22 79.561135 
L 450 79.561135 
" clip-path="url(#p9f502af41e)" style="fill: none; stroke: #f2f2f2; stroke-width: 0.8; stroke-linecap: square"/>
     </g>
     <g id="line2d_21">
      <g>
       <use xlink:href="#ma7104135fb" x="70.22" y="79.561135" style="stroke: #000000; stroke-width: 0.8"/>
      </g>
     </g>
     <g id="text_15">
      <!-- 0.0275 -->
      <g transform="translate(28.229375 83.360353) scale(0.1 -0.1)">
       <use xlink:href="#DejaVuSans-30"/>
       <use xlink:href="#DejaVuSans-2e" x="63.623047"/>
       <use xlink:href="#DejaVuSans-30" x="95.410156"/>
       <use xlink:href="#DejaVuSans-32" x="159.033203"/>
       <use xlink:href="#DejaVuSans-37" x="222.65625"/>
       <use xlink:href="#DejaVuSans-35" x="286.279297"/>
      </g>
     </g>
    </g>
    <g id="ytick_8">
     <g id="line2d_22">
      <path d="M 70.22 46.765322 
L 450 46.765322 
" clip-path="url(#p9f502af41e)" style="fill: none; stroke: #f2f2f2; stroke-width: 0.8; stroke-linecap: square"/>
     </g>
     <g id="line2d_23">
      <g>
       <use xlink:href="#ma7104135fb" x="70.22" y="46.765322" style="stroke: #000000; stroke-width: 0.8"/>
      </g>
     </g>
     <g id="text_16">
      <!-- 0.0300 -->
      <g transform="translate(28.229375 50.564541) scale(0.1 -0.1)">
       <use xlink:href="#DejaVuSans-30"/>
       <use xlink:href="#DejaVuSans-2e" x="63.623047"/>
       <use xlink:href="#DejaVuSans-30" x="95.410156"/>
       <use xlink:href="#DejaVuSans-33" x="159.033203"/>
       <use xlink:href="#DejaVuSans-30" x="222.65625"/>
       <use xlink:href="#DejaVuSans-30" x="286.279297"/>
      </g>
     </g>
    </g>
    <g id="text_17">
     <!-- Concentration (mM) -->
     <g transform="translate(21.317813 232.444531) rotate(-90) scale(0.14 -0.14)">
      <defs>
       <path id="DejaVuSans-4d" d="M 628 4666 
L 1569 4666 
L 2759 1491 
L 3956 4666 
L 4897 4666 
L 4897 0 
L 4281 0 
L 4281 4097 
L 3078 897 
L 2444 897 
L 1241 4097 
L 1241 0 
L 628 0 
L 628 4666 
z
" transform="scale(0.015625)"/>
      </defs>
      <use xlink:href="#DejaVuSans-43"/>
      <use xlink:href="#DejaVuSans-6f" x="69.824219"/>
      <use xlink:href="#DejaVuSans-6e" x="131.005859"/>
      <use xlink:href="#DejaVuSans-63" x="194.384766"/>
      <use xlink:href="#DejaVuSans-65" x="249.365234"/>
      <use xlink:href="#DejaVuSans-6e" x="310.888672"/>
      <use xlink:href="#DejaVuSans-74" x="374.267578"/>
      <use xlink:href="#DejaVuSans-72" x="413.476562"/>
      <use xlink:href="#DejaVuSans-61" x="454.589844"/>
      <use xlink:href="#DejaVuSans-74" x="515.869141"/>
      <use xlink:href="#DejaVuSans-69" x="555.078125"/>
      <use xlink:href="#DejaVuSans-6f" x="582.861328"/>
      <use xlink:href="#DejaVuSans-6e" x="644.042969"/>
      <use xlink:href="#DejaVuSans-20" x="707.421875"/>
      <use xlink:href="#DejaVuSans-28" x="739.208984"/>
      <use xlink:href="#DejaVuSans-6d" x="778.222656"/>
      <use xlink:href="#DejaVuSans-4d" x="875.634766"/>
      <use xlink:href="#DejaVuSans-29" x="961.914062"/>
     </g>
    </g>
   </g>
   <g id="line2d_24">
    <path d="M 87.482727 43.171441 
L 91.544545 43.11983 
L 95.606364 42.964936 
L 99.668182 42.706613 
L 103.73 42.344632 
L 107.791818 41.878685 
L 111.853636 41.30838 
L 115.915455 40.633246 
L 119.977273 39.852727 
" clip-path="url(#p9f502af41e)" style="fill: none; stroke: #1f77b4; stroke-opacity: 0.9; stroke-width: 3; stroke-linecap: square"/>
   </g>
   <g id="line2d_25">
    <path d="M 87.482727 54.633819 
L 91.544545 54.583694 
L 95.606364 54.433261 
L 99.668182 54.182376 
L 103.73 53.830819 
L 107.791818 53.378289 
L 111.853636 52.824406 
L 115.915455 52.168712 
L 119.977273 51.410669 
L 124.039091 50.549655 
L 128.100909 49.584969 
L 132.162727 48.515827 
L 136.224545 47.341359 
L 140.286364 46.060613 
L 144.348182 44.672549 
L 148.41 43.17604 
L 152.471818 41.569868 
L 156.533636 39.852727 
" clip-path="url(#p9f502af41e)" style="fill: none; stroke: #ff7f0e; stroke-opacity: 0.9; stroke-width: 3; stroke-linecap: square"/>
   </g>
   <g id="line2d_26">
    <path d="M 87.482727 71.156627 
L 91.544545 71.108644 
L 95.606364 70.964642 
L 99.668182 70.724482 
L 103.73 70.387952 
L 107.791818 69.954766 
L 111.853636 69.424559 
L 115.915455 68.796894 
L 119.977273 68.071253 
L 124.039091 67.247043 
L 128.100909 66.323592 
L 132.162727 65.300148 
L 136.224545 64.175881 
L 140.286364 62.949878 
L 144.348182 61.621142 
L 148.41 60.188595 
L 152.471818 58.651072 
L 156.533636 57.007321 
L 160.595455 55.256001 
L 164.657273 53.395682 
L 168.719091 51.42484 
L 172.780909 49.341857 
L 176.842727 47.145019 
L 180.904545 44.832512 
L 184.966364 42.402422 
L 189.028182 39.852727 
" clip-path="url(#p9f502af41e)" style="fill: none; stroke: #2ca02c; stroke-opacity: 0.9; stroke-width: 3; stroke-linecap: square"/>
   </g>
   <g id="line2d_27">
    <path d="M 87.482727 95.866621 
L 91.544545 95.821844 
L 95.606364 95.687461 
L 99.668182 95.463343 
L 103.73 95.149293 
L 107.791818 94.745043 
L 111.853636 94.250253 
L 115.915455 93.664514 
L 119.977273 92.987344 
L 124.039091 92.218188 
L 128.100909 91.356419 
L 132.162727 90.401337 
L 136.224545 89.352164 
L 140.286364 88.208049 
L 144.348182 86.968062 
L 148.41 85.631197 
L 152.471818 84.196365 
L 156.533636 82.662397 
L 160.595455 81.028044 
L 164.657273 79.291968 
L 168.719091 77.452748 
L 172.780909 75.508873 
L 176.842727 73.458743 
L 180.904545 71.300664 
L 184.966364 69.032849 
L 189.028182 66.653413 
L 193.09 64.160371 
L 197.151818 61.551635 
L 201.213636 58.825011 
L 205.275455 55.978199 
L 209.337273 53.008785 
L 213.399091 49.91424 
L 217.460909 46.691916 
L 221.522727 43.339044 
L 225.584545 39.852727 
" clip-path="url(#p9f502af41e)" style="fill: none; stroke: #d62728; stroke-opacity: 0.9; stroke-width: 3; stroke-linecap: square"/>
   </g>
   <g id="line2d_28">
    <path d="M 87.482727 122.166928 
L 91.544545 122.125563 
L 95.606364 122.001421 
L 99.668182 121.794384 
L 103.73 121.504268 
L 107.791818 121.130825 
L 111.853636 120.673743 
L 115.915455 120.132642 
L 119.977273 119.507078 
L 124.039091 118.796537 
L 128.100909 118.000441 
L 132.162727 117.118142 
L 136.224545 116.148922 
L 140.286364 115.091993 
L 144.348182 113.946497 
L 148.41 112.711504 
L 152.471818 111.386007 
L 156.533636 109.968927 
L 160.595455 108.459108 
L 164.657273 106.855316 
L 168.719091 105.156235 
L 172.780909 103.360471 
L 176.842727 101.466544 
L 180.904545 99.47289 
L 184.966364 97.377856 
L 189.028182 95.1797 
L 193.09 92.876588 
L 197.151818 90.46659 
L 201.213636 87.94768 
L 205.275455 85.31773 
L 209.337273 82.57451 
L 213.399091 79.715682 
L 217.460909 76.738801 
L 221.522727 73.641306 
L 225.584545 70.42052 
L 229.646364 67.073646 
L 233.708182 63.59776 
L 237.77 59.989812 
L 241.831818 56.246617 
L 245.893636 52.364851 
L 249.955455 48.341049 
L 254.017273 44.171597 
L 258.079091 39.852727 
" clip-path="url(#p9f502af41e)" style="fill: none; stroke: #9467bd; stroke-opacity: 0.9; stroke-width: 3; stroke-linecap: square"/>
   </g>
   <g id="line2d_29">
    <path d="M 87.482727 155.160147 
L 91.544545 155.123065 
L 95.606364 155.011775 
L 99.668182 154.826172 
L 103.73 154.566091 
L 107.791818 154.23131 
L 111.853636 153.821548 
L 115.915455 153.336465 
L 119.977273 152.775662 
L 124.039091 152.13868 
L 128.100909 151.424999 
L 132.162727 150.634038 
L 136.224545 149.765153 
L 140.286364 148.817638 
L 144.348182 147.790723 
L 148.41 146.683574 
L 152.471818 145.495288 
L 156.533636 144.224897 
L 160.595455 142.871364 
L 164.657273 141.433583 
L 168.719091 139.910373 
L 172.780909 138.300484 
L 176.842727 136.602589 
L 180.904545 134.815285 
L 184.966364 132.937089 
L 189.028182 130.966439 
L 193.09 128.901689 
L 197.151818 126.74111 
L 201.213636 124.482883 
L 205.275455 122.125101 
L 209.337273 119.665762 
L 213.399091 117.10277 
L 217.460909 114.433931 
L 221.522727 111.656949 
L 225.584545 108.769421 
L 229.646364 105.76884 
L 233.708182 102.652582 
L 237.77 99.417911 
L 241.831818 96.06197 
L 245.893636 92.581777 
L 249.955455 88.974224 
L 254.017273 85.236069 
L 258.079091 81.363932 
L 262.140909 77.35429 
L 266.202727 73.203472 
L 270.264545 68.907655 
L 274.326364 64.462854 
L 278.388182 59.864921 
L 282.45 55.109535 
L 286.511818 50.192196 
L 290.573636 45.10822 
L 294.635455 39.852727 
" clip-path="url(#p9f502af41e)" style="fill: none; stroke: #8c564b; stroke-opacity: 0.9; stroke-width: 3; stroke-linecap: square"/>
   </g>
   <g id="line2d_30">
    <path d="M 87.482727 190.136023 
L 91.544545 190.103483 
L 95.606364 190.005823 
L 99.668182 189.842951 
L 103.73 189.614722 
L 107.791818 189.320943 
L 111.853636 188.961365 
L 115.915455 188.535691 
L 119.977273 188.04357 
L 124.039091 187.484599 
L 128.100909 186.858322 
L 132.162727 186.164227 
L 136.224545 185.401752 
L 140.286364 184.570275 
L 144.348182 183.66912 
L 148.41 182.697555 
L 152.471818 181.654788 
L 156.533636 180.539968 
L 160.595455 179.352186 
L 164.657273 178.090469 
L 168.719091 176.753783 
L 172.780909 175.341028 
L 176.842727 173.85104 
L 180.904545 172.282586 
L 184.966364 170.634366 
L 189.028182 168.905007 
L 193.09 167.093065 
L 197.151818 165.197021 
L 201.213636 163.215279 
L 205.275455 161.146162 
L 209.337273 158.987915 
L 213.399091 156.738697 
L 217.460909 154.396581 
L 221.522727 151.959551 
L 225.584545 149.425497 
L 229.646364 146.792217 
L 233.708182 144.057409 
L 237.77 141.218668 
L 241.831818 138.273487 
L 245.893636 135.219247 
L 249.955455 132.053218 
L 254.017273 128.772553 
L 258.079091 125.374283 
L 262.140909 121.855316 
L 266.202727 118.212428 
L 270.264545 114.44226 
L 274.326364 110.541313 
L 278.388182 106.505943 
L 282.45 102.332356 
L 286.511818 98.0166 
L 290.573636 93.554558 
L 294.635455 88.941948 
L 298.697273 84.174307 
L 302.759091 79.246993 
L 306.820909 74.15517 
L 310.882727 68.893805 
L 314.944545 63.457657 
L 319.006364 57.841273 
L 323.068182 52.038972 
L 327.13 46.044842 
L 331.191818 39.852727 
" clip-path="url(#p9f502af41e)" style="fill: none; stroke: #e377c2; stroke-opacity: 0.9; stroke-width: 3; stroke-linecap: square"/>
   </g>
   <g id="line2d_31">
    <path d="M 87.482727 221.578021 
L 91.544545 221.549565 
L 95.606364 221.464163 
L 99.668182 221.321733 
L 103.73 221.122151 
L 107.791818 220.865245 
L 111.853636 220.550799 
L 115.915455 220.178552 
L 119.977273 219.748198 
L 124.039091 219.259384 
L 128.100909 218.711711 
L 132.162727 218.104732 
L 136.224545 217.437954 
L 140.286364 216.710833 
L 144.348182 215.922779 
L 148.41 215.07315 
L 152.471818 214.161254 
L 156.533636 213.186347 
L 160.595455 212.147632 
L 164.657273 211.04426 
L 168.719091 209.875324 
L 172.780909 208.639863 
L 176.842727 207.336858 
L 180.904545 205.965232 
L 184.966364 204.523846 
L 189.028182 203.011499 
L 193.09 201.426928 
L 197.151818 199.768803 
L 201.213636 198.035729 
L 205.275455 196.226238 
L 209.337273 194.338795 
L 213.399091 192.371789 
L 217.460909 190.323533 
L 221.522727 188.192264 
L 225.584545 185.976137 
L 229.646364 183.673223 
L 233.708182 181.281508 
L 237.77 178.79889 
L 241.831818 176.223172 
L 245.893636 173.552065 
L 249.955455 170.783178 
L 254.017273 167.914022 
L 258.079091 164.941997 
L 262.140909 161.864398 
L 266.202727 158.678403 
L 270.264545 155.381072 
L 274.326364 151.969345 
L 278.388182 148.440032 
L 282.45 144.789812 
L 286.511818 141.015226 
L 290.573636 137.112672 
L 294.635455 133.078401 
L 298.697273 128.908508 
L 302.759091 124.598929 
L 306.820909 120.145431 
L 310.882727 115.543609 
L 314.944545 110.788877 
L 319.006364 105.876458 
L 323.068182 100.801382 
L 327.13 95.558472 
L 331.191818 90.14234 
L 335.253636 84.547374 
L 339.315455 78.767733 
L 343.377273 72.797331 
L 347.439091 66.629833 
L 351.500909 60.25864 
L 355.562727 53.67688 
L 359.624545 46.877395 
L 363.686364 39.852727 
" clip-path="url(#p9f502af41e)" style="fill: none; stroke: #7f7f7f; stroke-opacity: 0.9; stroke-width: 3; stroke-linecap: square"/>
   </g>
   <g id="line2d_32">
    <path d="M 87.482727 256.030343 
L 91.544545 256.006364 
L 95.606364 255.934398 
L 99.668182 255.814378 
L 103.73 255.646196 
L 107.791818 255.42971 
L 111.853636 255.164736 
L 115.915455 254.851055 
L 119.977273 254.488409 
L 124.039091 254.0765 
L 128.100909 253.614992 
L 132.162727 253.103507 
L 136.224545 252.541631 
L 140.286364 251.928905 
L 144.348182 251.264831 
L 148.41 250.548868 
L 152.471818 249.780433 
L 156.533636 248.958898 
L 160.595455 248.083592 
L 164.657273 247.153798 
L 168.719091 246.168753 
L 172.780909 245.127646 
L 176.842727 244.029618 
L 180.904545 242.87376 
L 184.966364 241.659113 
L 189.028182 240.384664 
L 193.09 239.049349 
L 197.151818 237.652045 
L 201.213636 236.191576 
L 205.275455 234.666706 
L 209.337273 233.076139 
L 213.399091 231.418518 
L 217.460909 229.69242 
L 221.522727 227.896358 
L 225.584545 226.028776 
L 229.646364 224.088049 
L 233.708182 222.072478 
L 237.77 219.98029 
L 241.831818 217.809634 
L 245.893636 215.558578 
L 249.955455 213.225107 
L 254.017273 210.80712 
L 258.079091 208.302428 
L 262.140909 205.708746 
L 266.202727 203.023697 
L 270.264545 200.244801 
L 274.326364 197.369477 
L 278.388182 194.395034 
L 282.45 191.318671 
L 286.511818 188.137472 
L 290.573636 184.848398 
L 294.635455 181.448287 
L 298.697273 177.933846 
L 302.759091 174.301645 
L 306.820909 170.548116 
L 310.882727 166.669541 
L 314.944545 162.662052 
L 319.006364 158.521621 
L 323.068182 154.244053 
L 327.13 149.824981 
L 331.191818 145.25986 
L 335.253636 140.543955 
L 339.315455 135.672336 
L 343.377273 130.639871 
L 347.439091 125.441212 
L 351.500909 120.070793 
L 355.562727 114.522813 
L 359.624545 108.791232 
L 363.686364 102.869756 
L 367.748182 96.75183 
L 371.81 90.430621 
L 375.871818 83.899011 
L 379.933636 77.149581 
L 383.995455 70.1746 
L 388.057273 62.966006 
L 392.119091 55.515399 
L 396.180909 47.814018 
L 400.242727 39.852727 
" clip-path="url(#p9f502af41e)" style="fill: none; stroke: #bcbd22; stroke-opacity: 0.9; stroke-width: 3; stroke-linecap: square"/>
   </g>
   <g id="line2d_33">
    <path d="M 87.482727 284.907273 
L 91.544545 284.887048 
L 95.606364 284.826348 
L 99.668182 284.725118 
L 103.73 284.583265 
L 107.791818 284.40067 
L 111.853636 284.177178 
L 115.915455 283.912604 
L 119.977273 283.60673 
L 124.039091 283.259306 
L 128.100909 282.870046 
L 132.162727 282.438633 
L 136.224545 281.964717 
L 140.286364 281.447911 
L 144.348182 280.887795 
L 148.41 280.283911 
L 152.471818 279.635769 
L 156.533636 278.942839 
L 160.595455 278.204553 
L 164.657273 277.420308 
L 168.719091 276.589459 
L 172.780909 275.711322 
L 176.842727 274.785173 
L 180.904545 273.810244 
L 184.966364 272.785725 
L 189.028182 271.710764 
L 193.09 270.584459 
L 197.151818 269.405867 
L 201.213636 268.173993 
L 205.275455 266.887794 
L 209.337273 265.546177 
L 213.399091 264.147996 
L 217.460909 262.692052 
L 221.522727 261.177089 
L 225.584545 259.601794 
L 229.646364 257.964795 
L 233.708182 256.26466 
L 237.77 254.499891 
L 241.831818 252.668926 
L 245.893636 250.770135 
L 249.955455 248.801818 
L 254.017273 246.762201 
L 258.079091 244.649437 
L 262.140909 242.461597 
L 266.202727 240.196676 
L 270.264545 237.852579 
L 274.326364 235.427128 
L 278.388182 232.918054 
L 282.45 230.32299 
L 286.511818 227.639476 
L 290.573636 224.864946 
L 294.635455 221.996732 
L 298.697273 219.032053 
L 302.759091 215.968015 
L 306.820909 212.801605 
L 310.882727 209.529686 
L 314.944545 206.14899 
L 319.006364 202.656118 
L 323.068182 199.047528 
L 327.13 195.319534 
L 331.191818 191.468297 
L 335.253636 187.48982 
L 339.315455 183.379942 
L 343.377273 179.134327 
L 347.439091 174.748462 
L 351.500909 170.217644 
L 355.562727 165.536977 
L 359.624545 160.701359 
L 363.686364 155.705475 
L 367.748182 150.543789 
L 371.81 145.210531 
L 375.871818 139.699687 
L 379.933636 134.004994 
L 383.995455 128.119918 
L 388.057273 122.037653 
L 392.119091 115.751101 
L 396.180909 109.25286 
L 400.242727 102.535214 
L 404.304545 95.590116 
L 408.366364 88.409169 
L 412.428182 80.983618 
L 416.49 73.304325 
L 420.551818 65.361758 
L 424.613636 57.145968 
L 428.675455 48.646571 
L 432.737273 39.852727 
" clip-path="url(#p9f502af41e)" style="fill: none; stroke: #17becf; stroke-opacity: 0.9; stroke-width: 3; stroke-linecap: square"/>
   </g>
   <g id="patch_3">
    <path d="M 70.22 297.16 
L 70.22 27.6 
" style="fill: none; stroke: #000000; stroke-width: 0.8; stroke-linejoin: miter; stroke-linecap: square"/>
   </g>
   <g id="patch_4">
    <path d="M 450 297.16 
L 450 27.6 
" style="fill: none; stroke: #000000; stroke-width: 0.8; stroke-linejoin: miter; stroke-linecap: square"/>
   </g>
   <g id="patch_5">
    <path d="M 70.22 297.16 
L 450 297.16 
" style="fill: none; stroke: #000000; stroke-width: 0.8; stroke-linejoin: miter; stroke-linecap: square"/>
   </g>
   <g id="patch_6">
    <path d="M 70.22 27.6 
L 450 27.6 
" style="fill: none; stroke: #000000; stroke-width: 0.8; stroke-linejoin: miter; stroke-linecap: square"/>
   </g>
   <g id="text_18">
    <!-- EASP -->
    <g transform="translate(242.23375 21.6) scale(0.14 -0.14)">
     <defs>
      <path id="DejaVuSans-45" d="M 628 4666 
L 3578 4666 
L 3578 4134 
L 1259 4134 
L 1259 2753 
L 3481 2753 
L 3481 2222 
L 1259 2222 
L 1259 531 
L 3634 531 
L 3634 0 
L 628 0 
L 628 4666 
z
" transform="scale(0.015625)"/>
      <path id="DejaVuSans-41" d="M 2188 4044 
L 1331 1722 
L 3047 1722 
L 2188 4044 
z
M 1831 4666 
L 2547 4666 
L 4325 0 
L 3669 0 
L 3244 1197 
L 1141 1197 
L 716 0 
L 50 0 
L 1831 4666 
z
" transform="scale(0.015625)"/>
      <path id="DejaVuSans-53" d="M 3425 4513 
L 3425 3897 
Q 3066 4069 2747 4153 
Q 2428 4238 2131 4238 
Q 1616 4238 1336 4038 
Q 1056 3838 1056 3469 
Q 1056 3159 1242 3001 
Q 1428 2844 1947 2747 
L 2328 2669 
Q 3034 2534 3370 2195 
Q 3706 1856 3706 1288 
Q 3706 609 3251 259 
Q 2797 -91 1919 -91 
Q 1588 -91 1214 -16 
Q 841 59 441 206 
L 441 856 
Q 825 641 1194 531 
Q 1563 422 1919 422 
Q 2459 422 2753 634 
Q 3047 847 3047 1241 
Q 3047 1584 2836 1778 
Q 2625 1972 2144 2069 
L 1759 2144 
Q 1053 2284 737 2584 
Q 422 2884 422 3419 
Q 422 4038 858 4394 
Q 1294 4750 2059 4750 
Q 2388 4750 2728 4690 
Q 3069 4631 3425 4513 
z
" transform="scale(0.015625)"/>
      <path id="DejaVuSans-50" d="M 1259 4147 
L 1259 2394 
L 2053 2394 
Q 2494 2394 2734 2622 
Q 2975 2850 2975 3272 
Q 2975 3691 2734 3919 
Q 2494 4147 2053 4147 
L 1259 4147 
z
M 628 4666 
L 2053 4666 
Q 2838 4666 3239 4311 
Q 3641 3956 3641 3272 
Q 3641 2581 3239 2228 
Q 2838 1875 2053 1875 
L 1259 1875 
L 1259 0 
L 628 0 
L 628 4666 
z
" transform="scale(0.015625)"/>
     </defs>
     <use xlink:href="#DejaVuSans-45"/>
     <use xlink:href="#DejaVuSans-41" x="63.183594"/>
     <use xlink:href="#DejaVuSans-53" x="131.591797"/>
     <use xlink:href="#DejaVuSans-50" x="195.068359"/>
    </g>
   </g>
  </g>
 </g>
 <defs>
  <clipPath id="p9f502af41e">
   <rect x="70.22" y="27.6" width="379.78" height="269.56"/>
  </clipPath>
 </defs>
</svg>
