<?xml version="1.0" encoding="utf-8" standalone="no"?>
<!DOCTYPE svg PUBLIC "-//W3C//DTD SVG 1.1//EN"
  "http://www.w3.org/Graphics/SVG/1.1/DTD/svg11.dtd">
<svg xmlns:xlink="http://www.w3.org/1999/xlink" width="460.8pt" height="345.6pt" viewBox="0 0 460.8 345.6" xmlns="http://www.w3.org/2000/svg" version="1.1">
 <metadata>
  <rdf:RDF xmlns:dc="http://purl.org/dc/elements/1.1/" xmlns:cc="http://creativecommons.org/ns#" xmlns:rdf="http://www.w3.org/1999/02/22-rdf-syntax-ns#">
   <cc:Work>
    <dc:type rdf:resource="http://purl.org/dc/dcmitype/StillImage"/>
    <dc:date>2023-05-23T20:11:35.289145</dc:date>
    <dc:format>image/svg+xml</dc:format>
    <dc:creator>
     <cc:Agent>
      <dc:title>Matplotlib v3.6.2, https://matplotlib.org/</dc:title>
     </cc:Agent>
    </dc:creator>
   </cc:Work>
  </rdf:RDF>
 </metadata>
 <defs>
  <style type="text/css">*{stroke-linejoin: round; stroke-linecap: butt}</style>
 </defs>
 <g id="figure_1">
  <g id="patch_1">
   <path d="M 0 345.6 
L 460.8 345.6 
L 460.8 0 
L 0 0 
z
" style="fill: #ffffff"/>
  </g>
  <g id="axes_1">
   <g id="patch_2">
    <path d="M 51.32 297.16 
L 450 297.16 
L 450 27.6 
L 51.32 27.6 
z
" style="fill: #ffffff"/>
   </g>
   <g id="matplotlib.axis_1">
    <g id="xtick_1">
     <g id="line2d_1">
      <defs>
       <path id="mbfb8a4b7f6" d="M 0 0 
L 0 3.5 
" style="stroke: #000000; stroke-width: 0.8"/>
      </defs>
      <g>
       <use xlink:href="#mbfb8a4b7f6" x="69.441818" y="297.16" style="stroke: #000000; stroke-width: 0.8"/>
      </g>
     </g>
     <g id="text_1">
      <!-- 0 -->
      <g transform="translate(66.260568 311.758438) scale(0.1 -0.1)">
       <defs>
        <path id="DejaVuSans-30" d="M 2034 4250 
Q 1547 4250 1301 3770 
Q 1056 3291 1056 2328 
Q 1056 1369 1301 889 
Q 1547 409 2034 409 
Q 2525 409 2770 889 
Q 3016 1369 3016 2328 
Q 3016 3291 2770 3770 
Q 2525 4250 2034 4250 
z
M 2034 4750 
Q 2819 4750 3233 4129 
Q 3647 3509 3647 2328 
Q 3647 1150 3233 529 
Q 2819 -91 2034 -91 
Q 1250 -91 836 529 
Q 422 1150 422 2328 
Q 422 3509 836 4129 
Q 1250 4750 2034 4750 
z
" transform="scale(0.015625)"/>
       </defs>
       <use xlink:href="#DejaVuSans-30"/>
      </g>
     </g>
    </g>
    <g id="xtick_2">
     <g id="line2d_2">
      <g>
       <use xlink:href="#mbfb8a4b7f6" x="130.355493" y="297.16" style="stroke: #000000; stroke-width: 0.8"/>
      </g>
     </g>
     <g id="text_2">
      <!-- 100 -->
      <g transform="translate(120.811743 311.758438) scale(0.1 -0.1)">
       <defs>
        <path id="DejaVuSans-31" d="M 794 531 
L 1825 531 
L 1825 4091 
L 703 3866 
L 703 4441 
L 1819 4666 
L 2450 4666 
L 2450 531 
L 3481 531 
L 3481 0 
L 794 0 
L 794 531 
z
" transform="scale(0.015625)"/>
       </defs>
       <use xlink:href="#DejaVuSans-31"/>
       <use xlink:href="#DejaVuSans-30" x="63.623047"/>
       <use xlink:href="#DejaVuSans-30" x="127.246094"/>
      </g>
     </g>
    </g>
    <g id="xtick_3">
     <g id="line2d_3">
      <g>
       <use xlink:href="#mbfb8a4b7f6" x="191.269167" y="297.16" style="stroke: #000000; stroke-width: 0.8"/>
      </g>
     </g>
     <g id="text_3">
      <!-- 200 -->
      <g transform="translate(181.725417 311.758438) scale(0.1 -0.1)">
       <defs>
        <path id="DejaVuSans-32" d="M 1228 531 
L 3431 531 
L 3431 0 
L 469 0 
L 469 531 
Q 828 903 1448 1529 
Q 2069 2156 2228 2338 
Q 2531 2678 2651 2914 
Q 2772 3150 2772 3378 
Q 2772 3750 2511 3984 
Q 2250 4219 1831 4219 
Q 1534 4219 1204 4116 
Q 875 4013 500 3803 
L 500 4441 
Q 881 4594 1212 4672 
Q 1544 4750 1819 4750 
Q 2544 4750 2975 4387 
Q 3406 4025 3406 3419 
Q 3406 3131 3298 2873 
Q 3191 2616 2906 2266 
Q 2828 2175 2409 1742 
Q 1991 1309 1228 531 
z
" transform="scale(0.015625)"/>
       </defs>
       <use xlink:href="#DejaVuSans-32"/>
       <use xlink:href="#DejaVuSans-30" x="63.623047"/>
       <use xlink:href="#DejaVuSans-30" x="127.246094"/>
      </g>
     </g>
    </g>
    <g id="xtick_4">
     <g id="line2d_4">
      <g>
       <use xlink:href="#mbfb8a4b7f6" x="252.182842" y="297.16" style="stroke: #000000; stroke-width: 0.8"/>
      </g>
     </g>
     <g id="text_4">
      <!-- 300 -->
      <g transform="translate(242.639092 311.758438) scale(0.1 -0.1)">
       <defs>
        <path id="DejaVuSans-33" d="M 2597 2516 
Q 3050 2419 3304 2112 
Q 3559 1806 3559 1356 
Q 3559 666 3084 287 
Q 2609 -91 1734 -91 
Q 1441 -91 1130 -33 
Q 819 25 488 141 
L 488 750 
Q 750 597 1062 519 
Q 1375 441 1716 441 
Q 2309 441 2620 675 
Q 2931 909 2931 1356 
Q 2931 1769 2642 2001 
Q 2353 2234 1838 2234 
L 1294 2234 
L 1294 2753 
L 1863 2753 
Q 2328 2753 2575 2939 
Q 2822 3125 2822 3475 
Q 2822 3834 2567 4026 
Q 2313 4219 1838 4219 
Q 1578 4219 1281 4162 
Q 984 4106 628 3988 
L 628 4550 
Q 988 4650 1302 4700 
Q 1616 4750 1894 4750 
Q 2613 4750 3031 4423 
Q 3450 4097 3450 3541 
Q 3450 3153 3228 2886 
Q 3006 2619 2597 2516 
z
" transform="scale(0.015625)"/>
       </defs>
       <use xlink:href="#DejaVuSans-33"/>
       <use xlink:href="#DejaVuSans-30" x="63.623047"/>
       <use xlink:href="#DejaVuSans-30" x="127.246094"/>
      </g>
     </g>
    </g>
    <g id="xtick_5">
     <g id="line2d_5">
      <g>
       <use xlink:href="#mbfb8a4b7f6" x="313.096516" y="297.16" style="stroke: #000000; stroke-width: 0.8"/>
      </g>
     </g>
     <g id="text_5">
      <!-- 400 -->
      <g transform="translate(303.552766 311.758438) scale(0.1 -0.1)">
       <defs>
        <path id="DejaVuSans-34" d="M 2419 4116 
L 825 1625 
L 2419 1625 
L 2419 4116 
z
M 2253 4666 
L 3047 4666 
L 3047 1625 
L 3713 1625 
L 3713 1100 
L 3047 1100 
L 3047 0 
L 2419 0 
L 2419 1100 
L 313 1100 
L 313 1709 
L 2253 4666 
z
" transform="scale(0.015625)"/>
       </defs>
       <use xlink:href="#DejaVuSans-34"/>
       <use xlink:href="#DejaVuSans-30" x="63.623047"/>
       <use xlink:href="#DejaVuSans-30" x="127.246094"/>
      </g>
     </g>
    </g>
    <g id="xtick_6">
     <g id="line2d_6">
      <g>
       <use xlink:href="#mbfb8a4b7f6" x="374.010191" y="297.16" style="stroke: #000000; stroke-width: 0.8"/>
      </g>
     </g>
     <g id="text_6">
      <!-- 500 -->
      <g transform="translate(364.466441 311.758438) scale(0.1 -0.1)">
       <defs>
        <path id="DejaVuSans-35" d="M 691 4666 
L 3169 4666 
L 3169 4134 
L 1269 4134 
L 1269 2991 
Q 1406 3038 1543 3061 
Q 1681 3084 1819 3084 
Q 2600 3084 3056 2656 
Q 3513 2228 3513 1497 
Q 3513 744 3044 326 
Q 2575 -91 1722 -91 
Q 1428 -91 1123 -41 
Q 819 9 494 109 
L 494 744 
Q 775 591 1075 516 
Q 1375 441 1709 441 
Q 2250 441 2565 725 
Q 2881 1009 2881 1497 
Q 2881 1984 2565 2268 
Q 2250 2553 1709 2553 
Q 1456 2553 1204 2497 
Q 953 2441 691 2322 
L 691 4666 
z
" transform="scale(0.015625)"/>
       </defs>
       <use xlink:href="#DejaVuSans-35"/>
       <use xlink:href="#DejaVuSans-30" x="63.623047"/>
       <use xlink:href="#DejaVuSans-30" x="127.246094"/>
      </g>
     </g>
    </g>
    <g id="xtick_7">
     <g id="line2d_7">
      <g>
       <use xlink:href="#mbfb8a4b7f6" x="434.923866" y="297.16" style="stroke: #000000; stroke-width: 0.8"/>
      </g>
     </g>
     <g id="text_7">
      <!-- 600 -->
      <g transform="translate(425.380116 311.758438) scale(0.1 -0.1)">
       <defs>
        <path id="DejaVuSans-36" d="M 2113 2584 
Q 1688 2584 1439 2293 
Q 1191 2003 1191 1497 
Q 1191 994 1439 701 
Q 1688 409 2113 409 
Q 2538 409 2786 701 
Q 3034 994 3034 1497 
Q 3034 2003 2786 2293 
Q 2538 2584 2113 2584 
z
M 3366 4563 
L 3366 3988 
Q 3128 4100 2886 4159 
Q 2644 4219 2406 4219 
Q 1781 4219 1451 3797 
Q 1122 3375 1075 2522 
Q 1259 2794 1537 2939 
Q 1816 3084 2150 3084 
Q 2853 3084 3261 2657 
Q 3669 2231 3669 1497 
Q 3669 778 3244 343 
Q 2819 -91 2113 -91 
Q 1303 -91 875 529 
Q 447 1150 447 2328 
Q 447 3434 972 4092 
Q 1497 4750 2381 4750 
Q 2619 4750 2861 4703 
Q 3103 4656 3366 4563 
z
" transform="scale(0.015625)"/>
       </defs>
       <use xlink:href="#DejaVuSans-36"/>
       <use xlink:href="#DejaVuSans-30" x="63.623047"/>
       <use xlink:href="#DejaVuSans-30" x="127.246094"/>
      </g>
     </g>
    </g>
    <g id="text_8">
     <!-- Distance from Center $(\mu m)$ -->
     <g transform="translate(156.58 328.478125) scale(0.14 -0.14)">
      <defs>
       <path id="DejaVuSans-44" d="M 1259 4147 
L 1259 519 
L 2022 519 
Q 2988 519 3436 956 
Q 3884 1394 3884 2338 
Q 3884 3275 3436 3711 
Q 2988 4147 2022 4147 
L 1259 4147 
z
M 628 4666 
L 1925 4666 
Q 3281 4666 3915 4102 
Q 4550 3538 4550 2338 
Q 4550 1131 3912 565 
Q 3275 0 1925 0 
L 628 0 
L 628 4666 
z
" transform="scale(0.015625)"/>
       <path id="DejaVuSans-69" d="M 603 3500 
L 1178 3500 
L 1178 0 
L 603 0 
L 603 3500 
z
M 603 4863 
L 1178 4863 
L 1178 4134 
L 603 4134 
L 603 4863 
z
" transform="scale(0.015625)"/>
       <path id="DejaVuSans-73" d="M 2834 3397 
L 2834 2853 
Q 2591 2978 2328 3040 
Q 2066 3103 1784 3103 
Q 1356 3103 1142 2972 
Q 928 2841 928 2578 
Q 928 2378 1081 2264 
Q 1234 2150 1697 2047 
L 1894 2003 
Q 2506 1872 2764 1633 
Q 3022 1394 3022 966 
Q 3022 478 2636 193 
Q 2250 -91 1575 -91 
Q 1294 -91 989 -36 
Q 684 19 347 128 
L 347 722 
Q 666 556 975 473 
Q 1284 391 1588 391 
Q 1994 391 2212 530 
Q 2431 669 2431 922 
Q 2431 1156 2273 1281 
Q 2116 1406 1581 1522 
L 1381 1569 
Q 847 1681 609 1914 
Q 372 2147 372 2553 
Q 372 3047 722 3315 
Q 1072 3584 1716 3584 
Q 2034 3584 2315 3537 
Q 2597 3491 2834 3397 
z
" transform="scale(0.015625)"/>
       <path id="DejaVuSans-74" d="M 1172 4494 
L 1172 3500 
L 2356 3500 
L 2356 3053 
L 1172 3053 
L 1172 1153 
Q 1172 725 1289 603 
Q 1406 481 1766 481 
L 2356 481 
L 2356 0 
L 1766 0 
Q 1100 0 847 248 
Q 594 497 594 1153 
L 594 3053 
L 172 3053 
L 172 3500 
L 594 3500 
L 594 4494 
L 1172 4494 
z
" transform="scale(0.015625)"/>
       <path id="DejaVuSans-61" d="M 2194 1759 
Q 1497 1759 1228 1600 
Q 959 1441 959 1056 
Q 959 750 1161 570 
Q 1363 391 1709 391 
Q 2188 391 2477 730 
Q 2766 1069 2766 1631 
L 2766 1759 
L 2194 1759 
z
M 3341 1997 
L 3341 0 
L 2766 0 
L 2766 531 
Q 2569 213 2275 61 
Q 1981 -91 1556 -91 
Q 1019 -91 701 211 
Q 384 513 384 1019 
Q 384 1609 779 1909 
Q 1175 2209 1959 2209 
L 2766 2209 
L 2766 2266 
Q 2766 2663 2505 2880 
Q 2244 3097 1772 3097 
Q 1472 3097 1187 3025 
Q 903 2953 641 2809 
L 641 3341 
Q 956 3463 1253 3523 
Q 1550 3584 1831 3584 
Q 2591 3584 2966 3190 
Q 3341 2797 3341 1997 
z
" transform="scale(0.015625)"/>
       <path id="DejaVuSans-6e" d="M 3513 2113 
L 3513 0 
L 2938 0 
L 2938 2094 
Q 2938 2591 2744 2837 
Q 2550 3084 2163 3084 
Q 1697 3084 1428 2787 
Q 1159 2491 1159 1978 
L 1159 0 
L 581 0 
L 581 3500 
L 1159 3500 
L 1159 2956 
Q 1366 3272 1645 3428 
Q 1925 3584 2291 3584 
Q 2894 3584 3203 3211 
Q 3513 2838 3513 2113 
z
" transform="scale(0.015625)"/>
       <path id="DejaVuSans-63" d="M 3122 3366 
L 3122 2828 
Q 2878 2963 2633 3030 
Q 2388 3097 2138 3097 
Q 1578 3097 1268 2742 
Q 959 2388 959 1747 
Q 959 1106 1268 751 
Q 1578 397 2138 397 
Q 2388 397 2633 464 
Q 2878 531 3122 666 
L 3122 134 
Q 2881 22 2623 -34 
Q 2366 -91 2075 -91 
Q 1284 -91 818 406 
Q 353 903 353 1747 
Q 353 2603 823 3093 
Q 1294 3584 2113 3584 
Q 2378 3584 2631 3529 
Q 2884 3475 3122 3366 
z
" transform="scale(0.015625)"/>
       <path id="DejaVuSans-65" d="M 3597 1894 
L 3597 1613 
L 953 1613 
Q 991 1019 1311 708 
Q 1631 397 2203 397 
Q 2534 397 2845 478 
Q 3156 559 3463 722 
L 3463 178 
Q 3153 47 2828 -22 
Q 2503 -91 2169 -91 
Q 1331 -91 842 396 
Q 353 884 353 1716 
Q 353 2575 817 3079 
Q 1281 3584 2069 3584 
Q 2775 3584 3186 3129 
Q 3597 2675 3597 1894 
z
M 3022 2063 
Q 3016 2534 2758 2815 
Q 2500 3097 2075 3097 
Q 1594 3097 1305 2825 
Q 1016 2553 972 2059 
L 3022 2063 
z
" transform="scale(0.015625)"/>
       <path id="DejaVuSans-20" transform="scale(0.015625)"/>
       <path id="DejaVuSans-66" d="M 2375 4863 
L 2375 4384 
L 1825 4384 
Q 1516 4384 1395 4259 
Q 1275 4134 1275 3809 
L 1275 3500 
L 2222 3500 
L 2222 3053 
L 1275 3053 
L 1275 0 
L 697 0 
L 697 3053 
L 147 3053 
L 147 3500 
L 697 3500 
L 697 3744 
Q 697 4328 969 4595 
Q 1241 4863 1831 4863 
L 2375 4863 
z
" transform="scale(0.015625)"/>
       <path id="DejaVuSans-72" d="M 2631 2963 
Q 2534 3019 2420 3045 
Q 2306 3072 2169 3072 
Q 1681 3072 1420 2755 
Q 1159 2438 1159 1844 
L 1159 0 
L 581 0 
L 581 3500 
L 1159 3500 
L 1159 2956 
Q 1341 3275 1631 3429 
Q 1922 3584 2338 3584 
Q 2397 3584 2469 3576 
Q 2541 3569 2628 3553 
L 2631 2963 
z
" transform="scale(0.015625)"/>
       <path id="DejaVuSans-6f" d="M 1959 3097 
Q 1497 3097 1228 2736 
Q 959 2375 959 1747 
Q 959 1119 1226 758 
Q 1494 397 1959 397 
Q 2419 397 2687 759 
Q 2956 1122 2956 1747 
Q 2956 2369 2687 2733 
Q 2419 3097 1959 3097 
z
M 1959 3584 
Q 2709 3584 3137 3096 
Q 3566 2609 3566 1747 
Q 3566 888 3137 398 
Q 2709 -91 1959 -91 
Q 1206 -91 779 398 
Q 353 888 353 1747 
Q 353 2609 779 3096 
Q 1206 3584 1959 3584 
z
" transform="scale(0.015625)"/>
       <path id="DejaVuSans-6d" d="M 3328 2828 
Q 3544 3216 3844 3400 
Q 4144 3584 4550 3584 
Q 5097 3584 5394 3201 
Q 5691 2819 5691 2113 
L 5691 0 
L 5113 0 
L 5113 2094 
Q 5113 2597 4934 2840 
Q 4756 3084 4391 3084 
Q 3944 3084 3684 2787 
Q 3425 2491 3425 1978 
L 3425 0 
L 2847 0 
L 2847 2094 
Q 2847 2600 2669 2842 
Q 2491 3084 2119 3084 
Q 1678 3084 1418 2786 
Q 1159 2488 1159 1978 
L 1159 0 
L 581 0 
L 581 3500 
L 1159 3500 
L 1159 2956 
Q 1356 3278 1631 3431 
Q 1906 3584 2284 3584 
Q 2666 3584 2933 3390 
Q 3200 3197 3328 2828 
z
" transform="scale(0.015625)"/>
       <path id="DejaVuSans-43" d="M 4122 4306 
L 4122 3641 
Q 3803 3938 3442 4084 
Q 3081 4231 2675 4231 
Q 1875 4231 1450 3742 
Q 1025 3253 1025 2328 
Q 1025 1406 1450 917 
Q 1875 428 2675 428 
Q 3081 428 3442 575 
Q 3803 722 4122 1019 
L 4122 359 
Q 3791 134 3420 21 
Q 3050 -91 2638 -91 
Q 1578 -91 968 557 
Q 359 1206 359 2328 
Q 359 3453 968 4101 
Q 1578 4750 2638 4750 
Q 3056 4750 3426 4639 
Q 3797 4528 4122 4306 
z
" transform="scale(0.015625)"/>
       <path id="DejaVuSans-28" d="M 1984 4856 
Q 1566 4138 1362 3434 
Q 1159 2731 1159 2009 
Q 1159 1288 1364 580 
Q 1569 -128 1984 -844 
L 1484 -844 
Q 1016 -109 783 600 
Q 550 1309 550 2009 
Q 550 2706 781 3412 
Q 1013 4119 1484 4856 
L 1984 4856 
z
" transform="scale(0.015625)"/>
       <path id="DejaVuSans-Oblique-3bc" d="M -84 -1331 
L 856 3500 
L 1434 3500 
L 1009 1322 
Q 997 1256 987 1175 
Q 978 1094 978 1013 
Q 978 722 1161 565 
Q 1344 409 1684 409 
Q 2147 409 2431 671 
Q 2716 934 2816 1459 
L 3213 3500 
L 3788 3500 
L 3266 809 
Q 3253 750 3248 706 
Q 3244 663 3244 628 
Q 3244 531 3283 486 
Q 3322 441 3406 441 
Q 3438 441 3492 456 
Q 3547 472 3647 513 
L 3559 50 
Q 3422 -19 3297 -55 
Q 3172 -91 3053 -91 
Q 2847 -91 2730 40 
Q 2613 172 2613 403 
Q 2438 153 2195 31 
Q 1953 -91 1625 -91 
Q 1334 -91 1117 43 
Q 900 178 831 397 
L 494 -1331 
L -84 -1331 
z
" transform="scale(0.015625)"/>
       <path id="DejaVuSans-Oblique-6d" d="M 5747 2113 
L 5338 0 
L 4763 0 
L 5166 2094 
Q 5191 2228 5203 2325 
Q 5216 2422 5216 2491 
Q 5216 2772 5059 2928 
Q 4903 3084 4622 3084 
Q 4203 3084 3875 2770 
Q 3547 2456 3450 1953 
L 3066 0 
L 2491 0 
L 2900 2094 
Q 2925 2209 2937 2307 
Q 2950 2406 2950 2484 
Q 2950 2769 2794 2926 
Q 2638 3084 2363 3084 
Q 1938 3084 1609 2770 
Q 1281 2456 1184 1953 
L 800 0 
L 225 0 
L 909 3500 
L 1484 3500 
L 1375 2956 
Q 1609 3263 1923 3423 
Q 2238 3584 2597 3584 
Q 2978 3584 3223 3384 
Q 3469 3184 3519 2828 
Q 3781 3197 4126 3390 
Q 4472 3584 4856 3584 
Q 5306 3584 5551 3325 
Q 5797 3066 5797 2591 
Q 5797 2488 5784 2364 
Q 5772 2241 5747 2113 
z
" transform="scale(0.015625)"/>
       <path id="DejaVuSans-29" d="M 513 4856 
L 1013 4856 
Q 1481 4119 1714 3412 
Q 1947 2706 1947 2009 
Q 1947 1309 1714 600 
Q 1481 -109 1013 -844 
L 513 -844 
Q 928 -128 1133 580 
Q 1338 1288 1338 2009 
Q 1338 2731 1133 3434 
Q 928 4138 513 4856 
z
" transform="scale(0.015625)"/>
      </defs>
      <use xlink:href="#DejaVuSans-44" transform="translate(0 0.015625)"/>
      <use xlink:href="#DejaVuSans-69" transform="translate(77.001953 0.015625)"/>
      <use xlink:href="#DejaVuSans-73" transform="translate(104.785156 0.015625)"/>
      <use xlink:href="#DejaVuSans-74" transform="translate(156.884766 0.015625)"/>
      <use xlink:href="#DejaVuSans-61" transform="translate(196.09375 0.015625)"/>
      <use xlink:href="#DejaVuSans-6e" transform="translate(257.373047 0.015625)"/>
      <use xlink:href="#DejaVuSans-63" transform="translate(320.751953 0.015625)"/>
      <use xlink:href="#DejaVuSans-65" transform="translate(375.732422 0.015625)"/>
      <use xlink:href="#DejaVuSans-20" transform="translate(437.255859 0.015625)"/>
      <use xlink:href="#DejaVuSans-66" transform="translate(469.042969 0.015625)"/>
      <use xlink:href="#DejaVuSans-72" transform="translate(504.248047 0.015625)"/>
      <use xlink:href="#DejaVuSans-6f" transform="translate(545.361328 0.015625)"/>
      <use xlink:href="#DejaVuSans-6d" transform="translate(606.542969 0.015625)"/>
      <use xlink:href="#DejaVuSans-20" transform="translate(703.955078 0.015625)"/>
      <use xlink:href="#DejaVuSans-43" transform="translate(735.742188 0.015625)"/>
      <use xlink:href="#DejaVuSans-65" transform="translate(805.566406 0.015625)"/>
      <use xlink:href="#DejaVuSans-6e" transform="translate(867.089844 0.015625)"/>
      <use xlink:href="#DejaVuSans-74" transform="translate(930.46875 0.015625)"/>
      <use xlink:href="#DejaVuSans-65" transform="translate(969.677734 0.015625)"/>
      <use xlink:href="#DejaVuSans-72" transform="translate(1031.201172 0.015625)"/>
      <use xlink:href="#DejaVuSans-20" transform="translate(1072.314453 0.015625)"/>
      <use xlink:href="#DejaVuSans-28" transform="translate(1104.101562 0.015625)"/>
      <use xlink:href="#DejaVuSans-Oblique-3bc" transform="translate(1143.115234 0.015625)"/>
      <use xlink:href="#DejaVuSans-Oblique-6d" transform="translate(1206.738281 0.015625)"/>
      <use xlink:href="#DejaVuSans-29" transform="translate(1304.150391 0.015625)"/>
     </g>
    </g>
   </g>
   <g id="matplotlib.axis_2">
    <g id="ytick_1">
     <g id="line2d_8">
      <path d="M 51.32 285.094074 
L 450 285.094074 
" clip-path="url(#p44894d2019)" style="fill: none; stroke: #f2f2f2; stroke-width: 0.8; stroke-linecap: square"/>
     </g>
     <g id="line2d_9">
      <defs>
       <path id="m07b11c001b" d="M 0 0 
L -3.5 0 
" style="stroke: #000000; stroke-width: 0.8"/>
      </defs>
      <g>
       <use xlink:href="#m07b11c001b" x="51.32" y="285.094074" style="stroke: #000000; stroke-width: 0.8"/>
      </g>
     </g>
     <g id="text_9">
      <!-- 0.0 -->
      <g transform="translate(28.416875 288.893293) scale(0.1 -0.1)">
       <defs>
        <path id="DejaVuSans-2e" d="M 684 794 
L 1344 794 
L 1344 0 
L 684 0 
L 684 794 
z
" transform="scale(0.015625)"/>
       </defs>
       <use xlink:href="#DejaVuSans-30"/>
       <use xlink:href="#DejaVuSans-2e" x="63.623047"/>
       <use xlink:href="#DejaVuSans-30" x="95.410156"/>
      </g>
     </g>
    </g>
    <g id="ytick_2">
     <g id="line2d_10">
      <path d="M 51.32 228.817612 
L 450 228.817612 
" clip-path="url(#p44894d2019)" style="fill: none; stroke: #f2f2f2; stroke-width: 0.8; stroke-linecap: square"/>
     </g>
     <g id="line2d_11">
      <g>
       <use xlink:href="#m07b11c001b" x="51.32" y="228.817612" style="stroke: #000000; stroke-width: 0.8"/>
      </g>
     </g>
     <g id="text_10">
      <!-- 0.5 -->
      <g transform="translate(28.416875 232.61683) scale(0.1 -0.1)">
       <use xlink:href="#DejaVuSans-30"/>
       <use xlink:href="#DejaVuSans-2e" x="63.623047"/>
       <use xlink:href="#DejaVuSans-35" x="95.410156"/>
      </g>
     </g>
    </g>
    <g id="ytick_3">
     <g id="line2d_12">
      <path d="M 51.32 172.541149 
L 450 172.541149 
" clip-path="url(#p44894d2019)" style="fill: none; stroke: #f2f2f2; stroke-width: 0.8; stroke-linecap: square"/>
     </g>
     <g id="line2d_13">
      <g>
       <use xlink:href="#m07b11c001b" x="51.32" y="172.541149" style="stroke: #000000; stroke-width: 0.8"/>
      </g>
     </g>
     <g id="text_11">
      <!-- 1.0 -->
      <g transform="translate(28.416875 176.340368) scale(0.1 -0.1)">
       <use xlink:href="#DejaVuSans-31"/>
       <use xlink:href="#DejaVuSans-2e" x="63.623047"/>
       <use xlink:href="#DejaVuSans-30" x="95.410156"/>
      </g>
     </g>
    </g>
    <g id="ytick_4">
     <g id="line2d_14">
      <path d="M 51.32 116.264686 
L 450 116.264686 
" clip-path="url(#p44894d2019)" style="fill: none; stroke: #f2f2f2; stroke-width: 0.8; stroke-linecap: square"/>
     </g>
     <g id="line2d_15">
      <g>
       <use xlink:href="#m07b11c001b" x="51.32" y="116.264686" style="stroke: #000000; stroke-width: 0.8"/>
      </g>
     </g>
     <g id="text_12">
      <!-- 1.5 -->
      <g transform="translate(28.416875 120.063905) scale(0.1 -0.1)">
       <use xlink:href="#DejaVuSans-31"/>
       <use xlink:href="#DejaVuSans-2e" x="63.623047"/>
       <use xlink:href="#DejaVuSans-35" x="95.410156"/>
      </g>
     </g>
    </g>
    <g id="ytick_5">
     <g id="line2d_16">
      <path d="M 51.32 59.988223 
L 450 59.988223 
" clip-path="url(#p44894d2019)" style="fill: none; stroke: #f2f2f2; stroke-width: 0.8; stroke-linecap: square"/>
     </g>
     <g id="line2d_17">
      <g>
       <use xlink:href="#m07b11c001b" x="51.32" y="59.988223" style="stroke: #000000; stroke-width: 0.8"/>
      </g>
     </g>
     <g id="text_13">
      <!-- 2.0 -->
      <g transform="translate(28.416875 63.787442) scale(0.1 -0.1)">
       <use xlink:href="#DejaVuSans-32"/>
       <use xlink:href="#DejaVuSans-2e" x="63.623047"/>
       <use xlink:href="#DejaVuSans-30" x="95.410156"/>
      </g>
     </g>
    </g>
    <g id="text_14">
     <!-- Concentration (mM) -->
     <g transform="translate(21.505313 232.444531) rotate(-90) scale(0.14 -0.14)">
      <defs>
       <path id="DejaVuSans-4d" d="M 628 4666 
L 1569 4666 
L 2759 1491 
L 3956 4666 
L 4897 4666 
L 4897 0 
L 4281 0 
L 4281 4097 
L 3078 897 
L 2444 897 
L 1241 4097 
L 1241 0 
L 628 0 
L 628 4666 
z
" transform="scale(0.015625)"/>
      </defs>
      <use xlink:href="#DejaVuSans-43"/>
      <use xlink:href="#DejaVuSans-6f" x="69.824219"/>
      <use xlink:href="#DejaVuSans-6e" x="131.005859"/>
      <use xlink:href="#DejaVuSans-63" x="194.384766"/>
      <use xlink:href="#DejaVuSans-65" x="249.365234"/>
      <use xlink:href="#DejaVuSans-6e" x="310.888672"/>
      <use xlink:href="#DejaVuSans-74" x="374.267578"/>
      <use xlink:href="#DejaVuSans-72" x="413.476562"/>
      <use xlink:href="#DejaVuSans-61" x="454.589844"/>
      <use xlink:href="#DejaVuSans-74" x="515.869141"/>
      <use xlink:href="#DejaVuSans-69" x="555.078125"/>
      <use xlink:href="#DejaVuSans-6f" x="582.861328"/>
      <use xlink:href="#DejaVuSans-6e" x="644.042969"/>
      <use xlink:href="#DejaVuSans-20" x="707.421875"/>
      <use xlink:href="#DejaVuSans-28" x="739.208984"/>
      <use xlink:href="#DejaVuSans-6d" x="778.222656"/>
      <use xlink:href="#DejaVuSans-4d" x="875.634766"/>
      <use xlink:href="#DejaVuSans-29" x="961.914062"/>
     </g>
    </g>
   </g>
   <g id="line2d_18">
    <path d="M 69.441818 45.97804 
L 73.705775 45.882768 
L 77.969733 45.596845 
L 82.23369 45.120002 
L 86.497647 44.451831 
L 90.761604 43.591778 
L 95.025561 42.539152 
L 99.289519 41.293123 
L 103.553476 39.852727 
" clip-path="url(#p44894d2019)" style="fill: none; stroke: #1f77b4; stroke-opacity: 0.9; stroke-width: 3; stroke-linecap: square"/>
   </g>
   <g id="line2d_19">
    <path d="M 69.441818 67.130197 
L 73.705775 67.037791 
L 77.969733 66.760454 
L 82.23369 66.297894 
L 86.497647 65.649659 
L 90.761604 64.815144 
L 95.025561 63.793588 
L 99.289519 62.584079 
L 103.553476 61.185561 
L 107.817433 59.596833 
L 112.08139 57.816556 
L 116.345348 55.843261 
L 120.609305 53.675352 
L 124.873262 51.311112 
L 129.137219 48.748712 
L 133.401176 45.986219 
L 137.665134 43.021598 
L 141.929091 39.852727 
" clip-path="url(#p44894d2019)" style="fill: none; stroke: #ff7f0e; stroke-opacity: 0.9; stroke-width: 3; stroke-linecap: square"/>
   </g>
   <g id="line2d_20">
    <path d="M 69.441818 97.477497 
L 73.705775 97.389909 
L 77.969733 97.127007 
L 82.23369 96.688455 
L 86.497647 96.073735 
L 90.761604 95.282149 
L 95.025561 94.312825 
L 99.289519 93.164713 
L 103.553476 91.836597 
L 107.817433 90.327097 
L 112.08139 88.634673 
L 116.345348 86.757635 
L 120.609305 84.694145 
L 124.873262 82.44223 
L 129.137219 79.999783 
L 133.401176 77.364579 
L 137.665134 74.534279 
L 141.929091 71.50644 
L 146.193048 68.278524 
L 150.457005 64.847912 
L 154.720963 61.211908 
L 158.98492 57.367751 
L 163.248877 53.312628 
L 167.512834 49.043682 
L 171.776791 44.55802 
L 176.040749 39.852727 
" clip-path="url(#p44894d2019)" style="fill: none; stroke: #2ca02c; stroke-opacity: 0.9; stroke-width: 3; stroke-linecap: square"/>
   </g>
   <g id="line2d_21">
    <path d="M 69.441818 141.874984 
L 73.705775 141.796505 
L 77.969733 141.560897 
L 82.23369 141.167747 
L 86.497647 140.616414 
L 90.761604 139.906036 
L 95.025561 139.035532 
L 99.289519 138.003607 
L 103.553476 136.808753 
L 107.817433 135.44926 
L 112.08139 133.923219 
L 116.345348 132.22853 
L 120.609305 130.36291 
L 124.873262 128.323903 
L 129.137219 126.108888 
L 133.401176 123.715092 
L 137.665134 121.139596 
L 141.929091 118.37935 
L 146.193048 115.431187 
L 150.457005 112.291828 
L 154.720963 108.957904 
L 158.98492 105.425961 
L 163.248877 101.692478 
L 167.512834 97.75388 
L 171.776791 93.606548 
L 176.040749 89.246836 
L 180.304706 84.671083 
L 184.568663 79.875623 
L 188.83262 74.856803 
L 193.096578 69.610988 
L 197.360535 64.134578 
L 201.624492 58.424017 
L 205.888449 52.475803 
L 210.152406 46.286495 
L 214.416364 39.852727 
" clip-path="url(#p44894d2019)" style="fill: none; stroke: #d62728; stroke-opacity: 0.9; stroke-width: 3; stroke-linecap: square"/>
   </g>
   <g id="line2d_22">
    <path d="M 69.441818 186.166251 
L 73.705775 186.100673 
L 77.969733 185.903733 
L 82.23369 185.574922 
L 86.497647 185.113457 
L 90.761604 184.518282 
L 95.025561 183.788066 
L 99.289519 182.921217 
L 103.553476 181.915874 
L 107.817433 180.769922 
L 112.08139 179.480994 
L 116.345348 178.046478 
L 120.609305 176.463527 
L 124.873262 174.729066 
L 129.137219 172.839804 
L 133.401176 170.792244 
L 137.665134 168.582698 
L 141.929091 166.207295 
L 146.193048 163.662 
L 150.457005 160.942627 
L 154.720963 158.044856 
L 158.98492 154.964246 
L 163.248877 151.696258 
L 167.512834 148.236269 
L 171.776791 144.57959 
L 176.040749 140.721487 
L 180.304706 136.657195 
L 184.568663 132.381942 
L 188.83262 127.890962 
L 193.096578 123.179515 
L 197.360535 118.242905 
L 201.624492 113.076494 
L 205.888449 107.675719 
L 210.152406 102.036105 
L 214.416364 96.153281 
L 218.680321 90.02299 
L 222.944278 83.641099 
L 227.208235 77.003612 
L 231.472193 70.106675 
L 235.73615 62.946585 
L 240.000107 55.519795 
L 244.264064 47.822917 
L 248.528021 39.852727 
" clip-path="url(#p44894d2019)" style="fill: none; stroke: #9467bd; stroke-opacity: 0.9; stroke-width: 3; stroke-linecap: square"/>
   </g>
   <g id="line2d_23">
    <path d="M 69.441818 233.01374 
L 73.705775 232.969374 
L 77.969733 232.836044 
L 82.23369 232.613182 
L 86.497647 232.299907 
L 90.761604 231.895029 
L 95.025561 231.397043 
L 99.289519 230.804132 
L 103.553476 230.114165 
L 107.817433 229.324698 
L 112.08139 228.432972 
L 116.345348 227.435917 
L 120.609305 226.330151 
L 124.873262 225.111986 
L 129.137219 223.777428 
L 133.401176 222.322184 
L 137.665134 220.741671 
L 141.929091 219.031019 
L 146.193048 217.185089 
L 150.457005 215.198478 
L 154.720963 213.065537 
L 158.98492 210.780389 
L 163.248877 208.336944 
L 167.512834 205.728924 
L 171.776791 202.949884 
L 176.040749 199.993236 
L 180.304706 196.852279 
L 184.568663 193.520226 
L 188.83262 189.990232 
L 193.096578 186.255428 
L 197.360535 182.30895 
L 201.624492 178.143967 
L 205.888449 173.753719 
L 210.152406 169.131542 
L 214.416364 164.270895 
L 218.680321 159.165394 
L 222.944278 153.808831 
L 227.208235 148.195201 
L 231.472193 142.318718 
L 235.73615 136.17384 
L 240.000107 129.755276 
L 244.264064 123.058004 
L 248.528021 116.077279 
L 252.791979 108.808636 
L 257.055936 101.247898 
L 261.319893 93.391175 
L 265.58385 85.234862 
L 269.847807 76.775639 
L 274.111765 68.010459 
L 278.375722 58.936549 
L 282.639679 49.551392 
L 286.903636 39.852727 
" clip-path="url(#p44894d2019)" style="fill: none; stroke: #8c564b; stroke-opacity: 0.9; stroke-width: 3; stroke-linecap: square"/>
   </g>
   <g id="line2d_24">
    <path d="M 69.441818 265.697802 
L 73.705775 265.677175 
L 77.969733 265.615124 
L 82.23369 265.511238 
L 86.497647 265.364871 
L 90.761604 265.175149 
L 95.025561 264.940954 
L 99.289519 264.660924 
L 103.553476 264.333442 
L 107.817433 263.956625 
L 112.08139 263.528316 
L 116.345348 263.046072 
L 120.609305 262.50715 
L 124.873262 261.908495 
L 129.137219 261.246723 
L 133.401176 260.51811 
L 137.665134 259.718575 
L 141.929091 258.843668 
L 146.193048 257.888553 
L 150.457005 256.847997 
L 154.720963 255.716358 
L 158.98492 254.487575 
L 163.248877 253.155161 
L 167.512834 251.712204 
L 171.776791 250.151358 
L 176.040749 248.464857 
L 180.304706 246.644519 
L 184.568663 244.681765 
L 188.83262 242.567638 
L 193.096578 240.292833 
L 197.360535 237.847732 
L 201.624492 235.222447 
L 205.888449 232.406863 
L 210.152406 229.390701 
L 214.416364 226.163568 
L 218.680321 222.715027 
L 222.944278 219.034662 
L 227.208235 215.112149 
L 231.472193 210.937318 
L 235.73615 206.500229 
L 240.000107 201.791234 
L 244.264064 196.801033 
L 248.528021 191.520735 
L 252.791979 185.941904 
L 257.055936 180.056599 
L 261.319893 173.857405 
L 265.58385 167.337463 
L 269.847807 160.490477 
L 274.111765 153.310727 
L 278.375722 145.793069 
L 282.639679 137.932925 
L 286.903636 129.72627 
L 291.167594 121.169613 
L 295.431551 112.259976 
L 299.695508 102.994862 
L 303.959465 93.372232 
L 308.223422 83.390468 
L 312.48738 73.048343 
L 316.751337 62.34499 
L 321.015294 51.279867 
L 325.279251 39.852727 
" clip-path="url(#p44894d2019)" style="fill: none; stroke: #e377c2; stroke-opacity: 0.9; stroke-width: 3; stroke-linecap: square"/>
   </g>
   <g id="line2d_25">
    <path d="M 69.441818 279.319656 
L 73.705775 279.312806 
L 77.969733 279.292185 
L 82.23369 279.257623 
L 86.497647 279.208853 
L 90.761604 279.145506 
L 95.025561 279.067114 
L 99.289519 278.973099 
L 103.553476 278.862767 
L 107.817433 278.735304 
L 112.08139 278.589762 
L 116.345348 278.425055 
L 120.609305 278.239942 
L 124.873262 278.033017 
L 129.137219 277.802692 
L 133.401176 277.547182 
L 137.665134 277.264487 
L 141.929091 276.952366 
L 146.193048 276.608323 
L 150.457005 276.229573 
L 154.720963 275.813021 
L 158.98492 275.355229 
L 163.248877 274.852386 
L 167.512834 274.300272 
L 171.776791 273.694223 
L 176.040749 273.029093 
L 180.304706 272.299215 
L 184.568663 271.498362 
L 188.83262 270.619704 
L 193.096578 269.655776 
L 197.360535 268.598436 
L 201.624492 267.438839 
L 205.888449 266.167405 
L 210.152406 264.773807 
L 214.416364 263.246957 
L 218.680321 261.575014 
L 222.944278 259.745402 
L 227.208235 257.744842 
L 231.472193 255.559405 
L 235.73615 253.174586 
L 240.000107 250.575394 
L 244.264064 247.746463 
L 248.528021 244.672179 
L 252.791979 241.336826 
L 257.055936 237.724735 
L 261.319893 233.820453 
L 265.58385 229.608899 
L 269.847807 225.07553 
L 274.111765 220.206482 
L 278.375722 214.988712 
L 282.639679 209.410111 
L 286.903636 203.459597 
L 291.167594 197.127183 
L 295.431551 190.404019 
L 299.695508 183.282414 
L 303.959465 175.755827 
L 308.223422 167.81884 
L 312.48738 159.467118 
L 316.751337 150.697343 
L 321.015294 141.507149 
L 325.279251 131.895043 
L 329.543209 121.860321 
L 333.807166 111.402984 
L 338.071123 100.523657 
L 342.33508 89.223505 
L 346.599037 77.504158 
L 350.862995 65.367637 
L 355.126952 52.816289 
L 359.390909 39.852727 
" clip-path="url(#p44894d2019)" style="fill: none; stroke: #7f7f7f; stroke-opacity: 0.9; stroke-width: 3; stroke-linecap: square"/>
   </g>
   <g id="line2d_26">
    <path d="M 69.441818 284.027719 
L 73.705775 284.026401 
L 77.969733 284.022434 
L 82.23369 284.01578 
L 86.497647 284.006386 
L 90.761604 283.994173 
L 95.025561 283.979042 
L 99.289519 283.960872 
L 103.553476 283.939515 
L 107.817433 283.914798 
L 112.08139 283.886518 
L 116.345348 283.85444 
L 120.609305 283.818294 
L 124.873262 283.77777 
L 129.137219 283.732519 
L 133.401176 283.68214 
L 137.665134 283.626179 
L 141.929091 283.564123 
L 146.193048 283.495391 
L 150.457005 283.419325 
L 154.720963 283.335181 
L 158.98492 283.242117 
L 163.248877 283.139181 
L 167.512834 283.025296 
L 171.776791 282.89924 
L 176.040749 282.75963 
L 180.304706 282.6049 
L 184.568663 282.433271 
L 188.83262 282.242727 
L 193.096578 282.030978 
L 197.360535 281.795424 
L 201.624492 281.533115 
L 205.888449 281.240696 
L 210.152406 280.914358 
L 214.416364 280.549779 
L 218.680321 280.142051 
L 222.944278 279.685609 
L 227.208235 279.17415 
L 231.472193 278.600544 
L 235.73615 277.956741 
L 240.000107 277.233673 
L 244.264064 276.421153 
L 248.528021 275.50778 
L 252.791979 274.480839 
L 257.055936 273.326222 
L 261.319893 272.028358 
L 265.58385 270.570174 
L 269.847807 268.933081 
L 274.111765 267.097011 
L 278.375722 265.040495 
L 282.639679 262.740805 
L 286.903636 260.174151 
L 291.167594 257.315947 
L 295.431551 254.141134 
L 299.695508 250.624546 
L 303.959465 246.741323 
L 308.223422 242.467333 
L 312.48738 237.779591 
L 316.751337 232.656649 
L 321.015294 227.078945 
L 325.279251 221.029071 
L 329.543209 214.491981 
L 333.807166 207.455098 
L 338.071123 199.908348 
L 342.33508 191.844118 
L 346.599037 183.25714 
L 350.862995 174.14433 
L 355.126952 164.504587 
L 359.390909 154.338571 
L 363.654866 143.648466 
L 367.918824 132.437746 
L 372.182781 120.710955 
L 376.446738 108.47349 
L 380.710695 95.731417 
L 384.974652 82.491296 
L 389.23861 68.760035 
L 393.502567 54.544764 
L 397.766524 39.852727 
" clip-path="url(#p44894d2019)" style="fill: none; stroke: #bcbd22; stroke-opacity: 0.9; stroke-width: 3; stroke-linecap: square"/>
   </g>
   <g id="line2d_27">
    <path d="M 69.441818 284.907273 
L 73.705775 284.90704 
L 77.969733 284.90634 
L 82.23369 284.905165 
L 86.497647 284.903506 
L 90.761604 284.901348 
L 95.025561 284.898675 
L 99.289519 284.895464 
L 103.553476 284.891689 
L 107.817433 284.887318 
L 112.08139 284.882315 
L 116.345348 284.876637 
L 120.609305 284.870236 
L 124.873262 284.863055 
L 129.137219 284.855032 
L 133.401176 284.846092 
L 137.665134 284.836154 
L 141.929091 284.825123 
L 146.193048 284.812893 
L 150.457005 284.799342 
L 154.720963 284.784334 
L 158.98492 284.767712 
L 163.248877 284.749298 
L 167.512834 284.728891 
L 171.776791 284.706261 
L 176.040749 284.681146 
L 180.304706 284.653246 
L 184.568663 284.62222 
L 188.83262 284.587676 
L 193.096578 284.549167 
L 197.360535 284.506179 
L 201.624492 284.458121 
L 205.888449 284.404313 
L 210.152406 284.343973 
L 214.416364 284.276197 
L 218.680321 284.199941 
L 222.944278 284.113998 
L 227.208235 284.016969 
L 231.472193 283.907232 
L 235.73615 283.782902 
L 240.000107 283.641789 
L 244.264064 283.481346 
L 248.528021 283.298605 
L 252.791979 283.090109 
L 257.055936 282.851829 
L 261.319893 282.579069 
L 265.58385 282.266353 
L 269.847807 281.907303 
L 274.111765 281.494495 
L 278.375722 281.019299 
L 282.639679 280.471702 
L 286.903636 279.840119 
L 291.167594 279.111183 
L 295.431551 278.269543 
L 299.695508 277.297652 
L 303.959465 276.175578 
L 308.223422 274.880848 
L 312.48738 273.388343 
L 316.751337 271.670269 
L 321.015294 269.696241 
L 325.279251 267.433482 
L 329.543209 264.847183 
L 333.807166 261.901009 
L 338.071123 258.557767 
L 342.33508 254.780197 
L 346.599037 250.531853 
L 350.862995 245.778015 
L 355.126952 240.486569 
L 359.390909 234.628778 
L 363.654866 228.179901 
L 367.918824 221.119607 
L 372.182781 213.432176 
L 376.446738 205.106493 
L 380.710695 196.135849 
L 384.974652 186.517598 
L 389.23861 176.252716 
L 393.502567 165.34529 
L 397.766524 153.801997 
L 402.030481 141.631589 
L 406.294439 128.844414 
L 410.558396 115.451982 
L 414.822353 101.466591 
L 419.08631 86.90101 
L 423.350267 71.768217 
L 427.614225 56.081186 
L 431.878182 39.852727 
" clip-path="url(#p44894d2019)" style="fill: none; stroke: #17becf; stroke-opacity: 0.9; stroke-width: 3; stroke-linecap: square"/>
   </g>
   <g id="patch_3">
    <path d="M 51.32 297.16 
L 51.32 27.6 
" style="fill: none; stroke: #000000; stroke-width: 0.8; stroke-linejoin: miter; stroke-linecap: square"/>
   </g>
   <g id="patch_4">
    <path d="M 450 297.16 
L 450 27.6 
" style="fill: none; stroke: #000000; stroke-width: 0.8; stroke-linejoin: miter; stroke-linecap: square"/>
   </g>
   <g id="patch_5">
    <path d="M 51.32 297.16 
L 450 297.16 
" style="fill: none; stroke: #000000; stroke-width: 0.8; stroke-linejoin: miter; stroke-linecap: square"/>
   </g>
   <g id="patch_6">
    <path d="M 51.32 27.6 
L 450 27.6 
" style="fill: none; stroke: #000000; stroke-width: 0.8; stroke-linejoin: miter; stroke-linecap: square"/>
   </g>
   <g id="text_15">
    <!-- EGLN -->
    <g transform="translate(231.675781 21.6) scale(0.14 -0.14)">
     <defs>
      <path id="DejaVuSans-45" d="M 628 4666 
L 3578 4666 
L 3578 4134 
L 1259 4134 
L 1259 2753 
L 3481 2753 
L 3481 2222 
L 1259 2222 
L 1259 531 
L 3634 531 
L 3634 0 
L 628 0 
L 628 4666 
z
" transform="scale(0.015625)"/>
      <path id="DejaVuSans-47" d="M 3809 666 
L 3809 1919 
L 2778 1919 
L 2778 2438 
L 4434 2438 
L 4434 434 
Q 4069 175 3628 42 
Q 3188 -91 2688 -91 
Q 1594 -91 976 548 
Q 359 1188 359 2328 
Q 359 3472 976 4111 
Q 1594 4750 2688 4750 
Q 3144 4750 3555 4637 
Q 3966 4525 4313 4306 
L 4313 3634 
Q 3963 3931 3569 4081 
Q 3175 4231 2741 4231 
Q 1884 4231 1454 3753 
Q 1025 3275 1025 2328 
Q 1025 1384 1454 906 
Q 1884 428 2741 428 
Q 3075 428 3337 486 
Q 3600 544 3809 666 
z
" transform="scale(0.015625)"/>
      <path id="DejaVuSans-4c" d="M 628 4666 
L 1259 4666 
L 1259 531 
L 3531 531 
L 3531 0 
L 628 0 
L 628 4666 
z
" transform="scale(0.015625)"/>
      <path id="DejaVuSans-4e" d="M 628 4666 
L 1478 4666 
L 3547 763 
L 3547 4666 
L 4159 4666 
L 4159 0 
L 3309 0 
L 1241 3903 
L 1241 0 
L 628 0 
L 628 4666 
z
" transform="scale(0.015625)"/>
     </defs>
     <use xlink:href="#DejaVuSans-45"/>
     <use xlink:href="#DejaVuSans-47" x="63.183594"/>
     <use xlink:href="#DejaVuSans-4c" x="140.673828"/>
     <use xlink:href="#DejaVuSans-4e" x="196.386719"/>
    </g>
   </g>
   <g id="legend_1">
    <g id="patch_7">
     <path d="M 349.070312 291.66 
L 442.3 291.66 
Q 444.5 291.66 444.5 289.46 
L 444.5 113.9225 
Q 444.5 111.7225 442.3 111.7225 
L 349.070312 111.7225 
Q 346.870313 111.7225 346.870313 113.9225 
L 346.870313 289.46 
Q 346.870313 291.66 349.070312 291.66 
z
" style="fill: #ffffff; opacity: 0.8; stroke: #cccccc; stroke-linejoin: miter"/>
    </g>
    <g id="text_16">
     <!-- Aggregate Radius -->
     <g transform="translate(351.270312 123.720937) scale(0.1 -0.1)">
      <defs>
       <path id="DejaVuSans-41" d="M 2188 4044 
L 1331 1722 
L 3047 1722 
L 2188 4044 
z
M 1831 4666 
L 2547 4666 
L 4325 0 
L 3669 0 
L 3244 1197 
L 1141 1197 
L 716 0 
L 50 0 
L 1831 4666 
z
" transform="scale(0.015625)"/>
       <path id="DejaVuSans-67" d="M 2906 1791 
Q 2906 2416 2648 2759 
Q 2391 3103 1925 3103 
Q 1463 3103 1205 2759 
Q 947 2416 947 1791 
Q 947 1169 1205 825 
Q 1463 481 1925 481 
Q 2391 481 2648 825 
Q 2906 1169 2906 1791 
z
M 3481 434 
Q 3481 -459 3084 -895 
Q 2688 -1331 1869 -1331 
Q 1566 -1331 1297 -1286 
Q 1028 -1241 775 -1147 
L 775 -588 
Q 1028 -725 1275 -790 
Q 1522 -856 1778 -856 
Q 2344 -856 2625 -561 
Q 2906 -266 2906 331 
L 2906 616 
Q 2728 306 2450 153 
Q 2172 0 1784 0 
Q 1141 0 747 490 
Q 353 981 353 1791 
Q 353 2603 747 3093 
Q 1141 3584 1784 3584 
Q 2172 3584 2450 3431 
Q 2728 3278 2906 2969 
L 2906 3500 
L 3481 3500 
L 3481 434 
z
" transform="scale(0.015625)"/>
       <path id="DejaVuSans-52" d="M 2841 2188 
Q 3044 2119 3236 1894 
Q 3428 1669 3622 1275 
L 4263 0 
L 3584 0 
L 2988 1197 
Q 2756 1666 2539 1819 
Q 2322 1972 1947 1972 
L 1259 1972 
L 1259 0 
L 628 0 
L 628 4666 
L 2053 4666 
Q 2853 4666 3247 4331 
Q 3641 3997 3641 3322 
Q 3641 2881 3436 2590 
Q 3231 2300 2841 2188 
z
M 1259 4147 
L 1259 2491 
L 2053 2491 
Q 2509 2491 2742 2702 
Q 2975 2913 2975 3322 
Q 2975 3731 2742 3939 
Q 2509 4147 2053 4147 
L 1259 4147 
z
" transform="scale(0.015625)"/>
       <path id="DejaVuSans-64" d="M 2906 2969 
L 2906 4863 
L 3481 4863 
L 3481 0 
L 2906 0 
L 2906 525 
Q 2725 213 2448 61 
Q 2172 -91 1784 -91 
Q 1150 -91 751 415 
Q 353 922 353 1747 
Q 353 2572 751 3078 
Q 1150 3584 1784 3584 
Q 2172 3584 2448 3432 
Q 2725 3281 2906 2969 
z
M 947 1747 
Q 947 1113 1208 752 
Q 1469 391 1925 391 
Q 2381 391 2643 752 
Q 2906 1113 2906 1747 
Q 2906 2381 2643 2742 
Q 2381 3103 1925 3103 
Q 1469 3103 1208 2742 
Q 947 2381 947 1747 
z
" transform="scale(0.015625)"/>
       <path id="DejaVuSans-75" d="M 544 1381 
L 544 3500 
L 1119 3500 
L 1119 1403 
Q 1119 906 1312 657 
Q 1506 409 1894 409 
Q 2359 409 2629 706 
Q 2900 1003 2900 1516 
L 2900 3500 
L 3475 3500 
L 3475 0 
L 2900 0 
L 2900 538 
Q 2691 219 2414 64 
Q 2138 -91 1772 -91 
Q 1169 -91 856 284 
Q 544 659 544 1381 
z
M 1991 3584 
L 1991 3584 
z
" transform="scale(0.015625)"/>
      </defs>
      <use xlink:href="#DejaVuSans-41"/>
      <use xlink:href="#DejaVuSans-67" x="68.408203"/>
      <use xlink:href="#DejaVuSans-67" x="131.884766"/>
      <use xlink:href="#DejaVuSans-72" x="195.361328"/>
      <use xlink:href="#DejaVuSans-65" x="234.224609"/>
      <use xlink:href="#DejaVuSans-67" x="295.748047"/>
      <use xlink:href="#DejaVuSans-61" x="359.224609"/>
      <use xlink:href="#DejaVuSans-74" x="420.503906"/>
      <use xlink:href="#DejaVuSans-65" x="459.712891"/>
      <use xlink:href="#DejaVuSans-20" x="521.236328"/>
      <use xlink:href="#DejaVuSans-52" x="553.023438"/>
      <use xlink:href="#DejaVuSans-61" x="620.255859"/>
      <use xlink:href="#DejaVuSans-64" x="681.535156"/>
      <use xlink:href="#DejaVuSans-69" x="745.011719"/>
      <use xlink:href="#DejaVuSans-75" x="772.794922"/>
      <use xlink:href="#DejaVuSans-73" x="836.173828"/>
     </g>
    </g>
    <g id="line2d_28">
     <path d="M 369.787031 135.808906 
L 380.787031 135.808906 
L 391.787031 135.808906 
" style="fill: none; stroke: #1f77b4; stroke-opacity: 0.9; stroke-width: 3; stroke-linecap: square"/>
    </g>
    <g id="text_17">
     <!-- 60 -->
     <g transform="translate(400.587031 139.658906) scale(0.11 -0.11)">
      <use xlink:href="#DejaVuSans-36"/>
      <use xlink:href="#DejaVuSans-30" x="63.623047"/>
     </g>
    </g>
    <g id="line2d_29">
     <path d="M 369.787031 151.954844 
L 380.787031 151.954844 
L 391.787031 151.954844 
" style="fill: none; stroke: #ff7f0e; stroke-opacity: 0.9; stroke-width: 3; stroke-linecap: square"/>
    </g>
    <g id="text_18">
     <!-- 120 -->
     <g transform="translate(400.587031 155.804844) scale(0.11 -0.11)">
      <use xlink:href="#DejaVuSans-31"/>
      <use xlink:href="#DejaVuSans-32" x="63.623047"/>
      <use xlink:href="#DejaVuSans-30" x="127.246094"/>
     </g>
    </g>
    <g id="line2d_30">
     <path d="M 369.787031 168.100781 
L 380.787031 168.100781 
L 391.787031 168.100781 
" style="fill: none; stroke: #2ca02c; stroke-opacity: 0.9; stroke-width: 3; stroke-linecap: square"/>
    </g>
    <g id="text_19">
     <!-- 180 -->
     <g transform="translate(400.587031 171.950781) scale(0.11 -0.11)">
      <defs>
       <path id="DejaVuSans-38" d="M 2034 2216 
Q 1584 2216 1326 1975 
Q 1069 1734 1069 1313 
Q 1069 891 1326 650 
Q 1584 409 2034 409 
Q 2484 409 2743 651 
Q 3003 894 3003 1313 
Q 3003 1734 2745 1975 
Q 2488 2216 2034 2216 
z
M 1403 2484 
Q 997 2584 770 2862 
Q 544 3141 544 3541 
Q 544 4100 942 4425 
Q 1341 4750 2034 4750 
Q 2731 4750 3128 4425 
Q 3525 4100 3525 3541 
Q 3525 3141 3298 2862 
Q 3072 2584 2669 2484 
Q 3125 2378 3379 2068 
Q 3634 1759 3634 1313 
Q 3634 634 3220 271 
Q 2806 -91 2034 -91 
Q 1263 -91 848 271 
Q 434 634 434 1313 
Q 434 1759 690 2068 
Q 947 2378 1403 2484 
z
M 1172 3481 
Q 1172 3119 1398 2916 
Q 1625 2713 2034 2713 
Q 2441 2713 2670 2916 
Q 2900 3119 2900 3481 
Q 2900 3844 2670 4047 
Q 2441 4250 2034 4250 
Q 1625 4250 1398 4047 
Q 1172 3844 1172 3481 
z
" transform="scale(0.015625)"/>
      </defs>
      <use xlink:href="#DejaVuSans-31"/>
      <use xlink:href="#DejaVuSans-38" x="63.623047"/>
      <use xlink:href="#DejaVuSans-30" x="127.246094"/>
     </g>
    </g>
    <g id="line2d_31">
     <path d="M 369.787031 184.246719 
L 380.787031 184.246719 
L 391.787031 184.246719 
" style="fill: none; stroke: #d62728; stroke-opacity: 0.9; stroke-width: 3; stroke-linecap: square"/>
    </g>
    <g id="text_20">
     <!-- 240 -->
     <g transform="translate(400.587031 188.096719) scale(0.11 -0.11)">
      <use xlink:href="#DejaVuSans-32"/>
      <use xlink:href="#DejaVuSans-34" x="63.623047"/>
      <use xlink:href="#DejaVuSans-30" x="127.246094"/>
     </g>
    </g>
    <g id="line2d_32">
     <path d="M 369.787031 200.392656 
L 380.787031 200.392656 
L 391.787031 200.392656 
" style="fill: none; stroke: #9467bd; stroke-opacity: 0.9; stroke-width: 3; stroke-linecap: square"/>
    </g>
    <g id="text_21">
     <!-- 300 -->
     <g transform="translate(400.587031 204.242656) scale(0.11 -0.11)">
      <use xlink:href="#DejaVuSans-33"/>
      <use xlink:href="#DejaVuSans-30" x="63.623047"/>
      <use xlink:href="#DejaVuSans-30" x="127.246094"/>
     </g>
    </g>
    <g id="line2d_33">
     <path d="M 369.787031 216.538594 
L 380.787031 216.538594 
L 391.787031 216.538594 
" style="fill: none; stroke: #8c564b; stroke-opacity: 0.9; stroke-width: 3; stroke-linecap: square"/>
    </g>
    <g id="text_22">
     <!-- 360 -->
     <g transform="translate(400.587031 220.388594) scale(0.11 -0.11)">
      <use xlink:href="#DejaVuSans-33"/>
      <use xlink:href="#DejaVuSans-36" x="63.623047"/>
      <use xlink:href="#DejaVuSans-30" x="127.246094"/>
     </g>
    </g>
    <g id="line2d_34">
     <path d="M 369.787031 232.684531 
L 380.787031 232.684531 
L 391.787031 232.684531 
" style="fill: none; stroke: #e377c2; stroke-opacity: 0.9; stroke-width: 3; stroke-linecap: square"/>
    </g>
    <g id="text_23">
     <!-- 420 -->
     <g transform="translate(400.587031 236.534531) scale(0.11 -0.11)">
      <use xlink:href="#DejaVuSans-34"/>
      <use xlink:href="#DejaVuSans-32" x="63.623047"/>
      <use xlink:href="#DejaVuSans-30" x="127.246094"/>
     </g>
    </g>
    <g id="line2d_35">
     <path d="M 369.787031 248.830469 
L 380.787031 248.830469 
L 391.787031 248.830469 
" style="fill: none; stroke: #7f7f7f; stroke-opacity: 0.9; stroke-width: 3; stroke-linecap: square"/>
    </g>
    <g id="text_24">
     <!-- 480 -->
     <g transform="translate(400.587031 252.680469) scale(0.11 -0.11)">
      <use xlink:href="#DejaVuSans-34"/>
      <use xlink:href="#DejaVuSans-38" x="63.623047"/>
      <use xlink:href="#DejaVuSans-30" x="127.246094"/>
     </g>
    </g>
    <g id="line2d_36">
     <path d="M 369.787031 264.976406 
L 380.787031 264.976406 
L 391.787031 264.976406 
" style="fill: none; stroke: #bcbd22; stroke-opacity: 0.9; stroke-width: 3; stroke-linecap: square"/>
    </g>
    <g id="text_25">
     <!-- 540 -->
     <g transform="translate(400.587031 268.826406) scale(0.11 -0.11)">
      <use xlink:href="#DejaVuSans-35"/>
      <use xlink:href="#DejaVuSans-34" x="63.623047"/>
      <use xlink:href="#DejaVuSans-30" x="127.246094"/>
     </g>
    </g>
    <g id="line2d_37">
     <path d="M 369.787031 281.122344 
L 380.787031 281.122344 
L 391.787031 281.122344 
" style="fill: none; stroke: #17becf; stroke-opacity: 0.9; stroke-width: 3; stroke-linecap: square"/>
    </g>
    <g id="text_26">
     <!-- 600 -->
     <g transform="translate(400.587031 284.972344) scale(0.11 -0.11)">
      <use xlink:href="#DejaVuSans-36"/>
      <use xlink:href="#DejaVuSans-30" x="63.623047"/>
      <use xlink:href="#DejaVuSans-30" x="127.246094"/>
     </g>
    </g>
   </g>
  </g>
 </g>
 <defs>
  <clipPath id="p44894d2019">
   <rect x="51.32" y="27.6" width="398.68" height="269.56"/>
  </clipPath>
 </defs>
</svg>
