<?xml version="1.0" encoding="utf-8" standalone="no"?>
<!DOCTYPE svg PUBLIC "-//W3C//DTD SVG 1.1//EN"
  "http://www.w3.org/Graphics/SVG/1.1/DTD/svg11.dtd">
<svg xmlns:xlink="http://www.w3.org/1999/xlink" width="460.8pt" height="345.6pt" viewBox="0 0 460.8 345.6" xmlns="http://www.w3.org/2000/svg" version="1.1">
 <metadata>
  <rdf:RDF xmlns:dc="http://purl.org/dc/elements/1.1/" xmlns:cc="http://creativecommons.org/ns#" xmlns:rdf="http://www.w3.org/1999/02/22-rdf-syntax-ns#">
   <cc:Work>
    <dc:type rdf:resource="http://purl.org/dc/dcmitype/StillImage"/>
    <dc:date>2023-02-20T22:34:55.313174</dc:date>
    <dc:format>image/svg+xml</dc:format>
    <dc:creator>
     <cc:Agent>
      <dc:title>Matplotlib v3.6.2, https://matplotlib.org/</dc:title>
     </cc:Agent>
    </dc:creator>
   </cc:Work>
  </rdf:RDF>
 </metadata>
 <defs>
  <style type="text/css">*{stroke-linejoin: round; stroke-linecap: butt}</style>
 </defs>
 <g id="figure_1">
  <g id="patch_1">
   <path d="M 0 345.6 
L 460.8 345.6 
L 460.8 0 
L 0 0 
z
" style="fill: #ffffff"/>
  </g>
  <g id="axes_1">
   <g id="patch_2">
    <path d="M 67.52 286.36 
L 262.484 286.36 
L 262.484 34.08 
L 67.52 34.08 
z
" style="fill: #ffffff"/>
   </g>
   <g id="matplotlib.axis_1">
    <g id="xtick_1">
     <g id="line2d_1">
      <defs>
       <path id="m8b5211dd88" d="M 0 0 
L 0 3.5 
" style="stroke: #000000; stroke-width: 0.8"/>
      </defs>
      <g>
       <use xlink:href="#m8b5211dd88" x="76.382" y="286.36" style="stroke: #000000; stroke-width: 0.8"/>
      </g>
     </g>
     <g id="text_1">
      <!-- 0 -->
      <g transform="translate(71.292 305.5175) scale(0.16 -0.16)">
       <defs>
        <path id="DejaVuSans-30" d="M 2034 4250 
Q 1547 4250 1301 3770 
Q 1056 3291 1056 2328 
Q 1056 1369 1301 889 
Q 1547 409 2034 409 
Q 2525 409 2770 889 
Q 3016 1369 3016 2328 
Q 3016 3291 2770 3770 
Q 2525 4250 2034 4250 
z
M 2034 4750 
Q 2819 4750 3233 4129 
Q 3647 3509 3647 2328 
Q 3647 1150 3233 529 
Q 2819 -91 2034 -91 
Q 1250 -91 836 529 
Q 422 1150 422 2328 
Q 422 3509 836 4129 
Q 1250 4750 2034 4750 
z
" transform="scale(0.015625)"/>
       </defs>
       <use xlink:href="#DejaVuSans-30"/>
      </g>
     </g>
    </g>
    <g id="xtick_2">
     <g id="line2d_2">
      <g>
       <use xlink:href="#m8b5211dd88" x="135.958471" y="286.36" style="stroke: #000000; stroke-width: 0.8"/>
      </g>
     </g>
     <g id="text_2">
      <!-- 200 -->
      <g transform="translate(120.688471 305.5175) scale(0.16 -0.16)">
       <defs>
        <path id="DejaVuSans-32" d="M 1228 531 
L 3431 531 
L 3431 0 
L 469 0 
L 469 531 
Q 828 903 1448 1529 
Q 2069 2156 2228 2338 
Q 2531 2678 2651 2914 
Q 2772 3150 2772 3378 
Q 2772 3750 2511 3984 
Q 2250 4219 1831 4219 
Q 1534 4219 1204 4116 
Q 875 4013 500 3803 
L 500 4441 
Q 881 4594 1212 4672 
Q 1544 4750 1819 4750 
Q 2544 4750 2975 4387 
Q 3406 4025 3406 3419 
Q 3406 3131 3298 2873 
Q 3191 2616 2906 2266 
Q 2828 2175 2409 1742 
Q 1991 1309 1228 531 
z
" transform="scale(0.015625)"/>
       </defs>
       <use xlink:href="#DejaVuSans-32"/>
       <use xlink:href="#DejaVuSans-30" x="63.623047"/>
       <use xlink:href="#DejaVuSans-30" x="127.246094"/>
      </g>
     </g>
    </g>
    <g id="xtick_3">
     <g id="line2d_3">
      <g>
       <use xlink:href="#m8b5211dd88" x="195.534941" y="286.36" style="stroke: #000000; stroke-width: 0.8"/>
      </g>
     </g>
     <g id="text_3">
      <!-- 400 -->
      <g transform="translate(180.264941 305.5175) scale(0.16 -0.16)">
       <defs>
        <path id="DejaVuSans-34" d="M 2419 4116 
L 825 1625 
L 2419 1625 
L 2419 4116 
z
M 2253 4666 
L 3047 4666 
L 3047 1625 
L 3713 1625 
L 3713 1100 
L 3047 1100 
L 3047 0 
L 2419 0 
L 2419 1100 
L 313 1100 
L 313 1709 
L 2253 4666 
z
" transform="scale(0.015625)"/>
       </defs>
       <use xlink:href="#DejaVuSans-34"/>
       <use xlink:href="#DejaVuSans-30" x="63.623047"/>
       <use xlink:href="#DejaVuSans-30" x="127.246094"/>
      </g>
     </g>
    </g>
    <g id="xtick_4">
     <g id="line2d_4">
      <g>
       <use xlink:href="#m8b5211dd88" x="255.111412" y="286.36" style="stroke: #000000; stroke-width: 0.8"/>
      </g>
     </g>
     <g id="text_4">
      <!-- 600 -->
      <g transform="translate(239.841412 305.5175) scale(0.16 -0.16)">
       <defs>
        <path id="DejaVuSans-36" d="M 2113 2584 
Q 1688 2584 1439 2293 
Q 1191 2003 1191 1497 
Q 1191 994 1439 701 
Q 1688 409 2113 409 
Q 2538 409 2786 701 
Q 3034 994 3034 1497 
Q 3034 2003 2786 2293 
Q 2538 2584 2113 2584 
z
M 3366 4563 
L 3366 3988 
Q 3128 4100 2886 4159 
Q 2644 4219 2406 4219 
Q 1781 4219 1451 3797 
Q 1122 3375 1075 2522 
Q 1259 2794 1537 2939 
Q 1816 3084 2150 3084 
Q 2853 3084 3261 2657 
Q 3669 2231 3669 1497 
Q 3669 778 3244 343 
Q 2819 -91 2113 -91 
Q 1303 -91 875 529 
Q 447 1150 447 2328 
Q 447 3434 972 4092 
Q 1497 4750 2381 4750 
Q 2619 4750 2861 4703 
Q 3103 4656 3366 4563 
z
" transform="scale(0.015625)"/>
       </defs>
       <use xlink:href="#DejaVuSans-36"/>
       <use xlink:href="#DejaVuSans-30" x="63.623047"/>
       <use xlink:href="#DejaVuSans-30" x="127.246094"/>
      </g>
     </g>
    </g>
    <g id="text_5">
     <!-- Distance from Center $(\mu m)$ -->
     <g transform="translate(70.922 323.485) scale(0.14 -0.14)">
      <defs>
       <path id="DejaVuSans-44" d="M 1259 4147 
L 1259 519 
L 2022 519 
Q 2988 519 3436 956 
Q 3884 1394 3884 2338 
Q 3884 3275 3436 3711 
Q 2988 4147 2022 4147 
L 1259 4147 
z
M 628 4666 
L 1925 4666 
Q 3281 4666 3915 4102 
Q 4550 3538 4550 2338 
Q 4550 1131 3912 565 
Q 3275 0 1925 0 
L 628 0 
L 628 4666 
z
" transform="scale(0.015625)"/>
       <path id="DejaVuSans-69" d="M 603 3500 
L 1178 3500 
L 1178 0 
L 603 0 
L 603 3500 
z
M 603 4863 
L 1178 4863 
L 1178 4134 
L 603 4134 
L 603 4863 
z
" transform="scale(0.015625)"/>
       <path id="DejaVuSans-73" d="M 2834 3397 
L 2834 2853 
Q 2591 2978 2328 3040 
Q 2066 3103 1784 3103 
Q 1356 3103 1142 2972 
Q 928 2841 928 2578 
Q 928 2378 1081 2264 
Q 1234 2150 1697 2047 
L 1894 2003 
Q 2506 1872 2764 1633 
Q 3022 1394 3022 966 
Q 3022 478 2636 193 
Q 2250 -91 1575 -91 
Q 1294 -91 989 -36 
Q 684 19 347 128 
L 347 722 
Q 666 556 975 473 
Q 1284 391 1588 391 
Q 1994 391 2212 530 
Q 2431 669 2431 922 
Q 2431 1156 2273 1281 
Q 2116 1406 1581 1522 
L 1381 1569 
Q 847 1681 609 1914 
Q 372 2147 372 2553 
Q 372 3047 722 3315 
Q 1072 3584 1716 3584 
Q 2034 3584 2315 3537 
Q 2597 3491 2834 3397 
z
" transform="scale(0.015625)"/>
       <path id="DejaVuSans-74" d="M 1172 4494 
L 1172 3500 
L 2356 3500 
L 2356 3053 
L 1172 3053 
L 1172 1153 
Q 1172 725 1289 603 
Q 1406 481 1766 481 
L 2356 481 
L 2356 0 
L 1766 0 
Q 1100 0 847 248 
Q 594 497 594 1153 
L 594 3053 
L 172 3053 
L 172 3500 
L 594 3500 
L 594 4494 
L 1172 4494 
z
" transform="scale(0.015625)"/>
       <path id="DejaVuSans-61" d="M 2194 1759 
Q 1497 1759 1228 1600 
Q 959 1441 959 1056 
Q 959 750 1161 570 
Q 1363 391 1709 391 
Q 2188 391 2477 730 
Q 2766 1069 2766 1631 
L 2766 1759 
L 2194 1759 
z
M 3341 1997 
L 3341 0 
L 2766 0 
L 2766 531 
Q 2569 213 2275 61 
Q 1981 -91 1556 -91 
Q 1019 -91 701 211 
Q 384 513 384 1019 
Q 384 1609 779 1909 
Q 1175 2209 1959 2209 
L 2766 2209 
L 2766 2266 
Q 2766 2663 2505 2880 
Q 2244 3097 1772 3097 
Q 1472 3097 1187 3025 
Q 903 2953 641 2809 
L 641 3341 
Q 956 3463 1253 3523 
Q 1550 3584 1831 3584 
Q 2591 3584 2966 3190 
Q 3341 2797 3341 1997 
z
" transform="scale(0.015625)"/>
       <path id="DejaVuSans-6e" d="M 3513 2113 
L 3513 0 
L 2938 0 
L 2938 2094 
Q 2938 2591 2744 2837 
Q 2550 3084 2163 3084 
Q 1697 3084 1428 2787 
Q 1159 2491 1159 1978 
L 1159 0 
L 581 0 
L 581 3500 
L 1159 3500 
L 1159 2956 
Q 1366 3272 1645 3428 
Q 1925 3584 2291 3584 
Q 2894 3584 3203 3211 
Q 3513 2838 3513 2113 
z
" transform="scale(0.015625)"/>
       <path id="DejaVuSans-63" d="M 3122 3366 
L 3122 2828 
Q 2878 2963 2633 3030 
Q 2388 3097 2138 3097 
Q 1578 3097 1268 2742 
Q 959 2388 959 1747 
Q 959 1106 1268 751 
Q 1578 397 2138 397 
Q 2388 397 2633 464 
Q 2878 531 3122 666 
L 3122 134 
Q 2881 22 2623 -34 
Q 2366 -91 2075 -91 
Q 1284 -91 818 406 
Q 353 903 353 1747 
Q 353 2603 823 3093 
Q 1294 3584 2113 3584 
Q 2378 3584 2631 3529 
Q 2884 3475 3122 3366 
z
" transform="scale(0.015625)"/>
       <path id="DejaVuSans-65" d="M 3597 1894 
L 3597 1613 
L 953 1613 
Q 991 1019 1311 708 
Q 1631 397 2203 397 
Q 2534 397 2845 478 
Q 3156 559 3463 722 
L 3463 178 
Q 3153 47 2828 -22 
Q 2503 -91 2169 -91 
Q 1331 -91 842 396 
Q 353 884 353 1716 
Q 353 2575 817 3079 
Q 1281 3584 2069 3584 
Q 2775 3584 3186 3129 
Q 3597 2675 3597 1894 
z
M 3022 2063 
Q 3016 2534 2758 2815 
Q 2500 3097 2075 3097 
Q 1594 3097 1305 2825 
Q 1016 2553 972 2059 
L 3022 2063 
z
" transform="scale(0.015625)"/>
       <path id="DejaVuSans-20" transform="scale(0.015625)"/>
       <path id="DejaVuSans-66" d="M 2375 4863 
L 2375 4384 
L 1825 4384 
Q 1516 4384 1395 4259 
Q 1275 4134 1275 3809 
L 1275 3500 
L 2222 3500 
L 2222 3053 
L 1275 3053 
L 1275 0 
L 697 0 
L 697 3053 
L 147 3053 
L 147 3500 
L 697 3500 
L 697 3744 
Q 697 4328 969 4595 
Q 1241 4863 1831 4863 
L 2375 4863 
z
" transform="scale(0.015625)"/>
       <path id="DejaVuSans-72" d="M 2631 2963 
Q 2534 3019 2420 3045 
Q 2306 3072 2169 3072 
Q 1681 3072 1420 2755 
Q 1159 2438 1159 1844 
L 1159 0 
L 581 0 
L 581 3500 
L 1159 3500 
L 1159 2956 
Q 1341 3275 1631 3429 
Q 1922 3584 2338 3584 
Q 2397 3584 2469 3576 
Q 2541 3569 2628 3553 
L 2631 2963 
z
" transform="scale(0.015625)"/>
       <path id="DejaVuSans-6f" d="M 1959 3097 
Q 1497 3097 1228 2736 
Q 959 2375 959 1747 
Q 959 1119 1226 758 
Q 1494 397 1959 397 
Q 2419 397 2687 759 
Q 2956 1122 2956 1747 
Q 2956 2369 2687 2733 
Q 2419 3097 1959 3097 
z
M 1959 3584 
Q 2709 3584 3137 3096 
Q 3566 2609 3566 1747 
Q 3566 888 3137 398 
Q 2709 -91 1959 -91 
Q 1206 -91 779 398 
Q 353 888 353 1747 
Q 353 2609 779 3096 
Q 1206 3584 1959 3584 
z
" transform="scale(0.015625)"/>
       <path id="DejaVuSans-6d" d="M 3328 2828 
Q 3544 3216 3844 3400 
Q 4144 3584 4550 3584 
Q 5097 3584 5394 3201 
Q 5691 2819 5691 2113 
L 5691 0 
L 5113 0 
L 5113 2094 
Q 5113 2597 4934 2840 
Q 4756 3084 4391 3084 
Q 3944 3084 3684 2787 
Q 3425 2491 3425 1978 
L 3425 0 
L 2847 0 
L 2847 2094 
Q 2847 2600 2669 2842 
Q 2491 3084 2119 3084 
Q 1678 3084 1418 2786 
Q 1159 2488 1159 1978 
L 1159 0 
L 581 0 
L 581 3500 
L 1159 3500 
L 1159 2956 
Q 1356 3278 1631 3431 
Q 1906 3584 2284 3584 
Q 2666 3584 2933 3390 
Q 3200 3197 3328 2828 
z
" transform="scale(0.015625)"/>
       <path id="DejaVuSans-43" d="M 4122 4306 
L 4122 3641 
Q 3803 3938 3442 4084 
Q 3081 4231 2675 4231 
Q 1875 4231 1450 3742 
Q 1025 3253 1025 2328 
Q 1025 1406 1450 917 
Q 1875 428 2675 428 
Q 3081 428 3442 575 
Q 3803 722 4122 1019 
L 4122 359 
Q 3791 134 3420 21 
Q 3050 -91 2638 -91 
Q 1578 -91 968 557 
Q 359 1206 359 2328 
Q 359 3453 968 4101 
Q 1578 4750 2638 4750 
Q 3056 4750 3426 4639 
Q 3797 4528 4122 4306 
z
" transform="scale(0.015625)"/>
       <path id="DejaVuSans-28" d="M 1984 4856 
Q 1566 4138 1362 3434 
Q 1159 2731 1159 2009 
Q 1159 1288 1364 580 
Q 1569 -128 1984 -844 
L 1484 -844 
Q 1016 -109 783 600 
Q 550 1309 550 2009 
Q 550 2706 781 3412 
Q 1013 4119 1484 4856 
L 1984 4856 
z
" transform="scale(0.015625)"/>
       <path id="DejaVuSans-Oblique-3bc" d="M -84 -1331 
L 856 3500 
L 1434 3500 
L 1009 1322 
Q 997 1256 987 1175 
Q 978 1094 978 1013 
Q 978 722 1161 565 
Q 1344 409 1684 409 
Q 2147 409 2431 671 
Q 2716 934 2816 1459 
L 3213 3500 
L 3788 3500 
L 3266 809 
Q 3253 750 3248 706 
Q 3244 663 3244 628 
Q 3244 531 3283 486 
Q 3322 441 3406 441 
Q 3438 441 3492 456 
Q 3547 472 3647 513 
L 3559 50 
Q 3422 -19 3297 -55 
Q 3172 -91 3053 -91 
Q 2847 -91 2730 40 
Q 2613 172 2613 403 
Q 2438 153 2195 31 
Q 1953 -91 1625 -91 
Q 1334 -91 1117 43 
Q 900 178 831 397 
L 494 -1331 
L -84 -1331 
z
" transform="scale(0.015625)"/>
       <path id="DejaVuSans-Oblique-6d" d="M 5747 2113 
L 5338 0 
L 4763 0 
L 5166 2094 
Q 5191 2228 5203 2325 
Q 5216 2422 5216 2491 
Q 5216 2772 5059 2928 
Q 4903 3084 4622 3084 
Q 4203 3084 3875 2770 
Q 3547 2456 3450 1953 
L 3066 0 
L 2491 0 
L 2900 2094 
Q 2925 2209 2937 2307 
Q 2950 2406 2950 2484 
Q 2950 2769 2794 2926 
Q 2638 3084 2363 3084 
Q 1938 3084 1609 2770 
Q 1281 2456 1184 1953 
L 800 0 
L 225 0 
L 909 3500 
L 1484 3500 
L 1375 2956 
Q 1609 3263 1923 3423 
Q 2238 3584 2597 3584 
Q 2978 3584 3223 3384 
Q 3469 3184 3519 2828 
Q 3781 3197 4126 3390 
Q 4472 3584 4856 3584 
Q 5306 3584 5551 3325 
Q 5797 3066 5797 2591 
Q 5797 2488 5784 2364 
Q 5772 2241 5747 2113 
z
" transform="scale(0.015625)"/>
       <path id="DejaVuSans-29" d="M 513 4856 
L 1013 4856 
Q 1481 4119 1714 3412 
Q 1947 2706 1947 2009 
Q 1947 1309 1714 600 
Q 1481 -109 1013 -844 
L 513 -844 
Q 928 -128 1133 580 
Q 1338 1288 1338 2009 
Q 1338 2731 1133 3434 
Q 928 4138 513 4856 
z
" transform="scale(0.015625)"/>
      </defs>
      <use xlink:href="#DejaVuSans-44" transform="translate(0 0.015625)"/>
      <use xlink:href="#DejaVuSans-69" transform="translate(77.001953 0.015625)"/>
      <use xlink:href="#DejaVuSans-73" transform="translate(104.785156 0.015625)"/>
      <use xlink:href="#DejaVuSans-74" transform="translate(156.884766 0.015625)"/>
      <use xlink:href="#DejaVuSans-61" transform="translate(196.09375 0.015625)"/>
      <use xlink:href="#DejaVuSans-6e" transform="translate(257.373047 0.015625)"/>
      <use xlink:href="#DejaVuSans-63" transform="translate(320.751953 0.015625)"/>
      <use xlink:href="#DejaVuSans-65" transform="translate(375.732422 0.015625)"/>
      <use xlink:href="#DejaVuSans-20" transform="translate(437.255859 0.015625)"/>
      <use xlink:href="#DejaVuSans-66" transform="translate(469.042969 0.015625)"/>
      <use xlink:href="#DejaVuSans-72" transform="translate(504.248047 0.015625)"/>
      <use xlink:href="#DejaVuSans-6f" transform="translate(545.361328 0.015625)"/>
      <use xlink:href="#DejaVuSans-6d" transform="translate(606.542969 0.015625)"/>
      <use xlink:href="#DejaVuSans-20" transform="translate(703.955078 0.015625)"/>
      <use xlink:href="#DejaVuSans-43" transform="translate(735.742188 0.015625)"/>
      <use xlink:href="#DejaVuSans-65" transform="translate(805.566406 0.015625)"/>
      <use xlink:href="#DejaVuSans-6e" transform="translate(867.089844 0.015625)"/>
      <use xlink:href="#DejaVuSans-74" transform="translate(930.46875 0.015625)"/>
      <use xlink:href="#DejaVuSans-65" transform="translate(969.677734 0.015625)"/>
      <use xlink:href="#DejaVuSans-72" transform="translate(1031.201172 0.015625)"/>
      <use xlink:href="#DejaVuSans-20" transform="translate(1072.314453 0.015625)"/>
      <use xlink:href="#DejaVuSans-28" transform="translate(1104.101562 0.015625)"/>
      <use xlink:href="#DejaVuSans-Oblique-3bc" transform="translate(1143.115234 0.015625)"/>
      <use xlink:href="#DejaVuSans-Oblique-6d" transform="translate(1206.738281 0.015625)"/>
      <use xlink:href="#DejaVuSans-29" transform="translate(1304.150391 0.015625)"/>
     </g>
    </g>
   </g>
   <g id="matplotlib.axis_2">
    <g id="ytick_1">
     <g id="line2d_5">
      <path d="M 67.52 278.641522 
L 262.484 278.641522 
" clip-path="url(#pbca1b00611)" style="fill: none; stroke: #f2f2f2; stroke-width: 0.8; stroke-linecap: square"/>
     </g>
     <g id="line2d_6">
      <defs>
       <path id="m24b3d7af6d" d="M 0 0 
L -3.5 0 
" style="stroke: #000000; stroke-width: 0.8"/>
      </defs>
      <g>
       <use xlink:href="#m24b3d7af6d" x="67.52" y="278.641522" style="stroke: #000000; stroke-width: 0.8"/>
      </g>
     </g>
     <g id="text_6">
      <!-- 0.0 -->
      <g transform="translate(35.075 284.720272) scale(0.16 -0.16)">
       <defs>
        <path id="DejaVuSans-2e" d="M 684 794 
L 1344 794 
L 1344 0 
L 684 0 
L 684 794 
z
" transform="scale(0.015625)"/>
       </defs>
       <use xlink:href="#DejaVuSans-30"/>
       <use xlink:href="#DejaVuSans-2e" x="63.623047"/>
       <use xlink:href="#DejaVuSans-30" x="95.410156"/>
      </g>
     </g>
    </g>
    <g id="ytick_2">
     <g id="line2d_7">
      <path d="M 67.52 219.450025 
L 262.484 219.450025 
" clip-path="url(#pbca1b00611)" style="fill: none; stroke: #f2f2f2; stroke-width: 0.8; stroke-linecap: square"/>
     </g>
     <g id="line2d_8">
      <g>
       <use xlink:href="#m24b3d7af6d" x="67.52" y="219.450025" style="stroke: #000000; stroke-width: 0.8"/>
      </g>
     </g>
     <g id="text_7">
      <!-- 0.5 -->
      <g transform="translate(35.075 225.528775) scale(0.16 -0.16)">
       <defs>
        <path id="DejaVuSans-35" d="M 691 4666 
L 3169 4666 
L 3169 4134 
L 1269 4134 
L 1269 2991 
Q 1406 3038 1543 3061 
Q 1681 3084 1819 3084 
Q 2600 3084 3056 2656 
Q 3513 2228 3513 1497 
Q 3513 744 3044 326 
Q 2575 -91 1722 -91 
Q 1428 -91 1123 -41 
Q 819 9 494 109 
L 494 744 
Q 775 591 1075 516 
Q 1375 441 1709 441 
Q 2250 441 2565 725 
Q 2881 1009 2881 1497 
Q 2881 1984 2565 2268 
Q 2250 2553 1709 2553 
Q 1456 2553 1204 2497 
Q 953 2441 691 2322 
L 691 4666 
z
" transform="scale(0.015625)"/>
       </defs>
       <use xlink:href="#DejaVuSans-30"/>
       <use xlink:href="#DejaVuSans-2e" x="63.623047"/>
       <use xlink:href="#DejaVuSans-35" x="95.410156"/>
      </g>
     </g>
    </g>
    <g id="ytick_3">
     <g id="line2d_9">
      <path d="M 67.52 160.258528 
L 262.484 160.258528 
" clip-path="url(#pbca1b00611)" style="fill: none; stroke: #f2f2f2; stroke-width: 0.8; stroke-linecap: square"/>
     </g>
     <g id="line2d_10">
      <g>
       <use xlink:href="#m24b3d7af6d" x="67.52" y="160.258528" style="stroke: #000000; stroke-width: 0.8"/>
      </g>
     </g>
     <g id="text_8">
      <!-- 1.0 -->
      <g transform="translate(35.075 166.337278) scale(0.16 -0.16)">
       <defs>
        <path id="DejaVuSans-31" d="M 794 531 
L 1825 531 
L 1825 4091 
L 703 3866 
L 703 4441 
L 1819 4666 
L 2450 4666 
L 2450 531 
L 3481 531 
L 3481 0 
L 794 0 
L 794 531 
z
" transform="scale(0.015625)"/>
       </defs>
       <use xlink:href="#DejaVuSans-31"/>
       <use xlink:href="#DejaVuSans-2e" x="63.623047"/>
       <use xlink:href="#DejaVuSans-30" x="95.410156"/>
      </g>
     </g>
    </g>
    <g id="ytick_4">
     <g id="line2d_11">
      <path d="M 67.52 101.06703 
L 262.484 101.06703 
" clip-path="url(#pbca1b00611)" style="fill: none; stroke: #f2f2f2; stroke-width: 0.8; stroke-linecap: square"/>
     </g>
     <g id="line2d_12">
      <g>
       <use xlink:href="#m24b3d7af6d" x="67.52" y="101.06703" style="stroke: #000000; stroke-width: 0.8"/>
      </g>
     </g>
     <g id="text_9">
      <!-- 1.5 -->
      <g transform="translate(35.075 107.14578) scale(0.16 -0.16)">
       <use xlink:href="#DejaVuSans-31"/>
       <use xlink:href="#DejaVuSans-2e" x="63.623047"/>
       <use xlink:href="#DejaVuSans-35" x="95.410156"/>
      </g>
     </g>
    </g>
    <g id="ytick_5">
     <g id="line2d_13">
      <path d="M 67.52 41.875533 
L 262.484 41.875533 
" clip-path="url(#pbca1b00611)" style="fill: none; stroke: #f2f2f2; stroke-width: 0.8; stroke-linecap: square"/>
     </g>
     <g id="line2d_14">
      <g>
       <use xlink:href="#m24b3d7af6d" x="67.52" y="41.875533" style="stroke: #000000; stroke-width: 0.8"/>
      </g>
     </g>
     <g id="text_10">
      <!-- 2.0 -->
      <g transform="translate(35.075 47.954283) scale(0.16 -0.16)">
       <use xlink:href="#DejaVuSans-32"/>
       <use xlink:href="#DejaVuSans-2e" x="63.623047"/>
       <use xlink:href="#DejaVuSans-30" x="95.410156"/>
      </g>
     </g>
    </g>
    <g id="text_11">
     <!-- Concentration (mM) -->
     <g transform="translate(28.163438 230.284531) rotate(-90) scale(0.14 -0.14)">
      <defs>
       <path id="DejaVuSans-4d" d="M 628 4666 
L 1569 4666 
L 2759 1491 
L 3956 4666 
L 4897 4666 
L 4897 0 
L 4281 0 
L 4281 4097 
L 3078 897 
L 2444 897 
L 1241 4097 
L 1241 0 
L 628 0 
L 628 4666 
z
" transform="scale(0.015625)"/>
      </defs>
      <use xlink:href="#DejaVuSans-43"/>
      <use xlink:href="#DejaVuSans-6f" x="69.824219"/>
      <use xlink:href="#DejaVuSans-6e" x="131.005859"/>
      <use xlink:href="#DejaVuSans-63" x="194.384766"/>
      <use xlink:href="#DejaVuSans-65" x="249.365234"/>
      <use xlink:href="#DejaVuSans-6e" x="310.888672"/>
      <use xlink:href="#DejaVuSans-74" x="374.267578"/>
      <use xlink:href="#DejaVuSans-72" x="413.476562"/>
      <use xlink:href="#DejaVuSans-61" x="454.589844"/>
      <use xlink:href="#DejaVuSans-74" x="515.869141"/>
      <use xlink:href="#DejaVuSans-69" x="555.078125"/>
      <use xlink:href="#DejaVuSans-6f" x="582.861328"/>
      <use xlink:href="#DejaVuSans-6e" x="644.042969"/>
      <use xlink:href="#DejaVuSans-20" x="707.421875"/>
      <use xlink:href="#DejaVuSans-28" x="739.208984"/>
      <use xlink:href="#DejaVuSans-6d" x="778.222656"/>
      <use xlink:href="#DejaVuSans-4d" x="875.634766"/>
      <use xlink:href="#DejaVuSans-29" x="961.914062"/>
     </g>
    </g>
   </g>
   <g id="line2d_15">
    <path d="M 76.382 272.861155 
L 78.467176 272.892898 
L 80.552353 272.988128 
L 82.637529 273.146845 
L 84.722706 273.369048 
L 86.807882 273.654738 
L 88.893059 274.003914 
L 90.978235 274.416578 
L 93.063412 274.892727 
" clip-path="url(#pbca1b00611)" style="fill: none; stroke: #1f77b4; stroke-opacity: 0.9; stroke-width: 3; stroke-linecap: square"/>
   </g>
   <g id="line2d_16">
    <path d="M 76.382 265.718909 
L 78.467176 265.750652 
L 80.552353 265.845882 
L 82.637529 266.004599 
L 84.722706 266.226802 
L 86.807882 266.512492 
L 88.893059 266.861668 
L 90.978235 267.274332 
L 93.063412 267.750481 
L 95.148588 268.290118 
L 97.233765 268.893241 
L 99.318941 269.55985 
L 101.404118 270.289947 
L 103.489294 271.083529 
L 105.574471 271.940599 
L 107.659647 272.861155 
L 109.744824 273.845198 
L 111.83 274.892727 
" clip-path="url(#pbca1b00611)" style="fill: none; stroke: #ff7f0e; stroke-opacity: 0.9; stroke-width: 3; stroke-linecap: square"/>
   </g>
   <g id="line2d_17">
    <path d="M 76.382 255.053155 
L 78.467176 255.084898 
L 80.552353 255.180128 
L 82.637529 255.338845 
L 84.722706 255.561048 
L 86.807882 255.846738 
L 88.893059 256.195914 
L 90.978235 256.608578 
L 93.063412 257.084727 
L 95.148588 257.624364 
L 97.233765 258.227487 
L 99.318941 258.894096 
L 101.404118 259.624193 
L 103.489294 260.417775 
L 105.574471 261.274845 
L 107.659647 262.195401 
L 109.744824 263.179444 
L 111.83 264.226973 
L 113.915176 265.337989 
L 116.000353 266.512492 
L 118.085529 267.750481 
L 120.170706 269.051957 
L 122.255882 270.41692 
L 124.341059 271.845369 
L 126.426235 273.337305 
L 128.511412 274.892727 
" clip-path="url(#pbca1b00611)" style="fill: none; stroke: #2ca02c; stroke-opacity: 0.9; stroke-width: 3; stroke-linecap: square"/>
   </g>
   <g id="line2d_18">
    <path d="M 76.382 238.197455 
L 78.467176 238.229198 
L 80.552353 238.324428 
L 82.637529 238.483144 
L 84.722706 238.705348 
L 86.807882 238.991037 
L 88.893059 239.340214 
L 90.978235 239.752877 
L 93.063412 240.229027 
L 95.148588 240.768663 
L 97.233765 241.371786 
L 99.318941 242.038396 
L 101.404118 242.768492 
L 103.489294 243.562075 
L 105.574471 244.419144 
L 107.659647 245.339701 
L 109.744824 246.323743 
L 111.83 247.371273 
L 113.915176 248.482289 
L 116.000353 249.656791 
L 118.085529 250.894781 
L 120.170706 252.196257 
L 122.255882 253.561219 
L 124.341059 254.989668 
L 126.426235 256.481604 
L 128.511412 258.037027 
L 130.596588 259.655936 
L 132.681765 261.338332 
L 134.766941 263.084214 
L 136.852118 264.893583 
L 138.937294 266.766439 
L 141.022471 268.702781 
L 143.107647 270.70261 
L 145.192824 272.765925 
L 147.278 274.892727 
" clip-path="url(#pbca1b00611)" style="fill: none; stroke: #d62728; stroke-opacity: 0.9; stroke-width: 3; stroke-linecap: square"/>
   </g>
   <g id="line2d_19">
    <path d="M 76.382 218.897519 
L 78.467176 218.929262 
L 80.552353 219.024492 
L 82.637529 219.183209 
L 84.722706 219.405412 
L 86.807882 219.691102 
L 88.893059 220.040278 
L 90.978235 220.452941 
L 93.063412 220.929091 
L 95.148588 221.468727 
L 97.233765 222.07185 
L 99.318941 222.73846 
L 101.404118 223.468556 
L 103.489294 224.262139 
L 105.574471 225.119209 
L 107.659647 226.039765 
L 109.744824 227.023807 
L 111.83 228.071337 
L 113.915176 229.182353 
L 116.000353 230.356856 
L 118.085529 231.594845 
L 120.170706 232.896321 
L 122.255882 234.261283 
L 124.341059 235.689733 
L 126.426235 237.181668 
L 128.511412 238.737091 
L 130.596588 240.356 
L 132.681765 242.038396 
L 134.766941 243.784278 
L 136.852118 245.593647 
L 138.937294 247.466503 
L 141.022471 249.402845 
L 143.107647 251.402674 
L 145.192824 253.465989 
L 147.278 255.592791 
L 149.363176 257.78308 
L 151.448353 260.036856 
L 153.533529 262.354118 
L 155.618706 264.734866 
L 157.703882 267.179102 
L 159.789059 269.686824 
L 161.874235 272.258032 
L 163.959412 274.892727 
" clip-path="url(#pbca1b00611)" style="fill: none; stroke: #9467bd; stroke-opacity: 0.9; stroke-width: 3; stroke-linecap: square"/>
   </g>
   <g id="line2d_20">
    <path d="M 76.382 192.328364 
L 78.467176 192.360107 
L 80.552353 192.455337 
L 82.637529 192.614053 
L 84.722706 192.836257 
L 86.807882 193.121947 
L 88.893059 193.471123 
L 90.978235 193.883786 
L 93.063412 194.359936 
L 95.148588 194.899572 
L 97.233765 195.502695 
L 99.318941 196.169305 
L 101.404118 196.899401 
L 103.489294 197.692984 
L 105.574471 198.550053 
L 107.659647 199.47061 
L 109.744824 200.454652 
L 111.83 201.502182 
L 113.915176 202.613198 
L 116.000353 203.787701 
L 118.085529 205.02569 
L 120.170706 206.327166 
L 122.255882 207.692128 
L 124.341059 209.120578 
L 126.426235 210.612513 
L 128.511412 212.167936 
L 130.596588 213.786845 
L 132.681765 215.469241 
L 134.766941 217.215123 
L 136.852118 219.024492 
L 138.937294 220.897348 
L 141.022471 222.83369 
L 143.107647 224.833519 
L 145.192824 226.896834 
L 147.278 229.023636 
L 149.363176 231.213925 
L 151.448353 233.467701 
L 153.533529 235.784963 
L 155.618706 238.165711 
L 157.703882 240.609947 
L 159.789059 243.117668 
L 161.874235 245.688877 
L 163.959412 248.323572 
L 166.044588 251.021754 
L 168.129765 253.783422 
L 170.214941 256.608578 
L 172.300118 259.497219 
L 174.385294 262.449348 
L 176.470471 265.464963 
L 178.555647 268.544064 
L 180.640824 271.686652 
L 182.726 274.892727 
" clip-path="url(#pbca1b00611)" style="fill: none; stroke: #8c564b; stroke-opacity: 0.9; stroke-width: 3; stroke-linecap: square"/>
   </g>
   <g id="line2d_21">
    <path d="M 76.382 160.616791 
L 78.467176 160.648535 
L 80.552353 160.743765 
L 82.637529 160.902481 
L 84.722706 161.124684 
L 86.807882 161.410374 
L 88.893059 161.759551 
L 90.978235 162.172214 
L 93.063412 162.648364 
L 95.148588 163.188 
L 97.233765 163.791123 
L 99.318941 164.457733 
L 101.404118 165.187829 
L 103.489294 165.981412 
L 105.574471 166.838481 
L 107.659647 167.759037 
L 109.744824 168.74308 
L 111.83 169.79061 
L 113.915176 170.901626 
L 116.000353 172.076128 
L 118.085529 173.314118 
L 120.170706 174.615594 
L 122.255882 175.980556 
L 124.341059 177.409005 
L 126.426235 178.900941 
L 128.511412 180.456364 
L 130.596588 182.075273 
L 132.681765 183.757668 
L 134.766941 185.503551 
L 136.852118 187.31292 
L 138.937294 189.185775 
L 141.022471 191.122118 
L 143.107647 193.121947 
L 145.192824 195.185262 
L 147.278 197.312064 
L 149.363176 199.502353 
L 151.448353 201.756128 
L 153.533529 204.07339 
L 155.618706 206.454139 
L 157.703882 208.898374 
L 159.789059 211.406096 
L 161.874235 213.977305 
L 163.959412 216.612 
L 166.044588 219.310182 
L 168.129765 222.07185 
L 170.214941 224.897005 
L 172.300118 227.785647 
L 174.385294 230.737775 
L 176.470471 233.75339 
L 178.555647 236.832492 
L 180.640824 239.97508 
L 182.726 243.181155 
L 184.811176 246.450717 
L 186.896353 249.783765 
L 188.981529 253.180299 
L 191.066706 256.640321 
L 193.151882 260.163829 
L 195.237059 263.750824 
L 197.322235 267.401305 
L 199.407412 271.115273 
L 201.492588 274.892727 
" clip-path="url(#pbca1b00611)" style="fill: none; stroke: #e377c2; stroke-opacity: 0.9; stroke-width: 3; stroke-linecap: square"/>
   </g>
   <g id="line2d_22">
    <path d="M 76.382 128.111636 
L 78.467176 128.14338 
L 80.552353 128.23861 
L 82.637529 128.397326 
L 84.722706 128.619529 
L 86.807882 128.905219 
L 88.893059 129.254396 
L 90.978235 129.667059 
L 93.063412 130.143209 
L 95.148588 130.682845 
L 97.233765 131.285968 
L 99.318941 131.952578 
L 101.404118 132.682674 
L 103.489294 133.476257 
L 105.574471 134.333326 
L 107.659647 135.253882 
L 109.744824 136.237925 
L 111.83 137.285455 
L 113.915176 138.396471 
L 116.000353 139.570973 
L 118.085529 140.808963 
L 120.170706 142.110439 
L 122.255882 143.475401 
L 124.341059 144.90385 
L 126.426235 146.395786 
L 128.511412 147.951209 
L 130.596588 149.570118 
L 132.681765 151.252513 
L 134.766941 152.998396 
L 136.852118 154.807765 
L 138.937294 156.68062 
L 141.022471 158.616963 
L 143.107647 160.616791 
L 145.192824 162.680107 
L 147.278 164.806909 
L 149.363176 166.997198 
L 151.448353 169.250973 
L 153.533529 171.568235 
L 155.618706 173.948984 
L 157.703882 176.393219 
L 159.789059 178.900941 
L 161.874235 181.47215 
L 163.959412 184.106845 
L 166.044588 186.805027 
L 168.129765 189.566695 
L 170.214941 192.39185 
L 172.300118 195.280492 
L 174.385294 198.23262 
L 176.470471 201.248235 
L 178.555647 204.327337 
L 180.640824 207.469925 
L 182.726 210.676 
L 184.811176 213.945561 
L 186.896353 217.27861 
L 188.981529 220.675144 
L 191.066706 224.135166 
L 193.151882 227.658674 
L 195.237059 231.245668 
L 197.322235 234.89615 
L 199.407412 238.610118 
L 201.492588 242.387572 
L 203.577765 246.228513 
L 205.662941 250.132941 
L 207.748118 254.100856 
L 209.833294 258.132257 
L 211.918471 262.227144 
L 214.003647 266.385519 
L 216.088824 270.60738 
L 218.174 274.892727 
" clip-path="url(#pbca1b00611)" style="fill: none; stroke: #7f7f7f; stroke-opacity: 0.9; stroke-width: 3; stroke-linecap: square"/>
   </g>
   <g id="line2d_23">
    <path d="M 76.382 86.68661 
L 78.467176 86.718353 
L 80.552353 86.813583 
L 82.637529 86.972299 
L 84.722706 87.194503 
L 86.807882 87.480193 
L 88.893059 87.829369 
L 90.978235 88.242032 
L 93.063412 88.718182 
L 95.148588 89.257818 
L 97.233765 89.860941 
L 99.318941 90.527551 
L 101.404118 91.257647 
L 103.489294 92.05123 
L 105.574471 92.908299 
L 107.659647 93.828856 
L 109.744824 94.812898 
L 111.83 95.860428 
L 113.915176 96.971444 
L 116.000353 98.145947 
L 118.085529 99.383936 
L 120.170706 100.685412 
L 122.255882 102.050374 
L 124.341059 103.478824 
L 126.426235 104.970759 
L 128.511412 106.526182 
L 130.596588 108.145091 
L 132.681765 109.827487 
L 134.766941 111.573369 
L 136.852118 113.382738 
L 138.937294 115.255594 
L 141.022471 117.191936 
L 143.107647 119.191765 
L 145.192824 121.25508 
L 147.278 123.381882 
L 149.363176 125.572171 
L 151.448353 127.825947 
L 153.533529 130.143209 
L 155.618706 132.523957 
L 157.703882 134.968193 
L 159.789059 137.475914 
L 161.874235 140.047123 
L 163.959412 142.681818 
L 166.044588 145.38 
L 168.129765 148.141668 
L 170.214941 150.966824 
L 172.300118 153.855465 
L 174.385294 156.807594 
L 176.470471 159.823209 
L 178.555647 162.90231 
L 180.640824 166.044898 
L 182.726 169.250973 
L 184.811176 172.520535 
L 186.896353 175.853583 
L 188.981529 179.250118 
L 191.066706 182.710139 
L 193.151882 186.233647 
L 195.237059 189.820642 
L 197.322235 193.471123 
L 199.407412 197.185091 
L 201.492588 200.962545 
L 203.577765 204.803487 
L 205.662941 208.707914 
L 207.748118 212.675829 
L 209.833294 216.70723 
L 211.918471 220.802118 
L 214.003647 224.960492 
L 216.088824 229.182353 
L 218.174 233.467701 
L 220.259176 237.816535 
L 222.344353 242.228856 
L 224.429529 246.704663 
L 226.514706 251.243957 
L 228.599882 255.846738 
L 230.685059 260.513005 
L 232.770235 265.242759 
L 234.855412 270.036 
L 236.940588 274.892727 
" clip-path="url(#pbca1b00611)" style="fill: none; stroke: #bcbd22; stroke-opacity: 0.9; stroke-width: 3; stroke-linecap: square"/>
   </g>
   <g id="line2d_24">
    <path d="M 76.382 45.547273 
L 78.467176 45.579016 
L 80.552353 45.674246 
L 82.637529 45.832963 
L 84.722706 46.055166 
L 86.807882 46.340856 
L 88.893059 46.690032 
L 90.978235 47.102695 
L 93.063412 47.578845 
L 95.148588 48.118481 
L 97.233765 48.721604 
L 99.318941 49.388214 
L 101.404118 50.11831 
L 103.489294 50.911893 
L 105.574471 51.768963 
L 107.659647 52.689519 
L 109.744824 53.673561 
L 111.83 54.721091 
L 113.915176 55.832107 
L 116.000353 57.00661 
L 118.085529 58.244599 
L 120.170706 59.546075 
L 122.255882 60.911037 
L 124.341059 62.339487 
L 126.426235 63.831422 
L 128.511412 65.386845 
L 130.596588 67.005754 
L 132.681765 68.68815 
L 134.766941 70.434032 
L 136.852118 72.243401 
L 138.937294 74.116257 
L 141.022471 76.052599 
L 143.107647 78.052428 
L 145.192824 80.115743 
L 147.278 82.242545 
L 149.363176 84.432834 
L 151.448353 86.68661 
L 153.533529 89.003872 
L 155.618706 91.38462 
L 157.703882 93.828856 
L 159.789059 96.336578 
L 161.874235 98.907786 
L 163.959412 101.542481 
L 166.044588 104.240663 
L 168.129765 107.002332 
L 170.214941 109.827487 
L 172.300118 112.716128 
L 174.385294 115.668257 
L 176.470471 118.683872 
L 178.555647 121.762973 
L 180.640824 124.905561 
L 182.726 128.111636 
L 184.811176 131.381198 
L 186.896353 134.714246 
L 188.981529 138.110781 
L 191.066706 141.570802 
L 193.151882 145.09431 
L 195.237059 148.681305 
L 197.322235 152.331786 
L 199.407412 156.045754 
L 201.492588 159.823209 
L 203.577765 163.66415 
L 205.662941 167.568578 
L 207.748118 171.536492 
L 209.833294 175.567893 
L 211.918471 179.662781 
L 214.003647 183.821155 
L 216.088824 188.043016 
L 218.174 192.328364 
L 220.259176 196.677198 
L 222.344353 201.089519 
L 224.429529 205.565326 
L 226.514706 210.10462 
L 228.599882 214.707401 
L 230.685059 219.373668 
L 232.770235 224.103422 
L 234.855412 228.896663 
L 236.940588 233.75339 
L 239.025765 238.673604 
L 241.110941 243.657305 
L 243.196118 248.704492 
L 245.281294 253.815166 
L 247.366471 258.989326 
L 249.451647 264.226973 
L 251.536824 269.528107 
L 253.622 274.892727 
" clip-path="url(#pbca1b00611)" style="fill: none; stroke: #17becf; stroke-opacity: 0.9; stroke-width: 3; stroke-linecap: square"/>
   </g>
   <g id="patch_3">
    <path d="M 67.52 286.36 
L 67.52 34.08 
" style="fill: none; stroke: #000000; stroke-width: 0.8; stroke-linejoin: miter; stroke-linecap: square"/>
   </g>
   <g id="patch_4">
    <path d="M 262.484 286.36 
L 262.484 34.08 
" style="fill: none; stroke: #000000; stroke-width: 0.8; stroke-linejoin: miter; stroke-linecap: square"/>
   </g>
   <g id="patch_5">
    <path d="M 67.52 286.36 
L 262.484 286.36 
" style="fill: none; stroke: #000000; stroke-width: 0.8; stroke-linejoin: miter; stroke-linecap: square"/>
   </g>
   <g id="patch_6">
    <path d="M 67.52 34.08 
L 262.484 34.08 
" style="fill: none; stroke: #000000; stroke-width: 0.8; stroke-linejoin: miter; stroke-linecap: square"/>
   </g>
   <g id="text_12">
    <!-- EGLU -->
    <g transform="translate(146.481531 28.08) scale(0.14 -0.14)">
     <defs>
      <path id="DejaVuSans-45" d="M 628 4666 
L 3578 4666 
L 3578 4134 
L 1259 4134 
L 1259 2753 
L 3481 2753 
L 3481 2222 
L 1259 2222 
L 1259 531 
L 3634 531 
L 3634 0 
L 628 0 
L 628 4666 
z
" transform="scale(0.015625)"/>
      <path id="DejaVuSans-47" d="M 3809 666 
L 3809 1919 
L 2778 1919 
L 2778 2438 
L 4434 2438 
L 4434 434 
Q 4069 175 3628 42 
Q 3188 -91 2688 -91 
Q 1594 -91 976 548 
Q 359 1188 359 2328 
Q 359 3472 976 4111 
Q 1594 4750 2688 4750 
Q 3144 4750 3555 4637 
Q 3966 4525 4313 4306 
L 4313 3634 
Q 3963 3931 3569 4081 
Q 3175 4231 2741 4231 
Q 1884 4231 1454 3753 
Q 1025 3275 1025 2328 
Q 1025 1384 1454 906 
Q 1884 428 2741 428 
Q 3075 428 3337 486 
Q 3600 544 3809 666 
z
" transform="scale(0.015625)"/>
      <path id="DejaVuSans-4c" d="M 628 4666 
L 1259 4666 
L 1259 531 
L 3531 531 
L 3531 0 
L 628 0 
L 628 4666 
z
" transform="scale(0.015625)"/>
      <path id="DejaVuSans-55" d="M 556 4666 
L 1191 4666 
L 1191 1831 
Q 1191 1081 1462 751 
Q 1734 422 2344 422 
Q 2950 422 3222 751 
Q 3494 1081 3494 1831 
L 3494 4666 
L 4128 4666 
L 4128 1753 
Q 4128 841 3676 375 
Q 3225 -91 2344 -91 
Q 1459 -91 1007 375 
Q 556 841 556 1753 
L 556 4666 
z
" transform="scale(0.015625)"/>
     </defs>
     <use xlink:href="#DejaVuSans-45"/>
     <use xlink:href="#DejaVuSans-47" x="63.183594"/>
     <use xlink:href="#DejaVuSans-4c" x="140.673828"/>
     <use xlink:href="#DejaVuSans-55" x="191.386719"/>
    </g>
   </g>
   <g id="legend_1">
    <g id="patch_7">
     <path d="M 283.4322 305.215 
L 431.9597 305.215 
Q 435.1597 305.215 435.1597 302.015 
L 435.1597 45.28 
Q 435.1597 42.08 431.9597 42.08 
L 283.4322 42.08 
Q 280.2322 42.08 280.2322 45.28 
L 280.2322 302.015 
Q 280.2322 305.215 283.4322 305.215 
z
" style="fill: #ffffff; opacity: 0.8; stroke: #cccccc; stroke-linejoin: miter"/>
    </g>
    <g id="text_13">
     <!-- Aggregate Radius -->
     <g transform="translate(286.6322 60.6375) scale(0.16 -0.16)">
      <defs>
       <path id="DejaVuSans-41" d="M 2188 4044 
L 1331 1722 
L 3047 1722 
L 2188 4044 
z
M 1831 4666 
L 2547 4666 
L 4325 0 
L 3669 0 
L 3244 1197 
L 1141 1197 
L 716 0 
L 50 0 
L 1831 4666 
z
" transform="scale(0.015625)"/>
       <path id="DejaVuSans-67" d="M 2906 1791 
Q 2906 2416 2648 2759 
Q 2391 3103 1925 3103 
Q 1463 3103 1205 2759 
Q 947 2416 947 1791 
Q 947 1169 1205 825 
Q 1463 481 1925 481 
Q 2391 481 2648 825 
Q 2906 1169 2906 1791 
z
M 3481 434 
Q 3481 -459 3084 -895 
Q 2688 -1331 1869 -1331 
Q 1566 -1331 1297 -1286 
Q 1028 -1241 775 -1147 
L 775 -588 
Q 1028 -725 1275 -790 
Q 1522 -856 1778 -856 
Q 2344 -856 2625 -561 
Q 2906 -266 2906 331 
L 2906 616 
Q 2728 306 2450 153 
Q 2172 0 1784 0 
Q 1141 0 747 490 
Q 353 981 353 1791 
Q 353 2603 747 3093 
Q 1141 3584 1784 3584 
Q 2172 3584 2450 3431 
Q 2728 3278 2906 2969 
L 2906 3500 
L 3481 3500 
L 3481 434 
z
" transform="scale(0.015625)"/>
       <path id="DejaVuSans-52" d="M 2841 2188 
Q 3044 2119 3236 1894 
Q 3428 1669 3622 1275 
L 4263 0 
L 3584 0 
L 2988 1197 
Q 2756 1666 2539 1819 
Q 2322 1972 1947 1972 
L 1259 1972 
L 1259 0 
L 628 0 
L 628 4666 
L 2053 4666 
Q 2853 4666 3247 4331 
Q 3641 3997 3641 3322 
Q 3641 2881 3436 2590 
Q 3231 2300 2841 2188 
z
M 1259 4147 
L 1259 2491 
L 2053 2491 
Q 2509 2491 2742 2702 
Q 2975 2913 2975 3322 
Q 2975 3731 2742 3939 
Q 2509 4147 2053 4147 
L 1259 4147 
z
" transform="scale(0.015625)"/>
       <path id="DejaVuSans-64" d="M 2906 2969 
L 2906 4863 
L 3481 4863 
L 3481 0 
L 2906 0 
L 2906 525 
Q 2725 213 2448 61 
Q 2172 -91 1784 -91 
Q 1150 -91 751 415 
Q 353 922 353 1747 
Q 353 2572 751 3078 
Q 1150 3584 1784 3584 
Q 2172 3584 2448 3432 
Q 2725 3281 2906 2969 
z
M 947 1747 
Q 947 1113 1208 752 
Q 1469 391 1925 391 
Q 2381 391 2643 752 
Q 2906 1113 2906 1747 
Q 2906 2381 2643 2742 
Q 2381 3103 1925 3103 
Q 1469 3103 1208 2742 
Q 947 2381 947 1747 
z
" transform="scale(0.015625)"/>
       <path id="DejaVuSans-75" d="M 544 1381 
L 544 3500 
L 1119 3500 
L 1119 1403 
Q 1119 906 1312 657 
Q 1506 409 1894 409 
Q 2359 409 2629 706 
Q 2900 1003 2900 1516 
L 2900 3500 
L 3475 3500 
L 3475 0 
L 2900 0 
L 2900 538 
Q 2691 219 2414 64 
Q 2138 -91 1772 -91 
Q 1169 -91 856 284 
Q 544 659 544 1381 
z
M 1991 3584 
L 1991 3584 
z
" transform="scale(0.015625)"/>
      </defs>
      <use xlink:href="#DejaVuSans-41"/>
      <use xlink:href="#DejaVuSans-67" x="68.408203"/>
      <use xlink:href="#DejaVuSans-67" x="131.884766"/>
      <use xlink:href="#DejaVuSans-72" x="195.361328"/>
      <use xlink:href="#DejaVuSans-65" x="234.224609"/>
      <use xlink:href="#DejaVuSans-67" x="295.748047"/>
      <use xlink:href="#DejaVuSans-61" x="359.224609"/>
      <use xlink:href="#DejaVuSans-74" x="420.503906"/>
      <use xlink:href="#DejaVuSans-65" x="459.712891"/>
      <use xlink:href="#DejaVuSans-20" x="521.236328"/>
      <use xlink:href="#DejaVuSans-52" x="553.023438"/>
      <use xlink:href="#DejaVuSans-61" x="620.255859"/>
      <use xlink:href="#DejaVuSans-64" x="681.535156"/>
      <use xlink:href="#DejaVuSans-69" x="745.011719"/>
      <use xlink:href="#DejaVuSans-75" x="772.794922"/>
      <use xlink:href="#DejaVuSans-73" x="836.173828"/>
     </g>
    </g>
    <g id="line2d_25">
     <path d="M 320.02595 78.5225 
L 336.02595 78.5225 
L 352.02595 78.5225 
" style="fill: none; stroke: #1f77b4; stroke-opacity: 0.9; stroke-width: 3; stroke-linecap: square"/>
    </g>
    <g id="text_14">
     <!-- 60 -->
     <g transform="translate(364.82595 84.1225) scale(0.16 -0.16)">
      <use xlink:href="#DejaVuSans-36"/>
      <use xlink:href="#DejaVuSans-30" x="63.623047"/>
     </g>
    </g>
    <g id="line2d_26">
     <path d="M 320.02595 102.0075 
L 336.02595 102.0075 
L 352.02595 102.0075 
" style="fill: none; stroke: #ff7f0e; stroke-opacity: 0.9; stroke-width: 3; stroke-linecap: square"/>
    </g>
    <g id="text_15">
     <!-- 120 -->
     <g transform="translate(364.82595 107.6075) scale(0.16 -0.16)">
      <use xlink:href="#DejaVuSans-31"/>
      <use xlink:href="#DejaVuSans-32" x="63.623047"/>
      <use xlink:href="#DejaVuSans-30" x="127.246094"/>
     </g>
    </g>
    <g id="line2d_27">
     <path d="M 320.02595 125.4925 
L 336.02595 125.4925 
L 352.02595 125.4925 
" style="fill: none; stroke: #2ca02c; stroke-opacity: 0.9; stroke-width: 3; stroke-linecap: square"/>
    </g>
    <g id="text_16">
     <!-- 180 -->
     <g transform="translate(364.82595 131.0925) scale(0.16 -0.16)">
      <defs>
       <path id="DejaVuSans-38" d="M 2034 2216 
Q 1584 2216 1326 1975 
Q 1069 1734 1069 1313 
Q 1069 891 1326 650 
Q 1584 409 2034 409 
Q 2484 409 2743 651 
Q 3003 894 3003 1313 
Q 3003 1734 2745 1975 
Q 2488 2216 2034 2216 
z
M 1403 2484 
Q 997 2584 770 2862 
Q 544 3141 544 3541 
Q 544 4100 942 4425 
Q 1341 4750 2034 4750 
Q 2731 4750 3128 4425 
Q 3525 4100 3525 3541 
Q 3525 3141 3298 2862 
Q 3072 2584 2669 2484 
Q 3125 2378 3379 2068 
Q 3634 1759 3634 1313 
Q 3634 634 3220 271 
Q 2806 -91 2034 -91 
Q 1263 -91 848 271 
Q 434 634 434 1313 
Q 434 1759 690 2068 
Q 947 2378 1403 2484 
z
M 1172 3481 
Q 1172 3119 1398 2916 
Q 1625 2713 2034 2713 
Q 2441 2713 2670 2916 
Q 2900 3119 2900 3481 
Q 2900 3844 2670 4047 
Q 2441 4250 2034 4250 
Q 1625 4250 1398 4047 
Q 1172 3844 1172 3481 
z
" transform="scale(0.015625)"/>
      </defs>
      <use xlink:href="#DejaVuSans-31"/>
      <use xlink:href="#DejaVuSans-38" x="63.623047"/>
      <use xlink:href="#DejaVuSans-30" x="127.246094"/>
     </g>
    </g>
    <g id="line2d_28">
     <path d="M 320.02595 148.9775 
L 336.02595 148.9775 
L 352.02595 148.9775 
" style="fill: none; stroke: #d62728; stroke-opacity: 0.9; stroke-width: 3; stroke-linecap: square"/>
    </g>
    <g id="text_17">
     <!-- 240 -->
     <g transform="translate(364.82595 154.5775) scale(0.16 -0.16)">
      <use xlink:href="#DejaVuSans-32"/>
      <use xlink:href="#DejaVuSans-34" x="63.623047"/>
      <use xlink:href="#DejaVuSans-30" x="127.246094"/>
     </g>
    </g>
    <g id="line2d_29">
     <path d="M 320.02595 172.4625 
L 336.02595 172.4625 
L 352.02595 172.4625 
" style="fill: none; stroke: #9467bd; stroke-opacity: 0.9; stroke-width: 3; stroke-linecap: square"/>
    </g>
    <g id="text_18">
     <!-- 300 -->
     <g transform="translate(364.82595 178.0625) scale(0.16 -0.16)">
      <defs>
       <path id="DejaVuSans-33" d="M 2597 2516 
Q 3050 2419 3304 2112 
Q 3559 1806 3559 1356 
Q 3559 666 3084 287 
Q 2609 -91 1734 -91 
Q 1441 -91 1130 -33 
Q 819 25 488 141 
L 488 750 
Q 750 597 1062 519 
Q 1375 441 1716 441 
Q 2309 441 2620 675 
Q 2931 909 2931 1356 
Q 2931 1769 2642 2001 
Q 2353 2234 1838 2234 
L 1294 2234 
L 1294 2753 
L 1863 2753 
Q 2328 2753 2575 2939 
Q 2822 3125 2822 3475 
Q 2822 3834 2567 4026 
Q 2313 4219 1838 4219 
Q 1578 4219 1281 4162 
Q 984 4106 628 3988 
L 628 4550 
Q 988 4650 1302 4700 
Q 1616 4750 1894 4750 
Q 2613 4750 3031 4423 
Q 3450 4097 3450 3541 
Q 3450 3153 3228 2886 
Q 3006 2619 2597 2516 
z
" transform="scale(0.015625)"/>
      </defs>
      <use xlink:href="#DejaVuSans-33"/>
      <use xlink:href="#DejaVuSans-30" x="63.623047"/>
      <use xlink:href="#DejaVuSans-30" x="127.246094"/>
     </g>
    </g>
    <g id="line2d_30">
     <path d="M 320.02595 195.9475 
L 336.02595 195.9475 
L 352.02595 195.9475 
" style="fill: none; stroke: #8c564b; stroke-opacity: 0.9; stroke-width: 3; stroke-linecap: square"/>
    </g>
    <g id="text_19">
     <!-- 360 -->
     <g transform="translate(364.82595 201.5475) scale(0.16 -0.16)">
      <use xlink:href="#DejaVuSans-33"/>
      <use xlink:href="#DejaVuSans-36" x="63.623047"/>
      <use xlink:href="#DejaVuSans-30" x="127.246094"/>
     </g>
    </g>
    <g id="line2d_31">
     <path d="M 320.02595 219.4325 
L 336.02595 219.4325 
L 352.02595 219.4325 
" style="fill: none; stroke: #e377c2; stroke-opacity: 0.9; stroke-width: 3; stroke-linecap: square"/>
    </g>
    <g id="text_20">
     <!-- 420 -->
     <g transform="translate(364.82595 225.0325) scale(0.16 -0.16)">
      <use xlink:href="#DejaVuSans-34"/>
      <use xlink:href="#DejaVuSans-32" x="63.623047"/>
      <use xlink:href="#DejaVuSans-30" x="127.246094"/>
     </g>
    </g>
    <g id="line2d_32">
     <path d="M 320.02595 242.9175 
L 336.02595 242.9175 
L 352.02595 242.9175 
" style="fill: none; stroke: #7f7f7f; stroke-opacity: 0.9; stroke-width: 3; stroke-linecap: square"/>
    </g>
    <g id="text_21">
     <!-- 480 -->
     <g transform="translate(364.82595 248.5175) scale(0.16 -0.16)">
      <use xlink:href="#DejaVuSans-34"/>
      <use xlink:href="#DejaVuSans-38" x="63.623047"/>
      <use xlink:href="#DejaVuSans-30" x="127.246094"/>
     </g>
    </g>
    <g id="line2d_33">
     <path d="M 320.02595 266.4025 
L 336.02595 266.4025 
L 352.02595 266.4025 
" style="fill: none; stroke: #bcbd22; stroke-opacity: 0.9; stroke-width: 3; stroke-linecap: square"/>
    </g>
    <g id="text_22">
     <!-- 540 -->
     <g transform="translate(364.82595 272.0025) scale(0.16 -0.16)">
      <use xlink:href="#DejaVuSans-35"/>
      <use xlink:href="#DejaVuSans-34" x="63.623047"/>
      <use xlink:href="#DejaVuSans-30" x="127.246094"/>
     </g>
    </g>
    <g id="line2d_34">
     <path d="M 320.02595 289.8875 
L 336.02595 289.8875 
L 352.02595 289.8875 
" style="fill: none; stroke: #17becf; stroke-opacity: 0.9; stroke-width: 3; stroke-linecap: square"/>
    </g>
    <g id="text_23">
     <!-- 600 -->
     <g transform="translate(364.82595 295.4875) scale(0.16 -0.16)">
      <use xlink:href="#DejaVuSans-36"/>
      <use xlink:href="#DejaVuSans-30" x="63.623047"/>
      <use xlink:href="#DejaVuSans-30" x="127.246094"/>
     </g>
    </g>
   </g>
  </g>
 </g>
 <defs>
  <clipPath id="pbca1b00611">
   <rect x="67.52" y="34.08" width="194.964" height="252.28"/>
  </clipPath>
 </defs>
</svg>
