<?xml version="1.0" encoding="utf-8" standalone="no"?>
<!DOCTYPE svg PUBLIC "-//W3C//DTD SVG 1.1//EN"
  "http://www.w3.org/Graphics/SVG/1.1/DTD/svg11.dtd">
<svg xmlns:xlink="http://www.w3.org/1999/xlink" width="460.8pt" height="345.6pt" viewBox="0 0 460.8 345.6" xmlns="http://www.w3.org/2000/svg" version="1.1">
 <metadata>
  <rdf:RDF xmlns:dc="http://purl.org/dc/elements/1.1/" xmlns:cc="http://creativecommons.org/ns#" xmlns:rdf="http://www.w3.org/1999/02/22-rdf-syntax-ns#">
   <cc:Work>
    <dc:type rdf:resource="http://purl.org/dc/dcmitype/StillImage"/>
    <dc:date>2023-03-17T16:26:50.762398</dc:date>
    <dc:format>image/svg+xml</dc:format>
    <dc:creator>
     <cc:Agent>
      <dc:title>Matplotlib v3.6.2, https://matplotlib.org/</dc:title>
     </cc:Agent>
    </dc:creator>
   </cc:Work>
  </rdf:RDF>
 </metadata>
 <defs>
  <style type="text/css">*{stroke-linejoin: round; stroke-linecap: butt}</style>
 </defs>
 <g id="figure_1">
  <g id="patch_1">
   <path d="M 0 345.6 
L 460.8 345.6 
L 460.8 0 
L 0 0 
z
" style="fill: #ffffff"/>
  </g>
  <g id="axes_1">
   <g id="patch_2">
    <path d="M 54.47 297.16 
L 450 297.16 
L 450 27.6 
L 54.47 27.6 
z
" style="fill: #ffffff"/>
   </g>
   <g id="matplotlib.axis_1">
    <g id="xtick_1">
     <g id="line2d_1">
      <defs>
       <path id="mce58155e47" d="M 0 0 
L 0 3.5 
" style="stroke: #000000; stroke-width: 0.8"/>
      </defs>
      <g>
       <use xlink:href="#mce58155e47" x="72.448636" y="297.16" style="stroke: #000000; stroke-width: 0.8"/>
      </g>
     </g>
     <g id="text_1">
      <!-- 0 -->
      <g transform="translate(69.267386 311.758438) scale(0.1 -0.1)">
       <defs>
        <path id="DejaVuSans-30" d="M 2034 4250 
Q 1547 4250 1301 3770 
Q 1056 3291 1056 2328 
Q 1056 1369 1301 889 
Q 1547 409 2034 409 
Q 2525 409 2770 889 
Q 3016 1369 3016 2328 
Q 3016 3291 2770 3770 
Q 2525 4250 2034 4250 
z
M 2034 4750 
Q 2819 4750 3233 4129 
Q 3647 3509 3647 2328 
Q 3647 1150 3233 529 
Q 2819 -91 2034 -91 
Q 1250 -91 836 529 
Q 422 1150 422 2328 
Q 422 3509 836 4129 
Q 1250 4750 2034 4750 
z
" transform="scale(0.015625)"/>
       </defs>
       <use xlink:href="#DejaVuSans-30"/>
      </g>
     </g>
    </g>
    <g id="xtick_2">
     <g id="line2d_2">
      <g>
       <use xlink:href="#mce58155e47" x="132.881028" y="297.16" style="stroke: #000000; stroke-width: 0.8"/>
      </g>
     </g>
     <g id="text_2">
      <!-- 100 -->
      <g transform="translate(123.337278 311.758438) scale(0.1 -0.1)">
       <defs>
        <path id="DejaVuSans-31" d="M 794 531 
L 1825 531 
L 1825 4091 
L 703 3866 
L 703 4441 
L 1819 4666 
L 2450 4666 
L 2450 531 
L 3481 531 
L 3481 0 
L 794 0 
L 794 531 
z
" transform="scale(0.015625)"/>
       </defs>
       <use xlink:href="#DejaVuSans-31"/>
       <use xlink:href="#DejaVuSans-30" x="63.623047"/>
       <use xlink:href="#DejaVuSans-30" x="127.246094"/>
      </g>
     </g>
    </g>
    <g id="xtick_3">
     <g id="line2d_3">
      <g>
       <use xlink:href="#mce58155e47" x="193.313419" y="297.16" style="stroke: #000000; stroke-width: 0.8"/>
      </g>
     </g>
     <g id="text_3">
      <!-- 200 -->
      <g transform="translate(183.769669 311.758438) scale(0.1 -0.1)">
       <defs>
        <path id="DejaVuSans-32" d="M 1228 531 
L 3431 531 
L 3431 0 
L 469 0 
L 469 531 
Q 828 903 1448 1529 
Q 2069 2156 2228 2338 
Q 2531 2678 2651 2914 
Q 2772 3150 2772 3378 
Q 2772 3750 2511 3984 
Q 2250 4219 1831 4219 
Q 1534 4219 1204 4116 
Q 875 4013 500 3803 
L 500 4441 
Q 881 4594 1212 4672 
Q 1544 4750 1819 4750 
Q 2544 4750 2975 4387 
Q 3406 4025 3406 3419 
Q 3406 3131 3298 2873 
Q 3191 2616 2906 2266 
Q 2828 2175 2409 1742 
Q 1991 1309 1228 531 
z
" transform="scale(0.015625)"/>
       </defs>
       <use xlink:href="#DejaVuSans-32"/>
       <use xlink:href="#DejaVuSans-30" x="63.623047"/>
       <use xlink:href="#DejaVuSans-30" x="127.246094"/>
      </g>
     </g>
    </g>
    <g id="xtick_4">
     <g id="line2d_4">
      <g>
       <use xlink:href="#mce58155e47" x="253.74581" y="297.16" style="stroke: #000000; stroke-width: 0.8"/>
      </g>
     </g>
     <g id="text_4">
      <!-- 300 -->
      <g transform="translate(244.20206 311.758438) scale(0.1 -0.1)">
       <defs>
        <path id="DejaVuSans-33" d="M 2597 2516 
Q 3050 2419 3304 2112 
Q 3559 1806 3559 1356 
Q 3559 666 3084 287 
Q 2609 -91 1734 -91 
Q 1441 -91 1130 -33 
Q 819 25 488 141 
L 488 750 
Q 750 597 1062 519 
Q 1375 441 1716 441 
Q 2309 441 2620 675 
Q 2931 909 2931 1356 
Q 2931 1769 2642 2001 
Q 2353 2234 1838 2234 
L 1294 2234 
L 1294 2753 
L 1863 2753 
Q 2328 2753 2575 2939 
Q 2822 3125 2822 3475 
Q 2822 3834 2567 4026 
Q 2313 4219 1838 4219 
Q 1578 4219 1281 4162 
Q 984 4106 628 3988 
L 628 4550 
Q 988 4650 1302 4700 
Q 1616 4750 1894 4750 
Q 2613 4750 3031 4423 
Q 3450 4097 3450 3541 
Q 3450 3153 3228 2886 
Q 3006 2619 2597 2516 
z
" transform="scale(0.015625)"/>
       </defs>
       <use xlink:href="#DejaVuSans-33"/>
       <use xlink:href="#DejaVuSans-30" x="63.623047"/>
       <use xlink:href="#DejaVuSans-30" x="127.246094"/>
      </g>
     </g>
    </g>
    <g id="xtick_5">
     <g id="line2d_5">
      <g>
       <use xlink:href="#mce58155e47" x="314.178201" y="297.16" style="stroke: #000000; stroke-width: 0.8"/>
      </g>
     </g>
     <g id="text_5">
      <!-- 400 -->
      <g transform="translate(304.634451 311.758438) scale(0.1 -0.1)">
       <defs>
        <path id="DejaVuSans-34" d="M 2419 4116 
L 825 1625 
L 2419 1625 
L 2419 4116 
z
M 2253 4666 
L 3047 4666 
L 3047 1625 
L 3713 1625 
L 3713 1100 
L 3047 1100 
L 3047 0 
L 2419 0 
L 2419 1100 
L 313 1100 
L 313 1709 
L 2253 4666 
z
" transform="scale(0.015625)"/>
       </defs>
       <use xlink:href="#DejaVuSans-34"/>
       <use xlink:href="#DejaVuSans-30" x="63.623047"/>
       <use xlink:href="#DejaVuSans-30" x="127.246094"/>
      </g>
     </g>
    </g>
    <g id="xtick_6">
     <g id="line2d_6">
      <g>
       <use xlink:href="#mce58155e47" x="374.610592" y="297.16" style="stroke: #000000; stroke-width: 0.8"/>
      </g>
     </g>
     <g id="text_6">
      <!-- 500 -->
      <g transform="translate(365.066842 311.758438) scale(0.1 -0.1)">
       <defs>
        <path id="DejaVuSans-35" d="M 691 4666 
L 3169 4666 
L 3169 4134 
L 1269 4134 
L 1269 2991 
Q 1406 3038 1543 3061 
Q 1681 3084 1819 3084 
Q 2600 3084 3056 2656 
Q 3513 2228 3513 1497 
Q 3513 744 3044 326 
Q 2575 -91 1722 -91 
Q 1428 -91 1123 -41 
Q 819 9 494 109 
L 494 744 
Q 775 591 1075 516 
Q 1375 441 1709 441 
Q 2250 441 2565 725 
Q 2881 1009 2881 1497 
Q 2881 1984 2565 2268 
Q 2250 2553 1709 2553 
Q 1456 2553 1204 2497 
Q 953 2441 691 2322 
L 691 4666 
z
" transform="scale(0.015625)"/>
       </defs>
       <use xlink:href="#DejaVuSans-35"/>
       <use xlink:href="#DejaVuSans-30" x="63.623047"/>
       <use xlink:href="#DejaVuSans-30" x="127.246094"/>
      </g>
     </g>
    </g>
    <g id="xtick_7">
     <g id="line2d_7">
      <g>
       <use xlink:href="#mce58155e47" x="435.042983" y="297.16" style="stroke: #000000; stroke-width: 0.8"/>
      </g>
     </g>
     <g id="text_7">
      <!-- 600 -->
      <g transform="translate(425.499233 311.758438) scale(0.1 -0.1)">
       <defs>
        <path id="DejaVuSans-36" d="M 2113 2584 
Q 1688 2584 1439 2293 
Q 1191 2003 1191 1497 
Q 1191 994 1439 701 
Q 1688 409 2113 409 
Q 2538 409 2786 701 
Q 3034 994 3034 1497 
Q 3034 2003 2786 2293 
Q 2538 2584 2113 2584 
z
M 3366 4563 
L 3366 3988 
Q 3128 4100 2886 4159 
Q 2644 4219 2406 4219 
Q 1781 4219 1451 3797 
Q 1122 3375 1075 2522 
Q 1259 2794 1537 2939 
Q 1816 3084 2150 3084 
Q 2853 3084 3261 2657 
Q 3669 2231 3669 1497 
Q 3669 778 3244 343 
Q 2819 -91 2113 -91 
Q 1303 -91 875 529 
Q 447 1150 447 2328 
Q 447 3434 972 4092 
Q 1497 4750 2381 4750 
Q 2619 4750 2861 4703 
Q 3103 4656 3366 4563 
z
" transform="scale(0.015625)"/>
       </defs>
       <use xlink:href="#DejaVuSans-36"/>
       <use xlink:href="#DejaVuSans-30" x="63.623047"/>
       <use xlink:href="#DejaVuSans-30" x="127.246094"/>
      </g>
     </g>
    </g>
    <g id="text_8">
     <!-- Distance from Center $(\mu m)$ -->
     <g transform="translate(158.155 328.478125) scale(0.14 -0.14)">
      <defs>
       <path id="DejaVuSans-44" d="M 1259 4147 
L 1259 519 
L 2022 519 
Q 2988 519 3436 956 
Q 3884 1394 3884 2338 
Q 3884 3275 3436 3711 
Q 2988 4147 2022 4147 
L 1259 4147 
z
M 628 4666 
L 1925 4666 
Q 3281 4666 3915 4102 
Q 4550 3538 4550 2338 
Q 4550 1131 3912 565 
Q 3275 0 1925 0 
L 628 0 
L 628 4666 
z
" transform="scale(0.015625)"/>
       <path id="DejaVuSans-69" d="M 603 3500 
L 1178 3500 
L 1178 0 
L 603 0 
L 603 3500 
z
M 603 4863 
L 1178 4863 
L 1178 4134 
L 603 4134 
L 603 4863 
z
" transform="scale(0.015625)"/>
       <path id="DejaVuSans-73" d="M 2834 3397 
L 2834 2853 
Q 2591 2978 2328 3040 
Q 2066 3103 1784 3103 
Q 1356 3103 1142 2972 
Q 928 2841 928 2578 
Q 928 2378 1081 2264 
Q 1234 2150 1697 2047 
L 1894 2003 
Q 2506 1872 2764 1633 
Q 3022 1394 3022 966 
Q 3022 478 2636 193 
Q 2250 -91 1575 -91 
Q 1294 -91 989 -36 
Q 684 19 347 128 
L 347 722 
Q 666 556 975 473 
Q 1284 391 1588 391 
Q 1994 391 2212 530 
Q 2431 669 2431 922 
Q 2431 1156 2273 1281 
Q 2116 1406 1581 1522 
L 1381 1569 
Q 847 1681 609 1914 
Q 372 2147 372 2553 
Q 372 3047 722 3315 
Q 1072 3584 1716 3584 
Q 2034 3584 2315 3537 
Q 2597 3491 2834 3397 
z
" transform="scale(0.015625)"/>
       <path id="DejaVuSans-74" d="M 1172 4494 
L 1172 3500 
L 2356 3500 
L 2356 3053 
L 1172 3053 
L 1172 1153 
Q 1172 725 1289 603 
Q 1406 481 1766 481 
L 2356 481 
L 2356 0 
L 1766 0 
Q 1100 0 847 248 
Q 594 497 594 1153 
L 594 3053 
L 172 3053 
L 172 3500 
L 594 3500 
L 594 4494 
L 1172 4494 
z
" transform="scale(0.015625)"/>
       <path id="DejaVuSans-61" d="M 2194 1759 
Q 1497 1759 1228 1600 
Q 959 1441 959 1056 
Q 959 750 1161 570 
Q 1363 391 1709 391 
Q 2188 391 2477 730 
Q 2766 1069 2766 1631 
L 2766 1759 
L 2194 1759 
z
M 3341 1997 
L 3341 0 
L 2766 0 
L 2766 531 
Q 2569 213 2275 61 
Q 1981 -91 1556 -91 
Q 1019 -91 701 211 
Q 384 513 384 1019 
Q 384 1609 779 1909 
Q 1175 2209 1959 2209 
L 2766 2209 
L 2766 2266 
Q 2766 2663 2505 2880 
Q 2244 3097 1772 3097 
Q 1472 3097 1187 3025 
Q 903 2953 641 2809 
L 641 3341 
Q 956 3463 1253 3523 
Q 1550 3584 1831 3584 
Q 2591 3584 2966 3190 
Q 3341 2797 3341 1997 
z
" transform="scale(0.015625)"/>
       <path id="DejaVuSans-6e" d="M 3513 2113 
L 3513 0 
L 2938 0 
L 2938 2094 
Q 2938 2591 2744 2837 
Q 2550 3084 2163 3084 
Q 1697 3084 1428 2787 
Q 1159 2491 1159 1978 
L 1159 0 
L 581 0 
L 581 3500 
L 1159 3500 
L 1159 2956 
Q 1366 3272 1645 3428 
Q 1925 3584 2291 3584 
Q 2894 3584 3203 3211 
Q 3513 2838 3513 2113 
z
" transform="scale(0.015625)"/>
       <path id="DejaVuSans-63" d="M 3122 3366 
L 3122 2828 
Q 2878 2963 2633 3030 
Q 2388 3097 2138 3097 
Q 1578 3097 1268 2742 
Q 959 2388 959 1747 
Q 959 1106 1268 751 
Q 1578 397 2138 397 
Q 2388 397 2633 464 
Q 2878 531 3122 666 
L 3122 134 
Q 2881 22 2623 -34 
Q 2366 -91 2075 -91 
Q 1284 -91 818 406 
Q 353 903 353 1747 
Q 353 2603 823 3093 
Q 1294 3584 2113 3584 
Q 2378 3584 2631 3529 
Q 2884 3475 3122 3366 
z
" transform="scale(0.015625)"/>
       <path id="DejaVuSans-65" d="M 3597 1894 
L 3597 1613 
L 953 1613 
Q 991 1019 1311 708 
Q 1631 397 2203 397 
Q 2534 397 2845 478 
Q 3156 559 3463 722 
L 3463 178 
Q 3153 47 2828 -22 
Q 2503 -91 2169 -91 
Q 1331 -91 842 396 
Q 353 884 353 1716 
Q 353 2575 817 3079 
Q 1281 3584 2069 3584 
Q 2775 3584 3186 3129 
Q 3597 2675 3597 1894 
z
M 3022 2063 
Q 3016 2534 2758 2815 
Q 2500 3097 2075 3097 
Q 1594 3097 1305 2825 
Q 1016 2553 972 2059 
L 3022 2063 
z
" transform="scale(0.015625)"/>
       <path id="DejaVuSans-20" transform="scale(0.015625)"/>
       <path id="DejaVuSans-66" d="M 2375 4863 
L 2375 4384 
L 1825 4384 
Q 1516 4384 1395 4259 
Q 1275 4134 1275 3809 
L 1275 3500 
L 2222 3500 
L 2222 3053 
L 1275 3053 
L 1275 0 
L 697 0 
L 697 3053 
L 147 3053 
L 147 3500 
L 697 3500 
L 697 3744 
Q 697 4328 969 4595 
Q 1241 4863 1831 4863 
L 2375 4863 
z
" transform="scale(0.015625)"/>
       <path id="DejaVuSans-72" d="M 2631 2963 
Q 2534 3019 2420 3045 
Q 2306 3072 2169 3072 
Q 1681 3072 1420 2755 
Q 1159 2438 1159 1844 
L 1159 0 
L 581 0 
L 581 3500 
L 1159 3500 
L 1159 2956 
Q 1341 3275 1631 3429 
Q 1922 3584 2338 3584 
Q 2397 3584 2469 3576 
Q 2541 3569 2628 3553 
L 2631 2963 
z
" transform="scale(0.015625)"/>
       <path id="DejaVuSans-6f" d="M 1959 3097 
Q 1497 3097 1228 2736 
Q 959 2375 959 1747 
Q 959 1119 1226 758 
Q 1494 397 1959 397 
Q 2419 397 2687 759 
Q 2956 1122 2956 1747 
Q 2956 2369 2687 2733 
Q 2419 3097 1959 3097 
z
M 1959 3584 
Q 2709 3584 3137 3096 
Q 3566 2609 3566 1747 
Q 3566 888 3137 398 
Q 2709 -91 1959 -91 
Q 1206 -91 779 398 
Q 353 888 353 1747 
Q 353 2609 779 3096 
Q 1206 3584 1959 3584 
z
" transform="scale(0.015625)"/>
       <path id="DejaVuSans-6d" d="M 3328 2828 
Q 3544 3216 3844 3400 
Q 4144 3584 4550 3584 
Q 5097 3584 5394 3201 
Q 5691 2819 5691 2113 
L 5691 0 
L 5113 0 
L 5113 2094 
Q 5113 2597 4934 2840 
Q 4756 3084 4391 3084 
Q 3944 3084 3684 2787 
Q 3425 2491 3425 1978 
L 3425 0 
L 2847 0 
L 2847 2094 
Q 2847 2600 2669 2842 
Q 2491 3084 2119 3084 
Q 1678 3084 1418 2786 
Q 1159 2488 1159 1978 
L 1159 0 
L 581 0 
L 581 3500 
L 1159 3500 
L 1159 2956 
Q 1356 3278 1631 3431 
Q 1906 3584 2284 3584 
Q 2666 3584 2933 3390 
Q 3200 3197 3328 2828 
z
" transform="scale(0.015625)"/>
       <path id="DejaVuSans-43" d="M 4122 4306 
L 4122 3641 
Q 3803 3938 3442 4084 
Q 3081 4231 2675 4231 
Q 1875 4231 1450 3742 
Q 1025 3253 1025 2328 
Q 1025 1406 1450 917 
Q 1875 428 2675 428 
Q 3081 428 3442 575 
Q 3803 722 4122 1019 
L 4122 359 
Q 3791 134 3420 21 
Q 3050 -91 2638 -91 
Q 1578 -91 968 557 
Q 359 1206 359 2328 
Q 359 3453 968 4101 
Q 1578 4750 2638 4750 
Q 3056 4750 3426 4639 
Q 3797 4528 4122 4306 
z
" transform="scale(0.015625)"/>
       <path id="DejaVuSans-28" d="M 1984 4856 
Q 1566 4138 1362 3434 
Q 1159 2731 1159 2009 
Q 1159 1288 1364 580 
Q 1569 -128 1984 -844 
L 1484 -844 
Q 1016 -109 783 600 
Q 550 1309 550 2009 
Q 550 2706 781 3412 
Q 1013 4119 1484 4856 
L 1984 4856 
z
" transform="scale(0.015625)"/>
       <path id="DejaVuSans-Oblique-3bc" d="M -84 -1331 
L 856 3500 
L 1434 3500 
L 1009 1322 
Q 997 1256 987 1175 
Q 978 1094 978 1013 
Q 978 722 1161 565 
Q 1344 409 1684 409 
Q 2147 409 2431 671 
Q 2716 934 2816 1459 
L 3213 3500 
L 3788 3500 
L 3266 809 
Q 3253 750 3248 706 
Q 3244 663 3244 628 
Q 3244 531 3283 486 
Q 3322 441 3406 441 
Q 3438 441 3492 456 
Q 3547 472 3647 513 
L 3559 50 
Q 3422 -19 3297 -55 
Q 3172 -91 3053 -91 
Q 2847 -91 2730 40 
Q 2613 172 2613 403 
Q 2438 153 2195 31 
Q 1953 -91 1625 -91 
Q 1334 -91 1117 43 
Q 900 178 831 397 
L 494 -1331 
L -84 -1331 
z
" transform="scale(0.015625)"/>
       <path id="DejaVuSans-Oblique-6d" d="M 5747 2113 
L 5338 0 
L 4763 0 
L 5166 2094 
Q 5191 2228 5203 2325 
Q 5216 2422 5216 2491 
Q 5216 2772 5059 2928 
Q 4903 3084 4622 3084 
Q 4203 3084 3875 2770 
Q 3547 2456 3450 1953 
L 3066 0 
L 2491 0 
L 2900 2094 
Q 2925 2209 2937 2307 
Q 2950 2406 2950 2484 
Q 2950 2769 2794 2926 
Q 2638 3084 2363 3084 
Q 1938 3084 1609 2770 
Q 1281 2456 1184 1953 
L 800 0 
L 225 0 
L 909 3500 
L 1484 3500 
L 1375 2956 
Q 1609 3263 1923 3423 
Q 2238 3584 2597 3584 
Q 2978 3584 3223 3384 
Q 3469 3184 3519 2828 
Q 3781 3197 4126 3390 
Q 4472 3584 4856 3584 
Q 5306 3584 5551 3325 
Q 5797 3066 5797 2591 
Q 5797 2488 5784 2364 
Q 5772 2241 5747 2113 
z
" transform="scale(0.015625)"/>
       <path id="DejaVuSans-29" d="M 513 4856 
L 1013 4856 
Q 1481 4119 1714 3412 
Q 1947 2706 1947 2009 
Q 1947 1309 1714 600 
Q 1481 -109 1013 -844 
L 513 -844 
Q 928 -128 1133 580 
Q 1338 1288 1338 2009 
Q 1338 2731 1133 3434 
Q 928 4138 513 4856 
z
" transform="scale(0.015625)"/>
      </defs>
      <use xlink:href="#DejaVuSans-44" transform="translate(0 0.015625)"/>
      <use xlink:href="#DejaVuSans-69" transform="translate(77.001953 0.015625)"/>
      <use xlink:href="#DejaVuSans-73" transform="translate(104.785156 0.015625)"/>
      <use xlink:href="#DejaVuSans-74" transform="translate(156.884766 0.015625)"/>
      <use xlink:href="#DejaVuSans-61" transform="translate(196.09375 0.015625)"/>
      <use xlink:href="#DejaVuSans-6e" transform="translate(257.373047 0.015625)"/>
      <use xlink:href="#DejaVuSans-63" transform="translate(320.751953 0.015625)"/>
      <use xlink:href="#DejaVuSans-65" transform="translate(375.732422 0.015625)"/>
      <use xlink:href="#DejaVuSans-20" transform="translate(437.255859 0.015625)"/>
      <use xlink:href="#DejaVuSans-66" transform="translate(469.042969 0.015625)"/>
      <use xlink:href="#DejaVuSans-72" transform="translate(504.248047 0.015625)"/>
      <use xlink:href="#DejaVuSans-6f" transform="translate(545.361328 0.015625)"/>
      <use xlink:href="#DejaVuSans-6d" transform="translate(606.542969 0.015625)"/>
      <use xlink:href="#DejaVuSans-20" transform="translate(703.955078 0.015625)"/>
      <use xlink:href="#DejaVuSans-43" transform="translate(735.742188 0.015625)"/>
      <use xlink:href="#DejaVuSans-65" transform="translate(805.566406 0.015625)"/>
      <use xlink:href="#DejaVuSans-6e" transform="translate(867.089844 0.015625)"/>
      <use xlink:href="#DejaVuSans-74" transform="translate(930.46875 0.015625)"/>
      <use xlink:href="#DejaVuSans-65" transform="translate(969.677734 0.015625)"/>
      <use xlink:href="#DejaVuSans-72" transform="translate(1031.201172 0.015625)"/>
      <use xlink:href="#DejaVuSans-20" transform="translate(1072.314453 0.015625)"/>
      <use xlink:href="#DejaVuSans-28" transform="translate(1104.101562 0.015625)"/>
      <use xlink:href="#DejaVuSans-Oblique-3bc" transform="translate(1143.115234 0.015625)"/>
      <use xlink:href="#DejaVuSans-Oblique-6d" transform="translate(1206.738281 0.015625)"/>
      <use xlink:href="#DejaVuSans-29" transform="translate(1304.150391 0.015625)"/>
     </g>
    </g>
   </g>
   <g id="matplotlib.axis_2">
    <g id="ytick_1">
     <g id="line2d_8">
      <path d="M 54.47 262.146241 
L 450 262.146241 
" clip-path="url(#p79996670b0)" style="fill: none; stroke: #f2f2f2; stroke-width: 0.8; stroke-linecap: square"/>
     </g>
     <g id="line2d_9">
      <defs>
       <path id="m9c016f3a8d" d="M 0 0 
L -3.5 0 
" style="stroke: #000000; stroke-width: 0.8"/>
      </defs>
      <g>
       <use xlink:href="#m9c016f3a8d" x="54.47" y="262.146241" style="stroke: #000000; stroke-width: 0.8"/>
      </g>
     </g>
     <g id="text_9">
      <!-- 20 -->
      <g transform="translate(34.745 265.945459) scale(0.1 -0.1)">
       <use xlink:href="#DejaVuSans-32"/>
       <use xlink:href="#DejaVuSans-30" x="63.623047"/>
      </g>
     </g>
    </g>
    <g id="ytick_2">
     <g id="line2d_10">
      <path d="M 54.47 208.721265 
L 450 208.721265 
" clip-path="url(#p79996670b0)" style="fill: none; stroke: #f2f2f2; stroke-width: 0.8; stroke-linecap: square"/>
     </g>
     <g id="line2d_11">
      <g>
       <use xlink:href="#m9c016f3a8d" x="54.47" y="208.721265" style="stroke: #000000; stroke-width: 0.8"/>
      </g>
     </g>
     <g id="text_10">
      <!-- 40 -->
      <g transform="translate(34.745 212.520484) scale(0.1 -0.1)">
       <use xlink:href="#DejaVuSans-34"/>
       <use xlink:href="#DejaVuSans-30" x="63.623047"/>
      </g>
     </g>
    </g>
    <g id="ytick_3">
     <g id="line2d_12">
      <path d="M 54.47 155.296289 
L 450 155.296289 
" clip-path="url(#p79996670b0)" style="fill: none; stroke: #f2f2f2; stroke-width: 0.8; stroke-linecap: square"/>
     </g>
     <g id="line2d_13">
      <g>
       <use xlink:href="#m9c016f3a8d" x="54.47" y="155.296289" style="stroke: #000000; stroke-width: 0.8"/>
      </g>
     </g>
     <g id="text_11">
      <!-- 60 -->
      <g transform="translate(34.745 159.095508) scale(0.1 -0.1)">
       <use xlink:href="#DejaVuSans-36"/>
       <use xlink:href="#DejaVuSans-30" x="63.623047"/>
      </g>
     </g>
    </g>
    <g id="ytick_4">
     <g id="line2d_14">
      <path d="M 54.47 101.871314 
L 450 101.871314 
" clip-path="url(#p79996670b0)" style="fill: none; stroke: #f2f2f2; stroke-width: 0.8; stroke-linecap: square"/>
     </g>
     <g id="line2d_15">
      <g>
       <use xlink:href="#m9c016f3a8d" x="54.47" y="101.871314" style="stroke: #000000; stroke-width: 0.8"/>
      </g>
     </g>
     <g id="text_12">
      <!-- 80 -->
      <g transform="translate(34.745 105.670532) scale(0.1 -0.1)">
       <defs>
        <path id="DejaVuSans-38" d="M 2034 2216 
Q 1584 2216 1326 1975 
Q 1069 1734 1069 1313 
Q 1069 891 1326 650 
Q 1584 409 2034 409 
Q 2484 409 2743 651 
Q 3003 894 3003 1313 
Q 3003 1734 2745 1975 
Q 2488 2216 2034 2216 
z
M 1403 2484 
Q 997 2584 770 2862 
Q 544 3141 544 3541 
Q 544 4100 942 4425 
Q 1341 4750 2034 4750 
Q 2731 4750 3128 4425 
Q 3525 4100 3525 3541 
Q 3525 3141 3298 2862 
Q 3072 2584 2669 2484 
Q 3125 2378 3379 2068 
Q 3634 1759 3634 1313 
Q 3634 634 3220 271 
Q 2806 -91 2034 -91 
Q 1263 -91 848 271 
Q 434 634 434 1313 
Q 434 1759 690 2068 
Q 947 2378 1403 2484 
z
M 1172 3481 
Q 1172 3119 1398 2916 
Q 1625 2713 2034 2713 
Q 2441 2713 2670 2916 
Q 2900 3119 2900 3481 
Q 2900 3844 2670 4047 
Q 2441 4250 2034 4250 
Q 1625 4250 1398 4047 
Q 1172 3844 1172 3481 
z
" transform="scale(0.015625)"/>
       </defs>
       <use xlink:href="#DejaVuSans-38"/>
       <use xlink:href="#DejaVuSans-30" x="63.623047"/>
      </g>
     </g>
    </g>
    <g id="ytick_5">
     <g id="line2d_16">
      <path d="M 54.47 48.446338 
L 450 48.446338 
" clip-path="url(#p79996670b0)" style="fill: none; stroke: #f2f2f2; stroke-width: 0.8; stroke-linecap: square"/>
     </g>
     <g id="line2d_17">
      <g>
       <use xlink:href="#m9c016f3a8d" x="54.47" y="48.446338" style="stroke: #000000; stroke-width: 0.8"/>
      </g>
     </g>
     <g id="text_13">
      <!-- 100 -->
      <g transform="translate(28.3825 52.245557) scale(0.1 -0.1)">
       <use xlink:href="#DejaVuSans-31"/>
       <use xlink:href="#DejaVuSans-30" x="63.623047"/>
       <use xlink:href="#DejaVuSans-30" x="127.246094"/>
      </g>
     </g>
    </g>
    <g id="text_14">
     <!-- Concentration (mM) -->
     <g transform="translate(21.470938 232.444531) rotate(-90) scale(0.14 -0.14)">
      <defs>
       <path id="DejaVuSans-4d" d="M 628 4666 
L 1569 4666 
L 2759 1491 
L 3956 4666 
L 4897 4666 
L 4897 0 
L 4281 0 
L 4281 4097 
L 3078 897 
L 2444 897 
L 1241 4097 
L 1241 0 
L 628 0 
L 628 4666 
z
" transform="scale(0.015625)"/>
      </defs>
      <use xlink:href="#DejaVuSans-43"/>
      <use xlink:href="#DejaVuSans-6f" x="69.824219"/>
      <use xlink:href="#DejaVuSans-6e" x="131.005859"/>
      <use xlink:href="#DejaVuSans-63" x="194.384766"/>
      <use xlink:href="#DejaVuSans-65" x="249.365234"/>
      <use xlink:href="#DejaVuSans-6e" x="310.888672"/>
      <use xlink:href="#DejaVuSans-74" x="374.267578"/>
      <use xlink:href="#DejaVuSans-72" x="413.476562"/>
      <use xlink:href="#DejaVuSans-61" x="454.589844"/>
      <use xlink:href="#DejaVuSans-74" x="515.869141"/>
      <use xlink:href="#DejaVuSans-69" x="555.078125"/>
      <use xlink:href="#DejaVuSans-6f" x="582.861328"/>
      <use xlink:href="#DejaVuSans-6e" x="644.042969"/>
      <use xlink:href="#DejaVuSans-20" x="707.421875"/>
      <use xlink:href="#DejaVuSans-28" x="739.208984"/>
      <use xlink:href="#DejaVuSans-6d" x="778.222656"/>
      <use xlink:href="#DejaVuSans-4d" x="875.634766"/>
      <use xlink:href="#DejaVuSans-29" x="961.914062"/>
     </g>
    </g>
   </g>
   <g id="line2d_18">
    <path d="M 72.448636 282.716619 
L 76.678904 282.750832 
L 80.909171 282.853474 
L 85.139439 283.024554 
L 89.369706 283.264089 
L 93.599973 283.572097 
L 97.830241 283.948607 
L 102.060508 284.393652 
L 106.290775 284.907273 
" clip-path="url(#p79996670b0)" style="fill: none; stroke: #1f77b4; stroke-opacity: 0.9; stroke-width: 3; stroke-linecap: square"/>
   </g>
   <g id="line2d_19">
    <path d="M 72.448636 275.02711 
L 76.678904 275.061244 
L 80.909171 275.16365 
L 85.139439 275.334334 
L 89.369706 275.573305 
L 93.599973 275.880577 
L 97.830241 276.256168 
L 102.060508 276.7001 
L 106.290775 277.212399 
L 110.521043 277.793097 
L 114.75131 278.442232 
L 118.981578 279.159848 
L 123.211845 279.945997 
L 127.442112 280.80074 
L 131.67238 281.724148 
L 135.902647 282.716305 
L 140.132914 283.777307 
L 144.363182 284.907273 
" clip-path="url(#p79996670b0)" style="fill: none; stroke: #ff7f0e; stroke-opacity: 0.9; stroke-width: 3; stroke-linecap: square"/>
   </g>
   <g id="line2d_20">
    <path d="M 72.448636 263.569556 
L 76.678904 263.603616 
L 80.909171 263.705796 
L 85.139439 263.8761 
L 89.369706 264.114534 
L 93.599973 264.421108 
L 97.830241 264.79583 
L 102.060508 265.238716 
L 106.290775 265.74978 
L 110.521043 266.329041 
L 114.75131 266.976522 
L 118.981578 267.692248 
L 123.211845 268.476249 
L 127.442112 269.328559 
L 131.67238 270.249217 
L 135.902647 271.238269 
L 140.132914 272.295766 
L 144.363182 273.421768 
L 148.593449 274.616344 
L 152.823717 275.879573 
L 157.053984 277.211551 
L 161.284251 278.612385 
L 165.514519 280.082205 
L 169.744786 281.621164 
L 173.975053 283.229445 
L 178.205321 284.907273 
" clip-path="url(#p79996670b0)" style="fill: none; stroke: #2ca02c; stroke-opacity: 0.9; stroke-width: 3; stroke-linecap: square"/>
   </g>
   <g id="line2d_21">
    <path d="M 72.448636 245.501038 
L 76.678904 245.535028 
L 80.909171 245.636999 
L 85.139439 245.806952 
L 89.369706 246.044892 
L 93.599973 246.350823 
L 97.830241 246.72475 
L 102.060508 247.166682 
L 106.290775 247.676626 
L 110.521043 248.254593 
L 114.75131 248.900594 
L 118.981578 249.614644 
L 123.211845 250.396757 
L 127.442112 251.246952 
L 131.67238 252.165247 
L 135.902647 253.151666 
L 140.132914 254.206234 
L 144.363182 255.328978 
L 148.593449 256.519932 
L 152.823717 257.779131 
L 157.053984 259.106616 
L 161.284251 260.502434 
L 165.514519 261.966638 
L 169.744786 263.499288 
L 173.975053 265.100454 
L 178.205321 266.770214 
L 182.435588 268.508661 
L 186.665856 270.315903 
L 190.896123 272.192065 
L 195.12639 274.137297 
L 199.356658 276.151777 
L 203.586925 278.235719 
L 207.817193 280.389385 
L 212.04746 282.613101 
L 216.277727 284.907273 
" clip-path="url(#p79996670b0)" style="fill: none; stroke: #d62728; stroke-opacity: 0.9; stroke-width: 3; stroke-linecap: square"/>
   </g>
   <g id="line2d_22">
    <path d="M 72.448636 224.84697 
L 76.678904 224.880914 
L 80.909171 224.982746 
L 85.139439 225.152468 
L 89.369706 225.390081 
L 93.599973 225.695588 
L 97.830241 226.068993 
L 102.060508 226.5103 
L 106.290775 227.019514 
L 110.521043 227.596641 
L 114.75131 228.241688 
L 118.981578 228.954663 
L 123.211845 229.735575 
L 127.442112 230.584434 
L 131.67238 231.501251 
L 135.902647 232.486038 
L 140.132914 233.53881 
L 144.363182 234.659581 
L 148.593449 235.848369 
L 152.823717 237.105194 
L 157.053984 238.430076 
L 161.284251 239.823039 
L 165.514519 241.28411 
L 169.744786 242.813317 
L 173.975053 244.410694 
L 178.205321 246.076277 
L 182.435588 247.810108 
L 186.665856 249.612233 
L 190.896123 251.482705 
L 195.12639 253.421584 
L 199.356658 255.428938 
L 203.586925 257.504845 
L 207.817193 259.649396 
L 212.04746 261.862695 
L 216.277727 264.144865 
L 220.507995 266.49605 
L 224.738262 268.916424 
L 228.968529 271.406191 
L 233.198797 273.965605 
L 237.429064 276.594974 
L 241.659332 279.294687 
L 245.889599 282.065238 
L 250.119866 284.907273 
" clip-path="url(#p79996670b0)" style="fill: none; stroke: #9467bd; stroke-opacity: 0.9; stroke-width: 3; stroke-linecap: square"/>
   </g>
   <g id="line2d_23">
    <path d="M 72.448636 196.448977 
L 76.678904 196.482883 
L 80.909171 196.584602 
L 85.139439 196.754134 
L 89.369706 196.991481 
L 93.599973 197.296644 
L 97.830241 197.669626 
L 102.060508 198.110428 
L 106.290775 198.619053 
L 110.521043 199.195506 
L 114.75131 199.83979 
L 118.981578 200.55191 
L 123.211845 201.33187 
L 127.442112 202.179676 
L 131.67238 203.095334 
L 135.902647 204.078852 
L 140.132914 205.130236 
L 144.363182 206.249495 
L 148.593449 207.436639 
L 152.823717 208.691677 
L 157.053984 210.014621 
L 161.284251 211.405481 
L 165.514519 212.864273 
L 169.744786 214.39101 
L 173.975053 215.985709 
L 178.205321 217.648386 
L 182.435588 219.379062 
L 186.665856 221.177757 
L 190.896123 223.044495 
L 195.12639 224.979303 
L 199.356658 226.982208 
L 203.586925 229.053242 
L 207.817193 231.192442 
L 212.04746 233.399847 
L 216.277727 235.675502 
L 220.507995 238.019457 
L 224.738262 240.431769 
L 228.968529 242.912503 
L 233.198797 245.461731 
L 237.429064 248.07954 
L 241.659332 250.766026 
L 245.889599 253.521305 
L 250.119866 256.345508 
L 254.350134 259.238795 
L 258.580401 262.201353 
L 262.810668 265.233412 
L 267.040936 268.335249 
L 271.271203 271.507212 
L 275.501471 274.749735 
L 279.731738 278.063383 
L 283.962005 281.448894 
L 288.192273 284.907273 
" clip-path="url(#p79996670b0)" style="fill: none; stroke: #8c564b; stroke-opacity: 0.9; stroke-width: 3; stroke-linecap: square"/>
   </g>
   <g id="line2d_24">
    <path d="M 72.448636 162.586794 
L 76.678904 162.620674 
L 80.909171 162.722312 
L 85.139439 162.89171 
L 89.369706 163.128868 
L 93.599973 163.433787 
L 97.830241 163.806468 
L 102.060508 164.246913 
L 106.290775 164.755124 
L 110.521043 165.331103 
L 114.75131 165.974852 
L 118.981578 166.686373 
L 123.211845 167.46567 
L 127.442112 168.312746 
L 131.67238 169.227604 
L 135.902647 170.21025 
L 140.132914 171.260686 
L 144.363182 172.378918 
L 148.593449 173.564951 
L 152.823717 174.818792 
L 157.053984 176.140445 
L 161.284251 177.529918 
L 165.514519 178.987218 
L 169.744786 180.512353 
L 173.975053 182.105332 
L 178.205321 183.766163 
L 182.435588 185.494858 
L 186.665856 187.291427 
L 190.896123 189.155882 
L 195.12639 191.088236 
L 199.356658 193.088504 
L 203.586925 195.1567 
L 207.817193 197.292842 
L 212.04746 199.496947 
L 216.277727 201.769037 
L 220.507995 204.109132 
L 224.738262 206.517259 
L 228.968529 208.993443 
L 233.198797 211.537714 
L 237.429064 214.150105 
L 241.659332 216.830652 
L 245.889599 219.579398 
L 250.119866 222.396386 
L 254.350134 225.28167 
L 258.580401 228.235307 
L 262.810668 231.257363 
L 267.040936 234.347913 
L 271.271203 237.507045 
L 275.501471 240.734859 
L 279.731738 244.031471 
L 283.962005 247.397018 
L 288.192273 250.831663 
L 292.42254 254.335597 
L 296.652807 257.909057 
L 300.883075 261.552328 
L 305.113342 265.265768 
L 309.34361 269.049826 
L 313.573877 272.905084 
L 317.804144 276.83231 
L 322.034412 280.832549 
L 326.264679 284.907273 
" clip-path="url(#p79996670b0)" style="fill: none; stroke: #e377c2; stroke-opacity: 0.9; stroke-width: 3; stroke-linecap: square"/>
   </g>
   <g id="line2d_25">
    <path d="M 72.448636 127.899862 
L 76.678904 127.933724 
L 80.909171 128.03531 
L 85.139439 128.20462 
L 89.369706 128.441655 
L 93.599973 128.746415 
L 97.830241 129.118901 
L 102.060508 129.559114 
L 106.290775 130.067056 
L 110.521043 130.642727 
L 114.75131 131.286129 
L 118.981578 131.997265 
L 123.211845 132.776135 
L 127.442112 133.622743 
L 131.67238 134.53709 
L 135.902647 135.519179 
L 140.132914 136.569013 
L 144.363182 137.686595 
L 148.593449 138.871928 
L 152.823717 140.125016 
L 157.053984 141.445864 
L 161.284251 142.834474 
L 165.514519 144.290852 
L 169.744786 145.815003 
L 173.975053 147.406932 
L 178.205321 149.066645 
L 182.435588 150.794147 
L 186.665856 152.589446 
L 190.896123 154.452549 
L 195.12639 156.383463 
L 199.356658 158.382196 
L 203.586925 160.448758 
L 207.817193 162.583158 
L 212.04746 164.785407 
L 216.277727 167.055515 
L 220.507995 169.393494 
L 224.738262 171.799359 
L 228.968529 174.273123 
L 233.198797 176.814801 
L 237.429064 179.424411 
L 241.659332 182.101971 
L 245.889599 184.847501 
L 250.119866 187.661022 
L 254.350134 190.54256 
L 258.580401 193.492141 
L 262.810668 196.509794 
L 267.040936 199.595551 
L 271.271203 202.749449 
L 275.501471 205.971528 
L 279.731738 209.261832 
L 283.962005 212.620413 
L 288.192273 216.047328 
L 292.42254 219.54264 
L 296.652807 223.106424 
L 300.883075 226.738763 
L 305.113342 230.439756 
L 309.34361 234.209516 
L 313.573877 238.048175 
L 317.804144 241.955889 
L 322.034412 245.932845 
L 326.264679 249.979268 
L 330.494947 254.095433 
L 334.725214 258.281679 
L 338.955481 262.538436 
L 343.185749 266.866253 
L 347.416016 271.265852 
L 351.646283 275.738209 
L 355.876551 280.284687 
L 360.106818 284.907273 
" clip-path="url(#p79996670b0)" style="fill: none; stroke: #7f7f7f; stroke-opacity: 0.9; stroke-width: 3; stroke-linecap: square"/>
   </g>
   <g id="line2d_26">
    <path d="M 72.448636 83.71584 
L 76.678904 83.749687 
L 80.909171 83.851228 
L 85.139439 84.020464 
L 89.369706 84.257395 
L 93.599973 84.562021 
L 97.830241 84.934343 
L 102.060508 85.374361 
L 106.290775 85.882077 
L 110.521043 86.45749 
L 114.75131 87.100603 
L 118.981578 87.811416 
L 123.211845 88.589931 
L 127.442112 89.436148 
L 131.67238 90.35007 
L 135.902647 91.331698 
L 140.132914 92.381034 
L 144.363182 93.49808 
L 148.593449 94.682838 
L 152.823717 95.93531 
L 157.053984 97.255499 
L 161.284251 98.643407 
L 165.514519 100.099038 
L 169.744786 101.622395 
L 173.975053 103.213479 
L 178.205321 104.872296 
L 182.435588 106.598849 
L 186.665856 108.393142 
L 190.896123 110.255179 
L 195.12639 112.184965 
L 199.356658 114.182504 
L 203.586925 116.247802 
L 207.817193 118.380865 
L 212.04746 120.581698 
L 216.277727 122.850307 
L 220.507995 125.1867 
L 224.738262 127.590883 
L 228.968529 130.062866 
L 233.198797 132.602655 
L 237.429064 135.21026 
L 241.659332 137.88569 
L 245.889599 140.628957 
L 250.119866 143.440071 
L 254.350134 146.319045 
L 258.580401 149.265891 
L 262.810668 152.280623 
L 267.040936 155.363257 
L 271.271203 158.513811 
L 275.501471 161.732301 
L 279.731738 165.018747 
L 283.962005 168.373172 
L 288.192273 171.795599 
L 292.42254 175.286054 
L 296.652807 178.844566 
L 300.883075 182.471166 
L 305.113342 186.16589 
L 309.34361 189.928777 
L 313.573877 193.759871 
L 317.804144 197.65922 
L 322.034412 201.626881 
L 326.264679 205.662915 
L 330.494947 209.767393 
L 334.725214 213.940398 
L 338.955481 218.182022 
L 343.185749 222.492374 
L 347.416016 226.871581 
L 351.646283 231.319792 
L 355.876551 235.837185 
L 360.106818 240.423972 
L 364.337086 245.080414 
L 368.567353 249.80683 
L 372.79762 254.603621 
L 377.027888 259.471297 
L 381.258155 264.410525 
L 385.488422 269.422197 
L 389.71869 274.507545 
L 393.948957 279.668342 
L 398.179225 284.907273 
" clip-path="url(#p79996670b0)" style="fill: none; stroke: #bcbd22; stroke-opacity: 0.9; stroke-width: 3; stroke-linecap: square"/>
   </g>
   <g id="line2d_27">
    <path d="M 72.448636 39.852727 
L 76.678904 39.886564 
L 80.909171 39.988076 
L 85.139439 40.157262 
L 89.369706 40.394122 
L 93.599973 40.698658 
L 97.830241 41.070868 
L 102.060508 41.510755 
L 106.290775 42.018318 
L 110.521043 42.593558 
L 114.75131 43.236475 
L 118.981578 43.947071 
L 123.211845 44.725347 
L 127.442112 45.571302 
L 131.67238 46.48494 
L 135.902647 47.466259 
L 140.132914 48.515263 
L 144.363182 49.631952 
L 148.593449 50.816327 
L 152.823717 52.068391 
L 157.053984 53.388145 
L 161.284251 54.77559 
L 165.514519 56.23073 
L 169.744786 57.753565 
L 173.975053 59.344098 
L 178.205321 61.002332 
L 182.435588 62.728268 
L 186.665856 64.521911 
L 190.896123 66.383261 
L 195.12639 68.312323 
L 199.356658 70.3091 
L 203.586925 72.373595 
L 207.817193 74.505812 
L 212.04746 76.705754 
L 216.277727 78.973426 
L 220.507995 81.308832 
L 224.738262 83.711977 
L 228.968529 86.182865 
L 233.198797 88.721502 
L 237.429064 91.327894 
L 241.659332 94.002046 
L 245.889599 96.743964 
L 250.119866 99.553656 
L 254.350134 102.431129 
L 258.580401 105.37639 
L 262.810668 108.389447 
L 267.040936 111.470311 
L 271.271203 114.618989 
L 275.501471 117.835492 
L 279.731738 121.119832 
L 283.962005 124.472019 
L 288.192273 127.892068 
L 292.42254 131.379991 
L 296.652807 134.935803 
L 300.883075 138.559521 
L 305.113342 142.251162 
L 309.34361 146.010745 
L 313.573877 149.838291 
L 317.804144 153.733824 
L 322.034412 157.697367 
L 326.264679 161.728949 
L 330.494947 165.8286 
L 334.725214 169.996353 
L 338.955481 174.232246 
L 343.185749 178.536321 
L 347.416016 182.908624 
L 351.646283 187.349206 
L 355.876551 191.858128 
L 360.106818 196.435457 
L 364.337086 201.081267 
L 368.567353 205.795648 
L 372.79762 210.578701 
L 377.027888 215.430542 
L 381.258155 220.35131 
L 385.488422 225.341169 
L 389.71869 230.400313 
L 393.948957 235.528979 
L 398.179225 240.727455 
L 402.409492 245.9961 
L 406.639759 251.335369 
L 410.870027 256.745846 
L 415.100294 262.228303 
L 419.330561 267.783791 
L 423.560829 273.41379 
L 427.791096 279.12048 
L 432.021364 284.907273 
" clip-path="url(#p79996670b0)" style="fill: none; stroke: #17becf; stroke-opacity: 0.9; stroke-width: 3; stroke-linecap: square"/>
   </g>
   <g id="patch_3">
    <path d="M 54.47 297.16 
L 54.47 27.6 
" style="fill: none; stroke: #000000; stroke-width: 0.8; stroke-linejoin: miter; stroke-linecap: square"/>
   </g>
   <g id="patch_4">
    <path d="M 450 297.16 
L 450 27.6 
" style="fill: none; stroke: #000000; stroke-width: 0.8; stroke-linejoin: miter; stroke-linecap: square"/>
   </g>
   <g id="patch_5">
    <path d="M 54.47 297.16 
L 450 297.16 
" style="fill: none; stroke: #000000; stroke-width: 0.8; stroke-linejoin: miter; stroke-linecap: square"/>
   </g>
   <g id="patch_6">
    <path d="M 54.47 27.6 
L 450 27.6 
" style="fill: none; stroke: #000000; stroke-width: 0.8; stroke-linejoin: miter; stroke-linecap: square"/>
   </g>
   <g id="text_15">
    <!-- ELAC -->
    <g transform="translate(234.200156 21.6) scale(0.14 -0.14)">
     <defs>
      <path id="DejaVuSans-45" d="M 628 4666 
L 3578 4666 
L 3578 4134 
L 1259 4134 
L 1259 2753 
L 3481 2753 
L 3481 2222 
L 1259 2222 
L 1259 531 
L 3634 531 
L 3634 0 
L 628 0 
L 628 4666 
z
" transform="scale(0.015625)"/>
      <path id="DejaVuSans-4c" d="M 628 4666 
L 1259 4666 
L 1259 531 
L 3531 531 
L 3531 0 
L 628 0 
L 628 4666 
z
" transform="scale(0.015625)"/>
      <path id="DejaVuSans-41" d="M 2188 4044 
L 1331 1722 
L 3047 1722 
L 2188 4044 
z
M 1831 4666 
L 2547 4666 
L 4325 0 
L 3669 0 
L 3244 1197 
L 1141 1197 
L 716 0 
L 50 0 
L 1831 4666 
z
" transform="scale(0.015625)"/>
     </defs>
     <use xlink:href="#DejaVuSans-45"/>
     <use xlink:href="#DejaVuSans-4c" x="63.183594"/>
     <use xlink:href="#DejaVuSans-41" x="121.146484"/>
     <use xlink:href="#DejaVuSans-43" x="187.804688"/>
    </g>
   </g>
  </g>
 </g>
 <defs>
  <clipPath id="p79996670b0">
   <rect x="54.47" y="27.6" width="395.53" height="269.56"/>
  </clipPath>
 </defs>
</svg>
