<?xml version="1.0" encoding="utf-8" standalone="no"?>
<!DOCTYPE svg PUBLIC "-//W3C//DTD SVG 1.1//EN"
  "http://www.w3.org/Graphics/SVG/1.1/DTD/svg11.dtd">
<svg xmlns:xlink="http://www.w3.org/1999/xlink" width="460.8pt" height="345.6pt" viewBox="0 0 460.8 345.6" xmlns="http://www.w3.org/2000/svg" version="1.1">
 <metadata>
  <rdf:RDF xmlns:dc="http://purl.org/dc/elements/1.1/" xmlns:cc="http://creativecommons.org/ns#" xmlns:rdf="http://www.w3.org/1999/02/22-rdf-syntax-ns#">
   <cc:Work>
    <dc:type rdf:resource="http://purl.org/dc/dcmitype/StillImage"/>
    <dc:date>2023-03-17T16:26:49.805852</dc:date>
    <dc:format>image/svg+xml</dc:format>
    <dc:creator>
     <cc:Agent>
      <dc:title>Matplotlib v3.6.2, https://matplotlib.org/</dc:title>
     </cc:Agent>
    </dc:creator>
   </cc:Work>
  </rdf:RDF>
 </metadata>
 <defs>
  <style type="text/css">*{stroke-linejoin: round; stroke-linecap: butt}</style>
 </defs>
 <g id="figure_1">
  <g id="patch_1">
   <path d="M 0 345.6 
L 460.8 345.6 
L 460.8 0 
L 0 0 
z
" style="fill: #ffffff"/>
  </g>
  <g id="axes_1">
   <g id="patch_2">
    <path d="M 57.62 297.16 
L 450 297.16 
L 450 27.6 
L 57.62 27.6 
z
" style="fill: #ffffff"/>
   </g>
   <g id="matplotlib.axis_1">
    <g id="xtick_1">
     <g id="line2d_1">
      <defs>
       <path id="ma871a1f9d2" d="M 0 0 
L 0 3.5 
" style="stroke: #000000; stroke-width: 0.8"/>
      </defs>
      <g>
       <use xlink:href="#ma871a1f9d2" x="75.455455" y="297.16" style="stroke: #000000; stroke-width: 0.8"/>
      </g>
     </g>
     <g id="text_1">
      <!-- 0 -->
      <g transform="translate(72.274205 311.758438) scale(0.1 -0.1)">
       <defs>
        <path id="DejaVuSans-30" d="M 2034 4250 
Q 1547 4250 1301 3770 
Q 1056 3291 1056 2328 
Q 1056 1369 1301 889 
Q 1547 409 2034 409 
Q 2525 409 2770 889 
Q 3016 1369 3016 2328 
Q 3016 3291 2770 3770 
Q 2525 4250 2034 4250 
z
M 2034 4750 
Q 2819 4750 3233 4129 
Q 3647 3509 3647 2328 
Q 3647 1150 3233 529 
Q 2819 -91 2034 -91 
Q 1250 -91 836 529 
Q 422 1150 422 2328 
Q 422 3509 836 4129 
Q 1250 4750 2034 4750 
z
" transform="scale(0.015625)"/>
       </defs>
       <use xlink:href="#DejaVuSans-30"/>
      </g>
     </g>
    </g>
    <g id="xtick_2">
     <g id="line2d_2">
      <g>
       <use xlink:href="#ma871a1f9d2" x="135.406562" y="297.16" style="stroke: #000000; stroke-width: 0.8"/>
      </g>
     </g>
     <g id="text_2">
      <!-- 100 -->
      <g transform="translate(125.862812 311.758438) scale(0.1 -0.1)">
       <defs>
        <path id="DejaVuSans-31" d="M 794 531 
L 1825 531 
L 1825 4091 
L 703 3866 
L 703 4441 
L 1819 4666 
L 2450 4666 
L 2450 531 
L 3481 531 
L 3481 0 
L 794 0 
L 794 531 
z
" transform="scale(0.015625)"/>
       </defs>
       <use xlink:href="#DejaVuSans-31"/>
       <use xlink:href="#DejaVuSans-30" x="63.623047"/>
       <use xlink:href="#DejaVuSans-30" x="127.246094"/>
      </g>
     </g>
    </g>
    <g id="xtick_3">
     <g id="line2d_3">
      <g>
       <use xlink:href="#ma871a1f9d2" x="195.35767" y="297.16" style="stroke: #000000; stroke-width: 0.8"/>
      </g>
     </g>
     <g id="text_3">
      <!-- 200 -->
      <g transform="translate(185.81392 311.758438) scale(0.1 -0.1)">
       <defs>
        <path id="DejaVuSans-32" d="M 1228 531 
L 3431 531 
L 3431 0 
L 469 0 
L 469 531 
Q 828 903 1448 1529 
Q 2069 2156 2228 2338 
Q 2531 2678 2651 2914 
Q 2772 3150 2772 3378 
Q 2772 3750 2511 3984 
Q 2250 4219 1831 4219 
Q 1534 4219 1204 4116 
Q 875 4013 500 3803 
L 500 4441 
Q 881 4594 1212 4672 
Q 1544 4750 1819 4750 
Q 2544 4750 2975 4387 
Q 3406 4025 3406 3419 
Q 3406 3131 3298 2873 
Q 3191 2616 2906 2266 
Q 2828 2175 2409 1742 
Q 1991 1309 1228 531 
z
" transform="scale(0.015625)"/>
       </defs>
       <use xlink:href="#DejaVuSans-32"/>
       <use xlink:href="#DejaVuSans-30" x="63.623047"/>
       <use xlink:href="#DejaVuSans-30" x="127.246094"/>
      </g>
     </g>
    </g>
    <g id="xtick_4">
     <g id="line2d_4">
      <g>
       <use xlink:href="#ma871a1f9d2" x="255.308778" y="297.16" style="stroke: #000000; stroke-width: 0.8"/>
      </g>
     </g>
     <g id="text_4">
      <!-- 300 -->
      <g transform="translate(245.765028 311.758438) scale(0.1 -0.1)">
       <defs>
        <path id="DejaVuSans-33" d="M 2597 2516 
Q 3050 2419 3304 2112 
Q 3559 1806 3559 1356 
Q 3559 666 3084 287 
Q 2609 -91 1734 -91 
Q 1441 -91 1130 -33 
Q 819 25 488 141 
L 488 750 
Q 750 597 1062 519 
Q 1375 441 1716 441 
Q 2309 441 2620 675 
Q 2931 909 2931 1356 
Q 2931 1769 2642 2001 
Q 2353 2234 1838 2234 
L 1294 2234 
L 1294 2753 
L 1863 2753 
Q 2328 2753 2575 2939 
Q 2822 3125 2822 3475 
Q 2822 3834 2567 4026 
Q 2313 4219 1838 4219 
Q 1578 4219 1281 4162 
Q 984 4106 628 3988 
L 628 4550 
Q 988 4650 1302 4700 
Q 1616 4750 1894 4750 
Q 2613 4750 3031 4423 
Q 3450 4097 3450 3541 
Q 3450 3153 3228 2886 
Q 3006 2619 2597 2516 
z
" transform="scale(0.015625)"/>
       </defs>
       <use xlink:href="#DejaVuSans-33"/>
       <use xlink:href="#DejaVuSans-30" x="63.623047"/>
       <use xlink:href="#DejaVuSans-30" x="127.246094"/>
      </g>
     </g>
    </g>
    <g id="xtick_5">
     <g id="line2d_5">
      <g>
       <use xlink:href="#ma871a1f9d2" x="315.259885" y="297.16" style="stroke: #000000; stroke-width: 0.8"/>
      </g>
     </g>
     <g id="text_5">
      <!-- 400 -->
      <g transform="translate(305.716135 311.758438) scale(0.1 -0.1)">
       <defs>
        <path id="DejaVuSans-34" d="M 2419 4116 
L 825 1625 
L 2419 1625 
L 2419 4116 
z
M 2253 4666 
L 3047 4666 
L 3047 1625 
L 3713 1625 
L 3713 1100 
L 3047 1100 
L 3047 0 
L 2419 0 
L 2419 1100 
L 313 1100 
L 313 1709 
L 2253 4666 
z
" transform="scale(0.015625)"/>
       </defs>
       <use xlink:href="#DejaVuSans-34"/>
       <use xlink:href="#DejaVuSans-30" x="63.623047"/>
       <use xlink:href="#DejaVuSans-30" x="127.246094"/>
      </g>
     </g>
    </g>
    <g id="xtick_6">
     <g id="line2d_6">
      <g>
       <use xlink:href="#ma871a1f9d2" x="375.210993" y="297.16" style="stroke: #000000; stroke-width: 0.8"/>
      </g>
     </g>
     <g id="text_6">
      <!-- 500 -->
      <g transform="translate(365.667243 311.758438) scale(0.1 -0.1)">
       <defs>
        <path id="DejaVuSans-35" d="M 691 4666 
L 3169 4666 
L 3169 4134 
L 1269 4134 
L 1269 2991 
Q 1406 3038 1543 3061 
Q 1681 3084 1819 3084 
Q 2600 3084 3056 2656 
Q 3513 2228 3513 1497 
Q 3513 744 3044 326 
Q 2575 -91 1722 -91 
Q 1428 -91 1123 -41 
Q 819 9 494 109 
L 494 744 
Q 775 591 1075 516 
Q 1375 441 1709 441 
Q 2250 441 2565 725 
Q 2881 1009 2881 1497 
Q 2881 1984 2565 2268 
Q 2250 2553 1709 2553 
Q 1456 2553 1204 2497 
Q 953 2441 691 2322 
L 691 4666 
z
" transform="scale(0.015625)"/>
       </defs>
       <use xlink:href="#DejaVuSans-35"/>
       <use xlink:href="#DejaVuSans-30" x="63.623047"/>
       <use xlink:href="#DejaVuSans-30" x="127.246094"/>
      </g>
     </g>
    </g>
    <g id="xtick_7">
     <g id="line2d_7">
      <g>
       <use xlink:href="#ma871a1f9d2" x="435.162101" y="297.16" style="stroke: #000000; stroke-width: 0.8"/>
      </g>
     </g>
     <g id="text_7">
      <!-- 600 -->
      <g transform="translate(425.618351 311.758438) scale(0.1 -0.1)">
       <defs>
        <path id="DejaVuSans-36" d="M 2113 2584 
Q 1688 2584 1439 2293 
Q 1191 2003 1191 1497 
Q 1191 994 1439 701 
Q 1688 409 2113 409 
Q 2538 409 2786 701 
Q 3034 994 3034 1497 
Q 3034 2003 2786 2293 
Q 2538 2584 2113 2584 
z
M 3366 4563 
L 3366 3988 
Q 3128 4100 2886 4159 
Q 2644 4219 2406 4219 
Q 1781 4219 1451 3797 
Q 1122 3375 1075 2522 
Q 1259 2794 1537 2939 
Q 1816 3084 2150 3084 
Q 2853 3084 3261 2657 
Q 3669 2231 3669 1497 
Q 3669 778 3244 343 
Q 2819 -91 2113 -91 
Q 1303 -91 875 529 
Q 447 1150 447 2328 
Q 447 3434 972 4092 
Q 1497 4750 2381 4750 
Q 2619 4750 2861 4703 
Q 3103 4656 3366 4563 
z
" transform="scale(0.015625)"/>
       </defs>
       <use xlink:href="#DejaVuSans-36"/>
       <use xlink:href="#DejaVuSans-30" x="63.623047"/>
       <use xlink:href="#DejaVuSans-30" x="127.246094"/>
      </g>
     </g>
    </g>
    <g id="text_8">
     <!-- Distance from Center $(\mu m)$ -->
     <g transform="translate(159.73 328.478125) scale(0.14 -0.14)">
      <defs>
       <path id="DejaVuSans-44" d="M 1259 4147 
L 1259 519 
L 2022 519 
Q 2988 519 3436 956 
Q 3884 1394 3884 2338 
Q 3884 3275 3436 3711 
Q 2988 4147 2022 4147 
L 1259 4147 
z
M 628 4666 
L 1925 4666 
Q 3281 4666 3915 4102 
Q 4550 3538 4550 2338 
Q 4550 1131 3912 565 
Q 3275 0 1925 0 
L 628 0 
L 628 4666 
z
" transform="scale(0.015625)"/>
       <path id="DejaVuSans-69" d="M 603 3500 
L 1178 3500 
L 1178 0 
L 603 0 
L 603 3500 
z
M 603 4863 
L 1178 4863 
L 1178 4134 
L 603 4134 
L 603 4863 
z
" transform="scale(0.015625)"/>
       <path id="DejaVuSans-73" d="M 2834 3397 
L 2834 2853 
Q 2591 2978 2328 3040 
Q 2066 3103 1784 3103 
Q 1356 3103 1142 2972 
Q 928 2841 928 2578 
Q 928 2378 1081 2264 
Q 1234 2150 1697 2047 
L 1894 2003 
Q 2506 1872 2764 1633 
Q 3022 1394 3022 966 
Q 3022 478 2636 193 
Q 2250 -91 1575 -91 
Q 1294 -91 989 -36 
Q 684 19 347 128 
L 347 722 
Q 666 556 975 473 
Q 1284 391 1588 391 
Q 1994 391 2212 530 
Q 2431 669 2431 922 
Q 2431 1156 2273 1281 
Q 2116 1406 1581 1522 
L 1381 1569 
Q 847 1681 609 1914 
Q 372 2147 372 2553 
Q 372 3047 722 3315 
Q 1072 3584 1716 3584 
Q 2034 3584 2315 3537 
Q 2597 3491 2834 3397 
z
" transform="scale(0.015625)"/>
       <path id="DejaVuSans-74" d="M 1172 4494 
L 1172 3500 
L 2356 3500 
L 2356 3053 
L 1172 3053 
L 1172 1153 
Q 1172 725 1289 603 
Q 1406 481 1766 481 
L 2356 481 
L 2356 0 
L 1766 0 
Q 1100 0 847 248 
Q 594 497 594 1153 
L 594 3053 
L 172 3053 
L 172 3500 
L 594 3500 
L 594 4494 
L 1172 4494 
z
" transform="scale(0.015625)"/>
       <path id="DejaVuSans-61" d="M 2194 1759 
Q 1497 1759 1228 1600 
Q 959 1441 959 1056 
Q 959 750 1161 570 
Q 1363 391 1709 391 
Q 2188 391 2477 730 
Q 2766 1069 2766 1631 
L 2766 1759 
L 2194 1759 
z
M 3341 1997 
L 3341 0 
L 2766 0 
L 2766 531 
Q 2569 213 2275 61 
Q 1981 -91 1556 -91 
Q 1019 -91 701 211 
Q 384 513 384 1019 
Q 384 1609 779 1909 
Q 1175 2209 1959 2209 
L 2766 2209 
L 2766 2266 
Q 2766 2663 2505 2880 
Q 2244 3097 1772 3097 
Q 1472 3097 1187 3025 
Q 903 2953 641 2809 
L 641 3341 
Q 956 3463 1253 3523 
Q 1550 3584 1831 3584 
Q 2591 3584 2966 3190 
Q 3341 2797 3341 1997 
z
" transform="scale(0.015625)"/>
       <path id="DejaVuSans-6e" d="M 3513 2113 
L 3513 0 
L 2938 0 
L 2938 2094 
Q 2938 2591 2744 2837 
Q 2550 3084 2163 3084 
Q 1697 3084 1428 2787 
Q 1159 2491 1159 1978 
L 1159 0 
L 581 0 
L 581 3500 
L 1159 3500 
L 1159 2956 
Q 1366 3272 1645 3428 
Q 1925 3584 2291 3584 
Q 2894 3584 3203 3211 
Q 3513 2838 3513 2113 
z
" transform="scale(0.015625)"/>
       <path id="DejaVuSans-63" d="M 3122 3366 
L 3122 2828 
Q 2878 2963 2633 3030 
Q 2388 3097 2138 3097 
Q 1578 3097 1268 2742 
Q 959 2388 959 1747 
Q 959 1106 1268 751 
Q 1578 397 2138 397 
Q 2388 397 2633 464 
Q 2878 531 3122 666 
L 3122 134 
Q 2881 22 2623 -34 
Q 2366 -91 2075 -91 
Q 1284 -91 818 406 
Q 353 903 353 1747 
Q 353 2603 823 3093 
Q 1294 3584 2113 3584 
Q 2378 3584 2631 3529 
Q 2884 3475 3122 3366 
z
" transform="scale(0.015625)"/>
       <path id="DejaVuSans-65" d="M 3597 1894 
L 3597 1613 
L 953 1613 
Q 991 1019 1311 708 
Q 1631 397 2203 397 
Q 2534 397 2845 478 
Q 3156 559 3463 722 
L 3463 178 
Q 3153 47 2828 -22 
Q 2503 -91 2169 -91 
Q 1331 -91 842 396 
Q 353 884 353 1716 
Q 353 2575 817 3079 
Q 1281 3584 2069 3584 
Q 2775 3584 3186 3129 
Q 3597 2675 3597 1894 
z
M 3022 2063 
Q 3016 2534 2758 2815 
Q 2500 3097 2075 3097 
Q 1594 3097 1305 2825 
Q 1016 2553 972 2059 
L 3022 2063 
z
" transform="scale(0.015625)"/>
       <path id="DejaVuSans-20" transform="scale(0.015625)"/>
       <path id="DejaVuSans-66" d="M 2375 4863 
L 2375 4384 
L 1825 4384 
Q 1516 4384 1395 4259 
Q 1275 4134 1275 3809 
L 1275 3500 
L 2222 3500 
L 2222 3053 
L 1275 3053 
L 1275 0 
L 697 0 
L 697 3053 
L 147 3053 
L 147 3500 
L 697 3500 
L 697 3744 
Q 697 4328 969 4595 
Q 1241 4863 1831 4863 
L 2375 4863 
z
" transform="scale(0.015625)"/>
       <path id="DejaVuSans-72" d="M 2631 2963 
Q 2534 3019 2420 3045 
Q 2306 3072 2169 3072 
Q 1681 3072 1420 2755 
Q 1159 2438 1159 1844 
L 1159 0 
L 581 0 
L 581 3500 
L 1159 3500 
L 1159 2956 
Q 1341 3275 1631 3429 
Q 1922 3584 2338 3584 
Q 2397 3584 2469 3576 
Q 2541 3569 2628 3553 
L 2631 2963 
z
" transform="scale(0.015625)"/>
       <path id="DejaVuSans-6f" d="M 1959 3097 
Q 1497 3097 1228 2736 
Q 959 2375 959 1747 
Q 959 1119 1226 758 
Q 1494 397 1959 397 
Q 2419 397 2687 759 
Q 2956 1122 2956 1747 
Q 2956 2369 2687 2733 
Q 2419 3097 1959 3097 
z
M 1959 3584 
Q 2709 3584 3137 3096 
Q 3566 2609 3566 1747 
Q 3566 888 3137 398 
Q 2709 -91 1959 -91 
Q 1206 -91 779 398 
Q 353 888 353 1747 
Q 353 2609 779 3096 
Q 1206 3584 1959 3584 
z
" transform="scale(0.015625)"/>
       <path id="DejaVuSans-6d" d="M 3328 2828 
Q 3544 3216 3844 3400 
Q 4144 3584 4550 3584 
Q 5097 3584 5394 3201 
Q 5691 2819 5691 2113 
L 5691 0 
L 5113 0 
L 5113 2094 
Q 5113 2597 4934 2840 
Q 4756 3084 4391 3084 
Q 3944 3084 3684 2787 
Q 3425 2491 3425 1978 
L 3425 0 
L 2847 0 
L 2847 2094 
Q 2847 2600 2669 2842 
Q 2491 3084 2119 3084 
Q 1678 3084 1418 2786 
Q 1159 2488 1159 1978 
L 1159 0 
L 581 0 
L 581 3500 
L 1159 3500 
L 1159 2956 
Q 1356 3278 1631 3431 
Q 1906 3584 2284 3584 
Q 2666 3584 2933 3390 
Q 3200 3197 3328 2828 
z
" transform="scale(0.015625)"/>
       <path id="DejaVuSans-43" d="M 4122 4306 
L 4122 3641 
Q 3803 3938 3442 4084 
Q 3081 4231 2675 4231 
Q 1875 4231 1450 3742 
Q 1025 3253 1025 2328 
Q 1025 1406 1450 917 
Q 1875 428 2675 428 
Q 3081 428 3442 575 
Q 3803 722 4122 1019 
L 4122 359 
Q 3791 134 3420 21 
Q 3050 -91 2638 -91 
Q 1578 -91 968 557 
Q 359 1206 359 2328 
Q 359 3453 968 4101 
Q 1578 4750 2638 4750 
Q 3056 4750 3426 4639 
Q 3797 4528 4122 4306 
z
" transform="scale(0.015625)"/>
       <path id="DejaVuSans-28" d="M 1984 4856 
Q 1566 4138 1362 3434 
Q 1159 2731 1159 2009 
Q 1159 1288 1364 580 
Q 1569 -128 1984 -844 
L 1484 -844 
Q 1016 -109 783 600 
Q 550 1309 550 2009 
Q 550 2706 781 3412 
Q 1013 4119 1484 4856 
L 1984 4856 
z
" transform="scale(0.015625)"/>
       <path id="DejaVuSans-Oblique-3bc" d="M -84 -1331 
L 856 3500 
L 1434 3500 
L 1009 1322 
Q 997 1256 987 1175 
Q 978 1094 978 1013 
Q 978 722 1161 565 
Q 1344 409 1684 409 
Q 2147 409 2431 671 
Q 2716 934 2816 1459 
L 3213 3500 
L 3788 3500 
L 3266 809 
Q 3253 750 3248 706 
Q 3244 663 3244 628 
Q 3244 531 3283 486 
Q 3322 441 3406 441 
Q 3438 441 3492 456 
Q 3547 472 3647 513 
L 3559 50 
Q 3422 -19 3297 -55 
Q 3172 -91 3053 -91 
Q 2847 -91 2730 40 
Q 2613 172 2613 403 
Q 2438 153 2195 31 
Q 1953 -91 1625 -91 
Q 1334 -91 1117 43 
Q 900 178 831 397 
L 494 -1331 
L -84 -1331 
z
" transform="scale(0.015625)"/>
       <path id="DejaVuSans-Oblique-6d" d="M 5747 2113 
L 5338 0 
L 4763 0 
L 5166 2094 
Q 5191 2228 5203 2325 
Q 5216 2422 5216 2491 
Q 5216 2772 5059 2928 
Q 4903 3084 4622 3084 
Q 4203 3084 3875 2770 
Q 3547 2456 3450 1953 
L 3066 0 
L 2491 0 
L 2900 2094 
Q 2925 2209 2937 2307 
Q 2950 2406 2950 2484 
Q 2950 2769 2794 2926 
Q 2638 3084 2363 3084 
Q 1938 3084 1609 2770 
Q 1281 2456 1184 1953 
L 800 0 
L 225 0 
L 909 3500 
L 1484 3500 
L 1375 2956 
Q 1609 3263 1923 3423 
Q 2238 3584 2597 3584 
Q 2978 3584 3223 3384 
Q 3469 3184 3519 2828 
Q 3781 3197 4126 3390 
Q 4472 3584 4856 3584 
Q 5306 3584 5551 3325 
Q 5797 3066 5797 2591 
Q 5797 2488 5784 2364 
Q 5772 2241 5747 2113 
z
" transform="scale(0.015625)"/>
       <path id="DejaVuSans-29" d="M 513 4856 
L 1013 4856 
Q 1481 4119 1714 3412 
Q 1947 2706 1947 2009 
Q 1947 1309 1714 600 
Q 1481 -109 1013 -844 
L 513 -844 
Q 928 -128 1133 580 
Q 1338 1288 1338 2009 
Q 1338 2731 1133 3434 
Q 928 4138 513 4856 
z
" transform="scale(0.015625)"/>
      </defs>
      <use xlink:href="#DejaVuSans-44" transform="translate(0 0.015625)"/>
      <use xlink:href="#DejaVuSans-69" transform="translate(77.001953 0.015625)"/>
      <use xlink:href="#DejaVuSans-73" transform="translate(104.785156 0.015625)"/>
      <use xlink:href="#DejaVuSans-74" transform="translate(156.884766 0.015625)"/>
      <use xlink:href="#DejaVuSans-61" transform="translate(196.09375 0.015625)"/>
      <use xlink:href="#DejaVuSans-6e" transform="translate(257.373047 0.015625)"/>
      <use xlink:href="#DejaVuSans-63" transform="translate(320.751953 0.015625)"/>
      <use xlink:href="#DejaVuSans-65" transform="translate(375.732422 0.015625)"/>
      <use xlink:href="#DejaVuSans-20" transform="translate(437.255859 0.015625)"/>
      <use xlink:href="#DejaVuSans-66" transform="translate(469.042969 0.015625)"/>
      <use xlink:href="#DejaVuSans-72" transform="translate(504.248047 0.015625)"/>
      <use xlink:href="#DejaVuSans-6f" transform="translate(545.361328 0.015625)"/>
      <use xlink:href="#DejaVuSans-6d" transform="translate(606.542969 0.015625)"/>
      <use xlink:href="#DejaVuSans-20" transform="translate(703.955078 0.015625)"/>
      <use xlink:href="#DejaVuSans-43" transform="translate(735.742188 0.015625)"/>
      <use xlink:href="#DejaVuSans-65" transform="translate(805.566406 0.015625)"/>
      <use xlink:href="#DejaVuSans-6e" transform="translate(867.089844 0.015625)"/>
      <use xlink:href="#DejaVuSans-74" transform="translate(930.46875 0.015625)"/>
      <use xlink:href="#DejaVuSans-65" transform="translate(969.677734 0.015625)"/>
      <use xlink:href="#DejaVuSans-72" transform="translate(1031.201172 0.015625)"/>
      <use xlink:href="#DejaVuSans-20" transform="translate(1072.314453 0.015625)"/>
      <use xlink:href="#DejaVuSans-28" transform="translate(1104.101562 0.015625)"/>
      <use xlink:href="#DejaVuSans-Oblique-3bc" transform="translate(1143.115234 0.015625)"/>
      <use xlink:href="#DejaVuSans-Oblique-6d" transform="translate(1206.738281 0.015625)"/>
      <use xlink:href="#DejaVuSans-29" transform="translate(1304.150391 0.015625)"/>
     </g>
    </g>
   </g>
   <g id="matplotlib.axis_2">
    <g id="ytick_1">
     <g id="line2d_8">
      <path d="M 57.62 284.907273 
L 450 284.907273 
" clip-path="url(#p3a6a7115a1)" style="fill: none; stroke: #f2f2f2; stroke-width: 0.8; stroke-linecap: square"/>
     </g>
     <g id="line2d_9">
      <defs>
       <path id="mb069effb5e" d="M 0 0 
L -3.5 0 
" style="stroke: #000000; stroke-width: 0.8"/>
      </defs>
      <g>
       <use xlink:href="#mb069effb5e" x="57.62" y="284.907273" style="stroke: #000000; stroke-width: 0.8"/>
      </g>
     </g>
     <g id="text_9">
      <!-- 0.00 -->
      <g transform="translate(28.354375 288.706492) scale(0.1 -0.1)">
       <defs>
        <path id="DejaVuSans-2e" d="M 684 794 
L 1344 794 
L 1344 0 
L 684 0 
L 684 794 
z
" transform="scale(0.015625)"/>
       </defs>
       <use xlink:href="#DejaVuSans-30"/>
       <use xlink:href="#DejaVuSans-2e" x="63.623047"/>
       <use xlink:href="#DejaVuSans-30" x="95.410156"/>
       <use xlink:href="#DejaVuSans-30" x="159.033203"/>
      </g>
     </g>
    </g>
    <g id="ytick_2">
     <g id="line2d_10">
      <path d="M 57.62 233.982384 
L 450 233.982384 
" clip-path="url(#p3a6a7115a1)" style="fill: none; stroke: #f2f2f2; stroke-width: 0.8; stroke-linecap: square"/>
     </g>
     <g id="line2d_11">
      <g>
       <use xlink:href="#mb069effb5e" x="57.62" y="233.982384" style="stroke: #000000; stroke-width: 0.8"/>
      </g>
     </g>
     <g id="text_10">
      <!-- 0.01 -->
      <g transform="translate(28.354375 237.781602) scale(0.1 -0.1)">
       <use xlink:href="#DejaVuSans-30"/>
       <use xlink:href="#DejaVuSans-2e" x="63.623047"/>
       <use xlink:href="#DejaVuSans-30" x="95.410156"/>
       <use xlink:href="#DejaVuSans-31" x="159.033203"/>
      </g>
     </g>
    </g>
    <g id="ytick_3">
     <g id="line2d_12">
      <path d="M 57.62 183.057495 
L 450 183.057495 
" clip-path="url(#p3a6a7115a1)" style="fill: none; stroke: #f2f2f2; stroke-width: 0.8; stroke-linecap: square"/>
     </g>
     <g id="line2d_13">
      <g>
       <use xlink:href="#mb069effb5e" x="57.62" y="183.057495" style="stroke: #000000; stroke-width: 0.8"/>
      </g>
     </g>
     <g id="text_11">
      <!-- 0.02 -->
      <g transform="translate(28.354375 186.856713) scale(0.1 -0.1)">
       <use xlink:href="#DejaVuSans-30"/>
       <use xlink:href="#DejaVuSans-2e" x="63.623047"/>
       <use xlink:href="#DejaVuSans-30" x="95.410156"/>
       <use xlink:href="#DejaVuSans-32" x="159.033203"/>
      </g>
     </g>
    </g>
    <g id="ytick_4">
     <g id="line2d_14">
      <path d="M 57.62 132.132605 
L 450 132.132605 
" clip-path="url(#p3a6a7115a1)" style="fill: none; stroke: #f2f2f2; stroke-width: 0.8; stroke-linecap: square"/>
     </g>
     <g id="line2d_15">
      <g>
       <use xlink:href="#mb069effb5e" x="57.62" y="132.132605" style="stroke: #000000; stroke-width: 0.8"/>
      </g>
     </g>
     <g id="text_12">
      <!-- 0.03 -->
      <g transform="translate(28.354375 135.931824) scale(0.1 -0.1)">
       <use xlink:href="#DejaVuSans-30"/>
       <use xlink:href="#DejaVuSans-2e" x="63.623047"/>
       <use xlink:href="#DejaVuSans-30" x="95.410156"/>
       <use xlink:href="#DejaVuSans-33" x="159.033203"/>
      </g>
     </g>
    </g>
    <g id="ytick_5">
     <g id="line2d_16">
      <path d="M 57.62 81.207716 
L 450 81.207716 
" clip-path="url(#p3a6a7115a1)" style="fill: none; stroke: #f2f2f2; stroke-width: 0.8; stroke-linecap: square"/>
     </g>
     <g id="line2d_17">
      <g>
       <use xlink:href="#mb069effb5e" x="57.62" y="81.207716" style="stroke: #000000; stroke-width: 0.8"/>
      </g>
     </g>
     <g id="text_13">
      <!-- 0.04 -->
      <g transform="translate(28.354375 85.006935) scale(0.1 -0.1)">
       <use xlink:href="#DejaVuSans-30"/>
       <use xlink:href="#DejaVuSans-2e" x="63.623047"/>
       <use xlink:href="#DejaVuSans-30" x="95.410156"/>
       <use xlink:href="#DejaVuSans-34" x="159.033203"/>
      </g>
     </g>
    </g>
    <g id="ytick_6">
     <g id="line2d_18">
      <path d="M 57.62 30.282827 
L 450 30.282827 
" clip-path="url(#p3a6a7115a1)" style="fill: none; stroke: #f2f2f2; stroke-width: 0.8; stroke-linecap: square"/>
     </g>
     <g id="line2d_19">
      <g>
       <use xlink:href="#mb069effb5e" x="57.62" y="30.282827" style="stroke: #000000; stroke-width: 0.8"/>
      </g>
     </g>
     <g id="text_14">
      <!-- 0.05 -->
      <g transform="translate(28.354375 34.082046) scale(0.1 -0.1)">
       <use xlink:href="#DejaVuSans-30"/>
       <use xlink:href="#DejaVuSans-2e" x="63.623047"/>
       <use xlink:href="#DejaVuSans-30" x="95.410156"/>
       <use xlink:href="#DejaVuSans-35" x="159.033203"/>
      </g>
     </g>
    </g>
    <g id="text_15">
     <!-- Concentration (mM) -->
     <g transform="translate(21.442813 232.444531) rotate(-90) scale(0.14 -0.14)">
      <defs>
       <path id="DejaVuSans-4d" d="M 628 4666 
L 1569 4666 
L 2759 1491 
L 3956 4666 
L 4897 4666 
L 4897 0 
L 4281 0 
L 4281 4097 
L 3078 897 
L 2444 897 
L 1241 4097 
L 1241 0 
L 628 0 
L 628 4666 
z
" transform="scale(0.015625)"/>
      </defs>
      <use xlink:href="#DejaVuSans-43"/>
      <use xlink:href="#DejaVuSans-6f" x="69.824219"/>
      <use xlink:href="#DejaVuSans-6e" x="131.005859"/>
      <use xlink:href="#DejaVuSans-63" x="194.384766"/>
      <use xlink:href="#DejaVuSans-65" x="249.365234"/>
      <use xlink:href="#DejaVuSans-6e" x="310.888672"/>
      <use xlink:href="#DejaVuSans-74" x="374.267578"/>
      <use xlink:href="#DejaVuSans-72" x="413.476562"/>
      <use xlink:href="#DejaVuSans-61" x="454.589844"/>
      <use xlink:href="#DejaVuSans-74" x="515.869141"/>
      <use xlink:href="#DejaVuSans-69" x="555.078125"/>
      <use xlink:href="#DejaVuSans-6f" x="582.861328"/>
      <use xlink:href="#DejaVuSans-6e" x="644.042969"/>
      <use xlink:href="#DejaVuSans-20" x="707.421875"/>
      <use xlink:href="#DejaVuSans-28" x="739.208984"/>
      <use xlink:href="#DejaVuSans-6d" x="778.222656"/>
      <use xlink:href="#DejaVuSans-4d" x="875.634766"/>
      <use xlink:href="#DejaVuSans-29" x="961.914062"/>
     </g>
    </g>
   </g>
   <g id="line2d_20">
    <path d="M 75.455455 90.175847 
L 79.652032 89.477135 
L 83.84861 87.360561 
L 88.045187 83.775461 
L 92.241765 78.641748 
L 96.438342 71.847794 
L 100.63492 63.247672 
L 104.831497 52.65775 
L 109.028075 39.852727 
" clip-path="url(#p3a6a7115a1)" style="fill: none; stroke: #1f77b4; stroke-opacity: 0.9; stroke-width: 3; stroke-linecap: square"/>
   </g>
   <g id="line2d_21">
    <path d="M 75.455455 203.156695 
L 79.652032 202.849009 
L 83.84861 201.915611 
L 88.045187 200.330726 
L 92.241765 198.053232 
L 96.438342 195.025063 
L 100.63492 191.169002 
L 104.831497 186.385801 
L 109.028075 180.550514 
L 113.224652 173.507976 
L 117.42123 165.0673 
L 121.617807 154.99536 
L 125.814385 143.009205 
L 130.010963 128.767517 
L 134.20754 111.861306 
L 138.404118 91.804306 
L 142.600695 68.023777 
L 146.797273 39.852727 
" clip-path="url(#p3a6a7115a1)" style="fill: none; stroke: #ff7f0e; stroke-opacity: 0.9; stroke-width: 3; stroke-linecap: square"/>
   </g>
   <g id="line2d_22">
    <path d="M 75.455455 264.089783 
L 79.652032 264.012835 
L 83.84861 263.779309 
L 88.045187 263.382502 
L 92.241765 262.811667 
L 96.438342 262.051527 
L 100.63492 261.081574 
L 104.831497 259.875133 
L 109.028075 258.398105 
L 113.224652 256.607336 
L 117.42123 254.448495 
L 121.617807 251.853319 
L 125.814385 248.736075 
L 130.010963 244.988998 
L 134.20754 240.47645 
L 138.404118 235.02746 
L 142.600695 228.426289 
L 146.797273 220.400614 
L 150.99385 210.606989 
L 155.190428 198.613376 
L 159.387005 183.87891 
L 163.583583 165.731682 
L 167.78016 143.346306 
L 171.976738 115.724398 
L 176.173316 81.682468 
L 180.369893 39.852727 
" clip-path="url(#p3a6a7115a1)" style="fill: none; stroke: #2ca02c; stroke-opacity: 0.9; stroke-width: 3; stroke-linecap: square"/>
   </g>
   <g id="line2d_23">
    <path d="M 75.455455 282.430036 
L 79.652032 282.421707 
L 83.84861 282.396451 
L 88.045187 282.353597 
L 92.241765 282.292074 
L 96.438342 282.21036 
L 100.63492 282.106416 
L 104.831497 281.977601 
L 109.028075 281.820545 
L 113.224652 281.630996 
L 117.42123 281.403611 
L 121.617807 281.131686 
L 125.814385 280.806798 
L 130.010963 280.418341 
L 134.20754 279.952905 
L 138.404118 279.393454 
L 142.600695 278.718228 
L 146.797273 277.899263 
L 150.99385 276.900391 
L 155.190428 275.67452 
L 159.387005 274.159907 
L 163.583583 272.275039 
L 167.78016 269.911563 
L 171.976738 266.924508 
L 176.173316 263.11876 
L 180.369893 258.230421 
L 184.566471 251.901325 
L 188.763048 243.644768 
L 192.959626 232.800648 
L 197.156203 218.479323 
L 201.352781 199.496389 
L 205.549358 174.306231 
L 209.745936 140.950728 
L 213.942513 97.048495 
L 218.139091 39.852727 
" clip-path="url(#p3a6a7115a1)" style="fill: none; stroke: #d62728; stroke-opacity: 0.9; stroke-width: 3; stroke-linecap: square"/>
   </g>
   <g id="line2d_24">
    <path d="M 75.455455 284.655794 
L 79.652032 284.655039 
L 83.84861 284.652753 
L 88.045187 284.648883 
L 92.241765 284.643341 
L 96.438342 284.636005 
L 100.63492 284.626715 
L 104.831497 284.615259 
L 109.028075 284.601376 
L 113.224652 284.584734 
L 117.42123 284.564924 
L 121.617807 284.541436 
L 125.814385 284.513641 
L 130.010963 284.480754 
L 134.20754 284.441799 
L 138.404118 284.395553 
L 142.600695 284.340481 
L 146.797273 284.274642 
L 150.99385 284.195565 
L 155.190428 284.100091 
L 159.387005 283.984145 
L 163.583583 283.842437 
L 167.78016 283.668043 
L 171.976738 283.451828 
L 176.173316 283.181631 
L 180.369893 282.841124 
L 184.566471 282.408176 
L 188.763048 281.852495 
L 192.959626 281.132212 
L 197.156203 280.188854 
L 201.352781 278.939921 
L 205.549358 277.267802 
L 209.745936 275.003151 
L 213.942513 271.899859 
L 218.139091 267.59741 
L 222.335668 261.564725 
L 226.532246 253.018024 
L 230.728824 240.80525 
L 234.925401 223.254724 
L 239.121979 198.002116 
L 243.318556 161.843549 
L 247.515134 110.707186 
L 251.711711 39.852727 
" clip-path="url(#p3a6a7115a1)" style="fill: none; stroke: #9467bd; stroke-opacity: 0.9; stroke-width: 3; stroke-linecap: square"/>
   </g>
   <g id="line2d_25">
    <path d="M 75.455455 284.893349 
L 79.652032 284.893313 
L 83.84861 284.893203 
L 88.045187 284.893017 
L 92.241765 284.892752 
L 96.438342 284.892403 
L 100.63492 284.891962 
L 104.831497 284.891422 
L 109.028075 284.890772 
L 113.224652 284.889999 
L 117.42123 284.889086 
L 121.617807 284.888013 
L 125.814385 284.886758 
L 130.010963 284.88529 
L 134.20754 284.883573 
L 138.404118 284.881563 
L 142.600695 284.879206 
L 146.797273 284.876434 
L 150.99385 284.873164 
L 155.190428 284.869291 
L 159.387005 284.864683 
L 163.583583 284.859175 
L 167.78016 284.852556 
L 171.976738 284.844556 
L 176.173316 284.834825 
L 180.369893 284.822913 
L 184.566471 284.808226 
L 188.763048 284.789984 
L 192.959626 284.767146 
L 197.156203 284.738318 
L 201.352781 284.701606 
L 205.549358 284.65442 
L 209.745936 284.593179 
L 213.942513 284.512875 
L 218.139091 284.406429 
L 222.335668 284.26371 
L 226.532246 284.070042 
L 230.728824 283.803881 
L 234.925401 283.433165 
L 239.121979 282.909498 
L 243.318556 282.158737 
L 247.515134 281.065576 
L 251.711711 279.447964 
L 255.908289 277.014274 
L 260.104866 273.29126 
L 264.301444 267.503524 
L 268.498021 258.376303 
L 272.694599 243.829881 
L 276.891176 220.558401 
L 281.087754 183.583838 
L 285.284332 126.073214 
L 289.480909 39.852727 
" clip-path="url(#p3a6a7115a1)" style="fill: none; stroke: #8c564b; stroke-opacity: 0.9; stroke-width: 3; stroke-linecap: square"/>
   </g>
   <g id="line2d_26">
    <path d="M 75.455455 284.906668 
L 79.652032 284.906666 
L 83.84861 284.906662 
L 88.045187 284.906655 
L 92.241765 284.906645 
L 96.438342 284.906632 
L 100.63492 284.906616 
L 104.831497 284.906596 
L 109.028075 284.906572 
L 113.224652 284.906544 
L 117.42123 284.906511 
L 121.617807 284.906473 
L 125.814385 284.906428 
L 130.010963 284.906377 
L 134.20754 284.906317 
L 138.404118 284.906248 
L 142.600695 284.906168 
L 146.797273 284.906076 
L 150.99385 284.905968 
L 155.190428 284.905843 
L 159.387005 284.905697 
L 163.583583 284.905525 
L 167.78016 284.905324 
L 171.976738 284.905085 
L 176.173316 284.904802 
L 180.369893 284.904463 
L 184.566471 284.904057 
L 188.763048 284.903567 
L 192.959626 284.902972 
L 197.156203 284.902244 
L 201.352781 284.901349 
L 205.549358 284.90024 
L 209.745936 284.898855 
L 213.942513 284.897113 
L 218.139091 284.894903 
L 222.335668 284.892076 
L 226.532246 284.888427 
L 230.728824 284.883671 
L 234.925401 284.877412 
L 239.121979 284.869086 
L 243.318556 284.857889 
L 247.515134 284.842656 
L 251.711711 284.821673 
L 255.908289 284.792393 
L 260.104866 284.750973 
L 264.301444 284.691517 
L 268.498021 284.604844 
L 272.694599 284.476403 
L 276.891176 284.282711 
L 281.087754 283.985137 
L 285.284332 283.518824 
L 289.480909 282.772567 
L 293.677487 281.551496 
L 297.874064 279.506706 
L 302.070642 276.001026 
L 306.267219 269.853429 
L 310.463797 258.866389 
L 314.660374 239.02498 
L 318.856952 203.408535 
L 323.053529 141.439241 
L 327.250107 39.852727 
" clip-path="url(#p3a6a7115a1)" style="fill: none; stroke: #e377c2; stroke-opacity: 0.9; stroke-width: 3; stroke-linecap: square"/>
   </g>
   <g id="line2d_27">
    <path d="M 75.455455 284.907241 
L 79.652032 284.907241 
L 83.84861 284.90724 
L 88.045187 284.90724 
L 92.241765 284.90724 
L 96.438342 284.907239 
L 100.63492 284.907238 
L 104.831497 284.907237 
L 109.028075 284.907236 
L 113.224652 284.907235 
L 117.42123 284.907233 
L 121.617807 284.907232 
L 125.814385 284.90723 
L 130.010963 284.907227 
L 134.20754 284.907225 
L 138.404118 284.907222 
L 142.600695 284.907218 
L 146.797273 284.907214 
L 150.99385 284.90721 
L 155.190428 284.907205 
L 159.387005 284.907199 
L 163.583583 284.907192 
L 167.78016 284.907184 
L 171.976738 284.907174 
L 176.173316 284.907163 
L 180.369893 284.907151 
L 184.566471 284.907136 
L 188.763048 284.907118 
L 192.959626 284.907097 
L 197.156203 284.907072 
L 201.352781 284.907041 
L 205.549358 284.907005 
L 209.745936 284.906961 
L 213.942513 284.906907 
L 218.139091 284.90684 
L 222.335668 284.906758 
L 226.532246 284.906656 
L 230.728824 284.906528 
L 234.925401 284.906365 
L 239.121979 284.906158 
L 243.318556 284.905892 
L 247.515134 284.905547 
L 251.711711 284.905095 
L 255.908289 284.904498 
L 260.104866 284.9037 
L 264.301444 284.902624 
L 268.498021 284.901154 
L 272.694599 284.899124 
L 276.891176 284.896285 
L 281.087754 284.89226 
L 285.284332 284.886474 
L 289.480909 284.878031 
L 293.677487 284.865515 
L 297.874064 284.846643 
L 302.070642 284.817671 
L 306.267219 284.772326 
L 310.463797 284.699872 
L 314.660374 284.581499 
L 318.856952 284.383419 
L 323.053529 284.043297 
L 327.250107 283.442828 
L 331.446684 282.350731 
L 335.643262 280.301166 
L 339.83984 276.32988 
L 344.036417 268.403698 
L 348.232995 252.253298 
L 352.429572 219.379721 
L 356.62615 155.097932 
L 360.822727 39.852727 
" clip-path="url(#p3a6a7115a1)" style="fill: none; stroke: #7f7f7f; stroke-opacity: 0.9; stroke-width: 3; stroke-linecap: square"/>
   </g>
   <g id="line2d_28">
    <path d="M 75.455455 284.907272 
L 79.652032 284.907272 
L 83.84861 284.907272 
L 88.045187 284.907272 
L 92.241765 284.907272 
L 96.438342 284.907272 
L 100.63492 284.907272 
L 104.831497 284.907272 
L 109.028075 284.907272 
L 113.224652 284.907272 
L 117.42123 284.907272 
L 121.617807 284.907271 
L 125.814385 284.907271 
L 130.010963 284.907271 
L 134.20754 284.907271 
L 138.404118 284.907271 
L 142.600695 284.907271 
L 146.797273 284.907271 
L 150.99385 284.907271 
L 155.190428 284.907271 
L 159.387005 284.907271 
L 163.583583 284.90727 
L 167.78016 284.90727 
L 171.976738 284.90727 
L 176.173316 284.90727 
L 180.369893 284.90727 
L 184.566471 284.907269 
L 188.763048 284.907269 
L 192.959626 284.907268 
L 197.156203 284.907268 
L 201.352781 284.907267 
L 205.549358 284.907266 
L 209.745936 284.907266 
L 213.942513 284.907265 
L 218.139091 284.907263 
L 222.335668 284.907262 
L 226.532246 284.90726 
L 230.728824 284.907258 
L 234.925401 284.907255 
L 239.121979 284.907252 
L 243.318556 284.907248 
L 247.515134 284.907243 
L 251.711711 284.907237 
L 255.908289 284.907229 
L 260.104866 284.907219 
L 264.301444 284.907206 
L 268.498021 284.907189 
L 272.694599 284.907168 
L 276.891176 284.907139 
L 281.087754 284.907101 
L 285.284332 284.907051 
L 289.480909 284.906982 
L 293.677487 284.906888 
L 297.874064 284.906758 
L 302.070642 284.906576 
L 306.267219 284.906317 
L 310.463797 284.905945 
L 314.660374 284.905401 
L 318.856952 284.904596 
L 323.053529 284.903384 
L 327.250107 284.901527 
L 331.446684 284.898629 
L 335.643262 284.894017 
L 339.83984 284.88652 
L 344.036417 284.874053 
L 348.232995 284.852804 
L 352.429572 284.815604 
L 356.62615 284.748558 
L 360.822727 284.623818 
L 365.019305 284.383519 
L 369.215882 283.902617 
L 373.41246 282.899312 
L 377.609037 280.710627 
L 381.805615 275.71509 
L 386.002193 263.868097 
L 390.19877 235.439063 
L 394.395348 170.463959 
L 398.591925 39.852727 
" clip-path="url(#p3a6a7115a1)" style="fill: none; stroke: #bcbd22; stroke-opacity: 0.9; stroke-width: 3; stroke-linecap: square"/>
   </g>
   <g id="line2d_29">
    <path d="M 75.455455 284.907273 
L 79.652032 284.907273 
L 83.84861 284.907273 
L 88.045187 284.907273 
L 92.241765 284.907273 
L 96.438342 284.907273 
L 100.63492 284.907273 
L 104.831497 284.907273 
L 109.028075 284.907273 
L 113.224652 284.907273 
L 117.42123 284.907273 
L 121.617807 284.907273 
L 125.814385 284.907273 
L 130.010963 284.907273 
L 134.20754 284.907273 
L 138.404118 284.907273 
L 142.600695 284.907273 
L 146.797273 284.907273 
L 150.99385 284.907273 
L 155.190428 284.907273 
L 159.387005 284.907273 
L 163.583583 284.907273 
L 167.78016 284.907273 
L 171.976738 284.907273 
L 176.173316 284.907273 
L 180.369893 284.907273 
L 184.566471 284.907273 
L 188.763048 284.907273 
L 192.959626 284.907273 
L 197.156203 284.907273 
L 201.352781 284.907273 
L 205.549358 284.907273 
L 209.745936 284.907273 
L 213.942513 284.907273 
L 218.139091 284.907272 
L 222.335668 284.907272 
L 226.532246 284.907272 
L 230.728824 284.907272 
L 234.925401 284.907272 
L 239.121979 284.907272 
L 243.318556 284.907272 
L 247.515134 284.907272 
L 251.711711 284.907272 
L 255.908289 284.907272 
L 260.104866 284.907271 
L 264.301444 284.907271 
L 268.498021 284.907271 
L 272.694599 284.90727 
L 276.891176 284.90727 
L 281.087754 284.907269 
L 285.284332 284.907268 
L 289.480909 284.907267 
L 293.677487 284.907266 
L 297.874064 284.907264 
L 302.070642 284.907262 
L 306.267219 284.907258 
L 310.463797 284.907254 
L 314.660374 284.907248 
L 318.856952 284.90724 
L 323.053529 284.907228 
L 327.250107 284.907212 
L 331.446684 284.907188 
L 335.643262 284.907155 
L 339.83984 284.907105 
L 344.036417 284.907032 
L 348.232995 284.90692 
L 352.429572 284.906749 
L 356.62615 284.906481 
L 360.822727 284.906053 
L 365.019305 284.905354 
L 369.215882 284.904189 
L 373.41246 284.902199 
L 377.609037 284.898709 
L 381.805615 284.892411 
L 386.002193 284.880689 
L 390.19877 284.85811 
L 394.395348 284.812946 
L 398.591925 284.718742 
L 402.788503 284.512869 
L 406.98508 284.038875 
L 411.181658 282.882438 
L 415.378235 279.878649 
L 419.574813 271.591835 
L 423.77139 247.971296 
L 427.967968 184.12265 
L 432.164545 39.852727 
" clip-path="url(#p3a6a7115a1)" style="fill: none; stroke: #17becf; stroke-opacity: 0.9; stroke-width: 3; stroke-linecap: square"/>
   </g>
   <g id="patch_3">
    <path d="M 57.62 297.16 
L 57.62 27.6 
" style="fill: none; stroke: #000000; stroke-width: 0.8; stroke-linejoin: miter; stroke-linecap: square"/>
   </g>
   <g id="patch_4">
    <path d="M 450 297.16 
L 450 27.6 
" style="fill: none; stroke: #000000; stroke-width: 0.8; stroke-linejoin: miter; stroke-linecap: square"/>
   </g>
   <g id="patch_5">
    <path d="M 57.62 297.16 
L 450 297.16 
" style="fill: none; stroke: #000000; stroke-width: 0.8; stroke-linejoin: miter; stroke-linecap: square"/>
   </g>
   <g id="patch_6">
    <path d="M 57.62 27.6 
L 450 27.6 
" style="fill: none; stroke: #000000; stroke-width: 0.8; stroke-linejoin: miter; stroke-linecap: square"/>
   </g>
   <g id="text_16">
    <!-- EPYR -->
    <g transform="translate(236.184219 21.6) scale(0.14 -0.14)">
     <defs>
      <path id="DejaVuSans-45" d="M 628 4666 
L 3578 4666 
L 3578 4134 
L 1259 4134 
L 1259 2753 
L 3481 2753 
L 3481 2222 
L 1259 2222 
L 1259 531 
L 3634 531 
L 3634 0 
L 628 0 
L 628 4666 
z
" transform="scale(0.015625)"/>
      <path id="DejaVuSans-50" d="M 1259 4147 
L 1259 2394 
L 2053 2394 
Q 2494 2394 2734 2622 
Q 2975 2850 2975 3272 
Q 2975 3691 2734 3919 
Q 2494 4147 2053 4147 
L 1259 4147 
z
M 628 4666 
L 2053 4666 
Q 2838 4666 3239 4311 
Q 3641 3956 3641 3272 
Q 3641 2581 3239 2228 
Q 2838 1875 2053 1875 
L 1259 1875 
L 1259 0 
L 628 0 
L 628 4666 
z
" transform="scale(0.015625)"/>
      <path id="DejaVuSans-59" d="M -13 4666 
L 666 4666 
L 1959 2747 
L 3244 4666 
L 3922 4666 
L 2272 2222 
L 2272 0 
L 1638 0 
L 1638 2222 
L -13 4666 
z
" transform="scale(0.015625)"/>
      <path id="DejaVuSans-52" d="M 2841 2188 
Q 3044 2119 3236 1894 
Q 3428 1669 3622 1275 
L 4263 0 
L 3584 0 
L 2988 1197 
Q 2756 1666 2539 1819 
Q 2322 1972 1947 1972 
L 1259 1972 
L 1259 0 
L 628 0 
L 628 4666 
L 2053 4666 
Q 2853 4666 3247 4331 
Q 3641 3997 3641 3322 
Q 3641 2881 3436 2590 
Q 3231 2300 2841 2188 
z
M 1259 4147 
L 1259 2491 
L 2053 2491 
Q 2509 2491 2742 2702 
Q 2975 2913 2975 3322 
Q 2975 3731 2742 3939 
Q 2509 4147 2053 4147 
L 1259 4147 
z
" transform="scale(0.015625)"/>
     </defs>
     <use xlink:href="#DejaVuSans-45"/>
     <use xlink:href="#DejaVuSans-50" x="63.183594"/>
     <use xlink:href="#DejaVuSans-59" x="121.236328"/>
     <use xlink:href="#DejaVuSans-52" x="182.320312"/>
    </g>
   </g>
  </g>
 </g>
 <defs>
  <clipPath id="p3a6a7115a1">
   <rect x="57.62" y="27.6" width="392.38" height="269.56"/>
  </clipPath>
 </defs>
</svg>
