<?xml version="1.0" encoding="utf-8" standalone="no"?>
<!DOCTYPE svg PUBLIC "-//W3C//DTD SVG 1.1//EN"
  "http://www.w3.org/Graphics/SVG/1.1/DTD/svg11.dtd">
<svg xmlns:xlink="http://www.w3.org/1999/xlink" width="460.8pt" height="345.6pt" viewBox="0 0 460.8 345.6" xmlns="http://www.w3.org/2000/svg" version="1.1">
 <metadata>
  <rdf:RDF xmlns:dc="http://purl.org/dc/elements/1.1/" xmlns:cc="http://creativecommons.org/ns#" xmlns:rdf="http://www.w3.org/1999/02/22-rdf-syntax-ns#">
   <cc:Work>
    <dc:type rdf:resource="http://purl.org/dc/dcmitype/StillImage"/>
    <dc:date>2023-05-23T21:13:30.100231</dc:date>
    <dc:format>image/svg+xml</dc:format>
    <dc:creator>
     <cc:Agent>
      <dc:title>Matplotlib v3.6.2, https://matplotlib.org/</dc:title>
     </cc:Agent>
    </dc:creator>
   </cc:Work>
  </rdf:RDF>
 </metadata>
 <defs>
  <style type="text/css">*{stroke-linejoin: round; stroke-linecap: butt}</style>
 </defs>
 <g id="figure_1">
  <g id="patch_1">
   <path d="M 0 345.6 
L 460.8 345.6 
L 460.8 0 
L 0 0 
z
" style="fill: #ffffff"/>
  </g>
  <g id="axes_1">
   <g id="patch_2">
    <path d="M 63.92 297.16 
L 450 297.16 
L 450 27.6 
L 63.92 27.6 
z
" style="fill: #ffffff"/>
   </g>
   <g id="matplotlib.axis_1">
    <g id="xtick_1">
     <g id="line2d_1">
      <defs>
       <path id="m23e44cd67f" d="M 0 0 
L 0 3.5 
" style="stroke: #000000; stroke-width: 0.8"/>
      </defs>
      <g>
       <use xlink:href="#m23e44cd67f" x="81.469091" y="297.16" style="stroke: #000000; stroke-width: 0.8"/>
      </g>
     </g>
     <g id="text_1">
      <!-- 0 -->
      <g transform="translate(78.287841 311.758438) scale(0.1 -0.1)">
       <defs>
        <path id="DejaVuSans-30" d="M 2034 4250 
Q 1547 4250 1301 3770 
Q 1056 3291 1056 2328 
Q 1056 1369 1301 889 
Q 1547 409 2034 409 
Q 2525 409 2770 889 
Q 3016 1369 3016 2328 
Q 3016 3291 2770 3770 
Q 2525 4250 2034 4250 
z
M 2034 4750 
Q 2819 4750 3233 4129 
Q 3647 3509 3647 2328 
Q 3647 1150 3233 529 
Q 2819 -91 2034 -91 
Q 1250 -91 836 529 
Q 422 1150 422 2328 
Q 422 3509 836 4129 
Q 1250 4750 2034 4750 
z
" transform="scale(0.015625)"/>
       </defs>
       <use xlink:href="#DejaVuSans-30"/>
      </g>
     </g>
    </g>
    <g id="xtick_2">
     <g id="line2d_2">
      <g>
       <use xlink:href="#m23e44cd67f" x="140.457632" y="297.16" style="stroke: #000000; stroke-width: 0.8"/>
      </g>
     </g>
     <g id="text_2">
      <!-- 100 -->
      <g transform="translate(130.913882 311.758438) scale(0.1 -0.1)">
       <defs>
        <path id="DejaVuSans-31" d="M 794 531 
L 1825 531 
L 1825 4091 
L 703 3866 
L 703 4441 
L 1819 4666 
L 2450 4666 
L 2450 531 
L 3481 531 
L 3481 0 
L 794 0 
L 794 531 
z
" transform="scale(0.015625)"/>
       </defs>
       <use xlink:href="#DejaVuSans-31"/>
       <use xlink:href="#DejaVuSans-30" x="63.623047"/>
       <use xlink:href="#DejaVuSans-30" x="127.246094"/>
      </g>
     </g>
    </g>
    <g id="xtick_3">
     <g id="line2d_3">
      <g>
       <use xlink:href="#m23e44cd67f" x="199.446173" y="297.16" style="stroke: #000000; stroke-width: 0.8"/>
      </g>
     </g>
     <g id="text_3">
      <!-- 200 -->
      <g transform="translate(189.902423 311.758438) scale(0.1 -0.1)">
       <defs>
        <path id="DejaVuSans-32" d="M 1228 531 
L 3431 531 
L 3431 0 
L 469 0 
L 469 531 
Q 828 903 1448 1529 
Q 2069 2156 2228 2338 
Q 2531 2678 2651 2914 
Q 2772 3150 2772 3378 
Q 2772 3750 2511 3984 
Q 2250 4219 1831 4219 
Q 1534 4219 1204 4116 
Q 875 4013 500 3803 
L 500 4441 
Q 881 4594 1212 4672 
Q 1544 4750 1819 4750 
Q 2544 4750 2975 4387 
Q 3406 4025 3406 3419 
Q 3406 3131 3298 2873 
Q 3191 2616 2906 2266 
Q 2828 2175 2409 1742 
Q 1991 1309 1228 531 
z
" transform="scale(0.015625)"/>
       </defs>
       <use xlink:href="#DejaVuSans-32"/>
       <use xlink:href="#DejaVuSans-30" x="63.623047"/>
       <use xlink:href="#DejaVuSans-30" x="127.246094"/>
      </g>
     </g>
    </g>
    <g id="xtick_4">
     <g id="line2d_4">
      <g>
       <use xlink:href="#m23e44cd67f" x="258.434714" y="297.16" style="stroke: #000000; stroke-width: 0.8"/>
      </g>
     </g>
     <g id="text_4">
      <!-- 300 -->
      <g transform="translate(248.890964 311.758438) scale(0.1 -0.1)">
       <defs>
        <path id="DejaVuSans-33" d="M 2597 2516 
Q 3050 2419 3304 2112 
Q 3559 1806 3559 1356 
Q 3559 666 3084 287 
Q 2609 -91 1734 -91 
Q 1441 -91 1130 -33 
Q 819 25 488 141 
L 488 750 
Q 750 597 1062 519 
Q 1375 441 1716 441 
Q 2309 441 2620 675 
Q 2931 909 2931 1356 
Q 2931 1769 2642 2001 
Q 2353 2234 1838 2234 
L 1294 2234 
L 1294 2753 
L 1863 2753 
Q 2328 2753 2575 2939 
Q 2822 3125 2822 3475 
Q 2822 3834 2567 4026 
Q 2313 4219 1838 4219 
Q 1578 4219 1281 4162 
Q 984 4106 628 3988 
L 628 4550 
Q 988 4650 1302 4700 
Q 1616 4750 1894 4750 
Q 2613 4750 3031 4423 
Q 3450 4097 3450 3541 
Q 3450 3153 3228 2886 
Q 3006 2619 2597 2516 
z
" transform="scale(0.015625)"/>
       </defs>
       <use xlink:href="#DejaVuSans-33"/>
       <use xlink:href="#DejaVuSans-30" x="63.623047"/>
       <use xlink:href="#DejaVuSans-30" x="127.246094"/>
      </g>
     </g>
    </g>
    <g id="xtick_5">
     <g id="line2d_5">
      <g>
       <use xlink:href="#m23e44cd67f" x="317.423254" y="297.16" style="stroke: #000000; stroke-width: 0.8"/>
      </g>
     </g>
     <g id="text_5">
      <!-- 400 -->
      <g transform="translate(307.879504 311.758438) scale(0.1 -0.1)">
       <defs>
        <path id="DejaVuSans-34" d="M 2419 4116 
L 825 1625 
L 2419 1625 
L 2419 4116 
z
M 2253 4666 
L 3047 4666 
L 3047 1625 
L 3713 1625 
L 3713 1100 
L 3047 1100 
L 3047 0 
L 2419 0 
L 2419 1100 
L 313 1100 
L 313 1709 
L 2253 4666 
z
" transform="scale(0.015625)"/>
       </defs>
       <use xlink:href="#DejaVuSans-34"/>
       <use xlink:href="#DejaVuSans-30" x="63.623047"/>
       <use xlink:href="#DejaVuSans-30" x="127.246094"/>
      </g>
     </g>
    </g>
    <g id="xtick_6">
     <g id="line2d_6">
      <g>
       <use xlink:href="#m23e44cd67f" x="376.411795" y="297.16" style="stroke: #000000; stroke-width: 0.8"/>
      </g>
     </g>
     <g id="text_6">
      <!-- 500 -->
      <g transform="translate(366.868045 311.758438) scale(0.1 -0.1)">
       <defs>
        <path id="DejaVuSans-35" d="M 691 4666 
L 3169 4666 
L 3169 4134 
L 1269 4134 
L 1269 2991 
Q 1406 3038 1543 3061 
Q 1681 3084 1819 3084 
Q 2600 3084 3056 2656 
Q 3513 2228 3513 1497 
Q 3513 744 3044 326 
Q 2575 -91 1722 -91 
Q 1428 -91 1123 -41 
Q 819 9 494 109 
L 494 744 
Q 775 591 1075 516 
Q 1375 441 1709 441 
Q 2250 441 2565 725 
Q 2881 1009 2881 1497 
Q 2881 1984 2565 2268 
Q 2250 2553 1709 2553 
Q 1456 2553 1204 2497 
Q 953 2441 691 2322 
L 691 4666 
z
" transform="scale(0.015625)"/>
       </defs>
       <use xlink:href="#DejaVuSans-35"/>
       <use xlink:href="#DejaVuSans-30" x="63.623047"/>
       <use xlink:href="#DejaVuSans-30" x="127.246094"/>
      </g>
     </g>
    </g>
    <g id="xtick_7">
     <g id="line2d_7">
      <g>
       <use xlink:href="#m23e44cd67f" x="435.400336" y="297.16" style="stroke: #000000; stroke-width: 0.8"/>
      </g>
     </g>
     <g id="text_7">
      <!-- 600 -->
      <g transform="translate(425.856586 311.758438) scale(0.1 -0.1)">
       <defs>
        <path id="DejaVuSans-36" d="M 2113 2584 
Q 1688 2584 1439 2293 
Q 1191 2003 1191 1497 
Q 1191 994 1439 701 
Q 1688 409 2113 409 
Q 2538 409 2786 701 
Q 3034 994 3034 1497 
Q 3034 2003 2786 2293 
Q 2538 2584 2113 2584 
z
M 3366 4563 
L 3366 3988 
Q 3128 4100 2886 4159 
Q 2644 4219 2406 4219 
Q 1781 4219 1451 3797 
Q 1122 3375 1075 2522 
Q 1259 2794 1537 2939 
Q 1816 3084 2150 3084 
Q 2853 3084 3261 2657 
Q 3669 2231 3669 1497 
Q 3669 778 3244 343 
Q 2819 -91 2113 -91 
Q 1303 -91 875 529 
Q 447 1150 447 2328 
Q 447 3434 972 4092 
Q 1497 4750 2381 4750 
Q 2619 4750 2861 4703 
Q 3103 4656 3366 4563 
z
" transform="scale(0.015625)"/>
       </defs>
       <use xlink:href="#DejaVuSans-36"/>
       <use xlink:href="#DejaVuSans-30" x="63.623047"/>
       <use xlink:href="#DejaVuSans-30" x="127.246094"/>
      </g>
     </g>
    </g>
    <g id="text_8">
     <!-- Distance from Center $(\mu m)$ -->
     <g transform="translate(162.88 328.478125) scale(0.14 -0.14)">
      <defs>
       <path id="DejaVuSans-44" d="M 1259 4147 
L 1259 519 
L 2022 519 
Q 2988 519 3436 956 
Q 3884 1394 3884 2338 
Q 3884 3275 3436 3711 
Q 2988 4147 2022 4147 
L 1259 4147 
z
M 628 4666 
L 1925 4666 
Q 3281 4666 3915 4102 
Q 4550 3538 4550 2338 
Q 4550 1131 3912 565 
Q 3275 0 1925 0 
L 628 0 
L 628 4666 
z
" transform="scale(0.015625)"/>
       <path id="DejaVuSans-69" d="M 603 3500 
L 1178 3500 
L 1178 0 
L 603 0 
L 603 3500 
z
M 603 4863 
L 1178 4863 
L 1178 4134 
L 603 4134 
L 603 4863 
z
" transform="scale(0.015625)"/>
       <path id="DejaVuSans-73" d="M 2834 3397 
L 2834 2853 
Q 2591 2978 2328 3040 
Q 2066 3103 1784 3103 
Q 1356 3103 1142 2972 
Q 928 2841 928 2578 
Q 928 2378 1081 2264 
Q 1234 2150 1697 2047 
L 1894 2003 
Q 2506 1872 2764 1633 
Q 3022 1394 3022 966 
Q 3022 478 2636 193 
Q 2250 -91 1575 -91 
Q 1294 -91 989 -36 
Q 684 19 347 128 
L 347 722 
Q 666 556 975 473 
Q 1284 391 1588 391 
Q 1994 391 2212 530 
Q 2431 669 2431 922 
Q 2431 1156 2273 1281 
Q 2116 1406 1581 1522 
L 1381 1569 
Q 847 1681 609 1914 
Q 372 2147 372 2553 
Q 372 3047 722 3315 
Q 1072 3584 1716 3584 
Q 2034 3584 2315 3537 
Q 2597 3491 2834 3397 
z
" transform="scale(0.015625)"/>
       <path id="DejaVuSans-74" d="M 1172 4494 
L 1172 3500 
L 2356 3500 
L 2356 3053 
L 1172 3053 
L 1172 1153 
Q 1172 725 1289 603 
Q 1406 481 1766 481 
L 2356 481 
L 2356 0 
L 1766 0 
Q 1100 0 847 248 
Q 594 497 594 1153 
L 594 3053 
L 172 3053 
L 172 3500 
L 594 3500 
L 594 4494 
L 1172 4494 
z
" transform="scale(0.015625)"/>
       <path id="DejaVuSans-61" d="M 2194 1759 
Q 1497 1759 1228 1600 
Q 959 1441 959 1056 
Q 959 750 1161 570 
Q 1363 391 1709 391 
Q 2188 391 2477 730 
Q 2766 1069 2766 1631 
L 2766 1759 
L 2194 1759 
z
M 3341 1997 
L 3341 0 
L 2766 0 
L 2766 531 
Q 2569 213 2275 61 
Q 1981 -91 1556 -91 
Q 1019 -91 701 211 
Q 384 513 384 1019 
Q 384 1609 779 1909 
Q 1175 2209 1959 2209 
L 2766 2209 
L 2766 2266 
Q 2766 2663 2505 2880 
Q 2244 3097 1772 3097 
Q 1472 3097 1187 3025 
Q 903 2953 641 2809 
L 641 3341 
Q 956 3463 1253 3523 
Q 1550 3584 1831 3584 
Q 2591 3584 2966 3190 
Q 3341 2797 3341 1997 
z
" transform="scale(0.015625)"/>
       <path id="DejaVuSans-6e" d="M 3513 2113 
L 3513 0 
L 2938 0 
L 2938 2094 
Q 2938 2591 2744 2837 
Q 2550 3084 2163 3084 
Q 1697 3084 1428 2787 
Q 1159 2491 1159 1978 
L 1159 0 
L 581 0 
L 581 3500 
L 1159 3500 
L 1159 2956 
Q 1366 3272 1645 3428 
Q 1925 3584 2291 3584 
Q 2894 3584 3203 3211 
Q 3513 2838 3513 2113 
z
" transform="scale(0.015625)"/>
       <path id="DejaVuSans-63" d="M 3122 3366 
L 3122 2828 
Q 2878 2963 2633 3030 
Q 2388 3097 2138 3097 
Q 1578 3097 1268 2742 
Q 959 2388 959 1747 
Q 959 1106 1268 751 
Q 1578 397 2138 397 
Q 2388 397 2633 464 
Q 2878 531 3122 666 
L 3122 134 
Q 2881 22 2623 -34 
Q 2366 -91 2075 -91 
Q 1284 -91 818 406 
Q 353 903 353 1747 
Q 353 2603 823 3093 
Q 1294 3584 2113 3584 
Q 2378 3584 2631 3529 
Q 2884 3475 3122 3366 
z
" transform="scale(0.015625)"/>
       <path id="DejaVuSans-65" d="M 3597 1894 
L 3597 1613 
L 953 1613 
Q 991 1019 1311 708 
Q 1631 397 2203 397 
Q 2534 397 2845 478 
Q 3156 559 3463 722 
L 3463 178 
Q 3153 47 2828 -22 
Q 2503 -91 2169 -91 
Q 1331 -91 842 396 
Q 353 884 353 1716 
Q 353 2575 817 3079 
Q 1281 3584 2069 3584 
Q 2775 3584 3186 3129 
Q 3597 2675 3597 1894 
z
M 3022 2063 
Q 3016 2534 2758 2815 
Q 2500 3097 2075 3097 
Q 1594 3097 1305 2825 
Q 1016 2553 972 2059 
L 3022 2063 
z
" transform="scale(0.015625)"/>
       <path id="DejaVuSans-20" transform="scale(0.015625)"/>
       <path id="DejaVuSans-66" d="M 2375 4863 
L 2375 4384 
L 1825 4384 
Q 1516 4384 1395 4259 
Q 1275 4134 1275 3809 
L 1275 3500 
L 2222 3500 
L 2222 3053 
L 1275 3053 
L 1275 0 
L 697 0 
L 697 3053 
L 147 3053 
L 147 3500 
L 697 3500 
L 697 3744 
Q 697 4328 969 4595 
Q 1241 4863 1831 4863 
L 2375 4863 
z
" transform="scale(0.015625)"/>
       <path id="DejaVuSans-72" d="M 2631 2963 
Q 2534 3019 2420 3045 
Q 2306 3072 2169 3072 
Q 1681 3072 1420 2755 
Q 1159 2438 1159 1844 
L 1159 0 
L 581 0 
L 581 3500 
L 1159 3500 
L 1159 2956 
Q 1341 3275 1631 3429 
Q 1922 3584 2338 3584 
Q 2397 3584 2469 3576 
Q 2541 3569 2628 3553 
L 2631 2963 
z
" transform="scale(0.015625)"/>
       <path id="DejaVuSans-6f" d="M 1959 3097 
Q 1497 3097 1228 2736 
Q 959 2375 959 1747 
Q 959 1119 1226 758 
Q 1494 397 1959 397 
Q 2419 397 2687 759 
Q 2956 1122 2956 1747 
Q 2956 2369 2687 2733 
Q 2419 3097 1959 3097 
z
M 1959 3584 
Q 2709 3584 3137 3096 
Q 3566 2609 3566 1747 
Q 3566 888 3137 398 
Q 2709 -91 1959 -91 
Q 1206 -91 779 398 
Q 353 888 353 1747 
Q 353 2609 779 3096 
Q 1206 3584 1959 3584 
z
" transform="scale(0.015625)"/>
       <path id="DejaVuSans-6d" d="M 3328 2828 
Q 3544 3216 3844 3400 
Q 4144 3584 4550 3584 
Q 5097 3584 5394 3201 
Q 5691 2819 5691 2113 
L 5691 0 
L 5113 0 
L 5113 2094 
Q 5113 2597 4934 2840 
Q 4756 3084 4391 3084 
Q 3944 3084 3684 2787 
Q 3425 2491 3425 1978 
L 3425 0 
L 2847 0 
L 2847 2094 
Q 2847 2600 2669 2842 
Q 2491 3084 2119 3084 
Q 1678 3084 1418 2786 
Q 1159 2488 1159 1978 
L 1159 0 
L 581 0 
L 581 3500 
L 1159 3500 
L 1159 2956 
Q 1356 3278 1631 3431 
Q 1906 3584 2284 3584 
Q 2666 3584 2933 3390 
Q 3200 3197 3328 2828 
z
" transform="scale(0.015625)"/>
       <path id="DejaVuSans-43" d="M 4122 4306 
L 4122 3641 
Q 3803 3938 3442 4084 
Q 3081 4231 2675 4231 
Q 1875 4231 1450 3742 
Q 1025 3253 1025 2328 
Q 1025 1406 1450 917 
Q 1875 428 2675 428 
Q 3081 428 3442 575 
Q 3803 722 4122 1019 
L 4122 359 
Q 3791 134 3420 21 
Q 3050 -91 2638 -91 
Q 1578 -91 968 557 
Q 359 1206 359 2328 
Q 359 3453 968 4101 
Q 1578 4750 2638 4750 
Q 3056 4750 3426 4639 
Q 3797 4528 4122 4306 
z
" transform="scale(0.015625)"/>
       <path id="DejaVuSans-28" d="M 1984 4856 
Q 1566 4138 1362 3434 
Q 1159 2731 1159 2009 
Q 1159 1288 1364 580 
Q 1569 -128 1984 -844 
L 1484 -844 
Q 1016 -109 783 600 
Q 550 1309 550 2009 
Q 550 2706 781 3412 
Q 1013 4119 1484 4856 
L 1984 4856 
z
" transform="scale(0.015625)"/>
       <path id="DejaVuSans-Oblique-3bc" d="M -84 -1331 
L 856 3500 
L 1434 3500 
L 1009 1322 
Q 997 1256 987 1175 
Q 978 1094 978 1013 
Q 978 722 1161 565 
Q 1344 409 1684 409 
Q 2147 409 2431 671 
Q 2716 934 2816 1459 
L 3213 3500 
L 3788 3500 
L 3266 809 
Q 3253 750 3248 706 
Q 3244 663 3244 628 
Q 3244 531 3283 486 
Q 3322 441 3406 441 
Q 3438 441 3492 456 
Q 3547 472 3647 513 
L 3559 50 
Q 3422 -19 3297 -55 
Q 3172 -91 3053 -91 
Q 2847 -91 2730 40 
Q 2613 172 2613 403 
Q 2438 153 2195 31 
Q 1953 -91 1625 -91 
Q 1334 -91 1117 43 
Q 900 178 831 397 
L 494 -1331 
L -84 -1331 
z
" transform="scale(0.015625)"/>
       <path id="DejaVuSans-Oblique-6d" d="M 5747 2113 
L 5338 0 
L 4763 0 
L 5166 2094 
Q 5191 2228 5203 2325 
Q 5216 2422 5216 2491 
Q 5216 2772 5059 2928 
Q 4903 3084 4622 3084 
Q 4203 3084 3875 2770 
Q 3547 2456 3450 1953 
L 3066 0 
L 2491 0 
L 2900 2094 
Q 2925 2209 2937 2307 
Q 2950 2406 2950 2484 
Q 2950 2769 2794 2926 
Q 2638 3084 2363 3084 
Q 1938 3084 1609 2770 
Q 1281 2456 1184 1953 
L 800 0 
L 225 0 
L 909 3500 
L 1484 3500 
L 1375 2956 
Q 1609 3263 1923 3423 
Q 2238 3584 2597 3584 
Q 2978 3584 3223 3384 
Q 3469 3184 3519 2828 
Q 3781 3197 4126 3390 
Q 4472 3584 4856 3584 
Q 5306 3584 5551 3325 
Q 5797 3066 5797 2591 
Q 5797 2488 5784 2364 
Q 5772 2241 5747 2113 
z
" transform="scale(0.015625)"/>
       <path id="DejaVuSans-29" d="M 513 4856 
L 1013 4856 
Q 1481 4119 1714 3412 
Q 1947 2706 1947 2009 
Q 1947 1309 1714 600 
Q 1481 -109 1013 -844 
L 513 -844 
Q 928 -128 1133 580 
Q 1338 1288 1338 2009 
Q 1338 2731 1133 3434 
Q 928 4138 513 4856 
z
" transform="scale(0.015625)"/>
      </defs>
      <use xlink:href="#DejaVuSans-44" transform="translate(0 0.015625)"/>
      <use xlink:href="#DejaVuSans-69" transform="translate(77.001953 0.015625)"/>
      <use xlink:href="#DejaVuSans-73" transform="translate(104.785156 0.015625)"/>
      <use xlink:href="#DejaVuSans-74" transform="translate(156.884766 0.015625)"/>
      <use xlink:href="#DejaVuSans-61" transform="translate(196.09375 0.015625)"/>
      <use xlink:href="#DejaVuSans-6e" transform="translate(257.373047 0.015625)"/>
      <use xlink:href="#DejaVuSans-63" transform="translate(320.751953 0.015625)"/>
      <use xlink:href="#DejaVuSans-65" transform="translate(375.732422 0.015625)"/>
      <use xlink:href="#DejaVuSans-20" transform="translate(437.255859 0.015625)"/>
      <use xlink:href="#DejaVuSans-66" transform="translate(469.042969 0.015625)"/>
      <use xlink:href="#DejaVuSans-72" transform="translate(504.248047 0.015625)"/>
      <use xlink:href="#DejaVuSans-6f" transform="translate(545.361328 0.015625)"/>
      <use xlink:href="#DejaVuSans-6d" transform="translate(606.542969 0.015625)"/>
      <use xlink:href="#DejaVuSans-20" transform="translate(703.955078 0.015625)"/>
      <use xlink:href="#DejaVuSans-43" transform="translate(735.742188 0.015625)"/>
      <use xlink:href="#DejaVuSans-65" transform="translate(805.566406 0.015625)"/>
      <use xlink:href="#DejaVuSans-6e" transform="translate(867.089844 0.015625)"/>
      <use xlink:href="#DejaVuSans-74" transform="translate(930.46875 0.015625)"/>
      <use xlink:href="#DejaVuSans-65" transform="translate(969.677734 0.015625)"/>
      <use xlink:href="#DejaVuSans-72" transform="translate(1031.201172 0.015625)"/>
      <use xlink:href="#DejaVuSans-20" transform="translate(1072.314453 0.015625)"/>
      <use xlink:href="#DejaVuSans-28" transform="translate(1104.101562 0.015625)"/>
      <use xlink:href="#DejaVuSans-Oblique-3bc" transform="translate(1143.115234 0.015625)"/>
      <use xlink:href="#DejaVuSans-Oblique-6d" transform="translate(1206.738281 0.015625)"/>
      <use xlink:href="#DejaVuSans-29" transform="translate(1304.150391 0.015625)"/>
     </g>
    </g>
   </g>
   <g id="matplotlib.axis_2">
    <g id="ytick_1">
     <g id="line2d_8">
      <path d="M 63.92 284.907273 
L 450 284.907273 
" clip-path="url(#pdb7d6ccabf)" style="fill: none; stroke: #f2f2f2; stroke-width: 0.8; stroke-linecap: square"/>
     </g>
     <g id="line2d_9">
      <defs>
       <path id="m6e2f27207a" d="M 0 0 
L -3.5 0 
" style="stroke: #000000; stroke-width: 0.8"/>
      </defs>
      <g>
       <use xlink:href="#m6e2f27207a" x="63.92" y="284.907273" style="stroke: #000000; stroke-width: 0.8"/>
      </g>
     </g>
     <g id="text_9">
      <!-- 0.000 -->
      <g transform="translate(28.291875 288.706492) scale(0.1 -0.1)">
       <defs>
        <path id="DejaVuSans-2e" d="M 684 794 
L 1344 794 
L 1344 0 
L 684 0 
L 684 794 
z
" transform="scale(0.015625)"/>
       </defs>
       <use xlink:href="#DejaVuSans-30"/>
       <use xlink:href="#DejaVuSans-2e" x="63.623047"/>
       <use xlink:href="#DejaVuSans-30" x="95.410156"/>
       <use xlink:href="#DejaVuSans-30" x="159.033203"/>
       <use xlink:href="#DejaVuSans-30" x="222.65625"/>
      </g>
     </g>
    </g>
    <g id="ytick_2">
     <g id="line2d_10">
      <path d="M 63.92 253.949124 
L 450 253.949124 
" clip-path="url(#pdb7d6ccabf)" style="fill: none; stroke: #f2f2f2; stroke-width: 0.8; stroke-linecap: square"/>
     </g>
     <g id="line2d_11">
      <g>
       <use xlink:href="#m6e2f27207a" x="63.92" y="253.949124" style="stroke: #000000; stroke-width: 0.8"/>
      </g>
     </g>
     <g id="text_10">
      <!-- 0.005 -->
      <g transform="translate(28.291875 257.748343) scale(0.1 -0.1)">
       <use xlink:href="#DejaVuSans-30"/>
       <use xlink:href="#DejaVuSans-2e" x="63.623047"/>
       <use xlink:href="#DejaVuSans-30" x="95.410156"/>
       <use xlink:href="#DejaVuSans-30" x="159.033203"/>
       <use xlink:href="#DejaVuSans-35" x="222.65625"/>
      </g>
     </g>
    </g>
    <g id="ytick_3">
     <g id="line2d_12">
      <path d="M 63.92 222.990975 
L 450 222.990975 
" clip-path="url(#pdb7d6ccabf)" style="fill: none; stroke: #f2f2f2; stroke-width: 0.8; stroke-linecap: square"/>
     </g>
     <g id="line2d_13">
      <g>
       <use xlink:href="#m6e2f27207a" x="63.92" y="222.990975" style="stroke: #000000; stroke-width: 0.8"/>
      </g>
     </g>
     <g id="text_11">
      <!-- 0.010 -->
      <g transform="translate(28.291875 226.790194) scale(0.1 -0.1)">
       <use xlink:href="#DejaVuSans-30"/>
       <use xlink:href="#DejaVuSans-2e" x="63.623047"/>
       <use xlink:href="#DejaVuSans-30" x="95.410156"/>
       <use xlink:href="#DejaVuSans-31" x="159.033203"/>
       <use xlink:href="#DejaVuSans-30" x="222.65625"/>
      </g>
     </g>
    </g>
    <g id="ytick_4">
     <g id="line2d_14">
      <path d="M 63.92 192.032827 
L 450 192.032827 
" clip-path="url(#pdb7d6ccabf)" style="fill: none; stroke: #f2f2f2; stroke-width: 0.8; stroke-linecap: square"/>
     </g>
     <g id="line2d_15">
      <g>
       <use xlink:href="#m6e2f27207a" x="63.92" y="192.032827" style="stroke: #000000; stroke-width: 0.8"/>
      </g>
     </g>
     <g id="text_12">
      <!-- 0.015 -->
      <g transform="translate(28.291875 195.832045) scale(0.1 -0.1)">
       <use xlink:href="#DejaVuSans-30"/>
       <use xlink:href="#DejaVuSans-2e" x="63.623047"/>
       <use xlink:href="#DejaVuSans-30" x="95.410156"/>
       <use xlink:href="#DejaVuSans-31" x="159.033203"/>
       <use xlink:href="#DejaVuSans-35" x="222.65625"/>
      </g>
     </g>
    </g>
    <g id="ytick_5">
     <g id="line2d_16">
      <path d="M 63.92 161.074678 
L 450 161.074678 
" clip-path="url(#pdb7d6ccabf)" style="fill: none; stroke: #f2f2f2; stroke-width: 0.8; stroke-linecap: square"/>
     </g>
     <g id="line2d_17">
      <g>
       <use xlink:href="#m6e2f27207a" x="63.92" y="161.074678" style="stroke: #000000; stroke-width: 0.8"/>
      </g>
     </g>
     <g id="text_13">
      <!-- 0.020 -->
      <g transform="translate(28.291875 164.873897) scale(0.1 -0.1)">
       <use xlink:href="#DejaVuSans-30"/>
       <use xlink:href="#DejaVuSans-2e" x="63.623047"/>
       <use xlink:href="#DejaVuSans-30" x="95.410156"/>
       <use xlink:href="#DejaVuSans-32" x="159.033203"/>
       <use xlink:href="#DejaVuSans-30" x="222.65625"/>
      </g>
     </g>
    </g>
    <g id="ytick_6">
     <g id="line2d_18">
      <path d="M 63.92 130.116529 
L 450 130.116529 
" clip-path="url(#pdb7d6ccabf)" style="fill: none; stroke: #f2f2f2; stroke-width: 0.8; stroke-linecap: square"/>
     </g>
     <g id="line2d_19">
      <g>
       <use xlink:href="#m6e2f27207a" x="63.92" y="130.116529" style="stroke: #000000; stroke-width: 0.8"/>
      </g>
     </g>
     <g id="text_14">
      <!-- 0.025 -->
      <g transform="translate(28.291875 133.915748) scale(0.1 -0.1)">
       <use xlink:href="#DejaVuSans-30"/>
       <use xlink:href="#DejaVuSans-2e" x="63.623047"/>
       <use xlink:href="#DejaVuSans-30" x="95.410156"/>
       <use xlink:href="#DejaVuSans-32" x="159.033203"/>
       <use xlink:href="#DejaVuSans-35" x="222.65625"/>
      </g>
     </g>
    </g>
    <g id="ytick_7">
     <g id="line2d_20">
      <path d="M 63.92 99.158381 
L 450 99.158381 
" clip-path="url(#pdb7d6ccabf)" style="fill: none; stroke: #f2f2f2; stroke-width: 0.8; stroke-linecap: square"/>
     </g>
     <g id="line2d_21">
      <g>
       <use xlink:href="#m6e2f27207a" x="63.92" y="99.158381" style="stroke: #000000; stroke-width: 0.8"/>
      </g>
     </g>
     <g id="text_15">
      <!-- 0.030 -->
      <g transform="translate(28.291875 102.957599) scale(0.1 -0.1)">
       <use xlink:href="#DejaVuSans-30"/>
       <use xlink:href="#DejaVuSans-2e" x="63.623047"/>
       <use xlink:href="#DejaVuSans-30" x="95.410156"/>
       <use xlink:href="#DejaVuSans-33" x="159.033203"/>
       <use xlink:href="#DejaVuSans-30" x="222.65625"/>
      </g>
     </g>
    </g>
    <g id="ytick_8">
     <g id="line2d_22">
      <path d="M 63.92 68.200232 
L 450 68.200232 
" clip-path="url(#pdb7d6ccabf)" style="fill: none; stroke: #f2f2f2; stroke-width: 0.8; stroke-linecap: square"/>
     </g>
     <g id="line2d_23">
      <g>
       <use xlink:href="#m6e2f27207a" x="63.92" y="68.200232" style="stroke: #000000; stroke-width: 0.8"/>
      </g>
     </g>
     <g id="text_16">
      <!-- 0.035 -->
      <g transform="translate(28.291875 71.999451) scale(0.1 -0.1)">
       <use xlink:href="#DejaVuSans-30"/>
       <use xlink:href="#DejaVuSans-2e" x="63.623047"/>
       <use xlink:href="#DejaVuSans-30" x="95.410156"/>
       <use xlink:href="#DejaVuSans-33" x="159.033203"/>
       <use xlink:href="#DejaVuSans-35" x="222.65625"/>
      </g>
     </g>
    </g>
    <g id="ytick_9">
     <g id="line2d_24">
      <path d="M 63.92 37.242083 
L 450 37.242083 
" clip-path="url(#pdb7d6ccabf)" style="fill: none; stroke: #f2f2f2; stroke-width: 0.8; stroke-linecap: square"/>
     </g>
     <g id="line2d_25">
      <g>
       <use xlink:href="#m6e2f27207a" x="63.92" y="37.242083" style="stroke: #000000; stroke-width: 0.8"/>
      </g>
     </g>
     <g id="text_17">
      <!-- 0.040 -->
      <g transform="translate(28.291875 41.041302) scale(0.1 -0.1)">
       <use xlink:href="#DejaVuSans-30"/>
       <use xlink:href="#DejaVuSans-2e" x="63.623047"/>
       <use xlink:href="#DejaVuSans-30" x="95.410156"/>
       <use xlink:href="#DejaVuSans-34" x="159.033203"/>
       <use xlink:href="#DejaVuSans-30" x="222.65625"/>
      </g>
     </g>
    </g>
    <g id="text_18">
     <!-- Concentration (mM) -->
     <g transform="translate(21.380313 232.444531) rotate(-90) scale(0.14 -0.14)">
      <defs>
       <path id="DejaVuSans-4d" d="M 628 4666 
L 1569 4666 
L 2759 1491 
L 3956 4666 
L 4897 4666 
L 4897 0 
L 4281 0 
L 4281 4097 
L 3078 897 
L 2444 897 
L 1241 4097 
L 1241 0 
L 628 0 
L 628 4666 
z
" transform="scale(0.015625)"/>
      </defs>
      <use xlink:href="#DejaVuSans-43"/>
      <use xlink:href="#DejaVuSans-6f" x="69.824219"/>
      <use xlink:href="#DejaVuSans-6e" x="131.005859"/>
      <use xlink:href="#DejaVuSans-63" x="194.384766"/>
      <use xlink:href="#DejaVuSans-65" x="249.365234"/>
      <use xlink:href="#DejaVuSans-6e" x="310.888672"/>
      <use xlink:href="#DejaVuSans-74" x="374.267578"/>
      <use xlink:href="#DejaVuSans-72" x="413.476562"/>
      <use xlink:href="#DejaVuSans-61" x="454.589844"/>
      <use xlink:href="#DejaVuSans-74" x="515.869141"/>
      <use xlink:href="#DejaVuSans-69" x="555.078125"/>
      <use xlink:href="#DejaVuSans-6f" x="582.861328"/>
      <use xlink:href="#DejaVuSans-6e" x="644.042969"/>
      <use xlink:href="#DejaVuSans-20" x="707.421875"/>
      <use xlink:href="#DejaVuSans-28" x="739.208984"/>
      <use xlink:href="#DejaVuSans-6d" x="778.222656"/>
      <use xlink:href="#DejaVuSans-4d" x="875.634766"/>
      <use xlink:href="#DejaVuSans-29" x="961.914062"/>
     </g>
    </g>
   </g>
   <g id="line2d_26">
    <path d="M 81.469091 92.631809 
L 85.598289 91.906492 
L 89.727487 89.707591 
L 93.856684 85.978093 
L 97.985882 80.627553 
L 102.11508 73.529285 
L 106.244278 64.516637 
L 110.373476 53.378304 
L 114.502674 39.852727 
" clip-path="url(#pdb7d6ccabf)" style="fill: none; stroke: #1f77b4; stroke-opacity: 0.9; stroke-width: 3; stroke-linecap: square"/>
   </g>
   <g id="line2d_27">
    <path d="M 81.469091 207.335832 
L 85.598289 207.033801 
L 89.727487 206.117037 
L 93.856684 204.558901 
L 97.985882 202.316778 
L 102.11508 199.330266 
L 106.244278 195.518661 
L 110.373476 190.77761 
L 114.502674 184.974809 
L 118.631872 177.944572 
L 122.76107 169.481095 
L 126.890267 159.330242 
L 131.019465 147.179695 
L 135.148663 132.647404 
L 139.277861 115.268427 
L 143.407059 94.480488 
L 147.536257 69.608996 
L 151.665455 39.852727 
" clip-path="url(#pdb7d6ccabf)" style="fill: none; stroke: #ff7f0e; stroke-opacity: 0.9; stroke-width: 3; stroke-linecap: square"/>
   </g>
   <g id="line2d_28">
    <path d="M 81.469091 265.978926 
L 85.598289 265.907528 
L 89.727487 265.690782 
L 93.856684 265.322301 
L 97.985882 264.791839 
L 102.11508 264.084797 
L 106.244278 263.181539 
L 110.373476 262.056448 
L 114.502674 260.67667 
L 118.631872 259.00046 
L 122.76107 256.975009 
L 126.890267 254.533615 
L 131.019465 251.591979 
L 135.148663 248.043376 
L 139.277861 243.75237 
L 143.407059 238.546625 
L 147.536257 232.206305 
L 151.665455 224.450436 
L 155.794652 214.919545 
L 159.92385 203.153933 
L 164.053048 188.567184 
L 168.182246 170.415045 
L 172.311444 147.760978 
L 176.440642 119.441422 
L 180.56984 84.036278 
L 184.699037 39.852727 
" clip-path="url(#pdb7d6ccabf)" style="fill: none; stroke: #2ca02c; stroke-opacity: 0.9; stroke-width: 3; stroke-linecap: square"/>
   </g>
   <g id="line2d_29">
    <path d="M 81.469091 282.756735 
L 85.598289 282.749404 
L 89.727487 282.727171 
L 93.856684 282.689439 
L 97.985882 282.635247 
L 102.11508 282.563234 
L 106.244278 282.471577 
L 110.373476 282.357905 
L 114.502674 282.219195 
L 118.631872 282.051623 
L 122.76107 281.850376 
L 126.890267 281.609401 
L 131.019465 281.32108 
L 135.148663 280.975793 
L 139.277861 280.561341 
L 143.407059 280.062181 
L 147.536257 279.458391 
L 151.665455 278.724267 
L 155.794652 277.826425 
L 159.92385 276.721184 
L 164.053048 275.350963 
L 168.182246 273.639266 
L 172.311444 271.483687 
L 176.440642 268.746077 
L 180.56984 265.238707 
L 184.699037 260.704778 
L 188.828235 254.791039 
L 192.957433 247.009679 
L 197.086631 236.686171 
L 201.215829 222.890013 
L 205.345027 204.347309 
L 209.474225 179.339622 
L 213.603422 145.604261 
L 217.73262 100.26697 
L 221.861818 39.852727 
" clip-path="url(#pdb7d6ccabf)" style="fill: none; stroke: #d62728; stroke-opacity: 0.9; stroke-width: 3; stroke-linecap: square"/>
   </g>
   <g id="line2d_30">
    <path d="M 81.469091 284.698019 
L 85.598289 284.697384 
L 89.727487 284.69546 
L 93.856684 284.692201 
L 97.985882 284.687533 
L 102.11508 284.681354 
L 106.244278 284.673523 
L 110.373476 284.663864 
L 114.502674 284.652149 
L 118.631872 284.638098 
L 122.76107 284.621359 
L 126.890267 284.601495 
L 131.019465 284.577965 
L 135.148663 284.550094 
L 139.277861 284.517043 
L 143.407059 284.477754 
L 147.536257 284.430902 
L 151.665455 284.374802 
L 155.794652 284.30731 
L 159.92385 284.225674 
L 164.053048 284.126339 
L 168.182246 284.004672 
L 172.311444 283.854594 
L 176.440642 283.668058 
L 180.56984 283.434315 
L 184.699037 283.138873 
L 188.828235 282.76201 
L 192.957433 282.276605 
L 197.086631 281.644976 
L 201.215829 280.814191 
L 205.345027 279.709073 
L 209.474225 278.221636 
L 213.603422 276.195005 
L 217.73262 273.398784 
L 221.861818 269.491155 
L 225.991016 263.960659 
L 230.120214 256.037624 
L 234.249412 244.562578 
L 238.37861 227.799887 
L 242.507807 203.196715 
L 246.637005 167.122893 
L 250.766203 114.694251 
L 254.895401 39.852727 
" clip-path="url(#pdb7d6ccabf)" style="fill: none; stroke: #9467bd; stroke-opacity: 0.9; stroke-width: 3; stroke-linecap: square"/>
   </g>
   <g id="line2d_31">
    <path d="M 81.469091 284.896262 
L 85.598289 284.896233 
L 89.727487 284.896145 
L 93.856684 284.895997 
L 97.985882 284.895785 
L 102.11508 284.895506 
L 106.244278 284.895154 
L 110.373476 284.894722 
L 114.502674 284.894202 
L 118.631872 284.893583 
L 122.76107 284.892852 
L 126.890267 284.891993 
L 131.019465 284.890986 
L 135.148663 284.889808 
L 139.277861 284.888429 
L 143.407059 284.886814 
L 147.536257 284.884917 
L 151.665455 284.882684 
L 155.794652 284.880047 
L 159.92385 284.876919 
L 164.053048 284.873194 
L 168.182246 284.868734 
L 172.311444 284.863366 
L 176.440642 284.856867 
L 180.56984 284.848948 
L 184.699037 284.839235 
L 188.828235 284.827235 
L 192.957433 284.812298 
L 197.086631 284.793554 
L 201.215829 284.769834 
L 205.345027 284.739546 
L 209.474225 284.700505 
L 213.603422 284.649678 
L 217.73262 284.582809 
L 221.861818 284.493855 
L 225.991016 284.374131 
L 230.120214 284.210992 
L 234.249412 283.985779 
L 238.37861 283.670559 
L 242.507807 283.222895 
L 246.637005 282.577296 
L 250.766203 281.631054 
L 254.895401 280.220416 
L 259.024599 278.079975 
L 263.153797 274.772781 
L 267.282995 269.56966 
L 271.412193 261.24276 
L 275.54139 247.723655 
L 279.670588 225.579426 
L 283.799786 189.337037 
L 287.928984 130.924943 
L 292.058182 39.852727 
" clip-path="url(#pdb7d6ccabf)" style="fill: none; stroke: #8c564b; stroke-opacity: 0.9; stroke-width: 3; stroke-linecap: square"/>
   </g>
   <g id="line2d_32">
    <path d="M 81.469091 284.90682 
L 85.598289 284.906819 
L 89.727487 284.906816 
L 93.856684 284.90681 
L 97.985882 284.906803 
L 102.11508 284.906793 
L 106.244278 284.906781 
L 110.373476 284.906766 
L 114.502674 284.906748 
L 118.631872 284.906726 
L 122.76107 284.906701 
L 126.890267 284.906672 
L 131.019465 284.906639 
L 135.148663 284.906599 
L 139.277861 284.906554 
L 143.407059 284.906502 
L 147.536257 284.906441 
L 151.665455 284.906371 
L 155.794652 284.906289 
L 159.92385 284.906194 
L 164.053048 284.906083 
L 168.182246 284.905952 
L 172.311444 284.905798 
L 176.440642 284.905616 
L 180.56984 284.905399 
L 184.699037 284.90514 
L 188.828235 284.904828 
L 192.957433 284.904452 
L 197.086631 284.903994 
L 201.215829 284.903433 
L 205.345027 284.902741 
L 209.474225 284.901883 
L 213.603422 284.90081 
L 217.73262 284.899456 
L 221.861818 284.897735 
L 225.991016 284.895529 
L 230.120214 284.892672 
L 234.249412 284.88894 
L 238.37861 284.884013 
L 242.507807 284.877438 
L 246.637005 284.868567 
L 250.766203 284.856453 
L 254.895401 284.839702 
L 259.024599 284.816232 
L 263.153797 284.782882 
L 267.282995 284.734779 
L 271.412193 284.664293 
L 275.54139 284.55925 
L 279.670588 284.399871 
L 283.799786 284.153366 
L 287.928984 283.764216 
L 292.058182 283.136292 
L 296.18738 282.099219 
L 300.316578 280.343741 
L 304.445775 277.295295 
L 308.574973 271.864479 
L 312.704171 261.959693 
L 316.833369 243.584375 
L 320.962567 209.394595 
L 325.091765 147.155635 
L 329.220963 39.852727 
" clip-path="url(#pdb7d6ccabf)" style="fill: none; stroke: #e377c2; stroke-opacity: 0.9; stroke-width: 3; stroke-linecap: square"/>
   </g>
   <g id="line2d_33">
    <path d="M 81.469091 284.90725 
L 85.598289 284.90725 
L 89.727487 284.90725 
L 93.856684 284.90725 
L 97.985882 284.907249 
L 102.11508 284.907249 
L 106.244278 284.907248 
L 110.373476 284.907248 
L 114.502674 284.907247 
L 118.631872 284.907246 
L 122.76107 284.907245 
L 126.890267 284.907244 
L 131.019465 284.907242 
L 135.148663 284.90724 
L 139.277861 284.907239 
L 143.407059 284.907236 
L 147.536257 284.907234 
L 151.665455 284.907231 
L 155.794652 284.907228 
L 159.92385 284.907224 
L 164.053048 284.90722 
L 168.182246 284.907215 
L 172.311444 284.907209 
L 176.440642 284.907202 
L 180.56984 284.907194 
L 184.699037 284.907185 
L 188.828235 284.907174 
L 192.957433 284.907161 
L 197.086631 284.907146 
L 201.215829 284.907128 
L 205.345027 284.907106 
L 209.474225 284.907079 
L 213.603422 284.907047 
L 217.73262 284.907008 
L 221.861818 284.906959 
L 225.991016 284.906899 
L 230.120214 284.906824 
L 234.249412 284.90673 
L 238.37861 284.90661 
L 242.507807 284.906457 
L 246.637005 284.90626 
L 250.766203 284.906004 
L 254.895401 284.905668 
L 259.024599 284.905222 
L 263.153797 284.904626 
L 267.282995 284.903818 
L 271.412193 284.902712 
L 275.54139 284.901179 
L 279.670588 284.899026 
L 283.799786 284.895962 
L 287.928984 284.891538 
L 292.058182 284.885053 
L 296.18738 284.875391 
L 300.316578 284.860745 
L 304.445775 284.838129 
L 308.574973 284.802508 
L 312.704171 284.7452 
L 316.833369 284.650864 
L 320.962567 284.491695 
L 325.091765 284.215864 
L 329.220963 283.723845 
L 333.35016 282.818369 
L 337.479358 281.095333 
L 341.608556 277.699764 
L 345.737754 270.773241 
L 349.866952 256.233111 
L 353.99615 225.373025 
L 358.125348 161.582917 
L 362.254545 39.852727 
" clip-path="url(#pdb7d6ccabf)" style="fill: none; stroke: #7f7f7f; stroke-opacity: 0.9; stroke-width: 3; stroke-linecap: square"/>
   </g>
   <g id="line2d_34">
    <path d="M 81.469091 284.907272 
L 85.598289 284.907272 
L 89.727487 284.907272 
L 93.856684 284.907272 
L 97.985882 284.907272 
L 102.11508 284.907272 
L 106.244278 284.907272 
L 110.373476 284.907272 
L 114.502674 284.907272 
L 118.631872 284.907272 
L 122.76107 284.907272 
L 126.890267 284.907272 
L 131.019465 284.907272 
L 135.148663 284.907272 
L 139.277861 284.907272 
L 143.407059 284.907272 
L 147.536257 284.907272 
L 151.665455 284.907272 
L 155.794652 284.907272 
L 159.92385 284.907271 
L 164.053048 284.907271 
L 168.182246 284.907271 
L 172.311444 284.907271 
L 176.440642 284.907271 
L 180.56984 284.907271 
L 184.699037 284.907271 
L 188.828235 284.90727 
L 192.957433 284.90727 
L 197.086631 284.90727 
L 201.215829 284.907269 
L 205.345027 284.907269 
L 209.474225 284.907268 
L 213.603422 284.907268 
L 217.73262 284.907267 
L 221.861818 284.907266 
L 225.991016 284.907265 
L 230.120214 284.907264 
L 234.249412 284.907263 
L 238.37861 284.907261 
L 242.507807 284.907259 
L 246.637005 284.907256 
L 250.766203 284.907252 
L 254.895401 284.907248 
L 259.024599 284.907243 
L 263.153797 284.907236 
L 267.282995 284.907227 
L 271.412193 284.907215 
L 275.54139 284.9072 
L 279.670588 284.907181 
L 283.799786 284.907154 
L 287.928984 284.907119 
L 292.058182 284.907071 
L 296.18738 284.907005 
L 300.316578 284.906913 
L 304.445775 284.906785 
L 308.574973 284.906601 
L 312.704171 284.906336 
L 316.833369 284.905948 
L 320.962567 284.90537 
L 325.091765 284.904495 
L 329.220963 284.903149 
L 333.35016 284.901036 
L 337.479358 284.897653 
L 341.608556 284.892119 
L 345.737754 284.88285 
L 349.866952 284.86693 
L 353.99615 284.83882 
L 358.125348 284.787679 
L 362.254545 284.691531 
L 366.383743 284.504126 
L 370.512941 284.124035 
L 374.642139 283.318637 
L 378.771337 281.528472 
L 382.900535 277.343583 
L 387.029733 267.084037 
L 391.15893 241.219071 
L 395.288128 177.813609 
L 399.417326 39.852727 
" clip-path="url(#pdb7d6ccabf)" style="fill: none; stroke: #bcbd22; stroke-opacity: 0.9; stroke-width: 3; stroke-linecap: square"/>
   </g>
   <g id="line2d_35">
    <path d="M 81.469091 284.907273 
L 85.598289 284.907273 
L 89.727487 284.907273 
L 93.856684 284.907273 
L 97.985882 284.907273 
L 102.11508 284.907273 
L 106.244278 284.907273 
L 110.373476 284.907273 
L 114.502674 284.907273 
L 118.631872 284.907273 
L 122.76107 284.907273 
L 126.890267 284.907273 
L 131.019465 284.907273 
L 135.148663 284.907273 
L 139.277861 284.907273 
L 143.407059 284.907273 
L 147.536257 284.907273 
L 151.665455 284.907273 
L 155.794652 284.907273 
L 159.92385 284.907273 
L 164.053048 284.907273 
L 168.182246 284.907273 
L 172.311444 284.907273 
L 176.440642 284.907273 
L 180.56984 284.907273 
L 184.699037 284.907273 
L 188.828235 284.907273 
L 192.957433 284.907273 
L 197.086631 284.907273 
L 201.215829 284.907273 
L 205.345027 284.907273 
L 209.474225 284.907273 
L 213.603422 284.907273 
L 217.73262 284.907273 
L 221.861818 284.907273 
L 225.991016 284.907273 
L 230.120214 284.907273 
L 234.249412 284.907272 
L 238.37861 284.907272 
L 242.507807 284.907272 
L 246.637005 284.907272 
L 250.766203 284.907272 
L 254.895401 284.907272 
L 259.024599 284.907272 
L 263.153797 284.907272 
L 267.282995 284.907272 
L 271.412193 284.907272 
L 275.54139 284.907271 
L 279.670588 284.907271 
L 283.799786 284.907271 
L 287.928984 284.90727 
L 292.058182 284.907269 
L 296.18738 284.907268 
L 300.316578 284.907267 
L 304.445775 284.907266 
L 308.574973 284.907263 
L 312.704171 284.907261 
L 316.833369 284.907257 
L 320.962567 284.907251 
L 325.091765 284.907244 
L 329.220963 284.907233 
L 333.35016 284.907218 
L 337.479358 284.907195 
L 341.608556 284.907163 
L 345.737754 284.907113 
L 349.866952 284.907039 
L 353.99615 284.906924 
L 358.125348 284.906742 
L 362.254545 284.906451 
L 366.383743 284.905973 
L 370.512941 284.905172 
L 374.642139 284.903792 
L 378.771337 284.901354 
L 382.900535 284.896916 
L 387.029733 284.888579 
L 391.15893 284.87235 
L 395.288128 284.839505 
L 399.417326 284.770085 
L 403.546524 284.616069 
L 407.675722 284.255195 
L 411.80492 283.356054 
L 415.934118 280.957713 
L 420.063316 274.092366 
L 424.192513 253.368007 
L 428.321711 192.240891 
L 432.450909 39.852727 
" clip-path="url(#pdb7d6ccabf)" style="fill: none; stroke: #17becf; stroke-opacity: 0.9; stroke-width: 3; stroke-linecap: square"/>
   </g>
   <g id="patch_3">
    <path d="M 63.92 297.16 
L 63.92 27.6 
" style="fill: none; stroke: #000000; stroke-width: 0.8; stroke-linejoin: miter; stroke-linecap: square"/>
   </g>
   <g id="patch_4">
    <path d="M 450 297.16 
L 450 27.6 
" style="fill: none; stroke: #000000; stroke-width: 0.8; stroke-linejoin: miter; stroke-linecap: square"/>
   </g>
   <g id="patch_5">
    <path d="M 63.92 297.16 
L 450 297.16 
" style="fill: none; stroke: #000000; stroke-width: 0.8; stroke-linejoin: miter; stroke-linecap: square"/>
   </g>
   <g id="patch_6">
    <path d="M 63.92 27.6 
L 450 27.6 
" style="fill: none; stroke: #000000; stroke-width: 0.8; stroke-linejoin: miter; stroke-linecap: square"/>
   </g>
   <g id="text_19">
    <!-- EPYR -->
    <g transform="translate(239.334219 21.6) scale(0.14 -0.14)">
     <defs>
      <path id="DejaVuSans-45" d="M 628 4666 
L 3578 4666 
L 3578 4134 
L 1259 4134 
L 1259 2753 
L 3481 2753 
L 3481 2222 
L 1259 2222 
L 1259 531 
L 3634 531 
L 3634 0 
L 628 0 
L 628 4666 
z
" transform="scale(0.015625)"/>
      <path id="DejaVuSans-50" d="M 1259 4147 
L 1259 2394 
L 2053 2394 
Q 2494 2394 2734 2622 
Q 2975 2850 2975 3272 
Q 2975 3691 2734 3919 
Q 2494 4147 2053 4147 
L 1259 4147 
z
M 628 4666 
L 2053 4666 
Q 2838 4666 3239 4311 
Q 3641 3956 3641 3272 
Q 3641 2581 3239 2228 
Q 2838 1875 2053 1875 
L 1259 1875 
L 1259 0 
L 628 0 
L 628 4666 
z
" transform="scale(0.015625)"/>
      <path id="DejaVuSans-59" d="M -13 4666 
L 666 4666 
L 1959 2747 
L 3244 4666 
L 3922 4666 
L 2272 2222 
L 2272 0 
L 1638 0 
L 1638 2222 
L -13 4666 
z
" transform="scale(0.015625)"/>
      <path id="DejaVuSans-52" d="M 2841 2188 
Q 3044 2119 3236 1894 
Q 3428 1669 3622 1275 
L 4263 0 
L 3584 0 
L 2988 1197 
Q 2756 1666 2539 1819 
Q 2322 1972 1947 1972 
L 1259 1972 
L 1259 0 
L 628 0 
L 628 4666 
L 2053 4666 
Q 2853 4666 3247 4331 
Q 3641 3997 3641 3322 
Q 3641 2881 3436 2590 
Q 3231 2300 2841 2188 
z
M 1259 4147 
L 1259 2491 
L 2053 2491 
Q 2509 2491 2742 2702 
Q 2975 2913 2975 3322 
Q 2975 3731 2742 3939 
Q 2509 4147 2053 4147 
L 1259 4147 
z
" transform="scale(0.015625)"/>
     </defs>
     <use xlink:href="#DejaVuSans-45"/>
     <use xlink:href="#DejaVuSans-50" x="63.183594"/>
     <use xlink:href="#DejaVuSans-59" x="121.236328"/>
     <use xlink:href="#DejaVuSans-52" x="182.320312"/>
    </g>
   </g>
   <g id="legend_1">
    <g id="patch_7">
     <path d="M 349.070312 252.34875 
L 442.3 252.34875 
Q 444.5 252.34875 444.5 250.14875 
L 444.5 74.61125 
Q 444.5 72.41125 442.3 72.41125 
L 349.070312 72.41125 
Q 346.870313 72.41125 346.870313 74.61125 
L 346.870313 250.14875 
Q 346.870313 252.34875 349.070312 252.34875 
z
" style="fill: #ffffff; opacity: 0.8; stroke: #cccccc; stroke-linejoin: miter"/>
    </g>
    <g id="text_20">
     <!-- Aggregate Radius -->
     <g transform="translate(351.270312 84.409687) scale(0.1 -0.1)">
      <defs>
       <path id="DejaVuSans-41" d="M 2188 4044 
L 1331 1722 
L 3047 1722 
L 2188 4044 
z
M 1831 4666 
L 2547 4666 
L 4325 0 
L 3669 0 
L 3244 1197 
L 1141 1197 
L 716 0 
L 50 0 
L 1831 4666 
z
" transform="scale(0.015625)"/>
       <path id="DejaVuSans-67" d="M 2906 1791 
Q 2906 2416 2648 2759 
Q 2391 3103 1925 3103 
Q 1463 3103 1205 2759 
Q 947 2416 947 1791 
Q 947 1169 1205 825 
Q 1463 481 1925 481 
Q 2391 481 2648 825 
Q 2906 1169 2906 1791 
z
M 3481 434 
Q 3481 -459 3084 -895 
Q 2688 -1331 1869 -1331 
Q 1566 -1331 1297 -1286 
Q 1028 -1241 775 -1147 
L 775 -588 
Q 1028 -725 1275 -790 
Q 1522 -856 1778 -856 
Q 2344 -856 2625 -561 
Q 2906 -266 2906 331 
L 2906 616 
Q 2728 306 2450 153 
Q 2172 0 1784 0 
Q 1141 0 747 490 
Q 353 981 353 1791 
Q 353 2603 747 3093 
Q 1141 3584 1784 3584 
Q 2172 3584 2450 3431 
Q 2728 3278 2906 2969 
L 2906 3500 
L 3481 3500 
L 3481 434 
z
" transform="scale(0.015625)"/>
       <path id="DejaVuSans-64" d="M 2906 2969 
L 2906 4863 
L 3481 4863 
L 3481 0 
L 2906 0 
L 2906 525 
Q 2725 213 2448 61 
Q 2172 -91 1784 -91 
Q 1150 -91 751 415 
Q 353 922 353 1747 
Q 353 2572 751 3078 
Q 1150 3584 1784 3584 
Q 2172 3584 2448 3432 
Q 2725 3281 2906 2969 
z
M 947 1747 
Q 947 1113 1208 752 
Q 1469 391 1925 391 
Q 2381 391 2643 752 
Q 2906 1113 2906 1747 
Q 2906 2381 2643 2742 
Q 2381 3103 1925 3103 
Q 1469 3103 1208 2742 
Q 947 2381 947 1747 
z
" transform="scale(0.015625)"/>
       <path id="DejaVuSans-75" d="M 544 1381 
L 544 3500 
L 1119 3500 
L 1119 1403 
Q 1119 906 1312 657 
Q 1506 409 1894 409 
Q 2359 409 2629 706 
Q 2900 1003 2900 1516 
L 2900 3500 
L 3475 3500 
L 3475 0 
L 2900 0 
L 2900 538 
Q 2691 219 2414 64 
Q 2138 -91 1772 -91 
Q 1169 -91 856 284 
Q 544 659 544 1381 
z
M 1991 3584 
L 1991 3584 
z
" transform="scale(0.015625)"/>
      </defs>
      <use xlink:href="#DejaVuSans-41"/>
      <use xlink:href="#DejaVuSans-67" x="68.408203"/>
      <use xlink:href="#DejaVuSans-67" x="131.884766"/>
      <use xlink:href="#DejaVuSans-72" x="195.361328"/>
      <use xlink:href="#DejaVuSans-65" x="234.224609"/>
      <use xlink:href="#DejaVuSans-67" x="295.748047"/>
      <use xlink:href="#DejaVuSans-61" x="359.224609"/>
      <use xlink:href="#DejaVuSans-74" x="420.503906"/>
      <use xlink:href="#DejaVuSans-65" x="459.712891"/>
      <use xlink:href="#DejaVuSans-20" x="521.236328"/>
      <use xlink:href="#DejaVuSans-52" x="553.023438"/>
      <use xlink:href="#DejaVuSans-61" x="620.255859"/>
      <use xlink:href="#DejaVuSans-64" x="681.535156"/>
      <use xlink:href="#DejaVuSans-69" x="745.011719"/>
      <use xlink:href="#DejaVuSans-75" x="772.794922"/>
      <use xlink:href="#DejaVuSans-73" x="836.173828"/>
     </g>
    </g>
    <g id="line2d_36">
     <path d="M 369.787031 96.497656 
L 380.787031 96.497656 
L 391.787031 96.497656 
" style="fill: none; stroke: #1f77b4; stroke-opacity: 0.9; stroke-width: 3; stroke-linecap: square"/>
    </g>
    <g id="text_21">
     <!-- 60 -->
     <g transform="translate(400.587031 100.347656) scale(0.11 -0.11)">
      <use xlink:href="#DejaVuSans-36"/>
      <use xlink:href="#DejaVuSans-30" x="63.623047"/>
     </g>
    </g>
    <g id="line2d_37">
     <path d="M 369.787031 112.643594 
L 380.787031 112.643594 
L 391.787031 112.643594 
" style="fill: none; stroke: #ff7f0e; stroke-opacity: 0.9; stroke-width: 3; stroke-linecap: square"/>
    </g>
    <g id="text_22">
     <!-- 120 -->
     <g transform="translate(400.587031 116.493594) scale(0.11 -0.11)">
      <use xlink:href="#DejaVuSans-31"/>
      <use xlink:href="#DejaVuSans-32" x="63.623047"/>
      <use xlink:href="#DejaVuSans-30" x="127.246094"/>
     </g>
    </g>
    <g id="line2d_38">
     <path d="M 369.787031 128.789531 
L 380.787031 128.789531 
L 391.787031 128.789531 
" style="fill: none; stroke: #2ca02c; stroke-opacity: 0.9; stroke-width: 3; stroke-linecap: square"/>
    </g>
    <g id="text_23">
     <!-- 180 -->
     <g transform="translate(400.587031 132.639531) scale(0.11 -0.11)">
      <defs>
       <path id="DejaVuSans-38" d="M 2034 2216 
Q 1584 2216 1326 1975 
Q 1069 1734 1069 1313 
Q 1069 891 1326 650 
Q 1584 409 2034 409 
Q 2484 409 2743 651 
Q 3003 894 3003 1313 
Q 3003 1734 2745 1975 
Q 2488 2216 2034 2216 
z
M 1403 2484 
Q 997 2584 770 2862 
Q 544 3141 544 3541 
Q 544 4100 942 4425 
Q 1341 4750 2034 4750 
Q 2731 4750 3128 4425 
Q 3525 4100 3525 3541 
Q 3525 3141 3298 2862 
Q 3072 2584 2669 2484 
Q 3125 2378 3379 2068 
Q 3634 1759 3634 1313 
Q 3634 634 3220 271 
Q 2806 -91 2034 -91 
Q 1263 -91 848 271 
Q 434 634 434 1313 
Q 434 1759 690 2068 
Q 947 2378 1403 2484 
z
M 1172 3481 
Q 1172 3119 1398 2916 
Q 1625 2713 2034 2713 
Q 2441 2713 2670 2916 
Q 2900 3119 2900 3481 
Q 2900 3844 2670 4047 
Q 2441 4250 2034 4250 
Q 1625 4250 1398 4047 
Q 1172 3844 1172 3481 
z
" transform="scale(0.015625)"/>
      </defs>
      <use xlink:href="#DejaVuSans-31"/>
      <use xlink:href="#DejaVuSans-38" x="63.623047"/>
      <use xlink:href="#DejaVuSans-30" x="127.246094"/>
     </g>
    </g>
    <g id="line2d_39">
     <path d="M 369.787031 144.935469 
L 380.787031 144.935469 
L 391.787031 144.935469 
" style="fill: none; stroke: #d62728; stroke-opacity: 0.9; stroke-width: 3; stroke-linecap: square"/>
    </g>
    <g id="text_24">
     <!-- 240 -->
     <g transform="translate(400.587031 148.785469) scale(0.11 -0.11)">
      <use xlink:href="#DejaVuSans-32"/>
      <use xlink:href="#DejaVuSans-34" x="63.623047"/>
      <use xlink:href="#DejaVuSans-30" x="127.246094"/>
     </g>
    </g>
    <g id="line2d_40">
     <path d="M 369.787031 161.081406 
L 380.787031 161.081406 
L 391.787031 161.081406 
" style="fill: none; stroke: #9467bd; stroke-opacity: 0.9; stroke-width: 3; stroke-linecap: square"/>
    </g>
    <g id="text_25">
     <!-- 300 -->
     <g transform="translate(400.587031 164.931406) scale(0.11 -0.11)">
      <use xlink:href="#DejaVuSans-33"/>
      <use xlink:href="#DejaVuSans-30" x="63.623047"/>
      <use xlink:href="#DejaVuSans-30" x="127.246094"/>
     </g>
    </g>
    <g id="line2d_41">
     <path d="M 369.787031 177.227344 
L 380.787031 177.227344 
L 391.787031 177.227344 
" style="fill: none; stroke: #8c564b; stroke-opacity: 0.9; stroke-width: 3; stroke-linecap: square"/>
    </g>
    <g id="text_26">
     <!-- 360 -->
     <g transform="translate(400.587031 181.077344) scale(0.11 -0.11)">
      <use xlink:href="#DejaVuSans-33"/>
      <use xlink:href="#DejaVuSans-36" x="63.623047"/>
      <use xlink:href="#DejaVuSans-30" x="127.246094"/>
     </g>
    </g>
    <g id="line2d_42">
     <path d="M 369.787031 193.373281 
L 380.787031 193.373281 
L 391.787031 193.373281 
" style="fill: none; stroke: #e377c2; stroke-opacity: 0.9; stroke-width: 3; stroke-linecap: square"/>
    </g>
    <g id="text_27">
     <!-- 420 -->
     <g transform="translate(400.587031 197.223281) scale(0.11 -0.11)">
      <use xlink:href="#DejaVuSans-34"/>
      <use xlink:href="#DejaVuSans-32" x="63.623047"/>
      <use xlink:href="#DejaVuSans-30" x="127.246094"/>
     </g>
    </g>
    <g id="line2d_43">
     <path d="M 369.787031 209.519219 
L 380.787031 209.519219 
L 391.787031 209.519219 
" style="fill: none; stroke: #7f7f7f; stroke-opacity: 0.9; stroke-width: 3; stroke-linecap: square"/>
    </g>
    <g id="text_28">
     <!-- 480 -->
     <g transform="translate(400.587031 213.369219) scale(0.11 -0.11)">
      <use xlink:href="#DejaVuSans-34"/>
      <use xlink:href="#DejaVuSans-38" x="63.623047"/>
      <use xlink:href="#DejaVuSans-30" x="127.246094"/>
     </g>
    </g>
    <g id="line2d_44">
     <path d="M 369.787031 225.665156 
L 380.787031 225.665156 
L 391.787031 225.665156 
" style="fill: none; stroke: #bcbd22; stroke-opacity: 0.9; stroke-width: 3; stroke-linecap: square"/>
    </g>
    <g id="text_29">
     <!-- 540 -->
     <g transform="translate(400.587031 229.515156) scale(0.11 -0.11)">
      <use xlink:href="#DejaVuSans-35"/>
      <use xlink:href="#DejaVuSans-34" x="63.623047"/>
      <use xlink:href="#DejaVuSans-30" x="127.246094"/>
     </g>
    </g>
    <g id="line2d_45">
     <path d="M 369.787031 241.811094 
L 380.787031 241.811094 
L 391.787031 241.811094 
" style="fill: none; stroke: #17becf; stroke-opacity: 0.9; stroke-width: 3; stroke-linecap: square"/>
    </g>
    <g id="text_30">
     <!-- 600 -->
     <g transform="translate(400.587031 245.661094) scale(0.11 -0.11)">
      <use xlink:href="#DejaVuSans-36"/>
      <use xlink:href="#DejaVuSans-30" x="63.623047"/>
      <use xlink:href="#DejaVuSans-30" x="127.246094"/>
     </g>
    </g>
   </g>
  </g>
 </g>
 <defs>
  <clipPath id="pdb7d6ccabf">
   <rect x="63.92" y="27.6" width="386.08" height="269.56"/>
  </clipPath>
 </defs>
</svg>
