<?xml version="1.0" encoding="utf-8" standalone="no"?>
<!DOCTYPE svg PUBLIC "-//W3C//DTD SVG 1.1//EN"
  "http://www.w3.org/Graphics/SVG/1.1/DTD/svg11.dtd">
<svg xmlns:xlink="http://www.w3.org/1999/xlink" width="460.8pt" height="345.6pt" viewBox="0 0 460.8 345.6" xmlns="http://www.w3.org/2000/svg" version="1.1">
 <metadata>
  <rdf:RDF xmlns:dc="http://purl.org/dc/elements/1.1/" xmlns:cc="http://creativecommons.org/ns#" xmlns:rdf="http://www.w3.org/1999/02/22-rdf-syntax-ns#">
   <cc:Work>
    <dc:type rdf:resource="http://purl.org/dc/dcmitype/StillImage"/>
    <dc:date>2023-02-20T22:34:54.541193</dc:date>
    <dc:format>image/svg+xml</dc:format>
    <dc:creator>
     <cc:Agent>
      <dc:title>Matplotlib v3.6.2, https://matplotlib.org/</dc:title>
     </cc:Agent>
    </dc:creator>
   </cc:Work>
  </rdf:RDF>
 </metadata>
 <defs>
  <style type="text/css">*{stroke-linejoin: round; stroke-linecap: butt}</style>
 </defs>
 <g id="figure_1">
  <g id="patch_1">
   <path d="M 0 345.6 
L 460.8 345.6 
L 460.8 0 
L 0 0 
z
" style="fill: #ffffff"/>
  </g>
  <g id="axes_1">
   <g id="patch_2">
    <path d="M 62.39 286.36 
L 262.484 286.36 
L 262.484 34.08 
L 62.39 34.08 
z
" style="fill: #ffffff"/>
   </g>
   <g id="matplotlib.axis_1">
    <g id="xtick_1">
     <g id="line2d_1">
      <defs>
       <path id="m12cf4268ee" d="M 0 0 
L 0 3.5 
" style="stroke: #000000; stroke-width: 0.8"/>
      </defs>
      <g>
       <use xlink:href="#m12cf4268ee" x="71.485182" y="286.36" style="stroke: #000000; stroke-width: 0.8"/>
      </g>
     </g>
     <g id="text_1">
      <!-- 0 -->
      <g transform="translate(66.395182 305.5175) scale(0.16 -0.16)">
       <defs>
        <path id="DejaVuSans-30" d="M 2034 4250 
Q 1547 4250 1301 3770 
Q 1056 3291 1056 2328 
Q 1056 1369 1301 889 
Q 1547 409 2034 409 
Q 2525 409 2770 889 
Q 3016 1369 3016 2328 
Q 3016 3291 2770 3770 
Q 2525 4250 2034 4250 
z
M 2034 4750 
Q 2819 4750 3233 4129 
Q 3647 3509 3647 2328 
Q 3647 1150 3233 529 
Q 2819 -91 2034 -91 
Q 1250 -91 836 529 
Q 422 1150 422 2328 
Q 422 3509 836 4129 
Q 1250 4750 2034 4750 
z
" transform="scale(0.015625)"/>
       </defs>
       <use xlink:href="#DejaVuSans-30"/>
      </g>
     </g>
    </g>
    <g id="xtick_2">
     <g id="line2d_2">
      <g>
       <use xlink:href="#m12cf4268ee" x="132.629261" y="286.36" style="stroke: #000000; stroke-width: 0.8"/>
      </g>
     </g>
     <g id="text_2">
      <!-- 200 -->
      <g transform="translate(117.359261 305.5175) scale(0.16 -0.16)">
       <defs>
        <path id="DejaVuSans-32" d="M 1228 531 
L 3431 531 
L 3431 0 
L 469 0 
L 469 531 
Q 828 903 1448 1529 
Q 2069 2156 2228 2338 
Q 2531 2678 2651 2914 
Q 2772 3150 2772 3378 
Q 2772 3750 2511 3984 
Q 2250 4219 1831 4219 
Q 1534 4219 1204 4116 
Q 875 4013 500 3803 
L 500 4441 
Q 881 4594 1212 4672 
Q 1544 4750 1819 4750 
Q 2544 4750 2975 4387 
Q 3406 4025 3406 3419 
Q 3406 3131 3298 2873 
Q 3191 2616 2906 2266 
Q 2828 2175 2409 1742 
Q 1991 1309 1228 531 
z
" transform="scale(0.015625)"/>
       </defs>
       <use xlink:href="#DejaVuSans-32"/>
       <use xlink:href="#DejaVuSans-30" x="63.623047"/>
       <use xlink:href="#DejaVuSans-30" x="127.246094"/>
      </g>
     </g>
    </g>
    <g id="xtick_3">
     <g id="line2d_3">
      <g>
       <use xlink:href="#m12cf4268ee" x="193.773341" y="286.36" style="stroke: #000000; stroke-width: 0.8"/>
      </g>
     </g>
     <g id="text_3">
      <!-- 400 -->
      <g transform="translate(178.503341 305.5175) scale(0.16 -0.16)">
       <defs>
        <path id="DejaVuSans-34" d="M 2419 4116 
L 825 1625 
L 2419 1625 
L 2419 4116 
z
M 2253 4666 
L 3047 4666 
L 3047 1625 
L 3713 1625 
L 3713 1100 
L 3047 1100 
L 3047 0 
L 2419 0 
L 2419 1100 
L 313 1100 
L 313 1709 
L 2253 4666 
z
" transform="scale(0.015625)"/>
       </defs>
       <use xlink:href="#DejaVuSans-34"/>
       <use xlink:href="#DejaVuSans-30" x="63.623047"/>
       <use xlink:href="#DejaVuSans-30" x="127.246094"/>
      </g>
     </g>
    </g>
    <g id="xtick_4">
     <g id="line2d_4">
      <g>
       <use xlink:href="#m12cf4268ee" x="254.91742" y="286.36" style="stroke: #000000; stroke-width: 0.8"/>
      </g>
     </g>
     <g id="text_4">
      <!-- 600 -->
      <g transform="translate(239.64742 305.5175) scale(0.16 -0.16)">
       <defs>
        <path id="DejaVuSans-36" d="M 2113 2584 
Q 1688 2584 1439 2293 
Q 1191 2003 1191 1497 
Q 1191 994 1439 701 
Q 1688 409 2113 409 
Q 2538 409 2786 701 
Q 3034 994 3034 1497 
Q 3034 2003 2786 2293 
Q 2538 2584 2113 2584 
z
M 3366 4563 
L 3366 3988 
Q 3128 4100 2886 4159 
Q 2644 4219 2406 4219 
Q 1781 4219 1451 3797 
Q 1122 3375 1075 2522 
Q 1259 2794 1537 2939 
Q 1816 3084 2150 3084 
Q 2853 3084 3261 2657 
Q 3669 2231 3669 1497 
Q 3669 778 3244 343 
Q 2819 -91 2113 -91 
Q 1303 -91 875 529 
Q 447 1150 447 2328 
Q 447 3434 972 4092 
Q 1497 4750 2381 4750 
Q 2619 4750 2861 4703 
Q 3103 4656 3366 4563 
z
" transform="scale(0.015625)"/>
       </defs>
       <use xlink:href="#DejaVuSans-36"/>
       <use xlink:href="#DejaVuSans-30" x="63.623047"/>
       <use xlink:href="#DejaVuSans-30" x="127.246094"/>
      </g>
     </g>
    </g>
    <g id="text_5">
     <!-- Distance from Center $(\mu m)$ -->
     <g transform="translate(68.357 323.485) scale(0.14 -0.14)">
      <defs>
       <path id="DejaVuSans-44" d="M 1259 4147 
L 1259 519 
L 2022 519 
Q 2988 519 3436 956 
Q 3884 1394 3884 2338 
Q 3884 3275 3436 3711 
Q 2988 4147 2022 4147 
L 1259 4147 
z
M 628 4666 
L 1925 4666 
Q 3281 4666 3915 4102 
Q 4550 3538 4550 2338 
Q 4550 1131 3912 565 
Q 3275 0 1925 0 
L 628 0 
L 628 4666 
z
" transform="scale(0.015625)"/>
       <path id="DejaVuSans-69" d="M 603 3500 
L 1178 3500 
L 1178 0 
L 603 0 
L 603 3500 
z
M 603 4863 
L 1178 4863 
L 1178 4134 
L 603 4134 
L 603 4863 
z
" transform="scale(0.015625)"/>
       <path id="DejaVuSans-73" d="M 2834 3397 
L 2834 2853 
Q 2591 2978 2328 3040 
Q 2066 3103 1784 3103 
Q 1356 3103 1142 2972 
Q 928 2841 928 2578 
Q 928 2378 1081 2264 
Q 1234 2150 1697 2047 
L 1894 2003 
Q 2506 1872 2764 1633 
Q 3022 1394 3022 966 
Q 3022 478 2636 193 
Q 2250 -91 1575 -91 
Q 1294 -91 989 -36 
Q 684 19 347 128 
L 347 722 
Q 666 556 975 473 
Q 1284 391 1588 391 
Q 1994 391 2212 530 
Q 2431 669 2431 922 
Q 2431 1156 2273 1281 
Q 2116 1406 1581 1522 
L 1381 1569 
Q 847 1681 609 1914 
Q 372 2147 372 2553 
Q 372 3047 722 3315 
Q 1072 3584 1716 3584 
Q 2034 3584 2315 3537 
Q 2597 3491 2834 3397 
z
" transform="scale(0.015625)"/>
       <path id="DejaVuSans-74" d="M 1172 4494 
L 1172 3500 
L 2356 3500 
L 2356 3053 
L 1172 3053 
L 1172 1153 
Q 1172 725 1289 603 
Q 1406 481 1766 481 
L 2356 481 
L 2356 0 
L 1766 0 
Q 1100 0 847 248 
Q 594 497 594 1153 
L 594 3053 
L 172 3053 
L 172 3500 
L 594 3500 
L 594 4494 
L 1172 4494 
z
" transform="scale(0.015625)"/>
       <path id="DejaVuSans-61" d="M 2194 1759 
Q 1497 1759 1228 1600 
Q 959 1441 959 1056 
Q 959 750 1161 570 
Q 1363 391 1709 391 
Q 2188 391 2477 730 
Q 2766 1069 2766 1631 
L 2766 1759 
L 2194 1759 
z
M 3341 1997 
L 3341 0 
L 2766 0 
L 2766 531 
Q 2569 213 2275 61 
Q 1981 -91 1556 -91 
Q 1019 -91 701 211 
Q 384 513 384 1019 
Q 384 1609 779 1909 
Q 1175 2209 1959 2209 
L 2766 2209 
L 2766 2266 
Q 2766 2663 2505 2880 
Q 2244 3097 1772 3097 
Q 1472 3097 1187 3025 
Q 903 2953 641 2809 
L 641 3341 
Q 956 3463 1253 3523 
Q 1550 3584 1831 3584 
Q 2591 3584 2966 3190 
Q 3341 2797 3341 1997 
z
" transform="scale(0.015625)"/>
       <path id="DejaVuSans-6e" d="M 3513 2113 
L 3513 0 
L 2938 0 
L 2938 2094 
Q 2938 2591 2744 2837 
Q 2550 3084 2163 3084 
Q 1697 3084 1428 2787 
Q 1159 2491 1159 1978 
L 1159 0 
L 581 0 
L 581 3500 
L 1159 3500 
L 1159 2956 
Q 1366 3272 1645 3428 
Q 1925 3584 2291 3584 
Q 2894 3584 3203 3211 
Q 3513 2838 3513 2113 
z
" transform="scale(0.015625)"/>
       <path id="DejaVuSans-63" d="M 3122 3366 
L 3122 2828 
Q 2878 2963 2633 3030 
Q 2388 3097 2138 3097 
Q 1578 3097 1268 2742 
Q 959 2388 959 1747 
Q 959 1106 1268 751 
Q 1578 397 2138 397 
Q 2388 397 2633 464 
Q 2878 531 3122 666 
L 3122 134 
Q 2881 22 2623 -34 
Q 2366 -91 2075 -91 
Q 1284 -91 818 406 
Q 353 903 353 1747 
Q 353 2603 823 3093 
Q 1294 3584 2113 3584 
Q 2378 3584 2631 3529 
Q 2884 3475 3122 3366 
z
" transform="scale(0.015625)"/>
       <path id="DejaVuSans-65" d="M 3597 1894 
L 3597 1613 
L 953 1613 
Q 991 1019 1311 708 
Q 1631 397 2203 397 
Q 2534 397 2845 478 
Q 3156 559 3463 722 
L 3463 178 
Q 3153 47 2828 -22 
Q 2503 -91 2169 -91 
Q 1331 -91 842 396 
Q 353 884 353 1716 
Q 353 2575 817 3079 
Q 1281 3584 2069 3584 
Q 2775 3584 3186 3129 
Q 3597 2675 3597 1894 
z
M 3022 2063 
Q 3016 2534 2758 2815 
Q 2500 3097 2075 3097 
Q 1594 3097 1305 2825 
Q 1016 2553 972 2059 
L 3022 2063 
z
" transform="scale(0.015625)"/>
       <path id="DejaVuSans-20" transform="scale(0.015625)"/>
       <path id="DejaVuSans-66" d="M 2375 4863 
L 2375 4384 
L 1825 4384 
Q 1516 4384 1395 4259 
Q 1275 4134 1275 3809 
L 1275 3500 
L 2222 3500 
L 2222 3053 
L 1275 3053 
L 1275 0 
L 697 0 
L 697 3053 
L 147 3053 
L 147 3500 
L 697 3500 
L 697 3744 
Q 697 4328 969 4595 
Q 1241 4863 1831 4863 
L 2375 4863 
z
" transform="scale(0.015625)"/>
       <path id="DejaVuSans-72" d="M 2631 2963 
Q 2534 3019 2420 3045 
Q 2306 3072 2169 3072 
Q 1681 3072 1420 2755 
Q 1159 2438 1159 1844 
L 1159 0 
L 581 0 
L 581 3500 
L 1159 3500 
L 1159 2956 
Q 1341 3275 1631 3429 
Q 1922 3584 2338 3584 
Q 2397 3584 2469 3576 
Q 2541 3569 2628 3553 
L 2631 2963 
z
" transform="scale(0.015625)"/>
       <path id="DejaVuSans-6f" d="M 1959 3097 
Q 1497 3097 1228 2736 
Q 959 2375 959 1747 
Q 959 1119 1226 758 
Q 1494 397 1959 397 
Q 2419 397 2687 759 
Q 2956 1122 2956 1747 
Q 2956 2369 2687 2733 
Q 2419 3097 1959 3097 
z
M 1959 3584 
Q 2709 3584 3137 3096 
Q 3566 2609 3566 1747 
Q 3566 888 3137 398 
Q 2709 -91 1959 -91 
Q 1206 -91 779 398 
Q 353 888 353 1747 
Q 353 2609 779 3096 
Q 1206 3584 1959 3584 
z
" transform="scale(0.015625)"/>
       <path id="DejaVuSans-6d" d="M 3328 2828 
Q 3544 3216 3844 3400 
Q 4144 3584 4550 3584 
Q 5097 3584 5394 3201 
Q 5691 2819 5691 2113 
L 5691 0 
L 5113 0 
L 5113 2094 
Q 5113 2597 4934 2840 
Q 4756 3084 4391 3084 
Q 3944 3084 3684 2787 
Q 3425 2491 3425 1978 
L 3425 0 
L 2847 0 
L 2847 2094 
Q 2847 2600 2669 2842 
Q 2491 3084 2119 3084 
Q 1678 3084 1418 2786 
Q 1159 2488 1159 1978 
L 1159 0 
L 581 0 
L 581 3500 
L 1159 3500 
L 1159 2956 
Q 1356 3278 1631 3431 
Q 1906 3584 2284 3584 
Q 2666 3584 2933 3390 
Q 3200 3197 3328 2828 
z
" transform="scale(0.015625)"/>
       <path id="DejaVuSans-43" d="M 4122 4306 
L 4122 3641 
Q 3803 3938 3442 4084 
Q 3081 4231 2675 4231 
Q 1875 4231 1450 3742 
Q 1025 3253 1025 2328 
Q 1025 1406 1450 917 
Q 1875 428 2675 428 
Q 3081 428 3442 575 
Q 3803 722 4122 1019 
L 4122 359 
Q 3791 134 3420 21 
Q 3050 -91 2638 -91 
Q 1578 -91 968 557 
Q 359 1206 359 2328 
Q 359 3453 968 4101 
Q 1578 4750 2638 4750 
Q 3056 4750 3426 4639 
Q 3797 4528 4122 4306 
z
" transform="scale(0.015625)"/>
       <path id="DejaVuSans-28" d="M 1984 4856 
Q 1566 4138 1362 3434 
Q 1159 2731 1159 2009 
Q 1159 1288 1364 580 
Q 1569 -128 1984 -844 
L 1484 -844 
Q 1016 -109 783 600 
Q 550 1309 550 2009 
Q 550 2706 781 3412 
Q 1013 4119 1484 4856 
L 1984 4856 
z
" transform="scale(0.015625)"/>
       <path id="DejaVuSans-Oblique-3bc" d="M -84 -1331 
L 856 3500 
L 1434 3500 
L 1009 1322 
Q 997 1256 987 1175 
Q 978 1094 978 1013 
Q 978 722 1161 565 
Q 1344 409 1684 409 
Q 2147 409 2431 671 
Q 2716 934 2816 1459 
L 3213 3500 
L 3788 3500 
L 3266 809 
Q 3253 750 3248 706 
Q 3244 663 3244 628 
Q 3244 531 3283 486 
Q 3322 441 3406 441 
Q 3438 441 3492 456 
Q 3547 472 3647 513 
L 3559 50 
Q 3422 -19 3297 -55 
Q 3172 -91 3053 -91 
Q 2847 -91 2730 40 
Q 2613 172 2613 403 
Q 2438 153 2195 31 
Q 1953 -91 1625 -91 
Q 1334 -91 1117 43 
Q 900 178 831 397 
L 494 -1331 
L -84 -1331 
z
" transform="scale(0.015625)"/>
       <path id="DejaVuSans-Oblique-6d" d="M 5747 2113 
L 5338 0 
L 4763 0 
L 5166 2094 
Q 5191 2228 5203 2325 
Q 5216 2422 5216 2491 
Q 5216 2772 5059 2928 
Q 4903 3084 4622 3084 
Q 4203 3084 3875 2770 
Q 3547 2456 3450 1953 
L 3066 0 
L 2491 0 
L 2900 2094 
Q 2925 2209 2937 2307 
Q 2950 2406 2950 2484 
Q 2950 2769 2794 2926 
Q 2638 3084 2363 3084 
Q 1938 3084 1609 2770 
Q 1281 2456 1184 1953 
L 800 0 
L 225 0 
L 909 3500 
L 1484 3500 
L 1375 2956 
Q 1609 3263 1923 3423 
Q 2238 3584 2597 3584 
Q 2978 3584 3223 3384 
Q 3469 3184 3519 2828 
Q 3781 3197 4126 3390 
Q 4472 3584 4856 3584 
Q 5306 3584 5551 3325 
Q 5797 3066 5797 2591 
Q 5797 2488 5784 2364 
Q 5772 2241 5747 2113 
z
" transform="scale(0.015625)"/>
       <path id="DejaVuSans-29" d="M 513 4856 
L 1013 4856 
Q 1481 4119 1714 3412 
Q 1947 2706 1947 2009 
Q 1947 1309 1714 600 
Q 1481 -109 1013 -844 
L 513 -844 
Q 928 -128 1133 580 
Q 1338 1288 1338 2009 
Q 1338 2731 1133 3434 
Q 928 4138 513 4856 
z
" transform="scale(0.015625)"/>
      </defs>
      <use xlink:href="#DejaVuSans-44" transform="translate(0 0.015625)"/>
      <use xlink:href="#DejaVuSans-69" transform="translate(77.001953 0.015625)"/>
      <use xlink:href="#DejaVuSans-73" transform="translate(104.785156 0.015625)"/>
      <use xlink:href="#DejaVuSans-74" transform="translate(156.884766 0.015625)"/>
      <use xlink:href="#DejaVuSans-61" transform="translate(196.09375 0.015625)"/>
      <use xlink:href="#DejaVuSans-6e" transform="translate(257.373047 0.015625)"/>
      <use xlink:href="#DejaVuSans-63" transform="translate(320.751953 0.015625)"/>
      <use xlink:href="#DejaVuSans-65" transform="translate(375.732422 0.015625)"/>
      <use xlink:href="#DejaVuSans-20" transform="translate(437.255859 0.015625)"/>
      <use xlink:href="#DejaVuSans-66" transform="translate(469.042969 0.015625)"/>
      <use xlink:href="#DejaVuSans-72" transform="translate(504.248047 0.015625)"/>
      <use xlink:href="#DejaVuSans-6f" transform="translate(545.361328 0.015625)"/>
      <use xlink:href="#DejaVuSans-6d" transform="translate(606.542969 0.015625)"/>
      <use xlink:href="#DejaVuSans-20" transform="translate(703.955078 0.015625)"/>
      <use xlink:href="#DejaVuSans-43" transform="translate(735.742188 0.015625)"/>
      <use xlink:href="#DejaVuSans-65" transform="translate(805.566406 0.015625)"/>
      <use xlink:href="#DejaVuSans-6e" transform="translate(867.089844 0.015625)"/>
      <use xlink:href="#DejaVuSans-74" transform="translate(930.46875 0.015625)"/>
      <use xlink:href="#DejaVuSans-65" transform="translate(969.677734 0.015625)"/>
      <use xlink:href="#DejaVuSans-72" transform="translate(1031.201172 0.015625)"/>
      <use xlink:href="#DejaVuSans-20" transform="translate(1072.314453 0.015625)"/>
      <use xlink:href="#DejaVuSans-28" transform="translate(1104.101562 0.015625)"/>
      <use xlink:href="#DejaVuSans-Oblique-3bc" transform="translate(1143.115234 0.015625)"/>
      <use xlink:href="#DejaVuSans-Oblique-6d" transform="translate(1206.738281 0.015625)"/>
      <use xlink:href="#DejaVuSans-29" transform="translate(1304.150391 0.015625)"/>
     </g>
    </g>
   </g>
   <g id="matplotlib.axis_2">
    <g id="ytick_1">
     <g id="line2d_5">
      <path d="M 62.39 274.893113 
L 262.484 274.893113 
" clip-path="url(#pb06ce515e9)" style="fill: none; stroke: #f2f2f2; stroke-width: 0.8; stroke-linecap: square"/>
     </g>
     <g id="line2d_6">
      <defs>
       <path id="m61fba38c21" d="M 0 0 
L -3.5 0 
" style="stroke: #000000; stroke-width: 0.8"/>
      </defs>
      <g>
       <use xlink:href="#m61fba38c21" x="62.39" y="274.893113" style="stroke: #000000; stroke-width: 0.8"/>
      </g>
     </g>
     <g id="text_6">
      <!-- 0 -->
      <g transform="translate(45.21 280.971863) scale(0.16 -0.16)">
       <use xlink:href="#DejaVuSans-30"/>
      </g>
     </g>
    </g>
    <g id="ytick_2">
     <g id="line2d_7">
      <path d="M 62.39 213.620702 
L 262.484 213.620702 
" clip-path="url(#pb06ce515e9)" style="fill: none; stroke: #f2f2f2; stroke-width: 0.8; stroke-linecap: square"/>
     </g>
     <g id="line2d_8">
      <g>
       <use xlink:href="#m61fba38c21" x="62.39" y="213.620702" style="stroke: #000000; stroke-width: 0.8"/>
      </g>
     </g>
     <g id="text_7">
      <!-- 5 -->
      <g transform="translate(45.21 219.699452) scale(0.16 -0.16)">
       <defs>
        <path id="DejaVuSans-35" d="M 691 4666 
L 3169 4666 
L 3169 4134 
L 1269 4134 
L 1269 2991 
Q 1406 3038 1543 3061 
Q 1681 3084 1819 3084 
Q 2600 3084 3056 2656 
Q 3513 2228 3513 1497 
Q 3513 744 3044 326 
Q 2575 -91 1722 -91 
Q 1428 -91 1123 -41 
Q 819 9 494 109 
L 494 744 
Q 775 591 1075 516 
Q 1375 441 1709 441 
Q 2250 441 2565 725 
Q 2881 1009 2881 1497 
Q 2881 1984 2565 2268 
Q 2250 2553 1709 2553 
Q 1456 2553 1204 2497 
Q 953 2441 691 2322 
L 691 4666 
z
" transform="scale(0.015625)"/>
       </defs>
       <use xlink:href="#DejaVuSans-35"/>
      </g>
     </g>
    </g>
    <g id="ytick_3">
     <g id="line2d_9">
      <path d="M 62.39 152.348291 
L 262.484 152.348291 
" clip-path="url(#pb06ce515e9)" style="fill: none; stroke: #f2f2f2; stroke-width: 0.8; stroke-linecap: square"/>
     </g>
     <g id="line2d_10">
      <g>
       <use xlink:href="#m61fba38c21" x="62.39" y="152.348291" style="stroke: #000000; stroke-width: 0.8"/>
      </g>
     </g>
     <g id="text_8">
      <!-- 10 -->
      <g transform="translate(35.03 158.427041) scale(0.16 -0.16)">
       <defs>
        <path id="DejaVuSans-31" d="M 794 531 
L 1825 531 
L 1825 4091 
L 703 3866 
L 703 4441 
L 1819 4666 
L 2450 4666 
L 2450 531 
L 3481 531 
L 3481 0 
L 794 0 
L 794 531 
z
" transform="scale(0.015625)"/>
       </defs>
       <use xlink:href="#DejaVuSans-31"/>
       <use xlink:href="#DejaVuSans-30" x="63.623047"/>
      </g>
     </g>
    </g>
    <g id="ytick_4">
     <g id="line2d_11">
      <path d="M 62.39 91.07588 
L 262.484 91.07588 
" clip-path="url(#pb06ce515e9)" style="fill: none; stroke: #f2f2f2; stroke-width: 0.8; stroke-linecap: square"/>
     </g>
     <g id="line2d_12">
      <g>
       <use xlink:href="#m61fba38c21" x="62.39" y="91.07588" style="stroke: #000000; stroke-width: 0.8"/>
      </g>
     </g>
     <g id="text_9">
      <!-- 15 -->
      <g transform="translate(35.03 97.15463) scale(0.16 -0.16)">
       <use xlink:href="#DejaVuSans-31"/>
       <use xlink:href="#DejaVuSans-35" x="63.623047"/>
      </g>
     </g>
    </g>
    <g id="text_10">
     <!-- Concentration (mM) -->
     <g transform="translate(28.118438 230.284531) rotate(-90) scale(0.14 -0.14)">
      <defs>
       <path id="DejaVuSans-4d" d="M 628 4666 
L 1569 4666 
L 2759 1491 
L 3956 4666 
L 4897 4666 
L 4897 0 
L 4281 0 
L 4281 4097 
L 3078 897 
L 2444 897 
L 1241 4097 
L 1241 0 
L 628 0 
L 628 4666 
z
" transform="scale(0.015625)"/>
      </defs>
      <use xlink:href="#DejaVuSans-43"/>
      <use xlink:href="#DejaVuSans-6f" x="69.824219"/>
      <use xlink:href="#DejaVuSans-6e" x="131.005859"/>
      <use xlink:href="#DejaVuSans-63" x="194.384766"/>
      <use xlink:href="#DejaVuSans-65" x="249.365234"/>
      <use xlink:href="#DejaVuSans-6e" x="310.888672"/>
      <use xlink:href="#DejaVuSans-74" x="374.267578"/>
      <use xlink:href="#DejaVuSans-72" x="413.476562"/>
      <use xlink:href="#DejaVuSans-61" x="454.589844"/>
      <use xlink:href="#DejaVuSans-74" x="515.869141"/>
      <use xlink:href="#DejaVuSans-69" x="555.078125"/>
      <use xlink:href="#DejaVuSans-6f" x="582.861328"/>
      <use xlink:href="#DejaVuSans-6e" x="644.042969"/>
      <use xlink:href="#DejaVuSans-20" x="707.421875"/>
      <use xlink:href="#DejaVuSans-28" x="739.208984"/>
      <use xlink:href="#DejaVuSans-6d" x="778.222656"/>
      <use xlink:href="#DejaVuSans-4d" x="875.634766"/>
      <use xlink:href="#DejaVuSans-29" x="961.914062"/>
     </g>
    </g>
   </g>
   <g id="line2d_13">
    <path d="M 71.485182 55.953174 
L 73.625225 55.79275 
L 75.765267 55.310941 
L 77.90531 54.506434 
L 80.045353 53.3772 
L 82.185396 51.920493 
L 84.325439 50.132847 
L 86.465481 48.010076 
L 88.605524 45.547273 
" clip-path="url(#pb06ce515e9)" style="fill: none; stroke: #1f77b4; stroke-opacity: 0.9; stroke-width: 3; stroke-linecap: square"/>
   </g>
   <g id="line2d_14">
    <path d="M 71.485182 90.702672 
L 73.625225 90.555615 
L 75.765267 90.113914 
L 77.90531 89.376268 
L 80.045353 88.34067 
L 82.185396 87.004398 
L 84.325439 85.364021 
L 86.465481 83.415392 
L 88.605524 81.153649 
L 90.745567 78.573209 
L 92.88561 75.66777 
L 95.025652 72.430303 
L 97.165695 68.85305 
L 99.305738 64.927525 
L 101.445781 60.644505 
L 103.585824 55.994038 
L 105.725866 50.96544 
L 107.865909 45.547273 
" clip-path="url(#pb06ce515e9)" style="fill: none; stroke: #ff7f0e; stroke-opacity: 0.9; stroke-width: 3; stroke-linecap: square"/>
   </g>
   <g id="line2d_15">
    <path d="M 71.485182 137.16775 
L 73.625225 137.040598 
L 75.765267 136.658606 
L 77.90531 136.020469 
L 80.045353 135.124169 
L 82.185396 133.966979 
L 84.325439 132.545459 
L 86.465481 130.855464 
L 88.605524 128.892142 
L 90.745567 126.649933 
L 92.88561 124.122574 
L 95.025652 121.303099 
L 97.165695 118.183833 
L 99.305738 114.756396 
L 101.445781 111.011697 
L 103.585824 106.939925 
L 105.725866 102.53055 
L 107.865909 97.77231 
L 110.005952 92.653198 
L 112.145995 87.16046 
L 114.286037 81.280578 
L 116.42608 74.999266 
L 118.566123 68.30147 
L 120.706166 61.171374 
L 122.846209 53.592431 
L 124.986251 45.547273 
" clip-path="url(#pb06ce515e9)" style="fill: none; stroke: #2ca02c; stroke-opacity: 0.9; stroke-width: 3; stroke-linecap: square"/>
   </g>
   <g id="line2d_16">
    <path d="M 71.485182 196.904281 
L 73.625225 196.810114 
L 75.765267 196.527041 
L 77.90531 196.05366 
L 80.045353 195.387806 
L 82.185396 194.526552 
L 84.325439 193.466207 
L 86.465481 192.202323 
L 88.605524 190.729696 
L 90.745567 189.042368 
L 92.88561 187.133635 
L 95.025652 184.996055 
L 97.165695 182.621462 
L 99.305738 180.000981 
L 101.445781 177.125056 
L 103.585824 173.983475 
L 105.725866 170.565389 
L 107.865909 166.859336 
L 110.005952 162.853245 
L 112.145995 158.534436 
L 114.286037 153.889619 
L 116.42608 148.904876 
L 118.566123 143.565646 
L 120.706166 137.856707 
L 122.846209 131.762142 
L 124.986251 125.265317 
L 127.126294 118.348839 
L 129.266337 110.994524 
L 131.40638 103.183354 
L 133.546422 94.895446 
L 135.686465 86.110026 
L 137.826508 76.805422 
L 139.966551 66.959107 
L 142.106594 56.547795 
L 144.246636 45.547273 
" clip-path="url(#pb06ce515e9)" style="fill: none; stroke: #d62728; stroke-opacity: 0.9; stroke-width: 3; stroke-linecap: square"/>
   </g>
   <g id="line2d_17">
    <path d="M 71.485182 243.048273 
L 73.625225 242.994751 
L 75.765267 242.833604 
L 77.90531 242.563403 
L 80.045353 242.181935 
L 82.185396 241.686193 
L 84.325439 241.072366 
L 86.465481 240.335834 
L 88.605524 239.471154 
L 90.745567 238.472057 
L 92.88561 237.331441 
L 95.025652 236.041367 
L 97.165695 234.593065 
L 99.305738 232.976935 
L 101.445781 231.182566 
L 103.585824 229.198751 
L 105.725866 227.013512 
L 107.865909 224.614132 
L 110.005952 221.987193 
L 112.145995 219.118611 
L 114.286037 215.993681 
L 116.42608 212.597115 
L 118.566123 208.913065 
L 120.706166 204.925129 
L 122.846209 200.61631 
L 124.986251 195.968903 
L 127.126294 190.964383 
L 129.266337 185.583486 
L 131.40638 179.806627 
L 133.546422 173.614273 
L 135.686465 166.98693 
L 137.826508 159.904856 
L 139.966551 152.347782 
L 142.106594 144.294728 
L 144.246636 135.723859 
L 146.386679 126.612388 
L 148.526722 116.936476 
L 150.666765 106.671146 
L 152.806807 95.790228 
L 154.94685 84.266342 
L 157.086893 72.070986 
L 159.226936 59.174785 
L 161.366979 45.547273 
" clip-path="url(#pb06ce515e9)" style="fill: none; stroke: #9467bd; stroke-opacity: 0.9; stroke-width: 3; stroke-linecap: square"/>
   </g>
   <g id="line2d_18">
    <path d="M 71.485182 269.282769 
L 73.625225 269.27072 
L 75.765267 269.234347 
L 77.90531 269.173087 
L 80.045353 269.086059 
L 82.185396 268.972042 
L 84.325439 268.829449 
L 86.465481 268.656299 
L 88.605524 268.450175 
L 90.745567 268.20818 
L 92.88561 267.926879 
L 95.025652 267.602239 
L 97.165695 267.229553 
L 99.305738 266.803359 
L 101.445781 266.317348 
L 103.585824 265.764266 
L 105.725866 265.135805 
L 107.865909 264.422491 
L 110.005952 263.613572 
L 112.145995 262.696909 
L 114.286037 261.658874 
L 116.42608 260.484266 
L 118.566123 259.156255 
L 120.706166 257.656354 
L 122.846209 255.964443 
L 124.986251 254.058836 
L 127.126294 251.916402 
L 129.266337 249.51275 
L 131.40638 246.822448 
L 133.546422 243.819293 
L 135.686465 240.476599 
L 137.826508 236.767481 
L 139.966551 232.665126 
L 142.106594 228.143021 
L 144.246636 223.175121 
L 146.386679 217.735951 
L 148.526722 211.80061 
L 150.666765 205.344627 
L 152.806807 198.343329 
L 154.94685 190.770206 
L 157.086893 182.597114 
L 159.226936 173.797918 
L 161.366979 164.348672 
L 163.507021 154.225387 
L 165.647064 143.402779 
L 167.787107 131.85382 
L 169.92715 119.549556 
L 172.067193 106.458987 
L 174.207235 92.549064 
L 176.347278 77.784859 
L 178.487321 62.130149 
L 180.627364 45.547273 
" clip-path="url(#pb06ce515e9)" style="fill: none; stroke: #8c564b; stroke-opacity: 0.9; stroke-width: 3; stroke-linecap: square"/>
   </g>
   <g id="line2d_19">
    <path d="M 71.485182 274.355658 
L 73.625225 274.354557 
L 75.765267 274.35123 
L 77.90531 274.345626 
L 80.045353 274.337659 
L 82.185396 274.327214 
L 84.325439 274.314136 
L 86.465481 274.298235 
L 88.605524 274.279271 
L 90.745567 274.256957 
L 92.88561 274.230946 
L 95.025652 274.200822 
L 97.165695 274.166092 
L 99.305738 274.126166 
L 101.445781 274.080344 
L 103.585824 274.027793 
L 105.725866 273.967524 
L 107.865909 273.898354 
L 110.005952 273.818873 
L 112.145995 273.727391 
L 114.286037 273.621882 
L 116.42608 273.499912 
L 118.566123 273.358544 
L 120.706166 273.194237 
L 122.846209 273.002701 
L 124.986251 272.778741 
L 127.126294 272.516052 
L 129.266337 272.206983 
L 131.40638 271.842241 
L 133.546422 271.410563 
L 135.686465 270.898319 
L 137.826508 270.289078 
L 139.966551 269.563141 
L 142.106594 268.697058 
L 144.246636 267.663189 
L 146.386679 266.42935 
L 148.526722 264.958638 
L 150.666765 263.209505 
L 152.806807 261.136167 
L 154.94685 258.689388 
L 157.086893 255.817631 
L 159.226936 252.468484 
L 161.366979 248.590207 
L 163.507021 244.133204 
L 165.647064 239.05121 
L 167.787107 233.30207 
L 169.92715 226.848015 
L 172.067193 219.655475 
L 174.207235 211.694507 
L 176.347278 202.937947 
L 178.487321 193.358028 
L 180.627364 182.919106 
L 182.767406 171.591822 
L 184.907449 159.352623 
L 187.047492 146.176239 
L 189.187535 132.033649 
L 191.327578 116.891849 
L 193.46762 100.713919 
L 195.607663 83.459418 
L 197.747706 65.085513 
L 199.887749 45.547273 
" clip-path="url(#pb06ce515e9)" style="fill: none; stroke: #e377c2; stroke-opacity: 0.9; stroke-width: 3; stroke-linecap: square"/>
   </g>
   <g id="line2d_20">
    <path d="M 71.485182 274.837497 
L 73.625225 274.837395 
L 75.765267 274.837089 
L 77.90531 274.836574 
L 80.045353 274.835843 
L 82.185396 274.834886 
L 84.325439 274.833691 
L 86.465481 274.832242 
L 88.605524 274.83052 
L 90.745567 274.828502 
L 92.88561 274.826159 
L 95.025652 274.823459 
L 97.165695 274.820362 
L 99.305738 274.816822 
L 101.445781 274.812783 
L 103.585824 274.808182 
L 105.725866 274.802942 
L 107.865909 274.796971 
L 110.005952 274.790162 
L 112.145995 274.782387 
L 114.286037 274.773493 
L 116.42608 274.763298 
L 118.566123 274.751582 
L 120.706166 274.738081 
L 122.846209 274.722475 
L 124.986251 274.704376 
L 127.126294 274.683311 
L 129.266337 274.6587 
L 131.40638 274.629831 
L 133.546422 274.595825 
L 135.686465 274.555589 
L 137.826508 274.507763 
L 139.966551 274.450644 
L 142.106594 274.382088 
L 144.246636 274.299385 
L 146.386679 274.199099 
L 148.526722 274.076847 
L 150.666765 273.927023 
L 152.806807 273.742432 
L 154.94685 273.513814 
L 157.086893 273.22924 
L 159.226936 272.873335 
L 161.366979 272.42632 
L 163.507021 271.86286 
L 165.647064 271.150735 
L 167.787107 270.24943 
L 169.92715 269.108811 
L 172.067193 267.668168 
L 174.207235 265.856036 
L 176.347278 263.591189 
L 178.487321 260.78512 
L 180.627364 257.345952 
L 182.767406 253.183266 
L 184.907449 248.212964 
L 187.047492 242.361116 
L 189.187535 235.566089 
L 191.327578 227.778721 
L 193.46762 218.960852 
L 195.607663 209.082786 
L 197.747706 198.120309 
L 199.887749 186.040037 
L 202.027791 172.805978 
L 204.167834 158.398869 
L 206.307877 142.795657 
L 208.44792 125.965903 
L 210.587963 107.872066 
L 212.728005 88.470323 
L 214.868048 67.712504 
L 217.008091 45.547273 
" clip-path="url(#pb06ce515e9)" style="fill: none; stroke: #7f7f7f; stroke-opacity: 0.9; stroke-width: 3; stroke-linecap: square"/>
   </g>
   <g id="line2d_21">
    <path d="M 71.485182 274.889066 
L 73.625225 274.88906 
L 75.765267 274.88904 
L 77.90531 274.889008 
L 80.045353 274.888962 
L 82.185396 274.888901 
L 84.325439 274.888826 
L 86.465481 274.888736 
L 88.605524 274.888629 
L 90.745567 274.888503 
L 92.88561 274.888359 
L 95.025652 274.888193 
L 97.165695 274.888004 
L 99.305738 274.88779 
L 101.445781 274.887547 
L 103.585824 274.887272 
L 105.725866 274.886962 
L 107.865909 274.886613 
L 110.005952 274.886217 
L 112.145995 274.885771 
L 114.286037 274.885266 
L 116.42608 274.884694 
L 118.566123 274.884045 
L 120.706166 274.883306 
L 122.846209 274.882465 
L 124.986251 274.881504 
L 127.126294 274.880403 
L 129.266337 274.879137 
L 131.40638 274.877678 
L 133.546422 274.87599 
L 135.686465 274.87403 
L 137.826508 274.871746 
L 139.966551 274.869073 
L 142.106594 274.865933 
L 144.246636 274.862227 
L 146.386679 274.857834 
L 148.526722 274.8526 
L 150.666765 274.846336 
L 152.806807 274.838798 
L 154.94685 274.829679 
L 157.086893 274.818586 
L 159.226936 274.805013 
L 161.366979 274.788306 
L 163.507021 274.767611 
L 165.647064 274.741812 
L 167.787107 274.709434 
L 169.92715 274.668517 
L 172.067193 274.616441 
L 174.207235 274.549676 
L 176.347278 274.463441 
L 178.487321 274.351213 
L 180.627364 274.204046 
L 182.767406 274.009619 
L 184.907449 273.750905 
L 187.047492 273.404351 
L 189.187535 272.937459 
L 191.327578 272.305682 
L 193.46762 271.448744 
L 195.607663 270.286791 
L 197.747706 268.717313 
L 199.887749 266.614386 
L 202.027791 263.832045 
L 204.167834 260.212872 
L 206.307877 255.600921 
L 208.44792 249.855681 
L 210.587963 242.862789 
L 212.728005 234.538466 
L 214.868048 224.827507 
L 217.008091 213.696832 
L 219.148134 201.127317 
L 221.288176 187.09635 
L 223.428219 171.563393 
L 225.568262 154.520133 
L 227.708305 135.947404 
L 229.848348 115.812293 
L 231.98839 94.070117 
L 234.128433 70.667868 
L 236.268476 45.547273 
" clip-path="url(#pb06ce515e9)" style="fill: none; stroke: #bcbd22; stroke-opacity: 0.9; stroke-width: 3; stroke-linecap: square"/>
   </g>
   <g id="line2d_22">
    <path d="M 71.485182 274.892727 
L 73.625225 274.892727 
L 75.765267 274.892725 
L 77.90531 274.892722 
L 80.045353 274.892718 
L 82.185396 274.892713 
L 84.325439 274.892707 
L 86.465481 274.8927 
L 88.605524 274.892691 
L 90.745567 274.89268 
L 92.88561 274.892668 
L 95.025652 274.892655 
L 97.165695 274.892639 
L 99.305738 274.892622 
L 101.445781 274.892602 
L 103.585824 274.89258 
L 105.725866 274.892555 
L 107.865909 274.892527 
L 110.005952 274.892496 
L 112.145995 274.892461 
L 114.286037 274.892422 
L 116.42608 274.892378 
L 118.566123 274.892328 
L 120.706166 274.892273 
L 122.846209 274.89221 
L 124.986251 274.892139 
L 127.126294 274.892059 
L 129.266337 274.891968 
L 131.40638 274.891864 
L 133.546422 274.891746 
L 135.686465 274.891611 
L 137.826508 274.891456 
L 139.966551 274.891278 
L 142.106594 274.891072 
L 144.246636 274.890833 
L 146.386679 274.890555 
L 148.526722 274.890231 
L 150.666765 274.889851 
L 152.806807 274.889404 
L 154.94685 274.888875 
L 157.086893 274.888246 
L 159.226936 274.887497 
L 161.366979 274.886598 
L 163.507021 274.885515 
L 165.647064 274.884203 
L 167.787107 274.882605 
L 169.92715 274.880647 
L 172.067193 274.878235 
L 174.207235 274.875244 
L 176.347278 274.871513 
L 178.487321 274.866827 
L 180.627364 274.860901 
L 182.767406 274.853352 
L 184.907449 274.843666 
L 187.047492 274.831139 
L 189.187535 274.814807 
L 191.327578 274.793334 
L 193.46762 274.764855 
L 195.607663 274.726741 
L 197.747706 274.675253 
L 199.887749 274.605025 
L 202.027791 274.508292 
L 204.167834 274.373727 
L 206.307877 274.184701 
L 208.44792 273.916687 
L 210.587963 273.533477 
L 212.728005 272.981853 
L 214.868048 272.18455 
L 217.008091 271.032046 
L 219.148134 269.375113 
L 221.288176 267.022194 
L 223.428219 263.746883 
L 225.568262 259.30853 
L 227.708305 253.481887 
L 229.848348 246.08458 
L 231.98839 236.991229 
L 234.128433 226.131056 
L 236.268476 213.474099 
L 238.408519 199.0138 
L 240.548561 182.728436 
L 242.688604 164.595078 
L 244.828647 144.615839 
L 246.96869 122.769345 
L 249.108733 99.014229 
L 251.248775 73.294858 
L 253.388818 45.547273 
" clip-path="url(#pb06ce515e9)" style="fill: none; stroke: #17becf; stroke-opacity: 0.9; stroke-width: 3; stroke-linecap: square"/>
   </g>
   <g id="patch_3">
    <path d="M 62.39 286.36 
L 62.39 34.08 
" style="fill: none; stroke: #000000; stroke-width: 0.8; stroke-linejoin: miter; stroke-linecap: square"/>
   </g>
   <g id="patch_4">
    <path d="M 262.484 286.36 
L 262.484 34.08 
" style="fill: none; stroke: #000000; stroke-width: 0.8; stroke-linejoin: miter; stroke-linecap: square"/>
   </g>
   <g id="patch_5">
    <path d="M 62.39 286.36 
L 262.484 286.36 
" style="fill: none; stroke: #000000; stroke-width: 0.8; stroke-linejoin: miter; stroke-linecap: square"/>
   </g>
   <g id="patch_6">
    <path d="M 62.39 34.08 
L 262.484 34.08 
" style="fill: none; stroke: #000000; stroke-width: 0.8; stroke-linejoin: miter; stroke-linecap: square"/>
   </g>
   <g id="text_11">
    <!-- GLC -->
    <g transform="translate(148.224813 28.08) scale(0.14 -0.14)">
     <defs>
      <path id="DejaVuSans-47" d="M 3809 666 
L 3809 1919 
L 2778 1919 
L 2778 2438 
L 4434 2438 
L 4434 434 
Q 4069 175 3628 42 
Q 3188 -91 2688 -91 
Q 1594 -91 976 548 
Q 359 1188 359 2328 
Q 359 3472 976 4111 
Q 1594 4750 2688 4750 
Q 3144 4750 3555 4637 
Q 3966 4525 4313 4306 
L 4313 3634 
Q 3963 3931 3569 4081 
Q 3175 4231 2741 4231 
Q 1884 4231 1454 3753 
Q 1025 3275 1025 2328 
Q 1025 1384 1454 906 
Q 1884 428 2741 428 
Q 3075 428 3337 486 
Q 3600 544 3809 666 
z
" transform="scale(0.015625)"/>
      <path id="DejaVuSans-4c" d="M 628 4666 
L 1259 4666 
L 1259 531 
L 3531 531 
L 3531 0 
L 628 0 
L 628 4666 
z
" transform="scale(0.015625)"/>
     </defs>
     <use xlink:href="#DejaVuSans-47"/>
     <use xlink:href="#DejaVuSans-4c" x="77.490234"/>
     <use xlink:href="#DejaVuSans-43" x="133.203125"/>
    </g>
   </g>
   <g id="legend_1">
    <g id="patch_7">
     <path d="M 283.6887 305.215 
L 432.2162 305.215 
Q 435.4162 305.215 435.4162 302.015 
L 435.4162 45.28 
Q 435.4162 42.08 432.2162 42.08 
L 283.6887 42.08 
Q 280.4887 42.08 280.4887 45.28 
L 280.4887 302.015 
Q 280.4887 305.215 283.6887 305.215 
z
" style="fill: #ffffff; opacity: 0.8; stroke: #cccccc; stroke-linejoin: miter"/>
    </g>
    <g id="text_12">
     <!-- Aggregate Radius -->
     <g transform="translate(286.8887 60.6375) scale(0.16 -0.16)">
      <defs>
       <path id="DejaVuSans-41" d="M 2188 4044 
L 1331 1722 
L 3047 1722 
L 2188 4044 
z
M 1831 4666 
L 2547 4666 
L 4325 0 
L 3669 0 
L 3244 1197 
L 1141 1197 
L 716 0 
L 50 0 
L 1831 4666 
z
" transform="scale(0.015625)"/>
       <path id="DejaVuSans-67" d="M 2906 1791 
Q 2906 2416 2648 2759 
Q 2391 3103 1925 3103 
Q 1463 3103 1205 2759 
Q 947 2416 947 1791 
Q 947 1169 1205 825 
Q 1463 481 1925 481 
Q 2391 481 2648 825 
Q 2906 1169 2906 1791 
z
M 3481 434 
Q 3481 -459 3084 -895 
Q 2688 -1331 1869 -1331 
Q 1566 -1331 1297 -1286 
Q 1028 -1241 775 -1147 
L 775 -588 
Q 1028 -725 1275 -790 
Q 1522 -856 1778 -856 
Q 2344 -856 2625 -561 
Q 2906 -266 2906 331 
L 2906 616 
Q 2728 306 2450 153 
Q 2172 0 1784 0 
Q 1141 0 747 490 
Q 353 981 353 1791 
Q 353 2603 747 3093 
Q 1141 3584 1784 3584 
Q 2172 3584 2450 3431 
Q 2728 3278 2906 2969 
L 2906 3500 
L 3481 3500 
L 3481 434 
z
" transform="scale(0.015625)"/>
       <path id="DejaVuSans-52" d="M 2841 2188 
Q 3044 2119 3236 1894 
Q 3428 1669 3622 1275 
L 4263 0 
L 3584 0 
L 2988 1197 
Q 2756 1666 2539 1819 
Q 2322 1972 1947 1972 
L 1259 1972 
L 1259 0 
L 628 0 
L 628 4666 
L 2053 4666 
Q 2853 4666 3247 4331 
Q 3641 3997 3641 3322 
Q 3641 2881 3436 2590 
Q 3231 2300 2841 2188 
z
M 1259 4147 
L 1259 2491 
L 2053 2491 
Q 2509 2491 2742 2702 
Q 2975 2913 2975 3322 
Q 2975 3731 2742 3939 
Q 2509 4147 2053 4147 
L 1259 4147 
z
" transform="scale(0.015625)"/>
       <path id="DejaVuSans-64" d="M 2906 2969 
L 2906 4863 
L 3481 4863 
L 3481 0 
L 2906 0 
L 2906 525 
Q 2725 213 2448 61 
Q 2172 -91 1784 -91 
Q 1150 -91 751 415 
Q 353 922 353 1747 
Q 353 2572 751 3078 
Q 1150 3584 1784 3584 
Q 2172 3584 2448 3432 
Q 2725 3281 2906 2969 
z
M 947 1747 
Q 947 1113 1208 752 
Q 1469 391 1925 391 
Q 2381 391 2643 752 
Q 2906 1113 2906 1747 
Q 2906 2381 2643 2742 
Q 2381 3103 1925 3103 
Q 1469 3103 1208 2742 
Q 947 2381 947 1747 
z
" transform="scale(0.015625)"/>
       <path id="DejaVuSans-75" d="M 544 1381 
L 544 3500 
L 1119 3500 
L 1119 1403 
Q 1119 906 1312 657 
Q 1506 409 1894 409 
Q 2359 409 2629 706 
Q 2900 1003 2900 1516 
L 2900 3500 
L 3475 3500 
L 3475 0 
L 2900 0 
L 2900 538 
Q 2691 219 2414 64 
Q 2138 -91 1772 -91 
Q 1169 -91 856 284 
Q 544 659 544 1381 
z
M 1991 3584 
L 1991 3584 
z
" transform="scale(0.015625)"/>
      </defs>
      <use xlink:href="#DejaVuSans-41"/>
      <use xlink:href="#DejaVuSans-67" x="68.408203"/>
      <use xlink:href="#DejaVuSans-67" x="131.884766"/>
      <use xlink:href="#DejaVuSans-72" x="195.361328"/>
      <use xlink:href="#DejaVuSans-65" x="234.224609"/>
      <use xlink:href="#DejaVuSans-67" x="295.748047"/>
      <use xlink:href="#DejaVuSans-61" x="359.224609"/>
      <use xlink:href="#DejaVuSans-74" x="420.503906"/>
      <use xlink:href="#DejaVuSans-65" x="459.712891"/>
      <use xlink:href="#DejaVuSans-20" x="521.236328"/>
      <use xlink:href="#DejaVuSans-52" x="553.023438"/>
      <use xlink:href="#DejaVuSans-61" x="620.255859"/>
      <use xlink:href="#DejaVuSans-64" x="681.535156"/>
      <use xlink:href="#DejaVuSans-69" x="745.011719"/>
      <use xlink:href="#DejaVuSans-75" x="772.794922"/>
      <use xlink:href="#DejaVuSans-73" x="836.173828"/>
     </g>
    </g>
    <g id="line2d_23">
     <path d="M 320.28245 78.5225 
L 336.28245 78.5225 
L 352.28245 78.5225 
" style="fill: none; stroke: #1f77b4; stroke-opacity: 0.9; stroke-width: 3; stroke-linecap: square"/>
    </g>
    <g id="text_13">
     <!-- 60 -->
     <g transform="translate(365.08245 84.1225) scale(0.16 -0.16)">
      <use xlink:href="#DejaVuSans-36"/>
      <use xlink:href="#DejaVuSans-30" x="63.623047"/>
     </g>
    </g>
    <g id="line2d_24">
     <path d="M 320.28245 102.0075 
L 336.28245 102.0075 
L 352.28245 102.0075 
" style="fill: none; stroke: #ff7f0e; stroke-opacity: 0.9; stroke-width: 3; stroke-linecap: square"/>
    </g>
    <g id="text_14">
     <!-- 120 -->
     <g transform="translate(365.08245 107.6075) scale(0.16 -0.16)">
      <use xlink:href="#DejaVuSans-31"/>
      <use xlink:href="#DejaVuSans-32" x="63.623047"/>
      <use xlink:href="#DejaVuSans-30" x="127.246094"/>
     </g>
    </g>
    <g id="line2d_25">
     <path d="M 320.28245 125.4925 
L 336.28245 125.4925 
L 352.28245 125.4925 
" style="fill: none; stroke: #2ca02c; stroke-opacity: 0.9; stroke-width: 3; stroke-linecap: square"/>
    </g>
    <g id="text_15">
     <!-- 180 -->
     <g transform="translate(365.08245 131.0925) scale(0.16 -0.16)">
      <defs>
       <path id="DejaVuSans-38" d="M 2034 2216 
Q 1584 2216 1326 1975 
Q 1069 1734 1069 1313 
Q 1069 891 1326 650 
Q 1584 409 2034 409 
Q 2484 409 2743 651 
Q 3003 894 3003 1313 
Q 3003 1734 2745 1975 
Q 2488 2216 2034 2216 
z
M 1403 2484 
Q 997 2584 770 2862 
Q 544 3141 544 3541 
Q 544 4100 942 4425 
Q 1341 4750 2034 4750 
Q 2731 4750 3128 4425 
Q 3525 4100 3525 3541 
Q 3525 3141 3298 2862 
Q 3072 2584 2669 2484 
Q 3125 2378 3379 2068 
Q 3634 1759 3634 1313 
Q 3634 634 3220 271 
Q 2806 -91 2034 -91 
Q 1263 -91 848 271 
Q 434 634 434 1313 
Q 434 1759 690 2068 
Q 947 2378 1403 2484 
z
M 1172 3481 
Q 1172 3119 1398 2916 
Q 1625 2713 2034 2713 
Q 2441 2713 2670 2916 
Q 2900 3119 2900 3481 
Q 2900 3844 2670 4047 
Q 2441 4250 2034 4250 
Q 1625 4250 1398 4047 
Q 1172 3844 1172 3481 
z
" transform="scale(0.015625)"/>
      </defs>
      <use xlink:href="#DejaVuSans-31"/>
      <use xlink:href="#DejaVuSans-38" x="63.623047"/>
      <use xlink:href="#DejaVuSans-30" x="127.246094"/>
     </g>
    </g>
    <g id="line2d_26">
     <path d="M 320.28245 148.9775 
L 336.28245 148.9775 
L 352.28245 148.9775 
" style="fill: none; stroke: #d62728; stroke-opacity: 0.9; stroke-width: 3; stroke-linecap: square"/>
    </g>
    <g id="text_16">
     <!-- 240 -->
     <g transform="translate(365.08245 154.5775) scale(0.16 -0.16)">
      <use xlink:href="#DejaVuSans-32"/>
      <use xlink:href="#DejaVuSans-34" x="63.623047"/>
      <use xlink:href="#DejaVuSans-30" x="127.246094"/>
     </g>
    </g>
    <g id="line2d_27">
     <path d="M 320.28245 172.4625 
L 336.28245 172.4625 
L 352.28245 172.4625 
" style="fill: none; stroke: #9467bd; stroke-opacity: 0.9; stroke-width: 3; stroke-linecap: square"/>
    </g>
    <g id="text_17">
     <!-- 300 -->
     <g transform="translate(365.08245 178.0625) scale(0.16 -0.16)">
      <defs>
       <path id="DejaVuSans-33" d="M 2597 2516 
Q 3050 2419 3304 2112 
Q 3559 1806 3559 1356 
Q 3559 666 3084 287 
Q 2609 -91 1734 -91 
Q 1441 -91 1130 -33 
Q 819 25 488 141 
L 488 750 
Q 750 597 1062 519 
Q 1375 441 1716 441 
Q 2309 441 2620 675 
Q 2931 909 2931 1356 
Q 2931 1769 2642 2001 
Q 2353 2234 1838 2234 
L 1294 2234 
L 1294 2753 
L 1863 2753 
Q 2328 2753 2575 2939 
Q 2822 3125 2822 3475 
Q 2822 3834 2567 4026 
Q 2313 4219 1838 4219 
Q 1578 4219 1281 4162 
Q 984 4106 628 3988 
L 628 4550 
Q 988 4650 1302 4700 
Q 1616 4750 1894 4750 
Q 2613 4750 3031 4423 
Q 3450 4097 3450 3541 
Q 3450 3153 3228 2886 
Q 3006 2619 2597 2516 
z
" transform="scale(0.015625)"/>
      </defs>
      <use xlink:href="#DejaVuSans-33"/>
      <use xlink:href="#DejaVuSans-30" x="63.623047"/>
      <use xlink:href="#DejaVuSans-30" x="127.246094"/>
     </g>
    </g>
    <g id="line2d_28">
     <path d="M 320.28245 195.9475 
L 336.28245 195.9475 
L 352.28245 195.9475 
" style="fill: none; stroke: #8c564b; stroke-opacity: 0.9; stroke-width: 3; stroke-linecap: square"/>
    </g>
    <g id="text_18">
     <!-- 360 -->
     <g transform="translate(365.08245 201.5475) scale(0.16 -0.16)">
      <use xlink:href="#DejaVuSans-33"/>
      <use xlink:href="#DejaVuSans-36" x="63.623047"/>
      <use xlink:href="#DejaVuSans-30" x="127.246094"/>
     </g>
    </g>
    <g id="line2d_29">
     <path d="M 320.28245 219.4325 
L 336.28245 219.4325 
L 352.28245 219.4325 
" style="fill: none; stroke: #e377c2; stroke-opacity: 0.9; stroke-width: 3; stroke-linecap: square"/>
    </g>
    <g id="text_19">
     <!-- 420 -->
     <g transform="translate(365.08245 225.0325) scale(0.16 -0.16)">
      <use xlink:href="#DejaVuSans-34"/>
      <use xlink:href="#DejaVuSans-32" x="63.623047"/>
      <use xlink:href="#DejaVuSans-30" x="127.246094"/>
     </g>
    </g>
    <g id="line2d_30">
     <path d="M 320.28245 242.9175 
L 336.28245 242.9175 
L 352.28245 242.9175 
" style="fill: none; stroke: #7f7f7f; stroke-opacity: 0.9; stroke-width: 3; stroke-linecap: square"/>
    </g>
    <g id="text_20">
     <!-- 480 -->
     <g transform="translate(365.08245 248.5175) scale(0.16 -0.16)">
      <use xlink:href="#DejaVuSans-34"/>
      <use xlink:href="#DejaVuSans-38" x="63.623047"/>
      <use xlink:href="#DejaVuSans-30" x="127.246094"/>
     </g>
    </g>
    <g id="line2d_31">
     <path d="M 320.28245 266.4025 
L 336.28245 266.4025 
L 352.28245 266.4025 
" style="fill: none; stroke: #bcbd22; stroke-opacity: 0.9; stroke-width: 3; stroke-linecap: square"/>
    </g>
    <g id="text_21">
     <!-- 540 -->
     <g transform="translate(365.08245 272.0025) scale(0.16 -0.16)">
      <use xlink:href="#DejaVuSans-35"/>
      <use xlink:href="#DejaVuSans-34" x="63.623047"/>
      <use xlink:href="#DejaVuSans-30" x="127.246094"/>
     </g>
    </g>
    <g id="line2d_32">
     <path d="M 320.28245 289.8875 
L 336.28245 289.8875 
L 352.28245 289.8875 
" style="fill: none; stroke: #17becf; stroke-opacity: 0.9; stroke-width: 3; stroke-linecap: square"/>
    </g>
    <g id="text_22">
     <!-- 600 -->
     <g transform="translate(365.08245 295.4875) scale(0.16 -0.16)">
      <use xlink:href="#DejaVuSans-36"/>
      <use xlink:href="#DejaVuSans-30" x="63.623047"/>
      <use xlink:href="#DejaVuSans-30" x="127.246094"/>
     </g>
    </g>
   </g>
  </g>
 </g>
 <defs>
  <clipPath id="pb06ce515e9">
   <rect x="62.39" y="34.08" width="200.094" height="252.28"/>
  </clipPath>
 </defs>
</svg>
