<?xml version="1.0" encoding="utf-8" standalone="no"?>
<!DOCTYPE svg PUBLIC "-//W3C//DTD SVG 1.1//EN"
  "http://www.w3.org/Graphics/SVG/1.1/DTD/svg11.dtd">
<svg xmlns:xlink="http://www.w3.org/1999/xlink" width="460.8pt" height="345.6pt" viewBox="0 0 460.8 345.6" xmlns="http://www.w3.org/2000/svg" version="1.1">
 <metadata>
  <rdf:RDF xmlns:dc="http://purl.org/dc/elements/1.1/" xmlns:cc="http://creativecommons.org/ns#" xmlns:rdf="http://www.w3.org/1999/02/22-rdf-syntax-ns#">
   <cc:Work>
    <dc:type rdf:resource="http://purl.org/dc/dcmitype/StillImage"/>
    <dc:date>2023-03-17T16:26:48.848957</dc:date>
    <dc:format>image/svg+xml</dc:format>
    <dc:creator>
     <cc:Agent>
      <dc:title>Matplotlib v3.6.2, https://matplotlib.org/</dc:title>
     </cc:Agent>
    </dc:creator>
   </cc:Work>
  </rdf:RDF>
 </metadata>
 <defs>
  <style type="text/css">*{stroke-linejoin: round; stroke-linecap: butt}</style>
 </defs>
 <g id="figure_1">
  <g id="patch_1">
   <path d="M 0 345.6 
L 460.8 345.6 
L 460.8 0 
L 0 0 
z
" style="fill: #ffffff"/>
  </g>
  <g id="axes_1">
   <g id="patch_2">
    <path d="M 48.17 297.16 
L 450 297.16 
L 450 27.6 
L 48.17 27.6 
z
" style="fill: #ffffff"/>
   </g>
   <g id="matplotlib.axis_1">
    <g id="xtick_1">
     <g id="line2d_1">
      <defs>
       <path id="m88babf54db" d="M 0 0 
L 0 3.5 
" style="stroke: #000000; stroke-width: 0.8"/>
      </defs>
      <g>
       <use xlink:href="#m88babf54db" x="66.435" y="297.16" style="stroke: #000000; stroke-width: 0.8"/>
      </g>
     </g>
     <g id="text_1">
      <!-- 0 -->
      <g transform="translate(63.25375 311.758438) scale(0.1 -0.1)">
       <defs>
        <path id="DejaVuSans-30" d="M 2034 4250 
Q 1547 4250 1301 3770 
Q 1056 3291 1056 2328 
Q 1056 1369 1301 889 
Q 1547 409 2034 409 
Q 2525 409 2770 889 
Q 3016 1369 3016 2328 
Q 3016 3291 2770 3770 
Q 2525 4250 2034 4250 
z
M 2034 4750 
Q 2819 4750 3233 4129 
Q 3647 3509 3647 2328 
Q 3647 1150 3233 529 
Q 2819 -91 2034 -91 
Q 1250 -91 836 529 
Q 422 1150 422 2328 
Q 422 3509 836 4129 
Q 1250 4750 2034 4750 
z
" transform="scale(0.015625)"/>
       </defs>
       <use xlink:href="#DejaVuSans-30"/>
      </g>
     </g>
    </g>
    <g id="xtick_2">
     <g id="line2d_2">
      <g>
       <use xlink:href="#m88babf54db" x="127.829958" y="297.16" style="stroke: #000000; stroke-width: 0.8"/>
      </g>
     </g>
     <g id="text_2">
      <!-- 100 -->
      <g transform="translate(118.286208 311.758438) scale(0.1 -0.1)">
       <defs>
        <path id="DejaVuSans-31" d="M 794 531 
L 1825 531 
L 1825 4091 
L 703 3866 
L 703 4441 
L 1819 4666 
L 2450 4666 
L 2450 531 
L 3481 531 
L 3481 0 
L 794 0 
L 794 531 
z
" transform="scale(0.015625)"/>
       </defs>
       <use xlink:href="#DejaVuSans-31"/>
       <use xlink:href="#DejaVuSans-30" x="63.623047"/>
       <use xlink:href="#DejaVuSans-30" x="127.246094"/>
      </g>
     </g>
    </g>
    <g id="xtick_3">
     <g id="line2d_3">
      <g>
       <use xlink:href="#m88babf54db" x="189.224916" y="297.16" style="stroke: #000000; stroke-width: 0.8"/>
      </g>
     </g>
     <g id="text_3">
      <!-- 200 -->
      <g transform="translate(179.681166 311.758438) scale(0.1 -0.1)">
       <defs>
        <path id="DejaVuSans-32" d="M 1228 531 
L 3431 531 
L 3431 0 
L 469 0 
L 469 531 
Q 828 903 1448 1529 
Q 2069 2156 2228 2338 
Q 2531 2678 2651 2914 
Q 2772 3150 2772 3378 
Q 2772 3750 2511 3984 
Q 2250 4219 1831 4219 
Q 1534 4219 1204 4116 
Q 875 4013 500 3803 
L 500 4441 
Q 881 4594 1212 4672 
Q 1544 4750 1819 4750 
Q 2544 4750 2975 4387 
Q 3406 4025 3406 3419 
Q 3406 3131 3298 2873 
Q 3191 2616 2906 2266 
Q 2828 2175 2409 1742 
Q 1991 1309 1228 531 
z
" transform="scale(0.015625)"/>
       </defs>
       <use xlink:href="#DejaVuSans-32"/>
       <use xlink:href="#DejaVuSans-30" x="63.623047"/>
       <use xlink:href="#DejaVuSans-30" x="127.246094"/>
      </g>
     </g>
    </g>
    <g id="xtick_4">
     <g id="line2d_4">
      <g>
       <use xlink:href="#m88babf54db" x="250.619874" y="297.16" style="stroke: #000000; stroke-width: 0.8"/>
      </g>
     </g>
     <g id="text_4">
      <!-- 300 -->
      <g transform="translate(241.076124 311.758438) scale(0.1 -0.1)">
       <defs>
        <path id="DejaVuSans-33" d="M 2597 2516 
Q 3050 2419 3304 2112 
Q 3559 1806 3559 1356 
Q 3559 666 3084 287 
Q 2609 -91 1734 -91 
Q 1441 -91 1130 -33 
Q 819 25 488 141 
L 488 750 
Q 750 597 1062 519 
Q 1375 441 1716 441 
Q 2309 441 2620 675 
Q 2931 909 2931 1356 
Q 2931 1769 2642 2001 
Q 2353 2234 1838 2234 
L 1294 2234 
L 1294 2753 
L 1863 2753 
Q 2328 2753 2575 2939 
Q 2822 3125 2822 3475 
Q 2822 3834 2567 4026 
Q 2313 4219 1838 4219 
Q 1578 4219 1281 4162 
Q 984 4106 628 3988 
L 628 4550 
Q 988 4650 1302 4700 
Q 1616 4750 1894 4750 
Q 2613 4750 3031 4423 
Q 3450 4097 3450 3541 
Q 3450 3153 3228 2886 
Q 3006 2619 2597 2516 
z
" transform="scale(0.015625)"/>
       </defs>
       <use xlink:href="#DejaVuSans-33"/>
       <use xlink:href="#DejaVuSans-30" x="63.623047"/>
       <use xlink:href="#DejaVuSans-30" x="127.246094"/>
      </g>
     </g>
    </g>
    <g id="xtick_5">
     <g id="line2d_5">
      <g>
       <use xlink:href="#m88babf54db" x="312.014832" y="297.16" style="stroke: #000000; stroke-width: 0.8"/>
      </g>
     </g>
     <g id="text_5">
      <!-- 400 -->
      <g transform="translate(302.471082 311.758438) scale(0.1 -0.1)">
       <defs>
        <path id="DejaVuSans-34" d="M 2419 4116 
L 825 1625 
L 2419 1625 
L 2419 4116 
z
M 2253 4666 
L 3047 4666 
L 3047 1625 
L 3713 1625 
L 3713 1100 
L 3047 1100 
L 3047 0 
L 2419 0 
L 2419 1100 
L 313 1100 
L 313 1709 
L 2253 4666 
z
" transform="scale(0.015625)"/>
       </defs>
       <use xlink:href="#DejaVuSans-34"/>
       <use xlink:href="#DejaVuSans-30" x="63.623047"/>
       <use xlink:href="#DejaVuSans-30" x="127.246094"/>
      </g>
     </g>
    </g>
    <g id="xtick_6">
     <g id="line2d_6">
      <g>
       <use xlink:href="#m88babf54db" x="373.40979" y="297.16" style="stroke: #000000; stroke-width: 0.8"/>
      </g>
     </g>
     <g id="text_6">
      <!-- 500 -->
      <g transform="translate(363.86604 311.758438) scale(0.1 -0.1)">
       <defs>
        <path id="DejaVuSans-35" d="M 691 4666 
L 3169 4666 
L 3169 4134 
L 1269 4134 
L 1269 2991 
Q 1406 3038 1543 3061 
Q 1681 3084 1819 3084 
Q 2600 3084 3056 2656 
Q 3513 2228 3513 1497 
Q 3513 744 3044 326 
Q 2575 -91 1722 -91 
Q 1428 -91 1123 -41 
Q 819 9 494 109 
L 494 744 
Q 775 591 1075 516 
Q 1375 441 1709 441 
Q 2250 441 2565 725 
Q 2881 1009 2881 1497 
Q 2881 1984 2565 2268 
Q 2250 2553 1709 2553 
Q 1456 2553 1204 2497 
Q 953 2441 691 2322 
L 691 4666 
z
" transform="scale(0.015625)"/>
       </defs>
       <use xlink:href="#DejaVuSans-35"/>
       <use xlink:href="#DejaVuSans-30" x="63.623047"/>
       <use xlink:href="#DejaVuSans-30" x="127.246094"/>
      </g>
     </g>
    </g>
    <g id="xtick_7">
     <g id="line2d_7">
      <g>
       <use xlink:href="#m88babf54db" x="434.804748" y="297.16" style="stroke: #000000; stroke-width: 0.8"/>
      </g>
     </g>
     <g id="text_7">
      <!-- 600 -->
      <g transform="translate(425.260998 311.758438) scale(0.1 -0.1)">
       <defs>
        <path id="DejaVuSans-36" d="M 2113 2584 
Q 1688 2584 1439 2293 
Q 1191 2003 1191 1497 
Q 1191 994 1439 701 
Q 1688 409 2113 409 
Q 2538 409 2786 701 
Q 3034 994 3034 1497 
Q 3034 2003 2786 2293 
Q 2538 2584 2113 2584 
z
M 3366 4563 
L 3366 3988 
Q 3128 4100 2886 4159 
Q 2644 4219 2406 4219 
Q 1781 4219 1451 3797 
Q 1122 3375 1075 2522 
Q 1259 2794 1537 2939 
Q 1816 3084 2150 3084 
Q 2853 3084 3261 2657 
Q 3669 2231 3669 1497 
Q 3669 778 3244 343 
Q 2819 -91 2113 -91 
Q 1303 -91 875 529 
Q 447 1150 447 2328 
Q 447 3434 972 4092 
Q 1497 4750 2381 4750 
Q 2619 4750 2861 4703 
Q 3103 4656 3366 4563 
z
" transform="scale(0.015625)"/>
       </defs>
       <use xlink:href="#DejaVuSans-36"/>
       <use xlink:href="#DejaVuSans-30" x="63.623047"/>
       <use xlink:href="#DejaVuSans-30" x="127.246094"/>
      </g>
     </g>
    </g>
    <g id="text_8">
     <!-- Distance from Center $(\mu m)$ -->
     <g transform="translate(155.005 328.478125) scale(0.14 -0.14)">
      <defs>
       <path id="DejaVuSans-44" d="M 1259 4147 
L 1259 519 
L 2022 519 
Q 2988 519 3436 956 
Q 3884 1394 3884 2338 
Q 3884 3275 3436 3711 
Q 2988 4147 2022 4147 
L 1259 4147 
z
M 628 4666 
L 1925 4666 
Q 3281 4666 3915 4102 
Q 4550 3538 4550 2338 
Q 4550 1131 3912 565 
Q 3275 0 1925 0 
L 628 0 
L 628 4666 
z
" transform="scale(0.015625)"/>
       <path id="DejaVuSans-69" d="M 603 3500 
L 1178 3500 
L 1178 0 
L 603 0 
L 603 3500 
z
M 603 4863 
L 1178 4863 
L 1178 4134 
L 603 4134 
L 603 4863 
z
" transform="scale(0.015625)"/>
       <path id="DejaVuSans-73" d="M 2834 3397 
L 2834 2853 
Q 2591 2978 2328 3040 
Q 2066 3103 1784 3103 
Q 1356 3103 1142 2972 
Q 928 2841 928 2578 
Q 928 2378 1081 2264 
Q 1234 2150 1697 2047 
L 1894 2003 
Q 2506 1872 2764 1633 
Q 3022 1394 3022 966 
Q 3022 478 2636 193 
Q 2250 -91 1575 -91 
Q 1294 -91 989 -36 
Q 684 19 347 128 
L 347 722 
Q 666 556 975 473 
Q 1284 391 1588 391 
Q 1994 391 2212 530 
Q 2431 669 2431 922 
Q 2431 1156 2273 1281 
Q 2116 1406 1581 1522 
L 1381 1569 
Q 847 1681 609 1914 
Q 372 2147 372 2553 
Q 372 3047 722 3315 
Q 1072 3584 1716 3584 
Q 2034 3584 2315 3537 
Q 2597 3491 2834 3397 
z
" transform="scale(0.015625)"/>
       <path id="DejaVuSans-74" d="M 1172 4494 
L 1172 3500 
L 2356 3500 
L 2356 3053 
L 1172 3053 
L 1172 1153 
Q 1172 725 1289 603 
Q 1406 481 1766 481 
L 2356 481 
L 2356 0 
L 1766 0 
Q 1100 0 847 248 
Q 594 497 594 1153 
L 594 3053 
L 172 3053 
L 172 3500 
L 594 3500 
L 594 4494 
L 1172 4494 
z
" transform="scale(0.015625)"/>
       <path id="DejaVuSans-61" d="M 2194 1759 
Q 1497 1759 1228 1600 
Q 959 1441 959 1056 
Q 959 750 1161 570 
Q 1363 391 1709 391 
Q 2188 391 2477 730 
Q 2766 1069 2766 1631 
L 2766 1759 
L 2194 1759 
z
M 3341 1997 
L 3341 0 
L 2766 0 
L 2766 531 
Q 2569 213 2275 61 
Q 1981 -91 1556 -91 
Q 1019 -91 701 211 
Q 384 513 384 1019 
Q 384 1609 779 1909 
Q 1175 2209 1959 2209 
L 2766 2209 
L 2766 2266 
Q 2766 2663 2505 2880 
Q 2244 3097 1772 3097 
Q 1472 3097 1187 3025 
Q 903 2953 641 2809 
L 641 3341 
Q 956 3463 1253 3523 
Q 1550 3584 1831 3584 
Q 2591 3584 2966 3190 
Q 3341 2797 3341 1997 
z
" transform="scale(0.015625)"/>
       <path id="DejaVuSans-6e" d="M 3513 2113 
L 3513 0 
L 2938 0 
L 2938 2094 
Q 2938 2591 2744 2837 
Q 2550 3084 2163 3084 
Q 1697 3084 1428 2787 
Q 1159 2491 1159 1978 
L 1159 0 
L 581 0 
L 581 3500 
L 1159 3500 
L 1159 2956 
Q 1366 3272 1645 3428 
Q 1925 3584 2291 3584 
Q 2894 3584 3203 3211 
Q 3513 2838 3513 2113 
z
" transform="scale(0.015625)"/>
       <path id="DejaVuSans-63" d="M 3122 3366 
L 3122 2828 
Q 2878 2963 2633 3030 
Q 2388 3097 2138 3097 
Q 1578 3097 1268 2742 
Q 959 2388 959 1747 
Q 959 1106 1268 751 
Q 1578 397 2138 397 
Q 2388 397 2633 464 
Q 2878 531 3122 666 
L 3122 134 
Q 2881 22 2623 -34 
Q 2366 -91 2075 -91 
Q 1284 -91 818 406 
Q 353 903 353 1747 
Q 353 2603 823 3093 
Q 1294 3584 2113 3584 
Q 2378 3584 2631 3529 
Q 2884 3475 3122 3366 
z
" transform="scale(0.015625)"/>
       <path id="DejaVuSans-65" d="M 3597 1894 
L 3597 1613 
L 953 1613 
Q 991 1019 1311 708 
Q 1631 397 2203 397 
Q 2534 397 2845 478 
Q 3156 559 3463 722 
L 3463 178 
Q 3153 47 2828 -22 
Q 2503 -91 2169 -91 
Q 1331 -91 842 396 
Q 353 884 353 1716 
Q 353 2575 817 3079 
Q 1281 3584 2069 3584 
Q 2775 3584 3186 3129 
Q 3597 2675 3597 1894 
z
M 3022 2063 
Q 3016 2534 2758 2815 
Q 2500 3097 2075 3097 
Q 1594 3097 1305 2825 
Q 1016 2553 972 2059 
L 3022 2063 
z
" transform="scale(0.015625)"/>
       <path id="DejaVuSans-20" transform="scale(0.015625)"/>
       <path id="DejaVuSans-66" d="M 2375 4863 
L 2375 4384 
L 1825 4384 
Q 1516 4384 1395 4259 
Q 1275 4134 1275 3809 
L 1275 3500 
L 2222 3500 
L 2222 3053 
L 1275 3053 
L 1275 0 
L 697 0 
L 697 3053 
L 147 3053 
L 147 3500 
L 697 3500 
L 697 3744 
Q 697 4328 969 4595 
Q 1241 4863 1831 4863 
L 2375 4863 
z
" transform="scale(0.015625)"/>
       <path id="DejaVuSans-72" d="M 2631 2963 
Q 2534 3019 2420 3045 
Q 2306 3072 2169 3072 
Q 1681 3072 1420 2755 
Q 1159 2438 1159 1844 
L 1159 0 
L 581 0 
L 581 3500 
L 1159 3500 
L 1159 2956 
Q 1341 3275 1631 3429 
Q 1922 3584 2338 3584 
Q 2397 3584 2469 3576 
Q 2541 3569 2628 3553 
L 2631 2963 
z
" transform="scale(0.015625)"/>
       <path id="DejaVuSans-6f" d="M 1959 3097 
Q 1497 3097 1228 2736 
Q 959 2375 959 1747 
Q 959 1119 1226 758 
Q 1494 397 1959 397 
Q 2419 397 2687 759 
Q 2956 1122 2956 1747 
Q 2956 2369 2687 2733 
Q 2419 3097 1959 3097 
z
M 1959 3584 
Q 2709 3584 3137 3096 
Q 3566 2609 3566 1747 
Q 3566 888 3137 398 
Q 2709 -91 1959 -91 
Q 1206 -91 779 398 
Q 353 888 353 1747 
Q 353 2609 779 3096 
Q 1206 3584 1959 3584 
z
" transform="scale(0.015625)"/>
       <path id="DejaVuSans-6d" d="M 3328 2828 
Q 3544 3216 3844 3400 
Q 4144 3584 4550 3584 
Q 5097 3584 5394 3201 
Q 5691 2819 5691 2113 
L 5691 0 
L 5113 0 
L 5113 2094 
Q 5113 2597 4934 2840 
Q 4756 3084 4391 3084 
Q 3944 3084 3684 2787 
Q 3425 2491 3425 1978 
L 3425 0 
L 2847 0 
L 2847 2094 
Q 2847 2600 2669 2842 
Q 2491 3084 2119 3084 
Q 1678 3084 1418 2786 
Q 1159 2488 1159 1978 
L 1159 0 
L 581 0 
L 581 3500 
L 1159 3500 
L 1159 2956 
Q 1356 3278 1631 3431 
Q 1906 3584 2284 3584 
Q 2666 3584 2933 3390 
Q 3200 3197 3328 2828 
z
" transform="scale(0.015625)"/>
       <path id="DejaVuSans-43" d="M 4122 4306 
L 4122 3641 
Q 3803 3938 3442 4084 
Q 3081 4231 2675 4231 
Q 1875 4231 1450 3742 
Q 1025 3253 1025 2328 
Q 1025 1406 1450 917 
Q 1875 428 2675 428 
Q 3081 428 3442 575 
Q 3803 722 4122 1019 
L 4122 359 
Q 3791 134 3420 21 
Q 3050 -91 2638 -91 
Q 1578 -91 968 557 
Q 359 1206 359 2328 
Q 359 3453 968 4101 
Q 1578 4750 2638 4750 
Q 3056 4750 3426 4639 
Q 3797 4528 4122 4306 
z
" transform="scale(0.015625)"/>
       <path id="DejaVuSans-28" d="M 1984 4856 
Q 1566 4138 1362 3434 
Q 1159 2731 1159 2009 
Q 1159 1288 1364 580 
Q 1569 -128 1984 -844 
L 1484 -844 
Q 1016 -109 783 600 
Q 550 1309 550 2009 
Q 550 2706 781 3412 
Q 1013 4119 1484 4856 
L 1984 4856 
z
" transform="scale(0.015625)"/>
       <path id="DejaVuSans-Oblique-3bc" d="M -84 -1331 
L 856 3500 
L 1434 3500 
L 1009 1322 
Q 997 1256 987 1175 
Q 978 1094 978 1013 
Q 978 722 1161 565 
Q 1344 409 1684 409 
Q 2147 409 2431 671 
Q 2716 934 2816 1459 
L 3213 3500 
L 3788 3500 
L 3266 809 
Q 3253 750 3248 706 
Q 3244 663 3244 628 
Q 3244 531 3283 486 
Q 3322 441 3406 441 
Q 3438 441 3492 456 
Q 3547 472 3647 513 
L 3559 50 
Q 3422 -19 3297 -55 
Q 3172 -91 3053 -91 
Q 2847 -91 2730 40 
Q 2613 172 2613 403 
Q 2438 153 2195 31 
Q 1953 -91 1625 -91 
Q 1334 -91 1117 43 
Q 900 178 831 397 
L 494 -1331 
L -84 -1331 
z
" transform="scale(0.015625)"/>
       <path id="DejaVuSans-Oblique-6d" d="M 5747 2113 
L 5338 0 
L 4763 0 
L 5166 2094 
Q 5191 2228 5203 2325 
Q 5216 2422 5216 2491 
Q 5216 2772 5059 2928 
Q 4903 3084 4622 3084 
Q 4203 3084 3875 2770 
Q 3547 2456 3450 1953 
L 3066 0 
L 2491 0 
L 2900 2094 
Q 2925 2209 2937 2307 
Q 2950 2406 2950 2484 
Q 2950 2769 2794 2926 
Q 2638 3084 2363 3084 
Q 1938 3084 1609 2770 
Q 1281 2456 1184 1953 
L 800 0 
L 225 0 
L 909 3500 
L 1484 3500 
L 1375 2956 
Q 1609 3263 1923 3423 
Q 2238 3584 2597 3584 
Q 2978 3584 3223 3384 
Q 3469 3184 3519 2828 
Q 3781 3197 4126 3390 
Q 4472 3584 4856 3584 
Q 5306 3584 5551 3325 
Q 5797 3066 5797 2591 
Q 5797 2488 5784 2364 
Q 5772 2241 5747 2113 
z
" transform="scale(0.015625)"/>
       <path id="DejaVuSans-29" d="M 513 4856 
L 1013 4856 
Q 1481 4119 1714 3412 
Q 1947 2706 1947 2009 
Q 1947 1309 1714 600 
Q 1481 -109 1013 -844 
L 513 -844 
Q 928 -128 1133 580 
Q 1338 1288 1338 2009 
Q 1338 2731 1133 3434 
Q 928 4138 513 4856 
z
" transform="scale(0.015625)"/>
      </defs>
      <use xlink:href="#DejaVuSans-44" transform="translate(0 0.015625)"/>
      <use xlink:href="#DejaVuSans-69" transform="translate(77.001953 0.015625)"/>
      <use xlink:href="#DejaVuSans-73" transform="translate(104.785156 0.015625)"/>
      <use xlink:href="#DejaVuSans-74" transform="translate(156.884766 0.015625)"/>
      <use xlink:href="#DejaVuSans-61" transform="translate(196.09375 0.015625)"/>
      <use xlink:href="#DejaVuSans-6e" transform="translate(257.373047 0.015625)"/>
      <use xlink:href="#DejaVuSans-63" transform="translate(320.751953 0.015625)"/>
      <use xlink:href="#DejaVuSans-65" transform="translate(375.732422 0.015625)"/>
      <use xlink:href="#DejaVuSans-20" transform="translate(437.255859 0.015625)"/>
      <use xlink:href="#DejaVuSans-66" transform="translate(469.042969 0.015625)"/>
      <use xlink:href="#DejaVuSans-72" transform="translate(504.248047 0.015625)"/>
      <use xlink:href="#DejaVuSans-6f" transform="translate(545.361328 0.015625)"/>
      <use xlink:href="#DejaVuSans-6d" transform="translate(606.542969 0.015625)"/>
      <use xlink:href="#DejaVuSans-20" transform="translate(703.955078 0.015625)"/>
      <use xlink:href="#DejaVuSans-43" transform="translate(735.742188 0.015625)"/>
      <use xlink:href="#DejaVuSans-65" transform="translate(805.566406 0.015625)"/>
      <use xlink:href="#DejaVuSans-6e" transform="translate(867.089844 0.015625)"/>
      <use xlink:href="#DejaVuSans-74" transform="translate(930.46875 0.015625)"/>
      <use xlink:href="#DejaVuSans-65" transform="translate(969.677734 0.015625)"/>
      <use xlink:href="#DejaVuSans-72" transform="translate(1031.201172 0.015625)"/>
      <use xlink:href="#DejaVuSans-20" transform="translate(1072.314453 0.015625)"/>
      <use xlink:href="#DejaVuSans-28" transform="translate(1104.101562 0.015625)"/>
      <use xlink:href="#DejaVuSans-Oblique-3bc" transform="translate(1143.115234 0.015625)"/>
      <use xlink:href="#DejaVuSans-Oblique-6d" transform="translate(1206.738281 0.015625)"/>
      <use xlink:href="#DejaVuSans-29" transform="translate(1304.150391 0.015625)"/>
     </g>
    </g>
   </g>
   <g id="matplotlib.axis_2">
    <g id="ytick_1">
     <g id="line2d_8">
      <path d="M 48.17 289.51742 
L 450 289.51742 
" clip-path="url(#pd304f88fec)" style="fill: none; stroke: #f2f2f2; stroke-width: 0.8; stroke-linecap: square"/>
     </g>
     <g id="line2d_9">
      <defs>
       <path id="md23eea47af" d="M 0 0 
L -3.5 0 
" style="stroke: #000000; stroke-width: 0.8"/>
      </defs>
      <g>
       <use xlink:href="#md23eea47af" x="48.17" y="289.51742" style="stroke: #000000; stroke-width: 0.8"/>
      </g>
     </g>
     <g id="text_9">
      <!-- 2 -->
      <g transform="translate(34.8075 293.316638) scale(0.1 -0.1)">
       <use xlink:href="#DejaVuSans-32"/>
      </g>
     </g>
    </g>
    <g id="ytick_2">
     <g id="line2d_10">
      <path d="M 48.17 234.373172 
L 450 234.373172 
" clip-path="url(#pd304f88fec)" style="fill: none; stroke: #f2f2f2; stroke-width: 0.8; stroke-linecap: square"/>
     </g>
     <g id="line2d_11">
      <g>
       <use xlink:href="#md23eea47af" x="48.17" y="234.373172" style="stroke: #000000; stroke-width: 0.8"/>
      </g>
     </g>
     <g id="text_10">
      <!-- 4 -->
      <g transform="translate(34.8075 238.172391) scale(0.1 -0.1)">
       <use xlink:href="#DejaVuSans-34"/>
      </g>
     </g>
    </g>
    <g id="ytick_3">
     <g id="line2d_12">
      <path d="M 48.17 179.228925 
L 450 179.228925 
" clip-path="url(#pd304f88fec)" style="fill: none; stroke: #f2f2f2; stroke-width: 0.8; stroke-linecap: square"/>
     </g>
     <g id="line2d_13">
      <g>
       <use xlink:href="#md23eea47af" x="48.17" y="179.228925" style="stroke: #000000; stroke-width: 0.8"/>
      </g>
     </g>
     <g id="text_11">
      <!-- 6 -->
      <g transform="translate(34.8075 183.028143) scale(0.1 -0.1)">
       <use xlink:href="#DejaVuSans-36"/>
      </g>
     </g>
    </g>
    <g id="ytick_4">
     <g id="line2d_14">
      <path d="M 48.17 124.084677 
L 450 124.084677 
" clip-path="url(#pd304f88fec)" style="fill: none; stroke: #f2f2f2; stroke-width: 0.8; stroke-linecap: square"/>
     </g>
     <g id="line2d_15">
      <g>
       <use xlink:href="#md23eea47af" x="48.17" y="124.084677" style="stroke: #000000; stroke-width: 0.8"/>
      </g>
     </g>
     <g id="text_12">
      <!-- 8 -->
      <g transform="translate(34.8075 127.883896) scale(0.1 -0.1)">
       <defs>
        <path id="DejaVuSans-38" d="M 2034 2216 
Q 1584 2216 1326 1975 
Q 1069 1734 1069 1313 
Q 1069 891 1326 650 
Q 1584 409 2034 409 
Q 2484 409 2743 651 
Q 3003 894 3003 1313 
Q 3003 1734 2745 1975 
Q 2488 2216 2034 2216 
z
M 1403 2484 
Q 997 2584 770 2862 
Q 544 3141 544 3541 
Q 544 4100 942 4425 
Q 1341 4750 2034 4750 
Q 2731 4750 3128 4425 
Q 3525 4100 3525 3541 
Q 3525 3141 3298 2862 
Q 3072 2584 2669 2484 
Q 3125 2378 3379 2068 
Q 3634 1759 3634 1313 
Q 3634 634 3220 271 
Q 2806 -91 2034 -91 
Q 1263 -91 848 271 
Q 434 634 434 1313 
Q 434 1759 690 2068 
Q 947 2378 1403 2484 
z
M 1172 3481 
Q 1172 3119 1398 2916 
Q 1625 2713 2034 2713 
Q 2441 2713 2670 2916 
Q 2900 3119 2900 3481 
Q 2900 3844 2670 4047 
Q 2441 4250 2034 4250 
Q 1625 4250 1398 4047 
Q 1172 3844 1172 3481 
z
" transform="scale(0.015625)"/>
       </defs>
       <use xlink:href="#DejaVuSans-38"/>
      </g>
     </g>
    </g>
    <g id="ytick_5">
     <g id="line2d_16">
      <path d="M 48.17 68.94043 
L 450 68.94043 
" clip-path="url(#pd304f88fec)" style="fill: none; stroke: #f2f2f2; stroke-width: 0.8; stroke-linecap: square"/>
     </g>
     <g id="line2d_17">
      <g>
       <use xlink:href="#md23eea47af" x="48.17" y="68.94043" style="stroke: #000000; stroke-width: 0.8"/>
      </g>
     </g>
     <g id="text_13">
      <!-- 10 -->
      <g transform="translate(28.445 72.739649) scale(0.1 -0.1)">
       <use xlink:href="#DejaVuSans-31"/>
       <use xlink:href="#DejaVuSans-30" x="63.623047"/>
      </g>
     </g>
    </g>
    <g id="text_14">
     <!-- Concentration (mM) -->
     <g transform="translate(21.533438 232.444531) rotate(-90) scale(0.14 -0.14)">
      <defs>
       <path id="DejaVuSans-4d" d="M 628 4666 
L 1569 4666 
L 2759 1491 
L 3956 4666 
L 4897 4666 
L 4897 0 
L 4281 0 
L 4281 4097 
L 3078 897 
L 2444 897 
L 1241 4097 
L 1241 0 
L 628 0 
L 628 4666 
z
" transform="scale(0.015625)"/>
      </defs>
      <use xlink:href="#DejaVuSans-43"/>
      <use xlink:href="#DejaVuSans-6f" x="69.824219"/>
      <use xlink:href="#DejaVuSans-6e" x="131.005859"/>
      <use xlink:href="#DejaVuSans-63" x="194.384766"/>
      <use xlink:href="#DejaVuSans-65" x="249.365234"/>
      <use xlink:href="#DejaVuSans-6e" x="310.888672"/>
      <use xlink:href="#DejaVuSans-74" x="374.267578"/>
      <use xlink:href="#DejaVuSans-72" x="413.476562"/>
      <use xlink:href="#DejaVuSans-61" x="454.589844"/>
      <use xlink:href="#DejaVuSans-74" x="515.869141"/>
      <use xlink:href="#DejaVuSans-69" x="555.078125"/>
      <use xlink:href="#DejaVuSans-6f" x="582.861328"/>
      <use xlink:href="#DejaVuSans-6e" x="644.042969"/>
      <use xlink:href="#DejaVuSans-20" x="707.421875"/>
      <use xlink:href="#DejaVuSans-28" x="739.208984"/>
      <use xlink:href="#DejaVuSans-6d" x="778.222656"/>
      <use xlink:href="#DejaVuSans-4d" x="875.634766"/>
      <use xlink:href="#DejaVuSans-29" x="961.914062"/>
     </g>
    </g>
   </g>
   <g id="line2d_18">
    <path d="M 66.435 45.572341 
L 70.732647 45.484765 
L 75.030294 45.221602 
L 79.327941 44.781786 
L 83.625588 44.163655 
L 87.923235 43.364934 
L 92.220882 42.382711 
L 96.518529 41.213405 
L 100.816176 39.852727 
" clip-path="url(#pd304f88fec)" style="fill: none; stroke: #1f77b4; stroke-opacity: 0.9; stroke-width: 3; stroke-linecap: square"/>
   </g>
   <g id="line2d_19">
    <path d="M 66.435 64.264436 
L 70.732647 64.186621 
L 75.030294 63.952824 
L 79.327941 63.562182 
L 83.625588 63.013348 
L 87.923235 62.304485 
L 92.220882 61.433244 
L 96.518529 60.396745 
L 100.816176 59.191549 
L 105.113824 57.813626 
L 109.411471 56.258313 
L 113.709118 54.520267 
L 118.006765 52.593407 
L 122.304412 50.470847 
L 126.602059 48.144814 
L 130.899706 45.606554 
L 135.197353 42.846219 
L 139.495 39.852727 
" clip-path="url(#pd304f88fec)" style="fill: none; stroke: #ff7f0e; stroke-opacity: 0.9; stroke-width: 3; stroke-linecap: square"/>
   </g>
   <g id="line2d_20">
    <path d="M 66.435 88.658637 
L 70.732647 88.592293 
L 75.030294 88.392998 
L 79.327941 88.060098 
L 83.625588 87.59258 
L 87.923235 86.989056 
L 92.220882 86.247757 
L 96.518529 85.36651 
L 100.816176 84.342723 
L 105.113824 83.173364 
L 109.411471 81.85493 
L 113.709118 80.38342 
L 118.006765 78.7543 
L 122.304412 76.962467 
L 126.602059 75.002201 
L 130.899706 72.867117 
L 135.197353 70.550101 
L 139.495 68.04324 
L 143.792647 65.337736 
L 148.090294 62.423799 
L 152.387941 59.290522 
L 156.685588 55.925733 
L 160.983235 52.315818 
L 165.280882 48.445504 
L 169.578529 44.297608 
L 173.876176 39.852727 
" clip-path="url(#pd304f88fec)" style="fill: none; stroke: #2ca02c; stroke-opacity: 0.9; stroke-width: 3; stroke-linecap: square"/>
   </g>
   <g id="line2d_21">
    <path d="M 66.435 120.747172 
L 70.732647 120.693544 
L 75.030294 120.532482 
L 79.327941 120.263556 
L 83.625588 119.886096 
L 87.923235 119.399188 
L 92.220882 118.801669 
L 96.518529 118.092118 
L 100.816176 117.268845 
L 105.113824 116.329883 
L 109.411471 115.272967 
L 113.709118 114.095523 
L 118.006765 112.794644 
L 122.304412 111.36707 
L 126.602059 109.809157 
L 130.899706 108.116846 
L 135.197353 106.285627 
L 139.495 104.310489 
L 143.792647 102.18587 
L 148.090294 99.905588 
L 152.387941 97.462764 
L 156.685588 94.849731 
L 160.983235 92.057938 
L 165.280882 89.077851 
L 169.578529 85.898877 
L 173.876176 82.509299 
L 178.173824 78.896217 
L 182.471471 75.04544 
L 186.769118 70.941313 
L 191.066765 66.566451 
L 195.364412 61.901398 
L 199.662059 56.924223 
L 203.959706 51.610038 
L 208.257353 45.930422 
L 212.555 39.852727 
" clip-path="url(#pd304f88fec)" style="fill: none; stroke: #d62728; stroke-opacity: 0.9; stroke-width: 3; stroke-linecap: square"/>
   </g>
   <g id="line2d_22">
    <path d="M 66.435 150.694969 
L 70.732647 150.651266 
L 75.030294 150.520033 
L 79.327941 150.300972 
L 83.625588 149.993615 
L 87.923235 149.597328 
L 92.220882 149.111304 
L 96.518529 148.534559 
L 100.816176 147.865929 
L 105.113824 147.104059 
L 109.411471 146.247398 
L 113.709118 145.294188 
L 118.006765 144.242456 
L 122.304412 143.089999 
L 126.602059 141.834373 
L 130.899706 140.472875 
L 135.197353 139.002523 
L 139.495 137.420043 
L 143.792647 135.721838 
L 148.090294 133.903965 
L 152.387941 131.962107 
L 156.685588 129.891536 
L 160.983235 127.687075 
L 165.280882 125.343054 
L 169.578529 122.853261 
L 173.876176 120.210877 
L 178.173824 117.408414 
L 182.471471 114.437627 
L 186.769118 111.289416 
L 191.066765 107.953702 
L 195.364412 104.419259 
L 199.662059 100.673501 
L 203.959706 96.702187 
L 208.257353 92.489102 
L 212.555 88.015826 
L 216.852647 83.261756 
L 221.150294 78.204267 
L 225.447941 72.818571 
L 229.745588 67.077128 
L 234.043235 60.94874 
L 238.340882 54.397531 
L 242.638529 47.381812 
L 246.936176 39.852727 
" clip-path="url(#pd304f88fec)" style="fill: none; stroke: #9467bd; stroke-opacity: 0.9; stroke-width: 3; stroke-linecap: square"/>
   </g>
   <g id="line2d_23">
    <path d="M 66.435 183.81294 
L 70.732647 183.778569 
L 75.030294 183.675373 
L 79.327941 183.503152 
L 83.625588 183.261596 
L 87.923235 182.95028 
L 92.220882 182.568669 
L 96.518529 182.116109 
L 100.816176 181.591829 
L 105.113824 180.994934 
L 109.411471 180.324401 
L 113.709118 179.579079 
L 118.006765 178.757677 
L 122.304412 177.858762 
L 126.602059 176.880749 
L 130.899706 175.821897 
L 135.197353 174.680297 
L 139.495 173.453861 
L 143.792647 172.140315 
L 148.090294 170.737183 
L 152.387941 169.241773 
L 156.685588 167.651162 
L 160.983235 165.962181 
L 165.280882 164.171388 
L 169.578529 162.275052 
L 173.876176 160.269127 
L 178.173824 158.14922 
L 182.471471 155.910563 
L 186.769118 153.547973 
L 191.066765 151.055814 
L 195.364412 148.427948 
L 199.662059 145.657682 
L 203.959706 142.737705 
L 208.257353 139.66002 
L 212.555 136.41586 
L 216.852647 132.995595 
L 221.150294 129.388618 
L 225.447941 125.58322 
L 229.745588 121.566434 
L 234.043235 117.323847 
L 238.340882 112.839374 
L 242.638529 108.094942 
L 246.936176 103.070029 
L 251.233824 97.740897 
L 255.531471 92.079501 
L 259.829118 86.052938 
L 264.126765 79.624497 
L 268.424412 72.754438 
L 272.722059 65.398536 
L 277.019706 57.505538 
L 281.317353 49.014625 
L 285.615 39.852727 
" clip-path="url(#pd304f88fec)" style="fill: none; stroke: #8c564b; stroke-opacity: 0.9; stroke-width: 3; stroke-linecap: square"/>
   </g>
   <g id="line2d_24">
    <path d="M 66.435 214.921293 
L 70.732647 214.894441 
L 75.030294 214.81383 
L 79.327941 214.679322 
L 83.625588 214.490707 
L 87.923235 214.247697 
L 92.220882 213.949929 
L 96.518529 213.596961 
L 100.816176 213.18827 
L 105.113824 212.723254 
L 109.411471 212.201225 
L 113.709118 211.621411 
L 118.006765 210.982948 
L 122.304412 210.284881 
L 126.602059 209.52616 
L 130.899706 208.705632 
L 135.197353 207.822041 
L 139.495 206.874021 
L 143.792647 205.860089 
L 148.090294 204.778641 
L 152.387941 203.627944 
L 156.685588 202.406129 
L 160.983235 201.111179 
L 165.280882 199.740924 
L 169.578529 198.293031 
L 173.876176 196.764984 
L 178.173824 195.154083 
L 182.471471 193.457419 
L 186.769118 191.671865 
L 191.066765 189.794053 
L 195.364412 187.820358 
L 199.662059 185.746874 
L 203.959706 183.569385 
L 208.257353 181.283344 
L 212.555 178.883834 
L 216.852647 176.365536 
L 221.150294 173.722686 
L 225.447941 170.949029 
L 229.745588 168.037764 
L 234.043235 164.981487 
L 238.340882 161.772118 
L 242.638529 158.400818 
L 246.936176 154.857902 
L 251.233824 151.132724 
L 255.531471 147.213555 
L 259.829118 143.087431 
L 264.126765 138.739977 
L 268.424412 134.155202 
L 272.722059 129.315247 
L 277.019706 124.200085 
L 281.317353 118.78716 
L 285.615 113.050921 
L 289.912647 106.962196 
L 294.210294 100.487067 
L 298.507941 93.584341 
L 302.805588 86.202892 
L 307.103235 78.284962 
L 311.400882 69.768939 
L 315.698529 60.584668 
L 319.996176 50.647439 
L 324.293824 39.852727 
" clip-path="url(#pd304f88fec)" style="fill: none; stroke: #e377c2; stroke-opacity: 0.9; stroke-width: 3; stroke-linecap: square"/>
   </g>
   <g id="line2d_25">
    <path d="M 66.435 240.194277 
L 70.732647 240.172857 
L 75.030294 240.108556 
L 79.327941 240.001275 
L 83.625588 239.850861 
L 87.923235 239.657105 
L 92.220882 239.419744 
L 96.518529 239.138457 
L 100.816176 238.812867 
L 105.113824 238.442538 
L 109.411471 238.026976 
L 113.709118 237.565623 
L 118.006765 237.057861 
L 122.304412 236.503006 
L 126.602059 235.900307 
L 130.899706 235.248945 
L 135.197353 234.548027 
L 139.495 233.796588 
L 143.792647 232.993582 
L 148.090294 232.137884 
L 152.387941 231.228282 
L 156.685588 230.263476 
L 160.983235 229.24207 
L 165.280882 228.16257 
L 169.578529 227.023374 
L 173.876176 225.822772 
L 178.173824 224.558934 
L 182.471471 223.229902 
L 186.769118 221.833589 
L 191.066765 220.367759 
L 195.364412 218.830026 
L 199.662059 217.217838 
L 203.959706 215.528466 
L 208.257353 213.758989 
L 212.555 211.906282 
L 216.852647 209.966996 
L 221.150294 207.937539 
L 225.447941 205.814056 
L 229.745588 203.592406 
L 234.043235 201.268134 
L 238.340882 198.836441 
L 242.638529 196.292153 
L 246.936176 193.629679 
L 251.233824 190.842971 
L 255.531471 187.925471 
L 259.829118 184.870061 
L 264.126765 181.668992 
L 268.424412 178.313816 
L 272.722059 174.795295 
L 277.019706 171.103308 
L 281.317353 167.226731 
L 285.615 163.153304 
L 289.912647 158.869475 
L 294.210294 154.360209 
L 298.507941 149.60877 
L 302.805588 144.59645 
L 307.103235 139.302252 
L 311.400882 133.702501 
L 315.698529 127.770368 
L 319.996176 121.475283 
L 324.293824 114.782208 
L 328.591471 107.650685 
L 332.889118 100.033235 
L 337.186765 91.869841 
L 341.484412 83.083098 
L 345.782059 73.58938 
L 350.079706 63.297983 
L 354.377353 52.098828 
L 358.675 39.852727 
" clip-path="url(#pd304f88fec)" style="fill: none; stroke: #7f7f7f; stroke-opacity: 0.9; stroke-width: 3; stroke-linecap: square"/>
   </g>
   <g id="line2d_26">
    <path d="M 66.435 265.485436 
L 70.732647 265.469035 
L 75.030294 265.419801 
L 79.327941 265.337665 
L 83.625588 265.222515 
L 87.923235 265.074202 
L 92.220882 264.892536 
L 96.518529 264.677288 
L 100.816176 264.428188 
L 105.113824 264.144924 
L 109.411471 263.827142 
L 113.709118 263.474446 
L 118.006765 263.086395 
L 122.304412 262.662505 
L 126.602059 262.202243 
L 130.899706 261.705029 
L 135.197353 261.170237 
L 139.495 260.597187 
L 143.792647 259.985149 
L 148.090294 259.333336 
L 152.387941 258.640908 
L 156.685588 257.906963 
L 160.983235 257.13054 
L 165.280882 256.310613 
L 169.578529 255.44609 
L 173.876176 254.535808 
L 178.173824 253.57853 
L 182.471471 252.572942 
L 186.769118 251.517647 
L 191.066765 250.411164 
L 195.364412 249.251917 
L 199.662059 248.038237 
L 203.959706 246.768348 
L 208.257353 245.440368 
L 212.555 244.052296 
L 216.852647 242.602008 
L 221.150294 241.087244 
L 225.447941 239.505605 
L 229.745588 237.854535 
L 234.043235 236.131315 
L 238.340882 234.333048 
L 242.638529 232.456644 
L 246.936176 230.498806 
L 251.233824 228.456012 
L 255.531471 226.324493 
L 259.829118 224.100215 
L 264.126765 221.778852 
L 268.424412 219.355758 
L 272.722059 216.825939 
L 277.019706 214.184016 
L 281.317353 211.424185 
L 285.615 208.540173 
L 289.912647 205.525188 
L 294.210294 202.371859 
L 298.507941 199.072171 
L 302.805588 195.617385 
L 307.103235 191.997954 
L 311.400882 188.203415 
L 315.698529 184.222273 
L 319.996176 180.041855 
L 324.293824 175.648153 
L 328.591471 171.025619 
L 332.889118 166.156936 
L 337.186765 161.022739 
L 341.484412 155.601276 
L 345.782059 149.867999 
L 350.079706 143.795061 
L 354.377353 137.350696 
L 358.675 130.498446 
L 362.972647 123.196183 
L 367.270294 115.394866 
L 371.567941 107.036932 
L 375.865588 98.054193 
L 380.163235 88.353733 
L 384.460882 77.817311 
L 388.758529 66.324403 
L 393.056176 53.731642 
L 397.353824 39.852727 
" clip-path="url(#pd304f88fec)" style="fill: none; stroke: #bcbd22; stroke-opacity: 0.9; stroke-width: 3; stroke-linecap: square"/>
   </g>
   <g id="line2d_27">
    <path d="M 66.435 284.907273 
L 70.732647 284.894585 
L 75.030294 284.856498 
L 79.327941 284.792958 
L 83.625588 284.703881 
L 87.923235 284.589152 
L 92.220882 284.448627 
L 96.518529 284.282131 
L 100.816176 284.089459 
L 105.113824 283.870372 
L 109.411471 283.624602 
L 113.709118 283.351847 
L 118.006765 283.051774 
L 122.304412 282.724014 
L 126.602059 282.368166 
L 130.899706 281.983792 
L 135.197353 281.570418 
L 139.495 281.127533 
L 143.792647 280.65459 
L 148.090294 280.150999 
L 152.387941 279.616131 
L 156.685588 279.049316 
L 160.983235 278.449838 
L 165.280882 277.816937 
L 169.578529 277.149806 
L 173.876176 276.447588 
L 178.173824 275.709378 
L 182.471471 274.934213 
L 186.769118 274.121078 
L 191.066765 273.268897 
L 195.364412 272.376535 
L 199.662059 271.442791 
L 203.959706 270.466397 
L 208.257353 269.446014 
L 212.555 268.380227 
L 216.852647 267.267542 
L 221.150294 266.10638 
L 225.447941 264.895073 
L 229.745588 263.63186 
L 234.043235 262.314877 
L 238.340882 260.942153 
L 242.638529 259.511604 
L 246.936176 258.021021 
L 251.233824 256.468066 
L 255.531471 254.850259 
L 259.829118 253.16497 
L 264.126765 251.409405 
L 268.424412 249.580595 
L 272.722059 247.675382 
L 277.019706 245.690401 
L 281.317353 243.622066 
L 285.615 241.466547 
L 289.912647 239.219751 
L 294.210294 236.877296 
L 298.507941 234.434484 
L 302.805588 231.886271 
L 307.103235 229.227233 
L 311.400882 226.451523 
L 315.698529 223.552832 
L 319.996176 220.524334 
L 324.293824 217.358629 
L 328.591471 214.04768 
L 332.889118 210.582731 
L 337.186765 206.954225 
L 341.484412 203.151697 
L 345.782059 199.163658 
L 350.079706 194.977451 
L 354.377353 190.579095 
L 358.675 185.953083 
L 362.972647 181.082155 
L 367.270294 175.947019 
L 371.567941 170.526021 
L 375.865588 164.794735 
L 380.163235 158.72547 
L 384.460882 152.286658 
L 388.758529 145.442088 
L 393.056176 138.149944 
L 397.353824 130.361584 
L 401.651471 122.019956 
L 405.949118 113.057531 
L 410.246765 103.393558 
L 414.544412 92.929832 
L 418.842059 81.514995 
L 423.139706 68.991873 
L 427.437353 55.183032 
L 431.735 39.852727 
" clip-path="url(#pd304f88fec)" style="fill: none; stroke: #17becf; stroke-opacity: 0.9; stroke-width: 3; stroke-linecap: square"/>
   </g>
   <g id="patch_3">
    <path d="M 48.17 297.16 
L 48.17 27.6 
" style="fill: none; stroke: #000000; stroke-width: 0.8; stroke-linejoin: miter; stroke-linecap: square"/>
   </g>
   <g id="patch_4">
    <path d="M 450 297.16 
L 450 27.6 
" style="fill: none; stroke: #000000; stroke-width: 0.8; stroke-linejoin: miter; stroke-linecap: square"/>
   </g>
   <g id="patch_5">
    <path d="M 48.17 297.16 
L 450 297.16 
" style="fill: none; stroke: #000000; stroke-width: 0.8; stroke-linejoin: miter; stroke-linecap: square"/>
   </g>
   <g id="patch_6">
    <path d="M 48.17 27.6 
L 450 27.6 
" style="fill: none; stroke: #000000; stroke-width: 0.8; stroke-linejoin: miter; stroke-linecap: square"/>
   </g>
   <g id="text_15">
    <!-- GLC -->
    <g transform="translate(234.872813 21.6) scale(0.14 -0.14)">
     <defs>
      <path id="DejaVuSans-47" d="M 3809 666 
L 3809 1919 
L 2778 1919 
L 2778 2438 
L 4434 2438 
L 4434 434 
Q 4069 175 3628 42 
Q 3188 -91 2688 -91 
Q 1594 -91 976 548 
Q 359 1188 359 2328 
Q 359 3472 976 4111 
Q 1594 4750 2688 4750 
Q 3144 4750 3555 4637 
Q 3966 4525 4313 4306 
L 4313 3634 
Q 3963 3931 3569 4081 
Q 3175 4231 2741 4231 
Q 1884 4231 1454 3753 
Q 1025 3275 1025 2328 
Q 1025 1384 1454 906 
Q 1884 428 2741 428 
Q 3075 428 3337 486 
Q 3600 544 3809 666 
z
" transform="scale(0.015625)"/>
      <path id="DejaVuSans-4c" d="M 628 4666 
L 1259 4666 
L 1259 531 
L 3531 531 
L 3531 0 
L 628 0 
L 628 4666 
z
" transform="scale(0.015625)"/>
     </defs>
     <use xlink:href="#DejaVuSans-47"/>
     <use xlink:href="#DejaVuSans-4c" x="77.490234"/>
     <use xlink:href="#DejaVuSans-43" x="133.203125"/>
    </g>
   </g>
  </g>
 </g>
 <defs>
  <clipPath id="pd304f88fec">
   <rect x="48.17" y="27.6" width="401.83" height="269.56"/>
  </clipPath>
 </defs>
</svg>
