<?xml version="1.0" encoding="utf-8" standalone="no"?>
<!DOCTYPE svg PUBLIC "-//W3C//DTD SVG 1.1//EN"
  "http://www.w3.org/Graphics/SVG/1.1/DTD/svg11.dtd">
<svg xmlns:xlink="http://www.w3.org/1999/xlink" width="460.8pt" height="345.6pt" viewBox="0 0 460.8 345.6" xmlns="http://www.w3.org/2000/svg" version="1.1">
 <metadata>
  <rdf:RDF xmlns:dc="http://purl.org/dc/elements/1.1/" xmlns:cc="http://creativecommons.org/ns#" xmlns:rdf="http://www.w3.org/1999/02/22-rdf-syntax-ns#">
   <cc:Work>
    <dc:type rdf:resource="http://purl.org/dc/dcmitype/StillImage"/>
    <dc:date>2023-02-20T22:34:37.085514</dc:date>
    <dc:format>image/svg+xml</dc:format>
    <dc:creator>
     <cc:Agent>
      <dc:title>Matplotlib v3.6.2, https://matplotlib.org/</dc:title>
     </cc:Agent>
    </dc:creator>
   </cc:Work>
  </rdf:RDF>
 </metadata>
 <defs>
  <style type="text/css">*{stroke-linejoin: round; stroke-linecap: butt}</style>
 </defs>
 <g id="figure_1">
  <g id="patch_1">
   <path d="M 0 345.6 
L 460.8 345.6 
L 460.8 0 
L 0 0 
z
" style="fill: #ffffff"/>
  </g>
  <g id="axes_1">
   <g id="patch_2">
    <path d="M 67.52 286.36 
L 441.679538 286.36 
L 441.679538 34.08 
L 67.52 34.08 
z
" style="fill: #ffffff"/>
   </g>
   <g id="matplotlib.axis_1">
    <g id="xtick_1">
     <g id="line2d_1">
      <defs>
       <path id="m10395ba023" d="M 0 0 
L 0 3.5 
" style="stroke: #000000; stroke-width: 0.8"/>
      </defs>
      <g>
       <use xlink:href="#m10395ba023" x="84.527252" y="286.36" style="stroke: #000000; stroke-width: 0.8"/>
      </g>
     </g>
     <g id="text_1">
      <!-- 0 -->
      <g transform="translate(79.437252 305.5175) scale(0.16 -0.16)">
       <defs>
        <path id="DejaVuSans-30" d="M 2034 4250 
Q 1547 4250 1301 3770 
Q 1056 3291 1056 2328 
Q 1056 1369 1301 889 
Q 1547 409 2034 409 
Q 2525 409 2770 889 
Q 3016 1369 3016 2328 
Q 3016 3291 2770 3770 
Q 2525 4250 2034 4250 
z
M 2034 4750 
Q 2819 4750 3233 4129 
Q 3647 3509 3647 2328 
Q 3647 1150 3233 529 
Q 2819 -91 2034 -91 
Q 1250 -91 836 529 
Q 422 1150 422 2328 
Q 422 3509 836 4129 
Q 1250 4750 2034 4750 
z
" transform="scale(0.015625)"/>
       </defs>
       <use xlink:href="#DejaVuSans-30"/>
      </g>
     </g>
    </g>
    <g id="xtick_2">
     <g id="line2d_2">
      <g>
       <use xlink:href="#m10395ba023" x="141.694484" y="286.36" style="stroke: #000000; stroke-width: 0.8"/>
      </g>
     </g>
     <g id="text_2">
      <!-- 100 -->
      <g transform="translate(126.424484 305.5175) scale(0.16 -0.16)">
       <defs>
        <path id="DejaVuSans-31" d="M 794 531 
L 1825 531 
L 1825 4091 
L 703 3866 
L 703 4441 
L 1819 4666 
L 2450 4666 
L 2450 531 
L 3481 531 
L 3481 0 
L 794 0 
L 794 531 
z
" transform="scale(0.015625)"/>
       </defs>
       <use xlink:href="#DejaVuSans-31"/>
       <use xlink:href="#DejaVuSans-30" x="63.623047"/>
       <use xlink:href="#DejaVuSans-30" x="127.246094"/>
      </g>
     </g>
    </g>
    <g id="xtick_3">
     <g id="line2d_3">
      <g>
       <use xlink:href="#m10395ba023" x="198.861717" y="286.36" style="stroke: #000000; stroke-width: 0.8"/>
      </g>
     </g>
     <g id="text_3">
      <!-- 200 -->
      <g transform="translate(183.591717 305.5175) scale(0.16 -0.16)">
       <defs>
        <path id="DejaVuSans-32" d="M 1228 531 
L 3431 531 
L 3431 0 
L 469 0 
L 469 531 
Q 828 903 1448 1529 
Q 2069 2156 2228 2338 
Q 2531 2678 2651 2914 
Q 2772 3150 2772 3378 
Q 2772 3750 2511 3984 
Q 2250 4219 1831 4219 
Q 1534 4219 1204 4116 
Q 875 4013 500 3803 
L 500 4441 
Q 881 4594 1212 4672 
Q 1544 4750 1819 4750 
Q 2544 4750 2975 4387 
Q 3406 4025 3406 3419 
Q 3406 3131 3298 2873 
Q 3191 2616 2906 2266 
Q 2828 2175 2409 1742 
Q 1991 1309 1228 531 
z
" transform="scale(0.015625)"/>
       </defs>
       <use xlink:href="#DejaVuSans-32"/>
       <use xlink:href="#DejaVuSans-30" x="63.623047"/>
       <use xlink:href="#DejaVuSans-30" x="127.246094"/>
      </g>
     </g>
    </g>
    <g id="xtick_4">
     <g id="line2d_4">
      <g>
       <use xlink:href="#m10395ba023" x="256.02895" y="286.36" style="stroke: #000000; stroke-width: 0.8"/>
      </g>
     </g>
     <g id="text_4">
      <!-- 300 -->
      <g transform="translate(240.75895 305.5175) scale(0.16 -0.16)">
       <defs>
        <path id="DejaVuSans-33" d="M 2597 2516 
Q 3050 2419 3304 2112 
Q 3559 1806 3559 1356 
Q 3559 666 3084 287 
Q 2609 -91 1734 -91 
Q 1441 -91 1130 -33 
Q 819 25 488 141 
L 488 750 
Q 750 597 1062 519 
Q 1375 441 1716 441 
Q 2309 441 2620 675 
Q 2931 909 2931 1356 
Q 2931 1769 2642 2001 
Q 2353 2234 1838 2234 
L 1294 2234 
L 1294 2753 
L 1863 2753 
Q 2328 2753 2575 2939 
Q 2822 3125 2822 3475 
Q 2822 3834 2567 4026 
Q 2313 4219 1838 4219 
Q 1578 4219 1281 4162 
Q 984 4106 628 3988 
L 628 4550 
Q 988 4650 1302 4700 
Q 1616 4750 1894 4750 
Q 2613 4750 3031 4423 
Q 3450 4097 3450 3541 
Q 3450 3153 3228 2886 
Q 3006 2619 2597 2516 
z
" transform="scale(0.015625)"/>
       </defs>
       <use xlink:href="#DejaVuSans-33"/>
       <use xlink:href="#DejaVuSans-30" x="63.623047"/>
       <use xlink:href="#DejaVuSans-30" x="127.246094"/>
      </g>
     </g>
    </g>
    <g id="xtick_5">
     <g id="line2d_5">
      <g>
       <use xlink:href="#m10395ba023" x="313.196182" y="286.36" style="stroke: #000000; stroke-width: 0.8"/>
      </g>
     </g>
     <g id="text_5">
      <!-- 400 -->
      <g transform="translate(297.926182 305.5175) scale(0.16 -0.16)">
       <defs>
        <path id="DejaVuSans-34" d="M 2419 4116 
L 825 1625 
L 2419 1625 
L 2419 4116 
z
M 2253 4666 
L 3047 4666 
L 3047 1625 
L 3713 1625 
L 3713 1100 
L 3047 1100 
L 3047 0 
L 2419 0 
L 2419 1100 
L 313 1100 
L 313 1709 
L 2253 4666 
z
" transform="scale(0.015625)"/>
       </defs>
       <use xlink:href="#DejaVuSans-34"/>
       <use xlink:href="#DejaVuSans-30" x="63.623047"/>
       <use xlink:href="#DejaVuSans-30" x="127.246094"/>
      </g>
     </g>
    </g>
    <g id="xtick_6">
     <g id="line2d_6">
      <g>
       <use xlink:href="#m10395ba023" x="370.363415" y="286.36" style="stroke: #000000; stroke-width: 0.8"/>
      </g>
     </g>
     <g id="text_6">
      <!-- 500 -->
      <g transform="translate(355.093415 305.5175) scale(0.16 -0.16)">
       <defs>
        <path id="DejaVuSans-35" d="M 691 4666 
L 3169 4666 
L 3169 4134 
L 1269 4134 
L 1269 2991 
Q 1406 3038 1543 3061 
Q 1681 3084 1819 3084 
Q 2600 3084 3056 2656 
Q 3513 2228 3513 1497 
Q 3513 744 3044 326 
Q 2575 -91 1722 -91 
Q 1428 -91 1123 -41 
Q 819 9 494 109 
L 494 744 
Q 775 591 1075 516 
Q 1375 441 1709 441 
Q 2250 441 2565 725 
Q 2881 1009 2881 1497 
Q 2881 1984 2565 2268 
Q 2250 2553 1709 2553 
Q 1456 2553 1204 2497 
Q 953 2441 691 2322 
L 691 4666 
z
" transform="scale(0.015625)"/>
       </defs>
       <use xlink:href="#DejaVuSans-35"/>
       <use xlink:href="#DejaVuSans-30" x="63.623047"/>
       <use xlink:href="#DejaVuSans-30" x="127.246094"/>
      </g>
     </g>
    </g>
    <g id="xtick_7">
     <g id="line2d_7">
      <g>
       <use xlink:href="#m10395ba023" x="427.530648" y="286.36" style="stroke: #000000; stroke-width: 0.8"/>
      </g>
     </g>
     <g id="text_7">
      <!-- 600 -->
      <g transform="translate(412.260648 305.5175) scale(0.16 -0.16)">
       <defs>
        <path id="DejaVuSans-36" d="M 2113 2584 
Q 1688 2584 1439 2293 
Q 1191 2003 1191 1497 
Q 1191 994 1439 701 
Q 1688 409 2113 409 
Q 2538 409 2786 701 
Q 3034 994 3034 1497 
Q 3034 2003 2786 2293 
Q 2538 2584 2113 2584 
z
M 3366 4563 
L 3366 3988 
Q 3128 4100 2886 4159 
Q 2644 4219 2406 4219 
Q 1781 4219 1451 3797 
Q 1122 3375 1075 2522 
Q 1259 2794 1537 2939 
Q 1816 3084 2150 3084 
Q 2853 3084 3261 2657 
Q 3669 2231 3669 1497 
Q 3669 778 3244 343 
Q 2819 -91 2113 -91 
Q 1303 -91 875 529 
Q 447 1150 447 2328 
Q 447 3434 972 4092 
Q 1497 4750 2381 4750 
Q 2619 4750 2861 4703 
Q 3103 4656 3366 4563 
z
" transform="scale(0.015625)"/>
       </defs>
       <use xlink:href="#DejaVuSans-36"/>
       <use xlink:href="#DejaVuSans-30" x="63.623047"/>
       <use xlink:href="#DejaVuSans-30" x="127.246094"/>
      </g>
     </g>
    </g>
    <g id="text_8">
     <!-- Distance from Center $(\mu m)$ -->
     <g transform="translate(160.519769 323.485) scale(0.14 -0.14)">
      <defs>
       <path id="DejaVuSans-44" d="M 1259 4147 
L 1259 519 
L 2022 519 
Q 2988 519 3436 956 
Q 3884 1394 3884 2338 
Q 3884 3275 3436 3711 
Q 2988 4147 2022 4147 
L 1259 4147 
z
M 628 4666 
L 1925 4666 
Q 3281 4666 3915 4102 
Q 4550 3538 4550 2338 
Q 4550 1131 3912 565 
Q 3275 0 1925 0 
L 628 0 
L 628 4666 
z
" transform="scale(0.015625)"/>
       <path id="DejaVuSans-69" d="M 603 3500 
L 1178 3500 
L 1178 0 
L 603 0 
L 603 3500 
z
M 603 4863 
L 1178 4863 
L 1178 4134 
L 603 4134 
L 603 4863 
z
" transform="scale(0.015625)"/>
       <path id="DejaVuSans-73" d="M 2834 3397 
L 2834 2853 
Q 2591 2978 2328 3040 
Q 2066 3103 1784 3103 
Q 1356 3103 1142 2972 
Q 928 2841 928 2578 
Q 928 2378 1081 2264 
Q 1234 2150 1697 2047 
L 1894 2003 
Q 2506 1872 2764 1633 
Q 3022 1394 3022 966 
Q 3022 478 2636 193 
Q 2250 -91 1575 -91 
Q 1294 -91 989 -36 
Q 684 19 347 128 
L 347 722 
Q 666 556 975 473 
Q 1284 391 1588 391 
Q 1994 391 2212 530 
Q 2431 669 2431 922 
Q 2431 1156 2273 1281 
Q 2116 1406 1581 1522 
L 1381 1569 
Q 847 1681 609 1914 
Q 372 2147 372 2553 
Q 372 3047 722 3315 
Q 1072 3584 1716 3584 
Q 2034 3584 2315 3537 
Q 2597 3491 2834 3397 
z
" transform="scale(0.015625)"/>
       <path id="DejaVuSans-74" d="M 1172 4494 
L 1172 3500 
L 2356 3500 
L 2356 3053 
L 1172 3053 
L 1172 1153 
Q 1172 725 1289 603 
Q 1406 481 1766 481 
L 2356 481 
L 2356 0 
L 1766 0 
Q 1100 0 847 248 
Q 594 497 594 1153 
L 594 3053 
L 172 3053 
L 172 3500 
L 594 3500 
L 594 4494 
L 1172 4494 
z
" transform="scale(0.015625)"/>
       <path id="DejaVuSans-61" d="M 2194 1759 
Q 1497 1759 1228 1600 
Q 959 1441 959 1056 
Q 959 750 1161 570 
Q 1363 391 1709 391 
Q 2188 391 2477 730 
Q 2766 1069 2766 1631 
L 2766 1759 
L 2194 1759 
z
M 3341 1997 
L 3341 0 
L 2766 0 
L 2766 531 
Q 2569 213 2275 61 
Q 1981 -91 1556 -91 
Q 1019 -91 701 211 
Q 384 513 384 1019 
Q 384 1609 779 1909 
Q 1175 2209 1959 2209 
L 2766 2209 
L 2766 2266 
Q 2766 2663 2505 2880 
Q 2244 3097 1772 3097 
Q 1472 3097 1187 3025 
Q 903 2953 641 2809 
L 641 3341 
Q 956 3463 1253 3523 
Q 1550 3584 1831 3584 
Q 2591 3584 2966 3190 
Q 3341 2797 3341 1997 
z
" transform="scale(0.015625)"/>
       <path id="DejaVuSans-6e" d="M 3513 2113 
L 3513 0 
L 2938 0 
L 2938 2094 
Q 2938 2591 2744 2837 
Q 2550 3084 2163 3084 
Q 1697 3084 1428 2787 
Q 1159 2491 1159 1978 
L 1159 0 
L 581 0 
L 581 3500 
L 1159 3500 
L 1159 2956 
Q 1366 3272 1645 3428 
Q 1925 3584 2291 3584 
Q 2894 3584 3203 3211 
Q 3513 2838 3513 2113 
z
" transform="scale(0.015625)"/>
       <path id="DejaVuSans-63" d="M 3122 3366 
L 3122 2828 
Q 2878 2963 2633 3030 
Q 2388 3097 2138 3097 
Q 1578 3097 1268 2742 
Q 959 2388 959 1747 
Q 959 1106 1268 751 
Q 1578 397 2138 397 
Q 2388 397 2633 464 
Q 2878 531 3122 666 
L 3122 134 
Q 2881 22 2623 -34 
Q 2366 -91 2075 -91 
Q 1284 -91 818 406 
Q 353 903 353 1747 
Q 353 2603 823 3093 
Q 1294 3584 2113 3584 
Q 2378 3584 2631 3529 
Q 2884 3475 3122 3366 
z
" transform="scale(0.015625)"/>
       <path id="DejaVuSans-65" d="M 3597 1894 
L 3597 1613 
L 953 1613 
Q 991 1019 1311 708 
Q 1631 397 2203 397 
Q 2534 397 2845 478 
Q 3156 559 3463 722 
L 3463 178 
Q 3153 47 2828 -22 
Q 2503 -91 2169 -91 
Q 1331 -91 842 396 
Q 353 884 353 1716 
Q 353 2575 817 3079 
Q 1281 3584 2069 3584 
Q 2775 3584 3186 3129 
Q 3597 2675 3597 1894 
z
M 3022 2063 
Q 3016 2534 2758 2815 
Q 2500 3097 2075 3097 
Q 1594 3097 1305 2825 
Q 1016 2553 972 2059 
L 3022 2063 
z
" transform="scale(0.015625)"/>
       <path id="DejaVuSans-20" transform="scale(0.015625)"/>
       <path id="DejaVuSans-66" d="M 2375 4863 
L 2375 4384 
L 1825 4384 
Q 1516 4384 1395 4259 
Q 1275 4134 1275 3809 
L 1275 3500 
L 2222 3500 
L 2222 3053 
L 1275 3053 
L 1275 0 
L 697 0 
L 697 3053 
L 147 3053 
L 147 3500 
L 697 3500 
L 697 3744 
Q 697 4328 969 4595 
Q 1241 4863 1831 4863 
L 2375 4863 
z
" transform="scale(0.015625)"/>
       <path id="DejaVuSans-72" d="M 2631 2963 
Q 2534 3019 2420 3045 
Q 2306 3072 2169 3072 
Q 1681 3072 1420 2755 
Q 1159 2438 1159 1844 
L 1159 0 
L 581 0 
L 581 3500 
L 1159 3500 
L 1159 2956 
Q 1341 3275 1631 3429 
Q 1922 3584 2338 3584 
Q 2397 3584 2469 3576 
Q 2541 3569 2628 3553 
L 2631 2963 
z
" transform="scale(0.015625)"/>
       <path id="DejaVuSans-6f" d="M 1959 3097 
Q 1497 3097 1228 2736 
Q 959 2375 959 1747 
Q 959 1119 1226 758 
Q 1494 397 1959 397 
Q 2419 397 2687 759 
Q 2956 1122 2956 1747 
Q 2956 2369 2687 2733 
Q 2419 3097 1959 3097 
z
M 1959 3584 
Q 2709 3584 3137 3096 
Q 3566 2609 3566 1747 
Q 3566 888 3137 398 
Q 2709 -91 1959 -91 
Q 1206 -91 779 398 
Q 353 888 353 1747 
Q 353 2609 779 3096 
Q 1206 3584 1959 3584 
z
" transform="scale(0.015625)"/>
       <path id="DejaVuSans-6d" d="M 3328 2828 
Q 3544 3216 3844 3400 
Q 4144 3584 4550 3584 
Q 5097 3584 5394 3201 
Q 5691 2819 5691 2113 
L 5691 0 
L 5113 0 
L 5113 2094 
Q 5113 2597 4934 2840 
Q 4756 3084 4391 3084 
Q 3944 3084 3684 2787 
Q 3425 2491 3425 1978 
L 3425 0 
L 2847 0 
L 2847 2094 
Q 2847 2600 2669 2842 
Q 2491 3084 2119 3084 
Q 1678 3084 1418 2786 
Q 1159 2488 1159 1978 
L 1159 0 
L 581 0 
L 581 3500 
L 1159 3500 
L 1159 2956 
Q 1356 3278 1631 3431 
Q 1906 3584 2284 3584 
Q 2666 3584 2933 3390 
Q 3200 3197 3328 2828 
z
" transform="scale(0.015625)"/>
       <path id="DejaVuSans-43" d="M 4122 4306 
L 4122 3641 
Q 3803 3938 3442 4084 
Q 3081 4231 2675 4231 
Q 1875 4231 1450 3742 
Q 1025 3253 1025 2328 
Q 1025 1406 1450 917 
Q 1875 428 2675 428 
Q 3081 428 3442 575 
Q 3803 722 4122 1019 
L 4122 359 
Q 3791 134 3420 21 
Q 3050 -91 2638 -91 
Q 1578 -91 968 557 
Q 359 1206 359 2328 
Q 359 3453 968 4101 
Q 1578 4750 2638 4750 
Q 3056 4750 3426 4639 
Q 3797 4528 4122 4306 
z
" transform="scale(0.015625)"/>
       <path id="DejaVuSans-28" d="M 1984 4856 
Q 1566 4138 1362 3434 
Q 1159 2731 1159 2009 
Q 1159 1288 1364 580 
Q 1569 -128 1984 -844 
L 1484 -844 
Q 1016 -109 783 600 
Q 550 1309 550 2009 
Q 550 2706 781 3412 
Q 1013 4119 1484 4856 
L 1984 4856 
z
" transform="scale(0.015625)"/>
       <path id="DejaVuSans-Oblique-3bc" d="M -84 -1331 
L 856 3500 
L 1434 3500 
L 1009 1322 
Q 997 1256 987 1175 
Q 978 1094 978 1013 
Q 978 722 1161 565 
Q 1344 409 1684 409 
Q 2147 409 2431 671 
Q 2716 934 2816 1459 
L 3213 3500 
L 3788 3500 
L 3266 809 
Q 3253 750 3248 706 
Q 3244 663 3244 628 
Q 3244 531 3283 486 
Q 3322 441 3406 441 
Q 3438 441 3492 456 
Q 3547 472 3647 513 
L 3559 50 
Q 3422 -19 3297 -55 
Q 3172 -91 3053 -91 
Q 2847 -91 2730 40 
Q 2613 172 2613 403 
Q 2438 153 2195 31 
Q 1953 -91 1625 -91 
Q 1334 -91 1117 43 
Q 900 178 831 397 
L 494 -1331 
L -84 -1331 
z
" transform="scale(0.015625)"/>
       <path id="DejaVuSans-Oblique-6d" d="M 5747 2113 
L 5338 0 
L 4763 0 
L 5166 2094 
Q 5191 2228 5203 2325 
Q 5216 2422 5216 2491 
Q 5216 2772 5059 2928 
Q 4903 3084 4622 3084 
Q 4203 3084 3875 2770 
Q 3547 2456 3450 1953 
L 3066 0 
L 2491 0 
L 2900 2094 
Q 2925 2209 2937 2307 
Q 2950 2406 2950 2484 
Q 2950 2769 2794 2926 
Q 2638 3084 2363 3084 
Q 1938 3084 1609 2770 
Q 1281 2456 1184 1953 
L 800 0 
L 225 0 
L 909 3500 
L 1484 3500 
L 1375 2956 
Q 1609 3263 1923 3423 
Q 2238 3584 2597 3584 
Q 2978 3584 3223 3384 
Q 3469 3184 3519 2828 
Q 3781 3197 4126 3390 
Q 4472 3584 4856 3584 
Q 5306 3584 5551 3325 
Q 5797 3066 5797 2591 
Q 5797 2488 5784 2364 
Q 5772 2241 5747 2113 
z
" transform="scale(0.015625)"/>
       <path id="DejaVuSans-29" d="M 513 4856 
L 1013 4856 
Q 1481 4119 1714 3412 
Q 1947 2706 1947 2009 
Q 1947 1309 1714 600 
Q 1481 -109 1013 -844 
L 513 -844 
Q 928 -128 1133 580 
Q 1338 1288 1338 2009 
Q 1338 2731 1133 3434 
Q 928 4138 513 4856 
z
" transform="scale(0.015625)"/>
      </defs>
      <use xlink:href="#DejaVuSans-44" transform="translate(0 0.015625)"/>
      <use xlink:href="#DejaVuSans-69" transform="translate(77.001953 0.015625)"/>
      <use xlink:href="#DejaVuSans-73" transform="translate(104.785156 0.015625)"/>
      <use xlink:href="#DejaVuSans-74" transform="translate(156.884766 0.015625)"/>
      <use xlink:href="#DejaVuSans-61" transform="translate(196.09375 0.015625)"/>
      <use xlink:href="#DejaVuSans-6e" transform="translate(257.373047 0.015625)"/>
      <use xlink:href="#DejaVuSans-63" transform="translate(320.751953 0.015625)"/>
      <use xlink:href="#DejaVuSans-65" transform="translate(375.732422 0.015625)"/>
      <use xlink:href="#DejaVuSans-20" transform="translate(437.255859 0.015625)"/>
      <use xlink:href="#DejaVuSans-66" transform="translate(469.042969 0.015625)"/>
      <use xlink:href="#DejaVuSans-72" transform="translate(504.248047 0.015625)"/>
      <use xlink:href="#DejaVuSans-6f" transform="translate(545.361328 0.015625)"/>
      <use xlink:href="#DejaVuSans-6d" transform="translate(606.542969 0.015625)"/>
      <use xlink:href="#DejaVuSans-20" transform="translate(703.955078 0.015625)"/>
      <use xlink:href="#DejaVuSans-43" transform="translate(735.742188 0.015625)"/>
      <use xlink:href="#DejaVuSans-65" transform="translate(805.566406 0.015625)"/>
      <use xlink:href="#DejaVuSans-6e" transform="translate(867.089844 0.015625)"/>
      <use xlink:href="#DejaVuSans-74" transform="translate(930.46875 0.015625)"/>
      <use xlink:href="#DejaVuSans-65" transform="translate(969.677734 0.015625)"/>
      <use xlink:href="#DejaVuSans-72" transform="translate(1031.201172 0.015625)"/>
      <use xlink:href="#DejaVuSans-20" transform="translate(1072.314453 0.015625)"/>
      <use xlink:href="#DejaVuSans-28" transform="translate(1104.101562 0.015625)"/>
      <use xlink:href="#DejaVuSans-Oblique-3bc" transform="translate(1143.115234 0.015625)"/>
      <use xlink:href="#DejaVuSans-Oblique-6d" transform="translate(1206.738281 0.015625)"/>
      <use xlink:href="#DejaVuSans-29" transform="translate(1304.150391 0.015625)"/>
     </g>
    </g>
   </g>
   <g id="matplotlib.axis_2">
    <g id="ytick_1">
     <g id="line2d_8">
      <path d="M 67.52 262.792744 
L 441.679538 262.792744 
" clip-path="url(#p79075bbc9e)" style="fill: none; stroke: #f2f2f2; stroke-width: 0.8; stroke-linecap: square"/>
     </g>
     <g id="line2d_9">
      <defs>
       <path id="m07f65151a4" d="M 0 0 
L -3.5 0 
" style="stroke: #000000; stroke-width: 0.8"/>
      </defs>
      <g>
       <use xlink:href="#m07f65151a4" x="67.52" y="262.792744" style="stroke: #000000; stroke-width: 0.8"/>
      </g>
     </g>
     <g id="text_9">
      <!-- 0.5 -->
      <g transform="translate(35.075 268.871494) scale(0.16 -0.16)">
       <defs>
        <path id="DejaVuSans-2e" d="M 684 794 
L 1344 794 
L 1344 0 
L 684 0 
L 684 794 
z
" transform="scale(0.015625)"/>
       </defs>
       <use xlink:href="#DejaVuSans-30"/>
       <use xlink:href="#DejaVuSans-2e" x="63.623047"/>
       <use xlink:href="#DejaVuSans-35" x="95.410156"/>
      </g>
     </g>
    </g>
    <g id="ytick_2">
     <g id="line2d_10">
      <path d="M 67.52 209.633167 
L 441.679538 209.633167 
" clip-path="url(#p79075bbc9e)" style="fill: none; stroke: #f2f2f2; stroke-width: 0.8; stroke-linecap: square"/>
     </g>
     <g id="line2d_11">
      <g>
       <use xlink:href="#m07f65151a4" x="67.52" y="209.633167" style="stroke: #000000; stroke-width: 0.8"/>
      </g>
     </g>
     <g id="text_10">
      <!-- 1.0 -->
      <g transform="translate(35.075 215.711917) scale(0.16 -0.16)">
       <use xlink:href="#DejaVuSans-31"/>
       <use xlink:href="#DejaVuSans-2e" x="63.623047"/>
       <use xlink:href="#DejaVuSans-30" x="95.410156"/>
      </g>
     </g>
    </g>
    <g id="ytick_3">
     <g id="line2d_12">
      <path d="M 67.52 156.47359 
L 441.679538 156.47359 
" clip-path="url(#p79075bbc9e)" style="fill: none; stroke: #f2f2f2; stroke-width: 0.8; stroke-linecap: square"/>
     </g>
     <g id="line2d_13">
      <g>
       <use xlink:href="#m07f65151a4" x="67.52" y="156.47359" style="stroke: #000000; stroke-width: 0.8"/>
      </g>
     </g>
     <g id="text_11">
      <!-- 1.5 -->
      <g transform="translate(35.075 162.55234) scale(0.16 -0.16)">
       <use xlink:href="#DejaVuSans-31"/>
       <use xlink:href="#DejaVuSans-2e" x="63.623047"/>
       <use xlink:href="#DejaVuSans-35" x="95.410156"/>
      </g>
     </g>
    </g>
    <g id="ytick_4">
     <g id="line2d_14">
      <path d="M 67.52 103.314013 
L 441.679538 103.314013 
" clip-path="url(#p79075bbc9e)" style="fill: none; stroke: #f2f2f2; stroke-width: 0.8; stroke-linecap: square"/>
     </g>
     <g id="line2d_15">
      <g>
       <use xlink:href="#m07f65151a4" x="67.52" y="103.314013" style="stroke: #000000; stroke-width: 0.8"/>
      </g>
     </g>
     <g id="text_12">
      <!-- 2.0 -->
      <g transform="translate(35.075 109.392763) scale(0.16 -0.16)">
       <use xlink:href="#DejaVuSans-32"/>
       <use xlink:href="#DejaVuSans-2e" x="63.623047"/>
       <use xlink:href="#DejaVuSans-30" x="95.410156"/>
      </g>
     </g>
    </g>
    <g id="ytick_5">
     <g id="line2d_16">
      <path d="M 67.52 50.154436 
L 441.679538 50.154436 
" clip-path="url(#p79075bbc9e)" style="fill: none; stroke: #f2f2f2; stroke-width: 0.8; stroke-linecap: square"/>
     </g>
     <g id="line2d_17">
      <g>
       <use xlink:href="#m07f65151a4" x="67.52" y="50.154436" style="stroke: #000000; stroke-width: 0.8"/>
      </g>
     </g>
     <g id="text_13">
      <!-- 2.5 -->
      <g transform="translate(35.075 56.233186) scale(0.16 -0.16)">
       <use xlink:href="#DejaVuSans-32"/>
       <use xlink:href="#DejaVuSans-2e" x="63.623047"/>
       <use xlink:href="#DejaVuSans-35" x="95.410156"/>
      </g>
     </g>
    </g>
    <g id="text_14">
     <!-- Concentration (mM) -->
     <g transform="translate(28.163438 230.284531) rotate(-90) scale(0.14 -0.14)">
      <defs>
       <path id="DejaVuSans-4d" d="M 628 4666 
L 1569 4666 
L 2759 1491 
L 3956 4666 
L 4897 4666 
L 4897 0 
L 4281 0 
L 4281 4097 
L 3078 897 
L 2444 897 
L 1241 4097 
L 1241 0 
L 628 0 
L 628 4666 
z
" transform="scale(0.015625)"/>
      </defs>
      <use xlink:href="#DejaVuSans-43"/>
      <use xlink:href="#DejaVuSans-6f" x="69.824219"/>
      <use xlink:href="#DejaVuSans-6e" x="131.005859"/>
      <use xlink:href="#DejaVuSans-63" x="194.384766"/>
      <use xlink:href="#DejaVuSans-65" x="249.365234"/>
      <use xlink:href="#DejaVuSans-6e" x="310.888672"/>
      <use xlink:href="#DejaVuSans-74" x="374.267578"/>
      <use xlink:href="#DejaVuSans-72" x="413.476562"/>
      <use xlink:href="#DejaVuSans-61" x="454.589844"/>
      <use xlink:href="#DejaVuSans-74" x="515.869141"/>
      <use xlink:href="#DejaVuSans-69" x="555.078125"/>
      <use xlink:href="#DejaVuSans-6f" x="582.861328"/>
      <use xlink:href="#DejaVuSans-6e" x="644.042969"/>
      <use xlink:href="#DejaVuSans-20" x="707.421875"/>
      <use xlink:href="#DejaVuSans-28" x="739.208984"/>
      <use xlink:href="#DejaVuSans-6d" x="778.222656"/>
      <use xlink:href="#DejaVuSans-4d" x="875.634766"/>
      <use xlink:href="#DejaVuSans-29" x="961.914062"/>
     </g>
    </g>
   </g>
   <g id="line2d_18">
    <path d="M 84.527252 62.88204 
L 88.528958 62.662535 
L 92.530664 61.99628 
L 96.532371 60.863051 
L 100.534077 59.2275 
L 104.535783 57.031805 
L 108.537489 54.17927 
L 112.539196 50.491166 
L 116.540902 45.547273 
" clip-path="url(#p79075bbc9e)" style="fill: none; stroke: #1f77b4; stroke-opacity: 0.9; stroke-width: 3; stroke-linecap: square"/>
   </g>
   <g id="line2d_19">
    <path d="M 84.527252 101.010309 
L 88.528958 100.884758 
L 92.530664 100.506084 
L 96.532371 99.869266 
L 100.534077 98.966342 
L 104.535783 97.786144 
L 108.537489 96.3139 
L 112.539196 94.53067 
L 116.540902 92.412524 
L 120.542608 89.929346 
L 124.544315 87.043011 
L 128.546021 83.704491 
L 132.547727 79.848947 
L 136.549433 75.386688 
L 140.55114 70.184423 
L 144.552846 64.01903 
L 148.554552 56.423838 
L 152.556259 45.547273 
" clip-path="url(#p79075bbc9e)" style="fill: none; stroke: #ff7f0e; stroke-opacity: 0.9; stroke-width: 3; stroke-linecap: square"/>
   </g>
   <g id="line2d_20">
    <path d="M 84.527252 134.395904 
L 88.528958 134.324979 
L 92.530664 134.111242 
L 96.532371 133.75231 
L 100.534077 133.244438 
L 104.535783 132.582446 
L 108.537489 131.759606 
L 112.539196 130.76751 
L 116.540902 129.595896 
L 120.542608 128.232434 
L 124.544315 126.662454 
L 128.546021 124.868619 
L 132.547727 122.830512 
L 136.549433 120.524117 
L 140.55114 117.921151 
L 144.552846 114.988193 
L 148.554552 111.685497 
L 152.556259 107.965325 
L 156.557965 103.76948 
L 160.559671 99.025433 
L 164.561377 93.63977 
L 168.563084 87.48598 
L 172.56479 80.378612 
L 176.566496 72.007012 
L 180.568203 61.697324 
L 184.569909 45.547273 
" clip-path="url(#p79075bbc9e)" style="fill: none; stroke: #2ca02c; stroke-opacity: 0.9; stroke-width: 3; stroke-linecap: square"/>
   </g>
   <g id="line2d_21">
    <path d="M 84.527252 161.757617 
L 88.528958 161.722962 
L 92.530664 161.618777 
L 96.532371 161.444509 
L 100.534077 161.199265 
L 104.535783 160.881763 
L 108.537489 160.490262 
L 112.539196 160.022474 
L 116.540902 159.475445 
L 120.542608 158.845422 
L 124.544315 158.12769 
L 128.546021 157.316411 
L 132.547727 156.404448 
L 136.549433 155.383207 
L 140.55114 154.242485 
L 144.552846 152.970301 
L 148.554552 151.5527 
L 152.556259 149.973481 
L 156.557965 148.213837 
L 160.559671 146.251904 
L 164.561377 144.062204 
L 168.563084 141.614983 
L 172.56479 138.87541 
L 176.566496 135.802613 
L 180.568203 132.348465 
L 184.569909 128.456012 
L 188.571615 124.057336 
L 192.573321 119.070495 
L 196.575028 113.394808 
L 200.576734 106.90299 
L 204.57844 99.426583 
L 208.580147 90.725019 
L 212.581853 80.405567 
L 216.583559 67.629996 
L 220.585265 45.547273 
" clip-path="url(#p79075bbc9e)" style="fill: none; stroke: #d62728; stroke-opacity: 0.9; stroke-width: 3; stroke-linecap: square"/>
   </g>
   <g id="line2d_22">
    <path d="M 84.527252 181.521095 
L 88.528958 181.48938 
L 92.530664 181.394256 
L 96.532371 181.235779 
L 100.534077 181.014039 
L 104.535783 180.729167 
L 108.537489 180.381342 
L 112.539196 179.970791 
L 116.540902 179.497796 
L 120.542608 178.962697 
L 124.544315 178.365884 
L 128.546021 177.707788 
L 132.547727 176.988863 
L 136.549433 176.20955 
L 140.55114 175.370229 
L 144.552846 174.471144 
L 148.554552 173.5123 
L 152.556259 172.493333 
L 156.557965 171.413332 
L 160.559671 170.270612 
L 164.561377 169.062435 
L 168.563084 167.784634 
L 172.56479 166.431119 
L 176.566496 164.993143 
L 180.568203 163.458169 
L 184.569909 161.80815 
L 188.571615 160.017607 
L 192.573321 158.053153 
L 196.575028 155.87566 
L 200.576734 153.442586 
L 204.57844 150.707541 
L 208.580147 147.617772 
L 212.581853 144.111324 
L 216.583559 140.114362 
L 220.585265 135.538315 
L 224.586972 130.276218 
L 228.588678 124.197359 
L 232.590384 117.138569 
L 236.592091 108.888336 
L 240.593797 99.153342 
L 244.595503 87.472342 
L 248.597209 72.903482 
L 252.598916 45.547273 
" clip-path="url(#p79075bbc9e)" style="fill: none; stroke: #9467bd; stroke-opacity: 0.9; stroke-width: 3; stroke-linecap: square"/>
   </g>
   <g id="line2d_23">
    <path d="M 84.527252 207.873275 
L 88.528958 207.844679 
L 92.530664 207.758815 
L 96.532371 207.615494 
L 100.534077 207.414428 
L 104.535783 207.155226 
L 108.537489 206.8374 
L 112.539196 206.460366 
L 116.540902 206.023447 
L 120.542608 205.525876 
L 124.544315 204.966803 
L 128.546021 204.3453 
L 132.547727 203.660375 
L 136.549433 202.910978 
L 140.55114 202.096025 
L 144.552846 201.214416 
L 148.554552 200.265062 
L 152.556259 199.246924 
L 156.557965 198.159059 
L 160.559671 197.000675 
L 164.561377 195.771205 
L 168.563084 194.470388 
L 172.56479 193.09837 
L 176.566496 191.655813 
L 180.568203 190.144005 
L 184.569909 188.564962 
L 188.571615 186.921502 
L 192.573321 185.217247 
L 196.575028 183.45653 
L 200.576734 181.644149 
L 204.57844 179.784918 
L 208.580147 177.882987 
L 212.581853 175.940923 
L 216.583559 173.958553 
L 220.585265 171.931645 
L 224.586972 169.850477 
L 228.588678 167.698272 
L 232.590384 165.448979 
L 236.592091 163.061433 
L 240.593797 160.464861 
L 244.595503 157.557994 
L 248.597209 154.237302 
L 252.598916 150.401424 
L 256.600622 145.935745 
L 260.602328 140.701342 
L 264.604035 134.527372 
L 268.605741 127.201565 
L 272.607447 118.453605 
L 276.609153 107.920642 
L 280.61086 95.059604 
L 284.612566 78.836154 
L 288.614272 45.547273 
" clip-path="url(#p79075bbc9e)" style="fill: none; stroke: #8c564b; stroke-opacity: 0.9; stroke-width: 3; stroke-linecap: square"/>
   </g>
   <g id="line2d_24">
    <path d="M 84.527252 232.731548 
L 88.528958 232.711225 
L 92.530664 232.650188 
L 96.532371 232.548275 
L 100.534077 232.405234 
L 104.535783 232.220722 
L 108.537489 231.994307 
L 112.539196 231.725462 
L 116.540902 231.413568 
L 120.542608 231.057908 
L 124.544315 230.657668 
L 128.546021 230.211935 
L 132.547727 229.71969 
L 136.549433 229.179808 
L 140.55114 228.591056 
L 144.552846 227.952089 
L 148.554552 227.261444 
L 152.556259 226.517539 
L 156.557965 225.71867 
L 160.559671 224.863006 
L 164.561377 223.948588 
L 168.563084 222.973323 
L 172.56479 221.934985 
L 176.566496 220.831212 
L 180.568203 219.65951 
L 184.569909 218.41725 
L 188.571615 217.101679 
L 192.573321 215.709929 
L 196.575028 214.23903 
L 200.576734 212.685944 
L 204.57844 211.047596 
L 208.580147 209.320944 
L 212.581853 207.503058 
L 216.583559 205.591263 
L 220.585265 203.583322 
L 224.586972 201.477719 
L 228.588678 199.274031 
L 232.590384 196.973437 
L 236.592091 194.579337 
L 240.593797 192.098025 
L 244.595503 189.539283 
L 248.597209 186.916609 
L 252.598916 184.246695 
L 256.600622 181.547754 
L 260.602328 178.836434 
L 264.604035 176.12345 
L 268.605741 173.408546 
L 272.607447 170.675648 
L 276.609153 167.888993 
L 280.61086 164.990542 
L 284.612566 161.876836 
L 288.614272 158.338392 
L 292.615979 154.17465 
L 296.617685 149.204562 
L 300.619391 143.213721 
L 304.621097 135.932709 
L 308.622804 127.019863 
L 312.62451 116.027676 
L 316.626216 102.317985 
L 320.627923 84.768826 
L 324.629629 45.547273 
" clip-path="url(#p79075bbc9e)" style="fill: none; stroke: #e377c2; stroke-opacity: 0.9; stroke-width: 3; stroke-linecap: square"/>
   </g>
   <g id="line2d_25">
    <path d="M 84.527252 250.518189 
L 88.528958 250.50429 
L 92.530664 250.462548 
L 96.532371 250.39285 
L 100.534077 250.295022 
L 104.535783 250.168827 
L 108.537489 250.013964 
L 112.539196 249.830068 
L 116.540902 249.616708 
L 120.542608 249.373384 
L 124.544315 249.099528 
L 128.546021 248.794497 
L 132.547727 248.457576 
L 136.549433 248.087969 
L 140.55114 247.684804 
L 144.552846 247.24712 
L 148.554552 246.773872 
L 152.556259 246.263919 
L 156.557965 245.716026 
L 160.559671 245.128856 
L 164.561377 244.500966 
L 168.563084 243.8308 
L 172.56479 243.116684 
L 176.566496 242.356823 
L 180.568203 241.549287 
L 184.569909 240.692012 
L 188.571615 239.782786 
L 192.573321 238.819248 
L 196.575028 237.798875 
L 200.576734 236.718976 
L 204.57844 235.576686 
L 208.580147 234.368952 
L 212.581853 233.092534 
L 216.583559 231.74399 
L 220.585265 230.319675 
L 224.586972 228.815733 
L 228.588678 227.228097 
L 232.590384 225.552488 
L 236.592091 223.784418 
L 240.593797 221.919208 
L 244.595503 219.951999 
L 248.597209 217.8778 
L 252.598916 215.691537 
L 256.600622 213.388149 
L 260.602328 210.962746 
L 264.604035 208.410858 
L 268.605741 205.728854 
L 272.607447 202.914639 
L 276.609153 199.968751 
L 280.61086 196.89602 
L 284.612566 193.707756 
L 288.614272 190.424081 
L 292.615979 187.075275 
L 296.617685 183.700247 
L 300.619391 180.340246 
L 304.621097 177.027476 
L 308.622804 173.771109 
L 312.62451 170.544943 
L 316.626216 167.280025 
L 320.627923 163.862477 
L 324.629629 160.025167 
L 328.631335 155.408388 
L 332.633042 149.74201 
L 336.634748 142.703887 
L 340.636454 133.879946 
L 344.63816 122.732895 
L 348.639867 108.523499 
L 352.641573 90.042312 
L 356.643279 45.547273 
" clip-path="url(#p79075bbc9e)" style="fill: none; stroke: #7f7f7f; stroke-opacity: 0.9; stroke-width: 3; stroke-linecap: square"/>
   </g>
   <g id="line2d_26">
    <path d="M 84.527252 265.395383 
L 88.528958 265.3867 
L 92.530664 265.360624 
L 96.532371 265.317091 
L 100.534077 265.256001 
L 104.535783 265.177219 
L 108.537489 265.080571 
L 112.539196 264.96585 
L 116.540902 264.832806 
L 120.542608 264.681154 
L 124.544315 264.510563 
L 128.546021 264.320666 
L 132.547727 264.111046 
L 136.549433 263.881244 
L 140.55114 263.630751 
L 144.552846 263.359009 
L 148.554552 263.065406 
L 152.556259 262.749272 
L 156.557965 262.409882 
L 160.559671 262.046445 
L 164.561377 261.658105 
L 168.563084 261.243935 
L 172.56479 260.802934 
L 176.566496 260.334021 
L 180.568203 259.836029 
L 184.569909 259.307704 
L 188.571615 258.747693 
L 192.573321 258.154542 
L 196.575028 257.526687 
L 200.576734 256.862449 
L 204.57844 256.160023 
L 208.580147 255.417472 
L 212.581853 254.632718 
L 216.583559 253.803533 
L 220.585265 252.927525 
L 224.586972 252.002133 
L 228.588678 251.024611 
L 232.590384 249.99202 
L 236.592091 248.901212 
L 240.593797 247.748817 
L 244.595503 246.531233 
L 248.597209 245.244607 
L 252.598916 243.884822 
L 256.600622 242.447483 
L 260.602328 240.927901 
L 264.604035 239.32108 
L 268.605741 237.621702 
L 272.607447 235.824116 
L 276.609153 233.922328 
L 280.61086 231.909999 
L 284.612566 229.780444 
L 288.614272 227.526643 
L 292.615979 225.141267 
L 296.617685 222.616724 
L 300.619391 219.945232 
L 304.621097 217.118951 
L 308.622804 214.130184 
L 312.62451 210.971735 
L 316.626216 207.637559 
L 320.627923 204.124011 
L 324.629629 200.432302 
L 328.631335 196.572965 
L 332.633042 192.572744 
L 336.634748 188.481949 
L 340.636454 184.375925 
L 344.63816 180.341481 
L 348.639867 176.445616 
L 352.641573 172.698292 
L 356.643279 169.02743 
L 360.644986 165.273648 
L 364.646692 161.102876 
L 368.648398 155.918179 
L 372.650104 149.323421 
L 376.651811 140.819944 
L 380.653517 129.753748 
L 384.655223 115.24898 
L 388.65693 95.974984 
L 392.658636 45.547273 
" clip-path="url(#p79075bbc9e)" style="fill: none; stroke: #bcbd22; stroke-opacity: 0.9; stroke-width: 3; stroke-linecap: square"/>
   </g>
   <g id="line2d_27">
    <path d="M 84.527252 274.892727 
L 88.528958 274.886992 
L 92.530664 274.869769 
L 96.532371 274.841022 
L 100.534077 274.800692 
L 104.535783 274.748698 
L 108.537489 274.68494 
L 112.539196 274.609295 
L 116.540902 274.521619 
L 120.542608 274.421745 
L 124.544315 274.309483 
L 128.546021 274.184618 
L 132.547727 274.046913 
L 136.549433 273.896105 
L 140.55114 273.731903 
L 144.552846 273.553991 
L 148.554552 273.362021 
L 152.556259 273.155618 
L 156.557965 272.934372 
L 160.559671 272.697843 
L 164.561377 272.445551 
L 168.563084 272.17698 
L 172.56479 271.891572 
L 176.566496 271.588726 
L 180.568203 271.267793 
L 184.569909 270.928074 
L 188.571615 270.568814 
L 192.573321 270.189201 
L 196.575028 269.788358 
L 200.576734 269.365339 
L 204.57844 268.919122 
L 208.580147 268.448607 
L 212.581853 267.952606 
L 216.583559 267.429834 
L 220.585265 266.878909 
L 224.586972 266.298334 
L 228.588678 265.686497 
L 232.590384 265.041657 
L 236.592091 264.361936 
L 240.593797 263.645305 
L 244.595503 262.889581 
L 248.597209 262.092405 
L 252.598916 261.251237 
L 256.600622 260.36334 
L 260.602328 259.425764 
L 264.604035 258.435333 
L 268.605741 257.388627 
L 272.607447 256.281966 
L 276.609153 255.111392 
L 280.61086 253.872646 
L 284.612566 252.561152 
L 288.614272 251.171991 
L 292.615979 249.699883 
L 296.617685 248.139159 
L 300.619391 246.483741 
L 304.621097 244.727116 
L 308.622804 242.862313 
L 312.62451 240.881885 
L 316.626216 238.777885 
L 320.627923 236.541859 
L 324.629629 234.164834 
L 328.631335 231.637333 
L 332.633042 228.949393 
L 336.634748 226.090625 
L 340.636454 223.05031 
L 344.63816 219.81756 
L 348.639867 216.381599 
L 352.641573 212.732217 
L 356.643279 208.860598 
L 360.644986 204.761026 
L 364.646692 200.434892 
L 368.648398 195.899887 
L 372.650104 191.206751 
L 376.651811 186.45689 
L 380.653517 181.796535 
L 384.655223 177.363603 
L 388.65693 173.206612 
L 392.658636 169.230362 
L 396.660342 165.192818 
L 400.662048 160.496891 
L 404.663755 154.404505 
L 408.665461 146.346605 
L 412.667167 135.555581 
L 416.668874 121.011782 
L 420.67058 101.24847 
L 424.672286 45.547273 
" clip-path="url(#p79075bbc9e)" style="fill: none; stroke: #17becf; stroke-opacity: 0.9; stroke-width: 3; stroke-linecap: square"/>
   </g>
   <g id="patch_3">
    <path d="M 67.52 286.36 
L 67.52 34.08 
" style="fill: none; stroke: #000000; stroke-width: 0.8; stroke-linejoin: miter; stroke-linecap: square"/>
   </g>
   <g id="patch_4">
    <path d="M 441.679538 286.36 
L 441.679538 34.08 
" style="fill: none; stroke: #000000; stroke-width: 0.8; stroke-linejoin: miter; stroke-linecap: square"/>
   </g>
   <g id="patch_5">
    <path d="M 67.52 286.36 
L 441.679538 286.36 
" style="fill: none; stroke: #000000; stroke-width: 0.8; stroke-linejoin: miter; stroke-linecap: square"/>
   </g>
   <g id="patch_6">
    <path d="M 67.52 34.08 
L 441.679538 34.08 
" style="fill: none; stroke: #000000; stroke-width: 0.8; stroke-linejoin: miter; stroke-linecap: square"/>
   </g>
   <g id="text_15">
    <!-- GLN -->
    <g transform="translate(240.038675 28.08) scale(0.14 -0.14)">
     <defs>
      <path id="DejaVuSans-47" d="M 3809 666 
L 3809 1919 
L 2778 1919 
L 2778 2438 
L 4434 2438 
L 4434 434 
Q 4069 175 3628 42 
Q 3188 -91 2688 -91 
Q 1594 -91 976 548 
Q 359 1188 359 2328 
Q 359 3472 976 4111 
Q 1594 4750 2688 4750 
Q 3144 4750 3555 4637 
Q 3966 4525 4313 4306 
L 4313 3634 
Q 3963 3931 3569 4081 
Q 3175 4231 2741 4231 
Q 1884 4231 1454 3753 
Q 1025 3275 1025 2328 
Q 1025 1384 1454 906 
Q 1884 428 2741 428 
Q 3075 428 3337 486 
Q 3600 544 3809 666 
z
" transform="scale(0.015625)"/>
      <path id="DejaVuSans-4c" d="M 628 4666 
L 1259 4666 
L 1259 531 
L 3531 531 
L 3531 0 
L 628 0 
L 628 4666 
z
" transform="scale(0.015625)"/>
      <path id="DejaVuSans-4e" d="M 628 4666 
L 1478 4666 
L 3547 763 
L 3547 4666 
L 4159 4666 
L 4159 0 
L 3309 0 
L 1241 3903 
L 1241 0 
L 628 0 
L 628 4666 
z
" transform="scale(0.015625)"/>
     </defs>
     <use xlink:href="#DejaVuSans-47"/>
     <use xlink:href="#DejaVuSans-4c" x="77.490234"/>
     <use xlink:href="#DejaVuSans-4e" x="133.203125"/>
    </g>
   </g>
  </g>
 </g>
 <defs>
  <clipPath id="p79075bbc9e">
   <rect x="67.52" y="34.08" width="374.159538" height="252.28"/>
  </clipPath>
 </defs>
</svg>
