<?xml version="1.0" encoding="utf-8" standalone="no"?>
<!DOCTYPE svg PUBLIC "-//W3C//DTD SVG 1.1//EN"
  "http://www.w3.org/Graphics/SVG/1.1/DTD/svg11.dtd">
<svg xmlns:xlink="http://www.w3.org/1999/xlink" width="460.8pt" height="345.6pt" viewBox="0 0 460.8 345.6" xmlns="http://www.w3.org/2000/svg" version="1.1">
 <metadata>
  <rdf:RDF xmlns:dc="http://purl.org/dc/elements/1.1/" xmlns:cc="http://creativecommons.org/ns#" xmlns:rdf="http://www.w3.org/1999/02/22-rdf-syntax-ns#">
   <cc:Work>
    <dc:type rdf:resource="http://purl.org/dc/dcmitype/StillImage"/>
    <dc:date>2023-03-17T16:26:48.261091</dc:date>
    <dc:format>image/svg+xml</dc:format>
    <dc:creator>
     <cc:Agent>
      <dc:title>Matplotlib v3.6.2, https://matplotlib.org/</dc:title>
     </cc:Agent>
    </dc:creator>
   </cc:Work>
  </rdf:RDF>
 </metadata>
 <defs>
  <style type="text/css">*{stroke-linejoin: round; stroke-linecap: butt}</style>
 </defs>
 <g id="figure_1">
  <g id="patch_1">
   <path d="M 0 345.6 
L 460.8 345.6 
L 460.8 0 
L 0 0 
z
" style="fill: #ffffff"/>
  </g>
  <g id="axes_1">
   <g id="patch_2">
    <path d="M 64.01 297.16 
L 450 297.16 
L 450 27.6 
L 64.01 27.6 
z
" style="fill: #ffffff"/>
   </g>
   <g id="matplotlib.axis_1">
    <g id="xtick_1">
     <g id="line2d_1">
      <defs>
       <path id="m746a7a0394" d="M 0 0 
L 0 3.5 
" style="stroke: #000000; stroke-width: 0.8"/>
      </defs>
      <g>
       <use xlink:href="#m746a7a0394" x="81.555" y="297.16" style="stroke: #000000; stroke-width: 0.8"/>
      </g>
     </g>
     <g id="text_1">
      <!-- 0 -->
      <g transform="translate(78.37375 311.758438) scale(0.1 -0.1)">
       <defs>
        <path id="DejaVuSans-30" d="M 2034 4250 
Q 1547 4250 1301 3770 
Q 1056 3291 1056 2328 
Q 1056 1369 1301 889 
Q 1547 409 2034 409 
Q 2525 409 2770 889 
Q 3016 1369 3016 2328 
Q 3016 3291 2770 3770 
Q 2525 4250 2034 4250 
z
M 2034 4750 
Q 2819 4750 3233 4129 
Q 3647 3509 3647 2328 
Q 3647 1150 3233 529 
Q 2819 -91 2034 -91 
Q 1250 -91 836 529 
Q 422 1150 422 2328 
Q 422 3509 836 4129 
Q 1250 4750 2034 4750 
z
" transform="scale(0.015625)"/>
       </defs>
       <use xlink:href="#DejaVuSans-30"/>
      </g>
     </g>
    </g>
    <g id="xtick_2">
     <g id="line2d_2">
      <g>
       <use xlink:href="#m746a7a0394" x="140.52979" y="297.16" style="stroke: #000000; stroke-width: 0.8"/>
      </g>
     </g>
     <g id="text_2">
      <!-- 100 -->
      <g transform="translate(130.98604 311.758438) scale(0.1 -0.1)">
       <defs>
        <path id="DejaVuSans-31" d="M 794 531 
L 1825 531 
L 1825 4091 
L 703 3866 
L 703 4441 
L 1819 4666 
L 2450 4666 
L 2450 531 
L 3481 531 
L 3481 0 
L 794 0 
L 794 531 
z
" transform="scale(0.015625)"/>
       </defs>
       <use xlink:href="#DejaVuSans-31"/>
       <use xlink:href="#DejaVuSans-30" x="63.623047"/>
       <use xlink:href="#DejaVuSans-30" x="127.246094"/>
      </g>
     </g>
    </g>
    <g id="xtick_3">
     <g id="line2d_3">
      <g>
       <use xlink:href="#m746a7a0394" x="199.50458" y="297.16" style="stroke: #000000; stroke-width: 0.8"/>
      </g>
     </g>
     <g id="text_3">
      <!-- 200 -->
      <g transform="translate(189.96083 311.758438) scale(0.1 -0.1)">
       <defs>
        <path id="DejaVuSans-32" d="M 1228 531 
L 3431 531 
L 3431 0 
L 469 0 
L 469 531 
Q 828 903 1448 1529 
Q 2069 2156 2228 2338 
Q 2531 2678 2651 2914 
Q 2772 3150 2772 3378 
Q 2772 3750 2511 3984 
Q 2250 4219 1831 4219 
Q 1534 4219 1204 4116 
Q 875 4013 500 3803 
L 500 4441 
Q 881 4594 1212 4672 
Q 1544 4750 1819 4750 
Q 2544 4750 2975 4387 
Q 3406 4025 3406 3419 
Q 3406 3131 3298 2873 
Q 3191 2616 2906 2266 
Q 2828 2175 2409 1742 
Q 1991 1309 1228 531 
z
" transform="scale(0.015625)"/>
       </defs>
       <use xlink:href="#DejaVuSans-32"/>
       <use xlink:href="#DejaVuSans-30" x="63.623047"/>
       <use xlink:href="#DejaVuSans-30" x="127.246094"/>
      </g>
     </g>
    </g>
    <g id="xtick_4">
     <g id="line2d_4">
      <g>
       <use xlink:href="#m746a7a0394" x="258.47937" y="297.16" style="stroke: #000000; stroke-width: 0.8"/>
      </g>
     </g>
     <g id="text_4">
      <!-- 300 -->
      <g transform="translate(248.93562 311.758438) scale(0.1 -0.1)">
       <defs>
        <path id="DejaVuSans-33" d="M 2597 2516 
Q 3050 2419 3304 2112 
Q 3559 1806 3559 1356 
Q 3559 666 3084 287 
Q 2609 -91 1734 -91 
Q 1441 -91 1130 -33 
Q 819 25 488 141 
L 488 750 
Q 750 597 1062 519 
Q 1375 441 1716 441 
Q 2309 441 2620 675 
Q 2931 909 2931 1356 
Q 2931 1769 2642 2001 
Q 2353 2234 1838 2234 
L 1294 2234 
L 1294 2753 
L 1863 2753 
Q 2328 2753 2575 2939 
Q 2822 3125 2822 3475 
Q 2822 3834 2567 4026 
Q 2313 4219 1838 4219 
Q 1578 4219 1281 4162 
Q 984 4106 628 3988 
L 628 4550 
Q 988 4650 1302 4700 
Q 1616 4750 1894 4750 
Q 2613 4750 3031 4423 
Q 3450 4097 3450 3541 
Q 3450 3153 3228 2886 
Q 3006 2619 2597 2516 
z
" transform="scale(0.015625)"/>
       </defs>
       <use xlink:href="#DejaVuSans-33"/>
       <use xlink:href="#DejaVuSans-30" x="63.623047"/>
       <use xlink:href="#DejaVuSans-30" x="127.246094"/>
      </g>
     </g>
    </g>
    <g id="xtick_5">
     <g id="line2d_5">
      <g>
       <use xlink:href="#m746a7a0394" x="317.45416" y="297.16" style="stroke: #000000; stroke-width: 0.8"/>
      </g>
     </g>
     <g id="text_5">
      <!-- 400 -->
      <g transform="translate(307.91041 311.758438) scale(0.1 -0.1)">
       <defs>
        <path id="DejaVuSans-34" d="M 2419 4116 
L 825 1625 
L 2419 1625 
L 2419 4116 
z
M 2253 4666 
L 3047 4666 
L 3047 1625 
L 3713 1625 
L 3713 1100 
L 3047 1100 
L 3047 0 
L 2419 0 
L 2419 1100 
L 313 1100 
L 313 1709 
L 2253 4666 
z
" transform="scale(0.015625)"/>
       </defs>
       <use xlink:href="#DejaVuSans-34"/>
       <use xlink:href="#DejaVuSans-30" x="63.623047"/>
       <use xlink:href="#DejaVuSans-30" x="127.246094"/>
      </g>
     </g>
    </g>
    <g id="xtick_6">
     <g id="line2d_6">
      <g>
       <use xlink:href="#m746a7a0394" x="376.42895" y="297.16" style="stroke: #000000; stroke-width: 0.8"/>
      </g>
     </g>
     <g id="text_6">
      <!-- 500 -->
      <g transform="translate(366.8852 311.758438) scale(0.1 -0.1)">
       <defs>
        <path id="DejaVuSans-35" d="M 691 4666 
L 3169 4666 
L 3169 4134 
L 1269 4134 
L 1269 2991 
Q 1406 3038 1543 3061 
Q 1681 3084 1819 3084 
Q 2600 3084 3056 2656 
Q 3513 2228 3513 1497 
Q 3513 744 3044 326 
Q 2575 -91 1722 -91 
Q 1428 -91 1123 -41 
Q 819 9 494 109 
L 494 744 
Q 775 591 1075 516 
Q 1375 441 1709 441 
Q 2250 441 2565 725 
Q 2881 1009 2881 1497 
Q 2881 1984 2565 2268 
Q 2250 2553 1709 2553 
Q 1456 2553 1204 2497 
Q 953 2441 691 2322 
L 691 4666 
z
" transform="scale(0.015625)"/>
       </defs>
       <use xlink:href="#DejaVuSans-35"/>
       <use xlink:href="#DejaVuSans-30" x="63.623047"/>
       <use xlink:href="#DejaVuSans-30" x="127.246094"/>
      </g>
     </g>
    </g>
    <g id="xtick_7">
     <g id="line2d_7">
      <g>
       <use xlink:href="#m746a7a0394" x="435.403739" y="297.16" style="stroke: #000000; stroke-width: 0.8"/>
      </g>
     </g>
     <g id="text_7">
      <!-- 600 -->
      <g transform="translate(425.859989 311.758438) scale(0.1 -0.1)">
       <defs>
        <path id="DejaVuSans-36" d="M 2113 2584 
Q 1688 2584 1439 2293 
Q 1191 2003 1191 1497 
Q 1191 994 1439 701 
Q 1688 409 2113 409 
Q 2538 409 2786 701 
Q 3034 994 3034 1497 
Q 3034 2003 2786 2293 
Q 2538 2584 2113 2584 
z
M 3366 4563 
L 3366 3988 
Q 3128 4100 2886 4159 
Q 2644 4219 2406 4219 
Q 1781 4219 1451 3797 
Q 1122 3375 1075 2522 
Q 1259 2794 1537 2939 
Q 1816 3084 2150 3084 
Q 2853 3084 3261 2657 
Q 3669 2231 3669 1497 
Q 3669 778 3244 343 
Q 2819 -91 2113 -91 
Q 1303 -91 875 529 
Q 447 1150 447 2328 
Q 447 3434 972 4092 
Q 1497 4750 2381 4750 
Q 2619 4750 2861 4703 
Q 3103 4656 3366 4563 
z
" transform="scale(0.015625)"/>
       </defs>
       <use xlink:href="#DejaVuSans-36"/>
       <use xlink:href="#DejaVuSans-30" x="63.623047"/>
       <use xlink:href="#DejaVuSans-30" x="127.246094"/>
      </g>
     </g>
    </g>
    <g id="text_8">
     <!-- Distance from Center $(\mu m)$ -->
     <g transform="translate(162.925 328.478125) scale(0.14 -0.14)">
      <defs>
       <path id="DejaVuSans-44" d="M 1259 4147 
L 1259 519 
L 2022 519 
Q 2988 519 3436 956 
Q 3884 1394 3884 2338 
Q 3884 3275 3436 3711 
Q 2988 4147 2022 4147 
L 1259 4147 
z
M 628 4666 
L 1925 4666 
Q 3281 4666 3915 4102 
Q 4550 3538 4550 2338 
Q 4550 1131 3912 565 
Q 3275 0 1925 0 
L 628 0 
L 628 4666 
z
" transform="scale(0.015625)"/>
       <path id="DejaVuSans-69" d="M 603 3500 
L 1178 3500 
L 1178 0 
L 603 0 
L 603 3500 
z
M 603 4863 
L 1178 4863 
L 1178 4134 
L 603 4134 
L 603 4863 
z
" transform="scale(0.015625)"/>
       <path id="DejaVuSans-73" d="M 2834 3397 
L 2834 2853 
Q 2591 2978 2328 3040 
Q 2066 3103 1784 3103 
Q 1356 3103 1142 2972 
Q 928 2841 928 2578 
Q 928 2378 1081 2264 
Q 1234 2150 1697 2047 
L 1894 2003 
Q 2506 1872 2764 1633 
Q 3022 1394 3022 966 
Q 3022 478 2636 193 
Q 2250 -91 1575 -91 
Q 1294 -91 989 -36 
Q 684 19 347 128 
L 347 722 
Q 666 556 975 473 
Q 1284 391 1588 391 
Q 1994 391 2212 530 
Q 2431 669 2431 922 
Q 2431 1156 2273 1281 
Q 2116 1406 1581 1522 
L 1381 1569 
Q 847 1681 609 1914 
Q 372 2147 372 2553 
Q 372 3047 722 3315 
Q 1072 3584 1716 3584 
Q 2034 3584 2315 3537 
Q 2597 3491 2834 3397 
z
" transform="scale(0.015625)"/>
       <path id="DejaVuSans-74" d="M 1172 4494 
L 1172 3500 
L 2356 3500 
L 2356 3053 
L 1172 3053 
L 1172 1153 
Q 1172 725 1289 603 
Q 1406 481 1766 481 
L 2356 481 
L 2356 0 
L 1766 0 
Q 1100 0 847 248 
Q 594 497 594 1153 
L 594 3053 
L 172 3053 
L 172 3500 
L 594 3500 
L 594 4494 
L 1172 4494 
z
" transform="scale(0.015625)"/>
       <path id="DejaVuSans-61" d="M 2194 1759 
Q 1497 1759 1228 1600 
Q 959 1441 959 1056 
Q 959 750 1161 570 
Q 1363 391 1709 391 
Q 2188 391 2477 730 
Q 2766 1069 2766 1631 
L 2766 1759 
L 2194 1759 
z
M 3341 1997 
L 3341 0 
L 2766 0 
L 2766 531 
Q 2569 213 2275 61 
Q 1981 -91 1556 -91 
Q 1019 -91 701 211 
Q 384 513 384 1019 
Q 384 1609 779 1909 
Q 1175 2209 1959 2209 
L 2766 2209 
L 2766 2266 
Q 2766 2663 2505 2880 
Q 2244 3097 1772 3097 
Q 1472 3097 1187 3025 
Q 903 2953 641 2809 
L 641 3341 
Q 956 3463 1253 3523 
Q 1550 3584 1831 3584 
Q 2591 3584 2966 3190 
Q 3341 2797 3341 1997 
z
" transform="scale(0.015625)"/>
       <path id="DejaVuSans-6e" d="M 3513 2113 
L 3513 0 
L 2938 0 
L 2938 2094 
Q 2938 2591 2744 2837 
Q 2550 3084 2163 3084 
Q 1697 3084 1428 2787 
Q 1159 2491 1159 1978 
L 1159 0 
L 581 0 
L 581 3500 
L 1159 3500 
L 1159 2956 
Q 1366 3272 1645 3428 
Q 1925 3584 2291 3584 
Q 2894 3584 3203 3211 
Q 3513 2838 3513 2113 
z
" transform="scale(0.015625)"/>
       <path id="DejaVuSans-63" d="M 3122 3366 
L 3122 2828 
Q 2878 2963 2633 3030 
Q 2388 3097 2138 3097 
Q 1578 3097 1268 2742 
Q 959 2388 959 1747 
Q 959 1106 1268 751 
Q 1578 397 2138 397 
Q 2388 397 2633 464 
Q 2878 531 3122 666 
L 3122 134 
Q 2881 22 2623 -34 
Q 2366 -91 2075 -91 
Q 1284 -91 818 406 
Q 353 903 353 1747 
Q 353 2603 823 3093 
Q 1294 3584 2113 3584 
Q 2378 3584 2631 3529 
Q 2884 3475 3122 3366 
z
" transform="scale(0.015625)"/>
       <path id="DejaVuSans-65" d="M 3597 1894 
L 3597 1613 
L 953 1613 
Q 991 1019 1311 708 
Q 1631 397 2203 397 
Q 2534 397 2845 478 
Q 3156 559 3463 722 
L 3463 178 
Q 3153 47 2828 -22 
Q 2503 -91 2169 -91 
Q 1331 -91 842 396 
Q 353 884 353 1716 
Q 353 2575 817 3079 
Q 1281 3584 2069 3584 
Q 2775 3584 3186 3129 
Q 3597 2675 3597 1894 
z
M 3022 2063 
Q 3016 2534 2758 2815 
Q 2500 3097 2075 3097 
Q 1594 3097 1305 2825 
Q 1016 2553 972 2059 
L 3022 2063 
z
" transform="scale(0.015625)"/>
       <path id="DejaVuSans-20" transform="scale(0.015625)"/>
       <path id="DejaVuSans-66" d="M 2375 4863 
L 2375 4384 
L 1825 4384 
Q 1516 4384 1395 4259 
Q 1275 4134 1275 3809 
L 1275 3500 
L 2222 3500 
L 2222 3053 
L 1275 3053 
L 1275 0 
L 697 0 
L 697 3053 
L 147 3053 
L 147 3500 
L 697 3500 
L 697 3744 
Q 697 4328 969 4595 
Q 1241 4863 1831 4863 
L 2375 4863 
z
" transform="scale(0.015625)"/>
       <path id="DejaVuSans-72" d="M 2631 2963 
Q 2534 3019 2420 3045 
Q 2306 3072 2169 3072 
Q 1681 3072 1420 2755 
Q 1159 2438 1159 1844 
L 1159 0 
L 581 0 
L 581 3500 
L 1159 3500 
L 1159 2956 
Q 1341 3275 1631 3429 
Q 1922 3584 2338 3584 
Q 2397 3584 2469 3576 
Q 2541 3569 2628 3553 
L 2631 2963 
z
" transform="scale(0.015625)"/>
       <path id="DejaVuSans-6f" d="M 1959 3097 
Q 1497 3097 1228 2736 
Q 959 2375 959 1747 
Q 959 1119 1226 758 
Q 1494 397 1959 397 
Q 2419 397 2687 759 
Q 2956 1122 2956 1747 
Q 2956 2369 2687 2733 
Q 2419 3097 1959 3097 
z
M 1959 3584 
Q 2709 3584 3137 3096 
Q 3566 2609 3566 1747 
Q 3566 888 3137 398 
Q 2709 -91 1959 -91 
Q 1206 -91 779 398 
Q 353 888 353 1747 
Q 353 2609 779 3096 
Q 1206 3584 1959 3584 
z
" transform="scale(0.015625)"/>
       <path id="DejaVuSans-6d" d="M 3328 2828 
Q 3544 3216 3844 3400 
Q 4144 3584 4550 3584 
Q 5097 3584 5394 3201 
Q 5691 2819 5691 2113 
L 5691 0 
L 5113 0 
L 5113 2094 
Q 5113 2597 4934 2840 
Q 4756 3084 4391 3084 
Q 3944 3084 3684 2787 
Q 3425 2491 3425 1978 
L 3425 0 
L 2847 0 
L 2847 2094 
Q 2847 2600 2669 2842 
Q 2491 3084 2119 3084 
Q 1678 3084 1418 2786 
Q 1159 2488 1159 1978 
L 1159 0 
L 581 0 
L 581 3500 
L 1159 3500 
L 1159 2956 
Q 1356 3278 1631 3431 
Q 1906 3584 2284 3584 
Q 2666 3584 2933 3390 
Q 3200 3197 3328 2828 
z
" transform="scale(0.015625)"/>
       <path id="DejaVuSans-43" d="M 4122 4306 
L 4122 3641 
Q 3803 3938 3442 4084 
Q 3081 4231 2675 4231 
Q 1875 4231 1450 3742 
Q 1025 3253 1025 2328 
Q 1025 1406 1450 917 
Q 1875 428 2675 428 
Q 3081 428 3442 575 
Q 3803 722 4122 1019 
L 4122 359 
Q 3791 134 3420 21 
Q 3050 -91 2638 -91 
Q 1578 -91 968 557 
Q 359 1206 359 2328 
Q 359 3453 968 4101 
Q 1578 4750 2638 4750 
Q 3056 4750 3426 4639 
Q 3797 4528 4122 4306 
z
" transform="scale(0.015625)"/>
       <path id="DejaVuSans-28" d="M 1984 4856 
Q 1566 4138 1362 3434 
Q 1159 2731 1159 2009 
Q 1159 1288 1364 580 
Q 1569 -128 1984 -844 
L 1484 -844 
Q 1016 -109 783 600 
Q 550 1309 550 2009 
Q 550 2706 781 3412 
Q 1013 4119 1484 4856 
L 1984 4856 
z
" transform="scale(0.015625)"/>
       <path id="DejaVuSans-Oblique-3bc" d="M -84 -1331 
L 856 3500 
L 1434 3500 
L 1009 1322 
Q 997 1256 987 1175 
Q 978 1094 978 1013 
Q 978 722 1161 565 
Q 1344 409 1684 409 
Q 2147 409 2431 671 
Q 2716 934 2816 1459 
L 3213 3500 
L 3788 3500 
L 3266 809 
Q 3253 750 3248 706 
Q 3244 663 3244 628 
Q 3244 531 3283 486 
Q 3322 441 3406 441 
Q 3438 441 3492 456 
Q 3547 472 3647 513 
L 3559 50 
Q 3422 -19 3297 -55 
Q 3172 -91 3053 -91 
Q 2847 -91 2730 40 
Q 2613 172 2613 403 
Q 2438 153 2195 31 
Q 1953 -91 1625 -91 
Q 1334 -91 1117 43 
Q 900 178 831 397 
L 494 -1331 
L -84 -1331 
z
" transform="scale(0.015625)"/>
       <path id="DejaVuSans-Oblique-6d" d="M 5747 2113 
L 5338 0 
L 4763 0 
L 5166 2094 
Q 5191 2228 5203 2325 
Q 5216 2422 5216 2491 
Q 5216 2772 5059 2928 
Q 4903 3084 4622 3084 
Q 4203 3084 3875 2770 
Q 3547 2456 3450 1953 
L 3066 0 
L 2491 0 
L 2900 2094 
Q 2925 2209 2937 2307 
Q 2950 2406 2950 2484 
Q 2950 2769 2794 2926 
Q 2638 3084 2363 3084 
Q 1938 3084 1609 2770 
Q 1281 2456 1184 1953 
L 800 0 
L 225 0 
L 909 3500 
L 1484 3500 
L 1375 2956 
Q 1609 3263 1923 3423 
Q 2238 3584 2597 3584 
Q 2978 3584 3223 3384 
Q 3469 3184 3519 2828 
Q 3781 3197 4126 3390 
Q 4472 3584 4856 3584 
Q 5306 3584 5551 3325 
Q 5797 3066 5797 2591 
Q 5797 2488 5784 2364 
Q 5772 2241 5747 2113 
z
" transform="scale(0.015625)"/>
       <path id="DejaVuSans-29" d="M 513 4856 
L 1013 4856 
Q 1481 4119 1714 3412 
Q 1947 2706 1947 2009 
Q 1947 1309 1714 600 
Q 1481 -109 1013 -844 
L 513 -844 
Q 928 -128 1133 580 
Q 1338 1288 1338 2009 
Q 1338 2731 1133 3434 
Q 928 4138 513 4856 
z
" transform="scale(0.015625)"/>
      </defs>
      <use xlink:href="#DejaVuSans-44" transform="translate(0 0.015625)"/>
      <use xlink:href="#DejaVuSans-69" transform="translate(77.001953 0.015625)"/>
      <use xlink:href="#DejaVuSans-73" transform="translate(104.785156 0.015625)"/>
      <use xlink:href="#DejaVuSans-74" transform="translate(156.884766 0.015625)"/>
      <use xlink:href="#DejaVuSans-61" transform="translate(196.09375 0.015625)"/>
      <use xlink:href="#DejaVuSans-6e" transform="translate(257.373047 0.015625)"/>
      <use xlink:href="#DejaVuSans-63" transform="translate(320.751953 0.015625)"/>
      <use xlink:href="#DejaVuSans-65" transform="translate(375.732422 0.015625)"/>
      <use xlink:href="#DejaVuSans-20" transform="translate(437.255859 0.015625)"/>
      <use xlink:href="#DejaVuSans-66" transform="translate(469.042969 0.015625)"/>
      <use xlink:href="#DejaVuSans-72" transform="translate(504.248047 0.015625)"/>
      <use xlink:href="#DejaVuSans-6f" transform="translate(545.361328 0.015625)"/>
      <use xlink:href="#DejaVuSans-6d" transform="translate(606.542969 0.015625)"/>
      <use xlink:href="#DejaVuSans-20" transform="translate(703.955078 0.015625)"/>
      <use xlink:href="#DejaVuSans-43" transform="translate(735.742188 0.015625)"/>
      <use xlink:href="#DejaVuSans-65" transform="translate(805.566406 0.015625)"/>
      <use xlink:href="#DejaVuSans-6e" transform="translate(867.089844 0.015625)"/>
      <use xlink:href="#DejaVuSans-74" transform="translate(930.46875 0.015625)"/>
      <use xlink:href="#DejaVuSans-65" transform="translate(969.677734 0.015625)"/>
      <use xlink:href="#DejaVuSans-72" transform="translate(1031.201172 0.015625)"/>
      <use xlink:href="#DejaVuSans-20" transform="translate(1072.314453 0.015625)"/>
      <use xlink:href="#DejaVuSans-28" transform="translate(1104.101562 0.015625)"/>
      <use xlink:href="#DejaVuSans-Oblique-3bc" transform="translate(1143.115234 0.015625)"/>
      <use xlink:href="#DejaVuSans-Oblique-6d" transform="translate(1206.738281 0.015625)"/>
      <use xlink:href="#DejaVuSans-29" transform="translate(1304.150391 0.015625)"/>
     </g>
    </g>
   </g>
   <g id="matplotlib.axis_2">
    <g id="ytick_1">
     <g id="line2d_8">
      <path d="M 64.01 290.335437 
L 450 290.335437 
" clip-path="url(#p49fb2c14a7)" style="fill: none; stroke: #f2f2f2; stroke-width: 0.8; stroke-linecap: square"/>
     </g>
     <g id="line2d_9">
      <defs>
       <path id="mb8af93f677" d="M 0 0 
L -3.5 0 
" style="stroke: #000000; stroke-width: 0.8"/>
      </defs>
      <g>
       <use xlink:href="#mb8af93f677" x="64.01" y="290.335437" style="stroke: #000000; stroke-width: 0.8"/>
      </g>
     </g>
     <g id="text_9">
      <!-- 0.180 -->
      <g transform="translate(28.381875 294.134655) scale(0.1 -0.1)">
       <defs>
        <path id="DejaVuSans-2e" d="M 684 794 
L 1344 794 
L 1344 0 
L 684 0 
L 684 794 
z
" transform="scale(0.015625)"/>
        <path id="DejaVuSans-38" d="M 2034 2216 
Q 1584 2216 1326 1975 
Q 1069 1734 1069 1313 
Q 1069 891 1326 650 
Q 1584 409 2034 409 
Q 2484 409 2743 651 
Q 3003 894 3003 1313 
Q 3003 1734 2745 1975 
Q 2488 2216 2034 2216 
z
M 1403 2484 
Q 997 2584 770 2862 
Q 544 3141 544 3541 
Q 544 4100 942 4425 
Q 1341 4750 2034 4750 
Q 2731 4750 3128 4425 
Q 3525 4100 3525 3541 
Q 3525 3141 3298 2862 
Q 3072 2584 2669 2484 
Q 3125 2378 3379 2068 
Q 3634 1759 3634 1313 
Q 3634 634 3220 271 
Q 2806 -91 2034 -91 
Q 1263 -91 848 271 
Q 434 634 434 1313 
Q 434 1759 690 2068 
Q 947 2378 1403 2484 
z
M 1172 3481 
Q 1172 3119 1398 2916 
Q 1625 2713 2034 2713 
Q 2441 2713 2670 2916 
Q 2900 3119 2900 3481 
Q 2900 3844 2670 4047 
Q 2441 4250 2034 4250 
Q 1625 4250 1398 4047 
Q 1172 3844 1172 3481 
z
" transform="scale(0.015625)"/>
       </defs>
       <use xlink:href="#DejaVuSans-30"/>
       <use xlink:href="#DejaVuSans-2e" x="63.623047"/>
       <use xlink:href="#DejaVuSans-31" x="95.410156"/>
       <use xlink:href="#DejaVuSans-38" x="159.033203"/>
       <use xlink:href="#DejaVuSans-30" x="222.65625"/>
      </g>
     </g>
    </g>
    <g id="ytick_2">
     <g id="line2d_10">
      <path d="M 64.01 233.818446 
L 450 233.818446 
" clip-path="url(#p49fb2c14a7)" style="fill: none; stroke: #f2f2f2; stroke-width: 0.8; stroke-linecap: square"/>
     </g>
     <g id="line2d_11">
      <g>
       <use xlink:href="#mb8af93f677" x="64.01" y="233.818446" style="stroke: #000000; stroke-width: 0.8"/>
      </g>
     </g>
     <g id="text_10">
      <!-- 0.185 -->
      <g transform="translate(28.381875 237.617665) scale(0.1 -0.1)">
       <use xlink:href="#DejaVuSans-30"/>
       <use xlink:href="#DejaVuSans-2e" x="63.623047"/>
       <use xlink:href="#DejaVuSans-31" x="95.410156"/>
       <use xlink:href="#DejaVuSans-38" x="159.033203"/>
       <use xlink:href="#DejaVuSans-35" x="222.65625"/>
      </g>
     </g>
    </g>
    <g id="ytick_3">
     <g id="line2d_12">
      <path d="M 64.01 177.301456 
L 450 177.301456 
" clip-path="url(#p49fb2c14a7)" style="fill: none; stroke: #f2f2f2; stroke-width: 0.8; stroke-linecap: square"/>
     </g>
     <g id="line2d_13">
      <g>
       <use xlink:href="#mb8af93f677" x="64.01" y="177.301456" style="stroke: #000000; stroke-width: 0.8"/>
      </g>
     </g>
     <g id="text_11">
      <!-- 0.190 -->
      <g transform="translate(28.381875 181.100675) scale(0.1 -0.1)">
       <defs>
        <path id="DejaVuSans-39" d="M 703 97 
L 703 672 
Q 941 559 1184 500 
Q 1428 441 1663 441 
Q 2288 441 2617 861 
Q 2947 1281 2994 2138 
Q 2813 1869 2534 1725 
Q 2256 1581 1919 1581 
Q 1219 1581 811 2004 
Q 403 2428 403 3163 
Q 403 3881 828 4315 
Q 1253 4750 1959 4750 
Q 2769 4750 3195 4129 
Q 3622 3509 3622 2328 
Q 3622 1225 3098 567 
Q 2575 -91 1691 -91 
Q 1453 -91 1209 -44 
Q 966 3 703 97 
z
M 1959 2075 
Q 2384 2075 2632 2365 
Q 2881 2656 2881 3163 
Q 2881 3666 2632 3958 
Q 2384 4250 1959 4250 
Q 1534 4250 1286 3958 
Q 1038 3666 1038 3163 
Q 1038 2656 1286 2365 
Q 1534 2075 1959 2075 
z
" transform="scale(0.015625)"/>
       </defs>
       <use xlink:href="#DejaVuSans-30"/>
       <use xlink:href="#DejaVuSans-2e" x="63.623047"/>
       <use xlink:href="#DejaVuSans-31" x="95.410156"/>
       <use xlink:href="#DejaVuSans-39" x="159.033203"/>
       <use xlink:href="#DejaVuSans-30" x="222.65625"/>
      </g>
     </g>
    </g>
    <g id="ytick_4">
     <g id="line2d_14">
      <path d="M 64.01 120.784466 
L 450 120.784466 
" clip-path="url(#p49fb2c14a7)" style="fill: none; stroke: #f2f2f2; stroke-width: 0.8; stroke-linecap: square"/>
     </g>
     <g id="line2d_15">
      <g>
       <use xlink:href="#mb8af93f677" x="64.01" y="120.784466" style="stroke: #000000; stroke-width: 0.8"/>
      </g>
     </g>
     <g id="text_12">
      <!-- 0.195 -->
      <g transform="translate(28.381875 124.583685) scale(0.1 -0.1)">
       <use xlink:href="#DejaVuSans-30"/>
       <use xlink:href="#DejaVuSans-2e" x="63.623047"/>
       <use xlink:href="#DejaVuSans-31" x="95.410156"/>
       <use xlink:href="#DejaVuSans-39" x="159.033203"/>
       <use xlink:href="#DejaVuSans-35" x="222.65625"/>
      </g>
     </g>
    </g>
    <g id="ytick_5">
     <g id="line2d_16">
      <path d="M 64.01 64.267476 
L 450 64.267476 
" clip-path="url(#p49fb2c14a7)" style="fill: none; stroke: #f2f2f2; stroke-width: 0.8; stroke-linecap: square"/>
     </g>
     <g id="line2d_17">
      <g>
       <use xlink:href="#mb8af93f677" x="64.01" y="64.267476" style="stroke: #000000; stroke-width: 0.8"/>
      </g>
     </g>
     <g id="text_13">
      <!-- 0.200 -->
      <g transform="translate(28.381875 68.066694) scale(0.1 -0.1)">
       <use xlink:href="#DejaVuSans-30"/>
       <use xlink:href="#DejaVuSans-2e" x="63.623047"/>
       <use xlink:href="#DejaVuSans-32" x="95.410156"/>
       <use xlink:href="#DejaVuSans-30" x="159.033203"/>
       <use xlink:href="#DejaVuSans-30" x="222.65625"/>
      </g>
     </g>
    </g>
    <g id="text_14">
     <!-- Concentration (mM) -->
     <g transform="translate(21.470313 232.444531) rotate(-90) scale(0.14 -0.14)">
      <defs>
       <path id="DejaVuSans-4d" d="M 628 4666 
L 1569 4666 
L 2759 1491 
L 3956 4666 
L 4897 4666 
L 4897 0 
L 4281 0 
L 4281 4097 
L 3078 897 
L 2444 897 
L 1241 4097 
L 1241 0 
L 628 0 
L 628 4666 
z
" transform="scale(0.015625)"/>
      </defs>
      <use xlink:href="#DejaVuSans-43"/>
      <use xlink:href="#DejaVuSans-6f" x="69.824219"/>
      <use xlink:href="#DejaVuSans-6e" x="131.005859"/>
      <use xlink:href="#DejaVuSans-63" x="194.384766"/>
      <use xlink:href="#DejaVuSans-65" x="249.365234"/>
      <use xlink:href="#DejaVuSans-6e" x="310.888672"/>
      <use xlink:href="#DejaVuSans-74" x="374.267578"/>
      <use xlink:href="#DejaVuSans-72" x="413.476562"/>
      <use xlink:href="#DejaVuSans-61" x="454.589844"/>
      <use xlink:href="#DejaVuSans-74" x="515.869141"/>
      <use xlink:href="#DejaVuSans-69" x="555.078125"/>
      <use xlink:href="#DejaVuSans-6f" x="582.861328"/>
      <use xlink:href="#DejaVuSans-6e" x="644.042969"/>
      <use xlink:href="#DejaVuSans-20" x="707.421875"/>
      <use xlink:href="#DejaVuSans-28" x="739.208984"/>
      <use xlink:href="#DejaVuSans-6d" x="778.222656"/>
      <use xlink:href="#DejaVuSans-4d" x="875.634766"/>
      <use xlink:href="#DejaVuSans-29" x="961.914062"/>
     </g>
    </g>
   </g>
   <g id="line2d_18">
    <path d="M 81.555 73.278762 
L 85.683235 72.77068 
L 89.811471 71.242756 
L 93.939706 68.686079 
L 98.067941 65.0871 
L 102.196176 60.427911 
L 106.324412 54.686608 
L 110.452647 47.837727 
L 114.580882 39.852727 
" clip-path="url(#p49fb2c14a7)" style="fill: none; stroke: #1f77b4; stroke-opacity: 0.9; stroke-width: 3; stroke-linecap: square"/>
   </g>
   <g id="line2d_19">
    <path d="M 81.555 176.384841 
L 85.683235 175.99719 
L 89.811471 174.82826 
L 93.939706 172.863537 
L 98.067941 170.080906 
L 102.196176 166.451072 
L 106.324412 161.938152 
L 110.452647 156.500418 
L 114.580882 150.091182 
L 118.709118 142.659789 
L 122.837353 134.152684 
L 126.965588 124.514504 
L 131.093824 113.689147 
L 135.222059 101.620756 
L 139.350294 88.254594 
L 143.478529 73.537758 
L 147.606765 57.419726 
L 151.735 39.852727 
" clip-path="url(#p49fb2c14a7)" style="fill: none; stroke: #ff7f0e; stroke-opacity: 0.9; stroke-width: 3; stroke-linecap: square"/>
   </g>
   <g id="line2d_20">
    <path d="M 81.555 265.485567 
L 85.683235 265.366174 
L 89.811471 265.002181 
L 93.939706 264.379082 
L 98.067941 263.473745 
L 102.196176 262.253608 
L 106.324412 260.675718 
L 110.452647 258.685693 
L 114.580882 256.216746 
L 118.709118 253.188996 
L 122.837353 249.5093 
L 126.965588 245.071899 
L 131.093824 239.7601 
L 135.222059 233.449093 
L 139.350294 226.00981 
L 143.478529 217.313446 
L 147.606765 207.236136 
L 151.735 195.663131 
L 155.863235 182.49198 
L 159.991471 167.634411 
L 164.119706 151.016872 
L 168.247941 132.579922 
L 172.376176 112.276815 
L 176.504412 90.071598 
L 180.632647 65.937058 
L 184.760882 39.852727 
" clip-path="url(#p49fb2c14a7)" style="fill: none; stroke: #2ca02c; stroke-opacity: 0.9; stroke-width: 3; stroke-linecap: square"/>
   </g>
   <g id="line2d_21">
    <path d="M 81.555 283.972779 
L 85.683235 283.971301 
L 89.811471 283.966762 
L 93.939706 283.958898 
L 98.067941 283.947269 
L 102.196176 283.931218 
L 106.324412 283.909807 
L 110.452647 283.881727 
L 114.580882 283.845157 
L 118.709118 283.797565 
L 122.837353 283.735413 
L 126.965588 283.653717 
L 131.093824 283.545391 
L 135.222059 283.400267 
L 139.350294 283.203595 
L 143.478529 282.933779 
L 147.606765 282.558933 
L 151.735 282.031689 
L 155.863235 281.281529 
L 159.991471 280.203874 
L 164.119706 278.645625 
L 168.247941 276.388445 
L 172.376176 273.134423 
L 176.504412 268.503475 
L 180.632647 262.053979 
L 184.760882 253.331285 
L 188.889118 241.931822 
L 193.017353 227.556699 
L 197.145588 210.033652 
L 201.273824 189.305764 
L 205.402059 165.401037 
L 209.530294 138.398737 
L 213.658529 108.401963 
L 217.786765 75.519057 
L 221.915 39.852727 
" clip-path="url(#p49fb2c14a7)" style="fill: none; stroke: #d62728; stroke-opacity: 0.9; stroke-width: 3; stroke-linecap: square"/>
   </g>
   <g id="line2d_22">
    <path d="M 81.555 284.274337 
L 85.683235 284.274334 
L 89.811471 284.274325 
L 93.939706 284.274309 
L 98.067941 284.274285 
L 102.196176 284.274252 
L 106.324412 284.274208 
L 110.452647 284.27415 
L 114.580882 284.274075 
L 118.709118 284.273978 
L 122.837353 284.273851 
L 126.965588 284.273683 
L 131.093824 284.273461 
L 135.222059 284.273163 
L 139.350294 284.272758 
L 143.478529 284.2722 
L 147.606765 284.27142 
L 151.735 284.270312 
L 155.863235 284.26871 
L 159.991471 284.266352 
L 164.119706 284.262818 
L 168.247941 284.257416 
L 172.376176 284.248989 
L 176.504412 284.235567 
L 180.632647 284.213721 
L 184.760882 284.177363 
L 188.889118 284.115463 
L 193.017353 284.007635 
L 197.145588 283.815504 
L 201.273824 283.46582 
L 205.402059 282.817994 
L 209.530294 281.605382 
L 213.658529 279.343996 
L 217.786765 275.237078 
L 221.915 268.181868 
L 226.043235 257.002509 
L 230.171471 240.822668 
L 234.299706 219.281035 
L 238.427941 192.465162 
L 242.556176 160.712023 
L 246.684412 124.436659 
L 250.812647 84.03639 
L 254.940882 39.852727 
" clip-path="url(#p49fb2c14a7)" style="fill: none; stroke: #9467bd; stroke-opacity: 0.9; stroke-width: 3; stroke-linecap: square"/>
   </g>
   <g id="line2d_23">
    <path d="M 81.555 284.392998 
L 85.683235 284.392998 
L 89.811471 284.392998 
L 93.939706 284.392998 
L 98.067941 284.392998 
L 102.196176 284.392998 
L 106.324412 284.392998 
L 110.452647 284.392998 
L 114.580882 284.392998 
L 118.709118 284.392998 
L 122.837353 284.392998 
L 126.965588 284.392998 
L 131.093824 284.392998 
L 135.222059 284.392998 
L 139.350294 284.392998 
L 143.478529 284.392998 
L 147.606765 284.392998 
L 151.735 284.392998 
L 155.863235 284.392998 
L 159.991471 284.392998 
L 164.119706 284.392998 
L 168.247941 284.392997 
L 172.376176 284.392997 
L 176.504412 284.392996 
L 180.632647 284.392995 
L 184.760882 284.392993 
L 188.889118 284.39299 
L 193.017353 284.392984 
L 197.145588 284.392974 
L 201.273824 284.392955 
L 205.402059 284.39292 
L 209.530294 284.392854 
L 213.658529 284.392721 
L 217.786765 284.392452 
L 221.915 284.391888 
L 226.043235 284.390665 
L 230.171471 284.387926 
L 234.299706 284.381583 
L 238.427941 284.366366 
L 242.556176 284.328508 
L 246.684412 284.230834 
L 250.812647 283.970123 
L 254.940882 283.257348 
L 259.069118 281.320176 
L 263.197353 276.422396 
L 267.325588 265.871178 
L 271.453824 247.330658 
L 275.582059 220.061115 
L 279.710294 184.649414 
L 283.838529 142.159666 
L 287.966765 93.618389 
L 292.095 39.852727 
" clip-path="url(#p49fb2c14a7)" style="fill: none; stroke: #8c564b; stroke-opacity: 0.9; stroke-width: 3; stroke-linecap: square"/>
   </g>
   <g id="line2d_24">
    <path d="M 81.555 284.509744 
L 85.683235 284.509744 
L 89.811471 284.509744 
L 93.939706 284.509744 
L 98.067941 284.509744 
L 102.196176 284.509744 
L 106.324412 284.509744 
L 110.452647 284.509744 
L 114.580882 284.509744 
L 118.709118 284.509744 
L 122.837353 284.509744 
L 126.965588 284.509744 
L 131.093824 284.509744 
L 135.222059 284.509744 
L 139.350294 284.509744 
L 143.478529 284.509744 
L 147.606765 284.509744 
L 151.735 284.509744 
L 155.863235 284.509744 
L 159.991471 284.509744 
L 164.119706 284.509744 
L 168.247941 284.509744 
L 172.376176 284.509744 
L 176.504412 284.509744 
L 180.632647 284.509744 
L 184.760882 284.509744 
L 188.889118 284.509744 
L 193.017353 284.509744 
L 197.145588 284.509744 
L 201.273824 284.509744 
L 205.402059 284.509744 
L 209.530294 284.509744 
L 213.658529 284.509744 
L 217.786765 284.509744 
L 221.915 284.509744 
L 226.043235 284.509744 
L 230.171471 284.509744 
L 234.299706 284.509744 
L 238.427941 284.509744 
L 242.556176 284.509744 
L 246.684412 284.509744 
L 250.812647 284.509744 
L 254.940882 284.509744 
L 259.069118 284.509742 
L 263.197353 284.509739 
L 267.325588 284.509727 
L 271.453824 284.509689 
L 275.582059 284.509556 
L 279.710294 284.509068 
L 283.838529 284.507159 
L 287.966765 284.499215 
L 292.095 284.463845 
L 296.223235 284.295675 
L 300.351471 283.466075 
L 304.479706 279.760554 
L 308.607941 268.087848 
L 312.736176 244.008157 
L 316.864412 207.16553 
L 320.992647 159.518452 
L 325.120882 103.200388 
L 329.249118 39.852727 
" clip-path="url(#p49fb2c14a7)" style="fill: none; stroke: #e377c2; stroke-opacity: 0.9; stroke-width: 3; stroke-linecap: square"/>
   </g>
   <g id="line2d_25">
    <path d="M 81.555 284.613358 
L 85.683235 284.613358 
L 89.811471 284.613358 
L 93.939706 284.613358 
L 98.067941 284.613358 
L 102.196176 284.613358 
L 106.324412 284.613358 
L 110.452647 284.613358 
L 114.580882 284.613358 
L 118.709118 284.613358 
L 122.837353 284.613358 
L 126.965588 284.613358 
L 131.093824 284.613358 
L 135.222059 284.613358 
L 139.350294 284.613358 
L 143.478529 284.613358 
L 147.606765 284.613358 
L 151.735 284.613358 
L 155.863235 284.613358 
L 159.991471 284.613358 
L 164.119706 284.613358 
L 168.247941 284.613358 
L 172.376176 284.613358 
L 176.504412 284.613358 
L 180.632647 284.613358 
L 184.760882 284.613358 
L 188.889118 284.613358 
L 193.017353 284.613358 
L 197.145588 284.613358 
L 201.273824 284.613358 
L 205.402059 284.613358 
L 209.530294 284.613358 
L 213.658529 284.613358 
L 217.786765 284.613358 
L 221.915 284.613358 
L 226.043235 284.613358 
L 230.171471 284.613358 
L 234.299706 284.613358 
L 238.427941 284.613358 
L 242.556176 284.613358 
L 246.684412 284.613358 
L 250.812647 284.613358 
L 254.940882 284.613358 
L 259.069118 284.613358 
L 263.197353 284.613358 
L 267.325588 284.613358 
L 271.453824 284.613358 
L 275.582059 284.613358 
L 279.710294 284.613358 
L 283.838529 284.613358 
L 287.966765 284.613358 
L 292.095 284.613358 
L 296.223235 284.613358 
L 300.351471 284.613358 
L 304.479706 284.613358 
L 308.607941 284.613358 
L 312.736176 284.613357 
L 316.864412 284.613355 
L 320.992647 284.613335 
L 325.120882 284.613155 
L 329.249118 284.611159 
L 333.377353 284.584355 
L 337.505588 284.154593 
L 341.633824 279.580301 
L 345.762059 261.595346 
L 349.890294 225.794655 
L 354.018529 174.614571 
L 358.146765 111.717721 
L 362.275 39.852727 
" clip-path="url(#p49fb2c14a7)" style="fill: none; stroke: #7f7f7f; stroke-opacity: 0.9; stroke-width: 3; stroke-linecap: square"/>
   </g>
   <g id="line2d_26">
    <path d="M 81.555 284.898934 
L 85.683235 284.898934 
L 89.811471 284.898934 
L 93.939706 284.898934 
L 98.067941 284.898934 
L 102.196176 284.898934 
L 106.324412 284.898934 
L 110.452647 284.898934 
L 114.580882 284.898934 
L 118.709118 284.898934 
L 122.837353 284.898934 
L 126.965588 284.898934 
L 131.093824 284.898934 
L 135.222059 284.898934 
L 139.350294 284.898934 
L 143.478529 284.898934 
L 147.606765 284.898934 
L 151.735 284.898934 
L 155.863235 284.898934 
L 159.991471 284.898934 
L 164.119706 284.898934 
L 168.247941 284.898934 
L 172.376176 284.898934 
L 176.504412 284.898934 
L 180.632647 284.898934 
L 184.760882 284.898934 
L 188.889118 284.898934 
L 193.017353 284.898934 
L 197.145588 284.898934 
L 201.273824 284.898934 
L 205.402059 284.898934 
L 209.530294 284.898934 
L 213.658529 284.898934 
L 217.786765 284.898934 
L 221.915 284.898934 
L 226.043235 284.898934 
L 230.171471 284.898934 
L 234.299706 284.898934 
L 238.427941 284.898934 
L 242.556176 284.898934 
L 246.684412 284.898934 
L 250.812647 284.898934 
L 254.940882 284.898934 
L 259.069118 284.898934 
L 263.197353 284.898934 
L 267.325588 284.898934 
L 271.453824 284.898934 
L 275.582059 284.898934 
L 279.710294 284.898934 
L 283.838529 284.898934 
L 287.966765 284.898934 
L 292.095 284.898934 
L 296.223235 284.898934 
L 300.351471 284.898934 
L 304.479706 284.898934 
L 308.607941 284.898934 
L 312.736176 284.898934 
L 316.864412 284.898934 
L 320.992647 284.898934 
L 325.120882 284.898934 
L 329.249118 284.898934 
L 333.377353 284.898934 
L 337.505588 284.898934 
L 341.633824 284.898934 
L 345.762059 284.898934 
L 349.890294 284.898934 
L 354.018529 284.898934 
L 358.146765 284.898934 
L 362.275 284.898934 
L 366.403235 284.898934 
L 370.531471 284.898934 
L 374.659706 284.898934 
L 378.787941 284.898934 
L 382.916176 276.414783 
L 387.044412 244.927545 
L 391.172647 191.185893 
L 395.300882 121.29972 
L 399.429118 39.852727 
" clip-path="url(#p49fb2c14a7)" style="fill: none; stroke: #bcbd22; stroke-opacity: 0.9; stroke-width: 3; stroke-linecap: square"/>
   </g>
   <g id="line2d_27">
    <path d="M 81.555 284.907273 
L 85.683235 284.907273 
L 89.811471 284.907273 
L 93.939706 284.907273 
L 98.067941 284.907273 
L 102.196176 284.907273 
L 106.324412 284.907273 
L 110.452647 284.907273 
L 114.580882 284.907273 
L 118.709118 284.907273 
L 122.837353 284.907273 
L 126.965588 284.907273 
L 131.093824 284.907273 
L 135.222059 284.907273 
L 139.350294 284.907273 
L 143.478529 284.907273 
L 147.606765 284.907273 
L 151.735 284.907273 
L 155.863235 284.907273 
L 159.991471 284.907273 
L 164.119706 284.907273 
L 168.247941 284.907273 
L 172.376176 284.907273 
L 176.504412 284.907273 
L 180.632647 284.907273 
L 184.760882 284.907273 
L 188.889118 284.907273 
L 193.017353 284.907273 
L 197.145588 284.907273 
L 201.273824 284.907273 
L 205.402059 284.907273 
L 209.530294 284.907273 
L 213.658529 284.907273 
L 217.786765 284.907273 
L 221.915 284.907273 
L 226.043235 284.907273 
L 230.171471 284.907273 
L 234.299706 284.907273 
L 238.427941 284.907273 
L 242.556176 284.907273 
L 246.684412 284.907273 
L 250.812647 284.907273 
L 254.940882 284.907273 
L 259.069118 284.907273 
L 263.197353 284.907273 
L 267.325588 284.907273 
L 271.453824 284.907273 
L 275.582059 284.907273 
L 279.710294 284.907273 
L 283.838529 284.907273 
L 287.966765 284.907273 
L 292.095 284.907273 
L 296.223235 284.907273 
L 300.351471 284.907273 
L 304.479706 284.907273 
L 308.607941 284.907273 
L 312.736176 284.907273 
L 316.864412 284.907273 
L 320.992647 284.907273 
L 325.120882 284.907273 
L 329.249118 284.907273 
L 333.377353 284.907273 
L 337.505588 284.907273 
L 341.633824 284.907273 
L 345.762059 284.907273 
L 349.890294 284.907273 
L 354.018529 284.907273 
L 358.146765 284.907273 
L 362.275 284.907273 
L 366.403235 284.907273 
L 370.531471 284.907273 
L 374.659706 284.907273 
L 378.787941 284.907273 
L 382.916176 284.907273 
L 387.044412 284.907273 
L 391.172647 284.907273 
L 395.300882 284.907273 
L 399.429118 284.907273 
L 403.557353 284.907273 
L 407.685588 284.907273 
L 411.813824 284.907273 
L 415.942059 284.520298 
L 420.070294 260.031593 
L 424.198529 205.514592 
L 428.326765 129.817053 
L 432.455 39.852727 
" clip-path="url(#p49fb2c14a7)" style="fill: none; stroke: #17becf; stroke-opacity: 0.9; stroke-width: 3; stroke-linecap: square"/>
   </g>
   <g id="patch_3">
    <path d="M 64.01 297.16 
L 64.01 27.6 
" style="fill: none; stroke: #000000; stroke-width: 0.8; stroke-linejoin: miter; stroke-linecap: square"/>
   </g>
   <g id="patch_4">
    <path d="M 450 297.16 
L 450 27.6 
" style="fill: none; stroke: #000000; stroke-width: 0.8; stroke-linejoin: miter; stroke-linecap: square"/>
   </g>
   <g id="patch_5">
    <path d="M 64.01 297.16 
L 450 297.16 
" style="fill: none; stroke: #000000; stroke-width: 0.8; stroke-linejoin: miter; stroke-linecap: square"/>
   </g>
   <g id="patch_6">
    <path d="M 64.01 27.6 
L 450 27.6 
" style="fill: none; stroke: #000000; stroke-width: 0.8; stroke-linejoin: miter; stroke-linecap: square"/>
   </g>
   <g id="text_15">
    <!-- GLY -->
    <g transform="translate(244.332812 21.6) scale(0.14 -0.14)">
     <defs>
      <path id="DejaVuSans-47" d="M 3809 666 
L 3809 1919 
L 2778 1919 
L 2778 2438 
L 4434 2438 
L 4434 434 
Q 4069 175 3628 42 
Q 3188 -91 2688 -91 
Q 1594 -91 976 548 
Q 359 1188 359 2328 
Q 359 3472 976 4111 
Q 1594 4750 2688 4750 
Q 3144 4750 3555 4637 
Q 3966 4525 4313 4306 
L 4313 3634 
Q 3963 3931 3569 4081 
Q 3175 4231 2741 4231 
Q 1884 4231 1454 3753 
Q 1025 3275 1025 2328 
Q 1025 1384 1454 906 
Q 1884 428 2741 428 
Q 3075 428 3337 486 
Q 3600 544 3809 666 
z
" transform="scale(0.015625)"/>
      <path id="DejaVuSans-4c" d="M 628 4666 
L 1259 4666 
L 1259 531 
L 3531 531 
L 3531 0 
L 628 0 
L 628 4666 
z
" transform="scale(0.015625)"/>
      <path id="DejaVuSans-59" d="M -13 4666 
L 666 4666 
L 1959 2747 
L 3244 4666 
L 3922 4666 
L 2272 2222 
L 2272 0 
L 1638 0 
L 1638 2222 
L -13 4666 
z
" transform="scale(0.015625)"/>
     </defs>
     <use xlink:href="#DejaVuSans-47"/>
     <use xlink:href="#DejaVuSans-4c" x="77.490234"/>
     <use xlink:href="#DejaVuSans-59" x="119.953125"/>
    </g>
   </g>
  </g>
 </g>
 <defs>
  <clipPath id="p49fb2c14a7">
   <rect x="64.01" y="27.6" width="385.99" height="269.56"/>
  </clipPath>
 </defs>
</svg>
