<?xml version="1.0" encoding="utf-8" standalone="no"?>
<!DOCTYPE svg PUBLIC "-//W3C//DTD SVG 1.1//EN"
  "http://www.w3.org/Graphics/SVG/1.1/DTD/svg11.dtd">
<svg xmlns:xlink="http://www.w3.org/1999/xlink" width="460.8pt" height="345.6pt" viewBox="0 0 460.8 345.6" xmlns="http://www.w3.org/2000/svg" version="1.1">
 <metadata>
  <rdf:RDF xmlns:dc="http://purl.org/dc/elements/1.1/" xmlns:cc="http://creativecommons.org/ns#" xmlns:rdf="http://www.w3.org/1999/02/22-rdf-syntax-ns#">
   <cc:Work>
    <dc:type rdf:resource="http://purl.org/dc/dcmitype/StillImage"/>
    <dc:date>2023-02-20T22:34:37.781292</dc:date>
    <dc:format>image/svg+xml</dc:format>
    <dc:creator>
     <cc:Agent>
      <dc:title>Matplotlib v3.6.2, https://matplotlib.org/</dc:title>
     </cc:Agent>
    </dc:creator>
   </cc:Work>
  </rdf:RDF>
 </metadata>
 <defs>
  <style type="text/css">*{stroke-linejoin: round; stroke-linecap: butt}</style>
 </defs>
 <g id="figure_1">
  <g id="patch_1">
   <path d="M 0 345.6 
L 460.8 345.6 
L 460.8 0 
L 0 0 
z
" style="fill: #ffffff"/>
  </g>
  <g id="axes_1">
   <g id="patch_2">
    <path d="M 72.65 286.36 
L 441.679538 286.36 
L 441.679538 34.08 
L 72.65 34.08 
z
" style="fill: #ffffff"/>
   </g>
   <g id="matplotlib.axis_1">
    <g id="xtick_1">
     <g id="line2d_1">
      <defs>
       <path id="m3a3bd33680" d="M 0 0 
L 0 3.5 
" style="stroke: #000000; stroke-width: 0.8"/>
      </defs>
      <g>
       <use xlink:href="#m3a3bd33680" x="89.42407" y="286.36" style="stroke: #000000; stroke-width: 0.8"/>
      </g>
     </g>
     <g id="text_1">
      <!-- 0 -->
      <g transform="translate(84.33407 305.5175) scale(0.16 -0.16)">
       <defs>
        <path id="DejaVuSans-30" d="M 2034 4250 
Q 1547 4250 1301 3770 
Q 1056 3291 1056 2328 
Q 1056 1369 1301 889 
Q 1547 409 2034 409 
Q 2525 409 2770 889 
Q 3016 1369 3016 2328 
Q 3016 3291 2770 3770 
Q 2525 4250 2034 4250 
z
M 2034 4750 
Q 2819 4750 3233 4129 
Q 3647 3509 3647 2328 
Q 3647 1150 3233 529 
Q 2819 -91 2034 -91 
Q 1250 -91 836 529 
Q 422 1150 422 2328 
Q 422 3509 836 4129 
Q 1250 4750 2034 4750 
z
" transform="scale(0.015625)"/>
       </defs>
       <use xlink:href="#DejaVuSans-30"/>
      </g>
     </g>
    </g>
    <g id="xtick_2">
     <g id="line2d_2">
      <g>
       <use xlink:href="#m3a3bd33680" x="145.807498" y="286.36" style="stroke: #000000; stroke-width: 0.8"/>
      </g>
     </g>
     <g id="text_2">
      <!-- 100 -->
      <g transform="translate(130.537498 305.5175) scale(0.16 -0.16)">
       <defs>
        <path id="DejaVuSans-31" d="M 794 531 
L 1825 531 
L 1825 4091 
L 703 3866 
L 703 4441 
L 1819 4666 
L 2450 4666 
L 2450 531 
L 3481 531 
L 3481 0 
L 794 0 
L 794 531 
z
" transform="scale(0.015625)"/>
       </defs>
       <use xlink:href="#DejaVuSans-31"/>
       <use xlink:href="#DejaVuSans-30" x="63.623047"/>
       <use xlink:href="#DejaVuSans-30" x="127.246094"/>
      </g>
     </g>
    </g>
    <g id="xtick_3">
     <g id="line2d_3">
      <g>
       <use xlink:href="#m3a3bd33680" x="202.190926" y="286.36" style="stroke: #000000; stroke-width: 0.8"/>
      </g>
     </g>
     <g id="text_3">
      <!-- 200 -->
      <g transform="translate(186.920926 305.5175) scale(0.16 -0.16)">
       <defs>
        <path id="DejaVuSans-32" d="M 1228 531 
L 3431 531 
L 3431 0 
L 469 0 
L 469 531 
Q 828 903 1448 1529 
Q 2069 2156 2228 2338 
Q 2531 2678 2651 2914 
Q 2772 3150 2772 3378 
Q 2772 3750 2511 3984 
Q 2250 4219 1831 4219 
Q 1534 4219 1204 4116 
Q 875 4013 500 3803 
L 500 4441 
Q 881 4594 1212 4672 
Q 1544 4750 1819 4750 
Q 2544 4750 2975 4387 
Q 3406 4025 3406 3419 
Q 3406 3131 3298 2873 
Q 3191 2616 2906 2266 
Q 2828 2175 2409 1742 
Q 1991 1309 1228 531 
z
" transform="scale(0.015625)"/>
       </defs>
       <use xlink:href="#DejaVuSans-32"/>
       <use xlink:href="#DejaVuSans-30" x="63.623047"/>
       <use xlink:href="#DejaVuSans-30" x="127.246094"/>
      </g>
     </g>
    </g>
    <g id="xtick_4">
     <g id="line2d_4">
      <g>
       <use xlink:href="#m3a3bd33680" x="258.574355" y="286.36" style="stroke: #000000; stroke-width: 0.8"/>
      </g>
     </g>
     <g id="text_4">
      <!-- 300 -->
      <g transform="translate(243.304355 305.5175) scale(0.16 -0.16)">
       <defs>
        <path id="DejaVuSans-33" d="M 2597 2516 
Q 3050 2419 3304 2112 
Q 3559 1806 3559 1356 
Q 3559 666 3084 287 
Q 2609 -91 1734 -91 
Q 1441 -91 1130 -33 
Q 819 25 488 141 
L 488 750 
Q 750 597 1062 519 
Q 1375 441 1716 441 
Q 2309 441 2620 675 
Q 2931 909 2931 1356 
Q 2931 1769 2642 2001 
Q 2353 2234 1838 2234 
L 1294 2234 
L 1294 2753 
L 1863 2753 
Q 2328 2753 2575 2939 
Q 2822 3125 2822 3475 
Q 2822 3834 2567 4026 
Q 2313 4219 1838 4219 
Q 1578 4219 1281 4162 
Q 984 4106 628 3988 
L 628 4550 
Q 988 4650 1302 4700 
Q 1616 4750 1894 4750 
Q 2613 4750 3031 4423 
Q 3450 4097 3450 3541 
Q 3450 3153 3228 2886 
Q 3006 2619 2597 2516 
z
" transform="scale(0.015625)"/>
       </defs>
       <use xlink:href="#DejaVuSans-33"/>
       <use xlink:href="#DejaVuSans-30" x="63.623047"/>
       <use xlink:href="#DejaVuSans-30" x="127.246094"/>
      </g>
     </g>
    </g>
    <g id="xtick_5">
     <g id="line2d_5">
      <g>
       <use xlink:href="#m3a3bd33680" x="314.957783" y="286.36" style="stroke: #000000; stroke-width: 0.8"/>
      </g>
     </g>
     <g id="text_5">
      <!-- 400 -->
      <g transform="translate(299.687783 305.5175) scale(0.16 -0.16)">
       <defs>
        <path id="DejaVuSans-34" d="M 2419 4116 
L 825 1625 
L 2419 1625 
L 2419 4116 
z
M 2253 4666 
L 3047 4666 
L 3047 1625 
L 3713 1625 
L 3713 1100 
L 3047 1100 
L 3047 0 
L 2419 0 
L 2419 1100 
L 313 1100 
L 313 1709 
L 2253 4666 
z
" transform="scale(0.015625)"/>
       </defs>
       <use xlink:href="#DejaVuSans-34"/>
       <use xlink:href="#DejaVuSans-30" x="63.623047"/>
       <use xlink:href="#DejaVuSans-30" x="127.246094"/>
      </g>
     </g>
    </g>
    <g id="xtick_6">
     <g id="line2d_6">
      <g>
       <use xlink:href="#m3a3bd33680" x="371.341211" y="286.36" style="stroke: #000000; stroke-width: 0.8"/>
      </g>
     </g>
     <g id="text_6">
      <!-- 500 -->
      <g transform="translate(356.071211 305.5175) scale(0.16 -0.16)">
       <defs>
        <path id="DejaVuSans-35" d="M 691 4666 
L 3169 4666 
L 3169 4134 
L 1269 4134 
L 1269 2991 
Q 1406 3038 1543 3061 
Q 1681 3084 1819 3084 
Q 2600 3084 3056 2656 
Q 3513 2228 3513 1497 
Q 3513 744 3044 326 
Q 2575 -91 1722 -91 
Q 1428 -91 1123 -41 
Q 819 9 494 109 
L 494 744 
Q 775 591 1075 516 
Q 1375 441 1709 441 
Q 2250 441 2565 725 
Q 2881 1009 2881 1497 
Q 2881 1984 2565 2268 
Q 2250 2553 1709 2553 
Q 1456 2553 1204 2497 
Q 953 2441 691 2322 
L 691 4666 
z
" transform="scale(0.015625)"/>
       </defs>
       <use xlink:href="#DejaVuSans-35"/>
       <use xlink:href="#DejaVuSans-30" x="63.623047"/>
       <use xlink:href="#DejaVuSans-30" x="127.246094"/>
      </g>
     </g>
    </g>
    <g id="xtick_7">
     <g id="line2d_7">
      <g>
       <use xlink:href="#m3a3bd33680" x="427.724639" y="286.36" style="stroke: #000000; stroke-width: 0.8"/>
      </g>
     </g>
     <g id="text_7">
      <!-- 600 -->
      <g transform="translate(412.454639 305.5175) scale(0.16 -0.16)">
       <defs>
        <path id="DejaVuSans-36" d="M 2113 2584 
Q 1688 2584 1439 2293 
Q 1191 2003 1191 1497 
Q 1191 994 1439 701 
Q 1688 409 2113 409 
Q 2538 409 2786 701 
Q 3034 994 3034 1497 
Q 3034 2003 2786 2293 
Q 2538 2584 2113 2584 
z
M 3366 4563 
L 3366 3988 
Q 3128 4100 2886 4159 
Q 2644 4219 2406 4219 
Q 1781 4219 1451 3797 
Q 1122 3375 1075 2522 
Q 1259 2794 1537 2939 
Q 1816 3084 2150 3084 
Q 2853 3084 3261 2657 
Q 3669 2231 3669 1497 
Q 3669 778 3244 343 
Q 2819 -91 2113 -91 
Q 1303 -91 875 529 
Q 447 1150 447 2328 
Q 447 3434 972 4092 
Q 1497 4750 2381 4750 
Q 2619 4750 2861 4703 
Q 3103 4656 3366 4563 
z
" transform="scale(0.015625)"/>
       </defs>
       <use xlink:href="#DejaVuSans-36"/>
       <use xlink:href="#DejaVuSans-30" x="63.623047"/>
       <use xlink:href="#DejaVuSans-30" x="127.246094"/>
      </g>
     </g>
    </g>
    <g id="text_8">
     <!-- Distance from Center $(\mu m)$ -->
     <g transform="translate(163.084769 323.485) scale(0.14 -0.14)">
      <defs>
       <path id="DejaVuSans-44" d="M 1259 4147 
L 1259 519 
L 2022 519 
Q 2988 519 3436 956 
Q 3884 1394 3884 2338 
Q 3884 3275 3436 3711 
Q 2988 4147 2022 4147 
L 1259 4147 
z
M 628 4666 
L 1925 4666 
Q 3281 4666 3915 4102 
Q 4550 3538 4550 2338 
Q 4550 1131 3912 565 
Q 3275 0 1925 0 
L 628 0 
L 628 4666 
z
" transform="scale(0.015625)"/>
       <path id="DejaVuSans-69" d="M 603 3500 
L 1178 3500 
L 1178 0 
L 603 0 
L 603 3500 
z
M 603 4863 
L 1178 4863 
L 1178 4134 
L 603 4134 
L 603 4863 
z
" transform="scale(0.015625)"/>
       <path id="DejaVuSans-73" d="M 2834 3397 
L 2834 2853 
Q 2591 2978 2328 3040 
Q 2066 3103 1784 3103 
Q 1356 3103 1142 2972 
Q 928 2841 928 2578 
Q 928 2378 1081 2264 
Q 1234 2150 1697 2047 
L 1894 2003 
Q 2506 1872 2764 1633 
Q 3022 1394 3022 966 
Q 3022 478 2636 193 
Q 2250 -91 1575 -91 
Q 1294 -91 989 -36 
Q 684 19 347 128 
L 347 722 
Q 666 556 975 473 
Q 1284 391 1588 391 
Q 1994 391 2212 530 
Q 2431 669 2431 922 
Q 2431 1156 2273 1281 
Q 2116 1406 1581 1522 
L 1381 1569 
Q 847 1681 609 1914 
Q 372 2147 372 2553 
Q 372 3047 722 3315 
Q 1072 3584 1716 3584 
Q 2034 3584 2315 3537 
Q 2597 3491 2834 3397 
z
" transform="scale(0.015625)"/>
       <path id="DejaVuSans-74" d="M 1172 4494 
L 1172 3500 
L 2356 3500 
L 2356 3053 
L 1172 3053 
L 1172 1153 
Q 1172 725 1289 603 
Q 1406 481 1766 481 
L 2356 481 
L 2356 0 
L 1766 0 
Q 1100 0 847 248 
Q 594 497 594 1153 
L 594 3053 
L 172 3053 
L 172 3500 
L 594 3500 
L 594 4494 
L 1172 4494 
z
" transform="scale(0.015625)"/>
       <path id="DejaVuSans-61" d="M 2194 1759 
Q 1497 1759 1228 1600 
Q 959 1441 959 1056 
Q 959 750 1161 570 
Q 1363 391 1709 391 
Q 2188 391 2477 730 
Q 2766 1069 2766 1631 
L 2766 1759 
L 2194 1759 
z
M 3341 1997 
L 3341 0 
L 2766 0 
L 2766 531 
Q 2569 213 2275 61 
Q 1981 -91 1556 -91 
Q 1019 -91 701 211 
Q 384 513 384 1019 
Q 384 1609 779 1909 
Q 1175 2209 1959 2209 
L 2766 2209 
L 2766 2266 
Q 2766 2663 2505 2880 
Q 2244 3097 1772 3097 
Q 1472 3097 1187 3025 
Q 903 2953 641 2809 
L 641 3341 
Q 956 3463 1253 3523 
Q 1550 3584 1831 3584 
Q 2591 3584 2966 3190 
Q 3341 2797 3341 1997 
z
" transform="scale(0.015625)"/>
       <path id="DejaVuSans-6e" d="M 3513 2113 
L 3513 0 
L 2938 0 
L 2938 2094 
Q 2938 2591 2744 2837 
Q 2550 3084 2163 3084 
Q 1697 3084 1428 2787 
Q 1159 2491 1159 1978 
L 1159 0 
L 581 0 
L 581 3500 
L 1159 3500 
L 1159 2956 
Q 1366 3272 1645 3428 
Q 1925 3584 2291 3584 
Q 2894 3584 3203 3211 
Q 3513 2838 3513 2113 
z
" transform="scale(0.015625)"/>
       <path id="DejaVuSans-63" d="M 3122 3366 
L 3122 2828 
Q 2878 2963 2633 3030 
Q 2388 3097 2138 3097 
Q 1578 3097 1268 2742 
Q 959 2388 959 1747 
Q 959 1106 1268 751 
Q 1578 397 2138 397 
Q 2388 397 2633 464 
Q 2878 531 3122 666 
L 3122 134 
Q 2881 22 2623 -34 
Q 2366 -91 2075 -91 
Q 1284 -91 818 406 
Q 353 903 353 1747 
Q 353 2603 823 3093 
Q 1294 3584 2113 3584 
Q 2378 3584 2631 3529 
Q 2884 3475 3122 3366 
z
" transform="scale(0.015625)"/>
       <path id="DejaVuSans-65" d="M 3597 1894 
L 3597 1613 
L 953 1613 
Q 991 1019 1311 708 
Q 1631 397 2203 397 
Q 2534 397 2845 478 
Q 3156 559 3463 722 
L 3463 178 
Q 3153 47 2828 -22 
Q 2503 -91 2169 -91 
Q 1331 -91 842 396 
Q 353 884 353 1716 
Q 353 2575 817 3079 
Q 1281 3584 2069 3584 
Q 2775 3584 3186 3129 
Q 3597 2675 3597 1894 
z
M 3022 2063 
Q 3016 2534 2758 2815 
Q 2500 3097 2075 3097 
Q 1594 3097 1305 2825 
Q 1016 2553 972 2059 
L 3022 2063 
z
" transform="scale(0.015625)"/>
       <path id="DejaVuSans-20" transform="scale(0.015625)"/>
       <path id="DejaVuSans-66" d="M 2375 4863 
L 2375 4384 
L 1825 4384 
Q 1516 4384 1395 4259 
Q 1275 4134 1275 3809 
L 1275 3500 
L 2222 3500 
L 2222 3053 
L 1275 3053 
L 1275 0 
L 697 0 
L 697 3053 
L 147 3053 
L 147 3500 
L 697 3500 
L 697 3744 
Q 697 4328 969 4595 
Q 1241 4863 1831 4863 
L 2375 4863 
z
" transform="scale(0.015625)"/>
       <path id="DejaVuSans-72" d="M 2631 2963 
Q 2534 3019 2420 3045 
Q 2306 3072 2169 3072 
Q 1681 3072 1420 2755 
Q 1159 2438 1159 1844 
L 1159 0 
L 581 0 
L 581 3500 
L 1159 3500 
L 1159 2956 
Q 1341 3275 1631 3429 
Q 1922 3584 2338 3584 
Q 2397 3584 2469 3576 
Q 2541 3569 2628 3553 
L 2631 2963 
z
" transform="scale(0.015625)"/>
       <path id="DejaVuSans-6f" d="M 1959 3097 
Q 1497 3097 1228 2736 
Q 959 2375 959 1747 
Q 959 1119 1226 758 
Q 1494 397 1959 397 
Q 2419 397 2687 759 
Q 2956 1122 2956 1747 
Q 2956 2369 2687 2733 
Q 2419 3097 1959 3097 
z
M 1959 3584 
Q 2709 3584 3137 3096 
Q 3566 2609 3566 1747 
Q 3566 888 3137 398 
Q 2709 -91 1959 -91 
Q 1206 -91 779 398 
Q 353 888 353 1747 
Q 353 2609 779 3096 
Q 1206 3584 1959 3584 
z
" transform="scale(0.015625)"/>
       <path id="DejaVuSans-6d" d="M 3328 2828 
Q 3544 3216 3844 3400 
Q 4144 3584 4550 3584 
Q 5097 3584 5394 3201 
Q 5691 2819 5691 2113 
L 5691 0 
L 5113 0 
L 5113 2094 
Q 5113 2597 4934 2840 
Q 4756 3084 4391 3084 
Q 3944 3084 3684 2787 
Q 3425 2491 3425 1978 
L 3425 0 
L 2847 0 
L 2847 2094 
Q 2847 2600 2669 2842 
Q 2491 3084 2119 3084 
Q 1678 3084 1418 2786 
Q 1159 2488 1159 1978 
L 1159 0 
L 581 0 
L 581 3500 
L 1159 3500 
L 1159 2956 
Q 1356 3278 1631 3431 
Q 1906 3584 2284 3584 
Q 2666 3584 2933 3390 
Q 3200 3197 3328 2828 
z
" transform="scale(0.015625)"/>
       <path id="DejaVuSans-43" d="M 4122 4306 
L 4122 3641 
Q 3803 3938 3442 4084 
Q 3081 4231 2675 4231 
Q 1875 4231 1450 3742 
Q 1025 3253 1025 2328 
Q 1025 1406 1450 917 
Q 1875 428 2675 428 
Q 3081 428 3442 575 
Q 3803 722 4122 1019 
L 4122 359 
Q 3791 134 3420 21 
Q 3050 -91 2638 -91 
Q 1578 -91 968 557 
Q 359 1206 359 2328 
Q 359 3453 968 4101 
Q 1578 4750 2638 4750 
Q 3056 4750 3426 4639 
Q 3797 4528 4122 4306 
z
" transform="scale(0.015625)"/>
       <path id="DejaVuSans-28" d="M 1984 4856 
Q 1566 4138 1362 3434 
Q 1159 2731 1159 2009 
Q 1159 1288 1364 580 
Q 1569 -128 1984 -844 
L 1484 -844 
Q 1016 -109 783 600 
Q 550 1309 550 2009 
Q 550 2706 781 3412 
Q 1013 4119 1484 4856 
L 1984 4856 
z
" transform="scale(0.015625)"/>
       <path id="DejaVuSans-Oblique-3bc" d="M -84 -1331 
L 856 3500 
L 1434 3500 
L 1009 1322 
Q 997 1256 987 1175 
Q 978 1094 978 1013 
Q 978 722 1161 565 
Q 1344 409 1684 409 
Q 2147 409 2431 671 
Q 2716 934 2816 1459 
L 3213 3500 
L 3788 3500 
L 3266 809 
Q 3253 750 3248 706 
Q 3244 663 3244 628 
Q 3244 531 3283 486 
Q 3322 441 3406 441 
Q 3438 441 3492 456 
Q 3547 472 3647 513 
L 3559 50 
Q 3422 -19 3297 -55 
Q 3172 -91 3053 -91 
Q 2847 -91 2730 40 
Q 2613 172 2613 403 
Q 2438 153 2195 31 
Q 1953 -91 1625 -91 
Q 1334 -91 1117 43 
Q 900 178 831 397 
L 494 -1331 
L -84 -1331 
z
" transform="scale(0.015625)"/>
       <path id="DejaVuSans-Oblique-6d" d="M 5747 2113 
L 5338 0 
L 4763 0 
L 5166 2094 
Q 5191 2228 5203 2325 
Q 5216 2422 5216 2491 
Q 5216 2772 5059 2928 
Q 4903 3084 4622 3084 
Q 4203 3084 3875 2770 
Q 3547 2456 3450 1953 
L 3066 0 
L 2491 0 
L 2900 2094 
Q 2925 2209 2937 2307 
Q 2950 2406 2950 2484 
Q 2950 2769 2794 2926 
Q 2638 3084 2363 3084 
Q 1938 3084 1609 2770 
Q 1281 2456 1184 1953 
L 800 0 
L 225 0 
L 909 3500 
L 1484 3500 
L 1375 2956 
Q 1609 3263 1923 3423 
Q 2238 3584 2597 3584 
Q 2978 3584 3223 3384 
Q 3469 3184 3519 2828 
Q 3781 3197 4126 3390 
Q 4472 3584 4856 3584 
Q 5306 3584 5551 3325 
Q 5797 3066 5797 2591 
Q 5797 2488 5784 2364 
Q 5772 2241 5747 2113 
z
" transform="scale(0.015625)"/>
       <path id="DejaVuSans-29" d="M 513 4856 
L 1013 4856 
Q 1481 4119 1714 3412 
Q 1947 2706 1947 2009 
Q 1947 1309 1714 600 
Q 1481 -109 1013 -844 
L 513 -844 
Q 928 -128 1133 580 
Q 1338 1288 1338 2009 
Q 1338 2731 1133 3434 
Q 928 4138 513 4856 
z
" transform="scale(0.015625)"/>
      </defs>
      <use xlink:href="#DejaVuSans-44" transform="translate(0 0.015625)"/>
      <use xlink:href="#DejaVuSans-69" transform="translate(77.001953 0.015625)"/>
      <use xlink:href="#DejaVuSans-73" transform="translate(104.785156 0.015625)"/>
      <use xlink:href="#DejaVuSans-74" transform="translate(156.884766 0.015625)"/>
      <use xlink:href="#DejaVuSans-61" transform="translate(196.09375 0.015625)"/>
      <use xlink:href="#DejaVuSans-6e" transform="translate(257.373047 0.015625)"/>
      <use xlink:href="#DejaVuSans-63" transform="translate(320.751953 0.015625)"/>
      <use xlink:href="#DejaVuSans-65" transform="translate(375.732422 0.015625)"/>
      <use xlink:href="#DejaVuSans-20" transform="translate(437.255859 0.015625)"/>
      <use xlink:href="#DejaVuSans-66" transform="translate(469.042969 0.015625)"/>
      <use xlink:href="#DejaVuSans-72" transform="translate(504.248047 0.015625)"/>
      <use xlink:href="#DejaVuSans-6f" transform="translate(545.361328 0.015625)"/>
      <use xlink:href="#DejaVuSans-6d" transform="translate(606.542969 0.015625)"/>
      <use xlink:href="#DejaVuSans-20" transform="translate(703.955078 0.015625)"/>
      <use xlink:href="#DejaVuSans-43" transform="translate(735.742188 0.015625)"/>
      <use xlink:href="#DejaVuSans-65" transform="translate(805.566406 0.015625)"/>
      <use xlink:href="#DejaVuSans-6e" transform="translate(867.089844 0.015625)"/>
      <use xlink:href="#DejaVuSans-74" transform="translate(930.46875 0.015625)"/>
      <use xlink:href="#DejaVuSans-65" transform="translate(969.677734 0.015625)"/>
      <use xlink:href="#DejaVuSans-72" transform="translate(1031.201172 0.015625)"/>
      <use xlink:href="#DejaVuSans-20" transform="translate(1072.314453 0.015625)"/>
      <use xlink:href="#DejaVuSans-28" transform="translate(1104.101562 0.015625)"/>
      <use xlink:href="#DejaVuSans-Oblique-3bc" transform="translate(1143.115234 0.015625)"/>
      <use xlink:href="#DejaVuSans-Oblique-6d" transform="translate(1206.738281 0.015625)"/>
      <use xlink:href="#DejaVuSans-29" transform="translate(1304.150391 0.015625)"/>
     </g>
    </g>
   </g>
   <g id="matplotlib.axis_2">
    <g id="ytick_1">
     <g id="line2d_8">
      <path d="M 72.65 274.892727 
L 441.679538 274.892727 
" clip-path="url(#p9e63f4bbec)" style="fill: none; stroke: #f2f2f2; stroke-width: 0.8; stroke-linecap: square"/>
     </g>
     <g id="line2d_9">
      <defs>
       <path id="mc5746b9248" d="M 0 0 
L -3.5 0 
" style="stroke: #000000; stroke-width: 0.8"/>
      </defs>
      <g>
       <use xlink:href="#mc5746b9248" x="72.65" y="274.892727" style="stroke: #000000; stroke-width: 0.8"/>
      </g>
     </g>
     <g id="text_9">
      <!-- 0 -->
      <g transform="translate(55.47 280.971477) scale(0.16 -0.16)">
       <use xlink:href="#DejaVuSans-30"/>
      </g>
     </g>
    </g>
    <g id="ytick_2">
     <g id="line2d_10">
      <path d="M 72.65 233.928212 
L 441.679538 233.928212 
" clip-path="url(#p9e63f4bbec)" style="fill: none; stroke: #f2f2f2; stroke-width: 0.8; stroke-linecap: square"/>
     </g>
     <g id="line2d_11">
      <g>
       <use xlink:href="#mc5746b9248" x="72.65" y="233.928212" style="stroke: #000000; stroke-width: 0.8"/>
      </g>
     </g>
     <g id="text_10">
      <!-- 25 -->
      <g transform="translate(45.29 240.006962) scale(0.16 -0.16)">
       <use xlink:href="#DejaVuSans-32"/>
       <use xlink:href="#DejaVuSans-35" x="63.623047"/>
      </g>
     </g>
    </g>
    <g id="ytick_3">
     <g id="line2d_12">
      <path d="M 72.65 192.963697 
L 441.679538 192.963697 
" clip-path="url(#p9e63f4bbec)" style="fill: none; stroke: #f2f2f2; stroke-width: 0.8; stroke-linecap: square"/>
     </g>
     <g id="line2d_13">
      <g>
       <use xlink:href="#mc5746b9248" x="72.65" y="192.963697" style="stroke: #000000; stroke-width: 0.8"/>
      </g>
     </g>
     <g id="text_11">
      <!-- 50 -->
      <g transform="translate(45.29 199.042447) scale(0.16 -0.16)">
       <use xlink:href="#DejaVuSans-35"/>
       <use xlink:href="#DejaVuSans-30" x="63.623047"/>
      </g>
     </g>
    </g>
    <g id="ytick_4">
     <g id="line2d_14">
      <path d="M 72.65 151.999182 
L 441.679538 151.999182 
" clip-path="url(#p9e63f4bbec)" style="fill: none; stroke: #f2f2f2; stroke-width: 0.8; stroke-linecap: square"/>
     </g>
     <g id="line2d_15">
      <g>
       <use xlink:href="#mc5746b9248" x="72.65" y="151.999182" style="stroke: #000000; stroke-width: 0.8"/>
      </g>
     </g>
     <g id="text_12">
      <!-- 75 -->
      <g transform="translate(45.29 158.077932) scale(0.16 -0.16)">
       <defs>
        <path id="DejaVuSans-37" d="M 525 4666 
L 3525 4666 
L 3525 4397 
L 1831 0 
L 1172 0 
L 2766 4134 
L 525 4134 
L 525 4666 
z
" transform="scale(0.015625)"/>
       </defs>
       <use xlink:href="#DejaVuSans-37"/>
       <use xlink:href="#DejaVuSans-35" x="63.623047"/>
      </g>
     </g>
    </g>
    <g id="ytick_5">
     <g id="line2d_16">
      <path d="M 72.65 111.034666 
L 441.679538 111.034666 
" clip-path="url(#p9e63f4bbec)" style="fill: none; stroke: #f2f2f2; stroke-width: 0.8; stroke-linecap: square"/>
     </g>
     <g id="line2d_17">
      <g>
       <use xlink:href="#mc5746b9248" x="72.65" y="111.034666" style="stroke: #000000; stroke-width: 0.8"/>
      </g>
     </g>
     <g id="text_13">
      <!-- 100 -->
      <g transform="translate(35.11 117.113416) scale(0.16 -0.16)">
       <use xlink:href="#DejaVuSans-31"/>
       <use xlink:href="#DejaVuSans-30" x="63.623047"/>
       <use xlink:href="#DejaVuSans-30" x="127.246094"/>
      </g>
     </g>
    </g>
    <g id="ytick_6">
     <g id="line2d_18">
      <path d="M 72.65 70.070151 
L 441.679538 70.070151 
" clip-path="url(#p9e63f4bbec)" style="fill: none; stroke: #f2f2f2; stroke-width: 0.8; stroke-linecap: square"/>
     </g>
     <g id="line2d_19">
      <g>
       <use xlink:href="#mc5746b9248" x="72.65" y="70.070151" style="stroke: #000000; stroke-width: 0.8"/>
      </g>
     </g>
     <g id="text_14">
      <!-- 125 -->
      <g transform="translate(35.11 76.148901) scale(0.16 -0.16)">
       <use xlink:href="#DejaVuSans-31"/>
       <use xlink:href="#DejaVuSans-32" x="63.623047"/>
       <use xlink:href="#DejaVuSans-35" x="127.246094"/>
      </g>
     </g>
    </g>
    <g id="text_15">
     <!-- Concentration (mM) -->
     <g transform="translate(28.198438 230.284531) rotate(-90) scale(0.14 -0.14)">
      <defs>
       <path id="DejaVuSans-4d" d="M 628 4666 
L 1569 4666 
L 2759 1491 
L 3956 4666 
L 4897 4666 
L 4897 0 
L 4281 0 
L 4281 4097 
L 3078 897 
L 2444 897 
L 1241 4097 
L 1241 0 
L 628 0 
L 628 4666 
z
" transform="scale(0.015625)"/>
      </defs>
      <use xlink:href="#DejaVuSans-43"/>
      <use xlink:href="#DejaVuSans-6f" x="69.824219"/>
      <use xlink:href="#DejaVuSans-6e" x="131.005859"/>
      <use xlink:href="#DejaVuSans-63" x="194.384766"/>
      <use xlink:href="#DejaVuSans-65" x="249.365234"/>
      <use xlink:href="#DejaVuSans-6e" x="310.888672"/>
      <use xlink:href="#DejaVuSans-74" x="374.267578"/>
      <use xlink:href="#DejaVuSans-72" x="413.476562"/>
      <use xlink:href="#DejaVuSans-61" x="454.589844"/>
      <use xlink:href="#DejaVuSans-74" x="515.869141"/>
      <use xlink:href="#DejaVuSans-69" x="555.078125"/>
      <use xlink:href="#DejaVuSans-6f" x="582.861328"/>
      <use xlink:href="#DejaVuSans-6e" x="644.042969"/>
      <use xlink:href="#DejaVuSans-20" x="707.421875"/>
      <use xlink:href="#DejaVuSans-28" x="739.208984"/>
      <use xlink:href="#DejaVuSans-6d" x="778.222656"/>
      <use xlink:href="#DejaVuSans-4d" x="875.634766"/>
      <use xlink:href="#DejaVuSans-29" x="961.914062"/>
     </g>
    </g>
   </g>
   <g id="line2d_20">
    <path d="M 89.42407 272.861154 
L 93.37091 272.892898 
L 97.31775 272.988128 
L 101.26459 273.146844 
L 105.21143 273.369048 
L 109.15827 273.654738 
L 113.10511 274.003914 
L 117.05195 274.416577 
L 120.99879 274.892727 
" clip-path="url(#p9e63f4bbec)" style="fill: none; stroke: #1f77b4; stroke-opacity: 0.9; stroke-width: 3; stroke-linecap: square"/>
   </g>
   <g id="line2d_21">
    <path d="M 89.42407 265.718907 
L 93.37091 265.75065 
L 97.31775 265.84588 
L 101.26459 266.004597 
L 105.21143 266.2268 
L 109.15827 266.51249 
L 113.10511 266.861666 
L 117.05195 267.27433 
L 120.99879 267.750479 
L 124.94563 268.290116 
L 128.89247 268.893239 
L 132.83931 269.559849 
L 136.78615 270.289945 
L 140.73299 271.083528 
L 144.67983 271.940598 
L 148.62667 272.861154 
L 152.57351 273.845197 
L 156.52035 274.892727 
" clip-path="url(#p9e63f4bbec)" style="fill: none; stroke: #ff7f0e; stroke-opacity: 0.9; stroke-width: 3; stroke-linecap: square"/>
   </g>
   <g id="line2d_22">
    <path d="M 89.42407 255.053152 
L 93.37091 255.084895 
L 97.31775 255.180125 
L 101.26459 255.338841 
L 105.21143 255.561045 
L 109.15827 255.846735 
L 113.10511 256.195911 
L 117.05195 256.608574 
L 120.99879 257.084724 
L 124.94563 257.62436 
L 128.89247 258.227483 
L 132.83931 258.894093 
L 136.78615 259.624189 
L 140.73299 260.417772 
L 144.67983 261.274842 
L 148.62667 262.195398 
L 152.57351 263.179441 
L 156.52035 264.226971 
L 160.467189 265.337987 
L 164.414029 266.51249 
L 168.360869 267.750479 
L 172.307709 269.051955 
L 176.254549 270.416918 
L 180.201389 271.845368 
L 184.148229 273.337304 
L 188.095069 274.892727 
" clip-path="url(#p9e63f4bbec)" style="fill: none; stroke: #2ca02c; stroke-opacity: 0.9; stroke-width: 3; stroke-linecap: square"/>
   </g>
   <g id="line2d_23">
    <path d="M 89.42407 238.19745 
L 93.37091 238.229194 
L 97.31775 238.324424 
L 101.26459 238.48314 
L 105.21143 238.705343 
L 109.15827 238.991033 
L 113.10511 239.34021 
L 117.05195 239.752873 
L 120.99879 240.229022 
L 124.94563 240.768659 
L 128.89247 241.371782 
L 132.83931 242.038392 
L 136.78615 242.768488 
L 140.73299 243.562071 
L 144.67983 244.41914 
L 148.62667 245.339696 
L 152.57351 246.323739 
L 156.52035 247.371269 
L 160.467189 248.482285 
L 164.414029 249.656788 
L 168.360869 250.894777 
L 172.307709 252.196253 
L 176.254549 253.561216 
L 180.201389 254.989665 
L 184.148229 256.481601 
L 188.095069 258.037023 
L 192.041909 259.655933 
L 195.988749 261.338329 
L 199.935589 263.084211 
L 203.882429 264.89358 
L 207.829269 266.766436 
L 211.776109 268.702779 
L 215.722949 270.702608 
L 219.669789 272.765924 
L 223.616629 274.892727 
" clip-path="url(#p9e63f4bbec)" style="fill: none; stroke: #d62728; stroke-opacity: 0.9; stroke-width: 3; stroke-linecap: square"/>
   </g>
   <g id="line2d_24">
    <path d="M 89.42407 218.897514 
L 93.37091 218.929257 
L 97.31775 219.024487 
L 101.26459 219.183204 
L 105.21143 219.405407 
L 109.15827 219.691097 
L 113.10511 220.040273 
L 117.05195 220.452937 
L 120.99879 220.929086 
L 124.94563 221.468723 
L 128.89247 222.071846 
L 132.83931 222.738455 
L 136.78615 223.468552 
L 140.73299 224.262134 
L 144.67983 225.119204 
L 148.62667 226.03976 
L 152.57351 227.023803 
L 156.52035 228.071332 
L 160.467189 229.182348 
L 164.414029 230.356851 
L 168.360869 231.59484 
L 172.307709 232.896316 
L 176.254549 234.261279 
L 180.201389 235.689728 
L 184.148229 237.181664 
L 188.095069 238.737087 
L 192.041909 240.355996 
L 195.988749 242.038391 
L 199.935589 243.784274 
L 203.882429 245.593643 
L 207.829269 247.466499 
L 211.776109 249.402841 
L 215.722949 251.40267 
L 219.669789 253.465986 
L 223.616629 255.592788 
L 227.563469 257.783077 
L 231.510309 260.036852 
L 235.457149 262.354115 
L 239.403989 264.734864 
L 243.350829 267.179099 
L 247.297669 269.686822 
L 251.244509 272.258031 
L 255.191349 274.892727 
" clip-path="url(#p9e63f4bbec)" style="fill: none; stroke: #9467bd; stroke-opacity: 0.9; stroke-width: 3; stroke-linecap: square"/>
   </g>
   <g id="line2d_25">
    <path d="M 89.42407 192.328359 
L 93.37091 192.360103 
L 97.31775 192.455332 
L 101.26459 192.614049 
L 105.21143 192.836252 
L 109.15827 193.121942 
L 113.10511 193.471119 
L 117.05195 193.883782 
L 120.99879 194.359931 
L 124.94563 194.899568 
L 128.89247 195.502691 
L 132.83931 196.1693 
L 136.78615 196.899397 
L 140.73299 197.692979 
L 144.67983 198.550049 
L 148.62667 199.470605 
L 152.57351 200.454648 
L 156.52035 201.502177 
L 160.467189 202.613193 
L 164.414029 203.787696 
L 168.360869 205.025685 
L 172.307709 206.327161 
L 176.254549 207.692124 
L 180.201389 209.120573 
L 184.148229 210.612509 
L 188.095069 212.167931 
L 192.041909 213.78684 
L 195.988749 215.469236 
L 199.935589 217.215118 
L 203.882429 219.024487 
L 207.829269 220.897343 
L 211.776109 222.833685 
L 215.722949 224.833514 
L 219.669789 226.89683 
L 223.616629 229.023632 
L 227.563469 231.21392 
L 231.510309 233.467696 
L 235.457149 235.784958 
L 239.403989 238.165707 
L 243.350829 240.609942 
L 247.297669 243.117664 
L 251.244509 245.688873 
L 255.191349 248.323568 
L 259.138189 251.02175 
L 263.085029 253.783419 
L 267.031869 256.608574 
L 270.978709 259.497216 
L 274.925549 262.449345 
L 278.872389 265.46496 
L 282.819229 268.544062 
L 286.766069 271.686651 
L 290.712909 274.892727 
" clip-path="url(#p9e63f4bbec)" style="fill: none; stroke: #8c564b; stroke-opacity: 0.9; stroke-width: 3; stroke-linecap: square"/>
   </g>
   <g id="line2d_26">
    <path d="M 89.42407 160.616788 
L 93.37091 160.648531 
L 97.31775 160.743761 
L 101.26459 160.902477 
L 105.21143 161.124681 
L 109.15827 161.41037 
L 113.10511 161.759547 
L 117.05195 162.17221 
L 120.99879 162.64836 
L 124.94563 163.187996 
L 128.89247 163.791119 
L 132.83931 164.457729 
L 136.78615 165.187825 
L 140.73299 165.981408 
L 144.67983 166.838477 
L 148.62667 167.759033 
L 152.57351 168.743076 
L 156.52035 169.790606 
L 160.467189 170.901622 
L 164.414029 172.076124 
L 168.360869 173.314113 
L 172.307709 174.615589 
L 176.254549 175.980552 
L 180.201389 177.409001 
L 184.148229 178.900937 
L 188.095069 180.456359 
L 192.041909 182.075268 
L 195.988749 183.757664 
L 199.935589 185.503546 
L 203.882429 187.312915 
L 207.829269 189.185771 
L 211.776109 191.122113 
L 215.722949 193.121942 
L 219.669789 195.185257 
L 223.616629 197.31206 
L 227.563469 199.502348 
L 231.510309 201.756124 
L 235.457149 204.073386 
L 239.403989 206.454134 
L 243.350829 208.89837 
L 247.297669 211.406091 
L 251.244509 213.9773 
L 255.191349 216.611995 
L 259.138189 219.310177 
L 263.085029 222.071845 
L 267.031869 224.897001 
L 270.978709 227.785642 
L 274.925549 230.737771 
L 278.872389 233.753386 
L 282.819229 236.832487 
L 286.766069 239.975076 
L 290.712909 243.181151 
L 294.659749 246.450712 
L 298.606589 249.78376 
L 302.553429 253.180295 
L 306.500269 256.640317 
L 310.447109 260.163825 
L 314.393949 263.750821 
L 318.340789 267.401302 
L 322.287629 271.115271 
L 326.234468 274.892727 
" clip-path="url(#p9e63f4bbec)" style="fill: none; stroke: #e377c2; stroke-opacity: 0.9; stroke-width: 3; stroke-linecap: square"/>
   </g>
   <g id="line2d_27">
    <path d="M 89.42407 128.111633 
L 93.37091 128.143377 
L 97.31775 128.238607 
L 101.26459 128.397323 
L 105.21143 128.619526 
L 109.15827 128.905216 
L 113.10511 129.254393 
L 117.05195 129.667056 
L 120.99879 130.143206 
L 124.94563 130.682842 
L 128.89247 131.285965 
L 132.83931 131.952574 
L 136.78615 132.682671 
L 140.73299 133.476254 
L 144.67983 134.333323 
L 148.62667 135.253879 
L 152.57351 136.237922 
L 156.52035 137.285451 
L 160.467189 138.396467 
L 164.414029 139.57097 
L 168.360869 140.808959 
L 172.307709 142.110435 
L 176.254549 143.475398 
L 180.201389 144.903847 
L 184.148229 146.395783 
L 188.095069 147.951205 
L 192.041909 149.570114 
L 195.988749 151.25251 
L 199.935589 152.998392 
L 203.882429 154.807761 
L 207.829269 156.680616 
L 211.776109 158.616959 
L 215.722949 160.616787 
L 219.669789 162.680103 
L 223.616629 164.806905 
L 227.563469 166.997194 
L 231.510309 169.250969 
L 235.457149 171.568231 
L 239.403989 173.94898 
L 243.350829 176.393215 
L 247.297669 178.900937 
L 251.244509 181.472145 
L 255.191349 184.10684 
L 259.138189 186.805022 
L 263.085029 189.566691 
L 267.031869 192.391846 
L 270.978709 195.280487 
L 274.925549 198.232616 
L 278.872389 201.24823 
L 282.819229 204.327332 
L 286.766069 207.46992 
L 290.712909 210.675995 
L 294.659749 213.945557 
L 298.606589 217.278605 
L 302.553429 220.675139 
L 306.500269 224.135161 
L 310.447109 227.658669 
L 314.393949 231.245664 
L 318.340789 234.896145 
L 322.287629 238.610113 
L 326.234468 242.387568 
L 330.181308 246.228509 
L 334.128148 250.132937 
L 338.074988 254.100852 
L 342.021828 258.132253 
L 345.968668 262.227141 
L 349.915508 266.385516 
L 353.862348 270.607378 
L 357.809188 274.892727 
" clip-path="url(#p9e63f4bbec)" style="fill: none; stroke: #7f7f7f; stroke-opacity: 0.9; stroke-width: 3; stroke-linecap: square"/>
   </g>
   <g id="line2d_28">
    <path d="M 89.42407 86.686608 
L 93.37091 86.718351 
L 97.31775 86.813581 
L 101.26459 86.972298 
L 105.21143 87.194501 
L 109.15827 87.480191 
L 113.10511 87.829367 
L 117.05195 88.24203 
L 120.99879 88.71818 
L 124.94563 89.257817 
L 128.89247 89.86094 
L 132.83931 90.527549 
L 136.78615 91.257645 
L 140.73299 92.051228 
L 144.67983 92.908298 
L 148.62667 93.828854 
L 152.57351 94.812897 
L 156.52035 95.860426 
L 160.467189 96.971442 
L 164.414029 98.145945 
L 168.360869 99.383934 
L 172.307709 100.68541 
L 176.254549 102.050372 
L 180.201389 103.478821 
L 184.148229 104.970757 
L 188.095069 106.52618 
L 192.041909 108.145089 
L 195.988749 109.827484 
L 199.935589 111.573366 
L 203.882429 113.382735 
L 207.829269 115.255591 
L 211.776109 117.191933 
L 215.722949 119.191762 
L 219.669789 121.255077 
L 223.616629 123.381879 
L 227.563469 125.572168 
L 231.510309 127.825943 
L 235.457149 130.143205 
L 239.403989 132.523954 
L 243.350829 134.968189 
L 247.297669 137.475911 
L 251.244509 140.04712 
L 255.191349 142.681815 
L 259.138189 145.379996 
L 263.085029 148.141665 
L 267.031869 150.96682 
L 270.978709 153.855461 
L 274.925549 156.80759 
L 278.872389 159.823204 
L 282.819229 162.902306 
L 286.766069 166.044894 
L 290.712909 169.250969 
L 294.659749 172.52053 
L 298.606589 175.853578 
L 302.553429 179.250113 
L 306.500269 182.710134 
L 310.447109 186.233642 
L 314.393949 189.820637 
L 318.340789 193.471118 
L 322.287629 197.185086 
L 326.234468 200.96254 
L 330.181308 204.803482 
L 334.128148 208.707909 
L 338.074988 212.675824 
L 342.021828 216.707225 
L 345.968668 220.802113 
L 349.915508 224.960487 
L 353.862348 229.182348 
L 357.809188 233.467696 
L 361.756028 237.81653 
L 365.702868 242.228851 
L 369.649708 246.704659 
L 373.596548 251.243953 
L 377.543388 255.846734 
L 381.490228 260.513002 
L 385.437068 265.242756 
L 389.383908 270.035998 
L 393.330748 274.892727 
" clip-path="url(#p9e63f4bbec)" style="fill: none; stroke: #bcbd22; stroke-opacity: 0.9; stroke-width: 3; stroke-linecap: square"/>
   </g>
   <g id="line2d_29">
    <path d="M 89.42407 45.547273 
L 93.37091 45.579016 
L 97.31775 45.674246 
L 101.26459 45.832963 
L 105.21143 46.055166 
L 109.15827 46.340856 
L 113.10511 46.690032 
L 117.05195 47.102695 
L 120.99879 47.578845 
L 124.94563 48.118481 
L 128.89247 48.721604 
L 132.83931 49.388214 
L 136.78615 50.11831 
L 140.73299 50.911893 
L 144.67983 51.768962 
L 148.62667 52.689518 
L 152.57351 53.673561 
L 156.52035 54.721091 
L 160.467189 55.832107 
L 164.414029 57.006609 
L 168.360869 58.244598 
L 172.307709 59.546074 
L 176.254549 60.911037 
L 180.201389 62.339486 
L 184.148229 63.831422 
L 188.095069 65.386844 
L 192.041909 67.005753 
L 195.988749 68.688149 
L 199.935589 70.434031 
L 203.882429 72.2434 
L 207.829269 74.116256 
L 211.776109 76.052598 
L 215.722949 78.052426 
L 219.669789 80.115742 
L 223.616629 82.242544 
L 227.563469 84.432833 
L 231.510309 86.686608 
L 235.457149 89.00387 
L 239.403989 91.384618 
L 243.350829 93.828854 
L 247.297669 96.336575 
L 251.244509 98.907784 
L 255.191349 101.542479 
L 259.138189 104.240661 
L 263.085029 107.002329 
L 267.031869 109.827484 
L 270.978709 112.716126 
L 274.925549 115.668254 
L 278.872389 118.683869 
L 282.819229 121.76297 
L 286.766069 124.905558 
L 290.712909 128.111633 
L 294.659749 131.381195 
L 298.606589 134.714243 
L 302.553429 138.110777 
L 306.500269 141.570798 
L 310.447109 145.094306 
L 314.393949 148.681301 
L 318.340789 152.331782 
L 322.287629 156.04575 
L 326.234468 159.823204 
L 330.181308 163.664145 
L 334.128148 167.568573 
L 338.074988 171.536487 
L 342.021828 175.567888 
L 345.968668 179.662776 
L 349.915508 183.82115 
L 353.862348 188.043011 
L 357.809188 192.328359 
L 361.756028 196.677193 
L 365.702868 201.089514 
L 369.649708 205.565321 
L 373.596548 210.104615 
L 377.543388 214.707396 
L 381.490228 219.373663 
L 385.437068 224.103417 
L 389.383908 228.896658 
L 393.330748 233.753385 
L 397.277588 238.673599 
L 401.224428 243.6573 
L 405.171268 248.704487 
L 409.118108 253.815162 
L 413.064948 258.989322 
L 417.011788 264.22697 
L 420.958628 269.528105 
L 424.905468 274.892727 
" clip-path="url(#p9e63f4bbec)" style="fill: none; stroke: #17becf; stroke-opacity: 0.9; stroke-width: 3; stroke-linecap: square"/>
   </g>
   <g id="patch_3">
    <path d="M 72.65 286.36 
L 72.65 34.08 
" style="fill: none; stroke: #000000; stroke-width: 0.8; stroke-linejoin: miter; stroke-linecap: square"/>
   </g>
   <g id="patch_4">
    <path d="M 441.679538 286.36 
L 441.679538 34.08 
" style="fill: none; stroke: #000000; stroke-width: 0.8; stroke-linejoin: miter; stroke-linecap: square"/>
   </g>
   <g id="patch_5">
    <path d="M 72.65 286.36 
L 441.679538 286.36 
" style="fill: none; stroke: #000000; stroke-width: 0.8; stroke-linejoin: miter; stroke-linecap: square"/>
   </g>
   <g id="patch_6">
    <path d="M 72.65 34.08 
L 441.679538 34.08 
" style="fill: none; stroke: #000000; stroke-width: 0.8; stroke-linejoin: miter; stroke-linecap: square"/>
   </g>
   <g id="text_16">
    <!-- LAC -->
    <g transform="translate(243.55305 28.08) scale(0.14 -0.14)">
     <defs>
      <path id="DejaVuSans-4c" d="M 628 4666 
L 1259 4666 
L 1259 531 
L 3531 531 
L 3531 0 
L 628 0 
L 628 4666 
z
" transform="scale(0.015625)"/>
      <path id="DejaVuSans-41" d="M 2188 4044 
L 1331 1722 
L 3047 1722 
L 2188 4044 
z
M 1831 4666 
L 2547 4666 
L 4325 0 
L 3669 0 
L 3244 1197 
L 1141 1197 
L 716 0 
L 50 0 
L 1831 4666 
z
" transform="scale(0.015625)"/>
     </defs>
     <use xlink:href="#DejaVuSans-4c"/>
     <use xlink:href="#DejaVuSans-41" x="57.962891"/>
     <use xlink:href="#DejaVuSans-43" x="124.621094"/>
    </g>
   </g>
  </g>
 </g>
 <defs>
  <clipPath id="p9e63f4bbec">
   <rect x="72.65" y="34.08" width="369.029538" height="252.28"/>
  </clipPath>
 </defs>
</svg>
