<?xml version="1.0" encoding="utf-8" standalone="no"?>
<!DOCTYPE svg PUBLIC "-//W3C//DTD SVG 1.1//EN"
  "http://www.w3.org/Graphics/SVG/1.1/DTD/svg11.dtd">
<svg xmlns:xlink="http://www.w3.org/1999/xlink" width="460.8pt" height="345.6pt" viewBox="0 0 460.8 345.6" xmlns="http://www.w3.org/2000/svg" version="1.1">
 <metadata>
  <rdf:RDF xmlns:dc="http://purl.org/dc/elements/1.1/" xmlns:cc="http://creativecommons.org/ns#" xmlns:rdf="http://www.w3.org/1999/02/22-rdf-syntax-ns#">
   <cc:Work>
    <dc:type rdf:resource="http://purl.org/dc/dcmitype/StillImage"/>
    <dc:date>2023-02-20T21:45:02.603905</dc:date>
    <dc:format>image/svg+xml</dc:format>
    <dc:creator>
     <cc:Agent>
      <dc:title>Matplotlib v3.6.2, https://matplotlib.org/</dc:title>
     </cc:Agent>
    </dc:creator>
   </cc:Work>
  </rdf:RDF>
 </metadata>
 <defs>
  <style type="text/css">*{stroke-linejoin: round; stroke-linecap: butt}</style>
 </defs>
 <g id="figure_1">
  <g id="patch_1">
   <path d="M 0 345.6 
L 460.8 345.6 
L 460.8 0 
L 0 0 
z
" style="fill: #ffffff"/>
  </g>
  <g id="axes_1">
   <g id="patch_2">
    <path d="M 54.97 306.92 
L 441.679538 306.92 
L 441.679538 17.28 
L 54.97 17.28 
z
" style="fill: #ffffff"/>
   </g>
   <g id="matplotlib.axis_1">
    <g id="xtick_1">
     <g id="line2d_1">
      <defs>
       <path id="md2791186c7" d="M 0 0 
L 0 3.5 
" style="stroke: #000000; stroke-width: 0.8"/>
      </defs>
      <g>
       <use xlink:href="#md2791186c7" x="72.547706" y="306.92" style="stroke: #000000; stroke-width: 0.8"/>
      </g>
     </g>
     <g id="text_1">
      <!-- 0 -->
      <g transform="translate(67.457706 326.0775) scale(0.16 -0.16)">
       <defs>
        <path id="DejaVuSans-30" d="M 2034 4250 
Q 1547 4250 1301 3770 
Q 1056 3291 1056 2328 
Q 1056 1369 1301 889 
Q 1547 409 2034 409 
Q 2525 409 2770 889 
Q 3016 1369 3016 2328 
Q 3016 3291 2770 3770 
Q 2525 4250 2034 4250 
z
M 2034 4750 
Q 2819 4750 3233 4129 
Q 3647 3509 3647 2328 
Q 3647 1150 3233 529 
Q 2819 -91 2034 -91 
Q 1250 -91 836 529 
Q 422 1150 422 2328 
Q 422 3509 836 4129 
Q 1250 4750 2034 4750 
z
" transform="scale(0.015625)"/>
       </defs>
       <use xlink:href="#DejaVuSans-30"/>
      </g>
     </g>
    </g>
    <g id="xtick_2">
     <g id="line2d_2">
      <g>
       <use xlink:href="#md2791186c7" x="131.632433" y="306.92" style="stroke: #000000; stroke-width: 0.8"/>
      </g>
     </g>
     <g id="text_2">
      <!-- 100 -->
      <g transform="translate(116.362433 326.0775) scale(0.16 -0.16)">
       <defs>
        <path id="DejaVuSans-31" d="M 794 531 
L 1825 531 
L 1825 4091 
L 703 3866 
L 703 4441 
L 1819 4666 
L 2450 4666 
L 2450 531 
L 3481 531 
L 3481 0 
L 794 0 
L 794 531 
z
" transform="scale(0.015625)"/>
       </defs>
       <use xlink:href="#DejaVuSans-31"/>
       <use xlink:href="#DejaVuSans-30" x="63.623047"/>
       <use xlink:href="#DejaVuSans-30" x="127.246094"/>
      </g>
     </g>
    </g>
    <g id="xtick_3">
     <g id="line2d_3">
      <g>
       <use xlink:href="#md2791186c7" x="190.71716" y="306.92" style="stroke: #000000; stroke-width: 0.8"/>
      </g>
     </g>
     <g id="text_3">
      <!-- 200 -->
      <g transform="translate(175.44716 326.0775) scale(0.16 -0.16)">
       <defs>
        <path id="DejaVuSans-32" d="M 1228 531 
L 3431 531 
L 3431 0 
L 469 0 
L 469 531 
Q 828 903 1448 1529 
Q 2069 2156 2228 2338 
Q 2531 2678 2651 2914 
Q 2772 3150 2772 3378 
Q 2772 3750 2511 3984 
Q 2250 4219 1831 4219 
Q 1534 4219 1204 4116 
Q 875 4013 500 3803 
L 500 4441 
Q 881 4594 1212 4672 
Q 1544 4750 1819 4750 
Q 2544 4750 2975 4387 
Q 3406 4025 3406 3419 
Q 3406 3131 3298 2873 
Q 3191 2616 2906 2266 
Q 2828 2175 2409 1742 
Q 1991 1309 1228 531 
z
" transform="scale(0.015625)"/>
       </defs>
       <use xlink:href="#DejaVuSans-32"/>
       <use xlink:href="#DejaVuSans-30" x="63.623047"/>
       <use xlink:href="#DejaVuSans-30" x="127.246094"/>
      </g>
     </g>
    </g>
    <g id="xtick_4">
     <g id="line2d_4">
      <g>
       <use xlink:href="#md2791186c7" x="249.801887" y="306.92" style="stroke: #000000; stroke-width: 0.8"/>
      </g>
     </g>
     <g id="text_4">
      <!-- 300 -->
      <g transform="translate(234.531887 326.0775) scale(0.16 -0.16)">
       <defs>
        <path id="DejaVuSans-33" d="M 2597 2516 
Q 3050 2419 3304 2112 
Q 3559 1806 3559 1356 
Q 3559 666 3084 287 
Q 2609 -91 1734 -91 
Q 1441 -91 1130 -33 
Q 819 25 488 141 
L 488 750 
Q 750 597 1062 519 
Q 1375 441 1716 441 
Q 2309 441 2620 675 
Q 2931 909 2931 1356 
Q 2931 1769 2642 2001 
Q 2353 2234 1838 2234 
L 1294 2234 
L 1294 2753 
L 1863 2753 
Q 2328 2753 2575 2939 
Q 2822 3125 2822 3475 
Q 2822 3834 2567 4026 
Q 2313 4219 1838 4219 
Q 1578 4219 1281 4162 
Q 984 4106 628 3988 
L 628 4550 
Q 988 4650 1302 4700 
Q 1616 4750 1894 4750 
Q 2613 4750 3031 4423 
Q 3450 4097 3450 3541 
Q 3450 3153 3228 2886 
Q 3006 2619 2597 2516 
z
" transform="scale(0.015625)"/>
       </defs>
       <use xlink:href="#DejaVuSans-33"/>
       <use xlink:href="#DejaVuSans-30" x="63.623047"/>
       <use xlink:href="#DejaVuSans-30" x="127.246094"/>
      </g>
     </g>
    </g>
    <g id="xtick_5">
     <g id="line2d_5">
      <g>
       <use xlink:href="#md2791186c7" x="308.886614" y="306.92" style="stroke: #000000; stroke-width: 0.8"/>
      </g>
     </g>
     <g id="text_5">
      <!-- 400 -->
      <g transform="translate(293.616614 326.0775) scale(0.16 -0.16)">
       <defs>
        <path id="DejaVuSans-34" d="M 2419 4116 
L 825 1625 
L 2419 1625 
L 2419 4116 
z
M 2253 4666 
L 3047 4666 
L 3047 1625 
L 3713 1625 
L 3713 1100 
L 3047 1100 
L 3047 0 
L 2419 0 
L 2419 1100 
L 313 1100 
L 313 1709 
L 2253 4666 
z
" transform="scale(0.015625)"/>
       </defs>
       <use xlink:href="#DejaVuSans-34"/>
       <use xlink:href="#DejaVuSans-30" x="63.623047"/>
       <use xlink:href="#DejaVuSans-30" x="127.246094"/>
      </g>
     </g>
    </g>
    <g id="xtick_6">
     <g id="line2d_6">
      <g>
       <use xlink:href="#md2791186c7" x="367.971341" y="306.92" style="stroke: #000000; stroke-width: 0.8"/>
      </g>
     </g>
     <g id="text_6">
      <!-- 500 -->
      <g transform="translate(352.701341 326.0775) scale(0.16 -0.16)">
       <defs>
        <path id="DejaVuSans-35" d="M 691 4666 
L 3169 4666 
L 3169 4134 
L 1269 4134 
L 1269 2991 
Q 1406 3038 1543 3061 
Q 1681 3084 1819 3084 
Q 2600 3084 3056 2656 
Q 3513 2228 3513 1497 
Q 3513 744 3044 326 
Q 2575 -91 1722 -91 
Q 1428 -91 1123 -41 
Q 819 9 494 109 
L 494 744 
Q 775 591 1075 516 
Q 1375 441 1709 441 
Q 2250 441 2565 725 
Q 2881 1009 2881 1497 
Q 2881 1984 2565 2268 
Q 2250 2553 1709 2553 
Q 1456 2553 1204 2497 
Q 953 2441 691 2322 
L 691 4666 
z
" transform="scale(0.015625)"/>
       </defs>
       <use xlink:href="#DejaVuSans-35"/>
       <use xlink:href="#DejaVuSans-30" x="63.623047"/>
       <use xlink:href="#DejaVuSans-30" x="127.246094"/>
      </g>
     </g>
    </g>
    <g id="xtick_7">
     <g id="line2d_7">
      <g>
       <use xlink:href="#md2791186c7" x="427.056068" y="306.92" style="stroke: #000000; stroke-width: 0.8"/>
      </g>
     </g>
     <g id="text_7">
      <!-- 600 -->
      <g transform="translate(411.786068 326.0775) scale(0.16 -0.16)">
       <defs>
        <path id="DejaVuSans-36" d="M 2113 2584 
Q 1688 2584 1439 2293 
Q 1191 2003 1191 1497 
Q 1191 994 1439 701 
Q 1688 409 2113 409 
Q 2538 409 2786 701 
Q 3034 994 3034 1497 
Q 3034 2003 2786 2293 
Q 2538 2584 2113 2584 
z
M 3366 4563 
L 3366 3988 
Q 3128 4100 2886 4159 
Q 2644 4219 2406 4219 
Q 1781 4219 1451 3797 
Q 1122 3375 1075 2522 
Q 1259 2794 1537 2939 
Q 1816 3084 2150 3084 
Q 2853 3084 3261 2657 
Q 3669 2231 3669 1497 
Q 3669 778 3244 343 
Q 2819 -91 2113 -91 
Q 1303 -91 875 529 
Q 447 1150 447 2328 
Q 447 3434 972 4092 
Q 1497 4750 2381 4750 
Q 2619 4750 2861 4703 
Q 3103 4656 3366 4563 
z
" transform="scale(0.015625)"/>
       </defs>
       <use xlink:href="#DejaVuSans-36"/>
       <use xlink:href="#DejaVuSans-30" x="63.623047"/>
       <use xlink:href="#DejaVuSans-30" x="127.246094"/>
      </g>
     </g>
    </g>
    <g id="text_8">
     <!-- Distance from Center) $(\mu m)$ -->
     <g transform="translate(151.514769 344.045) scale(0.14 -0.14)">
      <defs>
       <path id="DejaVuSans-44" d="M 1259 4147 
L 1259 519 
L 2022 519 
Q 2988 519 3436 956 
Q 3884 1394 3884 2338 
Q 3884 3275 3436 3711 
Q 2988 4147 2022 4147 
L 1259 4147 
z
M 628 4666 
L 1925 4666 
Q 3281 4666 3915 4102 
Q 4550 3538 4550 2338 
Q 4550 1131 3912 565 
Q 3275 0 1925 0 
L 628 0 
L 628 4666 
z
" transform="scale(0.015625)"/>
       <path id="DejaVuSans-69" d="M 603 3500 
L 1178 3500 
L 1178 0 
L 603 0 
L 603 3500 
z
M 603 4863 
L 1178 4863 
L 1178 4134 
L 603 4134 
L 603 4863 
z
" transform="scale(0.015625)"/>
       <path id="DejaVuSans-73" d="M 2834 3397 
L 2834 2853 
Q 2591 2978 2328 3040 
Q 2066 3103 1784 3103 
Q 1356 3103 1142 2972 
Q 928 2841 928 2578 
Q 928 2378 1081 2264 
Q 1234 2150 1697 2047 
L 1894 2003 
Q 2506 1872 2764 1633 
Q 3022 1394 3022 966 
Q 3022 478 2636 193 
Q 2250 -91 1575 -91 
Q 1294 -91 989 -36 
Q 684 19 347 128 
L 347 722 
Q 666 556 975 473 
Q 1284 391 1588 391 
Q 1994 391 2212 530 
Q 2431 669 2431 922 
Q 2431 1156 2273 1281 
Q 2116 1406 1581 1522 
L 1381 1569 
Q 847 1681 609 1914 
Q 372 2147 372 2553 
Q 372 3047 722 3315 
Q 1072 3584 1716 3584 
Q 2034 3584 2315 3537 
Q 2597 3491 2834 3397 
z
" transform="scale(0.015625)"/>
       <path id="DejaVuSans-74" d="M 1172 4494 
L 1172 3500 
L 2356 3500 
L 2356 3053 
L 1172 3053 
L 1172 1153 
Q 1172 725 1289 603 
Q 1406 481 1766 481 
L 2356 481 
L 2356 0 
L 1766 0 
Q 1100 0 847 248 
Q 594 497 594 1153 
L 594 3053 
L 172 3053 
L 172 3500 
L 594 3500 
L 594 4494 
L 1172 4494 
z
" transform="scale(0.015625)"/>
       <path id="DejaVuSans-61" d="M 2194 1759 
Q 1497 1759 1228 1600 
Q 959 1441 959 1056 
Q 959 750 1161 570 
Q 1363 391 1709 391 
Q 2188 391 2477 730 
Q 2766 1069 2766 1631 
L 2766 1759 
L 2194 1759 
z
M 3341 1997 
L 3341 0 
L 2766 0 
L 2766 531 
Q 2569 213 2275 61 
Q 1981 -91 1556 -91 
Q 1019 -91 701 211 
Q 384 513 384 1019 
Q 384 1609 779 1909 
Q 1175 2209 1959 2209 
L 2766 2209 
L 2766 2266 
Q 2766 2663 2505 2880 
Q 2244 3097 1772 3097 
Q 1472 3097 1187 3025 
Q 903 2953 641 2809 
L 641 3341 
Q 956 3463 1253 3523 
Q 1550 3584 1831 3584 
Q 2591 3584 2966 3190 
Q 3341 2797 3341 1997 
z
" transform="scale(0.015625)"/>
       <path id="DejaVuSans-6e" d="M 3513 2113 
L 3513 0 
L 2938 0 
L 2938 2094 
Q 2938 2591 2744 2837 
Q 2550 3084 2163 3084 
Q 1697 3084 1428 2787 
Q 1159 2491 1159 1978 
L 1159 0 
L 581 0 
L 581 3500 
L 1159 3500 
L 1159 2956 
Q 1366 3272 1645 3428 
Q 1925 3584 2291 3584 
Q 2894 3584 3203 3211 
Q 3513 2838 3513 2113 
z
" transform="scale(0.015625)"/>
       <path id="DejaVuSans-63" d="M 3122 3366 
L 3122 2828 
Q 2878 2963 2633 3030 
Q 2388 3097 2138 3097 
Q 1578 3097 1268 2742 
Q 959 2388 959 1747 
Q 959 1106 1268 751 
Q 1578 397 2138 397 
Q 2388 397 2633 464 
Q 2878 531 3122 666 
L 3122 134 
Q 2881 22 2623 -34 
Q 2366 -91 2075 -91 
Q 1284 -91 818 406 
Q 353 903 353 1747 
Q 353 2603 823 3093 
Q 1294 3584 2113 3584 
Q 2378 3584 2631 3529 
Q 2884 3475 3122 3366 
z
" transform="scale(0.015625)"/>
       <path id="DejaVuSans-65" d="M 3597 1894 
L 3597 1613 
L 953 1613 
Q 991 1019 1311 708 
Q 1631 397 2203 397 
Q 2534 397 2845 478 
Q 3156 559 3463 722 
L 3463 178 
Q 3153 47 2828 -22 
Q 2503 -91 2169 -91 
Q 1331 -91 842 396 
Q 353 884 353 1716 
Q 353 2575 817 3079 
Q 1281 3584 2069 3584 
Q 2775 3584 3186 3129 
Q 3597 2675 3597 1894 
z
M 3022 2063 
Q 3016 2534 2758 2815 
Q 2500 3097 2075 3097 
Q 1594 3097 1305 2825 
Q 1016 2553 972 2059 
L 3022 2063 
z
" transform="scale(0.015625)"/>
       <path id="DejaVuSans-20" transform="scale(0.015625)"/>
       <path id="DejaVuSans-66" d="M 2375 4863 
L 2375 4384 
L 1825 4384 
Q 1516 4384 1395 4259 
Q 1275 4134 1275 3809 
L 1275 3500 
L 2222 3500 
L 2222 3053 
L 1275 3053 
L 1275 0 
L 697 0 
L 697 3053 
L 147 3053 
L 147 3500 
L 697 3500 
L 697 3744 
Q 697 4328 969 4595 
Q 1241 4863 1831 4863 
L 2375 4863 
z
" transform="scale(0.015625)"/>
       <path id="DejaVuSans-72" d="M 2631 2963 
Q 2534 3019 2420 3045 
Q 2306 3072 2169 3072 
Q 1681 3072 1420 2755 
Q 1159 2438 1159 1844 
L 1159 0 
L 581 0 
L 581 3500 
L 1159 3500 
L 1159 2956 
Q 1341 3275 1631 3429 
Q 1922 3584 2338 3584 
Q 2397 3584 2469 3576 
Q 2541 3569 2628 3553 
L 2631 2963 
z
" transform="scale(0.015625)"/>
       <path id="DejaVuSans-6f" d="M 1959 3097 
Q 1497 3097 1228 2736 
Q 959 2375 959 1747 
Q 959 1119 1226 758 
Q 1494 397 1959 397 
Q 2419 397 2687 759 
Q 2956 1122 2956 1747 
Q 2956 2369 2687 2733 
Q 2419 3097 1959 3097 
z
M 1959 3584 
Q 2709 3584 3137 3096 
Q 3566 2609 3566 1747 
Q 3566 888 3137 398 
Q 2709 -91 1959 -91 
Q 1206 -91 779 398 
Q 353 888 353 1747 
Q 353 2609 779 3096 
Q 1206 3584 1959 3584 
z
" transform="scale(0.015625)"/>
       <path id="DejaVuSans-6d" d="M 3328 2828 
Q 3544 3216 3844 3400 
Q 4144 3584 4550 3584 
Q 5097 3584 5394 3201 
Q 5691 2819 5691 2113 
L 5691 0 
L 5113 0 
L 5113 2094 
Q 5113 2597 4934 2840 
Q 4756 3084 4391 3084 
Q 3944 3084 3684 2787 
Q 3425 2491 3425 1978 
L 3425 0 
L 2847 0 
L 2847 2094 
Q 2847 2600 2669 2842 
Q 2491 3084 2119 3084 
Q 1678 3084 1418 2786 
Q 1159 2488 1159 1978 
L 1159 0 
L 581 0 
L 581 3500 
L 1159 3500 
L 1159 2956 
Q 1356 3278 1631 3431 
Q 1906 3584 2284 3584 
Q 2666 3584 2933 3390 
Q 3200 3197 3328 2828 
z
" transform="scale(0.015625)"/>
       <path id="DejaVuSans-43" d="M 4122 4306 
L 4122 3641 
Q 3803 3938 3442 4084 
Q 3081 4231 2675 4231 
Q 1875 4231 1450 3742 
Q 1025 3253 1025 2328 
Q 1025 1406 1450 917 
Q 1875 428 2675 428 
Q 3081 428 3442 575 
Q 3803 722 4122 1019 
L 4122 359 
Q 3791 134 3420 21 
Q 3050 -91 2638 -91 
Q 1578 -91 968 557 
Q 359 1206 359 2328 
Q 359 3453 968 4101 
Q 1578 4750 2638 4750 
Q 3056 4750 3426 4639 
Q 3797 4528 4122 4306 
z
" transform="scale(0.015625)"/>
       <path id="DejaVuSans-29" d="M 513 4856 
L 1013 4856 
Q 1481 4119 1714 3412 
Q 1947 2706 1947 2009 
Q 1947 1309 1714 600 
Q 1481 -109 1013 -844 
L 513 -844 
Q 928 -128 1133 580 
Q 1338 1288 1338 2009 
Q 1338 2731 1133 3434 
Q 928 4138 513 4856 
z
" transform="scale(0.015625)"/>
       <path id="DejaVuSans-28" d="M 1984 4856 
Q 1566 4138 1362 3434 
Q 1159 2731 1159 2009 
Q 1159 1288 1364 580 
Q 1569 -128 1984 -844 
L 1484 -844 
Q 1016 -109 783 600 
Q 550 1309 550 2009 
Q 550 2706 781 3412 
Q 1013 4119 1484 4856 
L 1984 4856 
z
" transform="scale(0.015625)"/>
       <path id="DejaVuSans-Oblique-3bc" d="M -84 -1331 
L 856 3500 
L 1434 3500 
L 1009 1322 
Q 997 1256 987 1175 
Q 978 1094 978 1013 
Q 978 722 1161 565 
Q 1344 409 1684 409 
Q 2147 409 2431 671 
Q 2716 934 2816 1459 
L 3213 3500 
L 3788 3500 
L 3266 809 
Q 3253 750 3248 706 
Q 3244 663 3244 628 
Q 3244 531 3283 486 
Q 3322 441 3406 441 
Q 3438 441 3492 456 
Q 3547 472 3647 513 
L 3559 50 
Q 3422 -19 3297 -55 
Q 3172 -91 3053 -91 
Q 2847 -91 2730 40 
Q 2613 172 2613 403 
Q 2438 153 2195 31 
Q 1953 -91 1625 -91 
Q 1334 -91 1117 43 
Q 900 178 831 397 
L 494 -1331 
L -84 -1331 
z
" transform="scale(0.015625)"/>
       <path id="DejaVuSans-Oblique-6d" d="M 5747 2113 
L 5338 0 
L 4763 0 
L 5166 2094 
Q 5191 2228 5203 2325 
Q 5216 2422 5216 2491 
Q 5216 2772 5059 2928 
Q 4903 3084 4622 3084 
Q 4203 3084 3875 2770 
Q 3547 2456 3450 1953 
L 3066 0 
L 2491 0 
L 2900 2094 
Q 2925 2209 2937 2307 
Q 2950 2406 2950 2484 
Q 2950 2769 2794 2926 
Q 2638 3084 2363 3084 
Q 1938 3084 1609 2770 
Q 1281 2456 1184 1953 
L 800 0 
L 225 0 
L 909 3500 
L 1484 3500 
L 1375 2956 
Q 1609 3263 1923 3423 
Q 2238 3584 2597 3584 
Q 2978 3584 3223 3384 
Q 3469 3184 3519 2828 
Q 3781 3197 4126 3390 
Q 4472 3584 4856 3584 
Q 5306 3584 5551 3325 
Q 5797 3066 5797 2591 
Q 5797 2488 5784 2364 
Q 5772 2241 5747 2113 
z
" transform="scale(0.015625)"/>
      </defs>
      <use xlink:href="#DejaVuSans-44" transform="translate(0 0.015625)"/>
      <use xlink:href="#DejaVuSans-69" transform="translate(77.001953 0.015625)"/>
      <use xlink:href="#DejaVuSans-73" transform="translate(104.785156 0.015625)"/>
      <use xlink:href="#DejaVuSans-74" transform="translate(156.884766 0.015625)"/>
      <use xlink:href="#DejaVuSans-61" transform="translate(196.09375 0.015625)"/>
      <use xlink:href="#DejaVuSans-6e" transform="translate(257.373047 0.015625)"/>
      <use xlink:href="#DejaVuSans-63" transform="translate(320.751953 0.015625)"/>
      <use xlink:href="#DejaVuSans-65" transform="translate(375.732422 0.015625)"/>
      <use xlink:href="#DejaVuSans-20" transform="translate(437.255859 0.015625)"/>
      <use xlink:href="#DejaVuSans-66" transform="translate(469.042969 0.015625)"/>
      <use xlink:href="#DejaVuSans-72" transform="translate(504.248047 0.015625)"/>
      <use xlink:href="#DejaVuSans-6f" transform="translate(545.361328 0.015625)"/>
      <use xlink:href="#DejaVuSans-6d" transform="translate(606.542969 0.015625)"/>
      <use xlink:href="#DejaVuSans-20" transform="translate(703.955078 0.015625)"/>
      <use xlink:href="#DejaVuSans-43" transform="translate(735.742188 0.015625)"/>
      <use xlink:href="#DejaVuSans-65" transform="translate(805.566406 0.015625)"/>
      <use xlink:href="#DejaVuSans-6e" transform="translate(867.089844 0.015625)"/>
      <use xlink:href="#DejaVuSans-74" transform="translate(930.46875 0.015625)"/>
      <use xlink:href="#DejaVuSans-65" transform="translate(969.677734 0.015625)"/>
      <use xlink:href="#DejaVuSans-72" transform="translate(1031.201172 0.015625)"/>
      <use xlink:href="#DejaVuSans-29" transform="translate(1072.314453 0.015625)"/>
      <use xlink:href="#DejaVuSans-20" transform="translate(1111.328125 0.015625)"/>
      <use xlink:href="#DejaVuSans-28" transform="translate(1143.115234 0.015625)"/>
      <use xlink:href="#DejaVuSans-Oblique-3bc" transform="translate(1182.128906 0.015625)"/>
      <use xlink:href="#DejaVuSans-Oblique-6d" transform="translate(1245.751953 0.015625)"/>
      <use xlink:href="#DejaVuSans-29" transform="translate(1343.164062 0.015625)"/>
     </g>
    </g>
   </g>
   <g id="matplotlib.axis_2">
    <g id="ytick_1">
     <g id="line2d_8">
      <path d="M 54.97 293.754545 
L 441.679538 293.754545 
" clip-path="url(#p9f97836d19)" style="fill: none; stroke: #f2f2f2; stroke-width: 0.8; stroke-linecap: square"/>
     </g>
     <g id="line2d_9">
      <defs>
       <path id="m77ec9685e9" d="M 0 0 
L -3.5 0 
" style="stroke: #000000; stroke-width: 0.8"/>
      </defs>
      <g>
       <use xlink:href="#m77ec9685e9" x="54.97" y="293.754545" style="stroke: #000000; stroke-width: 0.8"/>
      </g>
     </g>
     <g id="text_9">
      <!-- 0 -->
      <g transform="translate(37.79 299.833295) scale(0.16 -0.16)">
       <use xlink:href="#DejaVuSans-30"/>
      </g>
     </g>
    </g>
    <g id="ytick_2">
     <g id="line2d_10">
      <path d="M 54.97 256.129804 
L 441.679538 256.129804 
" clip-path="url(#p9f97836d19)" style="fill: none; stroke: #f2f2f2; stroke-width: 0.8; stroke-linecap: square"/>
     </g>
     <g id="line2d_11">
      <g>
       <use xlink:href="#m77ec9685e9" x="54.97" y="256.129804" style="stroke: #000000; stroke-width: 0.8"/>
      </g>
     </g>
     <g id="text_10">
      <!-- 20 -->
      <g transform="translate(27.61 262.208554) scale(0.16 -0.16)">
       <use xlink:href="#DejaVuSans-32"/>
       <use xlink:href="#DejaVuSans-30" x="63.623047"/>
      </g>
     </g>
    </g>
    <g id="ytick_3">
     <g id="line2d_12">
      <path d="M 54.97 218.505063 
L 441.679538 218.505063 
" clip-path="url(#p9f97836d19)" style="fill: none; stroke: #f2f2f2; stroke-width: 0.8; stroke-linecap: square"/>
     </g>
     <g id="line2d_13">
      <g>
       <use xlink:href="#m77ec9685e9" x="54.97" y="218.505063" style="stroke: #000000; stroke-width: 0.8"/>
      </g>
     </g>
     <g id="text_11">
      <!-- 40 -->
      <g transform="translate(27.61 224.583813) scale(0.16 -0.16)">
       <use xlink:href="#DejaVuSans-34"/>
       <use xlink:href="#DejaVuSans-30" x="63.623047"/>
      </g>
     </g>
    </g>
    <g id="ytick_4">
     <g id="line2d_14">
      <path d="M 54.97 180.880321 
L 441.679538 180.880321 
" clip-path="url(#p9f97836d19)" style="fill: none; stroke: #f2f2f2; stroke-width: 0.8; stroke-linecap: square"/>
     </g>
     <g id="line2d_15">
      <g>
       <use xlink:href="#m77ec9685e9" x="54.97" y="180.880321" style="stroke: #000000; stroke-width: 0.8"/>
      </g>
     </g>
     <g id="text_12">
      <!-- 60 -->
      <g transform="translate(27.61 186.959071) scale(0.16 -0.16)">
       <use xlink:href="#DejaVuSans-36"/>
       <use xlink:href="#DejaVuSans-30" x="63.623047"/>
      </g>
     </g>
    </g>
    <g id="ytick_5">
     <g id="line2d_16">
      <path d="M 54.97 143.25558 
L 441.679538 143.25558 
" clip-path="url(#p9f97836d19)" style="fill: none; stroke: #f2f2f2; stroke-width: 0.8; stroke-linecap: square"/>
     </g>
     <g id="line2d_17">
      <g>
       <use xlink:href="#m77ec9685e9" x="54.97" y="143.25558" style="stroke: #000000; stroke-width: 0.8"/>
      </g>
     </g>
     <g id="text_13">
      <!-- 80 -->
      <g transform="translate(27.61 149.33433) scale(0.16 -0.16)">
       <defs>
        <path id="DejaVuSans-38" d="M 2034 2216 
Q 1584 2216 1326 1975 
Q 1069 1734 1069 1313 
Q 1069 891 1326 650 
Q 1584 409 2034 409 
Q 2484 409 2743 651 
Q 3003 894 3003 1313 
Q 3003 1734 2745 1975 
Q 2488 2216 2034 2216 
z
M 1403 2484 
Q 997 2584 770 2862 
Q 544 3141 544 3541 
Q 544 4100 942 4425 
Q 1341 4750 2034 4750 
Q 2731 4750 3128 4425 
Q 3525 4100 3525 3541 
Q 3525 3141 3298 2862 
Q 3072 2584 2669 2484 
Q 3125 2378 3379 2068 
Q 3634 1759 3634 1313 
Q 3634 634 3220 271 
Q 2806 -91 2034 -91 
Q 1263 -91 848 271 
Q 434 634 434 1313 
Q 434 1759 690 2068 
Q 947 2378 1403 2484 
z
M 1172 3481 
Q 1172 3119 1398 2916 
Q 1625 2713 2034 2713 
Q 2441 2713 2670 2916 
Q 2900 3119 2900 3481 
Q 2900 3844 2670 4047 
Q 2441 4250 2034 4250 
Q 1625 4250 1398 4047 
Q 1172 3844 1172 3481 
z
" transform="scale(0.015625)"/>
       </defs>
       <use xlink:href="#DejaVuSans-38"/>
       <use xlink:href="#DejaVuSans-30" x="63.623047"/>
      </g>
     </g>
    </g>
    <g id="ytick_6">
     <g id="line2d_18">
      <path d="M 54.97 105.630839 
L 441.679538 105.630839 
" clip-path="url(#p9f97836d19)" style="fill: none; stroke: #f2f2f2; stroke-width: 0.8; stroke-linecap: square"/>
     </g>
     <g id="line2d_19">
      <g>
       <use xlink:href="#m77ec9685e9" x="54.97" y="105.630839" style="stroke: #000000; stroke-width: 0.8"/>
      </g>
     </g>
     <g id="text_14">
      <!-- 100 -->
      <g transform="translate(17.43 111.709589) scale(0.16 -0.16)">
       <use xlink:href="#DejaVuSans-31"/>
       <use xlink:href="#DejaVuSans-30" x="63.623047"/>
       <use xlink:href="#DejaVuSans-30" x="127.246094"/>
      </g>
     </g>
    </g>
    <g id="ytick_7">
     <g id="line2d_20">
      <path d="M 54.97 68.006097 
L 441.679538 68.006097 
" clip-path="url(#p9f97836d19)" style="fill: none; stroke: #f2f2f2; stroke-width: 0.8; stroke-linecap: square"/>
     </g>
     <g id="line2d_21">
      <g>
       <use xlink:href="#m77ec9685e9" x="54.97" y="68.006097" style="stroke: #000000; stroke-width: 0.8"/>
      </g>
     </g>
     <g id="text_15">
      <!-- 120 -->
      <g transform="translate(17.43 74.084847) scale(0.16 -0.16)">
       <use xlink:href="#DejaVuSans-31"/>
       <use xlink:href="#DejaVuSans-32" x="63.623047"/>
       <use xlink:href="#DejaVuSans-30" x="127.246094"/>
      </g>
     </g>
    </g>
    <g id="ytick_8">
     <g id="line2d_22">
      <path d="M 54.97 30.381356 
L 441.679538 30.381356 
" clip-path="url(#p9f97836d19)" style="fill: none; stroke: #f2f2f2; stroke-width: 0.8; stroke-linecap: square"/>
     </g>
     <g id="line2d_23">
      <g>
       <use xlink:href="#m77ec9685e9" x="54.97" y="30.381356" style="stroke: #000000; stroke-width: 0.8"/>
      </g>
     </g>
     <g id="text_16">
      <!-- 140 -->
      <g transform="translate(17.43 36.460106) scale(0.16 -0.16)">
       <use xlink:href="#DejaVuSans-31"/>
       <use xlink:href="#DejaVuSans-34" x="63.623047"/>
       <use xlink:href="#DejaVuSans-30" x="127.246094"/>
      </g>
     </g>
    </g>
    <g id="text_17">
     <!-- Concentration (mM) -->
     <g transform="translate(10.518438 232.164531) rotate(-90) scale(0.14 -0.14)">
      <defs>
       <path id="DejaVuSans-4d" d="M 628 4666 
L 1569 4666 
L 2759 1491 
L 3956 4666 
L 4897 4666 
L 4897 0 
L 4281 0 
L 4281 4097 
L 3078 897 
L 2444 897 
L 1241 4097 
L 1241 0 
L 628 0 
L 628 4666 
z
" transform="scale(0.015625)"/>
      </defs>
      <use xlink:href="#DejaVuSans-43"/>
      <use xlink:href="#DejaVuSans-6f" x="69.824219"/>
      <use xlink:href="#DejaVuSans-6e" x="131.005859"/>
      <use xlink:href="#DejaVuSans-63" x="194.384766"/>
      <use xlink:href="#DejaVuSans-65" x="249.365234"/>
      <use xlink:href="#DejaVuSans-6e" x="310.888672"/>
      <use xlink:href="#DejaVuSans-74" x="374.267578"/>
      <use xlink:href="#DejaVuSans-72" x="413.476562"/>
      <use xlink:href="#DejaVuSans-61" x="454.589844"/>
      <use xlink:href="#DejaVuSans-74" x="515.869141"/>
      <use xlink:href="#DejaVuSans-69" x="555.078125"/>
      <use xlink:href="#DejaVuSans-6f" x="582.861328"/>
      <use xlink:href="#DejaVuSans-6e" x="644.042969"/>
      <use xlink:href="#DejaVuSans-20" x="707.421875"/>
      <use xlink:href="#DejaVuSans-28" x="739.208984"/>
      <use xlink:href="#DejaVuSans-6d" x="778.222656"/>
      <use xlink:href="#DejaVuSans-4d" x="875.634766"/>
      <use xlink:href="#DejaVuSans-29" x="961.914062"/>
     </g>
    </g>
   </g>
   <g id="line2d_24">
    <path d="M 72.547706 291.422118 
L 76.683637 291.458562 
L 80.819568 291.567895 
L 84.955499 291.750116 
L 89.09143 292.005225 
L 93.227361 292.333223 
L 97.363292 292.734108 
L 101.499222 293.207883 
L 105.635153 293.754545 
" clip-path="url(#p9f97836d19)" style="fill: none; stroke: #1f77b4; stroke-opacity: 0.9; stroke-width: 3; stroke-linecap: square"/>
   </g>
   <g id="line2d_25">
    <path d="M 72.547706 283.222179 
L 76.683637 283.258623 
L 80.819568 283.367956 
L 84.955499 283.550177 
L 89.09143 283.805286 
L 93.227361 284.133284 
L 97.363292 284.534169 
L 101.499222 285.007944 
L 105.635153 285.554606 
L 109.771084 286.174157 
L 113.907015 286.866596 
L 118.042946 287.631924 
L 122.178877 288.47014 
L 126.314808 289.381244 
L 130.450739 290.365237 
L 134.58667 291.422118 
L 138.7226 292.551888 
L 142.858531 293.754545 
" clip-path="url(#p9f97836d19)" style="fill: none; stroke: #ff7f0e; stroke-opacity: 0.9; stroke-width: 3; stroke-linecap: square"/>
   </g>
   <g id="line2d_26">
    <path d="M 72.547706 270.976938 
L 76.683637 271.013383 
L 80.819568 271.122715 
L 84.955499 271.304936 
L 89.09143 271.560045 
L 93.227361 271.888043 
L 97.363292 272.288929 
L 101.499222 272.762703 
L 105.635153 273.309365 
L 109.771084 273.928916 
L 113.907015 274.621355 
L 118.042946 275.386683 
L 122.178877 276.224899 
L 126.314808 277.136003 
L 130.450739 278.119995 
L 134.58667 279.176876 
L 138.7226 280.306646 
L 142.858531 281.509303 
L 146.994462 282.784849 
L 151.130393 284.133283 
L 155.266324 285.554606 
L 159.402255 287.048817 
L 163.538186 288.615917 
L 167.674117 290.255904 
L 171.810048 291.968781 
L 175.945978 293.754545 
" clip-path="url(#p9f97836d19)" style="fill: none; stroke: #2ca02c; stroke-opacity: 0.9; stroke-width: 3; stroke-linecap: square"/>
   </g>
   <g id="line2d_27">
    <path d="M 72.547706 251.625086 
L 76.683637 251.66153 
L 80.819568 251.770863 
L 84.955499 251.953083 
L 89.09143 252.208193 
L 93.227361 252.53619 
L 97.363292 252.937076 
L 101.499222 253.41085 
L 105.635153 253.957513 
L 109.771084 254.577063 
L 113.907015 255.269503 
L 118.042946 256.03483 
L 122.178877 256.873046 
L 126.314808 257.78415 
L 130.450739 258.768142 
L 134.58667 259.825023 
L 138.7226 260.954792 
L 142.858531 262.15745 
L 146.994462 263.432996 
L 151.130393 264.78143 
L 155.266324 266.202752 
L 159.402255 267.696963 
L 163.538186 269.264062 
L 167.674117 270.90405 
L 171.810048 272.616926 
L 175.945978 274.40269 
L 180.081909 276.261343 
L 184.21784 278.192884 
L 188.353771 280.197313 
L 192.489702 282.274631 
L 196.625633 284.424837 
L 200.761564 286.647931 
L 204.897495 288.943914 
L 209.033425 291.312785 
L 213.169356 293.754545 
" clip-path="url(#p9f97836d19)" style="fill: none; stroke: #d62728; stroke-opacity: 0.9; stroke-width: 3; stroke-linecap: square"/>
   </g>
   <g id="line2d_28">
    <path d="M 72.547706 229.467033 
L 76.683637 229.503478 
L 80.819568 229.61281 
L 84.955499 229.795031 
L 89.09143 230.05014 
L 93.227361 230.378138 
L 97.363292 230.779023 
L 101.499222 231.252798 
L 105.635153 231.79946 
L 109.771084 232.419011 
L 113.907015 233.11145 
L 118.042946 233.876777 
L 122.178877 234.714993 
L 126.314808 235.626097 
L 130.450739 236.61009 
L 134.58667 237.666971 
L 138.7226 238.79674 
L 142.858531 239.999397 
L 146.994462 241.274943 
L 151.130393 242.623377 
L 155.266324 244.044699 
L 159.402255 245.53891 
L 163.538186 247.106009 
L 167.674117 248.745997 
L 171.810048 250.458873 
L 175.945978 252.244637 
L 180.081909 254.103289 
L 184.21784 256.03483 
L 188.353771 258.039259 
L 192.489702 260.116577 
L 196.625633 262.266782 
L 200.761564 264.489877 
L 204.897495 266.785859 
L 209.033425 269.15473 
L 213.169356 271.596489 
L 217.305287 274.111137 
L 221.441218 276.698673 
L 225.577149 279.359097 
L 229.71308 282.09241 
L 233.849011 284.898611 
L 237.984942 287.7777 
L 242.120873 290.729679 
L 246.256803 293.754545 
" clip-path="url(#p9f97836d19)" style="fill: none; stroke: #9467bd; stroke-opacity: 0.9; stroke-width: 3; stroke-linecap: square"/>
   </g>
   <g id="line2d_29">
    <path d="M 72.547706 198.963268 
L 76.683637 198.999712 
L 80.819568 199.109044 
L 84.955499 199.291265 
L 89.09143 199.546374 
L 93.227361 199.874372 
L 97.363292 200.275258 
L 101.499222 200.749032 
L 105.635153 201.295694 
L 109.771084 201.915245 
L 113.907015 202.607684 
L 118.042946 203.373012 
L 122.178877 204.211227 
L 126.314808 205.122331 
L 130.450739 206.106324 
L 134.58667 207.163205 
L 138.7226 208.292974 
L 142.858531 209.495631 
L 146.994462 210.771177 
L 151.130393 212.119611 
L 155.266324 213.540933 
L 159.402255 215.035144 
L 163.538186 216.602243 
L 167.674117 218.242231 
L 171.810048 219.955106 
L 175.945978 221.74087 
L 180.081909 223.599523 
L 184.21784 225.531063 
L 188.353771 227.535493 
L 192.489702 229.61281 
L 196.625633 231.763016 
L 200.761564 233.98611 
L 204.897495 236.282092 
L 209.033425 238.650963 
L 213.169356 241.092722 
L 217.305287 243.607369 
L 221.441218 246.194905 
L 225.577149 248.855329 
L 229.71308 251.588642 
L 233.849011 254.394842 
L 237.984942 257.273931 
L 242.120873 260.225909 
L 246.256803 263.250775 
L 250.392734 266.348529 
L 254.528665 269.519171 
L 258.664596 272.762702 
L 262.800527 276.079122 
L 266.936458 279.468429 
L 271.072389 282.930626 
L 275.20832 286.46571 
L 279.344251 290.073683 
L 283.480181 293.754545 
" clip-path="url(#p9f97836d19)" style="fill: none; stroke: #8c564b; stroke-opacity: 0.9; stroke-width: 3; stroke-linecap: square"/>
   </g>
   <g id="line2d_30">
    <path d="M 72.547706 162.555548 
L 76.683637 162.591992 
L 80.819568 162.701324 
L 84.955499 162.883545 
L 89.09143 163.138654 
L 93.227361 163.466652 
L 97.363292 163.867538 
L 101.499222 164.341312 
L 105.635153 164.887974 
L 109.771084 165.507525 
L 113.907015 166.199964 
L 118.042946 166.965291 
L 122.178877 167.803507 
L 126.314808 168.714611 
L 130.450739 169.698604 
L 134.58667 170.755485 
L 138.7226 171.885254 
L 142.858531 173.087911 
L 146.994462 174.363457 
L 151.130393 175.711891 
L 155.266324 177.133213 
L 159.402255 178.627424 
L 163.538186 180.194523 
L 167.674117 181.83451 
L 171.810048 183.547386 
L 175.945978 185.33315 
L 180.081909 187.191802 
L 184.21784 189.123343 
L 188.353771 191.127772 
L 192.489702 193.20509 
L 196.625633 195.355295 
L 200.761564 197.578389 
L 204.897495 199.874372 
L 209.033425 202.243242 
L 213.169356 204.685001 
L 217.305287 207.199649 
L 221.441218 209.787184 
L 225.577149 212.447608 
L 229.71308 215.180921 
L 233.849011 217.987121 
L 237.984942 220.86621 
L 242.120873 223.818188 
L 246.256803 226.843053 
L 250.392734 229.940807 
L 254.528665 233.11145 
L 258.664596 236.35498 
L 262.800527 239.671399 
L 266.936458 243.060707 
L 271.072389 246.522902 
L 275.20832 250.057986 
L 279.344251 253.665959 
L 283.480181 257.34682 
L 287.616112 261.100569 
L 291.752043 264.927206 
L 295.887974 268.826732 
L 300.023905 272.799146 
L 304.159836 276.844449 
L 308.295767 280.96264 
L 312.431698 285.15372 
L 316.567629 289.417688 
L 320.703559 293.754545 
" clip-path="url(#p9f97836d19)" style="fill: none; stroke: #e377c2; stroke-opacity: 0.9; stroke-width: 3; stroke-linecap: square"/>
   </g>
   <g id="line2d_31">
    <path d="M 72.547706 125.236724 
L 76.683637 125.273168 
L 80.819568 125.382501 
L 84.955499 125.564721 
L 89.09143 125.819831 
L 93.227361 126.147828 
L 97.363292 126.548714 
L 101.499222 127.022488 
L 105.635153 127.56915 
L 109.771084 128.188701 
L 113.907015 128.88114 
L 118.042946 129.646468 
L 122.178877 130.484683 
L 126.314808 131.395788 
L 130.450739 132.37978 
L 134.58667 133.436661 
L 138.7226 134.56643 
L 142.858531 135.769087 
L 146.994462 137.044633 
L 151.130393 138.393067 
L 155.266324 139.814389 
L 159.402255 141.3086 
L 163.538186 142.875699 
L 167.674117 144.515686 
L 171.810048 146.228562 
L 175.945978 148.014326 
L 180.081909 149.872979 
L 184.21784 151.804519 
L 188.353771 153.808948 
L 192.489702 155.886266 
L 196.625633 158.036471 
L 200.761564 160.259565 
L 204.897495 162.555548 
L 209.033425 164.924418 
L 213.169356 167.366177 
L 217.305287 169.880824 
L 221.441218 172.46836 
L 225.577149 175.128784 
L 229.71308 177.862096 
L 233.849011 180.668297 
L 237.984942 183.547386 
L 242.120873 186.499363 
L 246.256803 189.524229 
L 250.392734 192.621983 
L 254.528665 195.792625 
L 258.664596 199.036156 
L 262.800527 202.352575 
L 266.936458 205.741882 
L 271.072389 209.204077 
L 275.20832 212.739161 
L 279.344251 216.347134 
L 283.480181 220.027994 
L 287.616112 223.781743 
L 291.752043 227.608381 
L 295.887974 231.507906 
L 300.023905 235.48032 
L 304.159836 239.525623 
L 308.295767 243.643813 
L 312.431698 247.834892 
L 316.567629 252.09886 
L 320.703559 256.435715 
L 324.83949 260.845459 
L 328.975421 265.328092 
L 333.111352 269.883613 
L 337.247283 274.512022 
L 341.383214 279.21332 
L 345.519145 283.987506 
L 349.655076 288.834581 
L 353.791006 293.754545 
" clip-path="url(#p9f97836d19)" style="fill: none; stroke: #7f7f7f; stroke-opacity: 0.9; stroke-width: 3; stroke-linecap: square"/>
   </g>
   <g id="line2d_32">
    <path d="M 72.547706 77.67709 
L 76.683637 77.713535 
L 80.819568 77.822867 
L 84.955499 78.005088 
L 89.09143 78.260197 
L 93.227361 78.588194 
L 97.363292 78.98908 
L 101.499222 79.462854 
L 105.635153 80.009517 
L 109.771084 80.629068 
L 113.907015 81.321507 
L 118.042946 82.086834 
L 122.178877 82.92505 
L 126.314808 83.836154 
L 130.450739 84.820146 
L 134.58667 85.877027 
L 138.7226 87.006796 
L 142.858531 88.209454 
L 146.994462 89.484999 
L 151.130393 90.833433 
L 155.266324 92.254756 
L 159.402255 93.748966 
L 163.538186 95.316065 
L 167.674117 96.956053 
L 171.810048 98.668929 
L 175.945978 100.454693 
L 180.081909 102.313345 
L 184.21784 104.244886 
L 188.353771 106.249315 
L 192.489702 108.326632 
L 196.625633 110.476837 
L 200.761564 112.699931 
L 204.897495 114.995914 
L 209.033425 117.364784 
L 213.169356 119.806543 
L 217.305287 122.321191 
L 221.441218 124.908726 
L 225.577149 127.56915 
L 229.71308 130.302462 
L 233.849011 133.108663 
L 237.984942 135.987752 
L 242.120873 138.939729 
L 246.256803 141.964595 
L 250.392734 145.062349 
L 254.528665 148.232991 
L 258.664596 151.476522 
L 262.800527 154.79294 
L 266.936458 158.182248 
L 271.072389 161.644443 
L 275.20832 165.179527 
L 279.344251 168.787499 
L 283.480181 172.46836 
L 287.616112 176.222109 
L 291.752043 180.048746 
L 295.887974 183.948272 
L 300.023905 187.920685 
L 304.159836 191.965988 
L 308.295767 196.084178 
L 312.431698 200.275257 
L 316.567629 204.539224 
L 320.703559 208.87608 
L 324.83949 213.285824 
L 328.975421 217.768456 
L 333.111352 222.323977 
L 337.247283 226.952385 
L 341.383214 231.653683 
L 345.519145 236.427868 
L 349.655076 241.274942 
L 353.791006 246.194905 
L 357.926937 251.187755 
L 362.062868 256.253494 
L 366.198799 261.392122 
L 370.33473 266.603638 
L 374.470661 271.888042 
L 378.606592 277.245335 
L 382.742523 282.675516 
L 386.878454 288.178586 
L 391.014384 293.754545 
" clip-path="url(#p9f97836d19)" style="fill: none; stroke: #bcbd22; stroke-opacity: 0.9; stroke-width: 3; stroke-linecap: square"/>
   </g>
   <g id="line2d_33">
    <path d="M 72.547706 30.445455 
L 76.683637 30.481899 
L 80.819568 30.591231 
L 84.955499 30.773452 
L 89.09143 31.028561 
L 93.227361 31.356559 
L 97.363292 31.757444 
L 101.499222 32.231219 
L 105.635153 32.777881 
L 109.771084 33.397432 
L 113.907015 34.089871 
L 118.042946 34.855198 
L 122.178877 35.693414 
L 126.314808 36.604518 
L 130.450739 37.588511 
L 134.58667 38.645391 
L 138.7226 39.77516 
L 142.858531 40.977818 
L 146.994462 42.253363 
L 151.130393 43.601797 
L 155.266324 45.02312 
L 159.402255 46.517331 
L 163.538186 48.08443 
L 167.674117 49.724417 
L 171.810048 51.437293 
L 175.945978 53.223057 
L 180.081909 55.081709 
L 184.21784 57.01325 
L 188.353771 59.017679 
L 192.489702 61.094996 
L 196.625633 63.245202 
L 200.761564 65.468296 
L 204.897495 67.764278 
L 209.033425 70.133148 
L 213.169356 72.574907 
L 217.305287 75.089555 
L 221.441218 77.67709 
L 225.577149 80.337514 
L 229.71308 83.070826 
L 233.849011 85.877027 
L 237.984942 88.756116 
L 242.120873 91.708093 
L 246.256803 94.732959 
L 250.392734 97.830713 
L 254.528665 101.001355 
L 258.664596 104.244885 
L 262.800527 107.561304 
L 266.936458 110.950611 
L 271.072389 114.412807 
L 275.20832 117.947891 
L 279.344251 121.555863 
L 283.480181 125.236724 
L 287.616112 128.990472 
L 291.752043 132.81711 
L 295.887974 136.716635 
L 300.023905 140.689049 
L 304.159836 144.734351 
L 308.295767 148.852542 
L 312.431698 153.04362 
L 316.567629 157.307588 
L 320.703559 161.644443 
L 324.83949 166.054187 
L 328.975421 170.536819 
L 333.111352 175.09234 
L 337.247283 179.720748 
L 341.383214 184.422046 
L 345.519145 189.196231 
L 349.655076 194.043305 
L 353.791006 198.963267 
L 357.926937 203.956118 
L 362.062868 209.021856 
L 366.198799 214.160484 
L 370.33473 219.371999 
L 374.470661 224.656403 
L 378.606592 230.013695 
L 382.742523 235.443876 
L 386.878454 240.946945 
L 391.014384 246.522902 
L 395.150315 252.171748 
L 399.286246 257.893482 
L 403.422177 263.688104 
L 407.558108 269.555615 
L 411.694039 275.496015 
L 415.82997 281.509303 
L 419.965901 287.595479 
L 424.101832 293.754545 
" clip-path="url(#p9f97836d19)" style="fill: none; stroke: #17becf; stroke-opacity: 0.9; stroke-width: 3; stroke-linecap: square"/>
   </g>
   <g id="patch_3">
    <path d="M 54.97 306.92 
L 54.97 17.28 
" style="fill: none; stroke: #000000; stroke-width: 0.8; stroke-linejoin: miter; stroke-linecap: square"/>
   </g>
   <g id="patch_4">
    <path d="M 441.679538 306.92 
L 441.679538 17.28 
" style="fill: none; stroke: #000000; stroke-width: 0.8; stroke-linejoin: miter; stroke-linecap: square"/>
   </g>
   <g id="patch_5">
    <path d="M 54.97 306.92 
L 441.679538 306.92 
" style="fill: none; stroke: #000000; stroke-width: 0.8; stroke-linejoin: miter; stroke-linecap: square"/>
   </g>
   <g id="patch_6">
    <path d="M 54.97 17.28 
L 441.679538 17.28 
" style="fill: none; stroke: #000000; stroke-width: 0.8; stroke-linejoin: miter; stroke-linecap: square"/>
   </g>
   <g id="text_18">
    <!-- LAC -->
    <g transform="translate(234.71305 11.28) scale(0.14 -0.14)">
     <defs>
      <path id="DejaVuSans-4c" d="M 628 4666 
L 1259 4666 
L 1259 531 
L 3531 531 
L 3531 0 
L 628 0 
L 628 4666 
z
" transform="scale(0.015625)"/>
      <path id="DejaVuSans-41" d="M 2188 4044 
L 1331 1722 
L 3047 1722 
L 2188 4044 
z
M 1831 4666 
L 2547 4666 
L 4325 0 
L 3669 0 
L 3244 1197 
L 1141 1197 
L 716 0 
L 50 0 
L 1831 4666 
z
" transform="scale(0.015625)"/>
     </defs>
     <use xlink:href="#DejaVuSans-4c"/>
     <use xlink:href="#DejaVuSans-41" x="57.962891"/>
     <use xlink:href="#DejaVuSans-43" x="124.621094"/>
    </g>
   </g>
   <g id="legend_1">
    <g id="patch_7">
     <path d="M 287.452038 208.524375 
L 433.979538 208.524375 
Q 436.179538 208.524375 436.179538 206.324375 
L 436.179538 24.98 
Q 436.179538 22.78 433.979538 22.78 
L 287.452038 22.78 
Q 285.252038 22.78 285.252038 24.98 
L 285.252038 206.324375 
Q 285.252038 208.524375 287.452038 208.524375 
z
" style="fill: #ffffff; opacity: 0.8; stroke: #cccccc; stroke-linejoin: miter"/>
    </g>
    <g id="text_19">
     <!-- Aggregate Radius -->
     <g transform="translate(289.652038 39.3375) scale(0.16 -0.16)">
      <defs>
       <path id="DejaVuSans-67" d="M 2906 1791 
Q 2906 2416 2648 2759 
Q 2391 3103 1925 3103 
Q 1463 3103 1205 2759 
Q 947 2416 947 1791 
Q 947 1169 1205 825 
Q 1463 481 1925 481 
Q 2391 481 2648 825 
Q 2906 1169 2906 1791 
z
M 3481 434 
Q 3481 -459 3084 -895 
Q 2688 -1331 1869 -1331 
Q 1566 -1331 1297 -1286 
Q 1028 -1241 775 -1147 
L 775 -588 
Q 1028 -725 1275 -790 
Q 1522 -856 1778 -856 
Q 2344 -856 2625 -561 
Q 2906 -266 2906 331 
L 2906 616 
Q 2728 306 2450 153 
Q 2172 0 1784 0 
Q 1141 0 747 490 
Q 353 981 353 1791 
Q 353 2603 747 3093 
Q 1141 3584 1784 3584 
Q 2172 3584 2450 3431 
Q 2728 3278 2906 2969 
L 2906 3500 
L 3481 3500 
L 3481 434 
z
" transform="scale(0.015625)"/>
       <path id="DejaVuSans-52" d="M 2841 2188 
Q 3044 2119 3236 1894 
Q 3428 1669 3622 1275 
L 4263 0 
L 3584 0 
L 2988 1197 
Q 2756 1666 2539 1819 
Q 2322 1972 1947 1972 
L 1259 1972 
L 1259 0 
L 628 0 
L 628 4666 
L 2053 4666 
Q 2853 4666 3247 4331 
Q 3641 3997 3641 3322 
Q 3641 2881 3436 2590 
Q 3231 2300 2841 2188 
z
M 1259 4147 
L 1259 2491 
L 2053 2491 
Q 2509 2491 2742 2702 
Q 2975 2913 2975 3322 
Q 2975 3731 2742 3939 
Q 2509 4147 2053 4147 
L 1259 4147 
z
" transform="scale(0.015625)"/>
       <path id="DejaVuSans-64" d="M 2906 2969 
L 2906 4863 
L 3481 4863 
L 3481 0 
L 2906 0 
L 2906 525 
Q 2725 213 2448 61 
Q 2172 -91 1784 -91 
Q 1150 -91 751 415 
Q 353 922 353 1747 
Q 353 2572 751 3078 
Q 1150 3584 1784 3584 
Q 2172 3584 2448 3432 
Q 2725 3281 2906 2969 
z
M 947 1747 
Q 947 1113 1208 752 
Q 1469 391 1925 391 
Q 2381 391 2643 752 
Q 2906 1113 2906 1747 
Q 2906 2381 2643 2742 
Q 2381 3103 1925 3103 
Q 1469 3103 1208 2742 
Q 947 2381 947 1747 
z
" transform="scale(0.015625)"/>
       <path id="DejaVuSans-75" d="M 544 1381 
L 544 3500 
L 1119 3500 
L 1119 1403 
Q 1119 906 1312 657 
Q 1506 409 1894 409 
Q 2359 409 2629 706 
Q 2900 1003 2900 1516 
L 2900 3500 
L 3475 3500 
L 3475 0 
L 2900 0 
L 2900 538 
Q 2691 219 2414 64 
Q 2138 -91 1772 -91 
Q 1169 -91 856 284 
Q 544 659 544 1381 
z
M 1991 3584 
L 1991 3584 
z
" transform="scale(0.015625)"/>
      </defs>
      <use xlink:href="#DejaVuSans-41"/>
      <use xlink:href="#DejaVuSans-67" x="68.408203"/>
      <use xlink:href="#DejaVuSans-67" x="131.884766"/>
      <use xlink:href="#DejaVuSans-72" x="195.361328"/>
      <use xlink:href="#DejaVuSans-65" x="234.224609"/>
      <use xlink:href="#DejaVuSans-67" x="295.748047"/>
      <use xlink:href="#DejaVuSans-61" x="359.224609"/>
      <use xlink:href="#DejaVuSans-74" x="420.503906"/>
      <use xlink:href="#DejaVuSans-65" x="459.712891"/>
      <use xlink:href="#DejaVuSans-20" x="521.236328"/>
      <use xlink:href="#DejaVuSans-52" x="553.023438"/>
      <use xlink:href="#DejaVuSans-61" x="620.255859"/>
      <use xlink:href="#DejaVuSans-64" x="681.535156"/>
      <use xlink:href="#DejaVuSans-69" x="745.011719"/>
      <use xlink:href="#DejaVuSans-75" x="772.794922"/>
      <use xlink:href="#DejaVuSans-73" x="836.173828"/>
     </g>
    </g>
    <g id="line2d_34">
     <path d="M 334.817663 52.673281 
L 345.817663 52.673281 
L 356.817663 52.673281 
" style="fill: none; stroke: #1f77b4; stroke-opacity: 0.9; stroke-width: 3; stroke-linecap: square"/>
    </g>
    <g id="text_20">
     <!-- 60 -->
     <g transform="translate(365.617663 56.523281) scale(0.11 -0.11)">
      <use xlink:href="#DejaVuSans-36"/>
      <use xlink:href="#DejaVuSans-30" x="63.623047"/>
     </g>
    </g>
    <g id="line2d_35">
     <path d="M 334.817663 68.819219 
L 345.817663 68.819219 
L 356.817663 68.819219 
" style="fill: none; stroke: #ff7f0e; stroke-opacity: 0.9; stroke-width: 3; stroke-linecap: square"/>
    </g>
    <g id="text_21">
     <!-- 120 -->
     <g transform="translate(365.617663 72.669219) scale(0.11 -0.11)">
      <use xlink:href="#DejaVuSans-31"/>
      <use xlink:href="#DejaVuSans-32" x="63.623047"/>
      <use xlink:href="#DejaVuSans-30" x="127.246094"/>
     </g>
    </g>
    <g id="line2d_36">
     <path d="M 334.817663 84.965156 
L 345.817663 84.965156 
L 356.817663 84.965156 
" style="fill: none; stroke: #2ca02c; stroke-opacity: 0.9; stroke-width: 3; stroke-linecap: square"/>
    </g>
    <g id="text_22">
     <!-- 180 -->
     <g transform="translate(365.617663 88.815156) scale(0.11 -0.11)">
      <use xlink:href="#DejaVuSans-31"/>
      <use xlink:href="#DejaVuSans-38" x="63.623047"/>
      <use xlink:href="#DejaVuSans-30" x="127.246094"/>
     </g>
    </g>
    <g id="line2d_37">
     <path d="M 334.817663 101.111094 
L 345.817663 101.111094 
L 356.817663 101.111094 
" style="fill: none; stroke: #d62728; stroke-opacity: 0.9; stroke-width: 3; stroke-linecap: square"/>
    </g>
    <g id="text_23">
     <!-- 240 -->
     <g transform="translate(365.617663 104.961094) scale(0.11 -0.11)">
      <use xlink:href="#DejaVuSans-32"/>
      <use xlink:href="#DejaVuSans-34" x="63.623047"/>
      <use xlink:href="#DejaVuSans-30" x="127.246094"/>
     </g>
    </g>
    <g id="line2d_38">
     <path d="M 334.817663 117.257031 
L 345.817663 117.257031 
L 356.817663 117.257031 
" style="fill: none; stroke: #9467bd; stroke-opacity: 0.9; stroke-width: 3; stroke-linecap: square"/>
    </g>
    <g id="text_24">
     <!-- 300 -->
     <g transform="translate(365.617663 121.107031) scale(0.11 -0.11)">
      <use xlink:href="#DejaVuSans-33"/>
      <use xlink:href="#DejaVuSans-30" x="63.623047"/>
      <use xlink:href="#DejaVuSans-30" x="127.246094"/>
     </g>
    </g>
    <g id="line2d_39">
     <path d="M 334.817663 133.402969 
L 345.817663 133.402969 
L 356.817663 133.402969 
" style="fill: none; stroke: #8c564b; stroke-opacity: 0.9; stroke-width: 3; stroke-linecap: square"/>
    </g>
    <g id="text_25">
     <!-- 360 -->
     <g transform="translate(365.617663 137.252969) scale(0.11 -0.11)">
      <use xlink:href="#DejaVuSans-33"/>
      <use xlink:href="#DejaVuSans-36" x="63.623047"/>
      <use xlink:href="#DejaVuSans-30" x="127.246094"/>
     </g>
    </g>
    <g id="line2d_40">
     <path d="M 334.817663 149.548906 
L 345.817663 149.548906 
L 356.817663 149.548906 
" style="fill: none; stroke: #e377c2; stroke-opacity: 0.9; stroke-width: 3; stroke-linecap: square"/>
    </g>
    <g id="text_26">
     <!-- 420 -->
     <g transform="translate(365.617663 153.398906) scale(0.11 -0.11)">
      <use xlink:href="#DejaVuSans-34"/>
      <use xlink:href="#DejaVuSans-32" x="63.623047"/>
      <use xlink:href="#DejaVuSans-30" x="127.246094"/>
     </g>
    </g>
    <g id="line2d_41">
     <path d="M 334.817663 165.694844 
L 345.817663 165.694844 
L 356.817663 165.694844 
" style="fill: none; stroke: #7f7f7f; stroke-opacity: 0.9; stroke-width: 3; stroke-linecap: square"/>
    </g>
    <g id="text_27">
     <!-- 480 -->
     <g transform="translate(365.617663 169.544844) scale(0.11 -0.11)">
      <use xlink:href="#DejaVuSans-34"/>
      <use xlink:href="#DejaVuSans-38" x="63.623047"/>
      <use xlink:href="#DejaVuSans-30" x="127.246094"/>
     </g>
    </g>
    <g id="line2d_42">
     <path d="M 334.817663 181.840781 
L 345.817663 181.840781 
L 356.817663 181.840781 
" style="fill: none; stroke: #bcbd22; stroke-opacity: 0.9; stroke-width: 3; stroke-linecap: square"/>
    </g>
    <g id="text_28">
     <!-- 540 -->
     <g transform="translate(365.617663 185.690781) scale(0.11 -0.11)">
      <use xlink:href="#DejaVuSans-35"/>
      <use xlink:href="#DejaVuSans-34" x="63.623047"/>
      <use xlink:href="#DejaVuSans-30" x="127.246094"/>
     </g>
    </g>
    <g id="line2d_43">
     <path d="M 334.817663 197.986719 
L 345.817663 197.986719 
L 356.817663 197.986719 
" style="fill: none; stroke: #17becf; stroke-opacity: 0.9; stroke-width: 3; stroke-linecap: square"/>
    </g>
    <g id="text_29">
     <!-- 600 -->
     <g transform="translate(365.617663 201.836719) scale(0.11 -0.11)">
      <use xlink:href="#DejaVuSans-36"/>
      <use xlink:href="#DejaVuSans-30" x="63.623047"/>
      <use xlink:href="#DejaVuSans-30" x="127.246094"/>
     </g>
    </g>
   </g>
  </g>
 </g>
 <defs>
  <clipPath id="p9f97836d19">
   <rect x="54.97" y="17.28" width="386.709538" height="289.64"/>
  </clipPath>
 </defs>
</svg>
