<?xml version="1.0" encoding="utf-8" standalone="no"?>
<!DOCTYPE svg PUBLIC "-//W3C//DTD SVG 1.1//EN"
  "http://www.w3.org/Graphics/SVG/1.1/DTD/svg11.dtd">
<svg xmlns:xlink="http://www.w3.org/1999/xlink" width="460.8pt" height="345.6pt" viewBox="0 0 460.8 345.6" xmlns="http://www.w3.org/2000/svg" version="1.1">
 <metadata>
  <rdf:RDF xmlns:dc="http://purl.org/dc/elements/1.1/" xmlns:cc="http://creativecommons.org/ns#" xmlns:rdf="http://www.w3.org/1999/02/22-rdf-syntax-ns#">
   <cc:Work>
    <dc:type rdf:resource="http://purl.org/dc/dcmitype/StillImage"/>
    <dc:date>2023-03-17T16:26:51.054977</dc:date>
    <dc:format>image/svg+xml</dc:format>
    <dc:creator>
     <cc:Agent>
      <dc:title>Matplotlib v3.6.2, https://matplotlib.org/</dc:title>
     </cc:Agent>
    </dc:creator>
   </cc:Work>
  </rdf:RDF>
 </metadata>
 <defs>
  <style type="text/css">*{stroke-linejoin: round; stroke-linecap: butt}</style>
 </defs>
 <g id="figure_1">
  <g id="patch_1">
   <path d="M 0 345.6 
L 460.8 345.6 
L 460.8 0 
L 0 0 
z
" style="fill: #ffffff"/>
  </g>
  <g id="axes_1">
   <g id="patch_2">
    <path d="M 48.17 297.16 
L 450 297.16 
L 450 27.6 
L 48.17 27.6 
z
" style="fill: #ffffff"/>
   </g>
   <g id="matplotlib.axis_1">
    <g id="xtick_1">
     <g id="line2d_1">
      <defs>
       <path id="m5baab07d02" d="M 0 0 
L 0 3.5 
" style="stroke: #000000; stroke-width: 0.8"/>
      </defs>
      <g>
       <use xlink:href="#m5baab07d02" x="66.435" y="297.16" style="stroke: #000000; stroke-width: 0.8"/>
      </g>
     </g>
     <g id="text_1">
      <!-- 0 -->
      <g transform="translate(63.25375 311.758438) scale(0.1 -0.1)">
       <defs>
        <path id="DejaVuSans-30" d="M 2034 4250 
Q 1547 4250 1301 3770 
Q 1056 3291 1056 2328 
Q 1056 1369 1301 889 
Q 1547 409 2034 409 
Q 2525 409 2770 889 
Q 3016 1369 3016 2328 
Q 3016 3291 2770 3770 
Q 2525 4250 2034 4250 
z
M 2034 4750 
Q 2819 4750 3233 4129 
Q 3647 3509 3647 2328 
Q 3647 1150 3233 529 
Q 2819 -91 2034 -91 
Q 1250 -91 836 529 
Q 422 1150 422 2328 
Q 422 3509 836 4129 
Q 1250 4750 2034 4750 
z
" transform="scale(0.015625)"/>
       </defs>
       <use xlink:href="#DejaVuSans-30"/>
      </g>
     </g>
    </g>
    <g id="xtick_2">
     <g id="line2d_2">
      <g>
       <use xlink:href="#m5baab07d02" x="127.829958" y="297.16" style="stroke: #000000; stroke-width: 0.8"/>
      </g>
     </g>
     <g id="text_2">
      <!-- 100 -->
      <g transform="translate(118.286208 311.758438) scale(0.1 -0.1)">
       <defs>
        <path id="DejaVuSans-31" d="M 794 531 
L 1825 531 
L 1825 4091 
L 703 3866 
L 703 4441 
L 1819 4666 
L 2450 4666 
L 2450 531 
L 3481 531 
L 3481 0 
L 794 0 
L 794 531 
z
" transform="scale(0.015625)"/>
       </defs>
       <use xlink:href="#DejaVuSans-31"/>
       <use xlink:href="#DejaVuSans-30" x="63.623047"/>
       <use xlink:href="#DejaVuSans-30" x="127.246094"/>
      </g>
     </g>
    </g>
    <g id="xtick_3">
     <g id="line2d_3">
      <g>
       <use xlink:href="#m5baab07d02" x="189.224916" y="297.16" style="stroke: #000000; stroke-width: 0.8"/>
      </g>
     </g>
     <g id="text_3">
      <!-- 200 -->
      <g transform="translate(179.681166 311.758438) scale(0.1 -0.1)">
       <defs>
        <path id="DejaVuSans-32" d="M 1228 531 
L 3431 531 
L 3431 0 
L 469 0 
L 469 531 
Q 828 903 1448 1529 
Q 2069 2156 2228 2338 
Q 2531 2678 2651 2914 
Q 2772 3150 2772 3378 
Q 2772 3750 2511 3984 
Q 2250 4219 1831 4219 
Q 1534 4219 1204 4116 
Q 875 4013 500 3803 
L 500 4441 
Q 881 4594 1212 4672 
Q 1544 4750 1819 4750 
Q 2544 4750 2975 4387 
Q 3406 4025 3406 3419 
Q 3406 3131 3298 2873 
Q 3191 2616 2906 2266 
Q 2828 2175 2409 1742 
Q 1991 1309 1228 531 
z
" transform="scale(0.015625)"/>
       </defs>
       <use xlink:href="#DejaVuSans-32"/>
       <use xlink:href="#DejaVuSans-30" x="63.623047"/>
       <use xlink:href="#DejaVuSans-30" x="127.246094"/>
      </g>
     </g>
    </g>
    <g id="xtick_4">
     <g id="line2d_4">
      <g>
       <use xlink:href="#m5baab07d02" x="250.619874" y="297.16" style="stroke: #000000; stroke-width: 0.8"/>
      </g>
     </g>
     <g id="text_4">
      <!-- 300 -->
      <g transform="translate(241.076124 311.758438) scale(0.1 -0.1)">
       <defs>
        <path id="DejaVuSans-33" d="M 2597 2516 
Q 3050 2419 3304 2112 
Q 3559 1806 3559 1356 
Q 3559 666 3084 287 
Q 2609 -91 1734 -91 
Q 1441 -91 1130 -33 
Q 819 25 488 141 
L 488 750 
Q 750 597 1062 519 
Q 1375 441 1716 441 
Q 2309 441 2620 675 
Q 2931 909 2931 1356 
Q 2931 1769 2642 2001 
Q 2353 2234 1838 2234 
L 1294 2234 
L 1294 2753 
L 1863 2753 
Q 2328 2753 2575 2939 
Q 2822 3125 2822 3475 
Q 2822 3834 2567 4026 
Q 2313 4219 1838 4219 
Q 1578 4219 1281 4162 
Q 984 4106 628 3988 
L 628 4550 
Q 988 4650 1302 4700 
Q 1616 4750 1894 4750 
Q 2613 4750 3031 4423 
Q 3450 4097 3450 3541 
Q 3450 3153 3228 2886 
Q 3006 2619 2597 2516 
z
" transform="scale(0.015625)"/>
       </defs>
       <use xlink:href="#DejaVuSans-33"/>
       <use xlink:href="#DejaVuSans-30" x="63.623047"/>
       <use xlink:href="#DejaVuSans-30" x="127.246094"/>
      </g>
     </g>
    </g>
    <g id="xtick_5">
     <g id="line2d_5">
      <g>
       <use xlink:href="#m5baab07d02" x="312.014832" y="297.16" style="stroke: #000000; stroke-width: 0.8"/>
      </g>
     </g>
     <g id="text_5">
      <!-- 400 -->
      <g transform="translate(302.471082 311.758438) scale(0.1 -0.1)">
       <defs>
        <path id="DejaVuSans-34" d="M 2419 4116 
L 825 1625 
L 2419 1625 
L 2419 4116 
z
M 2253 4666 
L 3047 4666 
L 3047 1625 
L 3713 1625 
L 3713 1100 
L 3047 1100 
L 3047 0 
L 2419 0 
L 2419 1100 
L 313 1100 
L 313 1709 
L 2253 4666 
z
" transform="scale(0.015625)"/>
       </defs>
       <use xlink:href="#DejaVuSans-34"/>
       <use xlink:href="#DejaVuSans-30" x="63.623047"/>
       <use xlink:href="#DejaVuSans-30" x="127.246094"/>
      </g>
     </g>
    </g>
    <g id="xtick_6">
     <g id="line2d_6">
      <g>
       <use xlink:href="#m5baab07d02" x="373.40979" y="297.16" style="stroke: #000000; stroke-width: 0.8"/>
      </g>
     </g>
     <g id="text_6">
      <!-- 500 -->
      <g transform="translate(363.86604 311.758438) scale(0.1 -0.1)">
       <defs>
        <path id="DejaVuSans-35" d="M 691 4666 
L 3169 4666 
L 3169 4134 
L 1269 4134 
L 1269 2991 
Q 1406 3038 1543 3061 
Q 1681 3084 1819 3084 
Q 2600 3084 3056 2656 
Q 3513 2228 3513 1497 
Q 3513 744 3044 326 
Q 2575 -91 1722 -91 
Q 1428 -91 1123 -41 
Q 819 9 494 109 
L 494 744 
Q 775 591 1075 516 
Q 1375 441 1709 441 
Q 2250 441 2565 725 
Q 2881 1009 2881 1497 
Q 2881 1984 2565 2268 
Q 2250 2553 1709 2553 
Q 1456 2553 1204 2497 
Q 953 2441 691 2322 
L 691 4666 
z
" transform="scale(0.015625)"/>
       </defs>
       <use xlink:href="#DejaVuSans-35"/>
       <use xlink:href="#DejaVuSans-30" x="63.623047"/>
       <use xlink:href="#DejaVuSans-30" x="127.246094"/>
      </g>
     </g>
    </g>
    <g id="xtick_7">
     <g id="line2d_7">
      <g>
       <use xlink:href="#m5baab07d02" x="434.804748" y="297.16" style="stroke: #000000; stroke-width: 0.8"/>
      </g>
     </g>
     <g id="text_7">
      <!-- 600 -->
      <g transform="translate(425.260998 311.758438) scale(0.1 -0.1)">
       <defs>
        <path id="DejaVuSans-36" d="M 2113 2584 
Q 1688 2584 1439 2293 
Q 1191 2003 1191 1497 
Q 1191 994 1439 701 
Q 1688 409 2113 409 
Q 2538 409 2786 701 
Q 3034 994 3034 1497 
Q 3034 2003 2786 2293 
Q 2538 2584 2113 2584 
z
M 3366 4563 
L 3366 3988 
Q 3128 4100 2886 4159 
Q 2644 4219 2406 4219 
Q 1781 4219 1451 3797 
Q 1122 3375 1075 2522 
Q 1259 2794 1537 2939 
Q 1816 3084 2150 3084 
Q 2853 3084 3261 2657 
Q 3669 2231 3669 1497 
Q 3669 778 3244 343 
Q 2819 -91 2113 -91 
Q 1303 -91 875 529 
Q 447 1150 447 2328 
Q 447 3434 972 4092 
Q 1497 4750 2381 4750 
Q 2619 4750 2861 4703 
Q 3103 4656 3366 4563 
z
" transform="scale(0.015625)"/>
       </defs>
       <use xlink:href="#DejaVuSans-36"/>
       <use xlink:href="#DejaVuSans-30" x="63.623047"/>
       <use xlink:href="#DejaVuSans-30" x="127.246094"/>
      </g>
     </g>
    </g>
    <g id="text_8">
     <!-- Distance from Center $(\mu m)$ -->
     <g transform="translate(155.005 328.478125) scale(0.14 -0.14)">
      <defs>
       <path id="DejaVuSans-44" d="M 1259 4147 
L 1259 519 
L 2022 519 
Q 2988 519 3436 956 
Q 3884 1394 3884 2338 
Q 3884 3275 3436 3711 
Q 2988 4147 2022 4147 
L 1259 4147 
z
M 628 4666 
L 1925 4666 
Q 3281 4666 3915 4102 
Q 4550 3538 4550 2338 
Q 4550 1131 3912 565 
Q 3275 0 1925 0 
L 628 0 
L 628 4666 
z
" transform="scale(0.015625)"/>
       <path id="DejaVuSans-69" d="M 603 3500 
L 1178 3500 
L 1178 0 
L 603 0 
L 603 3500 
z
M 603 4863 
L 1178 4863 
L 1178 4134 
L 603 4134 
L 603 4863 
z
" transform="scale(0.015625)"/>
       <path id="DejaVuSans-73" d="M 2834 3397 
L 2834 2853 
Q 2591 2978 2328 3040 
Q 2066 3103 1784 3103 
Q 1356 3103 1142 2972 
Q 928 2841 928 2578 
Q 928 2378 1081 2264 
Q 1234 2150 1697 2047 
L 1894 2003 
Q 2506 1872 2764 1633 
Q 3022 1394 3022 966 
Q 3022 478 2636 193 
Q 2250 -91 1575 -91 
Q 1294 -91 989 -36 
Q 684 19 347 128 
L 347 722 
Q 666 556 975 473 
Q 1284 391 1588 391 
Q 1994 391 2212 530 
Q 2431 669 2431 922 
Q 2431 1156 2273 1281 
Q 2116 1406 1581 1522 
L 1381 1569 
Q 847 1681 609 1914 
Q 372 2147 372 2553 
Q 372 3047 722 3315 
Q 1072 3584 1716 3584 
Q 2034 3584 2315 3537 
Q 2597 3491 2834 3397 
z
" transform="scale(0.015625)"/>
       <path id="DejaVuSans-74" d="M 1172 4494 
L 1172 3500 
L 2356 3500 
L 2356 3053 
L 1172 3053 
L 1172 1153 
Q 1172 725 1289 603 
Q 1406 481 1766 481 
L 2356 481 
L 2356 0 
L 1766 0 
Q 1100 0 847 248 
Q 594 497 594 1153 
L 594 3053 
L 172 3053 
L 172 3500 
L 594 3500 
L 594 4494 
L 1172 4494 
z
" transform="scale(0.015625)"/>
       <path id="DejaVuSans-61" d="M 2194 1759 
Q 1497 1759 1228 1600 
Q 959 1441 959 1056 
Q 959 750 1161 570 
Q 1363 391 1709 391 
Q 2188 391 2477 730 
Q 2766 1069 2766 1631 
L 2766 1759 
L 2194 1759 
z
M 3341 1997 
L 3341 0 
L 2766 0 
L 2766 531 
Q 2569 213 2275 61 
Q 1981 -91 1556 -91 
Q 1019 -91 701 211 
Q 384 513 384 1019 
Q 384 1609 779 1909 
Q 1175 2209 1959 2209 
L 2766 2209 
L 2766 2266 
Q 2766 2663 2505 2880 
Q 2244 3097 1772 3097 
Q 1472 3097 1187 3025 
Q 903 2953 641 2809 
L 641 3341 
Q 956 3463 1253 3523 
Q 1550 3584 1831 3584 
Q 2591 3584 2966 3190 
Q 3341 2797 3341 1997 
z
" transform="scale(0.015625)"/>
       <path id="DejaVuSans-6e" d="M 3513 2113 
L 3513 0 
L 2938 0 
L 2938 2094 
Q 2938 2591 2744 2837 
Q 2550 3084 2163 3084 
Q 1697 3084 1428 2787 
Q 1159 2491 1159 1978 
L 1159 0 
L 581 0 
L 581 3500 
L 1159 3500 
L 1159 2956 
Q 1366 3272 1645 3428 
Q 1925 3584 2291 3584 
Q 2894 3584 3203 3211 
Q 3513 2838 3513 2113 
z
" transform="scale(0.015625)"/>
       <path id="DejaVuSans-63" d="M 3122 3366 
L 3122 2828 
Q 2878 2963 2633 3030 
Q 2388 3097 2138 3097 
Q 1578 3097 1268 2742 
Q 959 2388 959 1747 
Q 959 1106 1268 751 
Q 1578 397 2138 397 
Q 2388 397 2633 464 
Q 2878 531 3122 666 
L 3122 134 
Q 2881 22 2623 -34 
Q 2366 -91 2075 -91 
Q 1284 -91 818 406 
Q 353 903 353 1747 
Q 353 2603 823 3093 
Q 1294 3584 2113 3584 
Q 2378 3584 2631 3529 
Q 2884 3475 3122 3366 
z
" transform="scale(0.015625)"/>
       <path id="DejaVuSans-65" d="M 3597 1894 
L 3597 1613 
L 953 1613 
Q 991 1019 1311 708 
Q 1631 397 2203 397 
Q 2534 397 2845 478 
Q 3156 559 3463 722 
L 3463 178 
Q 3153 47 2828 -22 
Q 2503 -91 2169 -91 
Q 1331 -91 842 396 
Q 353 884 353 1716 
Q 353 2575 817 3079 
Q 1281 3584 2069 3584 
Q 2775 3584 3186 3129 
Q 3597 2675 3597 1894 
z
M 3022 2063 
Q 3016 2534 2758 2815 
Q 2500 3097 2075 3097 
Q 1594 3097 1305 2825 
Q 1016 2553 972 2059 
L 3022 2063 
z
" transform="scale(0.015625)"/>
       <path id="DejaVuSans-20" transform="scale(0.015625)"/>
       <path id="DejaVuSans-66" d="M 2375 4863 
L 2375 4384 
L 1825 4384 
Q 1516 4384 1395 4259 
Q 1275 4134 1275 3809 
L 1275 3500 
L 2222 3500 
L 2222 3053 
L 1275 3053 
L 1275 0 
L 697 0 
L 697 3053 
L 147 3053 
L 147 3500 
L 697 3500 
L 697 3744 
Q 697 4328 969 4595 
Q 1241 4863 1831 4863 
L 2375 4863 
z
" transform="scale(0.015625)"/>
       <path id="DejaVuSans-72" d="M 2631 2963 
Q 2534 3019 2420 3045 
Q 2306 3072 2169 3072 
Q 1681 3072 1420 2755 
Q 1159 2438 1159 1844 
L 1159 0 
L 581 0 
L 581 3500 
L 1159 3500 
L 1159 2956 
Q 1341 3275 1631 3429 
Q 1922 3584 2338 3584 
Q 2397 3584 2469 3576 
Q 2541 3569 2628 3553 
L 2631 2963 
z
" transform="scale(0.015625)"/>
       <path id="DejaVuSans-6f" d="M 1959 3097 
Q 1497 3097 1228 2736 
Q 959 2375 959 1747 
Q 959 1119 1226 758 
Q 1494 397 1959 397 
Q 2419 397 2687 759 
Q 2956 1122 2956 1747 
Q 2956 2369 2687 2733 
Q 2419 3097 1959 3097 
z
M 1959 3584 
Q 2709 3584 3137 3096 
Q 3566 2609 3566 1747 
Q 3566 888 3137 398 
Q 2709 -91 1959 -91 
Q 1206 -91 779 398 
Q 353 888 353 1747 
Q 353 2609 779 3096 
Q 1206 3584 1959 3584 
z
" transform="scale(0.015625)"/>
       <path id="DejaVuSans-6d" d="M 3328 2828 
Q 3544 3216 3844 3400 
Q 4144 3584 4550 3584 
Q 5097 3584 5394 3201 
Q 5691 2819 5691 2113 
L 5691 0 
L 5113 0 
L 5113 2094 
Q 5113 2597 4934 2840 
Q 4756 3084 4391 3084 
Q 3944 3084 3684 2787 
Q 3425 2491 3425 1978 
L 3425 0 
L 2847 0 
L 2847 2094 
Q 2847 2600 2669 2842 
Q 2491 3084 2119 3084 
Q 1678 3084 1418 2786 
Q 1159 2488 1159 1978 
L 1159 0 
L 581 0 
L 581 3500 
L 1159 3500 
L 1159 2956 
Q 1356 3278 1631 3431 
Q 1906 3584 2284 3584 
Q 2666 3584 2933 3390 
Q 3200 3197 3328 2828 
z
" transform="scale(0.015625)"/>
       <path id="DejaVuSans-43" d="M 4122 4306 
L 4122 3641 
Q 3803 3938 3442 4084 
Q 3081 4231 2675 4231 
Q 1875 4231 1450 3742 
Q 1025 3253 1025 2328 
Q 1025 1406 1450 917 
Q 1875 428 2675 428 
Q 3081 428 3442 575 
Q 3803 722 4122 1019 
L 4122 359 
Q 3791 134 3420 21 
Q 3050 -91 2638 -91 
Q 1578 -91 968 557 
Q 359 1206 359 2328 
Q 359 3453 968 4101 
Q 1578 4750 2638 4750 
Q 3056 4750 3426 4639 
Q 3797 4528 4122 4306 
z
" transform="scale(0.015625)"/>
       <path id="DejaVuSans-28" d="M 1984 4856 
Q 1566 4138 1362 3434 
Q 1159 2731 1159 2009 
Q 1159 1288 1364 580 
Q 1569 -128 1984 -844 
L 1484 -844 
Q 1016 -109 783 600 
Q 550 1309 550 2009 
Q 550 2706 781 3412 
Q 1013 4119 1484 4856 
L 1984 4856 
z
" transform="scale(0.015625)"/>
       <path id="DejaVuSans-Oblique-3bc" d="M -84 -1331 
L 856 3500 
L 1434 3500 
L 1009 1322 
Q 997 1256 987 1175 
Q 978 1094 978 1013 
Q 978 722 1161 565 
Q 1344 409 1684 409 
Q 2147 409 2431 671 
Q 2716 934 2816 1459 
L 3213 3500 
L 3788 3500 
L 3266 809 
Q 3253 750 3248 706 
Q 3244 663 3244 628 
Q 3244 531 3283 486 
Q 3322 441 3406 441 
Q 3438 441 3492 456 
Q 3547 472 3647 513 
L 3559 50 
Q 3422 -19 3297 -55 
Q 3172 -91 3053 -91 
Q 2847 -91 2730 40 
Q 2613 172 2613 403 
Q 2438 153 2195 31 
Q 1953 -91 1625 -91 
Q 1334 -91 1117 43 
Q 900 178 831 397 
L 494 -1331 
L -84 -1331 
z
" transform="scale(0.015625)"/>
       <path id="DejaVuSans-Oblique-6d" d="M 5747 2113 
L 5338 0 
L 4763 0 
L 5166 2094 
Q 5191 2228 5203 2325 
Q 5216 2422 5216 2491 
Q 5216 2772 5059 2928 
Q 4903 3084 4622 3084 
Q 4203 3084 3875 2770 
Q 3547 2456 3450 1953 
L 3066 0 
L 2491 0 
L 2900 2094 
Q 2925 2209 2937 2307 
Q 2950 2406 2950 2484 
Q 2950 2769 2794 2926 
Q 2638 3084 2363 3084 
Q 1938 3084 1609 2770 
Q 1281 2456 1184 1953 
L 800 0 
L 225 0 
L 909 3500 
L 1484 3500 
L 1375 2956 
Q 1609 3263 1923 3423 
Q 2238 3584 2597 3584 
Q 2978 3584 3223 3384 
Q 3469 3184 3519 2828 
Q 3781 3197 4126 3390 
Q 4472 3584 4856 3584 
Q 5306 3584 5551 3325 
Q 5797 3066 5797 2591 
Q 5797 2488 5784 2364 
Q 5772 2241 5747 2113 
z
" transform="scale(0.015625)"/>
       <path id="DejaVuSans-29" d="M 513 4856 
L 1013 4856 
Q 1481 4119 1714 3412 
Q 1947 2706 1947 2009 
Q 1947 1309 1714 600 
Q 1481 -109 1013 -844 
L 513 -844 
Q 928 -128 1133 580 
Q 1338 1288 1338 2009 
Q 1338 2731 1133 3434 
Q 928 4138 513 4856 
z
" transform="scale(0.015625)"/>
      </defs>
      <use xlink:href="#DejaVuSans-44" transform="translate(0 0.015625)"/>
      <use xlink:href="#DejaVuSans-69" transform="translate(77.001953 0.015625)"/>
      <use xlink:href="#DejaVuSans-73" transform="translate(104.785156 0.015625)"/>
      <use xlink:href="#DejaVuSans-74" transform="translate(156.884766 0.015625)"/>
      <use xlink:href="#DejaVuSans-61" transform="translate(196.09375 0.015625)"/>
      <use xlink:href="#DejaVuSans-6e" transform="translate(257.373047 0.015625)"/>
      <use xlink:href="#DejaVuSans-63" transform="translate(320.751953 0.015625)"/>
      <use xlink:href="#DejaVuSans-65" transform="translate(375.732422 0.015625)"/>
      <use xlink:href="#DejaVuSans-20" transform="translate(437.255859 0.015625)"/>
      <use xlink:href="#DejaVuSans-66" transform="translate(469.042969 0.015625)"/>
      <use xlink:href="#DejaVuSans-72" transform="translate(504.248047 0.015625)"/>
      <use xlink:href="#DejaVuSans-6f" transform="translate(545.361328 0.015625)"/>
      <use xlink:href="#DejaVuSans-6d" transform="translate(606.542969 0.015625)"/>
      <use xlink:href="#DejaVuSans-20" transform="translate(703.955078 0.015625)"/>
      <use xlink:href="#DejaVuSans-43" transform="translate(735.742188 0.015625)"/>
      <use xlink:href="#DejaVuSans-65" transform="translate(805.566406 0.015625)"/>
      <use xlink:href="#DejaVuSans-6e" transform="translate(867.089844 0.015625)"/>
      <use xlink:href="#DejaVuSans-74" transform="translate(930.46875 0.015625)"/>
      <use xlink:href="#DejaVuSans-65" transform="translate(969.677734 0.015625)"/>
      <use xlink:href="#DejaVuSans-72" transform="translate(1031.201172 0.015625)"/>
      <use xlink:href="#DejaVuSans-20" transform="translate(1072.314453 0.015625)"/>
      <use xlink:href="#DejaVuSans-28" transform="translate(1104.101562 0.015625)"/>
      <use xlink:href="#DejaVuSans-Oblique-3bc" transform="translate(1143.115234 0.015625)"/>
      <use xlink:href="#DejaVuSans-Oblique-6d" transform="translate(1206.738281 0.015625)"/>
      <use xlink:href="#DejaVuSans-29" transform="translate(1304.150391 0.015625)"/>
     </g>
    </g>
   </g>
   <g id="matplotlib.axis_2">
    <g id="ytick_1">
     <g id="line2d_8">
      <path d="M 48.17 275.06381 
L 450 275.06381 
" clip-path="url(#pf57b84efe6)" style="fill: none; stroke: #f2f2f2; stroke-width: 0.8; stroke-linecap: square"/>
     </g>
     <g id="line2d_9">
      <defs>
       <path id="m3bd7c9088f" d="M 0 0 
L -3.5 0 
" style="stroke: #000000; stroke-width: 0.8"/>
      </defs>
      <g>
       <use xlink:href="#m3bd7c9088f" x="48.17" y="275.06381" style="stroke: #000000; stroke-width: 0.8"/>
      </g>
     </g>
     <g id="text_9">
      <!-- 2 -->
      <g transform="translate(34.8075 278.863029) scale(0.1 -0.1)">
       <use xlink:href="#DejaVuSans-32"/>
      </g>
     </g>
    </g>
    <g id="ytick_2">
     <g id="line2d_10">
      <path d="M 48.17 231.5332 
L 450 231.5332 
" clip-path="url(#pf57b84efe6)" style="fill: none; stroke: #f2f2f2; stroke-width: 0.8; stroke-linecap: square"/>
     </g>
     <g id="line2d_11">
      <g>
       <use xlink:href="#m3bd7c9088f" x="48.17" y="231.5332" style="stroke: #000000; stroke-width: 0.8"/>
      </g>
     </g>
     <g id="text_10">
      <!-- 4 -->
      <g transform="translate(34.8075 235.332418) scale(0.1 -0.1)">
       <use xlink:href="#DejaVuSans-34"/>
      </g>
     </g>
    </g>
    <g id="ytick_3">
     <g id="line2d_12">
      <path d="M 48.17 188.002589 
L 450 188.002589 
" clip-path="url(#pf57b84efe6)" style="fill: none; stroke: #f2f2f2; stroke-width: 0.8; stroke-linecap: square"/>
     </g>
     <g id="line2d_13">
      <g>
       <use xlink:href="#m3bd7c9088f" x="48.17" y="188.002589" style="stroke: #000000; stroke-width: 0.8"/>
      </g>
     </g>
     <g id="text_11">
      <!-- 6 -->
      <g transform="translate(34.8075 191.801808) scale(0.1 -0.1)">
       <use xlink:href="#DejaVuSans-36"/>
      </g>
     </g>
    </g>
    <g id="ytick_4">
     <g id="line2d_14">
      <path d="M 48.17 144.471979 
L 450 144.471979 
" clip-path="url(#pf57b84efe6)" style="fill: none; stroke: #f2f2f2; stroke-width: 0.8; stroke-linecap: square"/>
     </g>
     <g id="line2d_15">
      <g>
       <use xlink:href="#m3bd7c9088f" x="48.17" y="144.471979" style="stroke: #000000; stroke-width: 0.8"/>
      </g>
     </g>
     <g id="text_12">
      <!-- 8 -->
      <g transform="translate(34.8075 148.271198) scale(0.1 -0.1)">
       <defs>
        <path id="DejaVuSans-38" d="M 2034 2216 
Q 1584 2216 1326 1975 
Q 1069 1734 1069 1313 
Q 1069 891 1326 650 
Q 1584 409 2034 409 
Q 2484 409 2743 651 
Q 3003 894 3003 1313 
Q 3003 1734 2745 1975 
Q 2488 2216 2034 2216 
z
M 1403 2484 
Q 997 2584 770 2862 
Q 544 3141 544 3541 
Q 544 4100 942 4425 
Q 1341 4750 2034 4750 
Q 2731 4750 3128 4425 
Q 3525 4100 3525 3541 
Q 3525 3141 3298 2862 
Q 3072 2584 2669 2484 
Q 3125 2378 3379 2068 
Q 3634 1759 3634 1313 
Q 3634 634 3220 271 
Q 2806 -91 2034 -91 
Q 1263 -91 848 271 
Q 434 634 434 1313 
Q 434 1759 690 2068 
Q 947 2378 1403 2484 
z
M 1172 3481 
Q 1172 3119 1398 2916 
Q 1625 2713 2034 2713 
Q 2441 2713 2670 2916 
Q 2900 3119 2900 3481 
Q 2900 3844 2670 4047 
Q 2441 4250 2034 4250 
Q 1625 4250 1398 4047 
Q 1172 3844 1172 3481 
z
" transform="scale(0.015625)"/>
       </defs>
       <use xlink:href="#DejaVuSans-38"/>
      </g>
     </g>
    </g>
    <g id="ytick_5">
     <g id="line2d_16">
      <path d="M 48.17 100.941368 
L 450 100.941368 
" clip-path="url(#pf57b84efe6)" style="fill: none; stroke: #f2f2f2; stroke-width: 0.8; stroke-linecap: square"/>
     </g>
     <g id="line2d_17">
      <g>
       <use xlink:href="#m3bd7c9088f" x="48.17" y="100.941368" style="stroke: #000000; stroke-width: 0.8"/>
      </g>
     </g>
     <g id="text_13">
      <!-- 10 -->
      <g transform="translate(28.445 104.740587) scale(0.1 -0.1)">
       <use xlink:href="#DejaVuSans-31"/>
       <use xlink:href="#DejaVuSans-30" x="63.623047"/>
      </g>
     </g>
    </g>
    <g id="ytick_6">
     <g id="line2d_18">
      <path d="M 48.17 57.410758 
L 450 57.410758 
" clip-path="url(#pf57b84efe6)" style="fill: none; stroke: #f2f2f2; stroke-width: 0.8; stroke-linecap: square"/>
     </g>
     <g id="line2d_19">
      <g>
       <use xlink:href="#m3bd7c9088f" x="48.17" y="57.410758" style="stroke: #000000; stroke-width: 0.8"/>
      </g>
     </g>
     <g id="text_14">
      <!-- 12 -->
      <g transform="translate(28.445 61.209977) scale(0.1 -0.1)">
       <use xlink:href="#DejaVuSans-31"/>
       <use xlink:href="#DejaVuSans-32" x="63.623047"/>
      </g>
     </g>
    </g>
    <g id="text_15">
     <!-- Concentration (mM) -->
     <g transform="translate(21.533438 232.444531) rotate(-90) scale(0.14 -0.14)">
      <defs>
       <path id="DejaVuSans-4d" d="M 628 4666 
L 1569 4666 
L 2759 1491 
L 3956 4666 
L 4897 4666 
L 4897 0 
L 4281 0 
L 4281 4097 
L 3078 897 
L 2444 897 
L 1241 4097 
L 1241 0 
L 628 0 
L 628 4666 
z
" transform="scale(0.015625)"/>
      </defs>
      <use xlink:href="#DejaVuSans-43"/>
      <use xlink:href="#DejaVuSans-6f" x="69.824219"/>
      <use xlink:href="#DejaVuSans-6e" x="131.005859"/>
      <use xlink:href="#DejaVuSans-63" x="194.384766"/>
      <use xlink:href="#DejaVuSans-65" x="249.365234"/>
      <use xlink:href="#DejaVuSans-6e" x="310.888672"/>
      <use xlink:href="#DejaVuSans-74" x="374.267578"/>
      <use xlink:href="#DejaVuSans-72" x="413.476562"/>
      <use xlink:href="#DejaVuSans-61" x="454.589844"/>
      <use xlink:href="#DejaVuSans-74" x="515.869141"/>
      <use xlink:href="#DejaVuSans-69" x="555.078125"/>
      <use xlink:href="#DejaVuSans-6f" x="582.861328"/>
      <use xlink:href="#DejaVuSans-6e" x="644.042969"/>
      <use xlink:href="#DejaVuSans-20" x="707.421875"/>
      <use xlink:href="#DejaVuSans-28" x="739.208984"/>
      <use xlink:href="#DejaVuSans-6d" x="778.222656"/>
      <use xlink:href="#DejaVuSans-4d" x="875.634766"/>
      <use xlink:href="#DejaVuSans-29" x="961.914062"/>
     </g>
    </g>
   </g>
   <g id="line2d_20">
    <path d="M 66.435 281.498956 
L 70.732647 281.551794 
L 75.030294 281.71041 
L 79.327941 281.975054 
L 83.625588 282.346114 
L 87.923235 282.82412 
L 92.220882 283.409742 
L 96.518529 284.103801 
L 100.816176 284.907273 
" clip-path="url(#pf57b84efe6)" style="fill: none; stroke: #1f77b4; stroke-opacity: 0.9; stroke-width: 3; stroke-linecap: square"/>
   </g>
   <g id="line2d_21">
    <path d="M 66.435 269.861636 
L 70.732647 269.911986 
L 75.030294 270.063136 
L 79.327941 270.315327 
L 83.625588 270.66893 
L 87.923235 271.124449 
L 92.220882 271.682518 
L 96.518529 272.343905 
L 100.816176 273.109508 
L 105.113824 273.980357 
L 109.411471 274.957618 
L 113.709118 276.042598 
L 118.006765 277.236744 
L 122.304412 278.541658 
L 126.602059 279.95911 
L 130.899706 281.491049 
L 135.197353 283.139636 
L 139.495 284.907273 
" clip-path="url(#pf57b84efe6)" style="fill: none; stroke: #ff7f0e; stroke-opacity: 0.9; stroke-width: 3; stroke-linecap: square"/>
   </g>
   <g id="line2d_22">
    <path d="M 66.435 253.495257 
L 70.732647 253.541956 
L 75.030294 253.682139 
L 79.327941 253.916023 
L 83.625588 254.243945 
L 87.923235 254.666368 
L 92.220882 255.183885 
L 96.518529 255.797226 
L 100.816176 256.507264 
L 105.113824 257.315019 
L 109.411471 258.221663 
L 113.709118 259.228519 
L 118.006765 260.337061 
L 122.304412 261.548905 
L 126.602059 262.865798 
L 130.899706 264.289613 
L 135.197353 265.82233 
L 139.495 267.466041 
L 143.792647 269.22294 
L 148.090294 271.095341 
L 152.387941 273.085695 
L 156.685588 275.196623 
L 160.983235 277.430956 
L 165.280882 279.791798 
L 169.578529 282.2826 
L 173.876176 284.907273 
" clip-path="url(#pf57b84efe6)" style="fill: none; stroke: #2ca02c; stroke-opacity: 0.9; stroke-width: 3; stroke-linecap: square"/>
   </g>
   <g id="line2d_23">
    <path d="M 66.435 229.711169 
L 70.732647 229.753943 
L 75.030294 229.882318 
L 79.327941 230.096427 
L 83.625588 230.396472 
L 87.923235 230.782734 
L 92.220882 231.255562 
L 96.518529 231.815386 
L 100.816176 232.462712 
L 105.113824 233.198126 
L 109.411471 234.022298 
L 113.709118 234.935985 
L 118.006765 235.940037 
L 122.304412 237.035403 
L 126.602059 238.223143 
L 130.899706 239.504435 
L 135.197353 240.880602 
L 139.495 242.35313 
L 143.792647 243.923709 
L 148.090294 245.594282 
L 152.387941 247.367111 
L 156.685588 249.244852 
L 160.983235 251.230622 
L 165.280882 253.328014 
L 169.578529 255.541027 
L 173.876176 257.873873 
L 178.173824 260.330742 
L 182.471471 262.915602 
L 186.769118 265.632151 
L 191.066765 268.483911 
L 195.364412 271.474412 
L 199.662059 274.60741 
L 203.959706 277.887115 
L 208.257353 281.318435 
L 212.555 284.907273 
" clip-path="url(#pf57b84efe6)" style="fill: none; stroke: #d62728; stroke-opacity: 0.9; stroke-width: 3; stroke-linecap: square"/>
   </g>
   <g id="line2d_24">
    <path d="M 66.435 204.595602 
L 70.732647 204.635058 
L 75.030294 204.753472 
L 79.327941 204.950954 
L 83.625588 205.227674 
L 87.923235 205.583866 
L 92.220882 206.019821 
L 96.518529 206.535897 
L 100.816176 207.132512 
L 105.113824 207.81015 
L 109.411471 208.569361 
L 113.709118 209.410761 
L 118.006765 210.335037 
L 122.304412 211.342945 
L 126.602059 212.435316 
L 130.899706 213.613054 
L 135.197353 214.877145 
L 139.495 216.228653 
L 143.792647 217.668729 
L 148.090294 219.198611 
L 152.387941 220.819633 
L 156.685588 222.533224 
L 160.983235 224.340917 
L 165.280882 226.244358 
L 169.578529 228.245312 
L 173.876176 230.345676 
L 178.173824 232.547496 
L 182.471471 234.852996 
L 186.769118 237.26462 
L 191.066765 239.785118 
L 195.364412 242.417688 
L 199.662059 245.166234 
L 203.959706 248.035756 
L 208.257353 251.032749 
L 212.555 254.165191 
L 216.852647 257.441606 
L 221.150294 260.869586 
L 225.447941 264.454996 
L 229.745588 268.202369 
L 234.043235 272.115875 
L 238.340882 276.20023 
L 242.638529 280.461399 
L 246.936176 284.907273 
" clip-path="url(#pf57b84efe6)" style="fill: none; stroke: #9467bd; stroke-opacity: 0.9; stroke-width: 3; stroke-linecap: square"/>
   </g>
   <g id="line2d_25">
    <path d="M 66.435 172.991795 
L 70.732647 173.027461 
L 75.030294 173.134494 
L 79.327941 173.312985 
L 83.625588 173.563075 
L 87.923235 173.884951 
L 92.220882 174.278856 
L 96.518529 174.745078 
L 100.816176 175.283961 
L 105.113824 175.895899 
L 109.411471 176.581339 
L 113.709118 177.340784 
L 118.006765 178.17479 
L 122.304412 179.083972 
L 126.602059 180.069002 
L 130.899706 181.130613 
L 135.197353 182.269598 
L 139.495 183.486815 
L 143.792647 184.783188 
L 148.090294 186.159708 
L 152.387941 187.617437 
L 156.685588 189.157513 
L 160.983235 190.781148 
L 165.280882 192.489637 
L 169.578529 194.284357 
L 173.876176 196.166773 
L 178.173824 198.138444 
L 182.471471 200.201026 
L 186.769118 202.356278 
L 191.066765 204.606068 
L 195.364412 206.952377 
L 199.662059 209.397312 
L 203.959706 211.943108 
L 208.257353 214.592141 
L 212.555 217.346936 
L 216.852647 220.210179 
L 221.150294 223.184732 
L 225.447941 226.273651 
L 229.745588 229.480207 
L 234.043235 232.807933 
L 238.340882 236.260704 
L 242.638529 239.842941 
L 246.936176 243.560137 
L 251.233824 247.42011 
L 255.531471 251.434997 
L 259.829118 255.621221 
L 264.126765 259.994162 
L 268.424412 264.563284 
L 272.722059 269.333569 
L 277.019706 274.309399 
L 281.317353 279.497233 
L 285.615 284.907273 
" clip-path="url(#pf57b84efe6)" style="fill: none; stroke: #8c564b; stroke-opacity: 0.9; stroke-width: 3; stroke-linecap: square"/>
   </g>
   <g id="line2d_26">
    <path d="M 66.435 138.997436 
L 70.732647 139.029414 
L 75.030294 139.125377 
L 79.327941 139.285399 
L 83.625588 139.509593 
L 87.923235 139.798112 
L 92.220882 140.151152 
L 96.518529 140.568947 
L 100.816176 141.051775 
L 105.113824 141.599954 
L 109.411471 142.213846 
L 113.709118 142.893857 
L 118.006765 143.640437 
L 122.304412 144.454079 
L 126.602059 145.335326 
L 130.899706 146.284766 
L 135.197353 147.303036 
L 139.495 148.390824 
L 143.792647 149.548869 
L 148.090294 150.777963 
L 152.387941 152.078954 
L 156.685588 153.452745 
L 160.983235 154.900301 
L 165.280882 156.422645 
L 169.578529 158.020866 
L 173.876176 159.696119 
L 178.173824 161.449629 
L 182.471471 163.282692 
L 186.769118 165.196681 
L 191.066765 167.193047 
L 195.364412 169.273326 
L 199.662059 171.439143 
L 203.959706 173.692211 
L 208.257353 176.034345 
L 212.555 178.467461 
L 216.852647 180.993585 
L 221.150294 183.614856 
L 225.447941 186.33354 
L 229.745588 189.152031 
L 234.043235 192.072863 
L 238.340882 195.09872 
L 242.638529 198.232444 
L 246.936176 201.477052 
L 251.233824 204.835743 
L 255.531471 208.311917 
L 259.829118 211.909193 
L 264.126765 215.631424 
L 268.424412 219.482724 
L 272.722059 223.467493 
L 277.019706 227.590452 
L 281.317353 231.856687 
L 285.615 236.271756 
L 289.912647 240.842019 
L 294.210294 245.576104 
L 298.507941 250.490152 
L 302.805588 255.612683 
L 307.103235 260.97016 
L 311.400882 266.573449 
L 315.698529 272.425892 
L 319.996176 278.533068 
L 324.293824 284.907273 
" clip-path="url(#pf57b84efe6)" style="fill: none; stroke: #e377c2; stroke-opacity: 0.9; stroke-width: 3; stroke-linecap: square"/>
   </g>
   <g id="line2d_27">
    <path d="M 66.435 107.606562 
L 70.732647 107.635445 
L 75.030294 107.722121 
L 79.327941 107.86665 
L 83.625588 108.069125 
L 87.923235 108.329673 
L 92.220882 108.648454 
L 96.518529 109.025663 
L 100.816176 109.461528 
L 105.113824 109.956312 
L 109.411471 110.510313 
L 113.709118 111.123864 
L 118.006765 111.797336 
L 122.304412 112.531134 
L 126.602059 113.325704 
L 130.899706 114.181528 
L 135.197353 115.099129 
L 139.495 116.079069 
L 143.792647 117.121952 
L 148.090294 118.228427 
L 152.387941 119.399183 
L 156.685588 120.634957 
L 160.983235 121.936533 
L 165.280882 123.304742 
L 169.578529 124.740467 
L 173.876176 126.244642 
L 178.173824 127.818256 
L 182.471471 129.462353 
L 186.769118 131.178037 
L 191.066765 132.966473 
L 195.364412 134.82889 
L 199.662059 136.766584 
L 203.959706 138.78092 
L 208.257353 140.873338 
L 212.555 143.045353 
L 216.852647 145.298564 
L 221.150294 147.634654 
L 225.447941 150.055394 
L 229.745588 152.562652 
L 234.043235 155.158397 
L 238.340882 157.844702 
L 242.638529 160.623753 
L 246.936176 163.497858 
L 251.233824 166.469449 
L 255.531471 169.541095 
L 259.829118 172.715509 
L 264.126765 175.995558 
L 268.424412 179.384275 
L 272.722059 182.88487 
L 277.019706 186.500744 
L 281.317353 190.235505 
L 285.615 194.092983 
L 289.912647 198.077249 
L 294.210294 202.192639 
L 298.507941 206.443776 
L 302.805588 210.835599 
L 307.103235 215.373399 
L 311.400882 220.062853 
L 315.698529 224.910077 
L 319.996176 229.921681 
L 324.293824 235.104849 
L 328.591471 240.467516 
L 332.889118 246.019863 
L 337.186765 251.7868 
L 341.484412 257.816696 
L 345.782059 264.139064 
L 350.079706 270.757832 
L 354.377353 277.676032 
L 358.675 284.907273 
" clip-path="url(#pf57b84efe6)" style="fill: none; stroke: #7f7f7f; stroke-opacity: 0.9; stroke-width: 3; stroke-linecap: square"/>
   </g>
   <g id="line2d_28">
    <path d="M 66.435 71.730879 
L 70.732647 71.756551 
L 75.030294 71.833585 
L 79.327941 71.962032 
L 83.625588 72.141965 
L 87.923235 72.373487 
L 92.220882 72.656726 
L 96.518529 72.991839 
L 100.816176 73.379009 
L 105.113824 73.818446 
L 109.411471 74.310389 
L 113.709118 74.855106 
L 118.006765 75.452893 
L 122.304412 76.104074 
L 126.602059 76.809005 
L 130.899706 77.568073 
L 135.197353 78.381692 
L 139.495 79.250313 
L 143.792647 80.174416 
L 148.090294 81.154515 
L 152.387941 82.191159 
L 156.685588 83.284933 
L 160.983235 84.436456 
L 165.280882 85.646386 
L 169.578529 86.91542 
L 173.876176 88.244295 
L 178.173824 89.633787 
L 182.471471 91.084717 
L 186.769118 92.59795 
L 191.066765 94.174397 
L 195.364412 95.815017 
L 199.662059 97.520819 
L 203.959706 99.292863 
L 208.257353 101.132265 
L 212.555 103.040195 
L 216.852647 105.017886 
L 221.150294 107.066628 
L 225.447941 109.18778 
L 229.745588 111.382768 
L 234.043235 113.653088 
L 238.340882 116.000313 
L 242.638529 118.426095 
L 246.936176 120.932167 
L 251.233824 123.520353 
L 255.531471 126.192567 
L 259.829118 128.950824 
L 264.126765 131.79724 
L 268.424412 134.734044 
L 272.722059 137.76358 
L 277.019706 140.888316 
L 281.317353 144.110853 
L 285.615 147.433935 
L 289.912647 150.860452 
L 294.210294 154.393458 
L 298.507941 158.03618 
L 302.805588 161.792026 
L 307.103235 165.664608 
L 311.400882 169.657747 
L 315.698529 173.775499 
L 319.996176 178.022169 
L 324.293824 182.402332 
L 328.591471 186.920862 
L 332.889118 191.582955 
L 337.186765 196.394159 
L 341.484412 201.360417 
L 345.782059 206.488104 
L 350.079706 211.784077 
L 354.377353 217.255739 
L 358.675 222.911112 
L 362.972647 228.758929 
L 367.270294 234.808757 
L 371.567941 241.071158 
L 375.865588 247.557918 
L 380.163235 254.317086 
L 384.460882 261.422551 
L 388.758529 268.888251 
L 393.056176 276.711866 
L 397.353824 284.907273 
" clip-path="url(#pf57b84efe6)" style="fill: none; stroke: #bcbd22; stroke-opacity: 0.9; stroke-width: 3; stroke-linecap: square"/>
   </g>
   <g id="line2d_29">
    <path d="M 66.435 39.852727 
L 70.732647 39.875805 
L 75.030294 39.945053 
L 79.327941 40.060513 
L 83.625588 40.222245 
L 87.923235 40.430335 
L 92.220882 40.684887 
L 96.518529 40.98603 
L 100.816176 41.333914 
L 105.113824 41.728713 
L 109.411471 42.170623 
L 113.709118 42.659863 
L 118.006765 43.196676 
L 122.304412 43.781329 
L 126.602059 44.414113 
L 130.899706 45.095343 
L 135.197353 45.82536 
L 139.495 46.604532 
L 143.792647 47.433251 
L 148.090294 48.311936 
L 152.387941 49.241036 
L 156.685588 50.221026 
L 160.983235 51.252411 
L 165.280882 52.335724 
L 169.578529 53.471532 
L 173.876176 54.66043 
L 178.173824 55.903049 
L 182.471471 57.200052 
L 186.769118 58.552136 
L 191.066765 59.960036 
L 195.364412 61.424523 
L 199.662059 62.946407 
L 203.959706 64.526539 
L 208.257353 66.16581 
L 212.555 67.865156 
L 216.852647 69.625558 
L 221.150294 71.448045 
L 225.447941 73.333692 
L 229.745588 75.283629 
L 234.043235 77.299038 
L 238.340882 79.381158 
L 242.638529 81.531285 
L 246.936176 83.75078 
L 251.233824 86.041065 
L 255.531471 88.403632 
L 259.829118 90.840046 
L 264.126765 93.351944 
L 268.424412 95.941044 
L 272.722059 98.609149 
L 277.019706 101.358148 
L 281.317353 104.190025 
L 285.615 107.106861 
L 289.912647 110.110844 
L 294.210294 113.204272 
L 298.507941 116.38956 
L 302.805588 119.669249 
L 307.103235 123.046014 
L 311.400882 126.522672 
L 315.698529 130.102191 
L 319.996176 133.787701 
L 324.293824 137.582508 
L 328.591471 141.490101 
L 332.889118 145.514171 
L 337.186765 149.658625 
L 341.484412 153.927599 
L 345.782059 158.325483 
L 350.079706 162.856936 
L 354.377353 167.526913 
L 358.675 172.340689 
L 362.972647 177.303888 
L 367.270294 182.42252 
L 371.567941 187.703015 
L 375.865588 193.15227 
L 380.163235 198.777701 
L 384.460882 204.587302 
L 388.758529 210.589721 
L 393.056176 216.794352 
L 397.353824 223.211447 
L 401.651471 229.852264 
L 405.949118 236.72927 
L 410.246765 243.856418 
L 414.544412 251.251155 
L 418.842059 259.028451 
L 423.139706 267.232675 
L 427.437353 275.85483 
L 431.735 284.907273 
" clip-path="url(#pf57b84efe6)" style="fill: none; stroke: #17becf; stroke-opacity: 0.9; stroke-width: 3; stroke-linecap: square"/>
   </g>
   <g id="patch_3">
    <path d="M 48.17 297.16 
L 48.17 27.6 
" style="fill: none; stroke: #000000; stroke-width: 0.8; stroke-linejoin: miter; stroke-linecap: square"/>
   </g>
   <g id="patch_4">
    <path d="M 450 297.16 
L 450 27.6 
" style="fill: none; stroke: #000000; stroke-width: 0.8; stroke-linejoin: miter; stroke-linecap: square"/>
   </g>
   <g id="patch_5">
    <path d="M 48.17 297.16 
L 450 297.16 
" style="fill: none; stroke: #000000; stroke-width: 0.8; stroke-linejoin: miter; stroke-linecap: square"/>
   </g>
   <g id="patch_6">
    <path d="M 48.17 27.6 
L 450 27.6 
" style="fill: none; stroke: #000000; stroke-width: 0.8; stroke-linejoin: miter; stroke-linecap: square"/>
   </g>
   <g id="text_16">
    <!-- NH4 -->
    <g transform="translate(234.130156 21.6) scale(0.14 -0.14)">
     <defs>
      <path id="DejaVuSans-4e" d="M 628 4666 
L 1478 4666 
L 3547 763 
L 3547 4666 
L 4159 4666 
L 4159 0 
L 3309 0 
L 1241 3903 
L 1241 0 
L 628 0 
L 628 4666 
z
" transform="scale(0.015625)"/>
      <path id="DejaVuSans-48" d="M 628 4666 
L 1259 4666 
L 1259 2753 
L 3553 2753 
L 3553 4666 
L 4184 4666 
L 4184 0 
L 3553 0 
L 3553 2222 
L 1259 2222 
L 1259 0 
L 628 0 
L 628 4666 
z
" transform="scale(0.015625)"/>
     </defs>
     <use xlink:href="#DejaVuSans-4e"/>
     <use xlink:href="#DejaVuSans-48" x="74.804688"/>
     <use xlink:href="#DejaVuSans-34" x="150"/>
    </g>
   </g>
  </g>
 </g>
 <defs>
  <clipPath id="pf57b84efe6">
   <rect x="48.17" y="27.6" width="401.83" height="269.56"/>
  </clipPath>
 </defs>
</svg>
