<?xml version="1.0" encoding="utf-8" standalone="no"?>
<!DOCTYPE svg PUBLIC "-//W3C//DTD SVG 1.1//EN"
  "http://www.w3.org/Graphics/SVG/1.1/DTD/svg11.dtd">
<svg xmlns:xlink="http://www.w3.org/1999/xlink" width="715.113598pt" height="353.754375pt" viewBox="0 0 715.113598 353.754375" xmlns="http://www.w3.org/2000/svg" version="1.1">
 <metadata>
  <rdf:RDF xmlns:dc="http://purl.org/dc/elements/1.1/" xmlns:cc="http://creativecommons.org/ns#" xmlns:rdf="http://www.w3.org/1999/02/22-rdf-syntax-ns#">
   <cc:Work>
    <dc:type rdf:resource="http://purl.org/dc/dcmitype/StillImage"/>
    <dc:date>2023-03-24T16:14:23.688873</dc:date>
    <dc:format>image/svg+xml</dc:format>
    <dc:creator>
     <cc:Agent>
      <dc:title>Matplotlib v3.6.2, https://matplotlib.org/</dc:title>
     </cc:Agent>
    </dc:creator>
   </cc:Work>
  </rdf:RDF>
 </metadata>
 <defs>
  <style type="text/css">*{stroke-linejoin: round; stroke-linecap: butt}</style>
 </defs>
 <g id="figure_1">
  <g id="patch_1">
   <path d="M 0 353.754375 
L 715.113598 353.754375 
L 715.113598 0 
L 0 0 
z
" style="fill: #ffffff"/>
  </g>
  <g id="axes_1">
   <g id="patch_2">
    <path d="M 56.9075 310.02 
L 705.609773 310.02 
L 705.609773 7.2 
L 56.9075 7.2 
z
" style="fill: #ffffff"/>
   </g>
   <g id="matplotlib.axis_1">
    <g id="xtick_1">
     <g id="line2d_1">
      <path d="M 80.250953 310.02 
L 80.250953 7.2 
" clip-path="url(#pca172ddd9b)" style="fill: none; stroke: #b0b0b0; stroke-width: 0.8; stroke-linecap: square"/>
     </g>
     <g id="line2d_2"/>
     <g id="text_1">
      <!-- 0 -->
      <g transform="translate(75.797203 324.157812) scale(0.14 -0.14)">
       <defs>
        <path id="DejaVuSans-30" d="M 2034 4250 
Q 1547 4250 1301 3770 
Q 1056 3291 1056 2328 
Q 1056 1369 1301 889 
Q 1547 409 2034 409 
Q 2525 409 2770 889 
Q 3016 1369 3016 2328 
Q 3016 3291 2770 3770 
Q 2525 4250 2034 4250 
z
M 2034 4750 
Q 2819 4750 3233 4129 
Q 3647 3509 3647 2328 
Q 3647 1150 3233 529 
Q 2819 -91 2034 -91 
Q 1250 -91 836 529 
Q 422 1150 422 2328 
Q 422 3509 836 4129 
Q 1250 4750 2034 4750 
z
" transform="scale(0.015625)"/>
       </defs>
       <use xlink:href="#DejaVuSans-30"/>
      </g>
     </g>
    </g>
    <g id="xtick_2">
     <g id="line2d_3">
      <path d="M 203.111232 310.02 
L 203.111232 7.2 
" clip-path="url(#pca172ddd9b)" style="fill: none; stroke: #b0b0b0; stroke-width: 0.8; stroke-linecap: square"/>
     </g>
     <g id="line2d_4"/>
     <g id="text_2">
      <!-- 20 -->
      <g transform="translate(194.203732 324.157812) scale(0.14 -0.14)">
       <defs>
        <path id="DejaVuSans-32" d="M 1228 531 
L 3431 531 
L 3431 0 
L 469 0 
L 469 531 
Q 828 903 1448 1529 
Q 2069 2156 2228 2338 
Q 2531 2678 2651 2914 
Q 2772 3150 2772 3378 
Q 2772 3750 2511 3984 
Q 2250 4219 1831 4219 
Q 1534 4219 1204 4116 
Q 875 4013 500 3803 
L 500 4441 
Q 881 4594 1212 4672 
Q 1544 4750 1819 4750 
Q 2544 4750 2975 4387 
Q 3406 4025 3406 3419 
Q 3406 3131 3298 2873 
Q 3191 2616 2906 2266 
Q 2828 2175 2409 1742 
Q 1991 1309 1228 531 
z
" transform="scale(0.015625)"/>
       </defs>
       <use xlink:href="#DejaVuSans-32"/>
       <use xlink:href="#DejaVuSans-30" x="63.623047"/>
      </g>
     </g>
    </g>
    <g id="xtick_3">
     <g id="line2d_5">
      <path d="M 325.971511 310.02 
L 325.971511 7.2 
" clip-path="url(#pca172ddd9b)" style="fill: none; stroke: #b0b0b0; stroke-width: 0.8; stroke-linecap: square"/>
     </g>
     <g id="line2d_6"/>
     <g id="text_3">
      <!-- 40 -->
      <g transform="translate(317.064011 324.157812) scale(0.14 -0.14)">
       <defs>
        <path id="DejaVuSans-34" d="M 2419 4116 
L 825 1625 
L 2419 1625 
L 2419 4116 
z
M 2253 4666 
L 3047 4666 
L 3047 1625 
L 3713 1625 
L 3713 1100 
L 3047 1100 
L 3047 0 
L 2419 0 
L 2419 1100 
L 313 1100 
L 313 1709 
L 2253 4666 
z
" transform="scale(0.015625)"/>
       </defs>
       <use xlink:href="#DejaVuSans-34"/>
       <use xlink:href="#DejaVuSans-30" x="63.623047"/>
      </g>
     </g>
    </g>
    <g id="xtick_4">
     <g id="line2d_7">
      <path d="M 448.83179 310.02 
L 448.83179 7.2 
" clip-path="url(#pca172ddd9b)" style="fill: none; stroke: #b0b0b0; stroke-width: 0.8; stroke-linecap: square"/>
     </g>
     <g id="line2d_8"/>
     <g id="text_4">
      <!-- 60 -->
      <g transform="translate(439.92429 324.157812) scale(0.14 -0.14)">
       <defs>
        <path id="DejaVuSans-36" d="M 2113 2584 
Q 1688 2584 1439 2293 
Q 1191 2003 1191 1497 
Q 1191 994 1439 701 
Q 1688 409 2113 409 
Q 2538 409 2786 701 
Q 3034 994 3034 1497 
Q 3034 2003 2786 2293 
Q 2538 2584 2113 2584 
z
M 3366 4563 
L 3366 3988 
Q 3128 4100 2886 4159 
Q 2644 4219 2406 4219 
Q 1781 4219 1451 3797 
Q 1122 3375 1075 2522 
Q 1259 2794 1537 2939 
Q 1816 3084 2150 3084 
Q 2853 3084 3261 2657 
Q 3669 2231 3669 1497 
Q 3669 778 3244 343 
Q 2819 -91 2113 -91 
Q 1303 -91 875 529 
Q 447 1150 447 2328 
Q 447 3434 972 4092 
Q 1497 4750 2381 4750 
Q 2619 4750 2861 4703 
Q 3103 4656 3366 4563 
z
" transform="scale(0.015625)"/>
       </defs>
       <use xlink:href="#DejaVuSans-36"/>
       <use xlink:href="#DejaVuSans-30" x="63.623047"/>
      </g>
     </g>
    </g>
    <g id="xtick_5">
     <g id="line2d_9">
      <path d="M 571.692069 310.02 
L 571.692069 7.2 
" clip-path="url(#pca172ddd9b)" style="fill: none; stroke: #b0b0b0; stroke-width: 0.8; stroke-linecap: square"/>
     </g>
     <g id="line2d_10"/>
     <g id="text_5">
      <!-- 80 -->
      <g transform="translate(562.784569 324.157812) scale(0.14 -0.14)">
       <defs>
        <path id="DejaVuSans-38" d="M 2034 2216 
Q 1584 2216 1326 1975 
Q 1069 1734 1069 1313 
Q 1069 891 1326 650 
Q 1584 409 2034 409 
Q 2484 409 2743 651 
Q 3003 894 3003 1313 
Q 3003 1734 2745 1975 
Q 2488 2216 2034 2216 
z
M 1403 2484 
Q 997 2584 770 2862 
Q 544 3141 544 3541 
Q 544 4100 942 4425 
Q 1341 4750 2034 4750 
Q 2731 4750 3128 4425 
Q 3525 4100 3525 3541 
Q 3525 3141 3298 2862 
Q 3072 2584 2669 2484 
Q 3125 2378 3379 2068 
Q 3634 1759 3634 1313 
Q 3634 634 3220 271 
Q 2806 -91 2034 -91 
Q 1263 -91 848 271 
Q 434 634 434 1313 
Q 434 1759 690 2068 
Q 947 2378 1403 2484 
z
M 1172 3481 
Q 1172 3119 1398 2916 
Q 1625 2713 2034 2713 
Q 2441 2713 2670 2916 
Q 2900 3119 2900 3481 
Q 2900 3844 2670 4047 
Q 2441 4250 2034 4250 
Q 1625 4250 1398 4047 
Q 1172 3844 1172 3481 
z
" transform="scale(0.015625)"/>
       </defs>
       <use xlink:href="#DejaVuSans-38"/>
       <use xlink:href="#DejaVuSans-30" x="63.623047"/>
      </g>
     </g>
    </g>
    <g id="xtick_6">
     <g id="line2d_11">
      <path d="M 694.552348 310.02 
L 694.552348 7.2 
" clip-path="url(#pca172ddd9b)" style="fill: none; stroke: #b0b0b0; stroke-width: 0.8; stroke-linecap: square"/>
     </g>
     <g id="line2d_12"/>
     <g id="text_6">
      <!-- 100 -->
      <g transform="translate(681.191098 324.157812) scale(0.14 -0.14)">
       <defs>
        <path id="DejaVuSans-31" d="M 794 531 
L 1825 531 
L 1825 4091 
L 703 3866 
L 703 4441 
L 1819 4666 
L 2450 4666 
L 2450 531 
L 3481 531 
L 3481 0 
L 794 0 
L 794 531 
z
" transform="scale(0.015625)"/>
       </defs>
       <use xlink:href="#DejaVuSans-31"/>
       <use xlink:href="#DejaVuSans-30" x="63.623047"/>
       <use xlink:href="#DejaVuSans-30" x="127.246094"/>
      </g>
     </g>
    </g>
    <g id="text_7">
     <!-- Time (h) -->
     <g transform="translate(347.829886 343.226875) scale(0.16 -0.16)">
      <defs>
       <path id="DejaVuSans-54" d="M -19 4666 
L 3928 4666 
L 3928 4134 
L 2272 4134 
L 2272 0 
L 1638 0 
L 1638 4134 
L -19 4134 
L -19 4666 
z
" transform="scale(0.015625)"/>
       <path id="DejaVuSans-69" d="M 603 3500 
L 1178 3500 
L 1178 0 
L 603 0 
L 603 3500 
z
M 603 4863 
L 1178 4863 
L 1178 4134 
L 603 4134 
L 603 4863 
z
" transform="scale(0.015625)"/>
       <path id="DejaVuSans-6d" d="M 3328 2828 
Q 3544 3216 3844 3400 
Q 4144 3584 4550 3584 
Q 5097 3584 5394 3201 
Q 5691 2819 5691 2113 
L 5691 0 
L 5113 0 
L 5113 2094 
Q 5113 2597 4934 2840 
Q 4756 3084 4391 3084 
Q 3944 3084 3684 2787 
Q 3425 2491 3425 1978 
L 3425 0 
L 2847 0 
L 2847 2094 
Q 2847 2600 2669 2842 
Q 2491 3084 2119 3084 
Q 1678 3084 1418 2786 
Q 1159 2488 1159 1978 
L 1159 0 
L 581 0 
L 581 3500 
L 1159 3500 
L 1159 2956 
Q 1356 3278 1631 3431 
Q 1906 3584 2284 3584 
Q 2666 3584 2933 3390 
Q 3200 3197 3328 2828 
z
" transform="scale(0.015625)"/>
       <path id="DejaVuSans-65" d="M 3597 1894 
L 3597 1613 
L 953 1613 
Q 991 1019 1311 708 
Q 1631 397 2203 397 
Q 2534 397 2845 478 
Q 3156 559 3463 722 
L 3463 178 
Q 3153 47 2828 -22 
Q 2503 -91 2169 -91 
Q 1331 -91 842 396 
Q 353 884 353 1716 
Q 353 2575 817 3079 
Q 1281 3584 2069 3584 
Q 2775 3584 3186 3129 
Q 3597 2675 3597 1894 
z
M 3022 2063 
Q 3016 2534 2758 2815 
Q 2500 3097 2075 3097 
Q 1594 3097 1305 2825 
Q 1016 2553 972 2059 
L 3022 2063 
z
" transform="scale(0.015625)"/>
       <path id="DejaVuSans-20" transform="scale(0.015625)"/>
       <path id="DejaVuSans-28" d="M 1984 4856 
Q 1566 4138 1362 3434 
Q 1159 2731 1159 2009 
Q 1159 1288 1364 580 
Q 1569 -128 1984 -844 
L 1484 -844 
Q 1016 -109 783 600 
Q 550 1309 550 2009 
Q 550 2706 781 3412 
Q 1013 4119 1484 4856 
L 1984 4856 
z
" transform="scale(0.015625)"/>
       <path id="DejaVuSans-68" d="M 3513 2113 
L 3513 0 
L 2938 0 
L 2938 2094 
Q 2938 2591 2744 2837 
Q 2550 3084 2163 3084 
Q 1697 3084 1428 2787 
Q 1159 2491 1159 1978 
L 1159 0 
L 581 0 
L 581 4863 
L 1159 4863 
L 1159 2956 
Q 1366 3272 1645 3428 
Q 1925 3584 2291 3584 
Q 2894 3584 3203 3211 
Q 3513 2838 3513 2113 
z
" transform="scale(0.015625)"/>
       <path id="DejaVuSans-29" d="M 513 4856 
L 1013 4856 
Q 1481 4119 1714 3412 
Q 1947 2706 1947 2009 
Q 1947 1309 1714 600 
Q 1481 -109 1013 -844 
L 513 -844 
Q 928 -128 1133 580 
Q 1338 1288 1338 2009 
Q 1338 2731 1133 3434 
Q 928 4138 513 4856 
z
" transform="scale(0.015625)"/>
      </defs>
      <use xlink:href="#DejaVuSans-54"/>
      <use xlink:href="#DejaVuSans-69" x="57.958984"/>
      <use xlink:href="#DejaVuSans-6d" x="85.742188"/>
      <use xlink:href="#DejaVuSans-65" x="183.154297"/>
      <use xlink:href="#DejaVuSans-20" x="244.677734"/>
      <use xlink:href="#DejaVuSans-28" x="276.464844"/>
      <use xlink:href="#DejaVuSans-68" x="315.478516"/>
      <use xlink:href="#DejaVuSans-29" x="378.857422"/>
     </g>
    </g>
   </g>
   <g id="matplotlib.axis_2">
    <g id="ytick_1">
     <g id="line2d_13">
      <path d="M 56.9075 296.255455 
L 705.609773 296.255455 
" clip-path="url(#pca172ddd9b)" style="fill: none; stroke: #b0b0b0; stroke-width: 0.8; stroke-linecap: square"/>
     </g>
     <g id="line2d_14"/>
     <g id="text_8">
      <!-- 0 -->
      <g transform="translate(44.5 301.574361) scale(0.14 -0.14)">
       <use xlink:href="#DejaVuSans-30"/>
      </g>
     </g>
    </g>
    <g id="ytick_2">
     <g id="line2d_15">
      <path d="M 56.9075 241.197273 
L 705.609773 241.197273 
" clip-path="url(#pca172ddd9b)" style="fill: none; stroke: #b0b0b0; stroke-width: 0.8; stroke-linecap: square"/>
     </g>
     <g id="line2d_16"/>
     <g id="text_9">
      <!-- 20 -->
      <g transform="translate(35.5925 246.516179) scale(0.14 -0.14)">
       <use xlink:href="#DejaVuSans-32"/>
       <use xlink:href="#DejaVuSans-30" x="63.623047"/>
      </g>
     </g>
    </g>
    <g id="ytick_3">
     <g id="line2d_17">
      <path d="M 56.9075 186.139091 
L 705.609773 186.139091 
" clip-path="url(#pca172ddd9b)" style="fill: none; stroke: #b0b0b0; stroke-width: 0.8; stroke-linecap: square"/>
     </g>
     <g id="line2d_18"/>
     <g id="text_10">
      <!-- 40 -->
      <g transform="translate(35.5925 191.457997) scale(0.14 -0.14)">
       <use xlink:href="#DejaVuSans-34"/>
       <use xlink:href="#DejaVuSans-30" x="63.623047"/>
      </g>
     </g>
    </g>
    <g id="ytick_4">
     <g id="line2d_19">
      <path d="M 56.9075 131.080909 
L 705.609773 131.080909 
" clip-path="url(#pca172ddd9b)" style="fill: none; stroke: #b0b0b0; stroke-width: 0.8; stroke-linecap: square"/>
     </g>
     <g id="line2d_20"/>
     <g id="text_11">
      <!-- 60 -->
      <g transform="translate(35.5925 136.399815) scale(0.14 -0.14)">
       <use xlink:href="#DejaVuSans-36"/>
       <use xlink:href="#DejaVuSans-30" x="63.623047"/>
      </g>
     </g>
    </g>
    <g id="ytick_5">
     <g id="line2d_21">
      <path d="M 56.9075 76.022727 
L 705.609773 76.022727 
" clip-path="url(#pca172ddd9b)" style="fill: none; stroke: #b0b0b0; stroke-width: 0.8; stroke-linecap: square"/>
     </g>
     <g id="line2d_22"/>
     <g id="text_12">
      <!-- 80 -->
      <g transform="translate(35.5925 81.341634) scale(0.14 -0.14)">
       <use xlink:href="#DejaVuSans-38"/>
       <use xlink:href="#DejaVuSans-30" x="63.623047"/>
      </g>
     </g>
    </g>
    <g id="ytick_6">
     <g id="line2d_23">
      <path d="M 56.9075 20.964545 
L 705.609773 20.964545 
" clip-path="url(#pca172ddd9b)" style="fill: none; stroke: #b0b0b0; stroke-width: 0.8; stroke-linecap: square"/>
     </g>
     <g id="line2d_24"/>
     <g id="text_13">
      <!-- 100 -->
      <g transform="translate(26.685 26.283452) scale(0.14 -0.14)">
       <use xlink:href="#DejaVuSans-31"/>
       <use xlink:href="#DejaVuSans-30" x="63.623047"/>
       <use xlink:href="#DejaVuSans-30" x="127.246094"/>
      </g>
     </g>
    </g>
    <g id="text_14">
     <!-- % Unhealthy Cells -->
     <g transform="translate(19.3575 231.40125) rotate(-90) scale(0.16 -0.16)">
      <defs>
       <path id="DejaVuSans-25" d="M 4653 2053 
Q 4381 2053 4226 1822 
Q 4072 1591 4072 1178 
Q 4072 772 4226 539 
Q 4381 306 4653 306 
Q 4919 306 5073 539 
Q 5228 772 5228 1178 
Q 5228 1588 5073 1820 
Q 4919 2053 4653 2053 
z
M 4653 2450 
Q 5147 2450 5437 2106 
Q 5728 1763 5728 1178 
Q 5728 594 5436 251 
Q 5144 -91 4653 -91 
Q 4153 -91 3862 251 
Q 3572 594 3572 1178 
Q 3572 1766 3864 2108 
Q 4156 2450 4653 2450 
z
M 1428 4353 
Q 1159 4353 1004 4120 
Q 850 3888 850 3481 
Q 850 3069 1003 2837 
Q 1156 2606 1428 2606 
Q 1700 2606 1854 2837 
Q 2009 3069 2009 3481 
Q 2009 3884 1853 4118 
Q 1697 4353 1428 4353 
z
M 4250 4750 
L 4750 4750 
L 1831 -91 
L 1331 -91 
L 4250 4750 
z
M 1428 4750 
Q 1922 4750 2215 4408 
Q 2509 4066 2509 3481 
Q 2509 2891 2217 2550 
Q 1925 2209 1428 2209 
Q 931 2209 642 2551 
Q 353 2894 353 3481 
Q 353 4063 643 4406 
Q 934 4750 1428 4750 
z
" transform="scale(0.015625)"/>
       <path id="DejaVuSans-55" d="M 556 4666 
L 1191 4666 
L 1191 1831 
Q 1191 1081 1462 751 
Q 1734 422 2344 422 
Q 2950 422 3222 751 
Q 3494 1081 3494 1831 
L 3494 4666 
L 4128 4666 
L 4128 1753 
Q 4128 841 3676 375 
Q 3225 -91 2344 -91 
Q 1459 -91 1007 375 
Q 556 841 556 1753 
L 556 4666 
z
" transform="scale(0.015625)"/>
       <path id="DejaVuSans-6e" d="M 3513 2113 
L 3513 0 
L 2938 0 
L 2938 2094 
Q 2938 2591 2744 2837 
Q 2550 3084 2163 3084 
Q 1697 3084 1428 2787 
Q 1159 2491 1159 1978 
L 1159 0 
L 581 0 
L 581 3500 
L 1159 3500 
L 1159 2956 
Q 1366 3272 1645 3428 
Q 1925 3584 2291 3584 
Q 2894 3584 3203 3211 
Q 3513 2838 3513 2113 
z
" transform="scale(0.015625)"/>
       <path id="DejaVuSans-61" d="M 2194 1759 
Q 1497 1759 1228 1600 
Q 959 1441 959 1056 
Q 959 750 1161 570 
Q 1363 391 1709 391 
Q 2188 391 2477 730 
Q 2766 1069 2766 1631 
L 2766 1759 
L 2194 1759 
z
M 3341 1997 
L 3341 0 
L 2766 0 
L 2766 531 
Q 2569 213 2275 61 
Q 1981 -91 1556 -91 
Q 1019 -91 701 211 
Q 384 513 384 1019 
Q 384 1609 779 1909 
Q 1175 2209 1959 2209 
L 2766 2209 
L 2766 2266 
Q 2766 2663 2505 2880 
Q 2244 3097 1772 3097 
Q 1472 3097 1187 3025 
Q 903 2953 641 2809 
L 641 3341 
Q 956 3463 1253 3523 
Q 1550 3584 1831 3584 
Q 2591 3584 2966 3190 
Q 3341 2797 3341 1997 
z
" transform="scale(0.015625)"/>
       <path id="DejaVuSans-6c" d="M 603 4863 
L 1178 4863 
L 1178 0 
L 603 0 
L 603 4863 
z
" transform="scale(0.015625)"/>
       <path id="DejaVuSans-74" d="M 1172 4494 
L 1172 3500 
L 2356 3500 
L 2356 3053 
L 1172 3053 
L 1172 1153 
Q 1172 725 1289 603 
Q 1406 481 1766 481 
L 2356 481 
L 2356 0 
L 1766 0 
Q 1100 0 847 248 
Q 594 497 594 1153 
L 594 3053 
L 172 3053 
L 172 3500 
L 594 3500 
L 594 4494 
L 1172 4494 
z
" transform="scale(0.015625)"/>
       <path id="DejaVuSans-79" d="M 2059 -325 
Q 1816 -950 1584 -1140 
Q 1353 -1331 966 -1331 
L 506 -1331 
L 506 -850 
L 844 -850 
Q 1081 -850 1212 -737 
Q 1344 -625 1503 -206 
L 1606 56 
L 191 3500 
L 800 3500 
L 1894 763 
L 2988 3500 
L 3597 3500 
L 2059 -325 
z
" transform="scale(0.015625)"/>
       <path id="DejaVuSans-43" d="M 4122 4306 
L 4122 3641 
Q 3803 3938 3442 4084 
Q 3081 4231 2675 4231 
Q 1875 4231 1450 3742 
Q 1025 3253 1025 2328 
Q 1025 1406 1450 917 
Q 1875 428 2675 428 
Q 3081 428 3442 575 
Q 3803 722 4122 1019 
L 4122 359 
Q 3791 134 3420 21 
Q 3050 -91 2638 -91 
Q 1578 -91 968 557 
Q 359 1206 359 2328 
Q 359 3453 968 4101 
Q 1578 4750 2638 4750 
Q 3056 4750 3426 4639 
Q 3797 4528 4122 4306 
z
" transform="scale(0.015625)"/>
       <path id="DejaVuSans-73" d="M 2834 3397 
L 2834 2853 
Q 2591 2978 2328 3040 
Q 2066 3103 1784 3103 
Q 1356 3103 1142 2972 
Q 928 2841 928 2578 
Q 928 2378 1081 2264 
Q 1234 2150 1697 2047 
L 1894 2003 
Q 2506 1872 2764 1633 
Q 3022 1394 3022 966 
Q 3022 478 2636 193 
Q 2250 -91 1575 -91 
Q 1294 -91 989 -36 
Q 684 19 347 128 
L 347 722 
Q 666 556 975 473 
Q 1284 391 1588 391 
Q 1994 391 2212 530 
Q 2431 669 2431 922 
Q 2431 1156 2273 1281 
Q 2116 1406 1581 1522 
L 1381 1569 
Q 847 1681 609 1914 
Q 372 2147 372 2553 
Q 372 3047 722 3315 
Q 1072 3584 1716 3584 
Q 2034 3584 2315 3537 
Q 2597 3491 2834 3397 
z
" transform="scale(0.015625)"/>
      </defs>
      <use xlink:href="#DejaVuSans-25"/>
      <use xlink:href="#DejaVuSans-20" x="95.019531"/>
      <use xlink:href="#DejaVuSans-55" x="126.806641"/>
      <use xlink:href="#DejaVuSans-6e" x="200"/>
      <use xlink:href="#DejaVuSans-68" x="263.378906"/>
      <use xlink:href="#DejaVuSans-65" x="326.757812"/>
      <use xlink:href="#DejaVuSans-61" x="388.28125"/>
      <use xlink:href="#DejaVuSans-6c" x="449.560547"/>
      <use xlink:href="#DejaVuSans-74" x="477.34375"/>
      <use xlink:href="#DejaVuSans-68" x="516.552734"/>
      <use xlink:href="#DejaVuSans-79" x="579.931641"/>
      <use xlink:href="#DejaVuSans-20" x="639.111328"/>
      <use xlink:href="#DejaVuSans-43" x="670.898438"/>
      <use xlink:href="#DejaVuSans-65" x="740.722656"/>
      <use xlink:href="#DejaVuSans-6c" x="802.246094"/>
      <use xlink:href="#DejaVuSans-6c" x="830.029297"/>
      <use xlink:href="#DejaVuSans-73" x="857.8125"/>
     </g>
    </g>
   </g>
   <g id="line2d_25">
    <path d="M 86.393967 296.255455 
L 92.536981 296.255445 
L 98.679995 296.255441 
L 104.823009 296.255441 
L 110.966023 296.255438 
L 117.109037 296.255436 
L 123.252051 296.255432 
L 129.395065 296.255427 
L 135.538079 296.255421 
L 141.681092 296.255414 
L 147.824106 296.255407 
L 153.96712 296.2554 
L 160.110134 296.255391 
L 166.253148 296.255381 
L 172.396162 296.25537 
L 178.539176 296.255353 
L 184.68219 296.255337 
L 190.825204 296.255307 
L 196.968218 296.255277 
L 203.111232 296.255244 
L 209.254246 296.255185 
L 215.39726 296.255134 
L 221.540274 296.255011 
L 227.683288 296.254941 
L 233.826302 296.254802 
L 239.969316 296.254569 
L 246.11233 296.254354 
L 252.255343 296.254065 
L 258.398357 296.253713 
L 264.541371 296.253243 
L 270.684385 296.252656 
L 276.827399 296.251926 
L 282.970413 296.251082 
L 289.113427 296.250098 
L 295.256441 296.248541 
L 301.399455 296.247131 
L 307.542469 296.24488 
L 313.685483 296.242125 
L 319.828497 296.238903 
L 325.971511 296.235324 
L 332.114525 296.229316 
L 338.257539 296.223414 
L 344.400553 296.214229 
L 350.543567 296.203939 
L 356.686581 296.188093 
L 362.829595 296.169423 
L 368.972608 296.146846 
L 375.115622 296.114572 
L 381.258636 296.063215 
L 387.40165 296.019725 
L 393.544664 295.924132 
L 399.687678 295.811876 
L 405.830692 295.649474 
L 411.973706 295.445452 
L 418.11672 295.151387 
L 424.259734 294.643733 
L 430.402748 293.900739 
L 436.545762 293.076359 
L 442.688776 290.806988 
L 448.83179 295.798455 
L 454.974804 271.071384 
L 461.117818 295.750328 
L 467.260832 230.710426 
L 473.403846 265.904399 
L 479.54686 163.288447 
L 485.689873 110.404812 
L 491.832887 23.279241 
L 497.975901 63.225209 
L 504.118915 20.964545 
L 510.261929 20.964545 
L 516.404943 20.964545 
L 522.547957 20.964545 
L 528.690971 20.964545 
L 534.833985 20.964545 
L 540.976999 20.964545 
L 547.120013 20.964545 
L 553.263027 20.964545 
L 559.406041 20.964545 
L 565.549055 20.964545 
L 571.692069 20.964545 
L 577.835083 20.964545 
L 583.978097 20.964545 
L 590.121111 20.964545 
L 596.264124 20.964545 
L 602.407138 20.964545 
L 608.550152 20.964545 
L 614.693166 20.964545 
L 620.83618 20.964545 
L 626.979194 20.964545 
L 633.122208 20.964545 
L 639.265222 20.964545 
L 645.408236 20.964545 
L 651.55125 20.964545 
L 657.694264 20.964545 
L 663.837278 20.964545 
L 669.980292 20.964545 
L 676.123306 20.964545 
" clip-path="url(#pca172ddd9b)" style="fill: none; stroke: #1f77b4; stroke-width: 3; stroke-linecap: square"/>
   </g>
   <g id="line2d_26">
    <path d="M 86.393967 296.255422 
L 92.536981 296.255454 
L 98.679995 296.255454 
L 104.823009 296.255454 
L 110.966023 296.255454 
L 117.109037 296.255454 
L 123.252051 296.255454 
L 129.395065 296.255454 
L 135.538079 296.255454 
L 141.681092 296.255454 
L 147.824106 296.255454 
L 153.96712 296.255454 
L 160.110134 296.255454 
L 166.253148 296.255454 
L 172.396162 296.255454 
L 178.539176 296.255454 
L 184.68219 296.255454 
L 190.825204 296.255454 
L 196.968218 296.255454 
L 203.111232 296.255454 
L 209.254246 296.255454 
L 215.39726 296.255454 
L 221.540274 296.255454 
L 227.683288 296.255454 
L 233.826302 296.255453 
L 239.969316 296.255453 
L 246.11233 296.255451 
L 252.255343 296.255451 
L 258.398357 296.255449 
L 264.541371 296.255448 
L 270.684385 296.255444 
L 276.827399 296.255443 
L 282.970413 296.255436 
L 289.113427 296.255438 
L 295.256441 296.255422 
L 301.399455 296.25545 
L 307.542469 296.2554 
L 313.685483 296.255449 
L 319.828497 296.255362 
L 325.971511 296.255446 
L 332.114525 296.255305 
L 338.257539 296.255439 
L 344.400553 296.255232 
L 350.543567 296.25541 
L 356.686581 296.255106 
L 362.829595 296.255354 
L 368.972608 296.254884 
L 375.115622 296.2553 
L 381.258636 296.254572 
L 387.40165 296.255002 
L 393.544664 296.254183 
L 399.687678 296.253738 
L 405.830692 296.252747 
L 411.973706 296.251101 
L 418.11672 296.248432 
L 424.259734 296.245962 
L 430.402748 296.239538 
L 436.545762 296.23006 
L 442.688776 296.233915 
L 448.83179 296.191298 
L 454.974804 296.205243 
L 461.117818 296.045835 
L 467.260832 295.939236 
L 473.403846 295.706913 
L 479.54686 295.63285 
L 485.689873 295.841581 
L 491.832887 294.908475 
L 497.975901 294.300494 
L 504.118915 294.237666 
L 510.261929 292.203845 
L 516.404943 282.569827 
L 522.547957 276.734222 
L 528.690971 250.301194 
L 534.833985 187.912344 
L 540.976999 62.95147 
L 547.120013 20.964545 
L 553.263027 20.964545 
L 559.406041 20.964545 
L 565.549055 20.964545 
L 571.692069 20.964545 
L 577.835083 20.964545 
L 583.978097 20.964545 
L 590.121111 20.964545 
L 596.264124 20.964545 
L 602.407138 20.964545 
L 608.550152 20.964545 
L 614.693166 20.964545 
L 620.83618 20.964545 
L 626.979194 20.964545 
L 633.122208 20.964545 
L 639.265222 20.964545 
L 645.408236 20.964545 
L 651.55125 20.964545 
L 657.694264 20.964545 
L 663.837278 20.964545 
L 669.980292 20.964545 
L 676.123306 20.964545 
" clip-path="url(#pca172ddd9b)" style="fill: none; stroke: #ff7f0e; stroke-width: 3; stroke-linecap: square"/>
   </g>
   <g id="line2d_27">
    <path d="M 86.393967 296.022404 
L 92.536981 296.134897 
L 98.679995 296.121107 
L 104.823009 296.1059 
L 110.966023 296.062047 
L 117.109037 296.018553 
L 123.252051 295.982478 
L 129.395065 295.952496 
L 135.538079 295.919282 
L 141.681092 295.847959 
L 147.824106 295.79422 
L 153.96712 295.678551 
L 160.110134 295.519723 
L 166.253148 295.40405 
L 172.396162 295.218388 
L 178.539176 294.928496 
L 184.68219 294.613573 
L 190.825204 294.34578 
L 196.968218 293.552222 
L 203.111232 293.03755 
L 209.254246 291.741448 
L 215.39726 291.110453 
L 221.540274 289.090705 
L 227.683288 286.682737 
L 233.826302 283.015046 
L 239.969316 278.06206 
L 246.11233 271.243162 
L 252.255343 261.148956 
L 258.398357 245.084144 
L 264.541371 226.07833 
L 270.684385 192.962746 
L 276.827399 150.164639 
L 282.970413 87.495932 
L 289.113427 21.370347 
L 295.256441 20.964545 
L 301.399455 20.964545 
L 307.542469 20.964545 
L 313.685483 20.964545 
L 319.828497 20.964545 
L 325.971511 20.964545 
L 332.114525 20.964545 
L 338.257539 20.964545 
L 344.400553 20.964545 
L 350.543567 20.964545 
L 356.686581 20.964545 
L 362.829595 20.964545 
L 368.972608 20.964545 
L 375.115622 20.964545 
L 381.258636 20.964545 
L 387.40165 20.964545 
L 393.544664 20.964545 
L 399.687678 20.964545 
L 405.830692 20.964545 
L 411.973706 20.964545 
L 418.11672 20.964545 
L 424.259734 20.964545 
L 430.402748 20.964545 
L 436.545762 20.964545 
L 442.688776 20.964545 
L 448.83179 20.964545 
L 454.974804 20.964545 
L 461.117818 20.964545 
L 467.260832 20.964545 
L 473.403846 20.964545 
L 479.54686 20.964545 
L 485.689873 20.964545 
L 491.832887 20.964545 
L 497.975901 20.964545 
L 504.118915 20.964545 
L 510.261929 20.964545 
L 516.404943 20.964545 
L 522.547957 20.964545 
L 528.690971 20.964545 
L 534.833985 20.964545 
L 540.976999 20.964545 
L 547.120013 20.964545 
L 553.263027 20.964545 
L 559.406041 20.964545 
L 565.549055 20.964545 
L 571.692069 20.964545 
L 577.835083 20.964545 
L 583.978097 20.964545 
L 590.121111 20.964545 
L 596.264124 20.964545 
L 602.407138 20.964545 
L 608.550152 20.964545 
L 614.693166 20.964545 
L 620.83618 20.964545 
L 626.979194 20.964545 
L 633.122208 20.964545 
L 639.265222 20.964545 
L 645.408236 20.964545 
L 651.55125 20.964545 
L 657.694264 20.964545 
L 663.837278 20.964545 
L 669.980292 20.964545 
L 676.123306 20.964545 
" clip-path="url(#pca172ddd9b)" style="fill: none; stroke: #2ca02c; stroke-width: 3; stroke-linecap: square"/>
   </g>
   <g id="line2d_28">
    <path d="M 86.393967 296.254471 
L 92.536981 296.255179 
L 98.679995 296.255136 
L 104.823009 296.255079 
L 110.966023 296.254954 
L 117.109037 296.254846 
L 123.252051 296.254732 
L 129.395065 296.254577 
L 135.538079 296.25439 
L 141.681092 296.254198 
L 147.824106 296.253931 
L 153.96712 296.253484 
L 160.110134 296.253124 
L 166.253148 296.252543 
L 172.396162 296.251743 
L 178.539176 296.251008 
L 184.68219 296.249838 
L 190.825204 296.248449 
L 196.968218 296.246147 
L 203.111232 296.24393 
L 209.254246 296.240498 
L 215.39726 296.236194 
L 221.540274 296.23286 
L 227.683288 296.224035 
L 233.826302 296.214209 
L 239.969316 296.20188 
L 246.11233 296.189162 
L 252.255343 296.159584 
L 258.398357 296.134069 
L 264.541371 296.088024 
L 270.684385 296.038402 
L 276.827399 295.950376 
L 282.970413 295.816925 
L 289.113427 295.647225 
L 295.256441 295.429817 
L 301.399455 295.058005 
L 307.542469 294.479992 
L 313.685483 293.668533 
L 319.828497 292.307793 
L 325.971511 290.526566 
L 332.114525 286.525376 
L 338.257539 281.372515 
L 344.400553 272.310095 
L 350.543567 257.572433 
L 356.686581 232.492559 
L 362.829595 188.972048 
L 368.972608 124.085774 
L 375.115622 27.579224 
L 381.258636 20.964545 
L 387.40165 20.964545 
L 393.544664 20.964545 
L 399.687678 20.964545 
L 405.830692 20.964545 
L 411.973706 20.964545 
L 418.11672 20.964545 
L 424.259734 20.964545 
L 430.402748 20.964545 
L 436.545762 20.964545 
L 442.688776 20.964545 
L 448.83179 20.964545 
L 454.974804 20.964545 
L 461.117818 20.964545 
L 467.260832 20.964545 
L 473.403846 20.964545 
L 479.54686 20.964545 
L 485.689873 20.964545 
L 491.832887 20.964545 
L 497.975901 20.964545 
L 504.118915 20.964545 
L 510.261929 20.964545 
L 516.404943 20.964545 
L 522.547957 20.964545 
L 528.690971 20.964545 
L 534.833985 20.964545 
L 540.976999 20.964545 
L 547.120013 20.964545 
L 553.263027 20.964545 
L 559.406041 20.964545 
L 565.549055 20.964545 
L 571.692069 20.964545 
L 577.835083 20.964545 
L 583.978097 20.964545 
L 590.121111 20.964545 
L 596.264124 20.964545 
L 602.407138 20.964545 
L 608.550152 20.964545 
L 614.693166 20.964545 
L 620.83618 20.964545 
L 626.979194 20.964545 
L 633.122208 20.964545 
L 639.265222 20.964545 
L 645.408236 20.964545 
L 651.55125 20.964545 
L 657.694264 20.964545 
L 663.837278 20.964545 
L 669.980292 20.964545 
L 676.123306 20.964545 
" clip-path="url(#pca172ddd9b)" style="fill: none; stroke: #d62728; stroke-width: 3; stroke-linecap: square"/>
   </g>
   <g id="patch_3">
    <path d="M 56.9075 310.02 
L 56.9075 7.2 
" style="fill: none; stroke: #000000; stroke-width: 0.8; stroke-linejoin: miter; stroke-linecap: square"/>
   </g>
   <g id="patch_4">
    <path d="M 705.609773 310.02 
L 705.609773 7.2 
" style="fill: none; stroke: #000000; stroke-width: 0.8; stroke-linejoin: miter; stroke-linecap: square"/>
   </g>
   <g id="patch_5">
    <path d="M 56.9075 310.02 
L 705.609773 310.02 
" style="fill: none; stroke: #000000; stroke-width: 0.8; stroke-linejoin: miter; stroke-linecap: square"/>
   </g>
   <g id="patch_6">
    <path d="M 56.9075 7.2 
L 705.609773 7.2 
" style="fill: none; stroke: #000000; stroke-width: 0.8; stroke-linejoin: miter; stroke-linecap: square"/>
   </g>
   <g id="legend_1">
    <g id="patch_7">
     <path d="M 67.4075 107.26875 
L 157.948906 107.26875 
Q 160.948906 107.26875 160.948906 104.26875 
L 160.948906 17.7 
Q 160.948906 14.7 157.948906 14.7 
L 67.4075 14.7 
Q 64.4075 14.7 64.4075 17.7 
L 64.4075 104.26875 
Q 64.4075 107.26875 67.4075 107.26875 
z
" style="fill: #ffffff; opacity: 0.8; stroke: #cccccc; stroke-linejoin: miter"/>
    </g>
    <g id="line2d_29">
     <path d="M 70.4075 26.847656 
L 85.4075 26.847656 
L 100.4075 26.847656 
" style="fill: none; stroke: #1f77b4; stroke-width: 3; stroke-linecap: square"/>
    </g>
    <g id="text_15">
     <!-- HGHL -->
     <g transform="translate(112.4075 32.097656) scale(0.15 -0.15)">
      <defs>
       <path id="DejaVuSans-48" d="M 628 4666 
L 1259 4666 
L 1259 2753 
L 3553 2753 
L 3553 4666 
L 4184 4666 
L 4184 0 
L 3553 0 
L 3553 2222 
L 1259 2222 
L 1259 0 
L 628 0 
L 628 4666 
z
" transform="scale(0.015625)"/>
       <path id="DejaVuSans-47" d="M 3809 666 
L 3809 1919 
L 2778 1919 
L 2778 2438 
L 4434 2438 
L 4434 434 
Q 4069 175 3628 42 
Q 3188 -91 2688 -91 
Q 1594 -91 976 548 
Q 359 1188 359 2328 
Q 359 3472 976 4111 
Q 1594 4750 2688 4750 
Q 3144 4750 3555 4637 
Q 3966 4525 4313 4306 
L 4313 3634 
Q 3963 3931 3569 4081 
Q 3175 4231 2741 4231 
Q 1884 4231 1454 3753 
Q 1025 3275 1025 2328 
Q 1025 1384 1454 906 
Q 1884 428 2741 428 
Q 3075 428 3337 486 
Q 3600 544 3809 666 
z
" transform="scale(0.015625)"/>
       <path id="DejaVuSans-4c" d="M 628 4666 
L 1259 4666 
L 1259 531 
L 3531 531 
L 3531 0 
L 628 0 
L 628 4666 
z
" transform="scale(0.015625)"/>
      </defs>
      <use xlink:href="#DejaVuSans-48"/>
      <use xlink:href="#DejaVuSans-47" x="75.195312"/>
      <use xlink:href="#DejaVuSans-48" x="152.685547"/>
      <use xlink:href="#DejaVuSans-4c" x="227.880859"/>
     </g>
    </g>
    <g id="line2d_30">
     <path d="M 70.4075 48.864844 
L 85.4075 48.864844 
L 100.4075 48.864844 
" style="fill: none; stroke: #ff7f0e; stroke-width: 3; stroke-linecap: square"/>
    </g>
    <g id="text_16">
     <!-- HGLL -->
     <g transform="translate(112.4075 54.114844) scale(0.15 -0.15)">
      <use xlink:href="#DejaVuSans-48"/>
      <use xlink:href="#DejaVuSans-47" x="75.195312"/>
      <use xlink:href="#DejaVuSans-4c" x="152.685547"/>
      <use xlink:href="#DejaVuSans-4c" x="208.398438"/>
     </g>
    </g>
    <g id="line2d_31">
     <path d="M 70.4075 70.882031 
L 85.4075 70.882031 
L 100.4075 70.882031 
" style="fill: none; stroke: #2ca02c; stroke-width: 3; stroke-linecap: square"/>
    </g>
    <g id="text_17">
     <!-- LGLL -->
     <g transform="translate(112.4075 76.132031) scale(0.15 -0.15)">
      <use xlink:href="#DejaVuSans-4c"/>
      <use xlink:href="#DejaVuSans-47" x="55.712891"/>
      <use xlink:href="#DejaVuSans-4c" x="133.203125"/>
      <use xlink:href="#DejaVuSans-4c" x="188.916016"/>
     </g>
    </g>
    <g id="line2d_32">
     <path d="M 70.4075 92.899219 
L 85.4075 92.899219 
L 100.4075 92.899219 
" style="fill: none; stroke: #d62728; stroke-width: 3; stroke-linecap: square"/>
    </g>
    <g id="text_18">
     <!-- LGHL -->
     <g transform="translate(112.4075 98.149219) scale(0.15 -0.15)">
      <use xlink:href="#DejaVuSans-4c"/>
      <use xlink:href="#DejaVuSans-47" x="55.712891"/>
      <use xlink:href="#DejaVuSans-48" x="133.203125"/>
      <use xlink:href="#DejaVuSans-4c" x="208.398438"/>
     </g>
    </g>
   </g>
  </g>
 </g>
 <defs>
  <clipPath id="pca172ddd9b">
   <rect x="56.9075" y="7.2" width="648.702273" height="302.82"/>
  </clipPath>
 </defs>
</svg>
