<?xml version="1.0" encoding="utf-8" standalone="no"?>
<!DOCTYPE svg PUBLIC "-//W3C//DTD SVG 1.1//EN"
  "http://www.w3.org/Graphics/SVG/1.1/DTD/svg11.dtd">
<svg xmlns:xlink="http://www.w3.org/1999/xlink" width="449.600248pt" height="334.696562pt" viewBox="0 0 449.600248 334.696562" xmlns="http://www.w3.org/2000/svg" version="1.1">
 <metadata>
  <rdf:RDF xmlns:dc="http://purl.org/dc/elements/1.1/" xmlns:cc="http://creativecommons.org/ns#" xmlns:rdf="http://www.w3.org/1999/02/22-rdf-syntax-ns#">
   <cc:Work>
    <dc:type rdf:resource="http://purl.org/dc/dcmitype/StillImage"/>
    <dc:date>2023-03-16T21:35:04.389538</dc:date>
    <dc:format>image/svg+xml</dc:format>
    <dc:creator>
     <cc:Agent>
      <dc:title>Matplotlib v3.6.2, https://matplotlib.org/</dc:title>
     </cc:Agent>
    </dc:creator>
   </cc:Work>
  </rdf:RDF>
 </metadata>
 <defs>
  <style type="text/css">*{stroke-linejoin: round; stroke-linecap: butt}</style>
 </defs>
 <g id="figure_1">
  <g id="patch_1">
   <path d="M 0 334.696562 
L 449.600248 334.696562 
L 449.600248 0 
L 0 0 
z
" style="fill: #ffffff"/>
  </g>
  <g id="axes_1">
   <g id="patch_2">
    <path d="M 55.169563 293.238437 
L 376.673935 293.238437 
L 376.673935 17.798437 
L 55.169563 17.798437 
z
" style="fill: #ffffff"/>
   </g>
   <g id="PolyCollection_1">
    <defs>
     <path id="m1842f0c5dd" d="M 69.783398 -304.378125 
L 69.783398 -304.378125 
L 77.47489 -300.259243 
L 85.166382 -294.393614 
L 92.857874 -286.831767 
L 100.549366 -277.652445 
L 108.240858 -261.111498 
L 115.932351 -248.481503 
L 123.623843 -234.82954 
L 131.315335 -220.433669 
L 139.006827 -205.613303 
L 146.698319 -190.713751 
L 154.389812 -176.08341 
L 162.081304 -155.339052 
L 169.772796 -142.684674 
L 177.464288 -131.172524 
L 185.15578 -120.884751 
L 192.847272 -111.828983 
L 200.538765 -103.95294 
L 208.230257 -97.162706 
L 215.921749 -88.753587 
L 223.613241 -84.148632 
L 231.304733 -80.204817 
L 238.996225 -76.815339 
L 246.687718 -73.887698 
L 254.37921 -71.343905 
L 262.070702 -69.119429 
L 269.762194 -66.268839 
L 277.453686 -64.633166 
L 285.145178 -63.171821 
L 292.836671 -61.859443 
L 300.528163 -60.675308 
L 308.219655 -59.602353 
L 315.911147 -58.626417 
L 323.602639 -57.319012 
L 331.294132 -56.537714 
L 338.985624 -55.819292 
L 346.677116 -55.156987 
L 354.368608 -54.544957 
L 362.0601 -53.978125 
L 362.0601 -53.978125 
L 362.0601 -53.978125 
L 354.368608 -54.544957 
L 346.677116 -55.156987 
L 338.985624 -55.819292 
L 331.294132 -56.537714 
L 323.602639 -57.319012 
L 315.911147 -58.626417 
L 308.219655 -59.602353 
L 300.528163 -60.675308 
L 292.836671 -61.859443 
L 285.145178 -63.171821 
L 277.453686 -64.633166 
L 269.762194 -66.268839 
L 262.070702 -69.119429 
L 254.37921 -71.343905 
L 246.687718 -73.887698 
L 238.996225 -76.815339 
L 231.304733 -80.204817 
L 223.613241 -84.148632 
L 215.921749 -88.753587 
L 208.230257 -97.162706 
L 200.538765 -103.95294 
L 192.847272 -111.828983 
L 185.15578 -120.884751 
L 177.464288 -131.172524 
L 169.772796 -142.684674 
L 162.081304 -155.339052 
L 154.389812 -176.08341 
L 146.698319 -190.713751 
L 139.006827 -205.613303 
L 131.315335 -220.433669 
L 123.623843 -234.82954 
L 115.932351 -248.481503 
L 108.240858 -261.111498 
L 100.549366 -277.652445 
L 92.857874 -286.831767 
L 85.166382 -294.393614 
L 77.47489 -300.259243 
L 69.783398 -304.378125 
z
" style="stroke: #1f77b4; stroke-opacity: 0.1"/>
    </defs>
    <g clip-path="url(#p82d2240550)">
     <use xlink:href="#m1842f0c5dd" x="0" y="334.696562" style="fill: #1f77b4; fill-opacity: 0.1; stroke: #1f77b4; stroke-opacity: 0.1"/>
    </g>
   </g>
   <g id="matplotlib.axis_1">
    <g id="xtick_1">
     <g id="line2d_1">
      <path d="M 105.677028 293.238437 
L 105.677028 17.798437 
" clip-path="url(#p82d2240550)" style="fill: none; stroke: #f2f2f2; stroke-width: 0.8; stroke-linecap: square"/>
     </g>
     <g id="line2d_2">
      <defs>
       <path id="m5551b2c5a0" d="M 0 0 
L 0 3.5 
" style="stroke: #000000; stroke-width: 0.8"/>
      </defs>
      <g>
       <use xlink:href="#m5551b2c5a0" x="105.677028" y="293.238437" style="stroke: #000000; stroke-width: 0.8"/>
      </g>
     </g>
     <g id="text_1">
      <!-- $\mathdefault{100}$ -->
      <g transform="translate(96.127028 307.836875) scale(0.1 -0.1)">
       <defs>
        <path id="DejaVuSans-31" d="M 794 531 
L 1825 531 
L 1825 4091 
L 703 3866 
L 703 4441 
L 1819 4666 
L 2450 4666 
L 2450 531 
L 3481 531 
L 3481 0 
L 794 0 
L 794 531 
z
" transform="scale(0.015625)"/>
        <path id="DejaVuSans-30" d="M 2034 4250 
Q 1547 4250 1301 3770 
Q 1056 3291 1056 2328 
Q 1056 1369 1301 889 
Q 1547 409 2034 409 
Q 2525 409 2770 889 
Q 3016 1369 3016 2328 
Q 3016 3291 2770 3770 
Q 2525 4250 2034 4250 
z
M 2034 4750 
Q 2819 4750 3233 4129 
Q 3647 3509 3647 2328 
Q 3647 1150 3233 529 
Q 2819 -91 2034 -91 
Q 1250 -91 836 529 
Q 422 1150 422 2328 
Q 422 3509 836 4129 
Q 1250 4750 2034 4750 
z
" transform="scale(0.015625)"/>
       </defs>
       <use xlink:href="#DejaVuSans-31" transform="translate(0 0.78125)"/>
       <use xlink:href="#DejaVuSans-30" transform="translate(63.623047 0.78125)"/>
       <use xlink:href="#DejaVuSans-30" transform="translate(127.246094 0.78125)"/>
      </g>
     </g>
    </g>
    <g id="xtick_2">
     <g id="line2d_3">
      <path d="M 156.953642 293.238437 
L 156.953642 17.798437 
" clip-path="url(#p82d2240550)" style="fill: none; stroke: #f2f2f2; stroke-width: 0.8; stroke-linecap: square"/>
     </g>
     <g id="line2d_4">
      <g>
       <use xlink:href="#m5551b2c5a0" x="156.953642" y="293.238437" style="stroke: #000000; stroke-width: 0.8"/>
      </g>
     </g>
     <g id="text_2">
      <!-- $\mathdefault{200}$ -->
      <g transform="translate(147.403642 307.836875) scale(0.1 -0.1)">
       <defs>
        <path id="DejaVuSans-32" d="M 1228 531 
L 3431 531 
L 3431 0 
L 469 0 
L 469 531 
Q 828 903 1448 1529 
Q 2069 2156 2228 2338 
Q 2531 2678 2651 2914 
Q 2772 3150 2772 3378 
Q 2772 3750 2511 3984 
Q 2250 4219 1831 4219 
Q 1534 4219 1204 4116 
Q 875 4013 500 3803 
L 500 4441 
Q 881 4594 1212 4672 
Q 1544 4750 1819 4750 
Q 2544 4750 2975 4387 
Q 3406 4025 3406 3419 
Q 3406 3131 3298 2873 
Q 3191 2616 2906 2266 
Q 2828 2175 2409 1742 
Q 1991 1309 1228 531 
z
" transform="scale(0.015625)"/>
       </defs>
       <use xlink:href="#DejaVuSans-32" transform="translate(0 0.78125)"/>
       <use xlink:href="#DejaVuSans-30" transform="translate(63.623047 0.78125)"/>
       <use xlink:href="#DejaVuSans-30" transform="translate(127.246094 0.78125)"/>
      </g>
     </g>
    </g>
    <g id="xtick_3">
     <g id="line2d_5">
      <path d="M 208.230257 293.238437 
L 208.230257 17.798437 
" clip-path="url(#p82d2240550)" style="fill: none; stroke: #f2f2f2; stroke-width: 0.8; stroke-linecap: square"/>
     </g>
     <g id="line2d_6">
      <g>
       <use xlink:href="#m5551b2c5a0" x="208.230257" y="293.238437" style="stroke: #000000; stroke-width: 0.8"/>
      </g>
     </g>
     <g id="text_3">
      <!-- $\mathdefault{300}$ -->
      <g transform="translate(198.680257 307.836875) scale(0.1 -0.1)">
       <defs>
        <path id="DejaVuSans-33" d="M 2597 2516 
Q 3050 2419 3304 2112 
Q 3559 1806 3559 1356 
Q 3559 666 3084 287 
Q 2609 -91 1734 -91 
Q 1441 -91 1130 -33 
Q 819 25 488 141 
L 488 750 
Q 750 597 1062 519 
Q 1375 441 1716 441 
Q 2309 441 2620 675 
Q 2931 909 2931 1356 
Q 2931 1769 2642 2001 
Q 2353 2234 1838 2234 
L 1294 2234 
L 1294 2753 
L 1863 2753 
Q 2328 2753 2575 2939 
Q 2822 3125 2822 3475 
Q 2822 3834 2567 4026 
Q 2313 4219 1838 4219 
Q 1578 4219 1281 4162 
Q 984 4106 628 3988 
L 628 4550 
Q 988 4650 1302 4700 
Q 1616 4750 1894 4750 
Q 2613 4750 3031 4423 
Q 3450 4097 3450 3541 
Q 3450 3153 3228 2886 
Q 3006 2619 2597 2516 
z
" transform="scale(0.015625)"/>
       </defs>
       <use xlink:href="#DejaVuSans-33" transform="translate(0 0.78125)"/>
       <use xlink:href="#DejaVuSans-30" transform="translate(63.623047 0.78125)"/>
       <use xlink:href="#DejaVuSans-30" transform="translate(127.246094 0.78125)"/>
      </g>
     </g>
    </g>
    <g id="xtick_4">
     <g id="line2d_7">
      <path d="M 259.506871 293.238437 
L 259.506871 17.798437 
" clip-path="url(#p82d2240550)" style="fill: none; stroke: #f2f2f2; stroke-width: 0.8; stroke-linecap: square"/>
     </g>
     <g id="line2d_8">
      <g>
       <use xlink:href="#m5551b2c5a0" x="259.506871" y="293.238437" style="stroke: #000000; stroke-width: 0.8"/>
      </g>
     </g>
     <g id="text_4">
      <!-- $\mathdefault{400}$ -->
      <g transform="translate(249.956871 307.836875) scale(0.1 -0.1)">
       <defs>
        <path id="DejaVuSans-34" d="M 2419 4116 
L 825 1625 
L 2419 1625 
L 2419 4116 
z
M 2253 4666 
L 3047 4666 
L 3047 1625 
L 3713 1625 
L 3713 1100 
L 3047 1100 
L 3047 0 
L 2419 0 
L 2419 1100 
L 313 1100 
L 313 1709 
L 2253 4666 
z
" transform="scale(0.015625)"/>
       </defs>
       <use xlink:href="#DejaVuSans-34" transform="translate(0 0.78125)"/>
       <use xlink:href="#DejaVuSans-30" transform="translate(63.623047 0.78125)"/>
       <use xlink:href="#DejaVuSans-30" transform="translate(127.246094 0.78125)"/>
      </g>
     </g>
    </g>
    <g id="xtick_5">
     <g id="line2d_9">
      <path d="M 310.783486 293.238437 
L 310.783486 17.798437 
" clip-path="url(#p82d2240550)" style="fill: none; stroke: #f2f2f2; stroke-width: 0.8; stroke-linecap: square"/>
     </g>
     <g id="line2d_10">
      <g>
       <use xlink:href="#m5551b2c5a0" x="310.783486" y="293.238437" style="stroke: #000000; stroke-width: 0.8"/>
      </g>
     </g>
     <g id="text_5">
      <!-- $\mathdefault{500}$ -->
      <g transform="translate(301.233486 307.836875) scale(0.1 -0.1)">
       <defs>
        <path id="DejaVuSans-35" d="M 691 4666 
L 3169 4666 
L 3169 4134 
L 1269 4134 
L 1269 2991 
Q 1406 3038 1543 3061 
Q 1681 3084 1819 3084 
Q 2600 3084 3056 2656 
Q 3513 2228 3513 1497 
Q 3513 744 3044 326 
Q 2575 -91 1722 -91 
Q 1428 -91 1123 -41 
Q 819 9 494 109 
L 494 744 
Q 775 591 1075 516 
Q 1375 441 1709 441 
Q 2250 441 2565 725 
Q 2881 1009 2881 1497 
Q 2881 1984 2565 2268 
Q 2250 2553 1709 2553 
Q 1456 2553 1204 2497 
Q 953 2441 691 2322 
L 691 4666 
z
" transform="scale(0.015625)"/>
       </defs>
       <use xlink:href="#DejaVuSans-35" transform="translate(0 0.78125)"/>
       <use xlink:href="#DejaVuSans-30" transform="translate(63.623047 0.78125)"/>
       <use xlink:href="#DejaVuSans-30" transform="translate(127.246094 0.78125)"/>
      </g>
     </g>
    </g>
    <g id="xtick_6">
     <g id="line2d_11">
      <path d="M 362.0601 293.238437 
L 362.0601 17.798437 
" clip-path="url(#p82d2240550)" style="fill: none; stroke: #f2f2f2; stroke-width: 0.8; stroke-linecap: square"/>
     </g>
     <g id="line2d_12">
      <g>
       <use xlink:href="#m5551b2c5a0" x="362.0601" y="293.238437" style="stroke: #000000; stroke-width: 0.8"/>
      </g>
     </g>
     <g id="text_6">
      <!-- $\mathdefault{600}$ -->
      <g transform="translate(352.5101 307.836875) scale(0.1 -0.1)">
       <defs>
        <path id="DejaVuSans-36" d="M 2113 2584 
Q 1688 2584 1439 2293 
Q 1191 2003 1191 1497 
Q 1191 994 1439 701 
Q 1688 409 2113 409 
Q 2538 409 2786 701 
Q 3034 994 3034 1497 
Q 3034 2003 2786 2293 
Q 2538 2584 2113 2584 
z
M 3366 4563 
L 3366 3988 
Q 3128 4100 2886 4159 
Q 2644 4219 2406 4219 
Q 1781 4219 1451 3797 
Q 1122 3375 1075 2522 
Q 1259 2794 1537 2939 
Q 1816 3084 2150 3084 
Q 2853 3084 3261 2657 
Q 3669 2231 3669 1497 
Q 3669 778 3244 343 
Q 2819 -91 2113 -91 
Q 1303 -91 875 529 
Q 447 1150 447 2328 
Q 447 3434 972 4092 
Q 1497 4750 2381 4750 
Q 2619 4750 2861 4703 
Q 3103 4656 3366 4563 
z
" transform="scale(0.015625)"/>
       </defs>
       <use xlink:href="#DejaVuSans-36" transform="translate(0 0.78125)"/>
       <use xlink:href="#DejaVuSans-30" transform="translate(63.623047 0.78125)"/>
       <use xlink:href="#DejaVuSans-30" transform="translate(127.246094 0.78125)"/>
      </g>
     </g>
    </g>
    <g id="text_7">
     <!-- Aggregate Radius ($\mu$m) -->
     <g transform="translate(134.441749 324.556562) scale(0.14 -0.14)">
      <defs>
       <path id="DejaVuSans-41" d="M 2188 4044 
L 1331 1722 
L 3047 1722 
L 2188 4044 
z
M 1831 4666 
L 2547 4666 
L 4325 0 
L 3669 0 
L 3244 1197 
L 1141 1197 
L 716 0 
L 50 0 
L 1831 4666 
z
" transform="scale(0.015625)"/>
       <path id="DejaVuSans-67" d="M 2906 1791 
Q 2906 2416 2648 2759 
Q 2391 3103 1925 3103 
Q 1463 3103 1205 2759 
Q 947 2416 947 1791 
Q 947 1169 1205 825 
Q 1463 481 1925 481 
Q 2391 481 2648 825 
Q 2906 1169 2906 1791 
z
M 3481 434 
Q 3481 -459 3084 -895 
Q 2688 -1331 1869 -1331 
Q 1566 -1331 1297 -1286 
Q 1028 -1241 775 -1147 
L 775 -588 
Q 1028 -725 1275 -790 
Q 1522 -856 1778 -856 
Q 2344 -856 2625 -561 
Q 2906 -266 2906 331 
L 2906 616 
Q 2728 306 2450 153 
Q 2172 0 1784 0 
Q 1141 0 747 490 
Q 353 981 353 1791 
Q 353 2603 747 3093 
Q 1141 3584 1784 3584 
Q 2172 3584 2450 3431 
Q 2728 3278 2906 2969 
L 2906 3500 
L 3481 3500 
L 3481 434 
z
" transform="scale(0.015625)"/>
       <path id="DejaVuSans-72" d="M 2631 2963 
Q 2534 3019 2420 3045 
Q 2306 3072 2169 3072 
Q 1681 3072 1420 2755 
Q 1159 2438 1159 1844 
L 1159 0 
L 581 0 
L 581 3500 
L 1159 3500 
L 1159 2956 
Q 1341 3275 1631 3429 
Q 1922 3584 2338 3584 
Q 2397 3584 2469 3576 
Q 2541 3569 2628 3553 
L 2631 2963 
z
" transform="scale(0.015625)"/>
       <path id="DejaVuSans-65" d="M 3597 1894 
L 3597 1613 
L 953 1613 
Q 991 1019 1311 708 
Q 1631 397 2203 397 
Q 2534 397 2845 478 
Q 3156 559 3463 722 
L 3463 178 
Q 3153 47 2828 -22 
Q 2503 -91 2169 -91 
Q 1331 -91 842 396 
Q 353 884 353 1716 
Q 353 2575 817 3079 
Q 1281 3584 2069 3584 
Q 2775 3584 3186 3129 
Q 3597 2675 3597 1894 
z
M 3022 2063 
Q 3016 2534 2758 2815 
Q 2500 3097 2075 3097 
Q 1594 3097 1305 2825 
Q 1016 2553 972 2059 
L 3022 2063 
z
" transform="scale(0.015625)"/>
       <path id="DejaVuSans-61" d="M 2194 1759 
Q 1497 1759 1228 1600 
Q 959 1441 959 1056 
Q 959 750 1161 570 
Q 1363 391 1709 391 
Q 2188 391 2477 730 
Q 2766 1069 2766 1631 
L 2766 1759 
L 2194 1759 
z
M 3341 1997 
L 3341 0 
L 2766 0 
L 2766 531 
Q 2569 213 2275 61 
Q 1981 -91 1556 -91 
Q 1019 -91 701 211 
Q 384 513 384 1019 
Q 384 1609 779 1909 
Q 1175 2209 1959 2209 
L 2766 2209 
L 2766 2266 
Q 2766 2663 2505 2880 
Q 2244 3097 1772 3097 
Q 1472 3097 1187 3025 
Q 903 2953 641 2809 
L 641 3341 
Q 956 3463 1253 3523 
Q 1550 3584 1831 3584 
Q 2591 3584 2966 3190 
Q 3341 2797 3341 1997 
z
" transform="scale(0.015625)"/>
       <path id="DejaVuSans-74" d="M 1172 4494 
L 1172 3500 
L 2356 3500 
L 2356 3053 
L 1172 3053 
L 1172 1153 
Q 1172 725 1289 603 
Q 1406 481 1766 481 
L 2356 481 
L 2356 0 
L 1766 0 
Q 1100 0 847 248 
Q 594 497 594 1153 
L 594 3053 
L 172 3053 
L 172 3500 
L 594 3500 
L 594 4494 
L 1172 4494 
z
" transform="scale(0.015625)"/>
       <path id="DejaVuSans-20" transform="scale(0.015625)"/>
       <path id="DejaVuSans-52" d="M 2841 2188 
Q 3044 2119 3236 1894 
Q 3428 1669 3622 1275 
L 4263 0 
L 3584 0 
L 2988 1197 
Q 2756 1666 2539 1819 
Q 2322 1972 1947 1972 
L 1259 1972 
L 1259 0 
L 628 0 
L 628 4666 
L 2053 4666 
Q 2853 4666 3247 4331 
Q 3641 3997 3641 3322 
Q 3641 2881 3436 2590 
Q 3231 2300 2841 2188 
z
M 1259 4147 
L 1259 2491 
L 2053 2491 
Q 2509 2491 2742 2702 
Q 2975 2913 2975 3322 
Q 2975 3731 2742 3939 
Q 2509 4147 2053 4147 
L 1259 4147 
z
" transform="scale(0.015625)"/>
       <path id="DejaVuSans-64" d="M 2906 2969 
L 2906 4863 
L 3481 4863 
L 3481 0 
L 2906 0 
L 2906 525 
Q 2725 213 2448 61 
Q 2172 -91 1784 -91 
Q 1150 -91 751 415 
Q 353 922 353 1747 
Q 353 2572 751 3078 
Q 1150 3584 1784 3584 
Q 2172 3584 2448 3432 
Q 2725 3281 2906 2969 
z
M 947 1747 
Q 947 1113 1208 752 
Q 1469 391 1925 391 
Q 2381 391 2643 752 
Q 2906 1113 2906 1747 
Q 2906 2381 2643 2742 
Q 2381 3103 1925 3103 
Q 1469 3103 1208 2742 
Q 947 2381 947 1747 
z
" transform="scale(0.015625)"/>
       <path id="DejaVuSans-69" d="M 603 3500 
L 1178 3500 
L 1178 0 
L 603 0 
L 603 3500 
z
M 603 4863 
L 1178 4863 
L 1178 4134 
L 603 4134 
L 603 4863 
z
" transform="scale(0.015625)"/>
       <path id="DejaVuSans-75" d="M 544 1381 
L 544 3500 
L 1119 3500 
L 1119 1403 
Q 1119 906 1312 657 
Q 1506 409 1894 409 
Q 2359 409 2629 706 
Q 2900 1003 2900 1516 
L 2900 3500 
L 3475 3500 
L 3475 0 
L 2900 0 
L 2900 538 
Q 2691 219 2414 64 
Q 2138 -91 1772 -91 
Q 1169 -91 856 284 
Q 544 659 544 1381 
z
M 1991 3584 
L 1991 3584 
z
" transform="scale(0.015625)"/>
       <path id="DejaVuSans-73" d="M 2834 3397 
L 2834 2853 
Q 2591 2978 2328 3040 
Q 2066 3103 1784 3103 
Q 1356 3103 1142 2972 
Q 928 2841 928 2578 
Q 928 2378 1081 2264 
Q 1234 2150 1697 2047 
L 1894 2003 
Q 2506 1872 2764 1633 
Q 3022 1394 3022 966 
Q 3022 478 2636 193 
Q 2250 -91 1575 -91 
Q 1294 -91 989 -36 
Q 684 19 347 128 
L 347 722 
Q 666 556 975 473 
Q 1284 391 1588 391 
Q 1994 391 2212 530 
Q 2431 669 2431 922 
Q 2431 1156 2273 1281 
Q 2116 1406 1581 1522 
L 1381 1569 
Q 847 1681 609 1914 
Q 372 2147 372 2553 
Q 372 3047 722 3315 
Q 1072 3584 1716 3584 
Q 2034 3584 2315 3537 
Q 2597 3491 2834 3397 
z
" transform="scale(0.015625)"/>
       <path id="DejaVuSans-28" d="M 1984 4856 
Q 1566 4138 1362 3434 
Q 1159 2731 1159 2009 
Q 1159 1288 1364 580 
Q 1569 -128 1984 -844 
L 1484 -844 
Q 1016 -109 783 600 
Q 550 1309 550 2009 
Q 550 2706 781 3412 
Q 1013 4119 1484 4856 
L 1984 4856 
z
" transform="scale(0.015625)"/>
       <path id="DejaVuSans-Oblique-3bc" d="M -84 -1331 
L 856 3500 
L 1434 3500 
L 1009 1322 
Q 997 1256 987 1175 
Q 978 1094 978 1013 
Q 978 722 1161 565 
Q 1344 409 1684 409 
Q 2147 409 2431 671 
Q 2716 934 2816 1459 
L 3213 3500 
L 3788 3500 
L 3266 809 
Q 3253 750 3248 706 
Q 3244 663 3244 628 
Q 3244 531 3283 486 
Q 3322 441 3406 441 
Q 3438 441 3492 456 
Q 3547 472 3647 513 
L 3559 50 
Q 3422 -19 3297 -55 
Q 3172 -91 3053 -91 
Q 2847 -91 2730 40 
Q 2613 172 2613 403 
Q 2438 153 2195 31 
Q 1953 -91 1625 -91 
Q 1334 -91 1117 43 
Q 900 178 831 397 
L 494 -1331 
L -84 -1331 
z
" transform="scale(0.015625)"/>
       <path id="DejaVuSans-6d" d="M 3328 2828 
Q 3544 3216 3844 3400 
Q 4144 3584 4550 3584 
Q 5097 3584 5394 3201 
Q 5691 2819 5691 2113 
L 5691 0 
L 5113 0 
L 5113 2094 
Q 5113 2597 4934 2840 
Q 4756 3084 4391 3084 
Q 3944 3084 3684 2787 
Q 3425 2491 3425 1978 
L 3425 0 
L 2847 0 
L 2847 2094 
Q 2847 2600 2669 2842 
Q 2491 3084 2119 3084 
Q 1678 3084 1418 2786 
Q 1159 2488 1159 1978 
L 1159 0 
L 581 0 
L 581 3500 
L 1159 3500 
L 1159 2956 
Q 1356 3278 1631 3431 
Q 1906 3584 2284 3584 
Q 2666 3584 2933 3390 
Q 3200 3197 3328 2828 
z
" transform="scale(0.015625)"/>
       <path id="DejaVuSans-29" d="M 513 4856 
L 1013 4856 
Q 1481 4119 1714 3412 
Q 1947 2706 1947 2009 
Q 1947 1309 1714 600 
Q 1481 -109 1013 -844 
L 513 -844 
Q 928 -128 1133 580 
Q 1338 1288 1338 2009 
Q 1338 2731 1133 3434 
Q 928 4138 513 4856 
z
" transform="scale(0.015625)"/>
      </defs>
      <use xlink:href="#DejaVuSans-41" transform="translate(0 0.015625)"/>
      <use xlink:href="#DejaVuSans-67" transform="translate(68.408203 0.015625)"/>
      <use xlink:href="#DejaVuSans-67" transform="translate(131.884766 0.015625)"/>
      <use xlink:href="#DejaVuSans-72" transform="translate(195.361328 0.015625)"/>
      <use xlink:href="#DejaVuSans-65" transform="translate(236.474609 0.015625)"/>
      <use xlink:href="#DejaVuSans-67" transform="translate(297.998047 0.015625)"/>
      <use xlink:href="#DejaVuSans-61" transform="translate(361.474609 0.015625)"/>
      <use xlink:href="#DejaVuSans-74" transform="translate(422.753906 0.015625)"/>
      <use xlink:href="#DejaVuSans-65" transform="translate(461.962891 0.015625)"/>
      <use xlink:href="#DejaVuSans-20" transform="translate(523.486328 0.015625)"/>
      <use xlink:href="#DejaVuSans-52" transform="translate(555.273438 0.015625)"/>
      <use xlink:href="#DejaVuSans-61" transform="translate(624.755859 0.015625)"/>
      <use xlink:href="#DejaVuSans-64" transform="translate(686.035156 0.015625)"/>
      <use xlink:href="#DejaVuSans-69" transform="translate(749.511719 0.015625)"/>
      <use xlink:href="#DejaVuSans-75" transform="translate(777.294922 0.015625)"/>
      <use xlink:href="#DejaVuSans-73" transform="translate(840.673828 0.015625)"/>
      <use xlink:href="#DejaVuSans-20" transform="translate(892.773438 0.015625)"/>
      <use xlink:href="#DejaVuSans-28" transform="translate(924.560547 0.015625)"/>
      <use xlink:href="#DejaVuSans-Oblique-3bc" transform="translate(963.574219 0.015625)"/>
      <use xlink:href="#DejaVuSans-6d" transform="translate(1027.197266 0.015625)"/>
      <use xlink:href="#DejaVuSans-29" transform="translate(1124.609375 0.015625)"/>
     </g>
    </g>
   </g>
   <g id="matplotlib.axis_2">
    <g id="ytick_1">
     <g id="line2d_13">
      <defs>
       <path id="mc26358c572" d="M 0 0 
L -3.5 0 
" style="stroke: #000000; stroke-width: 0.8"/>
      </defs>
      <g>
       <use xlink:href="#mc26358c572" x="55.169563" y="291.901865" style="stroke: #000000; stroke-width: 0.8"/>
      </g>
     </g>
     <g id="text_8">
      <!-- 0 -->
      <g transform="translate(41.807063 295.701084) scale(0.1 -0.1)">
       <use xlink:href="#DejaVuSans-30"/>
      </g>
     </g>
    </g>
    <g id="ytick_2">
     <g id="line2d_14">
      <g>
       <use xlink:href="#mc26358c572" x="55.169563" y="249.705031" style="stroke: #000000; stroke-width: 0.8"/>
      </g>
     </g>
     <g id="text_9">
      <!-- 1 -->
      <g transform="translate(41.807063 253.50425) scale(0.1 -0.1)">
       <use xlink:href="#DejaVuSans-31"/>
      </g>
     </g>
    </g>
    <g id="ytick_3">
     <g id="line2d_15">
      <g>
       <use xlink:href="#mc26358c572" x="55.169563" y="207.508197" style="stroke: #000000; stroke-width: 0.8"/>
      </g>
     </g>
     <g id="text_10">
      <!-- 2 -->
      <g transform="translate(41.807063 211.307415) scale(0.1 -0.1)">
       <use xlink:href="#DejaVuSans-32"/>
      </g>
     </g>
    </g>
    <g id="ytick_4">
     <g id="line2d_16">
      <g>
       <use xlink:href="#mc26358c572" x="55.169563" y="165.311363" style="stroke: #000000; stroke-width: 0.8"/>
      </g>
     </g>
     <g id="text_11">
      <!-- 3 -->
      <g transform="translate(41.807063 169.110581) scale(0.1 -0.1)">
       <use xlink:href="#DejaVuSans-33"/>
      </g>
     </g>
    </g>
    <g id="ytick_5">
     <g id="line2d_17">
      <g>
       <use xlink:href="#mc26358c572" x="55.169563" y="123.114528" style="stroke: #000000; stroke-width: 0.8"/>
      </g>
     </g>
     <g id="text_12">
      <!-- 4 -->
      <g transform="translate(41.807063 126.913747) scale(0.1 -0.1)">
       <use xlink:href="#DejaVuSans-34"/>
      </g>
     </g>
    </g>
    <g id="ytick_6">
     <g id="line2d_18">
      <g>
       <use xlink:href="#mc26358c572" x="55.169563" y="80.917694" style="stroke: #000000; stroke-width: 0.8"/>
      </g>
     </g>
     <g id="text_13">
      <!-- 5 -->
      <g transform="translate(41.807063 84.716913) scale(0.1 -0.1)">
       <use xlink:href="#DejaVuSans-35"/>
      </g>
     </g>
    </g>
    <g id="ytick_7">
     <g id="line2d_19">
      <g>
       <use xlink:href="#mc26358c572" x="55.169563" y="38.72086" style="stroke: #000000; stroke-width: 0.8"/>
      </g>
     </g>
     <g id="text_14">
      <!-- 6 -->
      <g transform="translate(41.807063 42.520079) scale(0.1 -0.1)">
       <use xlink:href="#DejaVuSans-36"/>
      </g>
     </g>
    </g>
    <g id="text_15">
     <!-- Mean Biomass Production  -->
     <g style="fill: #1f77b4" transform="translate(17.837813 247.935937) rotate(-90) scale(0.14 -0.14)">
      <defs>
       <path id="DejaVuSans-4d" d="M 628 4666 
L 1569 4666 
L 2759 1491 
L 3956 4666 
L 4897 4666 
L 4897 0 
L 4281 0 
L 4281 4097 
L 3078 897 
L 2444 897 
L 1241 4097 
L 1241 0 
L 628 0 
L 628 4666 
z
" transform="scale(0.015625)"/>
       <path id="DejaVuSans-6e" d="M 3513 2113 
L 3513 0 
L 2938 0 
L 2938 2094 
Q 2938 2591 2744 2837 
Q 2550 3084 2163 3084 
Q 1697 3084 1428 2787 
Q 1159 2491 1159 1978 
L 1159 0 
L 581 0 
L 581 3500 
L 1159 3500 
L 1159 2956 
Q 1366 3272 1645 3428 
Q 1925 3584 2291 3584 
Q 2894 3584 3203 3211 
Q 3513 2838 3513 2113 
z
" transform="scale(0.015625)"/>
       <path id="DejaVuSans-42" d="M 1259 2228 
L 1259 519 
L 2272 519 
Q 2781 519 3026 730 
Q 3272 941 3272 1375 
Q 3272 1813 3026 2020 
Q 2781 2228 2272 2228 
L 1259 2228 
z
M 1259 4147 
L 1259 2741 
L 2194 2741 
Q 2656 2741 2882 2914 
Q 3109 3088 3109 3444 
Q 3109 3797 2882 3972 
Q 2656 4147 2194 4147 
L 1259 4147 
z
M 628 4666 
L 2241 4666 
Q 2963 4666 3353 4366 
Q 3744 4066 3744 3513 
Q 3744 3084 3544 2831 
Q 3344 2578 2956 2516 
Q 3422 2416 3680 2098 
Q 3938 1781 3938 1306 
Q 3938 681 3513 340 
Q 3088 0 2303 0 
L 628 0 
L 628 4666 
z
" transform="scale(0.015625)"/>
       <path id="DejaVuSans-6f" d="M 1959 3097 
Q 1497 3097 1228 2736 
Q 959 2375 959 1747 
Q 959 1119 1226 758 
Q 1494 397 1959 397 
Q 2419 397 2687 759 
Q 2956 1122 2956 1747 
Q 2956 2369 2687 2733 
Q 2419 3097 1959 3097 
z
M 1959 3584 
Q 2709 3584 3137 3096 
Q 3566 2609 3566 1747 
Q 3566 888 3137 398 
Q 2709 -91 1959 -91 
Q 1206 -91 779 398 
Q 353 888 353 1747 
Q 353 2609 779 3096 
Q 1206 3584 1959 3584 
z
" transform="scale(0.015625)"/>
       <path id="DejaVuSans-50" d="M 1259 4147 
L 1259 2394 
L 2053 2394 
Q 2494 2394 2734 2622 
Q 2975 2850 2975 3272 
Q 2975 3691 2734 3919 
Q 2494 4147 2053 4147 
L 1259 4147 
z
M 628 4666 
L 2053 4666 
Q 2838 4666 3239 4311 
Q 3641 3956 3641 3272 
Q 3641 2581 3239 2228 
Q 2838 1875 2053 1875 
L 1259 1875 
L 1259 0 
L 628 0 
L 628 4666 
z
" transform="scale(0.015625)"/>
       <path id="DejaVuSans-63" d="M 3122 3366 
L 3122 2828 
Q 2878 2963 2633 3030 
Q 2388 3097 2138 3097 
Q 1578 3097 1268 2742 
Q 959 2388 959 1747 
Q 959 1106 1268 751 
Q 1578 397 2138 397 
Q 2388 397 2633 464 
Q 2878 531 3122 666 
L 3122 134 
Q 2881 22 2623 -34 
Q 2366 -91 2075 -91 
Q 1284 -91 818 406 
Q 353 903 353 1747 
Q 353 2603 823 3093 
Q 1294 3584 2113 3584 
Q 2378 3584 2631 3529 
Q 2884 3475 3122 3366 
z
" transform="scale(0.015625)"/>
      </defs>
      <use xlink:href="#DejaVuSans-4d"/>
      <use xlink:href="#DejaVuSans-65" x="86.279297"/>
      <use xlink:href="#DejaVuSans-61" x="147.802734"/>
      <use xlink:href="#DejaVuSans-6e" x="209.082031"/>
      <use xlink:href="#DejaVuSans-20" x="272.460938"/>
      <use xlink:href="#DejaVuSans-42" x="304.248047"/>
      <use xlink:href="#DejaVuSans-69" x="372.851562"/>
      <use xlink:href="#DejaVuSans-6f" x="400.634766"/>
      <use xlink:href="#DejaVuSans-6d" x="461.816406"/>
      <use xlink:href="#DejaVuSans-61" x="559.228516"/>
      <use xlink:href="#DejaVuSans-73" x="620.507812"/>
      <use xlink:href="#DejaVuSans-73" x="672.607422"/>
      <use xlink:href="#DejaVuSans-20" x="724.707031"/>
      <use xlink:href="#DejaVuSans-50" x="756.494141"/>
      <use xlink:href="#DejaVuSans-72" x="815.046875"/>
      <use xlink:href="#DejaVuSans-6f" x="853.910156"/>
      <use xlink:href="#DejaVuSans-64" x="915.091797"/>
      <use xlink:href="#DejaVuSans-75" x="978.568359"/>
      <use xlink:href="#DejaVuSans-63" x="1041.947266"/>
      <use xlink:href="#DejaVuSans-74" x="1096.927734"/>
      <use xlink:href="#DejaVuSans-69" x="1136.136719"/>
      <use xlink:href="#DejaVuSans-6f" x="1163.919922"/>
      <use xlink:href="#DejaVuSans-6e" x="1225.101562"/>
      <use xlink:href="#DejaVuSans-20" x="1288.480469"/>
     </g>
     <!--  (nmol/$10^6$ cells/h) -->
     <g style="fill: #1f77b4" transform="translate(34.8955 220.058437) rotate(-90) scale(0.14 -0.14)">
      <defs>
       <path id="DejaVuSans-6c" d="M 603 4863 
L 1178 4863 
L 1178 0 
L 603 0 
L 603 4863 
z
" transform="scale(0.015625)"/>
       <path id="DejaVuSans-2f" d="M 1625 4666 
L 2156 4666 
L 531 -594 
L 0 -594 
L 1625 4666 
z
" transform="scale(0.015625)"/>
       <path id="DejaVuSans-68" d="M 3513 2113 
L 3513 0 
L 2938 0 
L 2938 2094 
Q 2938 2591 2744 2837 
Q 2550 3084 2163 3084 
Q 1697 3084 1428 2787 
Q 1159 2491 1159 1978 
L 1159 0 
L 581 0 
L 581 4863 
L 1159 4863 
L 1159 2956 
Q 1366 3272 1645 3428 
Q 1925 3584 2291 3584 
Q 2894 3584 3203 3211 
Q 3513 2838 3513 2113 
z
" transform="scale(0.015625)"/>
      </defs>
      <use xlink:href="#DejaVuSans-20" transform="translate(0 0.765625)"/>
      <use xlink:href="#DejaVuSans-28" transform="translate(31.787109 0.765625)"/>
      <use xlink:href="#DejaVuSans-6e" transform="translate(70.800781 0.765625)"/>
      <use xlink:href="#DejaVuSans-6d" transform="translate(134.179688 0.765625)"/>
      <use xlink:href="#DejaVuSans-6f" transform="translate(231.591797 0.765625)"/>
      <use xlink:href="#DejaVuSans-6c" transform="translate(292.773438 0.765625)"/>
      <use xlink:href="#DejaVuSans-2f" transform="translate(320.556641 0.765625)"/>
      <use xlink:href="#DejaVuSans-31" transform="translate(354.248047 0.765625)"/>
      <use xlink:href="#DejaVuSans-30" transform="translate(417.871094 0.765625)"/>
      <use xlink:href="#DejaVuSans-36" transform="translate(482.451172 39.046875) scale(0.7)"/>
      <use xlink:href="#DejaVuSans-20" transform="translate(529.72168 0.765625)"/>
      <use xlink:href="#DejaVuSans-63" transform="translate(561.508789 0.765625)"/>
      <use xlink:href="#DejaVuSans-65" transform="translate(616.489258 0.765625)"/>
      <use xlink:href="#DejaVuSans-6c" transform="translate(678.012695 0.765625)"/>
      <use xlink:href="#DejaVuSans-6c" transform="translate(705.795898 0.765625)"/>
      <use xlink:href="#DejaVuSans-73" transform="translate(733.579102 0.765625)"/>
      <use xlink:href="#DejaVuSans-2f" transform="translate(785.678711 0.765625)"/>
      <use xlink:href="#DejaVuSans-68" transform="translate(819.370117 0.765625)"/>
      <use xlink:href="#DejaVuSans-29" transform="translate(882.749023 0.765625)"/>
     </g>
    </g>
    <g id="text_16">
     <!-- 1e−8 -->
     <g transform="translate(55.169563 14.798437) scale(0.1 -0.1)">
      <defs>
       <path id="DejaVuSans-2212" d="M 678 2272 
L 4684 2272 
L 4684 1741 
L 678 1741 
L 678 2272 
z
" transform="scale(0.015625)"/>
       <path id="DejaVuSans-38" d="M 2034 2216 
Q 1584 2216 1326 1975 
Q 1069 1734 1069 1313 
Q 1069 891 1326 650 
Q 1584 409 2034 409 
Q 2484 409 2743 651 
Q 3003 894 3003 1313 
Q 3003 1734 2745 1975 
Q 2488 2216 2034 2216 
z
M 1403 2484 
Q 997 2584 770 2862 
Q 544 3141 544 3541 
Q 544 4100 942 4425 
Q 1341 4750 2034 4750 
Q 2731 4750 3128 4425 
Q 3525 4100 3525 3541 
Q 3525 3141 3298 2862 
Q 3072 2584 2669 2484 
Q 3125 2378 3379 2068 
Q 3634 1759 3634 1313 
Q 3634 634 3220 271 
Q 2806 -91 2034 -91 
Q 1263 -91 848 271 
Q 434 634 434 1313 
Q 434 1759 690 2068 
Q 947 2378 1403 2484 
z
M 1172 3481 
Q 1172 3119 1398 2916 
Q 1625 2713 2034 2713 
Q 2441 2713 2670 2916 
Q 2900 3119 2900 3481 
Q 2900 3844 2670 4047 
Q 2441 4250 2034 4250 
Q 1625 4250 1398 4047 
Q 1172 3844 1172 3481 
z
" transform="scale(0.015625)"/>
      </defs>
      <use xlink:href="#DejaVuSans-31"/>
      <use xlink:href="#DejaVuSans-65" x="63.623047"/>
      <use xlink:href="#DejaVuSans-2212" x="125.146484"/>
      <use xlink:href="#DejaVuSans-38" x="208.935547"/>
     </g>
    </g>
   </g>
   <g id="line2d_20">
    <path d="M 69.783398 30.318438 
L 77.47489 34.437319 
L 85.166382 40.302948 
L 92.857874 47.864795 
L 100.549366 57.044118 
L 108.240858 73.585064 
L 115.932351 86.21506 
L 123.623843 99.867023 
L 131.315335 114.262893 
L 139.006827 129.083259 
L 146.698319 143.982812 
L 154.389812 158.613152 
L 162.081304 179.357511 
L 169.772796 192.011888 
L 177.464288 203.524038 
L 185.15578 213.811812 
L 192.847272 222.86758 
L 200.538765 230.743622 
L 208.230257 237.533856 
L 215.921749 245.942975 
L 223.613241 250.547931 
L 231.304733 254.491745 
L 238.996225 257.881224 
L 246.687718 260.808864 
L 254.37921 263.352657 
L 262.070702 265.577133 
L 269.762194 268.427723 
L 277.453686 270.063396 
L 285.145178 271.524742 
L 292.836671 272.837119 
L 300.528163 274.021255 
L 308.219655 275.09421 
L 315.911147 276.070145 
L 323.602639 277.377551 
L 331.294132 278.158848 
L 338.985624 278.877271 
L 346.677116 279.539575 
L 354.368608 280.151605 
L 362.0601 280.718437 
" clip-path="url(#p82d2240550)" style="fill: none; stroke: #1f77b4; stroke-width: 3; stroke-linecap: square"/>
   </g>
   <g id="patch_3">
    <path d="M 55.169563 293.238437 
L 55.169563 17.798437 
" style="fill: none; stroke: #000000; stroke-width: 0.8; stroke-linejoin: miter; stroke-linecap: square"/>
   </g>
   <g id="patch_4">
    <path d="M 376.673935 293.238437 
L 376.673935 17.798437 
" style="fill: none; stroke: #000000; stroke-width: 0.8; stroke-linejoin: miter; stroke-linecap: square"/>
   </g>
   <g id="patch_5">
    <path d="M 55.169563 293.238437 
L 376.673935 293.238437 
" style="fill: none; stroke: #000000; stroke-width: 0.8; stroke-linejoin: miter; stroke-linecap: square"/>
   </g>
   <g id="patch_6">
    <path d="M 55.169563 17.798437 
L 376.673935 17.798437 
" style="fill: none; stroke: #000000; stroke-width: 0.8; stroke-linejoin: miter; stroke-linecap: square"/>
   </g>
  </g>
  <g id="axes_2">
   <g id="PolyCollection_2">
    <defs>
     <path id="mc80a94f08f" d="M 69.783398 -53.978125 
L 69.783398 -53.978125 
L 77.47489 -54.582116 
L 85.166382 -55.422658 
L 92.857874 -56.523497 
L 100.549366 -57.915281 
L 108.240858 -60.632577 
L 115.932351 -62.930567 
L 123.623843 -65.677989 
L 131.315335 -68.92975 
L 139.006827 -72.739873 
L 146.698319 -77.156707 
L 154.389812 -82.217114 
L 162.081304 -91.049896 
L 169.772796 -97.750045 
L 177.464288 -105.049142 
L 185.15578 -112.872001 
L 192.847272 -121.119428 
L 200.538765 -129.67637 
L 208.230257 -138.42265 
L 215.921749 -151.652018 
L 223.613241 -160.410094 
L 231.304733 -169.041819 
L 238.996225 -177.508679 
L 246.687718 -185.79384 
L 254.37921 -193.897346 
L 262.070702 -201.830747 
L 269.762194 -213.45241 
L 277.453686 -221.045069 
L 285.145178 -228.537362 
L 292.836671 -235.947418 
L 300.528163 -243.290845 
L 308.219655 -250.580728 
L 315.911147 -257.82787 
L 323.602639 -268.637383 
L 331.294132 -275.81305 
L 338.985624 -282.970718 
L 346.677116 -290.114963 
L 354.368608 -297.24966 
L 362.0601 -304.378125 
L 362.0601 -304.378125 
L 362.0601 -304.378125 
L 354.368608 -297.24966 
L 346.677116 -290.114963 
L 338.985624 -282.970718 
L 331.294132 -275.81305 
L 323.602639 -268.637383 
L 315.911147 -257.82787 
L 308.219655 -250.580728 
L 300.528163 -243.290845 
L 292.836671 -235.947418 
L 285.145178 -228.537362 
L 277.453686 -221.045069 
L 269.762194 -213.45241 
L 262.070702 -201.830747 
L 254.37921 -193.897346 
L 246.687718 -185.79384 
L 238.996225 -177.508679 
L 231.304733 -169.041819 
L 223.613241 -160.410094 
L 215.921749 -151.652018 
L 208.230257 -138.42265 
L 200.538765 -129.67637 
L 192.847272 -121.119428 
L 185.15578 -112.872001 
L 177.464288 -105.049142 
L 169.772796 -97.750045 
L 162.081304 -91.049896 
L 154.389812 -82.217114 
L 146.698319 -77.156707 
L 139.006827 -72.739873 
L 131.315335 -68.92975 
L 123.623843 -65.677989 
L 115.932351 -62.930567 
L 108.240858 -60.632577 
L 100.549366 -57.915281 
L 92.857874 -56.523497 
L 85.166382 -55.422658 
L 77.47489 -54.582116 
L 69.783398 -53.978125 
z
" style="stroke: #d62728; stroke-opacity: 0.2"/>
    </defs>
    <g clip-path="url(#p82d2240550)">
     <use xlink:href="#mc80a94f08f" x="0" y="334.696562" style="fill: #d62728; fill-opacity: 0.2; stroke: #d62728; stroke-opacity: 0.2"/>
    </g>
   </g>
   <g id="matplotlib.axis_3">
    <g id="ytick_8">
     <g id="line2d_21">
      <defs>
       <path id="mda36c9b1e3" d="M 0 0 
L 3.5 0 
" style="stroke: #000000; stroke-width: 0.8"/>
      </defs>
      <g>
       <use xlink:href="#mda36c9b1e3" x="376.673935" y="281.284705" style="stroke: #000000; stroke-width: 0.8"/>
      </g>
     </g>
     <g id="text_17">
      <!-- $\mathdefault{0}$ -->
      <g transform="translate(383.673935 285.083924) scale(0.1 -0.1)">
       <use xlink:href="#DejaVuSans-30" transform="translate(0 0.78125)"/>
      </g>
     </g>
    </g>
    <g id="ytick_9">
     <g id="line2d_22">
      <g>
       <use xlink:href="#mda36c9b1e3" x="376.673935" y="247.526581" style="stroke: #000000; stroke-width: 0.8"/>
      </g>
     </g>
     <g id="text_18">
      <!-- $\mathdefault{500}$ -->
      <g transform="translate(383.673935 251.3258) scale(0.1 -0.1)">
       <use xlink:href="#DejaVuSans-35" transform="translate(0 0.78125)"/>
       <use xlink:href="#DejaVuSans-30" transform="translate(63.623047 0.78125)"/>
       <use xlink:href="#DejaVuSans-30" transform="translate(127.246094 0.78125)"/>
      </g>
     </g>
    </g>
    <g id="ytick_10">
     <g id="line2d_23">
      <g>
       <use xlink:href="#mda36c9b1e3" x="376.673935" y="213.768457" style="stroke: #000000; stroke-width: 0.8"/>
      </g>
     </g>
     <g id="text_19">
      <!-- $\mathdefault{1000}$ -->
      <g transform="translate(383.673935 217.567676) scale(0.1 -0.1)">
       <use xlink:href="#DejaVuSans-31" transform="translate(0 0.78125)"/>
       <use xlink:href="#DejaVuSans-30" transform="translate(63.623047 0.78125)"/>
       <use xlink:href="#DejaVuSans-30" transform="translate(127.246094 0.78125)"/>
       <use xlink:href="#DejaVuSans-30" transform="translate(190.869141 0.78125)"/>
      </g>
     </g>
    </g>
    <g id="ytick_11">
     <g id="line2d_24">
      <g>
       <use xlink:href="#mda36c9b1e3" x="376.673935" y="180.010334" style="stroke: #000000; stroke-width: 0.8"/>
      </g>
     </g>
     <g id="text_20">
      <!-- $\mathdefault{1500}$ -->
      <g transform="translate(383.673935 183.809552) scale(0.1 -0.1)">
       <use xlink:href="#DejaVuSans-31" transform="translate(0 0.78125)"/>
       <use xlink:href="#DejaVuSans-35" transform="translate(63.623047 0.78125)"/>
       <use xlink:href="#DejaVuSans-30" transform="translate(127.246094 0.78125)"/>
       <use xlink:href="#DejaVuSans-30" transform="translate(190.869141 0.78125)"/>
      </g>
     </g>
    </g>
    <g id="ytick_12">
     <g id="line2d_25">
      <g>
       <use xlink:href="#mda36c9b1e3" x="376.673935" y="146.25221" style="stroke: #000000; stroke-width: 0.8"/>
      </g>
     </g>
     <g id="text_21">
      <!-- $\mathdefault{2000}$ -->
      <g transform="translate(383.673935 150.051429) scale(0.1 -0.1)">
       <use xlink:href="#DejaVuSans-32" transform="translate(0 0.78125)"/>
       <use xlink:href="#DejaVuSans-30" transform="translate(63.623047 0.78125)"/>
       <use xlink:href="#DejaVuSans-30" transform="translate(127.246094 0.78125)"/>
       <use xlink:href="#DejaVuSans-30" transform="translate(190.869141 0.78125)"/>
      </g>
     </g>
    </g>
    <g id="ytick_13">
     <g id="line2d_26">
      <g>
       <use xlink:href="#mda36c9b1e3" x="376.673935" y="112.494086" style="stroke: #000000; stroke-width: 0.8"/>
      </g>
     </g>
     <g id="text_22">
      <!-- $\mathdefault{2500}$ -->
      <g transform="translate(383.673935 116.293305) scale(0.1 -0.1)">
       <use xlink:href="#DejaVuSans-32" transform="translate(0 0.78125)"/>
       <use xlink:href="#DejaVuSans-35" transform="translate(63.623047 0.78125)"/>
       <use xlink:href="#DejaVuSans-30" transform="translate(127.246094 0.78125)"/>
       <use xlink:href="#DejaVuSans-30" transform="translate(190.869141 0.78125)"/>
      </g>
     </g>
    </g>
    <g id="ytick_14">
     <g id="line2d_27">
      <g>
       <use xlink:href="#mda36c9b1e3" x="376.673935" y="78.735963" style="stroke: #000000; stroke-width: 0.8"/>
      </g>
     </g>
     <g id="text_23">
      <!-- $\mathdefault{3000}$ -->
      <g transform="translate(383.673935 82.535181) scale(0.1 -0.1)">
       <use xlink:href="#DejaVuSans-33" transform="translate(0 0.78125)"/>
       <use xlink:href="#DejaVuSans-30" transform="translate(63.623047 0.78125)"/>
       <use xlink:href="#DejaVuSans-30" transform="translate(127.246094 0.78125)"/>
       <use xlink:href="#DejaVuSans-30" transform="translate(190.869141 0.78125)"/>
      </g>
     </g>
    </g>
    <g id="ytick_15">
     <g id="line2d_28">
      <g>
       <use xlink:href="#mda36c9b1e3" x="376.673935" y="44.977839" style="stroke: #000000; stroke-width: 0.8"/>
      </g>
     </g>
     <g id="text_24">
      <!-- $\mathdefault{3500}$ -->
      <g transform="translate(383.673935 48.777058) scale(0.1 -0.1)">
       <use xlink:href="#DejaVuSans-33" transform="translate(0 0.78125)"/>
       <use xlink:href="#DejaVuSans-35" transform="translate(63.623047 0.78125)"/>
       <use xlink:href="#DejaVuSans-30" transform="translate(127.246094 0.78125)"/>
       <use xlink:href="#DejaVuSans-30" transform="translate(190.869141 0.78125)"/>
      </g>
     </g>
    </g>
    <g id="text_25">
     <!-- Relative Standard Deviation (%) of  -->
     <g style="fill: #d62728" transform="translate(423.811748 279.061875) rotate(-90) scale(0.14 -0.14)">
      <defs>
       <path id="DejaVuSans-76" d="M 191 3500 
L 800 3500 
L 1894 563 
L 2988 3500 
L 3597 3500 
L 2284 0 
L 1503 0 
L 191 3500 
z
" transform="scale(0.015625)"/>
       <path id="DejaVuSans-53" d="M 3425 4513 
L 3425 3897 
Q 3066 4069 2747 4153 
Q 2428 4238 2131 4238 
Q 1616 4238 1336 4038 
Q 1056 3838 1056 3469 
Q 1056 3159 1242 3001 
Q 1428 2844 1947 2747 
L 2328 2669 
Q 3034 2534 3370 2195 
Q 3706 1856 3706 1288 
Q 3706 609 3251 259 
Q 2797 -91 1919 -91 
Q 1588 -91 1214 -16 
Q 841 59 441 206 
L 441 856 
Q 825 641 1194 531 
Q 1563 422 1919 422 
Q 2459 422 2753 634 
Q 3047 847 3047 1241 
Q 3047 1584 2836 1778 
Q 2625 1972 2144 2069 
L 1759 2144 
Q 1053 2284 737 2584 
Q 422 2884 422 3419 
Q 422 4038 858 4394 
Q 1294 4750 2059 4750 
Q 2388 4750 2728 4690 
Q 3069 4631 3425 4513 
z
" transform="scale(0.015625)"/>
       <path id="DejaVuSans-44" d="M 1259 4147 
L 1259 519 
L 2022 519 
Q 2988 519 3436 956 
Q 3884 1394 3884 2338 
Q 3884 3275 3436 3711 
Q 2988 4147 2022 4147 
L 1259 4147 
z
M 628 4666 
L 1925 4666 
Q 3281 4666 3915 4102 
Q 4550 3538 4550 2338 
Q 4550 1131 3912 565 
Q 3275 0 1925 0 
L 628 0 
L 628 4666 
z
" transform="scale(0.015625)"/>
       <path id="DejaVuSans-25" d="M 4653 2053 
Q 4381 2053 4226 1822 
Q 4072 1591 4072 1178 
Q 4072 772 4226 539 
Q 4381 306 4653 306 
Q 4919 306 5073 539 
Q 5228 772 5228 1178 
Q 5228 1588 5073 1820 
Q 4919 2053 4653 2053 
z
M 4653 2450 
Q 5147 2450 5437 2106 
Q 5728 1763 5728 1178 
Q 5728 594 5436 251 
Q 5144 -91 4653 -91 
Q 4153 -91 3862 251 
Q 3572 594 3572 1178 
Q 3572 1766 3864 2108 
Q 4156 2450 4653 2450 
z
M 1428 4353 
Q 1159 4353 1004 4120 
Q 850 3888 850 3481 
Q 850 3069 1003 2837 
Q 1156 2606 1428 2606 
Q 1700 2606 1854 2837 
Q 2009 3069 2009 3481 
Q 2009 3884 1853 4118 
Q 1697 4353 1428 4353 
z
M 4250 4750 
L 4750 4750 
L 1831 -91 
L 1331 -91 
L 4250 4750 
z
M 1428 4750 
Q 1922 4750 2215 4408 
Q 2509 4066 2509 3481 
Q 2509 2891 2217 2550 
Q 1925 2209 1428 2209 
Q 931 2209 642 2551 
Q 353 2894 353 3481 
Q 353 4063 643 4406 
Q 934 4750 1428 4750 
z
" transform="scale(0.015625)"/>
       <path id="DejaVuSans-66" d="M 2375 4863 
L 2375 4384 
L 1825 4384 
Q 1516 4384 1395 4259 
Q 1275 4134 1275 3809 
L 1275 3500 
L 2222 3500 
L 2222 3053 
L 1275 3053 
L 1275 0 
L 697 0 
L 697 3053 
L 147 3053 
L 147 3500 
L 697 3500 
L 697 3744 
Q 697 4328 969 4595 
Q 1241 4863 1831 4863 
L 2375 4863 
z
" transform="scale(0.015625)"/>
      </defs>
      <use xlink:href="#DejaVuSans-52"/>
      <use xlink:href="#DejaVuSans-65" x="64.982422"/>
      <use xlink:href="#DejaVuSans-6c" x="126.505859"/>
      <use xlink:href="#DejaVuSans-61" x="154.289062"/>
      <use xlink:href="#DejaVuSans-74" x="215.568359"/>
      <use xlink:href="#DejaVuSans-69" x="254.777344"/>
      <use xlink:href="#DejaVuSans-76" x="282.560547"/>
      <use xlink:href="#DejaVuSans-65" x="341.740234"/>
      <use xlink:href="#DejaVuSans-20" x="403.263672"/>
      <use xlink:href="#DejaVuSans-53" x="435.050781"/>
      <use xlink:href="#DejaVuSans-74" x="498.527344"/>
      <use xlink:href="#DejaVuSans-61" x="537.736328"/>
      <use xlink:href="#DejaVuSans-6e" x="599.015625"/>
      <use xlink:href="#DejaVuSans-64" x="662.394531"/>
      <use xlink:href="#DejaVuSans-61" x="725.871094"/>
      <use xlink:href="#DejaVuSans-72" x="787.150391"/>
      <use xlink:href="#DejaVuSans-64" x="826.513672"/>
      <use xlink:href="#DejaVuSans-20" x="889.990234"/>
      <use xlink:href="#DejaVuSans-44" x="921.777344"/>
      <use xlink:href="#DejaVuSans-65" x="998.779297"/>
      <use xlink:href="#DejaVuSans-76" x="1060.302734"/>
      <use xlink:href="#DejaVuSans-69" x="1119.482422"/>
      <use xlink:href="#DejaVuSans-61" x="1147.265625"/>
      <use xlink:href="#DejaVuSans-74" x="1208.544922"/>
      <use xlink:href="#DejaVuSans-69" x="1247.753906"/>
      <use xlink:href="#DejaVuSans-6f" x="1275.537109"/>
      <use xlink:href="#DejaVuSans-6e" x="1336.71875"/>
      <use xlink:href="#DejaVuSans-20" x="1400.097656"/>
      <use xlink:href="#DejaVuSans-28" x="1431.884766"/>
      <use xlink:href="#DejaVuSans-25" x="1470.898438"/>
      <use xlink:href="#DejaVuSans-29" x="1565.917969"/>
      <use xlink:href="#DejaVuSans-20" x="1604.931641"/>
      <use xlink:href="#DejaVuSans-6f" x="1636.71875"/>
      <use xlink:href="#DejaVuSans-66" x="1697.900391"/>
      <use xlink:href="#DejaVuSans-20" x="1733.105469"/>
     </g>
     <!--  Biomass Production in One Hour -->
     <g style="fill: #d62728" transform="translate(439.488685 270.808437) rotate(-90) scale(0.14 -0.14)">
      <defs>
       <path id="DejaVuSans-4f" d="M 2522 4238 
Q 1834 4238 1429 3725 
Q 1025 3213 1025 2328 
Q 1025 1447 1429 934 
Q 1834 422 2522 422 
Q 3209 422 3611 934 
Q 4013 1447 4013 2328 
Q 4013 3213 3611 3725 
Q 3209 4238 2522 4238 
z
M 2522 4750 
Q 3503 4750 4090 4092 
Q 4678 3434 4678 2328 
Q 4678 1225 4090 567 
Q 3503 -91 2522 -91 
Q 1538 -91 948 565 
Q 359 1222 359 2328 
Q 359 3434 948 4092 
Q 1538 4750 2522 4750 
z
" transform="scale(0.015625)"/>
       <path id="DejaVuSans-48" d="M 628 4666 
L 1259 4666 
L 1259 2753 
L 3553 2753 
L 3553 4666 
L 4184 4666 
L 4184 0 
L 3553 0 
L 3553 2222 
L 1259 2222 
L 1259 0 
L 628 0 
L 628 4666 
z
" transform="scale(0.015625)"/>
      </defs>
      <use xlink:href="#DejaVuSans-20"/>
      <use xlink:href="#DejaVuSans-42" x="31.787109"/>
      <use xlink:href="#DejaVuSans-69" x="100.390625"/>
      <use xlink:href="#DejaVuSans-6f" x="128.173828"/>
      <use xlink:href="#DejaVuSans-6d" x="189.355469"/>
      <use xlink:href="#DejaVuSans-61" x="286.767578"/>
      <use xlink:href="#DejaVuSans-73" x="348.046875"/>
      <use xlink:href="#DejaVuSans-73" x="400.146484"/>
      <use xlink:href="#DejaVuSans-20" x="452.246094"/>
      <use xlink:href="#DejaVuSans-50" x="484.033203"/>
      <use xlink:href="#DejaVuSans-72" x="542.585938"/>
      <use xlink:href="#DejaVuSans-6f" x="581.449219"/>
      <use xlink:href="#DejaVuSans-64" x="642.630859"/>
      <use xlink:href="#DejaVuSans-75" x="706.107422"/>
      <use xlink:href="#DejaVuSans-63" x="769.486328"/>
      <use xlink:href="#DejaVuSans-74" x="824.466797"/>
      <use xlink:href="#DejaVuSans-69" x="863.675781"/>
      <use xlink:href="#DejaVuSans-6f" x="891.458984"/>
      <use xlink:href="#DejaVuSans-6e" x="952.640625"/>
      <use xlink:href="#DejaVuSans-20" x="1016.019531"/>
      <use xlink:href="#DejaVuSans-69" x="1047.806641"/>
      <use xlink:href="#DejaVuSans-6e" x="1075.589844"/>
      <use xlink:href="#DejaVuSans-20" x="1138.96875"/>
      <use xlink:href="#DejaVuSans-4f" x="1170.755859"/>
      <use xlink:href="#DejaVuSans-6e" x="1249.466797"/>
      <use xlink:href="#DejaVuSans-65" x="1312.845703"/>
      <use xlink:href="#DejaVuSans-20" x="1374.369141"/>
      <use xlink:href="#DejaVuSans-48" x="1406.15625"/>
      <use xlink:href="#DejaVuSans-6f" x="1481.351562"/>
      <use xlink:href="#DejaVuSans-75" x="1542.533203"/>
      <use xlink:href="#DejaVuSans-72" x="1605.912109"/>
     </g>
    </g>
   </g>
   <g id="line2d_29">
    <path d="M 69.783398 280.718437 
L 77.47489 280.114447 
L 85.166382 279.273905 
L 92.857874 278.173065 
L 100.549366 276.781282 
L 108.240858 274.063985 
L 115.932351 271.765996 
L 123.623843 269.018574 
L 131.315335 265.766813 
L 139.006827 261.95669 
L 146.698319 257.539855 
L 154.389812 252.479448 
L 162.081304 243.646667 
L 169.772796 236.946518 
L 177.464288 229.647421 
L 185.15578 221.824562 
L 192.847272 213.577134 
L 200.538765 205.020193 
L 208.230257 196.273913 
L 215.921749 183.044545 
L 223.613241 174.286469 
L 231.304733 165.654744 
L 238.996225 157.187883 
L 246.687718 148.902722 
L 254.37921 140.799217 
L 262.070702 132.865816 
L 269.762194 121.244153 
L 277.453686 113.651494 
L 285.145178 106.159201 
L 292.836671 98.749145 
L 300.528163 91.405718 
L 308.219655 84.115835 
L 315.911147 76.868693 
L 323.602639 66.05918 
L 331.294132 58.883512 
L 338.985624 51.725845 
L 346.677116 44.581599 
L 354.368608 37.446902 
L 362.0601 30.318437 
" clip-path="url(#p82d2240550)" style="fill: none; stroke: #d62728; stroke-width: 3; stroke-linecap: square"/>
   </g>
   <g id="patch_7">
    <path d="M 55.169563 293.238437 
L 55.169563 17.798437 
" style="fill: none; stroke: #000000; stroke-width: 0.8; stroke-linejoin: miter; stroke-linecap: square"/>
   </g>
   <g id="patch_8">
    <path d="M 376.673935 293.238437 
L 376.673935 17.798437 
" style="fill: none; stroke: #000000; stroke-width: 0.8; stroke-linejoin: miter; stroke-linecap: square"/>
   </g>
   <g id="patch_9">
    <path d="M 55.169563 293.238437 
L 376.673935 293.238437 
" style="fill: none; stroke: #000000; stroke-width: 0.8; stroke-linejoin: miter; stroke-linecap: square"/>
   </g>
   <g id="patch_10">
    <path d="M 55.169563 17.798437 
L 376.673935 17.798437 
" style="fill: none; stroke: #000000; stroke-width: 0.8; stroke-linejoin: miter; stroke-linecap: square"/>
   </g>
  </g>
 </g>
 <defs>
  <clipPath id="p82d2240550">
   <rect x="55.169563" y="17.798437" width="321.504373" height="275.44"/>
  </clipPath>
 </defs>
</svg>
