<?xml version="1.0" encoding="UTF-8" standalone="no"?>
<svg
   xmlns:dc="http://purl.org/dc/elements/1.1/"
   xmlns:cc="http://creativecommons.org/ns#"
   xmlns:rdf="http://www.w3.org/1999/02/22-rdf-syntax-ns#"
   xmlns:svg="http://www.w3.org/2000/svg"
   xmlns="http://www.w3.org/2000/svg"
   viewBox="0 0 600.60138 450.47833"
   height="450.47833"
   width="600.60138"
   xml:space="preserve"
   id="svg2"
   version="1.1"><metadata
     id="metadata8"><rdf:RDF><cc:Work
         rdf:about=""><dc:format>image/svg+xml</dc:format><dc:type
           rdf:resource="http://purl.org/dc/dcmitype/StillImage" /></cc:Work></rdf:RDF></metadata><defs
     id="defs6"><clipPath
       id="clipPath138"
       clipPathUnits="userSpaceOnUse"><path
         id="path136"
         d="M -1021,-463 H 1794 V 1233 H -1021 Z" /></clipPath><clipPath
       id="clipPath148"
       clipPathUnits="userSpaceOnUse"><path
         id="path146"
         d="M 67.421875,41.41875 H 376.50416 v 289.24 H 67.421875 Z" /></clipPath><clipPath
       id="clipPath230"
       clipPathUnits="userSpaceOnUse"><path
         id="path228"
         d="M -1021,-463 H 1794 V 1233 H -1021 Z" /></clipPath><clipPath
       id="clipPath240"
       clipPathUnits="userSpaceOnUse"><path
         id="path238"
         d="M 67.421875,41.41875 H 376.50416 v 289.24 H 67.421875 Z" /></clipPath></defs><g
     transform="matrix(1.3333333,0,0,-1.3333333,0,450.47833)"
     id="g10"><path
       id="path12"
       style="fill:#ffffff;fill-opacity:1;fill-rule:nonzero;stroke:none"
       d="M 0,0 H 450.45104 V 337.85875 H 0 Z" /><path
       id="path14"
       style="fill:#ffffff;fill-opacity:1;fill-rule:nonzero;stroke:none"
       d="M 67.421875,41.41875 H 376.50416 v 289.24 H 67.421875 Z" /><path
       id="path16"
       style="fill:#000000;fill-opacity:1;fill-rule:nonzero;stroke:#000000;stroke-width:0.80000001;stroke-linecap:butt;stroke-linejoin:round;stroke-miterlimit:10;stroke-dasharray:none;stroke-opacity:1"
       d="m 78.513345,41.41875 v -3.5" /><g
       transform="translate(75.013345,26.825)"
       id="g18"><text
         id="text22"
         style="font-variant:normal;font-weight:normal;font-size:10px;font-family:'DejaVu Sans';-inkscape-font-specification:DejaVuSans;writing-mode:lr-tb;fill:#000000;fill-opacity:1;fill-rule:nonzero;stroke:none"
         transform="matrix(1,0,0,-1,0,0.578125)"><tspan
           id="tspan20"
           y="0"
           x="0">0</tspan></text>
</g><path
       id="path24"
       style="fill:#000000;fill-opacity:1;fill-rule:nonzero;stroke:#000000;stroke-width:0.80000001;stroke-linecap:butt;stroke-linejoin:round;stroke-miterlimit:10;stroke-dasharray:none;stroke-opacity:1"
       d="m 137.66785,41.41875 v -3.5" /><g
       transform="translate(131.16785,26.825)"
       id="g26"><text
         id="text30"
         style="font-variant:normal;font-weight:normal;font-size:10px;font-family:'DejaVu Sans';-inkscape-font-specification:DejaVuSans;writing-mode:lr-tb;fill:#000000;fill-opacity:1;fill-rule:nonzero;stroke:none"
         transform="matrix(1,0,0,-1,0,0.578125)"><tspan
           id="tspan28"
           y="0"
           x="0 6.3623047">20</tspan></text>
</g><path
       id="path32"
       style="fill:#000000;fill-opacity:1;fill-rule:nonzero;stroke:#000000;stroke-width:0.80000001;stroke-linecap:butt;stroke-linejoin:round;stroke-miterlimit:10;stroke-dasharray:none;stroke-opacity:1"
       d="m 196.82235,41.41875 v -3.5" /><g
       transform="translate(190.32235,26.825)"
       id="g34"><text
         id="text38"
         style="font-variant:normal;font-weight:normal;font-size:10px;font-family:'DejaVu Sans';-inkscape-font-specification:DejaVuSans;writing-mode:lr-tb;fill:#000000;fill-opacity:1;fill-rule:nonzero;stroke:none"
         transform="matrix(1,0,0,-1,0,0.578125)"><tspan
           id="tspan36"
           y="0"
           x="0 6.3623047">40</tspan></text>
</g><path
       id="path40"
       style="fill:#000000;fill-opacity:1;fill-rule:nonzero;stroke:#000000;stroke-width:0.80000001;stroke-linecap:butt;stroke-linejoin:round;stroke-miterlimit:10;stroke-dasharray:none;stroke-opacity:1"
       d="m 255.97686,41.41875 v -3.5" /><g
       transform="translate(249.47686,26.825)"
       id="g42"><text
         id="text46"
         style="font-variant:normal;font-weight:normal;font-size:10px;font-family:'DejaVu Sans';-inkscape-font-specification:DejaVuSans;writing-mode:lr-tb;fill:#000000;fill-opacity:1;fill-rule:nonzero;stroke:none"
         transform="matrix(1,0,0,-1,0,0.578125)"><tspan
           id="tspan44"
           y="0"
           x="0 6.3623047">60</tspan></text>
</g><path
       id="path48"
       style="fill:#000000;fill-opacity:1;fill-rule:nonzero;stroke:#000000;stroke-width:0.80000001;stroke-linecap:butt;stroke-linejoin:round;stroke-miterlimit:10;stroke-dasharray:none;stroke-opacity:1"
       d="m 315.13136,41.41875 v -3.5" /><g
       transform="translate(308.63136,26.825)"
       id="g50"><text
         id="text54"
         style="font-variant:normal;font-weight:normal;font-size:10px;font-family:'DejaVu Sans';-inkscape-font-specification:DejaVuSans;writing-mode:lr-tb;fill:#000000;fill-opacity:1;fill-rule:nonzero;stroke:none"
         transform="matrix(1,0,0,-1,0,0.578125)"><tspan
           id="tspan52"
           y="0"
           x="0 6.3623047">80</tspan></text>
</g><path
       id="path56"
       style="fill:#000000;fill-opacity:1;fill-rule:nonzero;stroke:#000000;stroke-width:0.80000001;stroke-linecap:butt;stroke-linejoin:round;stroke-miterlimit:10;stroke-dasharray:none;stroke-opacity:1"
       d="m 374.28587,41.41875 v -3.5" /><g
       transform="translate(364.28587,26.825)"
       id="g58"><text
         id="text62"
         style="font-variant:normal;font-weight:normal;font-size:10px;font-family:'DejaVu Sans';-inkscape-font-specification:DejaVuSans;writing-mode:lr-tb;fill:#000000;fill-opacity:1;fill-rule:nonzero;stroke:none"
         transform="matrix(1,0,0,-1,0,0.578125)"><tspan
           id="tspan60"
           y="0"
           x="0 6.3623047 12.724609">100</tspan></text>
</g><g
       transform="translate(192.67396,10.10625)"
       id="g64"><text
         id="text68"
         style="font-variant:normal;font-weight:normal;font-size:14px;font-family:'DejaVu Sans';-inkscape-font-specification:DejaVuSans;writing-mode:lr-tb;fill:#000000;fill-opacity:1;fill-rule:nonzero;stroke:none"
         transform="scale(1,-1)"><tspan
           id="tspan66"
           y="0"
           x="0 8.1321249 12.024125 25.660126 34.270126 38.722126 44.182125 53.058125">Time (h)</tspan></text>
</g><path
       id="path70"
       style="fill:#000000;fill-opacity:1;fill-rule:nonzero;stroke:#000000;stroke-width:0.80000001;stroke-linecap:butt;stroke-linejoin:round;stroke-miterlimit:10;stroke-dasharray:none;stroke-opacity:1"
       d="m 67.421875,83.626957 h -3.5" /><g
       transform="translate(40.421875,79.830082)"
       id="g72"><text
         id="text76"
         style="font-variant:normal;font-weight:normal;font-size:10px;font-family:'DejaVu Sans';-inkscape-font-specification:DejaVuSans;writing-mode:lr-tb;fill:#000000;fill-opacity:1;fill-rule:nonzero;stroke:none"
         transform="matrix(1,0,0,-1,0,0.578125)"><tspan
           id="tspan74"
           y="0"
           x="0 6.3623047 12.724609">100</tspan></text>
</g><path
       id="path78"
       style="fill:#000000;fill-opacity:1;fill-rule:nonzero;stroke:#000000;stroke-width:0.80000001;stroke-linecap:butt;stroke-linejoin:round;stroke-miterlimit:10;stroke-dasharray:none;stroke-opacity:1"
       d="m 67.421875,133.3771 h -3.5" /><g
       transform="translate(40.421875,129.58023)"
       id="g80"><text
         id="text84"
         style="font-variant:normal;font-weight:normal;font-size:10px;font-family:'DejaVu Sans';-inkscape-font-specification:DejaVuSans;writing-mode:lr-tb;fill:#000000;fill-opacity:1;fill-rule:nonzero;stroke:none"
         transform="matrix(1,0,0,-1,0,0.578125)"><tspan
           id="tspan82"
           y="0"
           x="0 6.3623047 12.724609">150</tspan></text>
</g><path
       id="path86"
       style="fill:#000000;fill-opacity:1;fill-rule:nonzero;stroke:#000000;stroke-width:0.80000001;stroke-linecap:butt;stroke-linejoin:round;stroke-miterlimit:10;stroke-dasharray:none;stroke-opacity:1"
       d="m 67.421875,183.12724 h -3.5" /><g
       transform="translate(40.421875,179.33037)"
       id="g88"><text
         id="text92"
         style="font-variant:normal;font-weight:normal;font-size:10px;font-family:'DejaVu Sans';-inkscape-font-specification:DejaVuSans;writing-mode:lr-tb;fill:#000000;fill-opacity:1;fill-rule:nonzero;stroke:none"
         transform="matrix(1,0,0,-1,0,0.578125)"><tspan
           id="tspan90"
           y="0"
           x="0 6.3623047 12.724609">200</tspan></text>
</g><path
       id="path94"
       style="fill:#000000;fill-opacity:1;fill-rule:nonzero;stroke:#000000;stroke-width:0.80000001;stroke-linecap:butt;stroke-linejoin:round;stroke-miterlimit:10;stroke-dasharray:none;stroke-opacity:1"
       d="m 67.421875,232.87739 h -3.5" /><g
       transform="translate(40.421875,229.08051)"
       id="g96"><text
         id="text100"
         style="font-variant:normal;font-weight:normal;font-size:10px;font-family:'DejaVu Sans';-inkscape-font-specification:DejaVuSans;writing-mode:lr-tb;fill:#000000;fill-opacity:1;fill-rule:nonzero;stroke:none"
         transform="matrix(1,0,0,-1,0,0.578125)"><tspan
           id="tspan98"
           y="0"
           x="0 6.3623047 12.724609">250</tspan></text>
</g><path
       id="path102"
       style="fill:#000000;fill-opacity:1;fill-rule:nonzero;stroke:#000000;stroke-width:0.80000001;stroke-linecap:butt;stroke-linejoin:round;stroke-miterlimit:10;stroke-dasharray:none;stroke-opacity:1"
       d="m 67.421875,282.62753 h -3.5" /><g
       transform="translate(40.421875,278.83066)"
       id="g104"><text
         id="text108"
         style="font-variant:normal;font-weight:normal;font-size:10px;font-family:'DejaVu Sans';-inkscape-font-specification:DejaVuSans;writing-mode:lr-tb;fill:#000000;fill-opacity:1;fill-rule:nonzero;stroke:none"
         transform="matrix(1,0,0,-1,0,0.578125)"><tspan
           id="tspan106"
           y="0"
           x="0 6.3623047 12.724609">300</tspan></text>
</g><g
       transform="rotate(90,-29.4975,47.338125)"
       id="g110"><text
         id="text114"
         style="font-variant:normal;font-weight:normal;font-size:14px;font-family:'DejaVu Sans';-inkscape-font-specification:DejaVuSans;writing-mode:lr-tb;fill:#0000ff;fill-opacity:1;fill-rule:nonzero;stroke:none"
         transform="scale(1,-1)"><tspan
           id="tspan112"
           y="0"
           x="0 9.1049995 17.715 21.607 30.188999 35.676998 39.569 47.856998 56.466999 60.918999 69.808998 75.296997 83.878998 92.754997 101.645 110.227 115.74663 124.63663 129.08862 139.86862 148.47862 156.76663 160.65863 169.24063 174.72862 178.62062 187.18863 196.06462 200.51663 209.08463 214.01262">Relative Standard Deviation of </tspan></text>
</g><g
       transform="rotate(90,-21.511562,55.027187)"
       id="g116"><text
         id="text120"
         style="font-variant:normal;font-weight:normal;font-size:14px;font-family:'DejaVu Sans';-inkscape-font-specification:DejaVuSans;writing-mode:lr-tb;fill:#0000ff;fill-opacity:1;fill-rule:nonzero;stroke:none"
         transform="matrix(1,0,0,-1,4.4501953,0.359375)"><tspan
           id="tspan118"
           y="0"
           x="0 9.6044922 13.494141 22.05957 35.697266 44.276367 51.570312 58.864258 63.314453 71.756836 77.512695 86.078125 94.964844 103.83789 111.53516 117.02441 120.91406 129.47949 138.35254 142.80273 146.69238 155.56543">Biomass Production in </tspan></text>
<text
         id="text124"
         style="font-style:italic;font-variant:normal;font-size:14px;font-family:'DejaVu Sans';-inkscape-font-specification:DejaVuSans-Oblique;writing-mode:lr-tb;fill:#0000ff;fill-opacity:1;fill-rule:nonzero;stroke:none"
         transform="matrix(1,0,0,-1,174.04297,0.359375)"><tspan
           id="tspan122"
           y="0"
           x="0">t</tspan></text>
<text
         id="text128"
         style="font-variant:normal;font-weight:normal;font-size:14px;font-family:'DejaVu Sans';-inkscape-font-specification:DejaVuSans;writing-mode:lr-tb;fill:#0000ff;fill-opacity:1;fill-rule:nonzero;stroke:none"
         transform="matrix(1,0,0,-1,183.98242,0.359375)"><tspan
           id="tspan126"
           y="0"
           x="0 8.5517578 12.441406 26.079102">Time</tspan></text>
<g
         transform="matrix(0.014,0,0,0.014,164.46582,0.359375)"
         id="g130"><g
           id="g132"><g
             clip-path="url(#clipPath138)"
             id="g134"><path
               id="path140"
               style="fill:#0000ff;fill-opacity:1;fill-rule:nonzero;stroke:none"
               d="M 342,632 142,82 H 542 Z M 8,0 286,729 H 398 L 676,0 Z" /></g></g></g></g><g
       id="g142"><g
         clip-path="url(#clipPath148)"
         id="g144"><path
           id="path150"
           style="fill:none;stroke:#0000ff;stroke-width:3;stroke-linecap:square;stroke-linejoin:round;stroke-miterlimit:10;stroke-dasharray:none;stroke-opacity:0.9"
           d="m 81.47107,101.40196 2.957725,-46.835937 2.957725,54.441707 2.957726,-34.213125 2.957725,34.245445 2.957725,-36.190033 2.957725,33.269243 2.957729,-0.70131 2.95772,11.50478 2.95773,-26.983851 2.95772,-6.702715 2.95773,14.9944 2.95772,-23.961594 2.95773,114.64042 2.95772,-91.58705 2.95773,17.09986 2.95772,14.98902 2.95773,-36.819657 2.95772,-36.917544 2.95773,44.766011 2.95772,47.86803 2.95773,-38.89438 2.95772,7.34401 2.95773,39.20786 2.95773,-4.35952 2.95772,-50.65742 2.95773,66.2047 2.95772,34.32371 2.95773,-37.78779 2.95772,-33.1949 2.95773,7.01683 2.95772,9.98453 2.95773,-29.79316 2.95772,37.4516 2.95773,14.23782 2.95772,-24.72038 2.95773,14.89152 2.95772,-28.04782 2.95773,41.30309 2.95772,9.27246 2.95773,-46.52949 2.95772,-29.2994 2.95773,65.66676 2.95772,-26.59896 2.95773,-64.082224 2.95773,120.183314 2.95772,-97.00625 2.95773,30.9604 2.95772,-29.00504 2.95773,120.50868 2.95772,34.86432 2.95773,-19.48852 2.95772,-94.79861 2.95773,60.06049 2.95772,16.4366 2.95773,-69.24113 2.95772,-4.68779 2.95773,65.39866 2.95772,-51.61129 2.95773,-28.72166 2.95772,84.09856 2.95773,-54.61596 2.95772,-11.13113 2.95773,31.3326 2.95773,-3.29793 2.95772,44.08786 2.95773,32.9652 2.95772,12.51898 2.95773,-110.86789 2.95772,-14.52157 2.95773,133.22801 2.95772,-31.39683 2.95773,11.06738 2.95772,15.17085 2.95773,-27.32726 2.95772,-65.45524 2.95773,104.67936 2.95772,-82.14854 2.95773,-49.75253 2.95772,87.74403 2.95773,-6.71892 2.95772,-4.59745 2.95773,-26.02238 2.95772,54.03781 2.95773,59.33479 2.95773,-100.65143 2.95772,-11.4761 2.95773,9.32177 2.95772,-41.75495 2.95773,60.33086 2.95772,43.13674 2.95773,-63.69953 2.95772,45.87942 2.95773,-108.32736 2.95772,132.92648 2.95773,-14.56485" /></g></g><g
       id="g152"><path
         id="path154"
         style="fill:none;stroke:#000000;stroke-width:0.80000001;stroke-linecap:square;stroke-linejoin:miter;stroke-miterlimit:10;stroke-dasharray:none;stroke-opacity:1"
         d="m 67.421875,41.41875 v 289.24" /><path
         id="path156"
         style="fill:none;stroke:#000000;stroke-width:0.80000001;stroke-linecap:square;stroke-linejoin:miter;stroke-miterlimit:10;stroke-dasharray:none;stroke-opacity:1"
         d="m 376.50416,41.41875 v 289.24" /><path
         id="path158"
         style="fill:none;stroke:#000000;stroke-width:0.80000001;stroke-linecap:square;stroke-linejoin:miter;stroke-miterlimit:10;stroke-dasharray:none;stroke-opacity:1"
         d="M 67.421875,41.41875 H 376.50416" /><path
         id="path160"
         style="fill:none;stroke:#000000;stroke-width:0.80000001;stroke-linecap:square;stroke-linejoin:miter;stroke-miterlimit:10;stroke-dasharray:none;stroke-opacity:1"
         d="M 67.421875,330.65875 H 376.50416" /><path
         id="path162"
         style="fill:#000000;fill-opacity:1;fill-rule:nonzero;stroke:#000000;stroke-width:0.80000001;stroke-linecap:butt;stroke-linejoin:round;stroke-miterlimit:10;stroke-dasharray:none;stroke-opacity:1"
         d="m 376.50416,66.860707 h 3.5" /><g
         transform="translate(383.50416,63.063832)"
         id="g164"><text
           id="text168"
           style="font-variant:normal;font-weight:normal;font-size:10px;font-family:'DejaVu Sans';-inkscape-font-specification:DejaVuSans;writing-mode:lr-tb;fill:#000000;fill-opacity:1;fill-rule:nonzero;stroke:none"
           transform="matrix(1,0,0,-1,0,0.578125)"><tspan
             id="tspan166"
             y="0"
             x="0 6.3623047 12.724609 19.086914">3000</tspan></text>
</g><path
         id="path170"
         style="fill:#000000;fill-opacity:1;fill-rule:nonzero;stroke:#000000;stroke-width:0.80000001;stroke-linecap:butt;stroke-linejoin:round;stroke-miterlimit:10;stroke-dasharray:none;stroke-opacity:1"
         d="m 376.50416,122.78381 h 3.5" /><g
         transform="translate(383.50416,118.98694)"
         id="g172"><text
           id="text176"
           style="font-variant:normal;font-weight:normal;font-size:10px;font-family:'DejaVu Sans';-inkscape-font-specification:DejaVuSans;writing-mode:lr-tb;fill:#000000;fill-opacity:1;fill-rule:nonzero;stroke:none"
           transform="matrix(1,0,0,-1,0,0.578125)"><tspan
             id="tspan174"
             y="0"
             x="0 6.3623047 12.724609 19.086914">4000</tspan></text>
</g><path
         id="path178"
         style="fill:#000000;fill-opacity:1;fill-rule:nonzero;stroke:#000000;stroke-width:0.80000001;stroke-linecap:butt;stroke-linejoin:round;stroke-miterlimit:10;stroke-dasharray:none;stroke-opacity:1"
         d="m 376.50416,178.70692 h 3.5" /><g
         transform="translate(383.50416,174.91004)"
         id="g180"><text
           id="text184"
           style="font-variant:normal;font-weight:normal;font-size:10px;font-family:'DejaVu Sans';-inkscape-font-specification:DejaVuSans;writing-mode:lr-tb;fill:#000000;fill-opacity:1;fill-rule:nonzero;stroke:none"
           transform="matrix(1,0,0,-1,0,0.578125)"><tspan
             id="tspan182"
             y="0"
             x="0 6.3623047 12.724609 19.086914">5000</tspan></text>
</g><path
         id="path186"
         style="fill:#000000;fill-opacity:1;fill-rule:nonzero;stroke:#000000;stroke-width:0.80000001;stroke-linecap:butt;stroke-linejoin:round;stroke-miterlimit:10;stroke-dasharray:none;stroke-opacity:1"
         d="m 376.50416,234.63002 h 3.5" /><g
         transform="translate(383.50416,230.83315)"
         id="g188"><text
           id="text192"
           style="font-variant:normal;font-weight:normal;font-size:10px;font-family:'DejaVu Sans';-inkscape-font-specification:DejaVuSans;writing-mode:lr-tb;fill:#000000;fill-opacity:1;fill-rule:nonzero;stroke:none"
           transform="matrix(1,0,0,-1,0,0.578125)"><tspan
             id="tspan190"
             y="0"
             x="0 6.3623047 12.724609 19.086914">6000</tspan></text>
</g><path
         id="path194"
         style="fill:#000000;fill-opacity:1;fill-rule:nonzero;stroke:#000000;stroke-width:0.80000001;stroke-linecap:butt;stroke-linejoin:round;stroke-miterlimit:10;stroke-dasharray:none;stroke-opacity:1"
         d="m 376.50416,290.55313 h 3.5" /><g
         transform="translate(383.50416,286.75625)"
         id="g196"><text
           id="text200"
           style="font-variant:normal;font-weight:normal;font-size:10px;font-family:'DejaVu Sans';-inkscape-font-specification:DejaVuSans;writing-mode:lr-tb;fill:#000000;fill-opacity:1;fill-rule:nonzero;stroke:none"
           transform="matrix(1,0,0,-1,0,0.578125)"><tspan
             id="tspan198"
             y="0"
             x="0 6.3623047 12.724609 19.086914">7000</tspan></text>
</g><g
         transform="rotate(90,182.93974,241.20505)"
         id="g202"><text
           id="text206"
           style="font-variant:normal;font-weight:normal;font-size:14px;font-family:'DejaVu Sans';-inkscape-font-specification:DejaVuSans;writing-mode:lr-tb;fill:#ff0000;fill-opacity:1;fill-rule:nonzero;stroke:none"
           transform="scale(1,-1)"><tspan
             id="tspan204"
             y="0"
             x="0 6.1789999 14.747 20.235001 28.816999 32.709 37.160999 46.265999 54.875999 58.768002 67.349998 72.837997 76.730003 85.017998 93.627998 98.080002 106.97 112.458 121.04 129.916 138.806 147.388 152.90762 161.79762 166.24962 177.02963 185.63962 193.92763 197.81963 206.40163 211.88962 215.78163 224.34962 233.22563 237.67763 246.24562 251.17363">Total Relative Standard Deviation of </tspan></text>
</g><g
         transform="rotate(90,180.35614,259.89489)"
         id="g208"><text
           id="text212"
           style="font-variant:normal;font-weight:normal;font-size:14px;font-family:'DejaVu Sans';-inkscape-font-specification:DejaVuSans;writing-mode:lr-tb;fill:#ff0000;fill-opacity:1;fill-rule:nonzero;stroke:none"
           transform="matrix(1,0,0,-1,4.4501953,0.359375)"><tspan
             id="tspan210"
             y="0"
             x="0 12.079102 20.692383 26.181641 34.760742 43.647461 52.212891 56.102539 59.992188 65.481445 74.094727 78.544922 88.320312 97.193359 105.77246 114.64551 123.53223 132.14551 136.5957 140.48535 149.3584">Metabolite Change in </tspan></text>
<text
           id="text216"
           style="font-style:italic;font-variant:normal;font-size:14px;font-family:'DejaVu Sans';-inkscape-font-specification:DejaVuSans-Oblique;writing-mode:lr-tb;fill:#ff0000;fill-opacity:1;fill-rule:nonzero;stroke:none"
           transform="matrix(1,0,0,-1,167.83594,0.359375)"><tspan
             id="tspan214"
             y="0"
             x="0">t</tspan></text>
<text
           id="text220"
           style="font-variant:normal;font-weight:normal;font-size:14px;font-family:'DejaVu Sans';-inkscape-font-specification:DejaVuSans;writing-mode:lr-tb;fill:#ff0000;fill-opacity:1;fill-rule:nonzero;stroke:none"
           transform="matrix(1,0,0,-1,177.77539,0.359375)"><tspan
             id="tspan218"
             y="0"
             x="0 8.5517578 12.441406 26.079102">Time</tspan></text>
<g
           transform="matrix(0.014,0,0,0.014,158.25879,0.359375)"
           id="g222"><g
             id="g224"><g
               clip-path="url(#clipPath230)"
               id="g226"><path
                 id="path232"
                 style="fill:#ff0000;fill-opacity:1;fill-rule:nonzero;stroke:none"
                 d="M 342,632 142,82 H 542 Z M 8,0 286,729 H 398 L 676,0 Z" /></g></g></g></g></g><g
       id="g234"><g
         clip-path="url(#clipPath240)"
         id="g236"><path
           id="path242"
           style="fill:none;stroke:#ff0000;stroke-width:3;stroke-linecap:square;stroke-linejoin:round;stroke-miterlimit:10;stroke-dasharray:none;stroke-opacity:0.9"
           d="m 81.47107,70.485924 2.957725,-15.919901 2.957725,13.894108 2.957726,12.120355 2.957725,-9.701343 2.957725,31.655807 2.957725,-29.029343 2.957729,19.966874 2.95772,-6.416089 2.95773,6.622962 2.95772,-3.569066 2.95773,37.723242 2.95772,-27.11372 2.95773,-20.565003 2.95772,7.755808 2.95773,26.994195 2.95772,19.81419 2.95773,-31.43232 2.95772,16.67072 2.95773,27.63601 2.95772,-9.78321 2.95773,-35.79214 2.95772,0.82126 2.95773,31.31466 2.95773,23.64811 2.95772,-51.51166 2.95773,30.63944 2.95772,11.30727 2.95773,4.20442 2.95772,-16.71351 2.95773,16.74716 2.95772,-11.88771 2.95773,8.76318 2.95772,-12.22581 2.95773,11.10713 2.95772,2.66687 2.95773,4.80085 2.95772,12.34302 2.95773,-12.15987 2.95772,13.57769 2.95773,-33.66201 2.95772,23.68716 2.95773,18.11472 2.95772,-9.61605 2.95773,52.38192 2.95773,-18.02458 2.95772,2.4165 2.95773,-19.07076 2.95772,1.88017 2.95773,20.85222 2.95772,2.74718 2.95773,12.70304 2.95772,-7.9904 2.95773,-9.94765 2.95772,-20.71592 2.95773,57.48562 2.95772,-26.99539 2.95773,16.7942 2.95772,2.32333 2.95773,8.48761 2.95772,-23.98113 2.95773,-28.63921 2.95772,36.52809 2.95773,1.68038 2.95773,-6.46015 2.95772,20.59508 2.95773,-9.15629 2.95772,2.31314 2.95773,21.4222 2.95772,-58.00055 2.95773,40.70777 2.95772,40.96311 2.95773,-52.23696 2.95772,44.19745 2.95773,-68.60808 2.95772,25.42887 2.95773,36.15451 2.95772,-49.5929 2.95773,12.42654 2.95772,21.15216 2.95773,24.11347 2.95772,-34.67976 2.95773,12.36115 2.95772,3.98136 2.95773,21.42727 2.95773,40.10249 2.95772,-88.50863 2.95773,12.34076 2.95772,-4.87668 2.95773,-18.19965 2.95772,28.73142 2.95773,-38.10105 2.95772,31.68037 2.95773,-41.11383 2.95772,36.68542 2.95773,11.92292" /></g></g><g
       id="g244"><path
         id="path246"
         style="fill:none;stroke:#000000;stroke-width:0.80000001;stroke-linecap:square;stroke-linejoin:miter;stroke-miterlimit:10;stroke-dasharray:none;stroke-opacity:1"
         d="m 67.421875,41.41875 v 289.24" /><path
         id="path248"
         style="fill:none;stroke:#000000;stroke-width:0.80000001;stroke-linecap:square;stroke-linejoin:miter;stroke-miterlimit:10;stroke-dasharray:none;stroke-opacity:1"
         d="m 376.50416,41.41875 v 289.24" /><path
         id="path250"
         style="fill:none;stroke:#000000;stroke-width:0.80000001;stroke-linecap:square;stroke-linejoin:miter;stroke-miterlimit:10;stroke-dasharray:none;stroke-opacity:1"
         d="M 67.421875,41.41875 H 376.50416" /><path
         id="path252"
         style="fill:none;stroke:#000000;stroke-width:0.80000001;stroke-linecap:square;stroke-linejoin:miter;stroke-miterlimit:10;stroke-dasharray:none;stroke-opacity:1"
         d="M 67.421875,330.65875 H 376.50416" /></g></g></svg>