<?xml version="1.0" encoding="utf-8" standalone="no"?>
<!DOCTYPE svg PUBLIC "-//W3C//DTD SVG 1.1//EN"
  "http://www.w3.org/Graphics/SVG/1.1/DTD/svg11.dtd">
<svg xmlns:xlink="http://www.w3.org/1999/xlink" width="709.2pt" height="577.14pt" viewBox="0 0 709.2 577.14" xmlns="http://www.w3.org/2000/svg" version="1.1">
 <metadata>
  <rdf:RDF xmlns:dc="http://purl.org/dc/elements/1.1/" xmlns:cc="http://creativecommons.org/ns#" xmlns:rdf="http://www.w3.org/1999/02/22-rdf-syntax-ns#">
   <cc:Work>
    <dc:type rdf:resource="http://purl.org/dc/dcmitype/StillImage"/>
    <dc:date>2023-03-10T17:48:09.938299</dc:date>
    <dc:format>image/svg+xml</dc:format>
    <dc:creator>
     <cc:Agent>
      <dc:title>Matplotlib v3.6.2, https://matplotlib.org/</dc:title>
     </cc:Agent>
    </dc:creator>
   </cc:Work>
  </rdf:RDF>
 </metadata>
 <defs>
  <style type="text/css">*{stroke-linejoin: round; stroke-linecap: butt}</style>
 </defs>
 <g id="figure_1">
  <g id="patch_1">
   <path d="M 0 577.14 
L 709.2 577.14 
L 709.2 0 
L 0 0 
z
" style="fill: #ffffff"/>
  </g>
  <g id="axes_1">
   <g id="patch_2">
    <path d="M 57.41 188.2 
L 243.78 188.2 
L 243.78 61.14 
L 57.41 61.14 
z
" style="fill: #ffffff"/>
   </g>
   <g id="matplotlib.axis_1">
    <g id="xtick_1">
     <g id="line2d_1">
      <path d="M 65.881364 188.2 
L 65.881364 61.14 
" clip-path="url(#p2c64e2187d)" style="fill: none; stroke: #b0b0b0; stroke-width: 0.8; stroke-linecap: square"/>
     </g>
     <g id="line2d_2"/>
     <g id="text_1">
      <!-- 0 -->
      <g transform="translate(62.700114 199.298438) scale(0.1 -0.1)">
       <defs>
        <path id="DejaVuSans-30" d="M 2034 4250 
Q 1547 4250 1301 3770 
Q 1056 3291 1056 2328 
Q 1056 1369 1301 889 
Q 1547 409 2034 409 
Q 2525 409 2770 889 
Q 3016 1369 3016 2328 
Q 3016 3291 2770 3770 
Q 2525 4250 2034 4250 
z
M 2034 4750 
Q 2819 4750 3233 4129 
Q 3647 3509 3647 2328 
Q 3647 1150 3233 529 
Q 2819 -91 2034 -91 
Q 1250 -91 836 529 
Q 422 1150 422 2328 
Q 422 3509 836 4129 
Q 1250 4750 2034 4750 
z
" transform="scale(0.015625)"/>
       </defs>
       <use xlink:href="#DejaVuSans-30"/>
      </g>
     </g>
    </g>
    <g id="xtick_2">
     <g id="line2d_3">
      <path d="M 108.238182 188.2 
L 108.238182 61.14 
" clip-path="url(#p2c64e2187d)" style="fill: none; stroke: #b0b0b0; stroke-width: 0.8; stroke-linecap: square"/>
     </g>
     <g id="line2d_4"/>
     <g id="text_2">
      <!-- 12 -->
      <g transform="translate(101.875682 199.298438) scale(0.1 -0.1)">
       <defs>
        <path id="DejaVuSans-31" d="M 794 531 
L 1825 531 
L 1825 4091 
L 703 3866 
L 703 4441 
L 1819 4666 
L 2450 4666 
L 2450 531 
L 3481 531 
L 3481 0 
L 794 0 
L 794 531 
z
" transform="scale(0.015625)"/>
        <path id="DejaVuSans-32" d="M 1228 531 
L 3431 531 
L 3431 0 
L 469 0 
L 469 531 
Q 828 903 1448 1529 
Q 2069 2156 2228 2338 
Q 2531 2678 2651 2914 
Q 2772 3150 2772 3378 
Q 2772 3750 2511 3984 
Q 2250 4219 1831 4219 
Q 1534 4219 1204 4116 
Q 875 4013 500 3803 
L 500 4441 
Q 881 4594 1212 4672 
Q 1544 4750 1819 4750 
Q 2544 4750 2975 4387 
Q 3406 4025 3406 3419 
Q 3406 3131 3298 2873 
Q 3191 2616 2906 2266 
Q 2828 2175 2409 1742 
Q 1991 1309 1228 531 
z
" transform="scale(0.015625)"/>
       </defs>
       <use xlink:href="#DejaVuSans-31"/>
       <use xlink:href="#DejaVuSans-32" x="63.623047"/>
      </g>
     </g>
    </g>
    <g id="xtick_3">
     <g id="line2d_5">
      <path d="M 150.595 188.2 
L 150.595 61.14 
" clip-path="url(#p2c64e2187d)" style="fill: none; stroke: #b0b0b0; stroke-width: 0.8; stroke-linecap: square"/>
     </g>
     <g id="line2d_6"/>
     <g id="text_3">
      <!-- 24 -->
      <g transform="translate(144.2325 199.298438) scale(0.1 -0.1)">
       <defs>
        <path id="DejaVuSans-34" d="M 2419 4116 
L 825 1625 
L 2419 1625 
L 2419 4116 
z
M 2253 4666 
L 3047 4666 
L 3047 1625 
L 3713 1625 
L 3713 1100 
L 3047 1100 
L 3047 0 
L 2419 0 
L 2419 1100 
L 313 1100 
L 313 1709 
L 2253 4666 
z
" transform="scale(0.015625)"/>
       </defs>
       <use xlink:href="#DejaVuSans-32"/>
       <use xlink:href="#DejaVuSans-34" x="63.623047"/>
      </g>
     </g>
    </g>
    <g id="xtick_4">
     <g id="line2d_7">
      <path d="M 192.951818 188.2 
L 192.951818 61.14 
" clip-path="url(#p2c64e2187d)" style="fill: none; stroke: #b0b0b0; stroke-width: 0.8; stroke-linecap: square"/>
     </g>
     <g id="line2d_8"/>
     <g id="text_4">
      <!-- 36 -->
      <g transform="translate(186.589318 199.298438) scale(0.1 -0.1)">
       <defs>
        <path id="DejaVuSans-33" d="M 2597 2516 
Q 3050 2419 3304 2112 
Q 3559 1806 3559 1356 
Q 3559 666 3084 287 
Q 2609 -91 1734 -91 
Q 1441 -91 1130 -33 
Q 819 25 488 141 
L 488 750 
Q 750 597 1062 519 
Q 1375 441 1716 441 
Q 2309 441 2620 675 
Q 2931 909 2931 1356 
Q 2931 1769 2642 2001 
Q 2353 2234 1838 2234 
L 1294 2234 
L 1294 2753 
L 1863 2753 
Q 2328 2753 2575 2939 
Q 2822 3125 2822 3475 
Q 2822 3834 2567 4026 
Q 2313 4219 1838 4219 
Q 1578 4219 1281 4162 
Q 984 4106 628 3988 
L 628 4550 
Q 988 4650 1302 4700 
Q 1616 4750 1894 4750 
Q 2613 4750 3031 4423 
Q 3450 4097 3450 3541 
Q 3450 3153 3228 2886 
Q 3006 2619 2597 2516 
z
" transform="scale(0.015625)"/>
        <path id="DejaVuSans-36" d="M 2113 2584 
Q 1688 2584 1439 2293 
Q 1191 2003 1191 1497 
Q 1191 994 1439 701 
Q 1688 409 2113 409 
Q 2538 409 2786 701 
Q 3034 994 3034 1497 
Q 3034 2003 2786 2293 
Q 2538 2584 2113 2584 
z
M 3366 4563 
L 3366 3988 
Q 3128 4100 2886 4159 
Q 2644 4219 2406 4219 
Q 1781 4219 1451 3797 
Q 1122 3375 1075 2522 
Q 1259 2794 1537 2939 
Q 1816 3084 2150 3084 
Q 2853 3084 3261 2657 
Q 3669 2231 3669 1497 
Q 3669 778 3244 343 
Q 2819 -91 2113 -91 
Q 1303 -91 875 529 
Q 447 1150 447 2328 
Q 447 3434 972 4092 
Q 1497 4750 2381 4750 
Q 2619 4750 2861 4703 
Q 3103 4656 3366 4563 
z
" transform="scale(0.015625)"/>
       </defs>
       <use xlink:href="#DejaVuSans-33"/>
       <use xlink:href="#DejaVuSans-36" x="63.623047"/>
      </g>
     </g>
    </g>
    <g id="xtick_5">
     <g id="line2d_9">
      <path d="M 235.308636 188.2 
L 235.308636 61.14 
" clip-path="url(#p2c64e2187d)" style="fill: none; stroke: #b0b0b0; stroke-width: 0.8; stroke-linecap: square"/>
     </g>
     <g id="line2d_10"/>
     <g id="text_5">
      <!-- 48 -->
      <g transform="translate(228.946136 199.298438) scale(0.1 -0.1)">
       <defs>
        <path id="DejaVuSans-38" d="M 2034 2216 
Q 1584 2216 1326 1975 
Q 1069 1734 1069 1313 
Q 1069 891 1326 650 
Q 1584 409 2034 409 
Q 2484 409 2743 651 
Q 3003 894 3003 1313 
Q 3003 1734 2745 1975 
Q 2488 2216 2034 2216 
z
M 1403 2484 
Q 997 2584 770 2862 
Q 544 3141 544 3541 
Q 544 4100 942 4425 
Q 1341 4750 2034 4750 
Q 2731 4750 3128 4425 
Q 3525 4100 3525 3541 
Q 3525 3141 3298 2862 
Q 3072 2584 2669 2484 
Q 3125 2378 3379 2068 
Q 3634 1759 3634 1313 
Q 3634 634 3220 271 
Q 2806 -91 2034 -91 
Q 1263 -91 848 271 
Q 434 634 434 1313 
Q 434 1759 690 2068 
Q 947 2378 1403 2484 
z
M 1172 3481 
Q 1172 3119 1398 2916 
Q 1625 2713 2034 2713 
Q 2441 2713 2670 2916 
Q 2900 3119 2900 3481 
Q 2900 3844 2670 4047 
Q 2441 4250 2034 4250 
Q 1625 4250 1398 4047 
Q 1172 3844 1172 3481 
z
" transform="scale(0.015625)"/>
       </defs>
       <use xlink:href="#DejaVuSans-34"/>
       <use xlink:href="#DejaVuSans-38" x="63.623047"/>
      </g>
     </g>
    </g>
   </g>
   <g id="matplotlib.axis_2">
    <g id="ytick_1">
     <g id="line2d_11">
      <path d="M 57.41 176.552323 
L 243.78 176.552323 
" clip-path="url(#p2c64e2187d)" style="fill: none; stroke: #b0b0b0; stroke-width: 0.8; stroke-linecap: square"/>
     </g>
     <g id="line2d_12"/>
     <g id="text_6">
      <!-- 0.04 -->
      <g transform="translate(31.644375 180.351542) scale(0.1 -0.1)">
       <defs>
        <path id="DejaVuSans-2e" d="M 684 794 
L 1344 794 
L 1344 0 
L 684 0 
L 684 794 
z
" transform="scale(0.015625)"/>
       </defs>
       <use xlink:href="#DejaVuSans-30"/>
       <use xlink:href="#DejaVuSans-2e" x="63.623047"/>
       <use xlink:href="#DejaVuSans-30" x="95.410156"/>
       <use xlink:href="#DejaVuSans-34" x="159.033203"/>
      </g>
     </g>
    </g>
    <g id="ytick_2">
     <g id="line2d_13">
      <path d="M 57.41 152.764285 
L 243.78 152.764285 
" clip-path="url(#p2c64e2187d)" style="fill: none; stroke: #b0b0b0; stroke-width: 0.8; stroke-linecap: square"/>
     </g>
     <g id="line2d_14"/>
     <g id="text_7">
      <!-- 0.06 -->
      <g transform="translate(31.644375 156.563504) scale(0.1 -0.1)">
       <use xlink:href="#DejaVuSans-30"/>
       <use xlink:href="#DejaVuSans-2e" x="63.623047"/>
       <use xlink:href="#DejaVuSans-30" x="95.410156"/>
       <use xlink:href="#DejaVuSans-36" x="159.033203"/>
      </g>
     </g>
    </g>
    <g id="ytick_3">
     <g id="line2d_15">
      <path d="M 57.41 128.976247 
L 243.78 128.976247 
" clip-path="url(#p2c64e2187d)" style="fill: none; stroke: #b0b0b0; stroke-width: 0.8; stroke-linecap: square"/>
     </g>
     <g id="line2d_16"/>
     <g id="text_8">
      <!-- 0.08 -->
      <g transform="translate(31.644375 132.775465) scale(0.1 -0.1)">
       <use xlink:href="#DejaVuSans-30"/>
       <use xlink:href="#DejaVuSans-2e" x="63.623047"/>
       <use xlink:href="#DejaVuSans-30" x="95.410156"/>
       <use xlink:href="#DejaVuSans-38" x="159.033203"/>
      </g>
     </g>
    </g>
    <g id="ytick_4">
     <g id="line2d_17">
      <path d="M 57.41 105.188208 
L 243.78 105.188208 
" clip-path="url(#p2c64e2187d)" style="fill: none; stroke: #b0b0b0; stroke-width: 0.8; stroke-linecap: square"/>
     </g>
     <g id="line2d_18"/>
     <g id="text_9">
      <!-- 0.10 -->
      <g transform="translate(31.644375 108.987427) scale(0.1 -0.1)">
       <use xlink:href="#DejaVuSans-30"/>
       <use xlink:href="#DejaVuSans-2e" x="63.623047"/>
       <use xlink:href="#DejaVuSans-31" x="95.410156"/>
       <use xlink:href="#DejaVuSans-30" x="159.033203"/>
      </g>
     </g>
    </g>
    <g id="ytick_5">
     <g id="line2d_19">
      <path d="M 57.41 81.40017 
L 243.78 81.40017 
" clip-path="url(#p2c64e2187d)" style="fill: none; stroke: #b0b0b0; stroke-width: 0.8; stroke-linecap: square"/>
     </g>
     <g id="line2d_20"/>
     <g id="text_10">
      <!-- 0.12 -->
      <g transform="translate(31.644375 85.199388) scale(0.1 -0.1)">
       <use xlink:href="#DejaVuSans-30"/>
       <use xlink:href="#DejaVuSans-2e" x="63.623047"/>
       <use xlink:href="#DejaVuSans-31" x="95.410156"/>
       <use xlink:href="#DejaVuSans-32" x="159.033203"/>
      </g>
     </g>
    </g>
   </g>
   <g id="line2d_21">
    <path d="M 65.881364 66.915455 
L 76.544619 68.436568 
L 87.207873 70.180357 
L 96.686322 71.947346 
L 106.164771 73.956811 
L 114.458414 75.953771 
L 121.56725 77.895344 
L 127.491281 79.689647 
L 134.600118 82.125533 
L 139.339342 83.958265 
L 145.263373 86.482591 
L 151.187403 89.346019 
L 155.926627 91.904972 
L 160.665852 94.714842 
L 165.405076 97.804074 
L 170.144301 101.192252 
L 174.883525 104.884815 
L 179.62275 108.904458 
L 185.54678 114.375951 
L 191.470811 120.446801 
L 193.840423 123.055603 
L 195.025229 124.304313 
L 205.688484 137.277726 
L 210.427708 143.671395 
L 211.612514 145.382367 
L 212.79732 146.896429 
L 213.982127 148.745306 
L 216.351739 152.074799 
L 217.536545 153.982564 
L 218.721351 155.563918 
L 219.906157 157.54407 
L 221.090963 159.230263 
L 231.754218 176.332626 
L 232.939024 178.494291 
L 234.12383 180.304063 
L 235.308636 182.424545 
L 235.308636 182.424545 
" clip-path="url(#p2c64e2187d)" style="fill: none; stroke: #008000; stroke-width: 1.5; stroke-linecap: square"/>
   </g>
   <g id="line2d_22">
    <path d="M 69.411098 66.915455 
L 72.940833 67.404418 
L 76.470568 67.902063 
L 80.000303 68.441219 
L 83.530038 69.002617 
L 87.059773 69.581737 
L 90.589508 70.180991 
L 94.119242 70.82269 
L 97.648977 71.472222 
L 101.178712 72.167818 
L 104.708447 72.88472 
L 108.238182 73.644425 
L 111.767917 74.41529 
L 115.297652 75.217302 
L 118.827386 76.079275 
L 122.357121 76.957118 
L 125.886856 77.872001 
L 129.416591 78.818047 
L 132.946326 79.800281 
L 136.476061 80.836329 
L 140.005795 81.903891 
L 143.53553 83.004176 
L 147.065265 84.18538 
L 150.595 85.405274 
L 154.124735 86.664786 
L 157.65447 88.001966 
L 161.184205 89.363358 
L 164.713939 90.811698 
L 168.243674 92.323382 
L 171.773409 93.869039 
L 175.303144 95.495643 
L 178.832879 97.198089 
L 182.362614 98.971054 
L 185.892348 100.830339 
L 189.422083 102.728746 
L 192.951818 104.697979 
L 196.481553 106.780639 
L 200.011288 108.950265 
L 203.541023 111.189117 
L 207.070758 113.519519 
L 210.600492 115.982568 
L 214.130227 118.527803 
L 217.659962 121.158262 
L 221.189697 123.890133 
L 224.719432 126.737202 
L 228.249167 129.719342 
L 231.778902 132.798768 
L 235.308636 135.995392 
" clip-path="url(#p2c64e2187d)" style="fill: none; stroke: #ff0000; stroke-width: 3; stroke-linecap: square"/>
   </g>
   <g id="patch_3">
    <path d="M 57.41 188.2 
L 57.41 61.14 
" style="fill: none; stroke: #000000; stroke-width: 0.8; stroke-linejoin: miter; stroke-linecap: square"/>
   </g>
   <g id="patch_4">
    <path d="M 243.78 188.2 
L 243.78 61.14 
" style="fill: none; stroke: #000000; stroke-width: 0.8; stroke-linejoin: miter; stroke-linecap: square"/>
   </g>
   <g id="patch_5">
    <path d="M 57.41 188.2 
L 243.78 188.2 
" style="fill: none; stroke: #000000; stroke-width: 0.8; stroke-linejoin: miter; stroke-linecap: square"/>
   </g>
   <g id="patch_6">
    <path d="M 57.41 61.14 
L 243.78 61.14 
" style="fill: none; stroke: #000000; stroke-width: 0.8; stroke-linejoin: miter; stroke-linecap: square"/>
   </g>
   <g id="text_11">
    <!-- SER -->
    <g transform="translate(138.825625 55.14) scale(0.12 -0.12)">
     <defs>
      <path id="DejaVuSans-53" d="M 3425 4513 
L 3425 3897 
Q 3066 4069 2747 4153 
Q 2428 4238 2131 4238 
Q 1616 4238 1336 4038 
Q 1056 3838 1056 3469 
Q 1056 3159 1242 3001 
Q 1428 2844 1947 2747 
L 2328 2669 
Q 3034 2534 3370 2195 
Q 3706 1856 3706 1288 
Q 3706 609 3251 259 
Q 2797 -91 1919 -91 
Q 1588 -91 1214 -16 
Q 841 59 441 206 
L 441 856 
Q 825 641 1194 531 
Q 1563 422 1919 422 
Q 2459 422 2753 634 
Q 3047 847 3047 1241 
Q 3047 1584 2836 1778 
Q 2625 1972 2144 2069 
L 1759 2144 
Q 1053 2284 737 2584 
Q 422 2884 422 3419 
Q 422 4038 858 4394 
Q 1294 4750 2059 4750 
Q 2388 4750 2728 4690 
Q 3069 4631 3425 4513 
z
" transform="scale(0.015625)"/>
      <path id="DejaVuSans-45" d="M 628 4666 
L 3578 4666 
L 3578 4134 
L 1259 4134 
L 1259 2753 
L 3481 2753 
L 3481 2222 
L 1259 2222 
L 1259 531 
L 3634 531 
L 3634 0 
L 628 0 
L 628 4666 
z
" transform="scale(0.015625)"/>
      <path id="DejaVuSans-52" d="M 2841 2188 
Q 3044 2119 3236 1894 
Q 3428 1669 3622 1275 
L 4263 0 
L 3584 0 
L 2988 1197 
Q 2756 1666 2539 1819 
Q 2322 1972 1947 1972 
L 1259 1972 
L 1259 0 
L 628 0 
L 628 4666 
L 2053 4666 
Q 2853 4666 3247 4331 
Q 3641 3997 3641 3322 
Q 3641 2881 3436 2590 
Q 3231 2300 2841 2188 
z
M 1259 4147 
L 1259 2491 
L 2053 2491 
Q 2509 2491 2742 2702 
Q 2975 2913 2975 3322 
Q 2975 3731 2742 3939 
Q 2509 4147 2053 4147 
L 1259 4147 
z
" transform="scale(0.015625)"/>
     </defs>
     <use xlink:href="#DejaVuSans-53"/>
     <use xlink:href="#DejaVuSans-45" x="63.476562"/>
     <use xlink:href="#DejaVuSans-52" x="126.660156"/>
    </g>
   </g>
  </g>
  <g id="axes_2">
   <g id="patch_7">
    <path d="M 286.52 188.2 
L 472.89 188.2 
L 472.89 61.14 
L 286.52 61.14 
z
" style="fill: #ffffff"/>
   </g>
   <g id="matplotlib.axis_3">
    <g id="xtick_6">
     <g id="line2d_23">
      <path d="M 294.991364 188.2 
L 294.991364 61.14 
" clip-path="url(#p134b6ff807)" style="fill: none; stroke: #b0b0b0; stroke-width: 0.8; stroke-linecap: square"/>
     </g>
     <g id="line2d_24"/>
     <g id="text_12">
      <!-- 0 -->
      <g transform="translate(291.810114 199.298438) scale(0.1 -0.1)">
       <use xlink:href="#DejaVuSans-30"/>
      </g>
     </g>
    </g>
    <g id="xtick_7">
     <g id="line2d_25">
      <path d="M 337.348182 188.2 
L 337.348182 61.14 
" clip-path="url(#p134b6ff807)" style="fill: none; stroke: #b0b0b0; stroke-width: 0.8; stroke-linecap: square"/>
     </g>
     <g id="line2d_26"/>
     <g id="text_13">
      <!-- 12 -->
      <g transform="translate(330.985682 199.298438) scale(0.1 -0.1)">
       <use xlink:href="#DejaVuSans-31"/>
       <use xlink:href="#DejaVuSans-32" x="63.623047"/>
      </g>
     </g>
    </g>
    <g id="xtick_8">
     <g id="line2d_27">
      <path d="M 379.705 188.2 
L 379.705 61.14 
" clip-path="url(#p134b6ff807)" style="fill: none; stroke: #b0b0b0; stroke-width: 0.8; stroke-linecap: square"/>
     </g>
     <g id="line2d_28"/>
     <g id="text_14">
      <!-- 24 -->
      <g transform="translate(373.3425 199.298438) scale(0.1 -0.1)">
       <use xlink:href="#DejaVuSans-32"/>
       <use xlink:href="#DejaVuSans-34" x="63.623047"/>
      </g>
     </g>
    </g>
    <g id="xtick_9">
     <g id="line2d_29">
      <path d="M 422.061818 188.2 
L 422.061818 61.14 
" clip-path="url(#p134b6ff807)" style="fill: none; stroke: #b0b0b0; stroke-width: 0.8; stroke-linecap: square"/>
     </g>
     <g id="line2d_30"/>
     <g id="text_15">
      <!-- 36 -->
      <g transform="translate(415.699318 199.298438) scale(0.1 -0.1)">
       <use xlink:href="#DejaVuSans-33"/>
       <use xlink:href="#DejaVuSans-36" x="63.623047"/>
      </g>
     </g>
    </g>
    <g id="xtick_10">
     <g id="line2d_31">
      <path d="M 464.418636 188.2 
L 464.418636 61.14 
" clip-path="url(#p134b6ff807)" style="fill: none; stroke: #b0b0b0; stroke-width: 0.8; stroke-linecap: square"/>
     </g>
     <g id="line2d_32"/>
     <g id="text_16">
      <!-- 48 -->
      <g transform="translate(458.056136 199.298438) scale(0.1 -0.1)">
       <use xlink:href="#DejaVuSans-34"/>
       <use xlink:href="#DejaVuSans-38" x="63.623047"/>
      </g>
     </g>
    </g>
   </g>
   <g id="matplotlib.axis_4">
    <g id="ytick_6">
     <g id="line2d_33">
      <path d="M 286.52 172.887015 
L 472.89 172.887015 
" clip-path="url(#p134b6ff807)" style="fill: none; stroke: #b0b0b0; stroke-width: 0.8; stroke-linecap: square"/>
     </g>
     <g id="line2d_34"/>
     <g id="text_17">
      <!-- 10 -->
      <g transform="translate(270.295 176.686234) scale(0.1 -0.1)">
       <use xlink:href="#DejaVuSans-31"/>
       <use xlink:href="#DejaVuSans-30" x="63.623047"/>
      </g>
     </g>
    </g>
    <g id="ytick_7">
     <g id="line2d_35">
      <path d="M 286.52 148.568396 
L 472.89 148.568396 
" clip-path="url(#p134b6ff807)" style="fill: none; stroke: #b0b0b0; stroke-width: 0.8; stroke-linecap: square"/>
     </g>
     <g id="line2d_36"/>
     <g id="text_18">
      <!-- 12 -->
      <g transform="translate(270.295 152.367615) scale(0.1 -0.1)">
       <use xlink:href="#DejaVuSans-31"/>
       <use xlink:href="#DejaVuSans-32" x="63.623047"/>
      </g>
     </g>
    </g>
    <g id="ytick_8">
     <g id="line2d_37">
      <path d="M 286.52 124.249778 
L 472.89 124.249778 
" clip-path="url(#p134b6ff807)" style="fill: none; stroke: #b0b0b0; stroke-width: 0.8; stroke-linecap: square"/>
     </g>
     <g id="line2d_38"/>
     <g id="text_19">
      <!-- 14 -->
      <g transform="translate(270.295 128.048997) scale(0.1 -0.1)">
       <use xlink:href="#DejaVuSans-31"/>
       <use xlink:href="#DejaVuSans-34" x="63.623047"/>
      </g>
     </g>
    </g>
    <g id="ytick_9">
     <g id="line2d_39">
      <path d="M 286.52 99.93116 
L 472.89 99.93116 
" clip-path="url(#p134b6ff807)" style="fill: none; stroke: #b0b0b0; stroke-width: 0.8; stroke-linecap: square"/>
     </g>
     <g id="line2d_40"/>
     <g id="text_20">
      <!-- 16 -->
      <g transform="translate(270.295 103.730378) scale(0.1 -0.1)">
       <use xlink:href="#DejaVuSans-31"/>
       <use xlink:href="#DejaVuSans-36" x="63.623047"/>
      </g>
     </g>
    </g>
    <g id="ytick_10">
     <g id="line2d_41">
      <path d="M 286.52 75.612541 
L 472.89 75.612541 
" clip-path="url(#p134b6ff807)" style="fill: none; stroke: #b0b0b0; stroke-width: 0.8; stroke-linecap: square"/>
     </g>
     <g id="line2d_42"/>
     <g id="text_21">
      <!-- 18 -->
      <g transform="translate(270.295 79.41176) scale(0.1 -0.1)">
       <use xlink:href="#DejaVuSans-31"/>
       <use xlink:href="#DejaVuSans-38" x="63.623047"/>
      </g>
     </g>
    </g>
   </g>
   <g id="line2d_43">
    <path d="M 294.991364 66.915455 
L 306.839425 70.598922 
L 317.50268 74.139399 
L 328.165935 77.930124 
L 337.644383 81.53382 
L 347.122832 85.378132 
L 356.601281 89.482847 
L 364.894924 93.302701 
L 373.188566 97.3494 
L 381.482209 101.63688 
L 389.775852 106.180214 
L 398.069495 110.995951 
L 406.363137 116.103046 
L 413.471974 120.72869 
L 420.580811 125.600844 
L 427.689647 130.737427 
L 434.798484 136.161323 
L 441.90732 141.896503 
L 449.016157 147.975418 
L 454.940188 153.323156 
L 460.864218 158.94863 
L 464.418636 162.469444 
L 464.418636 162.469444 
" clip-path="url(#p134b6ff807)" style="fill: none; stroke: #008000; stroke-width: 1.5; stroke-linecap: square"/>
   </g>
   <g id="line2d_44">
    <path d="M 298.521098 66.915455 
L 302.050833 68.022038 
L 305.580568 69.166203 
L 309.110303 70.349968 
L 312.640038 71.576894 
L 316.169773 72.841698 
L 319.699508 74.152423 
L 323.229242 75.508856 
L 326.758977 76.911724 
L 330.288712 78.361089 
L 333.818447 79.860593 
L 337.348182 81.409687 
L 340.877917 83.014056 
L 344.407652 84.670382 
L 347.937386 86.380191 
L 351.467121 88.150059 
L 354.996856 89.977747 
L 358.526591 91.860267 
L 362.056326 93.808325 
L 365.586061 95.818056 
L 369.115795 97.889963 
L 372.64553 100.028794 
L 376.175265 102.231082 
L 379.705 104.505833 
L 383.234735 106.848639 
L 386.76447 109.25993 
L 390.294205 111.745299 
L 393.823939 114.30732 
L 397.353674 116.9445 
L 400.883409 119.654942 
L 404.413144 122.443513 
L 407.942879 125.313444 
L 411.472614 128.262346 
L 415.002348 131.294932 
L 418.532083 134.405184 
L 422.061818 137.597955 
L 425.591553 140.874096 
L 429.121288 144.2334 
L 432.651023 147.677336 
L 436.180758 151.205868 
L 439.710492 154.818961 
L 443.240227 158.51637 
L 446.769962 162.296766 
L 450.299697 166.157777 
L 453.829432 170.103008 
L 457.359167 174.13158 
L 460.888902 178.237168 
L 464.418636 182.424545 
" clip-path="url(#p134b6ff807)" style="fill: none; stroke: #ff0000; stroke-width: 3; stroke-linecap: square"/>
   </g>
   <g id="patch_8">
    <path d="M 286.52 188.2 
L 286.52 61.14 
" style="fill: none; stroke: #000000; stroke-width: 0.8; stroke-linejoin: miter; stroke-linecap: square"/>
   </g>
   <g id="patch_9">
    <path d="M 472.89 188.2 
L 472.89 61.14 
" style="fill: none; stroke: #000000; stroke-width: 0.8; stroke-linejoin: miter; stroke-linecap: square"/>
   </g>
   <g id="patch_10">
    <path d="M 286.52 188.2 
L 472.89 188.2 
" style="fill: none; stroke: #000000; stroke-width: 0.8; stroke-linejoin: miter; stroke-linecap: square"/>
   </g>
   <g id="patch_11">
    <path d="M 286.52 61.14 
L 472.89 61.14 
" style="fill: none; stroke: #000000; stroke-width: 0.8; stroke-linejoin: miter; stroke-linecap: square"/>
   </g>
   <g id="text_22">
    <!-- GLC -->
    <g transform="translate(367.523125 55.14) scale(0.12 -0.12)">
     <defs>
      <path id="DejaVuSans-47" d="M 3809 666 
L 3809 1919 
L 2778 1919 
L 2778 2438 
L 4434 2438 
L 4434 434 
Q 4069 175 3628 42 
Q 3188 -91 2688 -91 
Q 1594 -91 976 548 
Q 359 1188 359 2328 
Q 359 3472 976 4111 
Q 1594 4750 2688 4750 
Q 3144 4750 3555 4637 
Q 3966 4525 4313 4306 
L 4313 3634 
Q 3963 3931 3569 4081 
Q 3175 4231 2741 4231 
Q 1884 4231 1454 3753 
Q 1025 3275 1025 2328 
Q 1025 1384 1454 906 
Q 1884 428 2741 428 
Q 3075 428 3337 486 
Q 3600 544 3809 666 
z
" transform="scale(0.015625)"/>
      <path id="DejaVuSans-4c" d="M 628 4666 
L 1259 4666 
L 1259 531 
L 3531 531 
L 3531 0 
L 628 0 
L 628 4666 
z
" transform="scale(0.015625)"/>
      <path id="DejaVuSans-43" d="M 4122 4306 
L 4122 3641 
Q 3803 3938 3442 4084 
Q 3081 4231 2675 4231 
Q 1875 4231 1450 3742 
Q 1025 3253 1025 2328 
Q 1025 1406 1450 917 
Q 1875 428 2675 428 
Q 3081 428 3442 575 
Q 3803 722 4122 1019 
L 4122 359 
Q 3791 134 3420 21 
Q 3050 -91 2638 -91 
Q 1578 -91 968 557 
Q 359 1206 359 2328 
Q 359 3453 968 4101 
Q 1578 4750 2638 4750 
Q 3056 4750 3426 4639 
Q 3797 4528 4122 4306 
z
" transform="scale(0.015625)"/>
     </defs>
     <use xlink:href="#DejaVuSans-47"/>
     <use xlink:href="#DejaVuSans-4c" x="77.490234"/>
     <use xlink:href="#DejaVuSans-43" x="133.203125"/>
    </g>
   </g>
  </g>
  <g id="axes_3">
   <g id="patch_12">
    <path d="M 515.63 188.2 
L 702 188.2 
L 702 61.14 
L 515.63 61.14 
z
" style="fill: #ffffff"/>
   </g>
   <g id="matplotlib.axis_5">
    <g id="xtick_11">
     <g id="line2d_45">
      <path d="M 524.101364 188.2 
L 524.101364 61.14 
" clip-path="url(#p124784d81f)" style="fill: none; stroke: #b0b0b0; stroke-width: 0.8; stroke-linecap: square"/>
     </g>
     <g id="line2d_46"/>
     <g id="text_23">
      <!-- 0 -->
      <g transform="translate(520.920114 199.298438) scale(0.1 -0.1)">
       <use xlink:href="#DejaVuSans-30"/>
      </g>
     </g>
    </g>
    <g id="xtick_12">
     <g id="line2d_47">
      <path d="M 566.458182 188.2 
L 566.458182 61.14 
" clip-path="url(#p124784d81f)" style="fill: none; stroke: #b0b0b0; stroke-width: 0.8; stroke-linecap: square"/>
     </g>
     <g id="line2d_48"/>
     <g id="text_24">
      <!-- 12 -->
      <g transform="translate(560.095682 199.298438) scale(0.1 -0.1)">
       <use xlink:href="#DejaVuSans-31"/>
       <use xlink:href="#DejaVuSans-32" x="63.623047"/>
      </g>
     </g>
    </g>
    <g id="xtick_13">
     <g id="line2d_49">
      <path d="M 608.815 188.2 
L 608.815 61.14 
" clip-path="url(#p124784d81f)" style="fill: none; stroke: #b0b0b0; stroke-width: 0.8; stroke-linecap: square"/>
     </g>
     <g id="line2d_50"/>
     <g id="text_25">
      <!-- 24 -->
      <g transform="translate(602.4525 199.298438) scale(0.1 -0.1)">
       <use xlink:href="#DejaVuSans-32"/>
       <use xlink:href="#DejaVuSans-34" x="63.623047"/>
      </g>
     </g>
    </g>
    <g id="xtick_14">
     <g id="line2d_51">
      <path d="M 651.171818 188.2 
L 651.171818 61.14 
" clip-path="url(#p124784d81f)" style="fill: none; stroke: #b0b0b0; stroke-width: 0.8; stroke-linecap: square"/>
     </g>
     <g id="line2d_52"/>
     <g id="text_26">
      <!-- 36 -->
      <g transform="translate(644.809318 199.298438) scale(0.1 -0.1)">
       <use xlink:href="#DejaVuSans-33"/>
       <use xlink:href="#DejaVuSans-36" x="63.623047"/>
      </g>
     </g>
    </g>
    <g id="xtick_15">
     <g id="line2d_53">
      <path d="M 693.528636 188.2 
L 693.528636 61.14 
" clip-path="url(#p124784d81f)" style="fill: none; stroke: #b0b0b0; stroke-width: 0.8; stroke-linecap: square"/>
     </g>
     <g id="line2d_54"/>
     <g id="text_27">
      <!-- 48 -->
      <g transform="translate(687.166136 199.298438) scale(0.1 -0.1)">
       <use xlink:href="#DejaVuSans-34"/>
       <use xlink:href="#DejaVuSans-38" x="63.623047"/>
      </g>
     </g>
    </g>
   </g>
   <g id="matplotlib.axis_6">
    <g id="ytick_11">
     <g id="line2d_55">
      <path d="M 515.63 182.918095 
L 702 182.918095 
" clip-path="url(#p124784d81f)" style="fill: none; stroke: #b0b0b0; stroke-width: 0.8; stroke-linecap: square"/>
     </g>
     <g id="line2d_56"/>
     <g id="text_28">
      <!-- 1.0 -->
      <g transform="translate(496.226875 186.717314) scale(0.1 -0.1)">
       <use xlink:href="#DejaVuSans-31"/>
       <use xlink:href="#DejaVuSans-2e" x="63.623047"/>
       <use xlink:href="#DejaVuSans-30" x="95.410156"/>
      </g>
     </g>
    </g>
    <g id="ytick_12">
     <g id="line2d_57">
      <path d="M 515.63 145.336246 
L 702 145.336246 
" clip-path="url(#p124784d81f)" style="fill: none; stroke: #b0b0b0; stroke-width: 0.8; stroke-linecap: square"/>
     </g>
     <g id="line2d_58"/>
     <g id="text_29">
      <!-- 1.5 -->
      <g transform="translate(496.226875 149.135465) scale(0.1 -0.1)">
       <defs>
        <path id="DejaVuSans-35" d="M 691 4666 
L 3169 4666 
L 3169 4134 
L 1269 4134 
L 1269 2991 
Q 1406 3038 1543 3061 
Q 1681 3084 1819 3084 
Q 2600 3084 3056 2656 
Q 3513 2228 3513 1497 
Q 3513 744 3044 326 
Q 2575 -91 1722 -91 
Q 1428 -91 1123 -41 
Q 819 9 494 109 
L 494 744 
Q 775 591 1075 516 
Q 1375 441 1709 441 
Q 2250 441 2565 725 
Q 2881 1009 2881 1497 
Q 2881 1984 2565 2268 
Q 2250 2553 1709 2553 
Q 1456 2553 1204 2497 
Q 953 2441 691 2322 
L 691 4666 
z
" transform="scale(0.015625)"/>
       </defs>
       <use xlink:href="#DejaVuSans-31"/>
       <use xlink:href="#DejaVuSans-2e" x="63.623047"/>
       <use xlink:href="#DejaVuSans-35" x="95.410156"/>
      </g>
     </g>
    </g>
    <g id="ytick_13">
     <g id="line2d_59">
      <path d="M 515.63 107.754397 
L 702 107.754397 
" clip-path="url(#p124784d81f)" style="fill: none; stroke: #b0b0b0; stroke-width: 0.8; stroke-linecap: square"/>
     </g>
     <g id="line2d_60"/>
     <g id="text_30">
      <!-- 2.0 -->
      <g transform="translate(496.226875 111.553616) scale(0.1 -0.1)">
       <use xlink:href="#DejaVuSans-32"/>
       <use xlink:href="#DejaVuSans-2e" x="63.623047"/>
       <use xlink:href="#DejaVuSans-30" x="95.410156"/>
      </g>
     </g>
    </g>
    <g id="ytick_14">
     <g id="line2d_61">
      <path d="M 515.63 70.172548 
L 702 70.172548 
" clip-path="url(#p124784d81f)" style="fill: none; stroke: #b0b0b0; stroke-width: 0.8; stroke-linecap: square"/>
     </g>
     <g id="line2d_62"/>
     <g id="text_31">
      <!-- 2.5 -->
      <g transform="translate(496.226875 73.971767) scale(0.1 -0.1)">
       <use xlink:href="#DejaVuSans-32"/>
       <use xlink:href="#DejaVuSans-2e" x="63.623047"/>
       <use xlink:href="#DejaVuSans-35" x="95.410156"/>
      </g>
     </g>
    </g>
   </g>
   <g id="line2d_63">
    <path d="M 524.101364 66.915455 
L 525.28617 67.749743 
L 527.655782 68.827836 
L 531.2102 70.037365 
L 537.134231 71.718433 
L 570.308802 80.631982 
L 579.78725 83.59106 
L 588.080893 86.415589 
L 596.374536 89.489435 
L 603.483373 92.34345 
L 610.592209 95.419442 
L 617.701046 98.737572 
L 624.809882 102.319309 
L 631.918719 106.187703 
L 637.84275 109.647556 
L 643.76678 113.337557 
L 649.690811 117.274287 
L 655.614841 121.468467 
L 661.538872 125.942444 
L 667.462902 130.706077 
L 673.386933 135.774866 
L 679.310963 141.16375 
L 685.234994 146.883758 
L 691.159024 152.941398 
L 693.528636 155.461844 
L 693.528636 155.461844 
" clip-path="url(#p124784d81f)" style="fill: none; stroke: #008000; stroke-width: 1.5; stroke-linecap: square"/>
   </g>
   <g id="line2d_64">
    <path d="M 527.631098 66.915455 
L 531.160833 70.339334 
L 534.690568 72.841203 
L 538.220303 75.038651 
L 541.750038 77.066297 
L 545.279773 79.000221 
L 548.809508 80.856915 
L 552.339242 82.687016 
L 555.868977 84.487765 
L 559.398712 86.271422 
L 562.928447 88.058071 
L 566.458182 89.843043 
L 569.987917 91.636359 
L 573.517652 93.448706 
L 577.047386 95.281731 
L 580.577121 97.137846 
L 584.106856 99.015284 
L 587.636591 100.924533 
L 591.166326 102.86689 
L 594.696061 104.845815 
L 598.225795 106.864712 
L 601.75553 108.912765 
L 605.285265 111.016604 
L 608.815 113.16001 
L 612.344735 115.35482 
L 615.87447 117.601613 
L 619.404205 119.901202 
L 622.933939 122.250849 
L 626.463674 124.658598 
L 629.993409 127.129484 
L 633.523144 129.657562 
L 637.052879 132.234429 
L 640.582614 134.887122 
L 644.112348 137.597795 
L 647.642083 140.361835 
L 651.171818 143.209141 
L 654.701553 146.111106 
L 658.231288 149.090002 
L 661.761023 152.13459 
L 665.290758 155.253628 
L 668.820492 158.431511 
L 672.350227 161.677223 
L 675.879962 164.989116 
L 679.409697 168.366401 
L 682.939432 171.792933 
L 686.469167 175.281709 
L 689.998902 178.824708 
L 693.528636 182.424545 
" clip-path="url(#p124784d81f)" style="fill: none; stroke: #ff0000; stroke-width: 3; stroke-linecap: square"/>
   </g>
   <g id="patch_13">
    <path d="M 515.63 188.2 
L 515.63 61.14 
" style="fill: none; stroke: #000000; stroke-width: 0.8; stroke-linejoin: miter; stroke-linecap: square"/>
   </g>
   <g id="patch_14">
    <path d="M 702 188.2 
L 702 61.14 
" style="fill: none; stroke: #000000; stroke-width: 0.8; stroke-linejoin: miter; stroke-linecap: square"/>
   </g>
   <g id="patch_15">
    <path d="M 515.63 188.2 
L 702 188.2 
" style="fill: none; stroke: #000000; stroke-width: 0.8; stroke-linejoin: miter; stroke-linecap: square"/>
   </g>
   <g id="patch_16">
    <path d="M 515.63 61.14 
L 702 61.14 
" style="fill: none; stroke: #000000; stroke-width: 0.8; stroke-linejoin: miter; stroke-linecap: square"/>
   </g>
   <g id="text_32">
    <!-- EGLN -->
    <g transform="translate(592.542813 55.14) scale(0.12 -0.12)">
     <defs>
      <path id="DejaVuSans-4e" d="M 628 4666 
L 1478 4666 
L 3547 763 
L 3547 4666 
L 4159 4666 
L 4159 0 
L 3309 0 
L 1241 3903 
L 1241 0 
L 628 0 
L 628 4666 
z
" transform="scale(0.015625)"/>
     </defs>
     <use xlink:href="#DejaVuSans-45"/>
     <use xlink:href="#DejaVuSans-47" x="63.183594"/>
     <use xlink:href="#DejaVuSans-4c" x="140.673828"/>
     <use xlink:href="#DejaVuSans-4e" x="196.386719"/>
    </g>
   </g>
  </g>
  <g id="axes_4">
   <g id="patch_17">
    <path d="M 57.41 355.72 
L 243.78 355.72 
L 243.78 228.66 
L 57.41 228.66 
z
" style="fill: #ffffff"/>
   </g>
   <g id="matplotlib.axis_7">
    <g id="xtick_16">
     <g id="line2d_65">
      <path d="M 65.881364 355.72 
L 65.881364 228.66 
" clip-path="url(#pf8f9cbacc7)" style="fill: none; stroke: #b0b0b0; stroke-width: 0.8; stroke-linecap: square"/>
     </g>
     <g id="line2d_66"/>
     <g id="text_33">
      <!-- 0 -->
      <g transform="translate(62.700114 366.818437) scale(0.1 -0.1)">
       <use xlink:href="#DejaVuSans-30"/>
      </g>
     </g>
    </g>
    <g id="xtick_17">
     <g id="line2d_67">
      <path d="M 108.238182 355.72 
L 108.238182 228.66 
" clip-path="url(#pf8f9cbacc7)" style="fill: none; stroke: #b0b0b0; stroke-width: 0.8; stroke-linecap: square"/>
     </g>
     <g id="line2d_68"/>
     <g id="text_34">
      <!-- 12 -->
      <g transform="translate(101.875682 366.818437) scale(0.1 -0.1)">
       <use xlink:href="#DejaVuSans-31"/>
       <use xlink:href="#DejaVuSans-32" x="63.623047"/>
      </g>
     </g>
    </g>
    <g id="xtick_18">
     <g id="line2d_69">
      <path d="M 150.595 355.72 
L 150.595 228.66 
" clip-path="url(#pf8f9cbacc7)" style="fill: none; stroke: #b0b0b0; stroke-width: 0.8; stroke-linecap: square"/>
     </g>
     <g id="line2d_70"/>
     <g id="text_35">
      <!-- 24 -->
      <g transform="translate(144.2325 366.818437) scale(0.1 -0.1)">
       <use xlink:href="#DejaVuSans-32"/>
       <use xlink:href="#DejaVuSans-34" x="63.623047"/>
      </g>
     </g>
    </g>
    <g id="xtick_19">
     <g id="line2d_71">
      <path d="M 192.951818 355.72 
L 192.951818 228.66 
" clip-path="url(#pf8f9cbacc7)" style="fill: none; stroke: #b0b0b0; stroke-width: 0.8; stroke-linecap: square"/>
     </g>
     <g id="line2d_72"/>
     <g id="text_36">
      <!-- 36 -->
      <g transform="translate(186.589318 366.818437) scale(0.1 -0.1)">
       <use xlink:href="#DejaVuSans-33"/>
       <use xlink:href="#DejaVuSans-36" x="63.623047"/>
      </g>
     </g>
    </g>
    <g id="xtick_20">
     <g id="line2d_73">
      <path d="M 235.308636 355.72 
L 235.308636 228.66 
" clip-path="url(#pf8f9cbacc7)" style="fill: none; stroke: #b0b0b0; stroke-width: 0.8; stroke-linecap: square"/>
     </g>
     <g id="line2d_74"/>
     <g id="text_37">
      <!-- 48 -->
      <g transform="translate(228.946136 366.818437) scale(0.1 -0.1)">
       <use xlink:href="#DejaVuSans-34"/>
       <use xlink:href="#DejaVuSans-38" x="63.623047"/>
      </g>
     </g>
    </g>
   </g>
   <g id="matplotlib.axis_8">
    <g id="ytick_15">
     <g id="line2d_75">
      <path d="M 57.41 322.986341 
L 243.78 322.986341 
" clip-path="url(#pf8f9cbacc7)" style="fill: none; stroke: #b0b0b0; stroke-width: 0.8; stroke-linecap: square"/>
     </g>
     <g id="line2d_76"/>
     <g id="text_38">
      <!-- 0.1 -->
      <g transform="translate(38.006875 326.78556) scale(0.1 -0.1)">
       <use xlink:href="#DejaVuSans-30"/>
       <use xlink:href="#DejaVuSans-2e" x="63.623047"/>
       <use xlink:href="#DejaVuSans-31" x="95.410156"/>
      </g>
     </g>
    </g>
    <g id="ytick_16">
     <g id="line2d_77">
      <path d="M 57.41 283.535311 
L 243.78 283.535311 
" clip-path="url(#pf8f9cbacc7)" style="fill: none; stroke: #b0b0b0; stroke-width: 0.8; stroke-linecap: square"/>
     </g>
     <g id="line2d_78"/>
     <g id="text_39">
      <!-- 0.2 -->
      <g transform="translate(38.006875 287.33453) scale(0.1 -0.1)">
       <use xlink:href="#DejaVuSans-30"/>
       <use xlink:href="#DejaVuSans-2e" x="63.623047"/>
       <use xlink:href="#DejaVuSans-32" x="95.410156"/>
      </g>
     </g>
    </g>
    <g id="ytick_17">
     <g id="line2d_79">
      <path d="M 57.41 244.084281 
L 243.78 244.084281 
" clip-path="url(#pf8f9cbacc7)" style="fill: none; stroke: #b0b0b0; stroke-width: 0.8; stroke-linecap: square"/>
     </g>
     <g id="line2d_80"/>
     <g id="text_40">
      <!-- 0.3 -->
      <g transform="translate(38.006875 247.883499) scale(0.1 -0.1)">
       <use xlink:href="#DejaVuSans-30"/>
       <use xlink:href="#DejaVuSans-2e" x="63.623047"/>
       <use xlink:href="#DejaVuSans-33" x="95.410156"/>
      </g>
     </g>
    </g>
   </g>
   <g id="line2d_81">
    <path d="M 65.881364 349.944545 
L 77.729425 349.253436 
L 84.838261 348.625328 
L 91.947098 347.766271 
L 97.871128 346.845606 
L 103.795159 345.717261 
L 109.719189 344.357479 
L 115.64322 342.762225 
L 121.56725 340.899969 
L 127.491281 338.762771 
L 132.230505 336.852464 
L 138.154536 334.181347 
L 142.89376 331.8179 
L 147.632985 329.242725 
L 152.372209 326.444381 
L 157.111434 323.420877 
L 161.850658 320.16237 
L 166.589882 316.660421 
L 171.329107 312.910577 
L 176.068331 308.904745 
L 180.807556 304.636907 
L 185.54678 300.099491 
L 190.286004 295.266578 
L 195.025229 290.169665 
L 199.764453 284.790204 
L 204.503678 279.126665 
L 210.427708 271.583562 
L 215.166933 265.211279 
L 221.090963 256.787368 
L 225.830188 249.692164 
L 231.754218 240.303796 
L 235.308636 234.435455 
L 235.308636 234.435455 
" clip-path="url(#pf8f9cbacc7)" style="fill: none; stroke: #008000; stroke-width: 1.5; stroke-linecap: square"/>
   </g>
   <g id="line2d_82">
    <path d="M 69.411098 349.944545 
L 72.940833 349.770803 
L 76.470568 349.547313 
L 80.000303 349.318063 
L 83.530038 349.085736 
L 87.059773 348.837076 
L 90.589508 348.576305 
L 94.119242 348.301489 
L 97.648977 348.013339 
L 101.178712 347.712091 
L 104.708447 347.402439 
L 108.238182 347.06892 
L 111.767917 346.718793 
L 115.297652 346.347795 
L 118.827386 345.953364 
L 122.357121 345.53321 
L 125.886856 345.092858 
L 129.416591 344.62268 
L 132.946326 344.128793 
L 136.476061 343.602003 
L 140.005795 343.043495 
L 143.53553 342.448574 
L 147.065265 341.82075 
L 150.595 341.146256 
L 154.124735 340.43953 
L 157.65447 339.692801 
L 161.184205 338.894825 
L 164.713939 338.049152 
L 168.243674 337.147026 
L 171.773409 336.187616 
L 175.303144 335.17475 
L 178.832879 334.089176 
L 182.362614 332.941546 
L 185.892348 331.740933 
L 189.422083 330.458498 
L 192.951818 329.106432 
L 196.481553 327.655423 
L 200.011288 326.127288 
L 203.541023 324.498157 
L 207.070758 322.785746 
L 210.600492 320.972379 
L 214.130227 319.055454 
L 217.659962 317.039822 
L 221.189697 314.908559 
L 224.719432 312.640243 
L 228.249167 310.248485 
L 231.778902 307.738176 
L 235.308636 305.060714 
" clip-path="url(#pf8f9cbacc7)" style="fill: none; stroke: #ff0000; stroke-width: 3; stroke-linecap: square"/>
   </g>
   <g id="patch_18">
    <path d="M 57.41 355.72 
L 57.41 228.66 
" style="fill: none; stroke: #000000; stroke-width: 0.8; stroke-linejoin: miter; stroke-linecap: square"/>
   </g>
   <g id="patch_19">
    <path d="M 243.78 355.72 
L 243.78 228.66 
" style="fill: none; stroke: #000000; stroke-width: 0.8; stroke-linejoin: miter; stroke-linecap: square"/>
   </g>
   <g id="patch_20">
    <path d="M 57.41 355.72 
L 243.78 355.72 
" style="fill: none; stroke: #000000; stroke-width: 0.8; stroke-linejoin: miter; stroke-linecap: square"/>
   </g>
   <g id="patch_21">
    <path d="M 57.41 228.66 
L 243.78 228.66 
" style="fill: none; stroke: #000000; stroke-width: 0.8; stroke-linejoin: miter; stroke-linecap: square"/>
   </g>
   <g id="text_41">
    <!-- EGLU -->
    <g transform="translate(134.720313 222.66) scale(0.12 -0.12)">
     <defs>
      <path id="DejaVuSans-55" d="M 556 4666 
L 1191 4666 
L 1191 1831 
Q 1191 1081 1462 751 
Q 1734 422 2344 422 
Q 2950 422 3222 751 
Q 3494 1081 3494 1831 
L 3494 4666 
L 4128 4666 
L 4128 1753 
Q 4128 841 3676 375 
Q 3225 -91 2344 -91 
Q 1459 -91 1007 375 
Q 556 841 556 1753 
L 556 4666 
z
" transform="scale(0.015625)"/>
     </defs>
     <use xlink:href="#DejaVuSans-45"/>
     <use xlink:href="#DejaVuSans-47" x="63.183594"/>
     <use xlink:href="#DejaVuSans-4c" x="140.673828"/>
     <use xlink:href="#DejaVuSans-55" x="191.386719"/>
    </g>
   </g>
  </g>
  <g id="axes_5">
   <g id="patch_22">
    <path d="M 286.52 355.72 
L 472.89 355.72 
L 472.89 228.66 
L 286.52 228.66 
z
" style="fill: #ffffff"/>
   </g>
   <g id="matplotlib.axis_9">
    <g id="xtick_21">
     <g id="line2d_83">
      <path d="M 294.991364 355.72 
L 294.991364 228.66 
" clip-path="url(#pe8be7d01f5)" style="fill: none; stroke: #b0b0b0; stroke-width: 0.8; stroke-linecap: square"/>
     </g>
     <g id="line2d_84"/>
     <g id="text_42">
      <!-- 0 -->
      <g transform="translate(291.810114 366.818437) scale(0.1 -0.1)">
       <use xlink:href="#DejaVuSans-30"/>
      </g>
     </g>
    </g>
    <g id="xtick_22">
     <g id="line2d_85">
      <path d="M 337.348182 355.72 
L 337.348182 228.66 
" clip-path="url(#pe8be7d01f5)" style="fill: none; stroke: #b0b0b0; stroke-width: 0.8; stroke-linecap: square"/>
     </g>
     <g id="line2d_86"/>
     <g id="text_43">
      <!-- 12 -->
      <g transform="translate(330.985682 366.818437) scale(0.1 -0.1)">
       <use xlink:href="#DejaVuSans-31"/>
       <use xlink:href="#DejaVuSans-32" x="63.623047"/>
      </g>
     </g>
    </g>
    <g id="xtick_23">
     <g id="line2d_87">
      <path d="M 379.705 355.72 
L 379.705 228.66 
" clip-path="url(#pe8be7d01f5)" style="fill: none; stroke: #b0b0b0; stroke-width: 0.8; stroke-linecap: square"/>
     </g>
     <g id="line2d_88"/>
     <g id="text_44">
      <!-- 24 -->
      <g transform="translate(373.3425 366.818437) scale(0.1 -0.1)">
       <use xlink:href="#DejaVuSans-32"/>
       <use xlink:href="#DejaVuSans-34" x="63.623047"/>
      </g>
     </g>
    </g>
    <g id="xtick_24">
     <g id="line2d_89">
      <path d="M 422.061818 355.72 
L 422.061818 228.66 
" clip-path="url(#pe8be7d01f5)" style="fill: none; stroke: #b0b0b0; stroke-width: 0.8; stroke-linecap: square"/>
     </g>
     <g id="line2d_90"/>
     <g id="text_45">
      <!-- 36 -->
      <g transform="translate(415.699318 366.818437) scale(0.1 -0.1)">
       <use xlink:href="#DejaVuSans-33"/>
       <use xlink:href="#DejaVuSans-36" x="63.623047"/>
      </g>
     </g>
    </g>
    <g id="xtick_25">
     <g id="line2d_91">
      <path d="M 464.418636 355.72 
L 464.418636 228.66 
" clip-path="url(#pe8be7d01f5)" style="fill: none; stroke: #b0b0b0; stroke-width: 0.8; stroke-linecap: square"/>
     </g>
     <g id="line2d_92"/>
     <g id="text_46">
      <!-- 48 -->
      <g transform="translate(458.056136 366.818437) scale(0.1 -0.1)">
       <use xlink:href="#DejaVuSans-34"/>
       <use xlink:href="#DejaVuSans-38" x="63.623047"/>
      </g>
     </g>
    </g>
   </g>
   <g id="matplotlib.axis_10">
    <g id="ytick_18">
     <g id="line2d_93">
      <path d="M 286.52 328.416051 
L 472.89 328.416051 
" clip-path="url(#pe8be7d01f5)" style="fill: none; stroke: #b0b0b0; stroke-width: 0.8; stroke-linecap: square"/>
     </g>
     <g id="line2d_94"/>
     <g id="text_47">
      <!-- 0.1 -->
      <g transform="translate(267.116875 332.21527) scale(0.1 -0.1)">
       <use xlink:href="#DejaVuSans-30"/>
       <use xlink:href="#DejaVuSans-2e" x="63.623047"/>
       <use xlink:href="#DejaVuSans-31" x="95.410156"/>
      </g>
     </g>
    </g>
    <g id="ytick_19">
     <g id="line2d_95">
      <path d="M 286.52 298.612479 
L 472.89 298.612479 
" clip-path="url(#pe8be7d01f5)" style="fill: none; stroke: #b0b0b0; stroke-width: 0.8; stroke-linecap: square"/>
     </g>
     <g id="line2d_96"/>
     <g id="text_48">
      <!-- 0.2 -->
      <g transform="translate(267.116875 302.411698) scale(0.1 -0.1)">
       <use xlink:href="#DejaVuSans-30"/>
       <use xlink:href="#DejaVuSans-2e" x="63.623047"/>
       <use xlink:href="#DejaVuSans-32" x="95.410156"/>
      </g>
     </g>
    </g>
    <g id="ytick_20">
     <g id="line2d_97">
      <path d="M 286.52 268.808907 
L 472.89 268.808907 
" clip-path="url(#pe8be7d01f5)" style="fill: none; stroke: #b0b0b0; stroke-width: 0.8; stroke-linecap: square"/>
     </g>
     <g id="line2d_98"/>
     <g id="text_49">
      <!-- 0.3 -->
      <g transform="translate(267.116875 272.608126) scale(0.1 -0.1)">
       <use xlink:href="#DejaVuSans-30"/>
       <use xlink:href="#DejaVuSans-2e" x="63.623047"/>
       <use xlink:href="#DejaVuSans-33" x="95.410156"/>
      </g>
     </g>
    </g>
    <g id="ytick_21">
     <g id="line2d_99">
      <path d="M 286.52 239.005336 
L 472.89 239.005336 
" clip-path="url(#pe8be7d01f5)" style="fill: none; stroke: #b0b0b0; stroke-width: 0.8; stroke-linecap: square"/>
     </g>
     <g id="line2d_100"/>
     <g id="text_50">
      <!-- 0.4 -->
      <g transform="translate(267.116875 242.804554) scale(0.1 -0.1)">
       <use xlink:href="#DejaVuSans-30"/>
       <use xlink:href="#DejaVuSans-2e" x="63.623047"/>
       <use xlink:href="#DejaVuSans-34" x="95.410156"/>
      </g>
     </g>
    </g>
   </g>
   <g id="line2d_101">
    <path d="M 294.991364 234.435455 
L 302.1002 236.980951 
L 309.209037 239.744048 
L 316.317873 242.73966 
L 323.42671 245.98303 
L 330.535547 249.48873 
L 337.644383 253.271098 
L 344.75322 257.342696 
L 351.862057 261.714684 
L 358.970893 266.394975 
L 366.07973 271.387297 
L 373.188566 276.690046 
L 380.297403 282.294464 
L 387.40624 288.182361 
L 395.699882 295.368878 
L 405.178331 303.907296 
L 430.059259 326.565203 
L 435.98329 331.597999 
L 441.90732 336.311353 
L 446.646545 339.791957 
L 451.385769 342.970867 
L 456.124994 345.816687 
L 459.679412 347.720208 
L 463.23383 349.421985 
L 464.418636 349.944545 
L 464.418636 349.944545 
" clip-path="url(#pe8be7d01f5)" style="fill: none; stroke: #008000; stroke-width: 1.5; stroke-linecap: square"/>
   </g>
   <g id="line2d_102">
    <path d="M 298.521098 234.435455 
L 302.050833 235.67421 
L 305.580568 236.957403 
L 309.110303 238.275078 
L 312.640038 239.647175 
L 316.169773 241.075273 
L 319.699508 242.558567 
L 323.229242 244.086179 
L 326.758977 245.67307 
L 330.288712 247.321863 
L 333.818447 249.021263 
L 337.348182 250.780568 
L 340.877917 252.611401 
L 344.407652 254.489056 
L 347.937386 256.416393 
L 351.467121 258.400358 
L 354.996856 260.472719 
L 358.526591 262.605165 
L 362.056326 264.783567 
L 365.586061 267.027299 
L 369.115795 269.350041 
L 372.64553 271.712957 
L 376.175265 274.157685 
L 379.705 276.650158 
L 383.234735 279.197588 
L 386.76447 281.815057 
L 390.294205 284.491298 
L 393.823939 287.212186 
L 397.353674 289.9745 
L 400.883409 292.781341 
L 404.413144 295.628625 
L 407.942879 298.503954 
L 411.472614 301.394931 
L 415.002348 304.297411 
L 418.532083 307.211455 
L 422.061818 310.120999 
L 425.591553 313.007177 
L 429.121288 315.87899 
L 432.651023 318.716498 
L 436.180758 321.510315 
L 439.710492 324.237073 
L 443.240227 326.908308 
L 446.769962 329.504646 
L 450.299697 331.987373 
L 453.829432 334.378842 
L 457.359167 336.656758 
L 460.888902 338.828306 
L 464.418636 340.871401 
" clip-path="url(#pe8be7d01f5)" style="fill: none; stroke: #ff0000; stroke-width: 3; stroke-linecap: square"/>
   </g>
   <g id="patch_23">
    <path d="M 286.52 355.72 
L 286.52 228.66 
" style="fill: none; stroke: #000000; stroke-width: 0.8; stroke-linejoin: miter; stroke-linecap: square"/>
   </g>
   <g id="patch_24">
    <path d="M 472.89 355.72 
L 472.89 228.66 
" style="fill: none; stroke: #000000; stroke-width: 0.8; stroke-linejoin: miter; stroke-linecap: square"/>
   </g>
   <g id="patch_25">
    <path d="M 286.52 355.72 
L 472.89 355.72 
" style="fill: none; stroke: #000000; stroke-width: 0.8; stroke-linejoin: miter; stroke-linecap: square"/>
   </g>
   <g id="patch_26">
    <path d="M 286.52 228.66 
L 472.89 228.66 
" style="fill: none; stroke: #000000; stroke-width: 0.8; stroke-linejoin: miter; stroke-linecap: square"/>
   </g>
   <g id="text_51">
    <!-- EPYR -->
    <g transform="translate(364.597188 222.66) scale(0.12 -0.12)">
     <defs>
      <path id="DejaVuSans-50" d="M 1259 4147 
L 1259 2394 
L 2053 2394 
Q 2494 2394 2734 2622 
Q 2975 2850 2975 3272 
Q 2975 3691 2734 3919 
Q 2494 4147 2053 4147 
L 1259 4147 
z
M 628 4666 
L 2053 4666 
Q 2838 4666 3239 4311 
Q 3641 3956 3641 3272 
Q 3641 2581 3239 2228 
Q 2838 1875 2053 1875 
L 1259 1875 
L 1259 0 
L 628 0 
L 628 4666 
z
" transform="scale(0.015625)"/>
      <path id="DejaVuSans-59" d="M -13 4666 
L 666 4666 
L 1959 2747 
L 3244 4666 
L 3922 4666 
L 2272 2222 
L 2272 0 
L 1638 0 
L 1638 2222 
L -13 4666 
z
" transform="scale(0.015625)"/>
     </defs>
     <use xlink:href="#DejaVuSans-45"/>
     <use xlink:href="#DejaVuSans-50" x="63.183594"/>
     <use xlink:href="#DejaVuSans-59" x="121.236328"/>
     <use xlink:href="#DejaVuSans-52" x="182.320312"/>
    </g>
   </g>
  </g>
  <g id="axes_6">
   <g id="patch_27">
    <path d="M 515.63 355.72 
L 702 355.72 
L 702 228.66 
L 515.63 228.66 
z
" style="fill: #ffffff"/>
   </g>
   <g id="matplotlib.axis_11">
    <g id="xtick_26">
     <g id="line2d_103">
      <path d="M 524.101364 355.72 
L 524.101364 228.66 
" clip-path="url(#pbd306bbd2c)" style="fill: none; stroke: #b0b0b0; stroke-width: 0.8; stroke-linecap: square"/>
     </g>
     <g id="line2d_104"/>
     <g id="text_52">
      <!-- 0 -->
      <g transform="translate(520.920114 366.818437) scale(0.1 -0.1)">
       <use xlink:href="#DejaVuSans-30"/>
      </g>
     </g>
    </g>
    <g id="xtick_27">
     <g id="line2d_105">
      <path d="M 566.458182 355.72 
L 566.458182 228.66 
" clip-path="url(#pbd306bbd2c)" style="fill: none; stroke: #b0b0b0; stroke-width: 0.8; stroke-linecap: square"/>
     </g>
     <g id="line2d_106"/>
     <g id="text_53">
      <!-- 12 -->
      <g transform="translate(560.095682 366.818437) scale(0.1 -0.1)">
       <use xlink:href="#DejaVuSans-31"/>
       <use xlink:href="#DejaVuSans-32" x="63.623047"/>
      </g>
     </g>
    </g>
    <g id="xtick_28">
     <g id="line2d_107">
      <path d="M 608.815 355.72 
L 608.815 228.66 
" clip-path="url(#pbd306bbd2c)" style="fill: none; stroke: #b0b0b0; stroke-width: 0.8; stroke-linecap: square"/>
     </g>
     <g id="line2d_108"/>
     <g id="text_54">
      <!-- 24 -->
      <g transform="translate(602.4525 366.818437) scale(0.1 -0.1)">
       <use xlink:href="#DejaVuSans-32"/>
       <use xlink:href="#DejaVuSans-34" x="63.623047"/>
      </g>
     </g>
    </g>
    <g id="xtick_29">
     <g id="line2d_109">
      <path d="M 651.171818 355.72 
L 651.171818 228.66 
" clip-path="url(#pbd306bbd2c)" style="fill: none; stroke: #b0b0b0; stroke-width: 0.8; stroke-linecap: square"/>
     </g>
     <g id="line2d_110"/>
     <g id="text_55">
      <!-- 36 -->
      <g transform="translate(644.809318 366.818437) scale(0.1 -0.1)">
       <use xlink:href="#DejaVuSans-33"/>
       <use xlink:href="#DejaVuSans-36" x="63.623047"/>
      </g>
     </g>
    </g>
    <g id="xtick_30">
     <g id="line2d_111">
      <path d="M 693.528636 355.72 
L 693.528636 228.66 
" clip-path="url(#pbd306bbd2c)" style="fill: none; stroke: #b0b0b0; stroke-width: 0.8; stroke-linecap: square"/>
     </g>
     <g id="line2d_112"/>
     <g id="text_56">
      <!-- 48 -->
      <g transform="translate(687.166136 366.818437) scale(0.1 -0.1)">
       <use xlink:href="#DejaVuSans-34"/>
       <use xlink:href="#DejaVuSans-38" x="63.623047"/>
      </g>
     </g>
    </g>
   </g>
   <g id="matplotlib.axis_12">
    <g id="ytick_22">
     <g id="line2d_113">
      <path d="M 515.63 320.70907 
L 702 320.70907 
" clip-path="url(#pbd306bbd2c)" style="fill: none; stroke: #b0b0b0; stroke-width: 0.8; stroke-linecap: square"/>
     </g>
     <g id="line2d_114"/>
     <g id="text_57">
      <!-- 0.032 -->
      <g transform="translate(483.501875 324.508289) scale(0.1 -0.1)">
       <use xlink:href="#DejaVuSans-30"/>
       <use xlink:href="#DejaVuSans-2e" x="63.623047"/>
       <use xlink:href="#DejaVuSans-30" x="95.410156"/>
       <use xlink:href="#DejaVuSans-33" x="159.033203"/>
       <use xlink:href="#DejaVuSans-32" x="222.65625"/>
      </g>
     </g>
    </g>
    <g id="ytick_23">
     <g id="line2d_115">
      <path d="M 515.63 283.602035 
L 702 283.602035 
" clip-path="url(#pbd306bbd2c)" style="fill: none; stroke: #b0b0b0; stroke-width: 0.8; stroke-linecap: square"/>
     </g>
     <g id="line2d_116"/>
     <g id="text_58">
      <!-- 0.034 -->
      <g transform="translate(483.501875 287.401253) scale(0.1 -0.1)">
       <use xlink:href="#DejaVuSans-30"/>
       <use xlink:href="#DejaVuSans-2e" x="63.623047"/>
       <use xlink:href="#DejaVuSans-30" x="95.410156"/>
       <use xlink:href="#DejaVuSans-33" x="159.033203"/>
       <use xlink:href="#DejaVuSans-34" x="222.65625"/>
      </g>
     </g>
    </g>
    <g id="ytick_24">
     <g id="line2d_117">
      <path d="M 515.63 246.494999 
L 702 246.494999 
" clip-path="url(#pbd306bbd2c)" style="fill: none; stroke: #b0b0b0; stroke-width: 0.8; stroke-linecap: square"/>
     </g>
     <g id="line2d_118"/>
     <g id="text_59">
      <!-- 0.036 -->
      <g transform="translate(483.501875 250.294218) scale(0.1 -0.1)">
       <use xlink:href="#DejaVuSans-30"/>
       <use xlink:href="#DejaVuSans-2e" x="63.623047"/>
       <use xlink:href="#DejaVuSans-30" x="95.410156"/>
       <use xlink:href="#DejaVuSans-33" x="159.033203"/>
       <use xlink:href="#DejaVuSans-36" x="222.65625"/>
      </g>
     </g>
    </g>
   </g>
   <g id="line2d_119">
    <path d="M 524.101364 234.435455 
L 533.579812 236.530742 
L 541.873455 238.579136 
L 550.167098 240.850435 
L 558.460741 243.367995 
L 565.569577 245.741238 
L 572.678414 248.331677 
L 579.78725 251.158187 
L 586.896087 254.241088 
L 594.004924 257.602209 
L 599.928954 260.632507 
L 605.852985 263.886643 
L 611.777015 267.379827 
L 617.701046 271.128085 
L 623.625076 275.14827 
L 629.549107 279.458056 
L 635.473137 284.075931 
L 641.397168 289.021178 
L 647.321198 294.313836 
L 653.245229 299.974656 
L 657.984453 304.782744 
L 662.723678 309.85135 
L 667.462902 315.191879 
L 672.202127 320.815885 
L 676.941351 326.735023 
L 681.680575 332.960988 
L 686.4198 339.505445 
L 691.159024 346.379957 
L 693.528636 349.944545 
L 693.528636 349.944545 
" clip-path="url(#pbd306bbd2c)" style="fill: none; stroke: #008000; stroke-width: 1.5; stroke-linecap: square"/>
   </g>
   <g id="line2d_120">
    <path d="M 527.631098 234.435455 
L 531.160833 235.146054 
L 534.690568 235.934579 
L 538.220303 236.791751 
L 541.750038 237.721283 
L 545.279773 238.587732 
L 548.809508 239.533961 
L 552.339242 240.47648 
L 555.868977 241.441263 
L 559.398712 242.493247 
L 562.928447 243.571207 
L 566.458182 244.625047 
L 569.987917 245.823604 
L 573.517652 247.0704 
L 577.047386 248.298643 
L 580.577121 249.627075 
L 584.106856 250.929532 
L 587.636591 252.365574 
L 591.166326 253.87212 
L 594.696061 255.408351 
L 598.225795 257.031784 
L 601.75553 258.701601 
L 605.285265 260.427078 
L 608.815 262.271297 
L 612.344735 264.174888 
L 615.87447 266.148983 
L 619.404205 268.201002 
L 622.933939 270.32909 
L 626.463674 272.668689 
L 629.993409 274.932218 
L 633.523144 277.349741 
L 637.052879 279.8489 
L 640.582614 282.437116 
L 644.112348 285.164483 
L 647.642083 287.956788 
L 651.171818 290.940193 
L 654.701553 293.929165 
L 658.231288 296.892162 
L 661.761023 300.170569 
L 665.290758 303.538032 
L 668.820492 306.935181 
L 672.350227 310.636608 
L 675.879962 314.291651 
L 679.409697 318.104399 
L 682.939432 322.169475 
L 686.469167 326.388545 
L 689.998902 330.832112 
L 693.528636 335.245994 
" clip-path="url(#pbd306bbd2c)" style="fill: none; stroke: #ff0000; stroke-width: 3; stroke-linecap: square"/>
   </g>
   <g id="patch_28">
    <path d="M 515.63 355.72 
L 515.63 228.66 
" style="fill: none; stroke: #000000; stroke-width: 0.8; stroke-linejoin: miter; stroke-linecap: square"/>
   </g>
   <g id="patch_29">
    <path d="M 702 355.72 
L 702 228.66 
" style="fill: none; stroke: #000000; stroke-width: 0.8; stroke-linejoin: miter; stroke-linecap: square"/>
   </g>
   <g id="patch_30">
    <path d="M 515.63 355.72 
L 702 355.72 
" style="fill: none; stroke: #000000; stroke-width: 0.8; stroke-linejoin: miter; stroke-linecap: square"/>
   </g>
   <g id="patch_31">
    <path d="M 515.63 228.66 
L 702 228.66 
" style="fill: none; stroke: #000000; stroke-width: 0.8; stroke-linejoin: miter; stroke-linecap: square"/>
   </g>
   <g id="text_60">
    <!-- EASP -->
    <g transform="translate(593.4925 222.66) scale(0.12 -0.12)">
     <defs>
      <path id="DejaVuSans-41" d="M 2188 4044 
L 1331 1722 
L 3047 1722 
L 2188 4044 
z
M 1831 4666 
L 2547 4666 
L 4325 0 
L 3669 0 
L 3244 1197 
L 1141 1197 
L 716 0 
L 50 0 
L 1831 4666 
z
" transform="scale(0.015625)"/>
     </defs>
     <use xlink:href="#DejaVuSans-45"/>
     <use xlink:href="#DejaVuSans-41" x="63.183594"/>
     <use xlink:href="#DejaVuSans-53" x="131.591797"/>
     <use xlink:href="#DejaVuSans-50" x="195.068359"/>
    </g>
   </g>
  </g>
  <g id="axes_7">
   <g id="patch_32">
    <path d="M 57.41 523.24 
L 243.78 523.24 
L 243.78 396.18 
L 57.41 396.18 
z
" style="fill: #ffffff"/>
   </g>
   <g id="matplotlib.axis_13">
    <g id="xtick_31">
     <g id="line2d_121">
      <path d="M 65.881364 523.24 
L 65.881364 396.18 
" clip-path="url(#p3f86955239)" style="fill: none; stroke: #b0b0b0; stroke-width: 0.8; stroke-linecap: square"/>
     </g>
     <g id="line2d_122"/>
     <g id="text_61">
      <!-- 0 -->
      <g transform="translate(62.700114 534.338438) scale(0.1 -0.1)">
       <use xlink:href="#DejaVuSans-30"/>
      </g>
     </g>
    </g>
    <g id="xtick_32">
     <g id="line2d_123">
      <path d="M 108.238182 523.24 
L 108.238182 396.18 
" clip-path="url(#p3f86955239)" style="fill: none; stroke: #b0b0b0; stroke-width: 0.8; stroke-linecap: square"/>
     </g>
     <g id="line2d_124"/>
     <g id="text_62">
      <!-- 12 -->
      <g transform="translate(101.875682 534.338438) scale(0.1 -0.1)">
       <use xlink:href="#DejaVuSans-31"/>
       <use xlink:href="#DejaVuSans-32" x="63.623047"/>
      </g>
     </g>
    </g>
    <g id="xtick_33">
     <g id="line2d_125">
      <path d="M 150.595 523.24 
L 150.595 396.18 
" clip-path="url(#p3f86955239)" style="fill: none; stroke: #b0b0b0; stroke-width: 0.8; stroke-linecap: square"/>
     </g>
     <g id="line2d_126"/>
     <g id="text_63">
      <!-- 24 -->
      <g transform="translate(144.2325 534.338438) scale(0.1 -0.1)">
       <use xlink:href="#DejaVuSans-32"/>
       <use xlink:href="#DejaVuSans-34" x="63.623047"/>
      </g>
     </g>
    </g>
    <g id="xtick_34">
     <g id="line2d_127">
      <path d="M 192.951818 523.24 
L 192.951818 396.18 
" clip-path="url(#p3f86955239)" style="fill: none; stroke: #b0b0b0; stroke-width: 0.8; stroke-linecap: square"/>
     </g>
     <g id="line2d_128"/>
     <g id="text_64">
      <!-- 36 -->
      <g transform="translate(186.589318 534.338438) scale(0.1 -0.1)">
       <use xlink:href="#DejaVuSans-33"/>
       <use xlink:href="#DejaVuSans-36" x="63.623047"/>
      </g>
     </g>
    </g>
    <g id="xtick_35">
     <g id="line2d_129">
      <path d="M 235.308636 523.24 
L 235.308636 396.18 
" clip-path="url(#p3f86955239)" style="fill: none; stroke: #b0b0b0; stroke-width: 0.8; stroke-linecap: square"/>
     </g>
     <g id="line2d_130"/>
     <g id="text_65">
      <!-- 48 -->
      <g transform="translate(228.946136 534.338438) scale(0.1 -0.1)">
       <use xlink:href="#DejaVuSans-34"/>
       <use xlink:href="#DejaVuSans-38" x="63.623047"/>
      </g>
     </g>
    </g>
   </g>
   <g id="matplotlib.axis_14">
    <g id="ytick_25">
     <g id="line2d_131">
      <path d="M 57.41 522.93108 
L 243.78 522.93108 
" clip-path="url(#p3f86955239)" style="fill: none; stroke: #b0b0b0; stroke-width: 0.8; stroke-linecap: square"/>
     </g>
     <g id="line2d_132"/>
     <g id="text_66">
      <!-- 0.025 -->
      <g transform="translate(25.281875 526.730298) scale(0.1 -0.1)">
       <use xlink:href="#DejaVuSans-30"/>
       <use xlink:href="#DejaVuSans-2e" x="63.623047"/>
       <use xlink:href="#DejaVuSans-30" x="95.410156"/>
       <use xlink:href="#DejaVuSans-32" x="159.033203"/>
       <use xlink:href="#DejaVuSans-35" x="222.65625"/>
      </g>
     </g>
    </g>
    <g id="ytick_26">
     <g id="line2d_133">
      <path d="M 57.41 500.854373 
L 243.78 500.854373 
" clip-path="url(#p3f86955239)" style="fill: none; stroke: #b0b0b0; stroke-width: 0.8; stroke-linecap: square"/>
     </g>
     <g id="line2d_134"/>
     <g id="text_67">
      <!-- 0.050 -->
      <g transform="translate(25.281875 504.653592) scale(0.1 -0.1)">
       <use xlink:href="#DejaVuSans-30"/>
       <use xlink:href="#DejaVuSans-2e" x="63.623047"/>
       <use xlink:href="#DejaVuSans-30" x="95.410156"/>
       <use xlink:href="#DejaVuSans-35" x="159.033203"/>
       <use xlink:href="#DejaVuSans-30" x="222.65625"/>
      </g>
     </g>
    </g>
    <g id="ytick_27">
     <g id="line2d_135">
      <path d="M 57.41 478.777666 
L 243.78 478.777666 
" clip-path="url(#p3f86955239)" style="fill: none; stroke: #b0b0b0; stroke-width: 0.8; stroke-linecap: square"/>
     </g>
     <g id="line2d_136"/>
     <g id="text_68">
      <!-- 0.075 -->
      <g transform="translate(25.281875 482.576885) scale(0.1 -0.1)">
       <defs>
        <path id="DejaVuSans-37" d="M 525 4666 
L 3525 4666 
L 3525 4397 
L 1831 0 
L 1172 0 
L 2766 4134 
L 525 4134 
L 525 4666 
z
" transform="scale(0.015625)"/>
       </defs>
       <use xlink:href="#DejaVuSans-30"/>
       <use xlink:href="#DejaVuSans-2e" x="63.623047"/>
       <use xlink:href="#DejaVuSans-30" x="95.410156"/>
       <use xlink:href="#DejaVuSans-37" x="159.033203"/>
       <use xlink:href="#DejaVuSans-35" x="222.65625"/>
      </g>
     </g>
    </g>
    <g id="ytick_28">
     <g id="line2d_137">
      <path d="M 57.41 456.700959 
L 243.78 456.700959 
" clip-path="url(#p3f86955239)" style="fill: none; stroke: #b0b0b0; stroke-width: 0.8; stroke-linecap: square"/>
     </g>
     <g id="line2d_138"/>
     <g id="text_69">
      <!-- 0.100 -->
      <g transform="translate(25.281875 460.500178) scale(0.1 -0.1)">
       <use xlink:href="#DejaVuSans-30"/>
       <use xlink:href="#DejaVuSans-2e" x="63.623047"/>
       <use xlink:href="#DejaVuSans-31" x="95.410156"/>
       <use xlink:href="#DejaVuSans-30" x="159.033203"/>
       <use xlink:href="#DejaVuSans-30" x="222.65625"/>
      </g>
     </g>
    </g>
    <g id="ytick_29">
     <g id="line2d_139">
      <path d="M 57.41 434.624252 
L 243.78 434.624252 
" clip-path="url(#p3f86955239)" style="fill: none; stroke: #b0b0b0; stroke-width: 0.8; stroke-linecap: square"/>
     </g>
     <g id="line2d_140"/>
     <g id="text_70">
      <!-- 0.125 -->
      <g transform="translate(25.281875 438.423471) scale(0.1 -0.1)">
       <use xlink:href="#DejaVuSans-30"/>
       <use xlink:href="#DejaVuSans-2e" x="63.623047"/>
       <use xlink:href="#DejaVuSans-31" x="95.410156"/>
       <use xlink:href="#DejaVuSans-32" x="159.033203"/>
       <use xlink:href="#DejaVuSans-35" x="222.65625"/>
      </g>
     </g>
    </g>
    <g id="ytick_30">
     <g id="line2d_141">
      <path d="M 57.41 412.547545 
L 243.78 412.547545 
" clip-path="url(#p3f86955239)" style="fill: none; stroke: #b0b0b0; stroke-width: 0.8; stroke-linecap: square"/>
     </g>
     <g id="line2d_142"/>
     <g id="text_71">
      <!-- 0.150 -->
      <g transform="translate(25.281875 416.346764) scale(0.1 -0.1)">
       <use xlink:href="#DejaVuSans-30"/>
       <use xlink:href="#DejaVuSans-2e" x="63.623047"/>
       <use xlink:href="#DejaVuSans-31" x="95.410156"/>
       <use xlink:href="#DejaVuSans-35" x="159.033203"/>
       <use xlink:href="#DejaVuSans-30" x="222.65625"/>
      </g>
     </g>
    </g>
   </g>
   <g id="line2d_143">
    <path d="M 65.881364 517.464545 
L 76.544619 517.350857 
L 86.023067 517.046068 
L 94.31671 516.546482 
L 100.240741 515.970258 
L 108.534383 514.939282 
L 113.273608 514.113952 
L 116.828026 513.356595 
L 125.121669 511.219581 
L 128.676087 510.063976 
L 136.96973 506.979666 
L 145.263373 503.0757 
L 151.187403 499.786891 
L 154.741821 497.588757 
L 159.481046 494.462332 
L 164.22027 491.020124 
L 168.959495 487.306043 
L 174.883525 482.245847 
L 180.807556 476.686874 
L 185.54678 472.059838 
L 189.101198 468.087629 
L 190.286004 467.00337 
L 191.470811 465.635056 
L 192.655617 464.05978 
L 195.025229 461.685384 
L 197.394841 458.450627 
L 198.579647 457.386053 
L 199.764453 455.861196 
L 200.949259 454.016199 
L 202.134065 452.873322 
L 203.318872 451.389023 
L 204.503678 449.436296 
L 205.688484 448.237765 
L 206.87329 446.664186 
L 208.058096 444.665672 
L 209.242902 443.482358 
L 211.612514 439.797048 
L 212.79732 438.532916 
L 213.982127 436.405448 
L 216.351739 433.232008 
L 217.536545 431.01767 
L 218.721351 429.74991 
L 219.906157 427.467235 
L 221.090963 425.932296 
L 223.460575 421.997847 
L 224.645381 420.321594 
L 225.830188 418.054824 
L 227.014994 416.510972 
L 228.1998 414.099033 
L 229.384606 412.583264 
L 230.569412 410.099303 
L 231.754218 408.556209 
L 232.939024 406.012016 
L 234.12383 404.378986 
L 235.308636 401.955455 
L 235.308636 401.955455 
" clip-path="url(#p3f86955239)" style="fill: none; stroke: #008000; stroke-width: 1.5; stroke-linecap: square"/>
   </g>
   <g id="line2d_144">
    <path d="M 69.411098 517.464545 
L 72.940833 517.463486 
L 76.470568 517.463486 
L 80.000303 517.446972 
L 83.530038 517.424984 
L 87.059773 517.392575 
L 90.589508 517.354603 
L 94.119242 517.309744 
L 97.648977 517.254022 
L 101.178712 517.197329 
L 104.708447 517.130216 
L 108.238182 517.052153 
L 111.767917 516.964022 
L 115.297652 516.866178 
L 118.827386 516.76807 
L 122.357121 516.653359 
L 125.886856 516.531407 
L 129.416591 516.390734 
L 132.946326 516.234785 
L 136.476061 516.070269 
L 140.005795 515.887121 
L 143.53553 515.687459 
L 147.065265 515.464131 
L 150.595 515.22897 
L 154.124735 514.970584 
L 157.65447 514.692506 
L 161.184205 514.385021 
L 164.713939 514.045658 
L 168.243674 513.680598 
L 171.773409 513.290282 
L 175.303144 512.864466 
L 178.832879 512.397941 
L 182.362614 511.904041 
L 185.892348 511.366429 
L 189.422083 510.771153 
L 192.951818 510.123864 
L 196.481553 509.443901 
L 200.011288 508.706716 
L 203.541023 507.895971 
L 207.070758 507.028356 
L 210.600492 506.111731 
L 214.130227 505.10989 
L 217.659962 504.041113 
L 221.189697 502.874138 
L 224.719432 501.637401 
L 228.249167 500.308383 
L 231.778902 498.88523 
L 235.308636 497.378363 
" clip-path="url(#p3f86955239)" style="fill: none; stroke: #ff0000; stroke-width: 3; stroke-linecap: square"/>
   </g>
   <g id="patch_33">
    <path d="M 57.41 523.24 
L 57.41 396.18 
" style="fill: none; stroke: #000000; stroke-width: 0.8; stroke-linejoin: miter; stroke-linecap: square"/>
   </g>
   <g id="patch_34">
    <path d="M 243.78 523.24 
L 243.78 396.18 
" style="fill: none; stroke: #000000; stroke-width: 0.8; stroke-linejoin: miter; stroke-linecap: square"/>
   </g>
   <g id="patch_35">
    <path d="M 57.41 523.24 
L 243.78 523.24 
" style="fill: none; stroke: #000000; stroke-width: 0.8; stroke-linejoin: miter; stroke-linecap: square"/>
   </g>
   <g id="patch_36">
    <path d="M 57.41 396.18 
L 243.78 396.18 
" style="fill: none; stroke: #000000; stroke-width: 0.8; stroke-linejoin: miter; stroke-linecap: square"/>
   </g>
   <g id="text_72">
    <!-- EALA -->
    <g transform="translate(135.116875 390.18) scale(0.12 -0.12)">
     <use xlink:href="#DejaVuSans-45"/>
     <use xlink:href="#DejaVuSans-41" x="63.183594"/>
     <use xlink:href="#DejaVuSans-4c" x="131.591797"/>
     <use xlink:href="#DejaVuSans-41" x="189.554688"/>
    </g>
   </g>
  </g>
  <g id="axes_8">
   <g id="patch_37">
    <path d="M 286.52 523.24 
L 472.89 523.24 
L 472.89 396.18 
L 286.52 396.18 
z
" style="fill: #ffffff"/>
   </g>
   <g id="matplotlib.axis_15">
    <g id="xtick_36">
     <g id="line2d_145">
      <path d="M 294.991364 523.24 
L 294.991364 396.18 
" clip-path="url(#p3d4e7c9c62)" style="fill: none; stroke: #b0b0b0; stroke-width: 0.8; stroke-linecap: square"/>
     </g>
     <g id="line2d_146"/>
     <g id="text_73">
      <!-- 0 -->
      <g transform="translate(291.810114 534.338438) scale(0.1 -0.1)">
       <use xlink:href="#DejaVuSans-30"/>
      </g>
     </g>
    </g>
    <g id="xtick_37">
     <g id="line2d_147">
      <path d="M 337.348182 523.24 
L 337.348182 396.18 
" clip-path="url(#p3d4e7c9c62)" style="fill: none; stroke: #b0b0b0; stroke-width: 0.8; stroke-linecap: square"/>
     </g>
     <g id="line2d_148"/>
     <g id="text_74">
      <!-- 12 -->
      <g transform="translate(330.985682 534.338438) scale(0.1 -0.1)">
       <use xlink:href="#DejaVuSans-31"/>
       <use xlink:href="#DejaVuSans-32" x="63.623047"/>
      </g>
     </g>
    </g>
    <g id="xtick_38">
     <g id="line2d_149">
      <path d="M 379.705 523.24 
L 379.705 396.18 
" clip-path="url(#p3d4e7c9c62)" style="fill: none; stroke: #b0b0b0; stroke-width: 0.8; stroke-linecap: square"/>
     </g>
     <g id="line2d_150"/>
     <g id="text_75">
      <!-- 24 -->
      <g transform="translate(373.3425 534.338438) scale(0.1 -0.1)">
       <use xlink:href="#DejaVuSans-32"/>
       <use xlink:href="#DejaVuSans-34" x="63.623047"/>
      </g>
     </g>
    </g>
    <g id="xtick_39">
     <g id="line2d_151">
      <path d="M 422.061818 523.24 
L 422.061818 396.18 
" clip-path="url(#p3d4e7c9c62)" style="fill: none; stroke: #b0b0b0; stroke-width: 0.8; stroke-linecap: square"/>
     </g>
     <g id="line2d_152"/>
     <g id="text_76">
      <!-- 36 -->
      <g transform="translate(415.699318 534.338438) scale(0.1 -0.1)">
       <use xlink:href="#DejaVuSans-33"/>
       <use xlink:href="#DejaVuSans-36" x="63.623047"/>
      </g>
     </g>
    </g>
    <g id="xtick_40">
     <g id="line2d_153">
      <path d="M 464.418636 523.24 
L 464.418636 396.18 
" clip-path="url(#p3d4e7c9c62)" style="fill: none; stroke: #b0b0b0; stroke-width: 0.8; stroke-linecap: square"/>
     </g>
     <g id="line2d_154"/>
     <g id="text_77">
      <!-- 48 -->
      <g transform="translate(458.056136 534.338438) scale(0.1 -0.1)">
       <use xlink:href="#DejaVuSans-34"/>
       <use xlink:href="#DejaVuSans-38" x="63.623047"/>
      </g>
     </g>
    </g>
   </g>
   <g id="matplotlib.axis_16">
    <g id="ytick_31">
     <g id="line2d_155">
      <path d="M 286.52 517.464545 
L 472.89 517.464545 
" clip-path="url(#p3d4e7c9c62)" style="fill: none; stroke: #b0b0b0; stroke-width: 0.8; stroke-linecap: square"/>
     </g>
     <g id="line2d_156"/>
     <g id="text_78">
      <!-- 0.0 -->
      <g transform="translate(267.116875 521.263764) scale(0.1 -0.1)">
       <use xlink:href="#DejaVuSans-30"/>
       <use xlink:href="#DejaVuSans-2e" x="63.623047"/>
       <use xlink:href="#DejaVuSans-30" x="95.410156"/>
      </g>
     </g>
    </g>
    <g id="ytick_32">
     <g id="line2d_157">
      <path d="M 286.52 492.777311 
L 472.89 492.777311 
" clip-path="url(#p3d4e7c9c62)" style="fill: none; stroke: #b0b0b0; stroke-width: 0.8; stroke-linecap: square"/>
     </g>
     <g id="line2d_158"/>
     <g id="text_79">
      <!-- 2.5 -->
      <g transform="translate(267.116875 496.57653) scale(0.1 -0.1)">
       <use xlink:href="#DejaVuSans-32"/>
       <use xlink:href="#DejaVuSans-2e" x="63.623047"/>
       <use xlink:href="#DejaVuSans-35" x="95.410156"/>
      </g>
     </g>
    </g>
    <g id="ytick_33">
     <g id="line2d_159">
      <path d="M 286.52 468.090076 
L 472.89 468.090076 
" clip-path="url(#p3d4e7c9c62)" style="fill: none; stroke: #b0b0b0; stroke-width: 0.8; stroke-linecap: square"/>
     </g>
     <g id="line2d_160"/>
     <g id="text_80">
      <!-- 5.0 -->
      <g transform="translate(267.116875 471.889295) scale(0.1 -0.1)">
       <use xlink:href="#DejaVuSans-35"/>
       <use xlink:href="#DejaVuSans-2e" x="63.623047"/>
       <use xlink:href="#DejaVuSans-30" x="95.410156"/>
      </g>
     </g>
    </g>
    <g id="ytick_34">
     <g id="line2d_161">
      <path d="M 286.52 443.402842 
L 472.89 443.402842 
" clip-path="url(#p3d4e7c9c62)" style="fill: none; stroke: #b0b0b0; stroke-width: 0.8; stroke-linecap: square"/>
     </g>
     <g id="line2d_162"/>
     <g id="text_81">
      <!-- 7.5 -->
      <g transform="translate(267.116875 447.20206) scale(0.1 -0.1)">
       <use xlink:href="#DejaVuSans-37"/>
       <use xlink:href="#DejaVuSans-2e" x="63.623047"/>
       <use xlink:href="#DejaVuSans-35" x="95.410156"/>
      </g>
     </g>
    </g>
    <g id="ytick_35">
     <g id="line2d_163">
      <path d="M 286.52 418.715607 
L 472.89 418.715607 
" clip-path="url(#p3d4e7c9c62)" style="fill: none; stroke: #b0b0b0; stroke-width: 0.8; stroke-linecap: square"/>
     </g>
     <g id="line2d_164"/>
     <g id="text_82">
      <!-- 10.0 -->
      <g transform="translate(260.754375 422.514826) scale(0.1 -0.1)">
       <use xlink:href="#DejaVuSans-31"/>
       <use xlink:href="#DejaVuSans-30" x="63.623047"/>
       <use xlink:href="#DejaVuSans-2e" x="127.246094"/>
       <use xlink:href="#DejaVuSans-30" x="159.033203"/>
      </g>
     </g>
    </g>
   </g>
   <g id="line2d_165">
    <path d="M 294.991364 517.464545 
L 297.360976 517.322775 
L 302.1002 516.78267 
L 317.50268 514.616635 
L 324.611516 513.365634 
L 331.720353 511.983108 
L 338.829189 510.316131 
L 345.938026 508.483408 
L 351.862057 506.733737 
L 357.786087 504.749187 
L 363.710118 502.527058 
L 369.634148 500.042964 
L 375.558179 497.276797 
L 380.297403 494.842445 
L 385.036627 492.197298 
L 389.775852 489.328353 
L 394.515076 486.223309 
L 399.254301 482.867725 
L 403.993525 479.246211 
L 408.73275 475.343916 
L 413.471974 471.143921 
L 418.211198 466.629512 
L 422.950423 461.783167 
L 427.689647 456.585625 
L 432.428872 451.016384 
L 437.168096 445.053917 
L 441.90732 438.676093 
L 446.646545 431.859142 
L 451.385769 424.578619 
L 456.124994 416.809049 
L 460.864218 408.524002 
L 464.418636 401.955455 
L 464.418636 401.955455 
" clip-path="url(#p3d4e7c9c62)" style="fill: none; stroke: #008000; stroke-width: 1.5; stroke-linecap: square"/>
   </g>
   <g id="line2d_166">
    <path d="M 298.521098 517.464545 
L 302.050833 517.464176 
L 305.580568 517.312691 
L 309.110303 517.078453 
L 312.640038 516.784523 
L 316.169773 516.445134 
L 319.699508 516.066348 
L 323.229242 515.6529 
L 326.758977 515.207365 
L 330.288712 514.733925 
L 333.818447 514.230969 
L 337.348182 513.698022 
L 340.877917 513.136251 
L 344.407652 512.545808 
L 347.937386 511.923184 
L 351.467121 511.271403 
L 354.996856 510.587731 
L 358.526591 509.868975 
L 362.056326 509.113105 
L 365.586061 508.318649 
L 369.115795 507.48676 
L 372.64553 506.613366 
L 376.175265 505.695175 
L 379.705 504.731813 
L 383.234735 503.720288 
L 386.76447 502.654976 
L 390.294205 501.538661 
L 393.823939 500.366906 
L 397.353674 499.138562 
L 400.883409 497.843592 
L 404.413144 496.483136 
L 407.942879 495.058137 
L 411.472614 493.562296 
L 415.002348 491.99162 
L 418.532083 490.33359 
L 422.061818 488.59518 
L 425.591553 486.77485 
L 429.121288 484.859932 
L 432.651023 482.850245 
L 436.180758 480.744613 
L 439.710492 478.528963 
L 443.240227 476.203282 
L 446.769962 473.762672 
L 450.299697 471.199367 
L 453.829432 468.512657 
L 457.359167 465.690381 
L 460.888902 462.732731 
L 464.418636 459.622188 
" clip-path="url(#p3d4e7c9c62)" style="fill: none; stroke: #ff0000; stroke-width: 3; stroke-linecap: square"/>
   </g>
   <g id="patch_38">
    <path d="M 286.52 523.24 
L 286.52 396.18 
" style="fill: none; stroke: #000000; stroke-width: 0.8; stroke-linejoin: miter; stroke-linecap: square"/>
   </g>
   <g id="patch_39">
    <path d="M 472.89 523.24 
L 472.89 396.18 
" style="fill: none; stroke: #000000; stroke-width: 0.8; stroke-linejoin: miter; stroke-linecap: square"/>
   </g>
   <g id="patch_40">
    <path d="M 286.52 523.24 
L 472.89 523.24 
" style="fill: none; stroke: #000000; stroke-width: 0.8; stroke-linejoin: miter; stroke-linecap: square"/>
   </g>
   <g id="patch_41">
    <path d="M 286.52 396.18 
L 472.89 396.18 
" style="fill: none; stroke: #000000; stroke-width: 0.8; stroke-linejoin: miter; stroke-linecap: square"/>
   </g>
   <g id="text_83">
    <!-- ELAC -->
    <g transform="translate(364.246563 390.18) scale(0.12 -0.12)">
     <use xlink:href="#DejaVuSans-45"/>
     <use xlink:href="#DejaVuSans-4c" x="63.183594"/>
     <use xlink:href="#DejaVuSans-41" x="121.146484"/>
     <use xlink:href="#DejaVuSans-43" x="187.804688"/>
    </g>
   </g>
  </g>
  <g id="axes_9">
   <g id="patch_42">
    <path d="M 515.63 523.24 
L 702 523.24 
L 702 396.18 
L 515.63 396.18 
z
" style="fill: #ffffff"/>
   </g>
   <g id="matplotlib.axis_17">
    <g id="xtick_41">
     <g id="line2d_167">
      <path d="M 524.101364 523.24 
L 524.101364 396.18 
" clip-path="url(#pbef97def2e)" style="fill: none; stroke: #b0b0b0; stroke-width: 0.8; stroke-linecap: square"/>
     </g>
     <g id="line2d_168"/>
     <g id="text_84">
      <!-- 0 -->
      <g transform="translate(520.920114 534.338438) scale(0.1 -0.1)">
       <use xlink:href="#DejaVuSans-30"/>
      </g>
     </g>
    </g>
    <g id="xtick_42">
     <g id="line2d_169">
      <path d="M 566.458182 523.24 
L 566.458182 396.18 
" clip-path="url(#pbef97def2e)" style="fill: none; stroke: #b0b0b0; stroke-width: 0.8; stroke-linecap: square"/>
     </g>
     <g id="line2d_170"/>
     <g id="text_85">
      <!-- 12 -->
      <g transform="translate(560.095682 534.338438) scale(0.1 -0.1)">
       <use xlink:href="#DejaVuSans-31"/>
       <use xlink:href="#DejaVuSans-32" x="63.623047"/>
      </g>
     </g>
    </g>
    <g id="xtick_43">
     <g id="line2d_171">
      <path d="M 608.815 523.24 
L 608.815 396.18 
" clip-path="url(#pbef97def2e)" style="fill: none; stroke: #b0b0b0; stroke-width: 0.8; stroke-linecap: square"/>
     </g>
     <g id="line2d_172"/>
     <g id="text_86">
      <!-- 24 -->
      <g transform="translate(602.4525 534.338438) scale(0.1 -0.1)">
       <use xlink:href="#DejaVuSans-32"/>
       <use xlink:href="#DejaVuSans-34" x="63.623047"/>
      </g>
     </g>
    </g>
    <g id="xtick_44">
     <g id="line2d_173">
      <path d="M 651.171818 523.24 
L 651.171818 396.18 
" clip-path="url(#pbef97def2e)" style="fill: none; stroke: #b0b0b0; stroke-width: 0.8; stroke-linecap: square"/>
     </g>
     <g id="line2d_174"/>
     <g id="text_87">
      <!-- 36 -->
      <g transform="translate(644.809318 534.338438) scale(0.1 -0.1)">
       <use xlink:href="#DejaVuSans-33"/>
       <use xlink:href="#DejaVuSans-36" x="63.623047"/>
      </g>
     </g>
    </g>
    <g id="xtick_45">
     <g id="line2d_175">
      <path d="M 693.528636 523.24 
L 693.528636 396.18 
" clip-path="url(#pbef97def2e)" style="fill: none; stroke: #b0b0b0; stroke-width: 0.8; stroke-linecap: square"/>
     </g>
     <g id="line2d_176"/>
     <g id="text_88">
      <!-- 48 -->
      <g transform="translate(687.166136 534.338438) scale(0.1 -0.1)">
       <use xlink:href="#DejaVuSans-34"/>
       <use xlink:href="#DejaVuSans-38" x="63.623047"/>
      </g>
     </g>
    </g>
   </g>
   <g id="matplotlib.axis_18">
    <g id="ytick_36">
     <g id="line2d_177">
      <path d="M 515.63 520.04557 
L 702 520.04557 
" clip-path="url(#pbef97def2e)" style="fill: none; stroke: #b0b0b0; stroke-width: 0.8; stroke-linecap: square"/>
     </g>
     <g id="line2d_178"/>
     <g id="text_89">
      <!-- 0.0 -->
      <g transform="translate(496.226875 523.844789) scale(0.1 -0.1)">
       <use xlink:href="#DejaVuSans-30"/>
       <use xlink:href="#DejaVuSans-2e" x="63.623047"/>
       <use xlink:href="#DejaVuSans-30" x="95.410156"/>
      </g>
     </g>
    </g>
    <g id="ytick_37">
     <g id="line2d_179">
      <path d="M 515.63 482.457835 
L 702 482.457835 
" clip-path="url(#pbef97def2e)" style="fill: none; stroke: #b0b0b0; stroke-width: 0.8; stroke-linecap: square"/>
     </g>
     <g id="line2d_180"/>
     <g id="text_90">
      <!-- 0.5 -->
      <g transform="translate(496.226875 486.257054) scale(0.1 -0.1)">
       <use xlink:href="#DejaVuSans-30"/>
       <use xlink:href="#DejaVuSans-2e" x="63.623047"/>
       <use xlink:href="#DejaVuSans-35" x="95.410156"/>
      </g>
     </g>
    </g>
    <g id="ytick_38">
     <g id="line2d_181">
      <path d="M 515.63 444.8701 
L 702 444.8701 
" clip-path="url(#pbef97def2e)" style="fill: none; stroke: #b0b0b0; stroke-width: 0.8; stroke-linecap: square"/>
     </g>
     <g id="line2d_182"/>
     <g id="text_91">
      <!-- 1.0 -->
      <g transform="translate(496.226875 448.669319) scale(0.1 -0.1)">
       <use xlink:href="#DejaVuSans-31"/>
       <use xlink:href="#DejaVuSans-2e" x="63.623047"/>
       <use xlink:href="#DejaVuSans-30" x="95.410156"/>
      </g>
     </g>
    </g>
    <g id="ytick_39">
     <g id="line2d_183">
      <path d="M 515.63 407.282366 
L 702 407.282366 
" clip-path="url(#pbef97def2e)" style="fill: none; stroke: #b0b0b0; stroke-width: 0.8; stroke-linecap: square"/>
     </g>
     <g id="line2d_184"/>
     <g id="text_92">
      <!-- 1.5 -->
      <g transform="translate(496.226875 411.081585) scale(0.1 -0.1)">
       <use xlink:href="#DejaVuSans-31"/>
       <use xlink:href="#DejaVuSans-2e" x="63.623047"/>
       <use xlink:href="#DejaVuSans-35" x="95.410156"/>
      </g>
     </g>
    </g>
   </g>
   <g id="line2d_185">
    <path d="M 524.101364 517.464545 
L 527.655782 517.240899 
L 532.395006 516.673579 
L 538.319037 515.692909 
L 544.243067 514.473271 
L 550.167098 513.045777 
L 557.275935 511.078681 
L 564.384771 508.842923 
L 571.493608 506.337413 
L 578.602444 503.556753 
L 584.526475 501.018332 
L 590.450505 498.269986 
L 596.374536 495.299771 
L 602.298566 492.095724 
L 608.222597 488.644827 
L 614.146627 484.93326 
L 620.070658 480.946495 
L 625.994688 476.669127 
L 631.918719 472.085526 
L 637.84275 467.178816 
L 643.76678 461.931777 
L 649.690811 456.327256 
L 655.614841 450.344231 
L 660.354065 445.276806 
L 665.09329 439.94643 
L 671.01732 432.900599 
L 676.941351 425.412131 
L 682.865381 417.464324 
L 688.789412 409.041527 
L 693.528636 401.955455 
L 693.528636 401.955455 
" clip-path="url(#pbef97def2e)" style="fill: none; stroke: #008000; stroke-width: 1.5; stroke-linecap: square"/>
   </g>
   <g id="line2d_186">
    <path d="M 527.631098 517.464545 
L 531.160833 517.393865 
L 534.690568 517.233817 
L 538.220303 517.018469 
L 541.750038 516.752529 
L 545.279773 516.444264 
L 548.809508 516.08812 
L 552.339242 515.683736 
L 555.868977 515.238201 
L 559.398712 514.747313 
L 562.928447 514.211274 
L 566.458182 513.627958 
L 569.987917 512.997927 
L 573.517652 512.328257 
L 577.047386 511.602362 
L 580.577121 510.828047 
L 584.106856 510.000403 
L 587.636591 509.125864 
L 591.166326 508.193779 
L 594.696061 507.201042 
L 598.225795 506.154186 
L 601.75553 505.044483 
L 605.285265 503.872821 
L 608.815 502.638582 
L 612.344735 501.333596 
L 615.87447 499.962546 
L 619.404205 498.519079 
L 622.933939 496.998355 
L 626.463674 495.399403 
L 629.993409 493.725914 
L 633.523144 491.96759 
L 637.052879 490.120138 
L 640.582614 488.190188 
L 644.112348 486.168629 
L 647.642083 484.046734 
L 651.171818 481.834064 
L 654.701553 479.52317 
L 658.231288 477.106828 
L 661.761023 474.581323 
L 665.290758 471.948543 
L 668.820492 469.193572 
L 672.350227 466.312457 
L 675.879962 463.328375 
L 679.409697 460.223267 
L 682.939432 456.989669 
L 686.469167 453.625462 
L 689.998902 450.131223 
L 693.528636 446.510885 
" clip-path="url(#pbef97def2e)" style="fill: none; stroke: #ff0000; stroke-width: 3; stroke-linecap: square"/>
   </g>
   <g id="patch_43">
    <path d="M 515.63 523.24 
L 515.63 396.18 
" style="fill: none; stroke: #000000; stroke-width: 0.8; stroke-linejoin: miter; stroke-linecap: square"/>
   </g>
   <g id="patch_44">
    <path d="M 702 523.24 
L 702 396.18 
" style="fill: none; stroke: #000000; stroke-width: 0.8; stroke-linejoin: miter; stroke-linecap: square"/>
   </g>
   <g id="patch_45">
    <path d="M 515.63 523.24 
L 702 523.24 
" style="fill: none; stroke: #000000; stroke-width: 0.8; stroke-linejoin: miter; stroke-linecap: square"/>
   </g>
   <g id="patch_46">
    <path d="M 515.63 396.18 
L 702 396.18 
" style="fill: none; stroke: #000000; stroke-width: 0.8; stroke-linejoin: miter; stroke-linecap: square"/>
   </g>
   <g id="text_93">
    <!-- NH4 -->
    <g transform="translate(595.996563 390.18) scale(0.12 -0.12)">
     <defs>
      <path id="DejaVuSans-48" d="M 628 4666 
L 1259 4666 
L 1259 2753 
L 3553 2753 
L 3553 4666 
L 4184 4666 
L 4184 0 
L 3553 0 
L 3553 2222 
L 1259 2222 
L 1259 0 
L 628 0 
L 628 4666 
z
" transform="scale(0.015625)"/>
     </defs>
     <use xlink:href="#DejaVuSans-4e"/>
     <use xlink:href="#DejaVuSans-48" x="74.804688"/>
     <use xlink:href="#DejaVuSans-34" x="150"/>
    </g>
   </g>
  </g>
  <g id="text_94">
   <!-- Time (h) -->
   <g transform="translate(315.192656 566.196563) scale(0.18 -0.18)">
    <defs>
     <path id="DejaVuSans-54" d="M -19 4666 
L 3928 4666 
L 3928 4134 
L 2272 4134 
L 2272 0 
L 1638 0 
L 1638 4134 
L -19 4134 
L -19 4666 
z
" transform="scale(0.015625)"/>
     <path id="DejaVuSans-69" d="M 603 3500 
L 1178 3500 
L 1178 0 
L 603 0 
L 603 3500 
z
M 603 4863 
L 1178 4863 
L 1178 4134 
L 603 4134 
L 603 4863 
z
" transform="scale(0.015625)"/>
     <path id="DejaVuSans-6d" d="M 3328 2828 
Q 3544 3216 3844 3400 
Q 4144 3584 4550 3584 
Q 5097 3584 5394 3201 
Q 5691 2819 5691 2113 
L 5691 0 
L 5113 0 
L 5113 2094 
Q 5113 2597 4934 2840 
Q 4756 3084 4391 3084 
Q 3944 3084 3684 2787 
Q 3425 2491 3425 1978 
L 3425 0 
L 2847 0 
L 2847 2094 
Q 2847 2600 2669 2842 
Q 2491 3084 2119 3084 
Q 1678 3084 1418 2786 
Q 1159 2488 1159 1978 
L 1159 0 
L 581 0 
L 581 3500 
L 1159 3500 
L 1159 2956 
Q 1356 3278 1631 3431 
Q 1906 3584 2284 3584 
Q 2666 3584 2933 3390 
Q 3200 3197 3328 2828 
z
" transform="scale(0.015625)"/>
     <path id="DejaVuSans-65" d="M 3597 1894 
L 3597 1613 
L 953 1613 
Q 991 1019 1311 708 
Q 1631 397 2203 397 
Q 2534 397 2845 478 
Q 3156 559 3463 722 
L 3463 178 
Q 3153 47 2828 -22 
Q 2503 -91 2169 -91 
Q 1331 -91 842 396 
Q 353 884 353 1716 
Q 353 2575 817 3079 
Q 1281 3584 2069 3584 
Q 2775 3584 3186 3129 
Q 3597 2675 3597 1894 
z
M 3022 2063 
Q 3016 2534 2758 2815 
Q 2500 3097 2075 3097 
Q 1594 3097 1305 2825 
Q 1016 2553 972 2059 
L 3022 2063 
z
" transform="scale(0.015625)"/>
     <path id="DejaVuSans-20" transform="scale(0.015625)"/>
     <path id="DejaVuSans-28" d="M 1984 4856 
Q 1566 4138 1362 3434 
Q 1159 2731 1159 2009 
Q 1159 1288 1364 580 
Q 1569 -128 1984 -844 
L 1484 -844 
Q 1016 -109 783 600 
Q 550 1309 550 2009 
Q 550 2706 781 3412 
Q 1013 4119 1484 4856 
L 1984 4856 
z
" transform="scale(0.015625)"/>
     <path id="DejaVuSans-68" d="M 3513 2113 
L 3513 0 
L 2938 0 
L 2938 2094 
Q 2938 2591 2744 2837 
Q 2550 3084 2163 3084 
Q 1697 3084 1428 2787 
Q 1159 2491 1159 1978 
L 1159 0 
L 581 0 
L 581 4863 
L 1159 4863 
L 1159 2956 
Q 1366 3272 1645 3428 
Q 1925 3584 2291 3584 
Q 2894 3584 3203 3211 
Q 3513 2838 3513 2113 
z
" transform="scale(0.015625)"/>
     <path id="DejaVuSans-29" d="M 513 4856 
L 1013 4856 
Q 1481 4119 1714 3412 
Q 1947 2706 1947 2009 
Q 1947 1309 1714 600 
Q 1481 -109 1013 -844 
L 513 -844 
Q 928 -128 1133 580 
Q 1338 1288 1338 2009 
Q 1338 2731 1133 3434 
Q 928 4138 513 4856 
z
" transform="scale(0.015625)"/>
    </defs>
    <use xlink:href="#DejaVuSans-54"/>
    <use xlink:href="#DejaVuSans-69" x="57.958984"/>
    <use xlink:href="#DejaVuSans-6d" x="85.742188"/>
    <use xlink:href="#DejaVuSans-65" x="183.154297"/>
    <use xlink:href="#DejaVuSans-20" x="244.677734"/>
    <use xlink:href="#DejaVuSans-28" x="276.464844"/>
    <use xlink:href="#DejaVuSans-68" x="315.478516"/>
    <use xlink:href="#DejaVuSans-29" x="378.857422"/>
   </g>
  </g>
  <g id="text_95">
   <!-- Concentration (mM) -->
   <g transform="translate(20.877188 377.782969) rotate(-90) scale(0.18 -0.18)">
    <defs>
     <path id="DejaVuSans-6f" d="M 1959 3097 
Q 1497 3097 1228 2736 
Q 959 2375 959 1747 
Q 959 1119 1226 758 
Q 1494 397 1959 397 
Q 2419 397 2687 759 
Q 2956 1122 2956 1747 
Q 2956 2369 2687 2733 
Q 2419 3097 1959 3097 
z
M 1959 3584 
Q 2709 3584 3137 3096 
Q 3566 2609 3566 1747 
Q 3566 888 3137 398 
Q 2709 -91 1959 -91 
Q 1206 -91 779 398 
Q 353 888 353 1747 
Q 353 2609 779 3096 
Q 1206 3584 1959 3584 
z
" transform="scale(0.015625)"/>
     <path id="DejaVuSans-6e" d="M 3513 2113 
L 3513 0 
L 2938 0 
L 2938 2094 
Q 2938 2591 2744 2837 
Q 2550 3084 2163 3084 
Q 1697 3084 1428 2787 
Q 1159 2491 1159 1978 
L 1159 0 
L 581 0 
L 581 3500 
L 1159 3500 
L 1159 2956 
Q 1366 3272 1645 3428 
Q 1925 3584 2291 3584 
Q 2894 3584 3203 3211 
Q 3513 2838 3513 2113 
z
" transform="scale(0.015625)"/>
     <path id="DejaVuSans-63" d="M 3122 3366 
L 3122 2828 
Q 2878 2963 2633 3030 
Q 2388 3097 2138 3097 
Q 1578 3097 1268 2742 
Q 959 2388 959 1747 
Q 959 1106 1268 751 
Q 1578 397 2138 397 
Q 2388 397 2633 464 
Q 2878 531 3122 666 
L 3122 134 
Q 2881 22 2623 -34 
Q 2366 -91 2075 -91 
Q 1284 -91 818 406 
Q 353 903 353 1747 
Q 353 2603 823 3093 
Q 1294 3584 2113 3584 
Q 2378 3584 2631 3529 
Q 2884 3475 3122 3366 
z
" transform="scale(0.015625)"/>
     <path id="DejaVuSans-74" d="M 1172 4494 
L 1172 3500 
L 2356 3500 
L 2356 3053 
L 1172 3053 
L 1172 1153 
Q 1172 725 1289 603 
Q 1406 481 1766 481 
L 2356 481 
L 2356 0 
L 1766 0 
Q 1100 0 847 248 
Q 594 497 594 1153 
L 594 3053 
L 172 3053 
L 172 3500 
L 594 3500 
L 594 4494 
L 1172 4494 
z
" transform="scale(0.015625)"/>
     <path id="DejaVuSans-72" d="M 2631 2963 
Q 2534 3019 2420 3045 
Q 2306 3072 2169 3072 
Q 1681 3072 1420 2755 
Q 1159 2438 1159 1844 
L 1159 0 
L 581 0 
L 581 3500 
L 1159 3500 
L 1159 2956 
Q 1341 3275 1631 3429 
Q 1922 3584 2338 3584 
Q 2397 3584 2469 3576 
Q 2541 3569 2628 3553 
L 2631 2963 
z
" transform="scale(0.015625)"/>
     <path id="DejaVuSans-61" d="M 2194 1759 
Q 1497 1759 1228 1600 
Q 959 1441 959 1056 
Q 959 750 1161 570 
Q 1363 391 1709 391 
Q 2188 391 2477 730 
Q 2766 1069 2766 1631 
L 2766 1759 
L 2194 1759 
z
M 3341 1997 
L 3341 0 
L 2766 0 
L 2766 531 
Q 2569 213 2275 61 
Q 1981 -91 1556 -91 
Q 1019 -91 701 211 
Q 384 513 384 1019 
Q 384 1609 779 1909 
Q 1175 2209 1959 2209 
L 2766 2209 
L 2766 2266 
Q 2766 2663 2505 2880 
Q 2244 3097 1772 3097 
Q 1472 3097 1187 3025 
Q 903 2953 641 2809 
L 641 3341 
Q 956 3463 1253 3523 
Q 1550 3584 1831 3584 
Q 2591 3584 2966 3190 
Q 3341 2797 3341 1997 
z
" transform="scale(0.015625)"/>
     <path id="DejaVuSans-4d" d="M 628 4666 
L 1569 4666 
L 2759 1491 
L 3956 4666 
L 4897 4666 
L 4897 0 
L 4281 0 
L 4281 4097 
L 3078 897 
L 2444 897 
L 1241 4097 
L 1241 0 
L 628 0 
L 628 4666 
z
" transform="scale(0.015625)"/>
    </defs>
    <use xlink:href="#DejaVuSans-43"/>
    <use xlink:href="#DejaVuSans-6f" x="69.824219"/>
    <use xlink:href="#DejaVuSans-6e" x="131.005859"/>
    <use xlink:href="#DejaVuSans-63" x="194.384766"/>
    <use xlink:href="#DejaVuSans-65" x="249.365234"/>
    <use xlink:href="#DejaVuSans-6e" x="310.888672"/>
    <use xlink:href="#DejaVuSans-74" x="374.267578"/>
    <use xlink:href="#DejaVuSans-72" x="413.476562"/>
    <use xlink:href="#DejaVuSans-61" x="454.589844"/>
    <use xlink:href="#DejaVuSans-74" x="515.869141"/>
    <use xlink:href="#DejaVuSans-69" x="555.078125"/>
    <use xlink:href="#DejaVuSans-6f" x="582.861328"/>
    <use xlink:href="#DejaVuSans-6e" x="644.042969"/>
    <use xlink:href="#DejaVuSans-20" x="707.421875"/>
    <use xlink:href="#DejaVuSans-28" x="739.208984"/>
    <use xlink:href="#DejaVuSans-6d" x="778.222656"/>
    <use xlink:href="#DejaVuSans-4d" x="875.634766"/>
    <use xlink:href="#DejaVuSans-29" x="961.914062"/>
   </g>
  </g>
  <g id="legend_1">
   <g id="patch_47">
    <path d="M 196.669531 35.717187 
L 512.930469 35.717187 
Q 515.930469 35.717187 515.930469 32.717187 
L 515.930469 12.2 
Q 515.930469 9.2 512.930469 9.2 
L 196.669531 9.2 
Q 193.669531 9.2 193.669531 12.2 
L 193.669531 32.717187 
Q 193.669531 35.717187 196.669531 35.717187 
z
" style="fill: #4c4c4c; opacity: 0.5; stroke: #4c4c4c; stroke-linejoin: miter"/>
   </g>
   <g id="patch_48">
    <path d="M 194.669531 33.717187 
L 510.930469 33.717187 
Q 513.930469 33.717187 513.930469 30.717187 
L 513.930469 10.2 
Q 513.930469 7.2 510.930469 7.2 
L 194.669531 7.2 
Q 191.669531 7.2 191.669531 10.2 
L 191.669531 30.717187 
Q 191.669531 33.717187 194.669531 33.717187 
z
" style="fill: #ffffff; stroke: #cccccc; stroke-linejoin: miter"/>
   </g>
   <g id="line2d_187">
    <path d="M 197.669531 19.347656 
L 212.669531 19.347656 
L 227.669531 19.347656 
" style="fill: none; stroke: #008000; stroke-width: 1.5; stroke-linecap: square"/>
   </g>
   <g id="text_96">
    <!-- Mechanistic Model -->
    <g transform="translate(239.669531 24.597656) scale(0.15 -0.15)">
     <defs>
      <path id="DejaVuSans-73" d="M 2834 3397 
L 2834 2853 
Q 2591 2978 2328 3040 
Q 2066 3103 1784 3103 
Q 1356 3103 1142 2972 
Q 928 2841 928 2578 
Q 928 2378 1081 2264 
Q 1234 2150 1697 2047 
L 1894 2003 
Q 2506 1872 2764 1633 
Q 3022 1394 3022 966 
Q 3022 478 2636 193 
Q 2250 -91 1575 -91 
Q 1294 -91 989 -36 
Q 684 19 347 128 
L 347 722 
Q 666 556 975 473 
Q 1284 391 1588 391 
Q 1994 391 2212 530 
Q 2431 669 2431 922 
Q 2431 1156 2273 1281 
Q 2116 1406 1581 1522 
L 1381 1569 
Q 847 1681 609 1914 
Q 372 2147 372 2553 
Q 372 3047 722 3315 
Q 1072 3584 1716 3584 
Q 2034 3584 2315 3537 
Q 2597 3491 2834 3397 
z
" transform="scale(0.015625)"/>
      <path id="DejaVuSans-64" d="M 2906 2969 
L 2906 4863 
L 3481 4863 
L 3481 0 
L 2906 0 
L 2906 525 
Q 2725 213 2448 61 
Q 2172 -91 1784 -91 
Q 1150 -91 751 415 
Q 353 922 353 1747 
Q 353 2572 751 3078 
Q 1150 3584 1784 3584 
Q 2172 3584 2448 3432 
Q 2725 3281 2906 2969 
z
M 947 1747 
Q 947 1113 1208 752 
Q 1469 391 1925 391 
Q 2381 391 2643 752 
Q 2906 1113 2906 1747 
Q 2906 2381 2643 2742 
Q 2381 3103 1925 3103 
Q 1469 3103 1208 2742 
Q 947 2381 947 1747 
z
" transform="scale(0.015625)"/>
      <path id="DejaVuSans-6c" d="M 603 4863 
L 1178 4863 
L 1178 0 
L 603 0 
L 603 4863 
z
" transform="scale(0.015625)"/>
     </defs>
     <use xlink:href="#DejaVuSans-4d"/>
     <use xlink:href="#DejaVuSans-65" x="86.279297"/>
     <use xlink:href="#DejaVuSans-63" x="147.802734"/>
     <use xlink:href="#DejaVuSans-68" x="202.783203"/>
     <use xlink:href="#DejaVuSans-61" x="266.162109"/>
     <use xlink:href="#DejaVuSans-6e" x="327.441406"/>
     <use xlink:href="#DejaVuSans-69" x="390.820312"/>
     <use xlink:href="#DejaVuSans-73" x="418.603516"/>
     <use xlink:href="#DejaVuSans-74" x="470.703125"/>
     <use xlink:href="#DejaVuSans-69" x="509.912109"/>
     <use xlink:href="#DejaVuSans-63" x="537.695312"/>
     <use xlink:href="#DejaVuSans-20" x="592.675781"/>
     <use xlink:href="#DejaVuSans-4d" x="624.462891"/>
     <use xlink:href="#DejaVuSans-6f" x="710.742188"/>
     <use xlink:href="#DejaVuSans-64" x="771.923828"/>
     <use xlink:href="#DejaVuSans-65" x="835.400391"/>
     <use xlink:href="#DejaVuSans-6c" x="896.923828"/>
    </g>
   </g>
   <g id="line2d_188">
    <path d="M 408.377344 19.347656 
L 423.377344 19.347656 
L 438.377344 19.347656 
" style="fill: none; stroke: #ff0000; stroke-width: 3; stroke-linecap: square"/>
   </g>
   <g id="text_97">
    <!-- Bio-SoS -->
    <g transform="translate(450.377344 24.597656) scale(0.15 -0.15)">
     <defs>
      <path id="DejaVuSans-42" d="M 1259 2228 
L 1259 519 
L 2272 519 
Q 2781 519 3026 730 
Q 3272 941 3272 1375 
Q 3272 1813 3026 2020 
Q 2781 2228 2272 2228 
L 1259 2228 
z
M 1259 4147 
L 1259 2741 
L 2194 2741 
Q 2656 2741 2882 2914 
Q 3109 3088 3109 3444 
Q 3109 3797 2882 3972 
Q 2656 4147 2194 4147 
L 1259 4147 
z
M 628 4666 
L 2241 4666 
Q 2963 4666 3353 4366 
Q 3744 4066 3744 3513 
Q 3744 3084 3544 2831 
Q 3344 2578 2956 2516 
Q 3422 2416 3680 2098 
Q 3938 1781 3938 1306 
Q 3938 681 3513 340 
Q 3088 0 2303 0 
L 628 0 
L 628 4666 
z
" transform="scale(0.015625)"/>
      <path id="DejaVuSans-2d" d="M 313 2009 
L 1997 2009 
L 1997 1497 
L 313 1497 
L 313 2009 
z
" transform="scale(0.015625)"/>
     </defs>
     <use xlink:href="#DejaVuSans-42"/>
     <use xlink:href="#DejaVuSans-69" x="68.603516"/>
     <use xlink:href="#DejaVuSans-6f" x="96.386719"/>
     <use xlink:href="#DejaVuSans-2d" x="159.443359"/>
     <use xlink:href="#DejaVuSans-53" x="195.527344"/>
     <use xlink:href="#DejaVuSans-6f" x="259.003906"/>
     <use xlink:href="#DejaVuSans-53" x="320.185547"/>
    </g>
   </g>
  </g>
 </g>
 <defs>
  <clipPath id="p2c64e2187d">
   <rect x="57.41" y="61.14" width="186.37" height="127.06"/>
  </clipPath>
  <clipPath id="p134b6ff807">
   <rect x="286.52" y="61.14" width="186.37" height="127.06"/>
  </clipPath>
  <clipPath id="p124784d81f">
   <rect x="515.63" y="61.14" width="186.37" height="127.06"/>
  </clipPath>
  <clipPath id="pf8f9cbacc7">
   <rect x="57.41" y="228.66" width="186.37" height="127.06"/>
  </clipPath>
  <clipPath id="pe8be7d01f5">
   <rect x="286.52" y="228.66" width="186.37" height="127.06"/>
  </clipPath>
  <clipPath id="pbd306bbd2c">
   <rect x="515.63" y="228.66" width="186.37" height="127.06"/>
  </clipPath>
  <clipPath id="p3f86955239">
   <rect x="57.41" y="396.18" width="186.37" height="127.06"/>
  </clipPath>
  <clipPath id="p3d4e7c9c62">
   <rect x="286.52" y="396.18" width="186.37" height="127.06"/>
  </clipPath>
  <clipPath id="pbef97def2e">
   <rect x="515.63" y="396.18" width="186.37" height="127.06"/>
  </clipPath>
 </defs>
</svg>
